G04 #@! TF.GenerationSoftware,KiCad,Pcbnew,(5.0.0-3-g5ebb6b6)*
G04 #@! TF.CreationDate,2019-04-25T19:55:48+02:00*
G04 #@! TF.ProjectId,triggerhappy,7472696767657268617070792E6B6963,rev?*
G04 #@! TF.SameCoordinates,Original*
G04 #@! TF.FileFunction,Soldermask,Bot*
G04 #@! TF.FilePolarity,Negative*
%FSLAX46Y46*%
G04 Gerber Fmt 4.6, Leading zero omitted, Abs format (unit mm)*
G04 Created by KiCad (PCBNEW (5.0.0-3-g5ebb6b6)) date Thursday 25 April 2019 19:55:48*
%MOMM*%
%LPD*%
G01*
G04 APERTURE LIST*
%ADD10C,2.000000*%
%ADD11R,2.000000X2.000000*%
%ADD12R,2.600000X2.600000*%
%ADD13O,2.600000X2.600000*%
%ADD14O,2.000000X2.000000*%
%ADD15R,2.200000X2.200000*%
%ADD16C,2.200000*%
%ADD17R,2.100000X2.100000*%
%ADD18O,2.100000X2.100000*%
%ADD19O,3.400000X5.900000*%
%ADD20O,3.400000X4.400000*%
%ADD21O,5.900000X3.400000*%
%ADD22C,1.524000*%
%ADD23C,4.400000*%
%ADD24R,2.400000X2.400000*%
G04 APERTURE END LIST*
D10*
G04 #@! TO.C,C1*
X191992000Y-142367000D03*
D11*
X189992000Y-142367000D03*
G04 #@! TD*
D10*
G04 #@! TO.C,C2*
X193675000Y-51943000D03*
X193675000Y-46943000D03*
G04 #@! TD*
G04 #@! TO.C,C3*
X215185000Y-58928000D03*
X210185000Y-58928000D03*
G04 #@! TD*
G04 #@! TO.C,C4*
X190293000Y-85598000D03*
X185293000Y-85598000D03*
G04 #@! TD*
G04 #@! TO.C,C5*
X184658000Y-106807000D03*
X189658000Y-106807000D03*
G04 #@! TD*
D11*
G04 #@! TO.C,C6*
X179705000Y-62865000D03*
D10*
X181705000Y-62865000D03*
G04 #@! TD*
G04 #@! TO.C,C7*
X181705000Y-84074000D03*
D11*
X179705000Y-84074000D03*
G04 #@! TD*
G04 #@! TO.C,C8*
X179578000Y-105156000D03*
D10*
X181578000Y-105156000D03*
G04 #@! TD*
D11*
G04 #@! TO.C,C9*
X190754000Y-126619000D03*
D10*
X190754000Y-124619000D03*
G04 #@! TD*
G04 #@! TO.C,C10*
X193421000Y-72564000D03*
X193421000Y-67564000D03*
G04 #@! TD*
G04 #@! TO.C,C11*
X209550000Y-65278000D03*
X209550000Y-70278000D03*
G04 #@! TD*
G04 #@! TO.C,C12*
X193294000Y-113792000D03*
X193294000Y-108792000D03*
G04 #@! TD*
G04 #@! TO.C,C13*
X200232000Y-88900000D03*
X205232000Y-88900000D03*
G04 #@! TD*
D12*
G04 #@! TO.C,D1*
X190754000Y-130048000D03*
D13*
X190754000Y-137668000D03*
G04 #@! TD*
D14*
G04 #@! TO.C,D2*
X225298000Y-61595000D03*
D11*
X217678000Y-61595000D03*
G04 #@! TD*
G04 #@! TO.C,D3*
X192151000Y-61341000D03*
D14*
X184531000Y-61341000D03*
G04 #@! TD*
D11*
G04 #@! TO.C,D4*
X192151000Y-82550000D03*
D14*
X184531000Y-82550000D03*
G04 #@! TD*
D11*
G04 #@! TO.C,D5*
X192151000Y-103632000D03*
D14*
X184531000Y-103632000D03*
G04 #@! TD*
G04 #@! TO.C,D6*
X193167000Y-118745000D03*
D11*
X200787000Y-118745000D03*
G04 #@! TD*
D15*
G04 #@! TO.C,D7*
X212217000Y-72644000D03*
D16*
X214757000Y-72644000D03*
G04 #@! TD*
D15*
G04 #@! TO.C,D8*
X212217000Y-90170000D03*
D16*
X214757000Y-90170000D03*
G04 #@! TD*
G04 #@! TO.C,D9*
X214630000Y-107696000D03*
D15*
X212090000Y-107696000D03*
G04 #@! TD*
D16*
G04 #@! TO.C,D10*
X214630000Y-125222000D03*
D15*
X212090000Y-125222000D03*
G04 #@! TD*
G04 #@! TO.C,D11*
X212090000Y-142748000D03*
D16*
X214630000Y-142748000D03*
G04 #@! TD*
D14*
G04 #@! TO.C,D12*
X196215000Y-124714000D03*
D11*
X196215000Y-132334000D03*
G04 #@! TD*
G04 #@! TO.C,D13*
X198882000Y-132334000D03*
D14*
X198882000Y-124714000D03*
G04 #@! TD*
G04 #@! TO.C,D14*
X201549000Y-124714000D03*
D11*
X201549000Y-132334000D03*
G04 #@! TD*
G04 #@! TO.C,D15*
X204216000Y-132334000D03*
D14*
X204216000Y-124714000D03*
G04 #@! TD*
G04 #@! TO.C,D16*
X206883000Y-124714000D03*
D11*
X206883000Y-132334000D03*
G04 #@! TD*
D17*
G04 #@! TO.C,J1*
X179705000Y-143129000D03*
D18*
X182245000Y-143129000D03*
X179705000Y-140589000D03*
X182245000Y-140589000D03*
X179705000Y-138049000D03*
X182245000Y-138049000D03*
X179705000Y-135509000D03*
X182245000Y-135509000D03*
X179705000Y-132969000D03*
X182245000Y-132969000D03*
X179705000Y-130429000D03*
X182245000Y-130429000D03*
X179705000Y-127889000D03*
X182245000Y-127889000D03*
X179705000Y-125349000D03*
X182245000Y-125349000D03*
G04 #@! TD*
D19*
G04 #@! TO.C,J2*
X215900000Y-50165000D03*
D20*
X226060000Y-50165000D03*
D21*
X220980000Y-47498000D03*
X220980000Y-55626000D03*
G04 #@! TD*
D19*
G04 #@! TO.C,J3*
X215900000Y-67818000D03*
D20*
X226060000Y-67818000D03*
D21*
X220980000Y-65151000D03*
X220980000Y-73279000D03*
G04 #@! TD*
G04 #@! TO.C,J4*
X220980000Y-90805000D03*
X220980000Y-82677000D03*
D20*
X226060000Y-85344000D03*
D19*
X215900000Y-85344000D03*
G04 #@! TD*
G04 #@! TO.C,J5*
X215900000Y-102870000D03*
D20*
X226060000Y-102870000D03*
D21*
X220980000Y-100203000D03*
X220980000Y-108331000D03*
G04 #@! TD*
G04 #@! TO.C,J6*
X220980000Y-125857000D03*
X220980000Y-117729000D03*
D20*
X226060000Y-120396000D03*
D19*
X215900000Y-120396000D03*
G04 #@! TD*
G04 #@! TO.C,J7*
X215900000Y-137922000D03*
D20*
X226060000Y-137922000D03*
D21*
X220980000Y-135255000D03*
X220980000Y-143383000D03*
G04 #@! TD*
G04 #@! TO.C,J8*
X203454000Y-143383000D03*
X203454000Y-135255000D03*
D20*
X208534000Y-137922000D03*
D19*
X198374000Y-137922000D03*
G04 #@! TD*
D18*
G04 #@! TO.C,JP1*
X194691000Y-79375000D03*
D17*
X194691000Y-76835000D03*
G04 #@! TD*
G04 #@! TO.C,JP2*
X210693000Y-79248000D03*
D18*
X213233000Y-79248000D03*
G04 #@! TD*
G04 #@! TO.C,JP3*
X195326000Y-104394000D03*
D17*
X195326000Y-101854000D03*
G04 #@! TD*
G04 #@! TO.C,JP4*
X195961000Y-91440000D03*
D18*
X195961000Y-88900000D03*
G04 #@! TD*
D22*
G04 #@! TO.C,R1*
X217678000Y-58928000D03*
X225298000Y-58928000D03*
G04 #@! TD*
G04 #@! TO.C,R2*
X212852000Y-54229000D03*
X212852000Y-46609000D03*
G04 #@! TD*
G04 #@! TO.C,R3*
X224790000Y-79502000D03*
X217170000Y-79502000D03*
G04 #@! TD*
G04 #@! TO.C,R4*
X192405000Y-64516000D03*
X184785000Y-64516000D03*
G04 #@! TD*
G04 #@! TO.C,R5*
X206502000Y-65786000D03*
X198882000Y-65786000D03*
G04 #@! TD*
G04 #@! TO.C,R6*
X196342000Y-114808000D03*
X196342000Y-107188000D03*
G04 #@! TD*
G04 #@! TO.C,R7*
X206756000Y-92329000D03*
X199136000Y-92329000D03*
G04 #@! TD*
G04 #@! TO.C,R8*
X217424000Y-97028000D03*
X225044000Y-97028000D03*
G04 #@! TD*
G04 #@! TO.C,R9*
X217678000Y-114554000D03*
X225298000Y-114554000D03*
G04 #@! TD*
G04 #@! TO.C,R10*
X217170000Y-129286000D03*
X209550000Y-129286000D03*
G04 #@! TD*
G04 #@! TO.C,R11*
X212217000Y-132207000D03*
X212217000Y-139827000D03*
G04 #@! TD*
G04 #@! TO.C,R12*
X217170000Y-76454000D03*
X224790000Y-76454000D03*
G04 #@! TD*
G04 #@! TO.C,R13*
X225044000Y-94234000D03*
X217424000Y-94234000D03*
G04 #@! TD*
G04 #@! TO.C,R14*
X217551000Y-111760000D03*
X225171000Y-111760000D03*
G04 #@! TD*
G04 #@! TO.C,R15*
X219075000Y-129286000D03*
X226695000Y-129286000D03*
G04 #@! TD*
G04 #@! TO.C,R16*
X226695000Y-132207000D03*
X219075000Y-132207000D03*
G04 #@! TD*
D23*
G04 #@! TO.C,RV1*
X180218000Y-51547000D03*
X189018000Y-51547000D03*
D16*
X182118000Y-58547000D03*
X184618000Y-58547000D03*
X187118000Y-58547000D03*
G04 #@! TD*
G04 #@! TO.C,RV2*
X187118000Y-79629000D03*
X184618000Y-79629000D03*
X182118000Y-79629000D03*
D23*
X189018000Y-72629000D03*
X180218000Y-72629000D03*
G04 #@! TD*
D16*
G04 #@! TO.C,RV3*
X187118000Y-100711000D03*
X184618000Y-100711000D03*
X182118000Y-100711000D03*
D23*
X189018000Y-93711000D03*
X180218000Y-93711000D03*
G04 #@! TD*
G04 #@! TO.C,RV4*
X180218000Y-114793000D03*
X189018000Y-114793000D03*
D16*
X182118000Y-121793000D03*
X184618000Y-121793000D03*
X187118000Y-121793000D03*
G04 #@! TD*
D24*
G04 #@! TO.C,TP1*
X186055000Y-125476000D03*
G04 #@! TD*
G04 #@! TO.C,TP2*
X186055000Y-130810000D03*
G04 #@! TD*
G04 #@! TO.C,TP3*
X186055000Y-136144000D03*
G04 #@! TD*
D11*
G04 #@! TO.C,U1*
X206502000Y-62357000D03*
D14*
X198882000Y-47117000D03*
X206502000Y-59817000D03*
X198882000Y-49657000D03*
X206502000Y-57277000D03*
X198882000Y-52197000D03*
X206502000Y-54737000D03*
X198882000Y-54737000D03*
X206502000Y-52197000D03*
X198882000Y-57277000D03*
X206502000Y-49657000D03*
X198882000Y-59817000D03*
X206502000Y-47117000D03*
X198882000Y-62357000D03*
G04 #@! TD*
D11*
G04 #@! TO.C,U2*
X199009000Y-68834000D03*
D14*
X206629000Y-84074000D03*
X199009000Y-71374000D03*
X206629000Y-81534000D03*
X199009000Y-73914000D03*
X206629000Y-78994000D03*
X199009000Y-76454000D03*
X206629000Y-76454000D03*
X199009000Y-78994000D03*
X206629000Y-73914000D03*
X199009000Y-81534000D03*
X206629000Y-71374000D03*
X199009000Y-84074000D03*
X206629000Y-68834000D03*
G04 #@! TD*
G04 #@! TO.C,U3*
X206629000Y-95631000D03*
X199009000Y-110871000D03*
X206629000Y-98171000D03*
X199009000Y-108331000D03*
X206629000Y-100711000D03*
X199009000Y-105791000D03*
X206629000Y-103251000D03*
X199009000Y-103251000D03*
X206629000Y-105791000D03*
X199009000Y-100711000D03*
X206629000Y-108331000D03*
X199009000Y-98171000D03*
X206629000Y-110871000D03*
D11*
X199009000Y-95631000D03*
G04 #@! TD*
D24*
G04 #@! TO.C,TP4*
X186055000Y-141605000D03*
G04 #@! TD*
G04 #@! TO.C,TP5*
X210058000Y-48895000D03*
G04 #@! TD*
M02*
