G04 #@! TF.GenerationSoftware,KiCad,Pcbnew,(5.0.0-3-g5ebb6b6)*
G04 #@! TF.CreationDate,2019-04-25T19:55:48+02:00*
G04 #@! TF.ProjectId,triggerhappy,7472696767657268617070792E6B6963,rev?*
G04 #@! TF.SameCoordinates,Original*
G04 #@! TF.FileFunction,Legend,Top*
G04 #@! TF.FilePolarity,Positive*
%FSLAX46Y46*%
G04 Gerber Fmt 4.6, Leading zero omitted, Abs format (unit mm)*
G04 Created by KiCad (PCBNEW (5.0.0-3-g5ebb6b6)) date Thursday 25 April 2019 19:55:48*
%MOMM*%
%LPD*%
G01*
G04 APERTURE LIST*
%ADD10C,0.100000*%
%ADD11C,0.200000*%
%ADD12C,0.120000*%
%ADD13C,0.152400*%
%ADD14C,0.150000*%
%ADD15C,0.088900*%
G04 APERTURE END LIST*
D10*
X226607714Y-97964333D02*
X226607714Y-97583380D01*
X226274380Y-97821476D02*
X227131523Y-97821476D01*
X227226761Y-97773857D01*
X227274380Y-97678619D01*
X227274380Y-97583380D01*
X227226761Y-97297666D02*
X227274380Y-97202428D01*
X227274380Y-97011952D01*
X227226761Y-96916714D01*
X227131523Y-96869095D01*
X227083904Y-96869095D01*
X226988666Y-96916714D01*
X226941047Y-97011952D01*
X226941047Y-97154809D01*
X226893428Y-97250047D01*
X226798190Y-97297666D01*
X226750571Y-97297666D01*
X226655333Y-97250047D01*
X226607714Y-97154809D01*
X226607714Y-97011952D01*
X226655333Y-96916714D01*
X227226761Y-96011952D02*
X227274380Y-96107190D01*
X227274380Y-96297666D01*
X227226761Y-96392904D01*
X227179142Y-96440523D01*
X227083904Y-96488142D01*
X226798190Y-96488142D01*
X226702952Y-96440523D01*
X226655333Y-96392904D01*
X226607714Y-96297666D01*
X226607714Y-96107190D01*
X226655333Y-96011952D01*
X227274380Y-95583380D02*
X226274380Y-95583380D01*
X227274380Y-95154809D02*
X226750571Y-95154809D01*
X226655333Y-95202428D01*
X226607714Y-95297666D01*
X226607714Y-95440523D01*
X226655333Y-95535761D01*
X226702952Y-95583380D01*
X227274380Y-94250047D02*
X226750571Y-94250047D01*
X226655333Y-94297666D01*
X226607714Y-94392904D01*
X226607714Y-94583380D01*
X226655333Y-94678619D01*
X227226761Y-94250047D02*
X227274380Y-94345285D01*
X227274380Y-94583380D01*
X227226761Y-94678619D01*
X227131523Y-94726238D01*
X227036285Y-94726238D01*
X226941047Y-94678619D01*
X226893428Y-94583380D01*
X226893428Y-94345285D01*
X226845809Y-94250047D01*
X227274380Y-93773857D02*
X226274380Y-93773857D01*
X226893428Y-93678619D02*
X227274380Y-93392904D01*
X226607714Y-93392904D02*
X226988666Y-93773857D01*
X209548670Y-101236723D02*
X208841563Y-100529616D01*
X209110937Y-100798990D02*
X209144609Y-100697975D01*
X209279296Y-100563288D01*
X209380311Y-100529616D01*
X209447654Y-100529616D01*
X209548670Y-100563288D01*
X209750700Y-100765318D01*
X209784372Y-100866333D01*
X209784372Y-100933677D01*
X209750700Y-101034692D01*
X209616013Y-101169379D01*
X209514998Y-101203051D01*
X210289448Y-100495944D02*
X210188433Y-100529616D01*
X210121089Y-100529616D01*
X210020074Y-100495944D01*
X209818044Y-100293914D01*
X209784372Y-100192898D01*
X209784372Y-100125555D01*
X209818044Y-100024540D01*
X209919059Y-99923524D01*
X210020074Y-99889853D01*
X210087418Y-99889853D01*
X210188433Y-99923524D01*
X210390463Y-100125555D01*
X210424135Y-100226570D01*
X210424135Y-100293914D01*
X210390463Y-100394929D01*
X210289448Y-100495944D01*
X210828196Y-99957196D02*
X210356792Y-99485792D01*
X210121089Y-99250089D02*
X210121089Y-99317433D01*
X210188433Y-99317433D01*
X210188433Y-99250089D01*
X210121089Y-99250089D01*
X210188433Y-99317433D01*
X210693509Y-99149074D02*
X211164914Y-99620479D01*
X210760853Y-99216418D02*
X210760853Y-99149074D01*
X210794524Y-99048059D01*
X210895540Y-98947044D01*
X210996555Y-98913372D01*
X211097570Y-98947044D01*
X211467959Y-99317433D01*
X211636318Y-98206265D02*
X212208738Y-98778685D01*
X212242410Y-98879700D01*
X212242410Y-98947044D01*
X212208738Y-99048059D01*
X212107723Y-99149074D01*
X212006707Y-99182746D01*
X212074051Y-98643998D02*
X212040379Y-98745013D01*
X211905692Y-98879700D01*
X211804677Y-98913372D01*
X211737333Y-98913372D01*
X211636318Y-98879700D01*
X211434288Y-98677670D01*
X211400616Y-98576654D01*
X211400616Y-98509311D01*
X211434288Y-98408296D01*
X211568975Y-98273609D01*
X211669990Y-98239937D01*
X210696876Y-102351258D02*
X209989770Y-101644151D01*
X210259144Y-101913525D02*
X210292815Y-101812510D01*
X210427502Y-101677823D01*
X210528518Y-101644151D01*
X210595861Y-101644151D01*
X210696876Y-101677823D01*
X210898907Y-101879853D01*
X210932579Y-101980869D01*
X210932579Y-102048212D01*
X210898907Y-102149227D01*
X210764220Y-102283914D01*
X210663205Y-102317586D01*
X211437655Y-101610479D02*
X211336640Y-101644151D01*
X211269296Y-101644151D01*
X211168281Y-101610479D01*
X210966250Y-101408449D01*
X210932579Y-101307434D01*
X210932579Y-101240090D01*
X210966250Y-101139075D01*
X211067266Y-101038060D01*
X211168281Y-101004388D01*
X211235624Y-101004388D01*
X211336640Y-101038060D01*
X211538670Y-101240090D01*
X211572342Y-101341105D01*
X211572342Y-101408449D01*
X211538670Y-101509464D01*
X211437655Y-101610479D01*
X212077418Y-100970716D02*
X211976403Y-101004388D01*
X211909060Y-101004388D01*
X211808044Y-100970716D01*
X211606014Y-100768686D01*
X211572342Y-100667670D01*
X211572342Y-100600327D01*
X211606014Y-100499311D01*
X211707029Y-100398296D01*
X211808044Y-100364624D01*
X211875388Y-100364624D01*
X211976403Y-100398296D01*
X212178434Y-100600327D01*
X212212105Y-100701342D01*
X212212105Y-100768686D01*
X212178434Y-100869701D01*
X212077418Y-100970716D01*
X212616166Y-100431968D02*
X212144762Y-99960563D01*
X212212105Y-100027907D02*
X212212105Y-99960563D01*
X212245777Y-99859548D01*
X212346792Y-99758533D01*
X212447808Y-99724861D01*
X212548823Y-99758533D01*
X212919212Y-100128922D01*
X212548823Y-99758533D02*
X212515151Y-99657518D01*
X212548823Y-99556502D01*
X212649838Y-99455487D01*
X212750853Y-99421815D01*
X212851869Y-99455487D01*
X213222258Y-99825876D01*
D11*
X199763952Y-113225714D02*
X200144904Y-113225714D01*
X199906809Y-112892380D02*
X199906809Y-113749523D01*
X199954428Y-113844761D01*
X200049666Y-113892380D01*
X200144904Y-113892380D01*
X200478238Y-113892380D02*
X200478238Y-113225714D01*
X200478238Y-113416190D02*
X200525857Y-113320952D01*
X200573476Y-113273333D01*
X200668714Y-113225714D01*
X200763952Y-113225714D01*
X201097285Y-113892380D02*
X201097285Y-113225714D01*
X201097285Y-112892380D02*
X201049666Y-112940000D01*
X201097285Y-112987619D01*
X201144904Y-112940000D01*
X201097285Y-112892380D01*
X201097285Y-112987619D01*
X202002047Y-113225714D02*
X202002047Y-114035238D01*
X201954428Y-114130476D01*
X201906809Y-114178095D01*
X201811571Y-114225714D01*
X201668714Y-114225714D01*
X201573476Y-114178095D01*
X202002047Y-113844761D02*
X201906809Y-113892380D01*
X201716333Y-113892380D01*
X201621095Y-113844761D01*
X201573476Y-113797142D01*
X201525857Y-113701904D01*
X201525857Y-113416190D01*
X201573476Y-113320952D01*
X201621095Y-113273333D01*
X201716333Y-113225714D01*
X201906809Y-113225714D01*
X202002047Y-113273333D01*
X202906809Y-113225714D02*
X202906809Y-114035238D01*
X202859190Y-114130476D01*
X202811571Y-114178095D01*
X202716333Y-114225714D01*
X202573476Y-114225714D01*
X202478238Y-114178095D01*
X202906809Y-113844761D02*
X202811571Y-113892380D01*
X202621095Y-113892380D01*
X202525857Y-113844761D01*
X202478238Y-113797142D01*
X202430619Y-113701904D01*
X202430619Y-113416190D01*
X202478238Y-113320952D01*
X202525857Y-113273333D01*
X202621095Y-113225714D01*
X202811571Y-113225714D01*
X202906809Y-113273333D01*
X203763952Y-113844761D02*
X203668714Y-113892380D01*
X203478238Y-113892380D01*
X203383000Y-113844761D01*
X203335380Y-113749523D01*
X203335380Y-113368571D01*
X203383000Y-113273333D01*
X203478238Y-113225714D01*
X203668714Y-113225714D01*
X203763952Y-113273333D01*
X203811571Y-113368571D01*
X203811571Y-113463809D01*
X203335380Y-113559047D01*
X204240142Y-113892380D02*
X204240142Y-113225714D01*
X204240142Y-113416190D02*
X204287761Y-113320952D01*
X204335380Y-113273333D01*
X204430619Y-113225714D01*
X204525857Y-113225714D01*
X204859190Y-113892380D02*
X204859190Y-112892380D01*
X205287761Y-113892380D02*
X205287761Y-113368571D01*
X205240142Y-113273333D01*
X205144904Y-113225714D01*
X205002047Y-113225714D01*
X204906809Y-113273333D01*
X204859190Y-113320952D01*
X206192523Y-113892380D02*
X206192523Y-113368571D01*
X206144904Y-113273333D01*
X206049666Y-113225714D01*
X205859190Y-113225714D01*
X205763952Y-113273333D01*
X206192523Y-113844761D02*
X206097285Y-113892380D01*
X205859190Y-113892380D01*
X205763952Y-113844761D01*
X205716333Y-113749523D01*
X205716333Y-113654285D01*
X205763952Y-113559047D01*
X205859190Y-113511428D01*
X206097285Y-113511428D01*
X206192523Y-113463809D01*
X206668714Y-113225714D02*
X206668714Y-114225714D01*
X206668714Y-113273333D02*
X206763952Y-113225714D01*
X206954428Y-113225714D01*
X207049666Y-113273333D01*
X207097285Y-113320952D01*
X207144904Y-113416190D01*
X207144904Y-113701904D01*
X207097285Y-113797142D01*
X207049666Y-113844761D01*
X206954428Y-113892380D01*
X206763952Y-113892380D01*
X206668714Y-113844761D01*
X207573476Y-113225714D02*
X207573476Y-114225714D01*
X207573476Y-113273333D02*
X207668714Y-113225714D01*
X207859190Y-113225714D01*
X207954428Y-113273333D01*
X208002047Y-113320952D01*
X208049666Y-113416190D01*
X208049666Y-113701904D01*
X208002047Y-113797142D01*
X207954428Y-113844761D01*
X207859190Y-113892380D01*
X207668714Y-113892380D01*
X207573476Y-113844761D01*
X208383000Y-113225714D02*
X208621095Y-113892380D01*
X208859190Y-113225714D02*
X208621095Y-113892380D01*
X208525857Y-114130476D01*
X208478238Y-114178095D01*
X208383000Y-114225714D01*
X209287761Y-113844761D02*
X209287761Y-113892380D01*
X209240142Y-113987619D01*
X209192523Y-114035238D01*
X210478238Y-113892380D02*
X210478238Y-113225714D01*
X210478238Y-113416190D02*
X210525857Y-113320952D01*
X210573476Y-113273333D01*
X210668714Y-113225714D01*
X210763952Y-113225714D01*
X211478238Y-113844761D02*
X211383000Y-113892380D01*
X211192523Y-113892380D01*
X211097285Y-113844761D01*
X211049666Y-113749523D01*
X211049666Y-113368571D01*
X211097285Y-113273333D01*
X211192523Y-113225714D01*
X211383000Y-113225714D01*
X211478238Y-113273333D01*
X211525857Y-113368571D01*
X211525857Y-113463809D01*
X211049666Y-113559047D01*
X211859190Y-113225714D02*
X212097285Y-113892380D01*
X212335380Y-113225714D01*
X213430619Y-113606666D02*
X213906809Y-113606666D01*
X213335380Y-113892380D02*
X213668714Y-112892380D01*
X214002047Y-113892380D01*
X197287761Y-115544761D02*
X197192523Y-115592380D01*
X197002047Y-115592380D01*
X196906809Y-115544761D01*
X196859190Y-115449523D01*
X196859190Y-115068571D01*
X196906809Y-114973333D01*
X197002047Y-114925714D01*
X197192523Y-114925714D01*
X197287761Y-114973333D01*
X197335380Y-115068571D01*
X197335380Y-115163809D01*
X196859190Y-115259047D01*
X197906809Y-115592380D02*
X197811571Y-115544761D01*
X197763952Y-115449523D01*
X197763952Y-114592380D01*
X198668714Y-115544761D02*
X198573476Y-115592380D01*
X198383000Y-115592380D01*
X198287761Y-115544761D01*
X198240142Y-115449523D01*
X198240142Y-115068571D01*
X198287761Y-114973333D01*
X198383000Y-114925714D01*
X198573476Y-114925714D01*
X198668714Y-114973333D01*
X198716333Y-115068571D01*
X198716333Y-115163809D01*
X198240142Y-115259047D01*
X199573476Y-115544761D02*
X199478238Y-115592380D01*
X199287761Y-115592380D01*
X199192523Y-115544761D01*
X199144904Y-115497142D01*
X199097285Y-115401904D01*
X199097285Y-115116190D01*
X199144904Y-115020952D01*
X199192523Y-114973333D01*
X199287761Y-114925714D01*
X199478238Y-114925714D01*
X199573476Y-114973333D01*
X199859190Y-114925714D02*
X200240142Y-114925714D01*
X200002047Y-114592380D02*
X200002047Y-115449523D01*
X200049666Y-115544761D01*
X200144904Y-115592380D01*
X200240142Y-115592380D01*
X200573476Y-115592380D02*
X200573476Y-114925714D01*
X200573476Y-115116190D02*
X200621095Y-115020952D01*
X200668714Y-114973333D01*
X200763952Y-114925714D01*
X200859190Y-114925714D01*
X201335380Y-115592380D02*
X201240142Y-115544761D01*
X201192523Y-115497142D01*
X201144904Y-115401904D01*
X201144904Y-115116190D01*
X201192523Y-115020952D01*
X201240142Y-114973333D01*
X201335380Y-114925714D01*
X201478238Y-114925714D01*
X201573476Y-114973333D01*
X201621095Y-115020952D01*
X201668714Y-115116190D01*
X201668714Y-115401904D01*
X201621095Y-115497142D01*
X201573476Y-115544761D01*
X201478238Y-115592380D01*
X201335380Y-115592380D01*
X202097285Y-114925714D02*
X202097285Y-115592380D01*
X202097285Y-115020952D02*
X202144904Y-114973333D01*
X202240142Y-114925714D01*
X202383000Y-114925714D01*
X202478238Y-114973333D01*
X202525857Y-115068571D01*
X202525857Y-115592380D01*
X203002047Y-115592380D02*
X203002047Y-114925714D01*
X203002047Y-114592380D02*
X202954428Y-114640000D01*
X203002047Y-114687619D01*
X203049666Y-114640000D01*
X203002047Y-114592380D01*
X203002047Y-114687619D01*
X203906809Y-115544761D02*
X203811571Y-115592380D01*
X203621095Y-115592380D01*
X203525857Y-115544761D01*
X203478238Y-115497142D01*
X203430619Y-115401904D01*
X203430619Y-115116190D01*
X203478238Y-115020952D01*
X203525857Y-114973333D01*
X203621095Y-114925714D01*
X203811571Y-114925714D01*
X203906809Y-114973333D01*
X205049666Y-115544761D02*
X205144904Y-115592380D01*
X205335380Y-115592380D01*
X205430619Y-115544761D01*
X205478238Y-115449523D01*
X205478238Y-115401904D01*
X205430619Y-115306666D01*
X205335380Y-115259047D01*
X205192523Y-115259047D01*
X205097285Y-115211428D01*
X205049666Y-115116190D01*
X205049666Y-115068571D01*
X205097285Y-114973333D01*
X205192523Y-114925714D01*
X205335380Y-114925714D01*
X205430619Y-114973333D01*
X206049666Y-115592380D02*
X205954428Y-115544761D01*
X205906809Y-115497142D01*
X205859190Y-115401904D01*
X205859190Y-115116190D01*
X205906809Y-115020952D01*
X205954428Y-114973333D01*
X206049666Y-114925714D01*
X206192523Y-114925714D01*
X206287761Y-114973333D01*
X206335380Y-115020952D01*
X206383000Y-115116190D01*
X206383000Y-115401904D01*
X206335380Y-115497142D01*
X206287761Y-115544761D01*
X206192523Y-115592380D01*
X206049666Y-115592380D01*
X207240142Y-114925714D02*
X207240142Y-115592380D01*
X206811571Y-114925714D02*
X206811571Y-115449523D01*
X206859190Y-115544761D01*
X206954428Y-115592380D01*
X207097285Y-115592380D01*
X207192523Y-115544761D01*
X207240142Y-115497142D01*
X207716333Y-114925714D02*
X207716333Y-115592380D01*
X207716333Y-115020952D02*
X207763952Y-114973333D01*
X207859190Y-114925714D01*
X208002047Y-114925714D01*
X208097285Y-114973333D01*
X208144904Y-115068571D01*
X208144904Y-115592380D01*
X209049666Y-115592380D02*
X209049666Y-114592380D01*
X209049666Y-115544761D02*
X208954428Y-115592380D01*
X208763952Y-115592380D01*
X208668714Y-115544761D01*
X208621095Y-115497142D01*
X208573476Y-115401904D01*
X208573476Y-115116190D01*
X208621095Y-115020952D01*
X208668714Y-114973333D01*
X208763952Y-114925714D01*
X208954428Y-114925714D01*
X209049666Y-114973333D01*
X210287761Y-115592380D02*
X210287761Y-114925714D01*
X210287761Y-115020952D02*
X210335380Y-114973333D01*
X210430619Y-114925714D01*
X210573476Y-114925714D01*
X210668714Y-114973333D01*
X210716333Y-115068571D01*
X210716333Y-115592380D01*
X210716333Y-115068571D02*
X210763952Y-114973333D01*
X210859190Y-114925714D01*
X211002047Y-114925714D01*
X211097285Y-114973333D01*
X211144904Y-115068571D01*
X211144904Y-115592380D01*
X212049666Y-115592380D02*
X212049666Y-115068571D01*
X212002047Y-114973333D01*
X211906809Y-114925714D01*
X211716333Y-114925714D01*
X211621095Y-114973333D01*
X212049666Y-115544761D02*
X211954428Y-115592380D01*
X211716333Y-115592380D01*
X211621095Y-115544761D01*
X211573476Y-115449523D01*
X211573476Y-115354285D01*
X211621095Y-115259047D01*
X211716333Y-115211428D01*
X211954428Y-115211428D01*
X212049666Y-115163809D01*
X212954428Y-115544761D02*
X212859190Y-115592380D01*
X212668714Y-115592380D01*
X212573476Y-115544761D01*
X212525857Y-115497142D01*
X212478238Y-115401904D01*
X212478238Y-115116190D01*
X212525857Y-115020952D01*
X212573476Y-114973333D01*
X212668714Y-114925714D01*
X212859190Y-114925714D01*
X212954428Y-114973333D01*
X213383000Y-115592380D02*
X213383000Y-114592380D01*
X213811571Y-115592380D02*
X213811571Y-115068571D01*
X213763952Y-114973333D01*
X213668714Y-114925714D01*
X213525857Y-114925714D01*
X213430619Y-114973333D01*
X213383000Y-115020952D01*
X214287761Y-115592380D02*
X214287761Y-114925714D01*
X214287761Y-114592380D02*
X214240142Y-114640000D01*
X214287761Y-114687619D01*
X214335380Y-114640000D01*
X214287761Y-114592380D01*
X214287761Y-114687619D01*
X214763952Y-114925714D02*
X214763952Y-115592380D01*
X214763952Y-115020952D02*
X214811571Y-114973333D01*
X214906809Y-114925714D01*
X215049666Y-114925714D01*
X215144904Y-114973333D01*
X215192523Y-115068571D01*
X215192523Y-115592380D01*
X216049666Y-115544761D02*
X215954428Y-115592380D01*
X215763952Y-115592380D01*
X215668714Y-115544761D01*
X215621095Y-115449523D01*
X215621095Y-115068571D01*
X215668714Y-114973333D01*
X215763952Y-114925714D01*
X215954428Y-114925714D01*
X216049666Y-114973333D01*
X216097285Y-115068571D01*
X216097285Y-115163809D01*
X215621095Y-115259047D01*
X216478238Y-115544761D02*
X216573476Y-115592380D01*
X216763952Y-115592380D01*
X216859190Y-115544761D01*
X216906809Y-115449523D01*
X216906809Y-115401904D01*
X216859190Y-115306666D01*
X216763952Y-115259047D01*
X216621095Y-115259047D01*
X216525857Y-115211428D01*
X216478238Y-115116190D01*
X216478238Y-115068571D01*
X216525857Y-114973333D01*
X216621095Y-114925714D01*
X216763952Y-114925714D01*
X216859190Y-114973333D01*
X197621095Y-117673333D02*
X197573476Y-117625714D01*
X197478238Y-117482857D01*
X197430619Y-117387619D01*
X197383000Y-117244761D01*
X197335380Y-117006666D01*
X197335380Y-116816190D01*
X197383000Y-116578095D01*
X197430619Y-116435238D01*
X197478238Y-116340000D01*
X197573476Y-116197142D01*
X197621095Y-116149523D01*
X198430619Y-117244761D02*
X198335380Y-117292380D01*
X198144904Y-117292380D01*
X198049666Y-117244761D01*
X198002047Y-117197142D01*
X197954428Y-117101904D01*
X197954428Y-116816190D01*
X198002047Y-116720952D01*
X198049666Y-116673333D01*
X198144904Y-116625714D01*
X198335380Y-116625714D01*
X198430619Y-116673333D01*
X198763952Y-117673333D02*
X198811571Y-117625714D01*
X198906809Y-117482857D01*
X198954428Y-117387619D01*
X199002047Y-117244761D01*
X199049666Y-117006666D01*
X199049666Y-116816190D01*
X199002047Y-116578095D01*
X198954428Y-116435238D01*
X198906809Y-116340000D01*
X198811571Y-116197142D01*
X198763952Y-116149523D01*
X200240142Y-116387619D02*
X200287761Y-116340000D01*
X200383000Y-116292380D01*
X200621095Y-116292380D01*
X200716333Y-116340000D01*
X200763952Y-116387619D01*
X200811571Y-116482857D01*
X200811571Y-116578095D01*
X200763952Y-116720952D01*
X200192523Y-117292380D01*
X200811571Y-117292380D01*
X201430619Y-116292380D02*
X201525857Y-116292380D01*
X201621095Y-116340000D01*
X201668714Y-116387619D01*
X201716333Y-116482857D01*
X201763952Y-116673333D01*
X201763952Y-116911428D01*
X201716333Y-117101904D01*
X201668714Y-117197142D01*
X201621095Y-117244761D01*
X201525857Y-117292380D01*
X201430619Y-117292380D01*
X201335380Y-117244761D01*
X201287761Y-117197142D01*
X201240142Y-117101904D01*
X201192523Y-116911428D01*
X201192523Y-116673333D01*
X201240142Y-116482857D01*
X201287761Y-116387619D01*
X201335380Y-116340000D01*
X201430619Y-116292380D01*
X202716333Y-117292380D02*
X202144904Y-117292380D01*
X202430619Y-117292380D02*
X202430619Y-116292380D01*
X202335380Y-116435238D01*
X202240142Y-116530476D01*
X202144904Y-116578095D01*
X203192523Y-117292380D02*
X203383000Y-117292380D01*
X203478238Y-117244761D01*
X203525857Y-117197142D01*
X203621095Y-117054285D01*
X203668714Y-116863809D01*
X203668714Y-116482857D01*
X203621095Y-116387619D01*
X203573476Y-116340000D01*
X203478238Y-116292380D01*
X203287761Y-116292380D01*
X203192523Y-116340000D01*
X203144904Y-116387619D01*
X203097285Y-116482857D01*
X203097285Y-116720952D01*
X203144904Y-116816190D01*
X203192523Y-116863809D01*
X203287761Y-116911428D01*
X203478238Y-116911428D01*
X203573476Y-116863809D01*
X203621095Y-116816190D01*
X203668714Y-116720952D01*
X204144904Y-117244761D02*
X204144904Y-117292380D01*
X204097285Y-117387619D01*
X204049666Y-117435238D01*
X205335380Y-117292380D02*
X205335380Y-116292380D01*
X205335380Y-116768571D02*
X205906809Y-116768571D01*
X205906809Y-117292380D02*
X205906809Y-116292380D01*
X206811571Y-117292380D02*
X206811571Y-116768571D01*
X206763952Y-116673333D01*
X206668714Y-116625714D01*
X206478238Y-116625714D01*
X206383000Y-116673333D01*
X206811571Y-117244761D02*
X206716333Y-117292380D01*
X206478238Y-117292380D01*
X206383000Y-117244761D01*
X206335380Y-117149523D01*
X206335380Y-117054285D01*
X206383000Y-116959047D01*
X206478238Y-116911428D01*
X206716333Y-116911428D01*
X206811571Y-116863809D01*
X206573476Y-116387619D02*
X206478238Y-116340000D01*
X206430619Y-116244761D01*
X206478238Y-116149523D01*
X206573476Y-116101904D01*
X206668714Y-116149523D01*
X206716333Y-116244761D01*
X206668714Y-116340000D01*
X206573476Y-116387619D01*
X207287761Y-117292380D02*
X207287761Y-116292380D01*
X207383000Y-116911428D02*
X207668714Y-117292380D01*
X207668714Y-116625714D02*
X207287761Y-117006666D01*
X208525857Y-117292380D02*
X208525857Y-116768571D01*
X208478238Y-116673333D01*
X208383000Y-116625714D01*
X208192523Y-116625714D01*
X208097285Y-116673333D01*
X208525857Y-117244761D02*
X208430619Y-117292380D01*
X208192523Y-117292380D01*
X208097285Y-117244761D01*
X208049666Y-117149523D01*
X208049666Y-117054285D01*
X208097285Y-116959047D01*
X208192523Y-116911428D01*
X208430619Y-116911428D01*
X208525857Y-116863809D01*
X209002047Y-116625714D02*
X209002047Y-117292380D01*
X209002047Y-116720952D02*
X209049666Y-116673333D01*
X209144904Y-116625714D01*
X209287761Y-116625714D01*
X209383000Y-116673333D01*
X209430619Y-116768571D01*
X209430619Y-117292380D01*
X210668714Y-116768571D02*
X211002047Y-116768571D01*
X211144904Y-117292380D02*
X210668714Y-117292380D01*
X210668714Y-116292380D01*
X211144904Y-116292380D01*
X211573476Y-117292380D02*
X211573476Y-116625714D01*
X211573476Y-116816190D02*
X211621095Y-116720952D01*
X211668714Y-116673333D01*
X211763952Y-116625714D01*
X211859190Y-116625714D01*
X212192523Y-117292380D02*
X212192523Y-116625714D01*
X212192523Y-116292380D02*
X212144904Y-116340000D01*
X212192523Y-116387619D01*
X212240142Y-116340000D01*
X212192523Y-116292380D01*
X212192523Y-116387619D01*
X212668714Y-117292380D02*
X212668714Y-116292380D01*
X212763952Y-116911428D02*
X213049666Y-117292380D01*
X213049666Y-116625714D02*
X212668714Y-117006666D01*
X213430619Y-117244761D02*
X213525857Y-117292380D01*
X213716333Y-117292380D01*
X213811571Y-117244761D01*
X213859190Y-117149523D01*
X213859190Y-117101904D01*
X213811571Y-117006666D01*
X213716333Y-116959047D01*
X213573476Y-116959047D01*
X213478238Y-116911428D01*
X213430619Y-116816190D01*
X213430619Y-116768571D01*
X213478238Y-116673333D01*
X213573476Y-116625714D01*
X213716333Y-116625714D01*
X213811571Y-116673333D01*
X214240142Y-117244761D02*
X214335380Y-117292380D01*
X214525857Y-117292380D01*
X214621095Y-117244761D01*
X214668714Y-117149523D01*
X214668714Y-117101904D01*
X214621095Y-117006666D01*
X214525857Y-116959047D01*
X214383000Y-116959047D01*
X214287761Y-116911428D01*
X214240142Y-116816190D01*
X214240142Y-116768571D01*
X214287761Y-116673333D01*
X214383000Y-116625714D01*
X214525857Y-116625714D01*
X214621095Y-116673333D01*
X215240142Y-117292380D02*
X215144904Y-117244761D01*
X215097285Y-117197142D01*
X215049666Y-117101904D01*
X215049666Y-116816190D01*
X215097285Y-116720952D01*
X215144904Y-116673333D01*
X215240142Y-116625714D01*
X215383000Y-116625714D01*
X215478238Y-116673333D01*
X215525857Y-116720952D01*
X215573476Y-116816190D01*
X215573476Y-117101904D01*
X215525857Y-117197142D01*
X215478238Y-117244761D01*
X215383000Y-117292380D01*
X215240142Y-117292380D01*
X216002047Y-116625714D02*
X216002047Y-117292380D01*
X216002047Y-116720952D02*
X216049666Y-116673333D01*
X216144904Y-116625714D01*
X216287761Y-116625714D01*
X216383000Y-116673333D01*
X216430619Y-116768571D01*
X216430619Y-117292380D01*
X200906809Y-120025714D02*
X200906809Y-120692380D01*
X200478238Y-120025714D02*
X200478238Y-120549523D01*
X200525857Y-120644761D01*
X200621095Y-120692380D01*
X200763952Y-120692380D01*
X200859190Y-120644761D01*
X200906809Y-120597142D01*
X201383000Y-120692380D02*
X201383000Y-119692380D01*
X201811571Y-120692380D02*
X201811571Y-120168571D01*
X201763952Y-120073333D01*
X201668714Y-120025714D01*
X201525857Y-120025714D01*
X201430619Y-120073333D01*
X201383000Y-120120952D01*
X202668714Y-120644761D02*
X202573476Y-120692380D01*
X202383000Y-120692380D01*
X202287761Y-120644761D01*
X202240142Y-120549523D01*
X202240142Y-120168571D01*
X202287761Y-120073333D01*
X202383000Y-120025714D01*
X202573476Y-120025714D01*
X202668714Y-120073333D01*
X202716333Y-120168571D01*
X202716333Y-120263809D01*
X202240142Y-120359047D01*
X203144904Y-120692380D02*
X203144904Y-120025714D01*
X203144904Y-120216190D02*
X203192523Y-120120952D01*
X203240142Y-120073333D01*
X203335380Y-120025714D01*
X203430619Y-120025714D01*
X203763952Y-120692380D02*
X203763952Y-120025714D01*
X203763952Y-119692380D02*
X203716333Y-119740000D01*
X203763952Y-119787619D01*
X203811571Y-119740000D01*
X203763952Y-119692380D01*
X203763952Y-119787619D01*
X204240142Y-120692380D02*
X204240142Y-119692380D01*
X204335380Y-120311428D02*
X204621095Y-120692380D01*
X204621095Y-120025714D02*
X204240142Y-120406666D01*
X205002047Y-120644761D02*
X205097285Y-120692380D01*
X205287761Y-120692380D01*
X205383000Y-120644761D01*
X205430619Y-120549523D01*
X205430619Y-120501904D01*
X205383000Y-120406666D01*
X205287761Y-120359047D01*
X205144904Y-120359047D01*
X205049666Y-120311428D01*
X205002047Y-120216190D01*
X205002047Y-120168571D01*
X205049666Y-120073333D01*
X205144904Y-120025714D01*
X205287761Y-120025714D01*
X205383000Y-120073333D01*
X206478238Y-120216190D02*
X206430619Y-120168571D01*
X206335380Y-120120952D01*
X206240142Y-120120952D01*
X206144904Y-120168571D01*
X206097285Y-120216190D01*
X206049666Y-120311428D01*
X206049666Y-120406666D01*
X206097285Y-120501904D01*
X206144904Y-120549523D01*
X206240142Y-120597142D01*
X206335380Y-120597142D01*
X206430619Y-120549523D01*
X206478238Y-120501904D01*
X206478238Y-120120952D02*
X206478238Y-120501904D01*
X206525857Y-120549523D01*
X206573476Y-120549523D01*
X206668714Y-120501904D01*
X206716333Y-120406666D01*
X206716333Y-120168571D01*
X206621095Y-120025714D01*
X206478238Y-119930476D01*
X206287761Y-119882857D01*
X206097285Y-119930476D01*
X205954428Y-120025714D01*
X205859190Y-120168571D01*
X205811571Y-120359047D01*
X205859190Y-120549523D01*
X205954428Y-120692380D01*
X206097285Y-120787619D01*
X206287761Y-120835238D01*
X206478238Y-120787619D01*
X206621095Y-120692380D01*
X207049666Y-120025714D02*
X207287761Y-120692380D01*
X207525857Y-120025714D02*
X207287761Y-120692380D01*
X207192523Y-120930476D01*
X207144904Y-120978095D01*
X207049666Y-121025714D01*
X208335380Y-120692380D02*
X208335380Y-120168571D01*
X208287761Y-120073333D01*
X208192523Y-120025714D01*
X208002047Y-120025714D01*
X207906809Y-120073333D01*
X208335380Y-120644761D02*
X208240142Y-120692380D01*
X208002047Y-120692380D01*
X207906809Y-120644761D01*
X207859190Y-120549523D01*
X207859190Y-120454285D01*
X207906809Y-120359047D01*
X208002047Y-120311428D01*
X208240142Y-120311428D01*
X208335380Y-120263809D01*
X208811571Y-120692380D02*
X208811571Y-119692380D01*
X209240142Y-120692380D02*
X209240142Y-120168571D01*
X209192523Y-120073333D01*
X209097285Y-120025714D01*
X208954428Y-120025714D01*
X208859190Y-120073333D01*
X208811571Y-120120952D01*
X209859190Y-120692380D02*
X209763952Y-120644761D01*
X209716333Y-120597142D01*
X209668714Y-120501904D01*
X209668714Y-120216190D01*
X209716333Y-120120952D01*
X209763952Y-120073333D01*
X209859190Y-120025714D01*
X210002047Y-120025714D01*
X210097285Y-120073333D01*
X210144904Y-120120952D01*
X210192523Y-120216190D01*
X210192523Y-120501904D01*
X210144904Y-120597142D01*
X210097285Y-120644761D01*
X210002047Y-120692380D01*
X209859190Y-120692380D01*
X210763952Y-120692380D02*
X210668714Y-120644761D01*
X210621095Y-120597142D01*
X210573476Y-120501904D01*
X210573476Y-120216190D01*
X210621095Y-120120952D01*
X210668714Y-120073333D01*
X210763952Y-120025714D01*
X210906809Y-120025714D01*
X211002047Y-120073333D01*
X211049666Y-120120952D01*
X211097285Y-120216190D01*
X211097285Y-120501904D01*
X211049666Y-120597142D01*
X211002047Y-120644761D01*
X210906809Y-120692380D01*
X210763952Y-120692380D01*
X211525857Y-120597142D02*
X211573476Y-120644761D01*
X211525857Y-120692380D01*
X211478238Y-120644761D01*
X211525857Y-120597142D01*
X211525857Y-120692380D01*
X212430619Y-120644761D02*
X212335380Y-120692380D01*
X212144904Y-120692380D01*
X212049666Y-120644761D01*
X212002047Y-120597142D01*
X211954428Y-120501904D01*
X211954428Y-120216190D01*
X212002047Y-120120952D01*
X212049666Y-120073333D01*
X212144904Y-120025714D01*
X212335380Y-120025714D01*
X212430619Y-120073333D01*
X213287761Y-120692380D02*
X213287761Y-120168571D01*
X213240142Y-120073333D01*
X213144904Y-120025714D01*
X212954428Y-120025714D01*
X212859190Y-120073333D01*
X213287761Y-120644761D02*
X213192523Y-120692380D01*
X212954428Y-120692380D01*
X212859190Y-120644761D01*
X212811571Y-120549523D01*
X212811571Y-120454285D01*
X212859190Y-120359047D01*
X212954428Y-120311428D01*
X213192523Y-120311428D01*
X213287761Y-120263809D01*
D12*
G04 #@! TO.C,C1*
X188437225Y-140642000D02*
X188437225Y-141142000D01*
X188187225Y-140892000D02*
X188687225Y-140892000D01*
X193593000Y-142083000D02*
X193593000Y-142651000D01*
X193553000Y-141849000D02*
X193553000Y-142885000D01*
X193513000Y-141690000D02*
X193513000Y-143044000D01*
X193473000Y-141562000D02*
X193473000Y-143172000D01*
X193433000Y-141452000D02*
X193433000Y-143282000D01*
X193393000Y-141356000D02*
X193393000Y-143378000D01*
X193353000Y-141269000D02*
X193353000Y-143465000D01*
X193313000Y-141189000D02*
X193313000Y-143545000D01*
X193273000Y-141116000D02*
X193273000Y-143618000D01*
X193233000Y-141048000D02*
X193233000Y-143686000D01*
X193193000Y-140984000D02*
X193193000Y-143750000D01*
X193153000Y-140924000D02*
X193153000Y-143810000D01*
X193113000Y-140867000D02*
X193113000Y-143867000D01*
X193073000Y-140813000D02*
X193073000Y-143921000D01*
X193033000Y-140762000D02*
X193033000Y-143972000D01*
X192993000Y-143407000D02*
X192993000Y-144020000D01*
X192993000Y-140714000D02*
X192993000Y-141327000D01*
X192953000Y-143407000D02*
X192953000Y-144066000D01*
X192953000Y-140668000D02*
X192953000Y-141327000D01*
X192913000Y-143407000D02*
X192913000Y-144110000D01*
X192913000Y-140624000D02*
X192913000Y-141327000D01*
X192873000Y-143407000D02*
X192873000Y-144152000D01*
X192873000Y-140582000D02*
X192873000Y-141327000D01*
X192833000Y-143407000D02*
X192833000Y-144193000D01*
X192833000Y-140541000D02*
X192833000Y-141327000D01*
X192793000Y-143407000D02*
X192793000Y-144231000D01*
X192793000Y-140503000D02*
X192793000Y-141327000D01*
X192753000Y-143407000D02*
X192753000Y-144268000D01*
X192753000Y-140466000D02*
X192753000Y-141327000D01*
X192713000Y-143407000D02*
X192713000Y-144304000D01*
X192713000Y-140430000D02*
X192713000Y-141327000D01*
X192673000Y-143407000D02*
X192673000Y-144338000D01*
X192673000Y-140396000D02*
X192673000Y-141327000D01*
X192633000Y-143407000D02*
X192633000Y-144371000D01*
X192633000Y-140363000D02*
X192633000Y-141327000D01*
X192593000Y-143407000D02*
X192593000Y-144402000D01*
X192593000Y-140332000D02*
X192593000Y-141327000D01*
X192553000Y-143407000D02*
X192553000Y-144432000D01*
X192553000Y-140302000D02*
X192553000Y-141327000D01*
X192513000Y-143407000D02*
X192513000Y-144462000D01*
X192513000Y-140272000D02*
X192513000Y-141327000D01*
X192473000Y-143407000D02*
X192473000Y-144489000D01*
X192473000Y-140245000D02*
X192473000Y-141327000D01*
X192433000Y-143407000D02*
X192433000Y-144516000D01*
X192433000Y-140218000D02*
X192433000Y-141327000D01*
X192393000Y-143407000D02*
X192393000Y-144542000D01*
X192393000Y-140192000D02*
X192393000Y-141327000D01*
X192353000Y-143407000D02*
X192353000Y-144567000D01*
X192353000Y-140167000D02*
X192353000Y-141327000D01*
X192313000Y-143407000D02*
X192313000Y-144591000D01*
X192313000Y-140143000D02*
X192313000Y-141327000D01*
X192273000Y-143407000D02*
X192273000Y-144614000D01*
X192273000Y-140120000D02*
X192273000Y-141327000D01*
X192233000Y-143407000D02*
X192233000Y-144635000D01*
X192233000Y-140099000D02*
X192233000Y-141327000D01*
X192193000Y-143407000D02*
X192193000Y-144657000D01*
X192193000Y-140077000D02*
X192193000Y-141327000D01*
X192153000Y-143407000D02*
X192153000Y-144677000D01*
X192153000Y-140057000D02*
X192153000Y-141327000D01*
X192113000Y-143407000D02*
X192113000Y-144696000D01*
X192113000Y-140038000D02*
X192113000Y-141327000D01*
X192073000Y-143407000D02*
X192073000Y-144715000D01*
X192073000Y-140019000D02*
X192073000Y-141327000D01*
X192033000Y-143407000D02*
X192033000Y-144732000D01*
X192033000Y-140002000D02*
X192033000Y-141327000D01*
X191993000Y-143407000D02*
X191993000Y-144749000D01*
X191993000Y-139985000D02*
X191993000Y-141327000D01*
X191953000Y-143407000D02*
X191953000Y-144765000D01*
X191953000Y-139969000D02*
X191953000Y-141327000D01*
X191913000Y-143407000D02*
X191913000Y-144781000D01*
X191913000Y-139953000D02*
X191913000Y-141327000D01*
X191873000Y-143407000D02*
X191873000Y-144795000D01*
X191873000Y-139939000D02*
X191873000Y-141327000D01*
X191833000Y-143407000D02*
X191833000Y-144809000D01*
X191833000Y-139925000D02*
X191833000Y-141327000D01*
X191793000Y-143407000D02*
X191793000Y-144822000D01*
X191793000Y-139912000D02*
X191793000Y-141327000D01*
X191753000Y-143407000D02*
X191753000Y-144835000D01*
X191753000Y-139899000D02*
X191753000Y-141327000D01*
X191713000Y-143407000D02*
X191713000Y-144847000D01*
X191713000Y-139887000D02*
X191713000Y-141327000D01*
X191672000Y-143407000D02*
X191672000Y-144858000D01*
X191672000Y-139876000D02*
X191672000Y-141327000D01*
X191632000Y-143407000D02*
X191632000Y-144868000D01*
X191632000Y-139866000D02*
X191632000Y-141327000D01*
X191592000Y-143407000D02*
X191592000Y-144878000D01*
X191592000Y-139856000D02*
X191592000Y-141327000D01*
X191552000Y-143407000D02*
X191552000Y-144887000D01*
X191552000Y-139847000D02*
X191552000Y-141327000D01*
X191512000Y-143407000D02*
X191512000Y-144895000D01*
X191512000Y-139839000D02*
X191512000Y-141327000D01*
X191472000Y-143407000D02*
X191472000Y-144903000D01*
X191472000Y-139831000D02*
X191472000Y-141327000D01*
X191432000Y-143407000D02*
X191432000Y-144910000D01*
X191432000Y-139824000D02*
X191432000Y-141327000D01*
X191392000Y-143407000D02*
X191392000Y-144917000D01*
X191392000Y-139817000D02*
X191392000Y-141327000D01*
X191352000Y-143407000D02*
X191352000Y-144923000D01*
X191352000Y-139811000D02*
X191352000Y-141327000D01*
X191312000Y-143407000D02*
X191312000Y-144928000D01*
X191312000Y-139806000D02*
X191312000Y-141327000D01*
X191272000Y-143407000D02*
X191272000Y-144932000D01*
X191272000Y-139802000D02*
X191272000Y-141327000D01*
X191232000Y-143407000D02*
X191232000Y-144936000D01*
X191232000Y-139798000D02*
X191232000Y-141327000D01*
X191192000Y-143407000D02*
X191192000Y-144940000D01*
X191192000Y-139794000D02*
X191192000Y-141327000D01*
X191152000Y-143407000D02*
X191152000Y-144943000D01*
X191152000Y-139791000D02*
X191152000Y-141327000D01*
X191112000Y-143407000D02*
X191112000Y-144945000D01*
X191112000Y-139789000D02*
X191112000Y-141327000D01*
X191072000Y-143407000D02*
X191072000Y-144946000D01*
X191072000Y-139788000D02*
X191072000Y-141327000D01*
X191032000Y-139787000D02*
X191032000Y-141327000D01*
X191032000Y-143407000D02*
X191032000Y-144947000D01*
X190992000Y-139787000D02*
X190992000Y-141327000D01*
X190992000Y-143407000D02*
X190992000Y-144947000D01*
X193612000Y-142367000D02*
G75*
G03X193612000Y-142367000I-2620000J0D01*
G01*
G04 #@! TO.C,C2*
X192305000Y-53163000D02*
X192305000Y-45723000D01*
X195045000Y-53163000D02*
X195045000Y-45723000D01*
X192305000Y-53163000D02*
X195045000Y-53163000D01*
X192305000Y-45723000D02*
X195045000Y-45723000D01*
G04 #@! TO.C,C3*
X216405000Y-57558000D02*
X216405000Y-60298000D01*
X208965000Y-57558000D02*
X208965000Y-60298000D01*
X208965000Y-60298000D02*
X216405000Y-60298000D01*
X208965000Y-57558000D02*
X216405000Y-57558000D01*
G04 #@! TO.C,C4*
X191513000Y-84228000D02*
X191513000Y-86968000D01*
X184073000Y-84228000D02*
X184073000Y-86968000D01*
X184073000Y-86968000D02*
X191513000Y-86968000D01*
X184073000Y-84228000D02*
X191513000Y-84228000D01*
G04 #@! TO.C,C5*
X183438000Y-105437000D02*
X190878000Y-105437000D01*
X183438000Y-108177000D02*
X190878000Y-108177000D01*
X183438000Y-105437000D02*
X183438000Y-108177000D01*
X190878000Y-105437000D02*
X190878000Y-108177000D01*
G04 #@! TO.C,C6*
X183325000Y-62865000D02*
G75*
G03X183325000Y-62865000I-2620000J0D01*
G01*
X180705000Y-63905000D02*
X180705000Y-65445000D01*
X180705000Y-60285000D02*
X180705000Y-61825000D01*
X180745000Y-63905000D02*
X180745000Y-65445000D01*
X180745000Y-60285000D02*
X180745000Y-61825000D01*
X180785000Y-60286000D02*
X180785000Y-61825000D01*
X180785000Y-63905000D02*
X180785000Y-65444000D01*
X180825000Y-60287000D02*
X180825000Y-61825000D01*
X180825000Y-63905000D02*
X180825000Y-65443000D01*
X180865000Y-60289000D02*
X180865000Y-61825000D01*
X180865000Y-63905000D02*
X180865000Y-65441000D01*
X180905000Y-60292000D02*
X180905000Y-61825000D01*
X180905000Y-63905000D02*
X180905000Y-65438000D01*
X180945000Y-60296000D02*
X180945000Y-61825000D01*
X180945000Y-63905000D02*
X180945000Y-65434000D01*
X180985000Y-60300000D02*
X180985000Y-61825000D01*
X180985000Y-63905000D02*
X180985000Y-65430000D01*
X181025000Y-60304000D02*
X181025000Y-61825000D01*
X181025000Y-63905000D02*
X181025000Y-65426000D01*
X181065000Y-60309000D02*
X181065000Y-61825000D01*
X181065000Y-63905000D02*
X181065000Y-65421000D01*
X181105000Y-60315000D02*
X181105000Y-61825000D01*
X181105000Y-63905000D02*
X181105000Y-65415000D01*
X181145000Y-60322000D02*
X181145000Y-61825000D01*
X181145000Y-63905000D02*
X181145000Y-65408000D01*
X181185000Y-60329000D02*
X181185000Y-61825000D01*
X181185000Y-63905000D02*
X181185000Y-65401000D01*
X181225000Y-60337000D02*
X181225000Y-61825000D01*
X181225000Y-63905000D02*
X181225000Y-65393000D01*
X181265000Y-60345000D02*
X181265000Y-61825000D01*
X181265000Y-63905000D02*
X181265000Y-65385000D01*
X181305000Y-60354000D02*
X181305000Y-61825000D01*
X181305000Y-63905000D02*
X181305000Y-65376000D01*
X181345000Y-60364000D02*
X181345000Y-61825000D01*
X181345000Y-63905000D02*
X181345000Y-65366000D01*
X181385000Y-60374000D02*
X181385000Y-61825000D01*
X181385000Y-63905000D02*
X181385000Y-65356000D01*
X181426000Y-60385000D02*
X181426000Y-61825000D01*
X181426000Y-63905000D02*
X181426000Y-65345000D01*
X181466000Y-60397000D02*
X181466000Y-61825000D01*
X181466000Y-63905000D02*
X181466000Y-65333000D01*
X181506000Y-60410000D02*
X181506000Y-61825000D01*
X181506000Y-63905000D02*
X181506000Y-65320000D01*
X181546000Y-60423000D02*
X181546000Y-61825000D01*
X181546000Y-63905000D02*
X181546000Y-65307000D01*
X181586000Y-60437000D02*
X181586000Y-61825000D01*
X181586000Y-63905000D02*
X181586000Y-65293000D01*
X181626000Y-60451000D02*
X181626000Y-61825000D01*
X181626000Y-63905000D02*
X181626000Y-65279000D01*
X181666000Y-60467000D02*
X181666000Y-61825000D01*
X181666000Y-63905000D02*
X181666000Y-65263000D01*
X181706000Y-60483000D02*
X181706000Y-61825000D01*
X181706000Y-63905000D02*
X181706000Y-65247000D01*
X181746000Y-60500000D02*
X181746000Y-61825000D01*
X181746000Y-63905000D02*
X181746000Y-65230000D01*
X181786000Y-60517000D02*
X181786000Y-61825000D01*
X181786000Y-63905000D02*
X181786000Y-65213000D01*
X181826000Y-60536000D02*
X181826000Y-61825000D01*
X181826000Y-63905000D02*
X181826000Y-65194000D01*
X181866000Y-60555000D02*
X181866000Y-61825000D01*
X181866000Y-63905000D02*
X181866000Y-65175000D01*
X181906000Y-60575000D02*
X181906000Y-61825000D01*
X181906000Y-63905000D02*
X181906000Y-65155000D01*
X181946000Y-60597000D02*
X181946000Y-61825000D01*
X181946000Y-63905000D02*
X181946000Y-65133000D01*
X181986000Y-60618000D02*
X181986000Y-61825000D01*
X181986000Y-63905000D02*
X181986000Y-65112000D01*
X182026000Y-60641000D02*
X182026000Y-61825000D01*
X182026000Y-63905000D02*
X182026000Y-65089000D01*
X182066000Y-60665000D02*
X182066000Y-61825000D01*
X182066000Y-63905000D02*
X182066000Y-65065000D01*
X182106000Y-60690000D02*
X182106000Y-61825000D01*
X182106000Y-63905000D02*
X182106000Y-65040000D01*
X182146000Y-60716000D02*
X182146000Y-61825000D01*
X182146000Y-63905000D02*
X182146000Y-65014000D01*
X182186000Y-60743000D02*
X182186000Y-61825000D01*
X182186000Y-63905000D02*
X182186000Y-64987000D01*
X182226000Y-60770000D02*
X182226000Y-61825000D01*
X182226000Y-63905000D02*
X182226000Y-64960000D01*
X182266000Y-60800000D02*
X182266000Y-61825000D01*
X182266000Y-63905000D02*
X182266000Y-64930000D01*
X182306000Y-60830000D02*
X182306000Y-61825000D01*
X182306000Y-63905000D02*
X182306000Y-64900000D01*
X182346000Y-60861000D02*
X182346000Y-61825000D01*
X182346000Y-63905000D02*
X182346000Y-64869000D01*
X182386000Y-60894000D02*
X182386000Y-61825000D01*
X182386000Y-63905000D02*
X182386000Y-64836000D01*
X182426000Y-60928000D02*
X182426000Y-61825000D01*
X182426000Y-63905000D02*
X182426000Y-64802000D01*
X182466000Y-60964000D02*
X182466000Y-61825000D01*
X182466000Y-63905000D02*
X182466000Y-64766000D01*
X182506000Y-61001000D02*
X182506000Y-61825000D01*
X182506000Y-63905000D02*
X182506000Y-64729000D01*
X182546000Y-61039000D02*
X182546000Y-61825000D01*
X182546000Y-63905000D02*
X182546000Y-64691000D01*
X182586000Y-61080000D02*
X182586000Y-61825000D01*
X182586000Y-63905000D02*
X182586000Y-64650000D01*
X182626000Y-61122000D02*
X182626000Y-61825000D01*
X182626000Y-63905000D02*
X182626000Y-64608000D01*
X182666000Y-61166000D02*
X182666000Y-61825000D01*
X182666000Y-63905000D02*
X182666000Y-64564000D01*
X182706000Y-61212000D02*
X182706000Y-61825000D01*
X182706000Y-63905000D02*
X182706000Y-64518000D01*
X182746000Y-61260000D02*
X182746000Y-64470000D01*
X182786000Y-61311000D02*
X182786000Y-64419000D01*
X182826000Y-61365000D02*
X182826000Y-64365000D01*
X182866000Y-61422000D02*
X182866000Y-64308000D01*
X182906000Y-61482000D02*
X182906000Y-64248000D01*
X182946000Y-61546000D02*
X182946000Y-64184000D01*
X182986000Y-61614000D02*
X182986000Y-64116000D01*
X183026000Y-61687000D02*
X183026000Y-64043000D01*
X183066000Y-61767000D02*
X183066000Y-63963000D01*
X183106000Y-61854000D02*
X183106000Y-63876000D01*
X183146000Y-61950000D02*
X183146000Y-63780000D01*
X183186000Y-62060000D02*
X183186000Y-63670000D01*
X183226000Y-62188000D02*
X183226000Y-63542000D01*
X183266000Y-62347000D02*
X183266000Y-63383000D01*
X183306000Y-62581000D02*
X183306000Y-63149000D01*
X177900225Y-61390000D02*
X178400225Y-61390000D01*
X178150225Y-61140000D02*
X178150225Y-61640000D01*
G04 #@! TO.C,C7*
X178150225Y-82349000D02*
X178150225Y-82849000D01*
X177900225Y-82599000D02*
X178400225Y-82599000D01*
X183306000Y-83790000D02*
X183306000Y-84358000D01*
X183266000Y-83556000D02*
X183266000Y-84592000D01*
X183226000Y-83397000D02*
X183226000Y-84751000D01*
X183186000Y-83269000D02*
X183186000Y-84879000D01*
X183146000Y-83159000D02*
X183146000Y-84989000D01*
X183106000Y-83063000D02*
X183106000Y-85085000D01*
X183066000Y-82976000D02*
X183066000Y-85172000D01*
X183026000Y-82896000D02*
X183026000Y-85252000D01*
X182986000Y-82823000D02*
X182986000Y-85325000D01*
X182946000Y-82755000D02*
X182946000Y-85393000D01*
X182906000Y-82691000D02*
X182906000Y-85457000D01*
X182866000Y-82631000D02*
X182866000Y-85517000D01*
X182826000Y-82574000D02*
X182826000Y-85574000D01*
X182786000Y-82520000D02*
X182786000Y-85628000D01*
X182746000Y-82469000D02*
X182746000Y-85679000D01*
X182706000Y-85114000D02*
X182706000Y-85727000D01*
X182706000Y-82421000D02*
X182706000Y-83034000D01*
X182666000Y-85114000D02*
X182666000Y-85773000D01*
X182666000Y-82375000D02*
X182666000Y-83034000D01*
X182626000Y-85114000D02*
X182626000Y-85817000D01*
X182626000Y-82331000D02*
X182626000Y-83034000D01*
X182586000Y-85114000D02*
X182586000Y-85859000D01*
X182586000Y-82289000D02*
X182586000Y-83034000D01*
X182546000Y-85114000D02*
X182546000Y-85900000D01*
X182546000Y-82248000D02*
X182546000Y-83034000D01*
X182506000Y-85114000D02*
X182506000Y-85938000D01*
X182506000Y-82210000D02*
X182506000Y-83034000D01*
X182466000Y-85114000D02*
X182466000Y-85975000D01*
X182466000Y-82173000D02*
X182466000Y-83034000D01*
X182426000Y-85114000D02*
X182426000Y-86011000D01*
X182426000Y-82137000D02*
X182426000Y-83034000D01*
X182386000Y-85114000D02*
X182386000Y-86045000D01*
X182386000Y-82103000D02*
X182386000Y-83034000D01*
X182346000Y-85114000D02*
X182346000Y-86078000D01*
X182346000Y-82070000D02*
X182346000Y-83034000D01*
X182306000Y-85114000D02*
X182306000Y-86109000D01*
X182306000Y-82039000D02*
X182306000Y-83034000D01*
X182266000Y-85114000D02*
X182266000Y-86139000D01*
X182266000Y-82009000D02*
X182266000Y-83034000D01*
X182226000Y-85114000D02*
X182226000Y-86169000D01*
X182226000Y-81979000D02*
X182226000Y-83034000D01*
X182186000Y-85114000D02*
X182186000Y-86196000D01*
X182186000Y-81952000D02*
X182186000Y-83034000D01*
X182146000Y-85114000D02*
X182146000Y-86223000D01*
X182146000Y-81925000D02*
X182146000Y-83034000D01*
X182106000Y-85114000D02*
X182106000Y-86249000D01*
X182106000Y-81899000D02*
X182106000Y-83034000D01*
X182066000Y-85114000D02*
X182066000Y-86274000D01*
X182066000Y-81874000D02*
X182066000Y-83034000D01*
X182026000Y-85114000D02*
X182026000Y-86298000D01*
X182026000Y-81850000D02*
X182026000Y-83034000D01*
X181986000Y-85114000D02*
X181986000Y-86321000D01*
X181986000Y-81827000D02*
X181986000Y-83034000D01*
X181946000Y-85114000D02*
X181946000Y-86342000D01*
X181946000Y-81806000D02*
X181946000Y-83034000D01*
X181906000Y-85114000D02*
X181906000Y-86364000D01*
X181906000Y-81784000D02*
X181906000Y-83034000D01*
X181866000Y-85114000D02*
X181866000Y-86384000D01*
X181866000Y-81764000D02*
X181866000Y-83034000D01*
X181826000Y-85114000D02*
X181826000Y-86403000D01*
X181826000Y-81745000D02*
X181826000Y-83034000D01*
X181786000Y-85114000D02*
X181786000Y-86422000D01*
X181786000Y-81726000D02*
X181786000Y-83034000D01*
X181746000Y-85114000D02*
X181746000Y-86439000D01*
X181746000Y-81709000D02*
X181746000Y-83034000D01*
X181706000Y-85114000D02*
X181706000Y-86456000D01*
X181706000Y-81692000D02*
X181706000Y-83034000D01*
X181666000Y-85114000D02*
X181666000Y-86472000D01*
X181666000Y-81676000D02*
X181666000Y-83034000D01*
X181626000Y-85114000D02*
X181626000Y-86488000D01*
X181626000Y-81660000D02*
X181626000Y-83034000D01*
X181586000Y-85114000D02*
X181586000Y-86502000D01*
X181586000Y-81646000D02*
X181586000Y-83034000D01*
X181546000Y-85114000D02*
X181546000Y-86516000D01*
X181546000Y-81632000D02*
X181546000Y-83034000D01*
X181506000Y-85114000D02*
X181506000Y-86529000D01*
X181506000Y-81619000D02*
X181506000Y-83034000D01*
X181466000Y-85114000D02*
X181466000Y-86542000D01*
X181466000Y-81606000D02*
X181466000Y-83034000D01*
X181426000Y-85114000D02*
X181426000Y-86554000D01*
X181426000Y-81594000D02*
X181426000Y-83034000D01*
X181385000Y-85114000D02*
X181385000Y-86565000D01*
X181385000Y-81583000D02*
X181385000Y-83034000D01*
X181345000Y-85114000D02*
X181345000Y-86575000D01*
X181345000Y-81573000D02*
X181345000Y-83034000D01*
X181305000Y-85114000D02*
X181305000Y-86585000D01*
X181305000Y-81563000D02*
X181305000Y-83034000D01*
X181265000Y-85114000D02*
X181265000Y-86594000D01*
X181265000Y-81554000D02*
X181265000Y-83034000D01*
X181225000Y-85114000D02*
X181225000Y-86602000D01*
X181225000Y-81546000D02*
X181225000Y-83034000D01*
X181185000Y-85114000D02*
X181185000Y-86610000D01*
X181185000Y-81538000D02*
X181185000Y-83034000D01*
X181145000Y-85114000D02*
X181145000Y-86617000D01*
X181145000Y-81531000D02*
X181145000Y-83034000D01*
X181105000Y-85114000D02*
X181105000Y-86624000D01*
X181105000Y-81524000D02*
X181105000Y-83034000D01*
X181065000Y-85114000D02*
X181065000Y-86630000D01*
X181065000Y-81518000D02*
X181065000Y-83034000D01*
X181025000Y-85114000D02*
X181025000Y-86635000D01*
X181025000Y-81513000D02*
X181025000Y-83034000D01*
X180985000Y-85114000D02*
X180985000Y-86639000D01*
X180985000Y-81509000D02*
X180985000Y-83034000D01*
X180945000Y-85114000D02*
X180945000Y-86643000D01*
X180945000Y-81505000D02*
X180945000Y-83034000D01*
X180905000Y-85114000D02*
X180905000Y-86647000D01*
X180905000Y-81501000D02*
X180905000Y-83034000D01*
X180865000Y-85114000D02*
X180865000Y-86650000D01*
X180865000Y-81498000D02*
X180865000Y-83034000D01*
X180825000Y-85114000D02*
X180825000Y-86652000D01*
X180825000Y-81496000D02*
X180825000Y-83034000D01*
X180785000Y-85114000D02*
X180785000Y-86653000D01*
X180785000Y-81495000D02*
X180785000Y-83034000D01*
X180745000Y-81494000D02*
X180745000Y-83034000D01*
X180745000Y-85114000D02*
X180745000Y-86654000D01*
X180705000Y-81494000D02*
X180705000Y-83034000D01*
X180705000Y-85114000D02*
X180705000Y-86654000D01*
X183325000Y-84074000D02*
G75*
G03X183325000Y-84074000I-2620000J0D01*
G01*
G04 #@! TO.C,C8*
X183198000Y-105156000D02*
G75*
G03X183198000Y-105156000I-2620000J0D01*
G01*
X180578000Y-106196000D02*
X180578000Y-107736000D01*
X180578000Y-102576000D02*
X180578000Y-104116000D01*
X180618000Y-106196000D02*
X180618000Y-107736000D01*
X180618000Y-102576000D02*
X180618000Y-104116000D01*
X180658000Y-102577000D02*
X180658000Y-104116000D01*
X180658000Y-106196000D02*
X180658000Y-107735000D01*
X180698000Y-102578000D02*
X180698000Y-104116000D01*
X180698000Y-106196000D02*
X180698000Y-107734000D01*
X180738000Y-102580000D02*
X180738000Y-104116000D01*
X180738000Y-106196000D02*
X180738000Y-107732000D01*
X180778000Y-102583000D02*
X180778000Y-104116000D01*
X180778000Y-106196000D02*
X180778000Y-107729000D01*
X180818000Y-102587000D02*
X180818000Y-104116000D01*
X180818000Y-106196000D02*
X180818000Y-107725000D01*
X180858000Y-102591000D02*
X180858000Y-104116000D01*
X180858000Y-106196000D02*
X180858000Y-107721000D01*
X180898000Y-102595000D02*
X180898000Y-104116000D01*
X180898000Y-106196000D02*
X180898000Y-107717000D01*
X180938000Y-102600000D02*
X180938000Y-104116000D01*
X180938000Y-106196000D02*
X180938000Y-107712000D01*
X180978000Y-102606000D02*
X180978000Y-104116000D01*
X180978000Y-106196000D02*
X180978000Y-107706000D01*
X181018000Y-102613000D02*
X181018000Y-104116000D01*
X181018000Y-106196000D02*
X181018000Y-107699000D01*
X181058000Y-102620000D02*
X181058000Y-104116000D01*
X181058000Y-106196000D02*
X181058000Y-107692000D01*
X181098000Y-102628000D02*
X181098000Y-104116000D01*
X181098000Y-106196000D02*
X181098000Y-107684000D01*
X181138000Y-102636000D02*
X181138000Y-104116000D01*
X181138000Y-106196000D02*
X181138000Y-107676000D01*
X181178000Y-102645000D02*
X181178000Y-104116000D01*
X181178000Y-106196000D02*
X181178000Y-107667000D01*
X181218000Y-102655000D02*
X181218000Y-104116000D01*
X181218000Y-106196000D02*
X181218000Y-107657000D01*
X181258000Y-102665000D02*
X181258000Y-104116000D01*
X181258000Y-106196000D02*
X181258000Y-107647000D01*
X181299000Y-102676000D02*
X181299000Y-104116000D01*
X181299000Y-106196000D02*
X181299000Y-107636000D01*
X181339000Y-102688000D02*
X181339000Y-104116000D01*
X181339000Y-106196000D02*
X181339000Y-107624000D01*
X181379000Y-102701000D02*
X181379000Y-104116000D01*
X181379000Y-106196000D02*
X181379000Y-107611000D01*
X181419000Y-102714000D02*
X181419000Y-104116000D01*
X181419000Y-106196000D02*
X181419000Y-107598000D01*
X181459000Y-102728000D02*
X181459000Y-104116000D01*
X181459000Y-106196000D02*
X181459000Y-107584000D01*
X181499000Y-102742000D02*
X181499000Y-104116000D01*
X181499000Y-106196000D02*
X181499000Y-107570000D01*
X181539000Y-102758000D02*
X181539000Y-104116000D01*
X181539000Y-106196000D02*
X181539000Y-107554000D01*
X181579000Y-102774000D02*
X181579000Y-104116000D01*
X181579000Y-106196000D02*
X181579000Y-107538000D01*
X181619000Y-102791000D02*
X181619000Y-104116000D01*
X181619000Y-106196000D02*
X181619000Y-107521000D01*
X181659000Y-102808000D02*
X181659000Y-104116000D01*
X181659000Y-106196000D02*
X181659000Y-107504000D01*
X181699000Y-102827000D02*
X181699000Y-104116000D01*
X181699000Y-106196000D02*
X181699000Y-107485000D01*
X181739000Y-102846000D02*
X181739000Y-104116000D01*
X181739000Y-106196000D02*
X181739000Y-107466000D01*
X181779000Y-102866000D02*
X181779000Y-104116000D01*
X181779000Y-106196000D02*
X181779000Y-107446000D01*
X181819000Y-102888000D02*
X181819000Y-104116000D01*
X181819000Y-106196000D02*
X181819000Y-107424000D01*
X181859000Y-102909000D02*
X181859000Y-104116000D01*
X181859000Y-106196000D02*
X181859000Y-107403000D01*
X181899000Y-102932000D02*
X181899000Y-104116000D01*
X181899000Y-106196000D02*
X181899000Y-107380000D01*
X181939000Y-102956000D02*
X181939000Y-104116000D01*
X181939000Y-106196000D02*
X181939000Y-107356000D01*
X181979000Y-102981000D02*
X181979000Y-104116000D01*
X181979000Y-106196000D02*
X181979000Y-107331000D01*
X182019000Y-103007000D02*
X182019000Y-104116000D01*
X182019000Y-106196000D02*
X182019000Y-107305000D01*
X182059000Y-103034000D02*
X182059000Y-104116000D01*
X182059000Y-106196000D02*
X182059000Y-107278000D01*
X182099000Y-103061000D02*
X182099000Y-104116000D01*
X182099000Y-106196000D02*
X182099000Y-107251000D01*
X182139000Y-103091000D02*
X182139000Y-104116000D01*
X182139000Y-106196000D02*
X182139000Y-107221000D01*
X182179000Y-103121000D02*
X182179000Y-104116000D01*
X182179000Y-106196000D02*
X182179000Y-107191000D01*
X182219000Y-103152000D02*
X182219000Y-104116000D01*
X182219000Y-106196000D02*
X182219000Y-107160000D01*
X182259000Y-103185000D02*
X182259000Y-104116000D01*
X182259000Y-106196000D02*
X182259000Y-107127000D01*
X182299000Y-103219000D02*
X182299000Y-104116000D01*
X182299000Y-106196000D02*
X182299000Y-107093000D01*
X182339000Y-103255000D02*
X182339000Y-104116000D01*
X182339000Y-106196000D02*
X182339000Y-107057000D01*
X182379000Y-103292000D02*
X182379000Y-104116000D01*
X182379000Y-106196000D02*
X182379000Y-107020000D01*
X182419000Y-103330000D02*
X182419000Y-104116000D01*
X182419000Y-106196000D02*
X182419000Y-106982000D01*
X182459000Y-103371000D02*
X182459000Y-104116000D01*
X182459000Y-106196000D02*
X182459000Y-106941000D01*
X182499000Y-103413000D02*
X182499000Y-104116000D01*
X182499000Y-106196000D02*
X182499000Y-106899000D01*
X182539000Y-103457000D02*
X182539000Y-104116000D01*
X182539000Y-106196000D02*
X182539000Y-106855000D01*
X182579000Y-103503000D02*
X182579000Y-104116000D01*
X182579000Y-106196000D02*
X182579000Y-106809000D01*
X182619000Y-103551000D02*
X182619000Y-106761000D01*
X182659000Y-103602000D02*
X182659000Y-106710000D01*
X182699000Y-103656000D02*
X182699000Y-106656000D01*
X182739000Y-103713000D02*
X182739000Y-106599000D01*
X182779000Y-103773000D02*
X182779000Y-106539000D01*
X182819000Y-103837000D02*
X182819000Y-106475000D01*
X182859000Y-103905000D02*
X182859000Y-106407000D01*
X182899000Y-103978000D02*
X182899000Y-106334000D01*
X182939000Y-104058000D02*
X182939000Y-106254000D01*
X182979000Y-104145000D02*
X182979000Y-106167000D01*
X183019000Y-104241000D02*
X183019000Y-106071000D01*
X183059000Y-104351000D02*
X183059000Y-105961000D01*
X183099000Y-104479000D02*
X183099000Y-105833000D01*
X183139000Y-104638000D02*
X183139000Y-105674000D01*
X183179000Y-104872000D02*
X183179000Y-105440000D01*
X177773225Y-103681000D02*
X178273225Y-103681000D01*
X178023225Y-103431000D02*
X178023225Y-103931000D01*
G04 #@! TO.C,C9*
X193374000Y-125619000D02*
G75*
G03X193374000Y-125619000I-2620000J0D01*
G01*
X191794000Y-125619000D02*
X193334000Y-125619000D01*
X188174000Y-125619000D02*
X189714000Y-125619000D01*
X191794000Y-125579000D02*
X193334000Y-125579000D01*
X188174000Y-125579000D02*
X189714000Y-125579000D01*
X188175000Y-125539000D02*
X189714000Y-125539000D01*
X191794000Y-125539000D02*
X193333000Y-125539000D01*
X188176000Y-125499000D02*
X189714000Y-125499000D01*
X191794000Y-125499000D02*
X193332000Y-125499000D01*
X188178000Y-125459000D02*
X189714000Y-125459000D01*
X191794000Y-125459000D02*
X193330000Y-125459000D01*
X188181000Y-125419000D02*
X189714000Y-125419000D01*
X191794000Y-125419000D02*
X193327000Y-125419000D01*
X188185000Y-125379000D02*
X189714000Y-125379000D01*
X191794000Y-125379000D02*
X193323000Y-125379000D01*
X188189000Y-125339000D02*
X189714000Y-125339000D01*
X191794000Y-125339000D02*
X193319000Y-125339000D01*
X188193000Y-125299000D02*
X189714000Y-125299000D01*
X191794000Y-125299000D02*
X193315000Y-125299000D01*
X188198000Y-125259000D02*
X189714000Y-125259000D01*
X191794000Y-125259000D02*
X193310000Y-125259000D01*
X188204000Y-125219000D02*
X189714000Y-125219000D01*
X191794000Y-125219000D02*
X193304000Y-125219000D01*
X188211000Y-125179000D02*
X189714000Y-125179000D01*
X191794000Y-125179000D02*
X193297000Y-125179000D01*
X188218000Y-125139000D02*
X189714000Y-125139000D01*
X191794000Y-125139000D02*
X193290000Y-125139000D01*
X188226000Y-125099000D02*
X189714000Y-125099000D01*
X191794000Y-125099000D02*
X193282000Y-125099000D01*
X188234000Y-125059000D02*
X189714000Y-125059000D01*
X191794000Y-125059000D02*
X193274000Y-125059000D01*
X188243000Y-125019000D02*
X189714000Y-125019000D01*
X191794000Y-125019000D02*
X193265000Y-125019000D01*
X188253000Y-124979000D02*
X189714000Y-124979000D01*
X191794000Y-124979000D02*
X193255000Y-124979000D01*
X188263000Y-124939000D02*
X189714000Y-124939000D01*
X191794000Y-124939000D02*
X193245000Y-124939000D01*
X188274000Y-124898000D02*
X189714000Y-124898000D01*
X191794000Y-124898000D02*
X193234000Y-124898000D01*
X188286000Y-124858000D02*
X189714000Y-124858000D01*
X191794000Y-124858000D02*
X193222000Y-124858000D01*
X188299000Y-124818000D02*
X189714000Y-124818000D01*
X191794000Y-124818000D02*
X193209000Y-124818000D01*
X188312000Y-124778000D02*
X189714000Y-124778000D01*
X191794000Y-124778000D02*
X193196000Y-124778000D01*
X188326000Y-124738000D02*
X189714000Y-124738000D01*
X191794000Y-124738000D02*
X193182000Y-124738000D01*
X188340000Y-124698000D02*
X189714000Y-124698000D01*
X191794000Y-124698000D02*
X193168000Y-124698000D01*
X188356000Y-124658000D02*
X189714000Y-124658000D01*
X191794000Y-124658000D02*
X193152000Y-124658000D01*
X188372000Y-124618000D02*
X189714000Y-124618000D01*
X191794000Y-124618000D02*
X193136000Y-124618000D01*
X188389000Y-124578000D02*
X189714000Y-124578000D01*
X191794000Y-124578000D02*
X193119000Y-124578000D01*
X188406000Y-124538000D02*
X189714000Y-124538000D01*
X191794000Y-124538000D02*
X193102000Y-124538000D01*
X188425000Y-124498000D02*
X189714000Y-124498000D01*
X191794000Y-124498000D02*
X193083000Y-124498000D01*
X188444000Y-124458000D02*
X189714000Y-124458000D01*
X191794000Y-124458000D02*
X193064000Y-124458000D01*
X188464000Y-124418000D02*
X189714000Y-124418000D01*
X191794000Y-124418000D02*
X193044000Y-124418000D01*
X188486000Y-124378000D02*
X189714000Y-124378000D01*
X191794000Y-124378000D02*
X193022000Y-124378000D01*
X188507000Y-124338000D02*
X189714000Y-124338000D01*
X191794000Y-124338000D02*
X193001000Y-124338000D01*
X188530000Y-124298000D02*
X189714000Y-124298000D01*
X191794000Y-124298000D02*
X192978000Y-124298000D01*
X188554000Y-124258000D02*
X189714000Y-124258000D01*
X191794000Y-124258000D02*
X192954000Y-124258000D01*
X188579000Y-124218000D02*
X189714000Y-124218000D01*
X191794000Y-124218000D02*
X192929000Y-124218000D01*
X188605000Y-124178000D02*
X189714000Y-124178000D01*
X191794000Y-124178000D02*
X192903000Y-124178000D01*
X188632000Y-124138000D02*
X189714000Y-124138000D01*
X191794000Y-124138000D02*
X192876000Y-124138000D01*
X188659000Y-124098000D02*
X189714000Y-124098000D01*
X191794000Y-124098000D02*
X192849000Y-124098000D01*
X188689000Y-124058000D02*
X189714000Y-124058000D01*
X191794000Y-124058000D02*
X192819000Y-124058000D01*
X188719000Y-124018000D02*
X189714000Y-124018000D01*
X191794000Y-124018000D02*
X192789000Y-124018000D01*
X188750000Y-123978000D02*
X189714000Y-123978000D01*
X191794000Y-123978000D02*
X192758000Y-123978000D01*
X188783000Y-123938000D02*
X189714000Y-123938000D01*
X191794000Y-123938000D02*
X192725000Y-123938000D01*
X188817000Y-123898000D02*
X189714000Y-123898000D01*
X191794000Y-123898000D02*
X192691000Y-123898000D01*
X188853000Y-123858000D02*
X189714000Y-123858000D01*
X191794000Y-123858000D02*
X192655000Y-123858000D01*
X188890000Y-123818000D02*
X189714000Y-123818000D01*
X191794000Y-123818000D02*
X192618000Y-123818000D01*
X188928000Y-123778000D02*
X189714000Y-123778000D01*
X191794000Y-123778000D02*
X192580000Y-123778000D01*
X188969000Y-123738000D02*
X189714000Y-123738000D01*
X191794000Y-123738000D02*
X192539000Y-123738000D01*
X189011000Y-123698000D02*
X189714000Y-123698000D01*
X191794000Y-123698000D02*
X192497000Y-123698000D01*
X189055000Y-123658000D02*
X189714000Y-123658000D01*
X191794000Y-123658000D02*
X192453000Y-123658000D01*
X189101000Y-123618000D02*
X189714000Y-123618000D01*
X191794000Y-123618000D02*
X192407000Y-123618000D01*
X189149000Y-123578000D02*
X192359000Y-123578000D01*
X189200000Y-123538000D02*
X192308000Y-123538000D01*
X189254000Y-123498000D02*
X192254000Y-123498000D01*
X189311000Y-123458000D02*
X192197000Y-123458000D01*
X189371000Y-123418000D02*
X192137000Y-123418000D01*
X189435000Y-123378000D02*
X192073000Y-123378000D01*
X189503000Y-123338000D02*
X192005000Y-123338000D01*
X189576000Y-123298000D02*
X191932000Y-123298000D01*
X189656000Y-123258000D02*
X191852000Y-123258000D01*
X189743000Y-123218000D02*
X191765000Y-123218000D01*
X189839000Y-123178000D02*
X191669000Y-123178000D01*
X189949000Y-123138000D02*
X191559000Y-123138000D01*
X190077000Y-123098000D02*
X191431000Y-123098000D01*
X190236000Y-123058000D02*
X191272000Y-123058000D01*
X190470000Y-123018000D02*
X191038000Y-123018000D01*
X189279000Y-128423775D02*
X189279000Y-127923775D01*
X189029000Y-128173775D02*
X189529000Y-128173775D01*
G04 #@! TO.C,C10*
X194791000Y-73784000D02*
X192051000Y-73784000D01*
X194791000Y-66344000D02*
X192051000Y-66344000D01*
X192051000Y-66344000D02*
X192051000Y-73784000D01*
X194791000Y-66344000D02*
X194791000Y-73784000D01*
G04 #@! TO.C,C11*
X210920000Y-64058000D02*
X210920000Y-71498000D01*
X208180000Y-64058000D02*
X208180000Y-71498000D01*
X210920000Y-64058000D02*
X208180000Y-64058000D01*
X210920000Y-71498000D02*
X208180000Y-71498000D01*
G04 #@! TO.C,C12*
X191924000Y-115012000D02*
X191924000Y-107572000D01*
X194664000Y-115012000D02*
X194664000Y-107572000D01*
X191924000Y-115012000D02*
X194664000Y-115012000D01*
X191924000Y-107572000D02*
X194664000Y-107572000D01*
G04 #@! TO.C,C13*
X199012000Y-90270000D02*
X199012000Y-87530000D01*
X206452000Y-90270000D02*
X206452000Y-87530000D01*
X206452000Y-87530000D02*
X199012000Y-87530000D01*
X206452000Y-90270000D02*
X199012000Y-90270000D01*
G04 #@! TO.C,D1*
X192094000Y-131138000D02*
X192224000Y-131138000D01*
X192224000Y-131138000D02*
X192224000Y-136578000D01*
X192224000Y-136578000D02*
X192094000Y-136578000D01*
X189414000Y-131138000D02*
X189284000Y-131138000D01*
X189284000Y-131138000D02*
X189284000Y-136578000D01*
X189284000Y-136578000D02*
X189414000Y-136578000D01*
X192224000Y-132038000D02*
X189284000Y-132038000D01*
X192224000Y-132158000D02*
X189284000Y-132158000D01*
X192224000Y-131918000D02*
X189284000Y-131918000D01*
G04 #@! TO.C,D2*
X219968000Y-60475000D02*
X219968000Y-62715000D01*
X220208000Y-60475000D02*
X220208000Y-62715000D01*
X220088000Y-60475000D02*
X220088000Y-62715000D01*
X224258000Y-61595000D02*
X223608000Y-61595000D01*
X218718000Y-61595000D02*
X219368000Y-61595000D01*
X223608000Y-60475000D02*
X219368000Y-60475000D01*
X223608000Y-62715000D02*
X223608000Y-60475000D01*
X219368000Y-62715000D02*
X223608000Y-62715000D01*
X219368000Y-60475000D02*
X219368000Y-62715000D01*
G04 #@! TO.C,D3*
X190461000Y-62461000D02*
X190461000Y-60221000D01*
X190461000Y-60221000D02*
X186221000Y-60221000D01*
X186221000Y-60221000D02*
X186221000Y-62461000D01*
X186221000Y-62461000D02*
X190461000Y-62461000D01*
X191111000Y-61341000D02*
X190461000Y-61341000D01*
X185571000Y-61341000D02*
X186221000Y-61341000D01*
X189741000Y-62461000D02*
X189741000Y-60221000D01*
X189621000Y-62461000D02*
X189621000Y-60221000D01*
X189861000Y-62461000D02*
X189861000Y-60221000D01*
G04 #@! TO.C,D4*
X190461000Y-83670000D02*
X190461000Y-81430000D01*
X190461000Y-81430000D02*
X186221000Y-81430000D01*
X186221000Y-81430000D02*
X186221000Y-83670000D01*
X186221000Y-83670000D02*
X190461000Y-83670000D01*
X191111000Y-82550000D02*
X190461000Y-82550000D01*
X185571000Y-82550000D02*
X186221000Y-82550000D01*
X189741000Y-83670000D02*
X189741000Y-81430000D01*
X189621000Y-83670000D02*
X189621000Y-81430000D01*
X189861000Y-83670000D02*
X189861000Y-81430000D01*
G04 #@! TO.C,D5*
X190461000Y-104752000D02*
X190461000Y-102512000D01*
X190461000Y-102512000D02*
X186221000Y-102512000D01*
X186221000Y-102512000D02*
X186221000Y-104752000D01*
X186221000Y-104752000D02*
X190461000Y-104752000D01*
X191111000Y-103632000D02*
X190461000Y-103632000D01*
X185571000Y-103632000D02*
X186221000Y-103632000D01*
X189741000Y-104752000D02*
X189741000Y-102512000D01*
X189621000Y-104752000D02*
X189621000Y-102512000D01*
X189861000Y-104752000D02*
X189861000Y-102512000D01*
G04 #@! TO.C,D6*
X198497000Y-119865000D02*
X198497000Y-117625000D01*
X198257000Y-119865000D02*
X198257000Y-117625000D01*
X198377000Y-119865000D02*
X198377000Y-117625000D01*
X194207000Y-118745000D02*
X194857000Y-118745000D01*
X199747000Y-118745000D02*
X199097000Y-118745000D01*
X194857000Y-119865000D02*
X199097000Y-119865000D01*
X194857000Y-117625000D02*
X194857000Y-119865000D01*
X199097000Y-117625000D02*
X194857000Y-117625000D01*
X199097000Y-119865000D02*
X199097000Y-117625000D01*
G04 #@! TO.C,D12*
X195095000Y-130044000D02*
X197335000Y-130044000D01*
X195095000Y-129804000D02*
X197335000Y-129804000D01*
X195095000Y-129924000D02*
X197335000Y-129924000D01*
X196215000Y-125754000D02*
X196215000Y-126404000D01*
X196215000Y-131294000D02*
X196215000Y-130644000D01*
X195095000Y-126404000D02*
X195095000Y-130644000D01*
X197335000Y-126404000D02*
X195095000Y-126404000D01*
X197335000Y-130644000D02*
X197335000Y-126404000D01*
X195095000Y-130644000D02*
X197335000Y-130644000D01*
G04 #@! TO.C,D13*
X197762000Y-130644000D02*
X200002000Y-130644000D01*
X200002000Y-130644000D02*
X200002000Y-126404000D01*
X200002000Y-126404000D02*
X197762000Y-126404000D01*
X197762000Y-126404000D02*
X197762000Y-130644000D01*
X198882000Y-131294000D02*
X198882000Y-130644000D01*
X198882000Y-125754000D02*
X198882000Y-126404000D01*
X197762000Y-129924000D02*
X200002000Y-129924000D01*
X197762000Y-129804000D02*
X200002000Y-129804000D01*
X197762000Y-130044000D02*
X200002000Y-130044000D01*
G04 #@! TO.C,D14*
X200429000Y-130044000D02*
X202669000Y-130044000D01*
X200429000Y-129804000D02*
X202669000Y-129804000D01*
X200429000Y-129924000D02*
X202669000Y-129924000D01*
X201549000Y-125754000D02*
X201549000Y-126404000D01*
X201549000Y-131294000D02*
X201549000Y-130644000D01*
X200429000Y-126404000D02*
X200429000Y-130644000D01*
X202669000Y-126404000D02*
X200429000Y-126404000D01*
X202669000Y-130644000D02*
X202669000Y-126404000D01*
X200429000Y-130644000D02*
X202669000Y-130644000D01*
G04 #@! TO.C,D15*
X203096000Y-130644000D02*
X205336000Y-130644000D01*
X205336000Y-130644000D02*
X205336000Y-126404000D01*
X205336000Y-126404000D02*
X203096000Y-126404000D01*
X203096000Y-126404000D02*
X203096000Y-130644000D01*
X204216000Y-131294000D02*
X204216000Y-130644000D01*
X204216000Y-125754000D02*
X204216000Y-126404000D01*
X203096000Y-129924000D02*
X205336000Y-129924000D01*
X203096000Y-129804000D02*
X205336000Y-129804000D01*
X203096000Y-130044000D02*
X205336000Y-130044000D01*
G04 #@! TO.C,D16*
X205763000Y-130044000D02*
X208003000Y-130044000D01*
X205763000Y-129804000D02*
X208003000Y-129804000D01*
X205763000Y-129924000D02*
X208003000Y-129924000D01*
X206883000Y-125754000D02*
X206883000Y-126404000D01*
X206883000Y-131294000D02*
X206883000Y-130644000D01*
X205763000Y-126404000D02*
X205763000Y-130644000D01*
X208003000Y-126404000D02*
X205763000Y-126404000D01*
X208003000Y-130644000D02*
X208003000Y-126404000D01*
X205763000Y-130644000D02*
X208003000Y-130644000D01*
G04 #@! TO.C,J1*
X183575000Y-144459000D02*
X180975000Y-144459000D01*
X183575000Y-144459000D02*
X183575000Y-124019000D01*
X183575000Y-124019000D02*
X178375000Y-124019000D01*
X178375000Y-141859000D02*
X178375000Y-124019000D01*
X180975000Y-141859000D02*
X178375000Y-141859000D01*
X180975000Y-144459000D02*
X180975000Y-141859000D01*
X178375000Y-144459000D02*
X178375000Y-143129000D01*
X179705000Y-144459000D02*
X178375000Y-144459000D01*
G04 #@! TO.C,JP1*
X193361000Y-75505000D02*
X194691000Y-75505000D01*
X193361000Y-76835000D02*
X193361000Y-75505000D01*
X193361000Y-78105000D02*
X196021000Y-78105000D01*
X196021000Y-78105000D02*
X196021000Y-80705000D01*
X193361000Y-78105000D02*
X193361000Y-80705000D01*
X193361000Y-80705000D02*
X196021000Y-80705000D01*
G04 #@! TO.C,JP2*
X214563000Y-80578000D02*
X214563000Y-77918000D01*
X211963000Y-80578000D02*
X214563000Y-80578000D01*
X211963000Y-77918000D02*
X214563000Y-77918000D01*
X211963000Y-80578000D02*
X211963000Y-77918000D01*
X210693000Y-80578000D02*
X209363000Y-80578000D01*
X209363000Y-80578000D02*
X209363000Y-79248000D01*
G04 #@! TO.C,JP3*
X193996000Y-100524000D02*
X195326000Y-100524000D01*
X193996000Y-101854000D02*
X193996000Y-100524000D01*
X193996000Y-103124000D02*
X196656000Y-103124000D01*
X196656000Y-103124000D02*
X196656000Y-105724000D01*
X193996000Y-103124000D02*
X193996000Y-105724000D01*
X193996000Y-105724000D02*
X196656000Y-105724000D01*
G04 #@! TO.C,JP4*
X197291000Y-87570000D02*
X194631000Y-87570000D01*
X197291000Y-90170000D02*
X197291000Y-87570000D01*
X194631000Y-90170000D02*
X194631000Y-87570000D01*
X197291000Y-90170000D02*
X194631000Y-90170000D01*
X197291000Y-91440000D02*
X197291000Y-92770000D01*
X197291000Y-92770000D02*
X195961000Y-92770000D01*
D13*
G04 #@! TO.C,R1*
X218567000Y-57785000D02*
G75*
G03X218313000Y-58039000I0J-254000D01*
G01*
X218567000Y-60071000D02*
G75*
G02X218313000Y-59817000I0J254000D01*
G01*
X224663000Y-59817000D02*
G75*
G02X224409000Y-60071000I-254000J0D01*
G01*
X224663000Y-58039000D02*
G75*
G03X224409000Y-57785000I-254000J0D01*
G01*
X218567000Y-57785000D02*
X218948000Y-57785000D01*
X218567000Y-60071000D02*
X218948000Y-60071000D01*
X224409000Y-57785000D02*
X224028000Y-57785000D01*
X224409000Y-60071000D02*
X224028000Y-60071000D01*
G04 #@! TO.C,R2*
X211709000Y-53340000D02*
G75*
G03X211963000Y-53594000I254000J0D01*
G01*
X213995000Y-53340000D02*
G75*
G02X213741000Y-53594000I-254000J0D01*
G01*
X213741000Y-47244000D02*
G75*
G02X213995000Y-47498000I0J-254000D01*
G01*
X211963000Y-47244000D02*
G75*
G03X211709000Y-47498000I0J-254000D01*
G01*
X211709000Y-53340000D02*
X211709000Y-52959000D01*
X213995000Y-53340000D02*
X213995000Y-52959000D01*
X211709000Y-47498000D02*
X211709000Y-47879000D01*
X213995000Y-47498000D02*
X213995000Y-47879000D01*
G04 #@! TO.C,R3*
X223901000Y-80645000D02*
G75*
G03X224155000Y-80391000I0J254000D01*
G01*
X223901000Y-78359000D02*
G75*
G02X224155000Y-78613000I0J-254000D01*
G01*
X217805000Y-78613000D02*
G75*
G02X218059000Y-78359000I254000J0D01*
G01*
X217805000Y-80391000D02*
G75*
G03X218059000Y-80645000I254000J0D01*
G01*
X223901000Y-80645000D02*
X223520000Y-80645000D01*
X223901000Y-78359000D02*
X223520000Y-78359000D01*
X218059000Y-80645000D02*
X218440000Y-80645000D01*
X218059000Y-78359000D02*
X218440000Y-78359000D01*
G04 #@! TO.C,R4*
X191516000Y-65659000D02*
X191135000Y-65659000D01*
X191516000Y-63373000D02*
X191135000Y-63373000D01*
X185674000Y-65659000D02*
X186055000Y-65659000D01*
X185674000Y-63373000D02*
X186055000Y-63373000D01*
X191770000Y-63627000D02*
G75*
G03X191516000Y-63373000I-254000J0D01*
G01*
X191770000Y-65405000D02*
G75*
G02X191516000Y-65659000I-254000J0D01*
G01*
X185674000Y-65659000D02*
G75*
G02X185420000Y-65405000I0J254000D01*
G01*
X185674000Y-63373000D02*
G75*
G03X185420000Y-63627000I0J-254000D01*
G01*
G04 #@! TO.C,R5*
X205613000Y-66929000D02*
X205232000Y-66929000D01*
X205613000Y-64643000D02*
X205232000Y-64643000D01*
X199771000Y-66929000D02*
X200152000Y-66929000D01*
X199771000Y-64643000D02*
X200152000Y-64643000D01*
X205867000Y-64897000D02*
G75*
G03X205613000Y-64643000I-254000J0D01*
G01*
X205867000Y-66675000D02*
G75*
G02X205613000Y-66929000I-254000J0D01*
G01*
X199771000Y-66929000D02*
G75*
G02X199517000Y-66675000I0J254000D01*
G01*
X199771000Y-64643000D02*
G75*
G03X199517000Y-64897000I0J-254000D01*
G01*
G04 #@! TO.C,R6*
X195199000Y-113919000D02*
G75*
G03X195453000Y-114173000I254000J0D01*
G01*
X197485000Y-113919000D02*
G75*
G02X197231000Y-114173000I-254000J0D01*
G01*
X197231000Y-107823000D02*
G75*
G02X197485000Y-108077000I0J-254000D01*
G01*
X195453000Y-107823000D02*
G75*
G03X195199000Y-108077000I0J-254000D01*
G01*
X195199000Y-113919000D02*
X195199000Y-113538000D01*
X197485000Y-113919000D02*
X197485000Y-113538000D01*
X195199000Y-108077000D02*
X195199000Y-108458000D01*
X197485000Y-108077000D02*
X197485000Y-108458000D01*
G04 #@! TO.C,R7*
X205867000Y-93472000D02*
G75*
G03X206121000Y-93218000I0J254000D01*
G01*
X205867000Y-91186000D02*
G75*
G02X206121000Y-91440000I0J-254000D01*
G01*
X199771000Y-91440000D02*
G75*
G02X200025000Y-91186000I254000J0D01*
G01*
X199771000Y-93218000D02*
G75*
G03X200025000Y-93472000I254000J0D01*
G01*
X205867000Y-93472000D02*
X205486000Y-93472000D01*
X205867000Y-91186000D02*
X205486000Y-91186000D01*
X200025000Y-93472000D02*
X200406000Y-93472000D01*
X200025000Y-91186000D02*
X200406000Y-91186000D01*
G04 #@! TO.C,R8*
X218313000Y-95885000D02*
G75*
G03X218059000Y-96139000I0J-254000D01*
G01*
X218313000Y-98171000D02*
G75*
G02X218059000Y-97917000I0J254000D01*
G01*
X224409000Y-97917000D02*
G75*
G02X224155000Y-98171000I-254000J0D01*
G01*
X224409000Y-96139000D02*
G75*
G03X224155000Y-95885000I-254000J0D01*
G01*
X218313000Y-95885000D02*
X218694000Y-95885000D01*
X218313000Y-98171000D02*
X218694000Y-98171000D01*
X224155000Y-95885000D02*
X223774000Y-95885000D01*
X224155000Y-98171000D02*
X223774000Y-98171000D01*
G04 #@! TO.C,R9*
X218567000Y-113411000D02*
G75*
G03X218313000Y-113665000I0J-254000D01*
G01*
X218567000Y-115697000D02*
G75*
G02X218313000Y-115443000I0J254000D01*
G01*
X224663000Y-115443000D02*
G75*
G02X224409000Y-115697000I-254000J0D01*
G01*
X224663000Y-113665000D02*
G75*
G03X224409000Y-113411000I-254000J0D01*
G01*
X218567000Y-113411000D02*
X218948000Y-113411000D01*
X218567000Y-115697000D02*
X218948000Y-115697000D01*
X224409000Y-113411000D02*
X224028000Y-113411000D01*
X224409000Y-115697000D02*
X224028000Y-115697000D01*
G04 #@! TO.C,R10*
X216281000Y-130429000D02*
X215900000Y-130429000D01*
X216281000Y-128143000D02*
X215900000Y-128143000D01*
X210439000Y-130429000D02*
X210820000Y-130429000D01*
X210439000Y-128143000D02*
X210820000Y-128143000D01*
X216535000Y-128397000D02*
G75*
G03X216281000Y-128143000I-254000J0D01*
G01*
X216535000Y-130175000D02*
G75*
G02X216281000Y-130429000I-254000J0D01*
G01*
X210439000Y-130429000D02*
G75*
G02X210185000Y-130175000I0J254000D01*
G01*
X210439000Y-128143000D02*
G75*
G03X210185000Y-128397000I0J-254000D01*
G01*
G04 #@! TO.C,R11*
X213360000Y-133096000D02*
X213360000Y-133477000D01*
X211074000Y-133096000D02*
X211074000Y-133477000D01*
X213360000Y-138938000D02*
X213360000Y-138557000D01*
X211074000Y-138938000D02*
X211074000Y-138557000D01*
X211328000Y-132842000D02*
G75*
G03X211074000Y-133096000I0J-254000D01*
G01*
X213106000Y-132842000D02*
G75*
G02X213360000Y-133096000I0J-254000D01*
G01*
X213360000Y-138938000D02*
G75*
G02X213106000Y-139192000I-254000J0D01*
G01*
X211074000Y-138938000D02*
G75*
G03X211328000Y-139192000I254000J0D01*
G01*
G04 #@! TO.C,R12*
X218059000Y-75311000D02*
X218440000Y-75311000D01*
X218059000Y-77597000D02*
X218440000Y-77597000D01*
X223901000Y-75311000D02*
X223520000Y-75311000D01*
X223901000Y-77597000D02*
X223520000Y-77597000D01*
X217805000Y-77343000D02*
G75*
G03X218059000Y-77597000I254000J0D01*
G01*
X217805000Y-75565000D02*
G75*
G02X218059000Y-75311000I254000J0D01*
G01*
X223901000Y-75311000D02*
G75*
G02X224155000Y-75565000I0J-254000D01*
G01*
X223901000Y-77597000D02*
G75*
G03X224155000Y-77343000I0J254000D01*
G01*
G04 #@! TO.C,R13*
X224155000Y-95377000D02*
G75*
G03X224409000Y-95123000I0J254000D01*
G01*
X224155000Y-93091000D02*
G75*
G02X224409000Y-93345000I0J-254000D01*
G01*
X218059000Y-93345000D02*
G75*
G02X218313000Y-93091000I254000J0D01*
G01*
X218059000Y-95123000D02*
G75*
G03X218313000Y-95377000I254000J0D01*
G01*
X224155000Y-95377000D02*
X223774000Y-95377000D01*
X224155000Y-93091000D02*
X223774000Y-93091000D01*
X218313000Y-95377000D02*
X218694000Y-95377000D01*
X218313000Y-93091000D02*
X218694000Y-93091000D01*
G04 #@! TO.C,R14*
X218440000Y-110617000D02*
X218821000Y-110617000D01*
X218440000Y-112903000D02*
X218821000Y-112903000D01*
X224282000Y-110617000D02*
X223901000Y-110617000D01*
X224282000Y-112903000D02*
X223901000Y-112903000D01*
X218186000Y-112649000D02*
G75*
G03X218440000Y-112903000I254000J0D01*
G01*
X218186000Y-110871000D02*
G75*
G02X218440000Y-110617000I254000J0D01*
G01*
X224282000Y-110617000D02*
G75*
G02X224536000Y-110871000I0J-254000D01*
G01*
X224282000Y-112903000D02*
G75*
G03X224536000Y-112649000I0J254000D01*
G01*
G04 #@! TO.C,R15*
X219964000Y-128143000D02*
X220345000Y-128143000D01*
X219964000Y-130429000D02*
X220345000Y-130429000D01*
X225806000Y-128143000D02*
X225425000Y-128143000D01*
X225806000Y-130429000D02*
X225425000Y-130429000D01*
X219710000Y-130175000D02*
G75*
G03X219964000Y-130429000I254000J0D01*
G01*
X219710000Y-128397000D02*
G75*
G02X219964000Y-128143000I254000J0D01*
G01*
X225806000Y-128143000D02*
G75*
G02X226060000Y-128397000I0J-254000D01*
G01*
X225806000Y-130429000D02*
G75*
G03X226060000Y-130175000I0J254000D01*
G01*
G04 #@! TO.C,R16*
X225806000Y-133350000D02*
G75*
G03X226060000Y-133096000I0J254000D01*
G01*
X225806000Y-131064000D02*
G75*
G02X226060000Y-131318000I0J-254000D01*
G01*
X219710000Y-131318000D02*
G75*
G02X219964000Y-131064000I254000J0D01*
G01*
X219710000Y-133096000D02*
G75*
G03X219964000Y-133350000I254000J0D01*
G01*
X225806000Y-133350000D02*
X225425000Y-133350000D01*
X225806000Y-131064000D02*
X225425000Y-131064000D01*
X219964000Y-133350000D02*
X220345000Y-133350000D01*
X219964000Y-131064000D02*
X220345000Y-131064000D01*
D12*
G04 #@! TO.C,TP1*
X184855000Y-124276000D02*
X187255000Y-124276000D01*
X187255000Y-124276000D02*
X187255000Y-126676000D01*
X187255000Y-126676000D02*
X184855000Y-126676000D01*
X184855000Y-126676000D02*
X184855000Y-124276000D01*
G04 #@! TO.C,TP2*
X184855000Y-129610000D02*
X187255000Y-129610000D01*
X187255000Y-129610000D02*
X187255000Y-132010000D01*
X187255000Y-132010000D02*
X184855000Y-132010000D01*
X184855000Y-132010000D02*
X184855000Y-129610000D01*
G04 #@! TO.C,TP3*
X184855000Y-137344000D02*
X184855000Y-134944000D01*
X187255000Y-137344000D02*
X184855000Y-137344000D01*
X187255000Y-134944000D02*
X187255000Y-137344000D01*
X184855000Y-134944000D02*
X187255000Y-134944000D01*
G04 #@! TO.C,U1*
X201692000Y-63687000D02*
G75*
G02X203692000Y-63687000I1000000J0D01*
G01*
X203692000Y-63687000D02*
X205342000Y-63687000D01*
X205342000Y-63687000D02*
X205342000Y-45787000D01*
X205342000Y-45787000D02*
X200042000Y-45787000D01*
X200042000Y-45787000D02*
X200042000Y-63687000D01*
X200042000Y-63687000D02*
X201692000Y-63687000D01*
G04 #@! TO.C,U2*
X203819000Y-67504000D02*
G75*
G02X201819000Y-67504000I-1000000J0D01*
G01*
X201819000Y-67504000D02*
X200169000Y-67504000D01*
X200169000Y-67504000D02*
X200169000Y-85404000D01*
X200169000Y-85404000D02*
X205469000Y-85404000D01*
X205469000Y-85404000D02*
X205469000Y-67504000D01*
X205469000Y-67504000D02*
X203819000Y-67504000D01*
G04 #@! TO.C,U3*
X205469000Y-94301000D02*
X203819000Y-94301000D01*
X205469000Y-112201000D02*
X205469000Y-94301000D01*
X200169000Y-112201000D02*
X205469000Y-112201000D01*
X200169000Y-94301000D02*
X200169000Y-112201000D01*
X201819000Y-94301000D02*
X200169000Y-94301000D01*
X203819000Y-94301000D02*
G75*
G02X201819000Y-94301000I-1000000J0D01*
G01*
G04 #@! TO.C,TP4*
X184855000Y-140405000D02*
X187255000Y-140405000D01*
X187255000Y-140405000D02*
X187255000Y-142805000D01*
X187255000Y-142805000D02*
X184855000Y-142805000D01*
X184855000Y-142805000D02*
X184855000Y-140405000D01*
G04 #@! TO.C,TP5*
X208858000Y-47695000D02*
X211258000Y-47695000D01*
X211258000Y-47695000D02*
X211258000Y-50095000D01*
X211258000Y-50095000D02*
X208858000Y-50095000D01*
X208858000Y-50095000D02*
X208858000Y-47695000D01*
G04 #@! TO.C,C1*
D14*
X189698333Y-140692142D02*
X189650714Y-140739761D01*
X189507857Y-140787380D01*
X189412619Y-140787380D01*
X189269761Y-140739761D01*
X189174523Y-140644523D01*
X189126904Y-140549285D01*
X189079285Y-140358809D01*
X189079285Y-140215952D01*
X189126904Y-140025476D01*
X189174523Y-139930238D01*
X189269761Y-139835000D01*
X189412619Y-139787380D01*
X189507857Y-139787380D01*
X189650714Y-139835000D01*
X189698333Y-139882619D01*
X190650714Y-140787380D02*
X190079285Y-140787380D01*
X190365000Y-140787380D02*
X190365000Y-139787380D01*
X190269761Y-139930238D01*
X190174523Y-140025476D01*
X190079285Y-140073095D01*
G04 #@! TO.C,C2*
X192907141Y-50508667D02*
X192954760Y-50556286D01*
X193002379Y-50699143D01*
X193002379Y-50794381D01*
X192954760Y-50937239D01*
X192859522Y-51032477D01*
X192764284Y-51080096D01*
X192573808Y-51127715D01*
X192430951Y-51127715D01*
X192240475Y-51080096D01*
X192145237Y-51032477D01*
X192049999Y-50937239D01*
X192002379Y-50794381D01*
X192002379Y-50699143D01*
X192049999Y-50556286D01*
X192097618Y-50508667D01*
X192097618Y-50127715D02*
X192049999Y-50080096D01*
X192002379Y-49984858D01*
X192002379Y-49746762D01*
X192049999Y-49651524D01*
X192097618Y-49603905D01*
X192192856Y-49556286D01*
X192288094Y-49556286D01*
X192430951Y-49603905D01*
X193002379Y-50175334D01*
X193002379Y-49556286D01*
G04 #@! TO.C,C3*
X213193333Y-58015142D02*
X213145714Y-58062761D01*
X213002857Y-58110380D01*
X212907619Y-58110380D01*
X212764761Y-58062761D01*
X212669523Y-57967523D01*
X212621904Y-57872285D01*
X212574285Y-57681809D01*
X212574285Y-57538952D01*
X212621904Y-57348476D01*
X212669523Y-57253238D01*
X212764761Y-57158000D01*
X212907619Y-57110380D01*
X213002857Y-57110380D01*
X213145714Y-57158000D01*
X213193333Y-57205619D01*
X213526666Y-57110380D02*
X214145714Y-57110380D01*
X213812380Y-57491333D01*
X213955238Y-57491333D01*
X214050476Y-57538952D01*
X214098095Y-57586571D01*
X214145714Y-57681809D01*
X214145714Y-57919904D01*
X214098095Y-58015142D01*
X214050476Y-58062761D01*
X213955238Y-58110380D01*
X213669523Y-58110380D01*
X213574285Y-58062761D01*
X213526666Y-58015142D01*
G04 #@! TO.C,C4*
X186598332Y-84776141D02*
X186550713Y-84823760D01*
X186407856Y-84871379D01*
X186312618Y-84871379D01*
X186169760Y-84823760D01*
X186074522Y-84728522D01*
X186026903Y-84633284D01*
X185979284Y-84442808D01*
X185979284Y-84299951D01*
X186026903Y-84109475D01*
X186074522Y-84014237D01*
X186169760Y-83918999D01*
X186312618Y-83871379D01*
X186407856Y-83871379D01*
X186550713Y-83918999D01*
X186598332Y-83966618D01*
X187455475Y-84204713D02*
X187455475Y-84871379D01*
X187217379Y-83823760D02*
X186979284Y-84538046D01*
X187598332Y-84538046D01*
G04 #@! TO.C,C5*
X185504332Y-105894141D02*
X185456713Y-105941760D01*
X185313856Y-105989379D01*
X185218618Y-105989379D01*
X185075760Y-105941760D01*
X184980522Y-105846522D01*
X184932903Y-105751284D01*
X184885284Y-105560808D01*
X184885284Y-105417951D01*
X184932903Y-105227475D01*
X184980522Y-105132237D01*
X185075760Y-105036999D01*
X185218618Y-104989379D01*
X185313856Y-104989379D01*
X185456713Y-105036999D01*
X185504332Y-105084618D01*
X186409094Y-104989379D02*
X185932903Y-104989379D01*
X185885284Y-105465570D01*
X185932903Y-105417951D01*
X186028141Y-105370332D01*
X186266237Y-105370332D01*
X186361475Y-105417951D01*
X186409094Y-105465570D01*
X186456713Y-105560808D01*
X186456713Y-105798903D01*
X186409094Y-105894141D01*
X186361475Y-105941760D01*
X186266237Y-105989379D01*
X186028141Y-105989379D01*
X185932903Y-105941760D01*
X185885284Y-105894141D01*
G04 #@! TO.C,C6*
X179538333Y-61063142D02*
X179490714Y-61110761D01*
X179347857Y-61158380D01*
X179252619Y-61158380D01*
X179109761Y-61110761D01*
X179014523Y-61015523D01*
X178966904Y-60920285D01*
X178919285Y-60729809D01*
X178919285Y-60586952D01*
X178966904Y-60396476D01*
X179014523Y-60301238D01*
X179109761Y-60206000D01*
X179252619Y-60158380D01*
X179347857Y-60158380D01*
X179490714Y-60206000D01*
X179538333Y-60253619D01*
X180395476Y-60158380D02*
X180205000Y-60158380D01*
X180109761Y-60206000D01*
X180062142Y-60253619D01*
X179966904Y-60396476D01*
X179919285Y-60586952D01*
X179919285Y-60967904D01*
X179966904Y-61063142D01*
X180014523Y-61110761D01*
X180109761Y-61158380D01*
X180300238Y-61158380D01*
X180395476Y-61110761D01*
X180443095Y-61063142D01*
X180490714Y-60967904D01*
X180490714Y-60729809D01*
X180443095Y-60634571D01*
X180395476Y-60586952D01*
X180300238Y-60539333D01*
X180109761Y-60539333D01*
X180014523Y-60586952D01*
X179966904Y-60634571D01*
X179919285Y-60729809D01*
G04 #@! TO.C,C7*
X179538333Y-82145142D02*
X179490714Y-82192761D01*
X179347857Y-82240380D01*
X179252619Y-82240380D01*
X179109761Y-82192761D01*
X179014523Y-82097523D01*
X178966904Y-82002285D01*
X178919285Y-81811809D01*
X178919285Y-81668952D01*
X178966904Y-81478476D01*
X179014523Y-81383238D01*
X179109761Y-81288000D01*
X179252619Y-81240380D01*
X179347857Y-81240380D01*
X179490714Y-81288000D01*
X179538333Y-81335619D01*
X179871666Y-81240380D02*
X180538333Y-81240380D01*
X180109761Y-82240380D01*
G04 #@! TO.C,C8*
X179538333Y-103354142D02*
X179490714Y-103401761D01*
X179347857Y-103449380D01*
X179252619Y-103449380D01*
X179109761Y-103401761D01*
X179014523Y-103306523D01*
X178966904Y-103211285D01*
X178919285Y-103020809D01*
X178919285Y-102877952D01*
X178966904Y-102687476D01*
X179014523Y-102592238D01*
X179109761Y-102497000D01*
X179252619Y-102449380D01*
X179347857Y-102449380D01*
X179490714Y-102497000D01*
X179538333Y-102544619D01*
X180109761Y-102877952D02*
X180014523Y-102830333D01*
X179966904Y-102782714D01*
X179919285Y-102687476D01*
X179919285Y-102639857D01*
X179966904Y-102544619D01*
X180014523Y-102497000D01*
X180109761Y-102449380D01*
X180300238Y-102449380D01*
X180395476Y-102497000D01*
X180443095Y-102544619D01*
X180490714Y-102639857D01*
X180490714Y-102687476D01*
X180443095Y-102782714D01*
X180395476Y-102830333D01*
X180300238Y-102877952D01*
X180109761Y-102877952D01*
X180014523Y-102925571D01*
X179966904Y-102973190D01*
X179919285Y-103068428D01*
X179919285Y-103258904D01*
X179966904Y-103354142D01*
X180014523Y-103401761D01*
X180109761Y-103449380D01*
X180300238Y-103449380D01*
X180395476Y-103401761D01*
X180443095Y-103354142D01*
X180490714Y-103258904D01*
X180490714Y-103068428D01*
X180443095Y-102973190D01*
X180395476Y-102925571D01*
X180300238Y-102877952D01*
G04 #@! TO.C,C9*
X189079142Y-126658666D02*
X189126761Y-126706285D01*
X189174380Y-126849142D01*
X189174380Y-126944380D01*
X189126761Y-127087238D01*
X189031523Y-127182476D01*
X188936285Y-127230095D01*
X188745809Y-127277714D01*
X188602952Y-127277714D01*
X188412476Y-127230095D01*
X188317238Y-127182476D01*
X188222000Y-127087238D01*
X188174380Y-126944380D01*
X188174380Y-126849142D01*
X188222000Y-126706285D01*
X188269619Y-126658666D01*
X189174380Y-126182476D02*
X189174380Y-125992000D01*
X189126761Y-125896761D01*
X189079142Y-125849142D01*
X188936285Y-125753904D01*
X188745809Y-125706285D01*
X188364857Y-125706285D01*
X188269619Y-125753904D01*
X188222000Y-125801523D01*
X188174380Y-125896761D01*
X188174380Y-126087238D01*
X188222000Y-126182476D01*
X188269619Y-126230095D01*
X188364857Y-126277714D01*
X188602952Y-126277714D01*
X188698190Y-126230095D01*
X188745809Y-126182476D01*
X188793428Y-126087238D01*
X188793428Y-125896761D01*
X188745809Y-125801523D01*
X188698190Y-125753904D01*
X188602952Y-125706285D01*
G04 #@! TO.C,C10*
X195048142Y-71254857D02*
X195095761Y-71302476D01*
X195143380Y-71445333D01*
X195143380Y-71540571D01*
X195095761Y-71683428D01*
X195000523Y-71778666D01*
X194905285Y-71826285D01*
X194714809Y-71873904D01*
X194571952Y-71873904D01*
X194381476Y-71826285D01*
X194286238Y-71778666D01*
X194191000Y-71683428D01*
X194143380Y-71540571D01*
X194143380Y-71445333D01*
X194191000Y-71302476D01*
X194238619Y-71254857D01*
X195143380Y-70302476D02*
X195143380Y-70873904D01*
X195143380Y-70588190D02*
X194143380Y-70588190D01*
X194286238Y-70683428D01*
X194381476Y-70778666D01*
X194429095Y-70873904D01*
X194143380Y-69683428D02*
X194143380Y-69588190D01*
X194191000Y-69492952D01*
X194238619Y-69445333D01*
X194333857Y-69397714D01*
X194524333Y-69350095D01*
X194762428Y-69350095D01*
X194952904Y-69397714D01*
X195048142Y-69445333D01*
X195095761Y-69492952D01*
X195143380Y-69588190D01*
X195143380Y-69683428D01*
X195095761Y-69778666D01*
X195048142Y-69826285D01*
X194952904Y-69873904D01*
X194762428Y-69921523D01*
X194524333Y-69921523D01*
X194333857Y-69873904D01*
X194238619Y-69826285D01*
X194191000Y-69778666D01*
X194143380Y-69683428D01*
G04 #@! TO.C,C11*
X211177142Y-67825857D02*
X211224761Y-67873476D01*
X211272380Y-68016333D01*
X211272380Y-68111571D01*
X211224761Y-68254428D01*
X211129523Y-68349666D01*
X211034285Y-68397285D01*
X210843809Y-68444904D01*
X210700952Y-68444904D01*
X210510476Y-68397285D01*
X210415238Y-68349666D01*
X210320000Y-68254428D01*
X210272380Y-68111571D01*
X210272380Y-68016333D01*
X210320000Y-67873476D01*
X210367619Y-67825857D01*
X211272380Y-66873476D02*
X211272380Y-67444904D01*
X211272380Y-67159190D02*
X210272380Y-67159190D01*
X210415238Y-67254428D01*
X210510476Y-67349666D01*
X210558095Y-67444904D01*
X211272380Y-65921095D02*
X211272380Y-66492523D01*
X211272380Y-66206809D02*
X210272380Y-66206809D01*
X210415238Y-66302047D01*
X210510476Y-66397285D01*
X210558095Y-66492523D01*
G04 #@! TO.C,C12*
X192254142Y-111132857D02*
X192301761Y-111180476D01*
X192349380Y-111323333D01*
X192349380Y-111418571D01*
X192301761Y-111561428D01*
X192206523Y-111656666D01*
X192111285Y-111704285D01*
X191920809Y-111751904D01*
X191777952Y-111751904D01*
X191587476Y-111704285D01*
X191492238Y-111656666D01*
X191397000Y-111561428D01*
X191349380Y-111418571D01*
X191349380Y-111323333D01*
X191397000Y-111180476D01*
X191444619Y-111132857D01*
X192349380Y-110180476D02*
X192349380Y-110751904D01*
X192349380Y-110466190D02*
X191349380Y-110466190D01*
X191492238Y-110561428D01*
X191587476Y-110656666D01*
X191635095Y-110751904D01*
X191444619Y-109799523D02*
X191397000Y-109751904D01*
X191349380Y-109656666D01*
X191349380Y-109418571D01*
X191397000Y-109323333D01*
X191444619Y-109275714D01*
X191539857Y-109228095D01*
X191635095Y-109228095D01*
X191777952Y-109275714D01*
X192349380Y-109847142D01*
X192349380Y-109228095D01*
G04 #@! TO.C,C13*
X203192142Y-90654142D02*
X203144523Y-90701761D01*
X203001666Y-90749380D01*
X202906428Y-90749380D01*
X202763571Y-90701761D01*
X202668333Y-90606523D01*
X202620714Y-90511285D01*
X202573095Y-90320809D01*
X202573095Y-90177952D01*
X202620714Y-89987476D01*
X202668333Y-89892238D01*
X202763571Y-89797000D01*
X202906428Y-89749380D01*
X203001666Y-89749380D01*
X203144523Y-89797000D01*
X203192142Y-89844619D01*
X204144523Y-90749380D02*
X203573095Y-90749380D01*
X203858809Y-90749380D02*
X203858809Y-89749380D01*
X203763571Y-89892238D01*
X203668333Y-89987476D01*
X203573095Y-90035095D01*
X204477857Y-89749380D02*
X205096904Y-89749380D01*
X204763571Y-90130333D01*
X204906428Y-90130333D01*
X205001666Y-90177952D01*
X205049285Y-90225571D01*
X205096904Y-90320809D01*
X205096904Y-90558904D01*
X205049285Y-90654142D01*
X205001666Y-90701761D01*
X204906428Y-90749380D01*
X204620714Y-90749380D01*
X204525476Y-90701761D01*
X204477857Y-90654142D01*
G04 #@! TO.C,D1*
X191079380Y-135104095D02*
X190079380Y-135104095D01*
X190079380Y-134866000D01*
X190127000Y-134723142D01*
X190222238Y-134627904D01*
X190317476Y-134580285D01*
X190507952Y-134532666D01*
X190650809Y-134532666D01*
X190841285Y-134580285D01*
X190936523Y-134627904D01*
X191031761Y-134723142D01*
X191079380Y-134866000D01*
X191079380Y-135104095D01*
X191079380Y-133580285D02*
X191079380Y-134151714D01*
X191079380Y-133866000D02*
X190079380Y-133866000D01*
X190222238Y-133961238D01*
X190317476Y-134056476D01*
X190365095Y-134151714D01*
X191206380Y-132087904D02*
X190206380Y-132087904D01*
X191206380Y-131516476D02*
X190634952Y-131945047D01*
X190206380Y-131516476D02*
X190777809Y-132087904D01*
G04 #@! TO.C,D2*
X221003904Y-62047380D02*
X221003904Y-61047380D01*
X221242000Y-61047380D01*
X221384857Y-61095000D01*
X221480095Y-61190238D01*
X221527714Y-61285476D01*
X221575333Y-61475952D01*
X221575333Y-61618809D01*
X221527714Y-61809285D01*
X221480095Y-61904523D01*
X221384857Y-61999761D01*
X221242000Y-62047380D01*
X221003904Y-62047380D01*
X221956285Y-61142619D02*
X222003904Y-61095000D01*
X222099142Y-61047380D01*
X222337238Y-61047380D01*
X222432476Y-61095000D01*
X222480095Y-61142619D01*
X222527714Y-61237857D01*
X222527714Y-61333095D01*
X222480095Y-61475952D01*
X221908666Y-62047380D01*
X222527714Y-62047380D01*
X218813095Y-61412380D02*
X218813095Y-60412380D01*
X219384523Y-61412380D02*
X218955952Y-60840952D01*
X219384523Y-60412380D02*
X218813095Y-60983809D01*
G04 #@! TO.C,D3*
X187348904Y-61793380D02*
X187348904Y-60793380D01*
X187587000Y-60793380D01*
X187729857Y-60841000D01*
X187825095Y-60936238D01*
X187872714Y-61031476D01*
X187920333Y-61221952D01*
X187920333Y-61364809D01*
X187872714Y-61555285D01*
X187825095Y-61650523D01*
X187729857Y-61745761D01*
X187587000Y-61793380D01*
X187348904Y-61793380D01*
X188253666Y-60793380D02*
X188872714Y-60793380D01*
X188539380Y-61174333D01*
X188682238Y-61174333D01*
X188777476Y-61221952D01*
X188825095Y-61269571D01*
X188872714Y-61364809D01*
X188872714Y-61602904D01*
X188825095Y-61698142D01*
X188777476Y-61745761D01*
X188682238Y-61793380D01*
X188396523Y-61793380D01*
X188301285Y-61745761D01*
X188253666Y-61698142D01*
X189730095Y-61920380D02*
X189730095Y-60920380D01*
X190301523Y-61920380D02*
X189872952Y-61348952D01*
X190301523Y-60920380D02*
X189730095Y-61491809D01*
G04 #@! TO.C,D4*
X187348904Y-83002380D02*
X187348904Y-82002380D01*
X187587000Y-82002380D01*
X187729857Y-82050000D01*
X187825095Y-82145238D01*
X187872714Y-82240476D01*
X187920333Y-82430952D01*
X187920333Y-82573809D01*
X187872714Y-82764285D01*
X187825095Y-82859523D01*
X187729857Y-82954761D01*
X187587000Y-83002380D01*
X187348904Y-83002380D01*
X188777476Y-82335714D02*
X188777476Y-83002380D01*
X188539380Y-81954761D02*
X188301285Y-82669047D01*
X188920333Y-82669047D01*
X189730095Y-83002380D02*
X189730095Y-82002380D01*
X190301523Y-83002380D02*
X189872952Y-82430952D01*
X190301523Y-82002380D02*
X189730095Y-82573809D01*
G04 #@! TO.C,D5*
X187348904Y-104084380D02*
X187348904Y-103084380D01*
X187587000Y-103084380D01*
X187729857Y-103132000D01*
X187825095Y-103227238D01*
X187872714Y-103322476D01*
X187920333Y-103512952D01*
X187920333Y-103655809D01*
X187872714Y-103846285D01*
X187825095Y-103941523D01*
X187729857Y-104036761D01*
X187587000Y-104084380D01*
X187348904Y-104084380D01*
X188825095Y-103084380D02*
X188348904Y-103084380D01*
X188301285Y-103560571D01*
X188348904Y-103512952D01*
X188444142Y-103465333D01*
X188682238Y-103465333D01*
X188777476Y-103512952D01*
X188825095Y-103560571D01*
X188872714Y-103655809D01*
X188872714Y-103893904D01*
X188825095Y-103989142D01*
X188777476Y-104036761D01*
X188682238Y-104084380D01*
X188444142Y-104084380D01*
X188348904Y-104036761D01*
X188301285Y-103989142D01*
X189984095Y-103957380D02*
X189984095Y-102957380D01*
X190555523Y-103957380D02*
X190126952Y-103385952D01*
X190555523Y-102957380D02*
X189984095Y-103528809D01*
G04 #@! TO.C,D6*
X195857904Y-119197380D02*
X195857904Y-118197380D01*
X196096000Y-118197380D01*
X196238857Y-118245000D01*
X196334095Y-118340238D01*
X196381714Y-118435476D01*
X196429333Y-118625952D01*
X196429333Y-118768809D01*
X196381714Y-118959285D01*
X196334095Y-119054523D01*
X196238857Y-119149761D01*
X196096000Y-119197380D01*
X195857904Y-119197380D01*
X197286476Y-118197380D02*
X197096000Y-118197380D01*
X197000761Y-118245000D01*
X196953142Y-118292619D01*
X196857904Y-118435476D01*
X196810285Y-118625952D01*
X196810285Y-119006904D01*
X196857904Y-119102142D01*
X196905523Y-119149761D01*
X197000761Y-119197380D01*
X197191238Y-119197380D01*
X197286476Y-119149761D01*
X197334095Y-119102142D01*
X197381714Y-119006904D01*
X197381714Y-118768809D01*
X197334095Y-118673571D01*
X197286476Y-118625952D01*
X197191238Y-118578333D01*
X197000761Y-118578333D01*
X196905523Y-118625952D01*
X196857904Y-118673571D01*
X196810285Y-118768809D01*
X198366095Y-119197380D02*
X198366095Y-118197380D01*
X198937523Y-119197380D02*
X198508952Y-118625952D01*
X198937523Y-118197380D02*
X198366095Y-118768809D01*
G04 #@! TO.C,D12*
X195997379Y-129381286D02*
X194997379Y-129381286D01*
X194997379Y-129143191D01*
X195044999Y-129000334D01*
X195140237Y-128905096D01*
X195235475Y-128857477D01*
X195425951Y-128809858D01*
X195568808Y-128809858D01*
X195759284Y-128857477D01*
X195854522Y-128905096D01*
X195949760Y-129000334D01*
X195997379Y-129143191D01*
X195997379Y-129381286D01*
X195997379Y-127857477D02*
X195997379Y-128428905D01*
X195997379Y-128143191D02*
X194997379Y-128143191D01*
X195140237Y-128238429D01*
X195235475Y-128333667D01*
X195283094Y-128428905D01*
X195092618Y-127476524D02*
X195044999Y-127428905D01*
X194997379Y-127333667D01*
X194997379Y-127095572D01*
X195044999Y-127000334D01*
X195092618Y-126952715D01*
X195187856Y-126905096D01*
X195283094Y-126905096D01*
X195425951Y-126952715D01*
X195997379Y-127524143D01*
X195997379Y-126905096D01*
X196759379Y-130714905D02*
X195759379Y-130714905D01*
X196759379Y-130143477D02*
X196187951Y-130572048D01*
X195759379Y-130143477D02*
X196330808Y-130714905D01*
G04 #@! TO.C,D13*
X199334380Y-129484285D02*
X198334380Y-129484285D01*
X198334380Y-129246190D01*
X198382000Y-129103333D01*
X198477238Y-129008095D01*
X198572476Y-128960476D01*
X198762952Y-128912857D01*
X198905809Y-128912857D01*
X199096285Y-128960476D01*
X199191523Y-129008095D01*
X199286761Y-129103333D01*
X199334380Y-129246190D01*
X199334380Y-129484285D01*
X199334380Y-127960476D02*
X199334380Y-128531904D01*
X199334380Y-128246190D02*
X198334380Y-128246190D01*
X198477238Y-128341428D01*
X198572476Y-128436666D01*
X198620095Y-128531904D01*
X198334380Y-127627142D02*
X198334380Y-127008095D01*
X198715333Y-127341428D01*
X198715333Y-127198571D01*
X198762952Y-127103333D01*
X198810571Y-127055714D01*
X198905809Y-127008095D01*
X199143904Y-127008095D01*
X199239142Y-127055714D01*
X199286761Y-127103333D01*
X199334380Y-127198571D01*
X199334380Y-127484285D01*
X199286761Y-127579523D01*
X199239142Y-127627142D01*
X199334380Y-130563904D02*
X198334380Y-130563904D01*
X199334380Y-129992476D02*
X198762952Y-130421047D01*
X198334380Y-129992476D02*
X198905809Y-130563904D01*
G04 #@! TO.C,D14*
X201112380Y-129484285D02*
X200112380Y-129484285D01*
X200112380Y-129246190D01*
X200160000Y-129103333D01*
X200255238Y-129008095D01*
X200350476Y-128960476D01*
X200540952Y-128912857D01*
X200683809Y-128912857D01*
X200874285Y-128960476D01*
X200969523Y-129008095D01*
X201064761Y-129103333D01*
X201112380Y-129246190D01*
X201112380Y-129484285D01*
X201112380Y-127960476D02*
X201112380Y-128531904D01*
X201112380Y-128246190D02*
X200112380Y-128246190D01*
X200255238Y-128341428D01*
X200350476Y-128436666D01*
X200398095Y-128531904D01*
X200445714Y-127103333D02*
X201112380Y-127103333D01*
X200064761Y-127341428D02*
X200779047Y-127579523D01*
X200779047Y-126960476D01*
X202128380Y-130690904D02*
X201128380Y-130690904D01*
X202128380Y-130119476D02*
X201556952Y-130548047D01*
X201128380Y-130119476D02*
X201699809Y-130690904D01*
G04 #@! TO.C,D15*
X204287380Y-129484285D02*
X203287380Y-129484285D01*
X203287380Y-129246190D01*
X203335000Y-129103333D01*
X203430238Y-129008095D01*
X203525476Y-128960476D01*
X203715952Y-128912857D01*
X203858809Y-128912857D01*
X204049285Y-128960476D01*
X204144523Y-129008095D01*
X204239761Y-129103333D01*
X204287380Y-129246190D01*
X204287380Y-129484285D01*
X204287380Y-127960476D02*
X204287380Y-128531904D01*
X204287380Y-128246190D02*
X203287380Y-128246190D01*
X203430238Y-128341428D01*
X203525476Y-128436666D01*
X203573095Y-128531904D01*
X203287380Y-127055714D02*
X203287380Y-127531904D01*
X203763571Y-127579523D01*
X203715952Y-127531904D01*
X203668333Y-127436666D01*
X203668333Y-127198571D01*
X203715952Y-127103333D01*
X203763571Y-127055714D01*
X203858809Y-127008095D01*
X204096904Y-127008095D01*
X204192142Y-127055714D01*
X204239761Y-127103333D01*
X204287380Y-127198571D01*
X204287380Y-127436666D01*
X204239761Y-127531904D01*
X204192142Y-127579523D01*
X204668380Y-130690904D02*
X203668380Y-130690904D01*
X204668380Y-130119476D02*
X204096952Y-130548047D01*
X203668380Y-130119476D02*
X204239809Y-130690904D01*
G04 #@! TO.C,D16*
X207320379Y-129381286D02*
X206320379Y-129381286D01*
X206320379Y-129143191D01*
X206367999Y-129000334D01*
X206463237Y-128905096D01*
X206558475Y-128857477D01*
X206748951Y-128809858D01*
X206891808Y-128809858D01*
X207082284Y-128857477D01*
X207177522Y-128905096D01*
X207272760Y-129000334D01*
X207320379Y-129143191D01*
X207320379Y-129381286D01*
X207320379Y-127857477D02*
X207320379Y-128428905D01*
X207320379Y-128143191D02*
X206320379Y-128143191D01*
X206463237Y-128238429D01*
X206558475Y-128333667D01*
X206606094Y-128428905D01*
X206320379Y-127000334D02*
X206320379Y-127190810D01*
X206367999Y-127286048D01*
X206415618Y-127333667D01*
X206558475Y-127428905D01*
X206748951Y-127476524D01*
X207129903Y-127476524D01*
X207225141Y-127428905D01*
X207272760Y-127381286D01*
X207320379Y-127286048D01*
X207320379Y-127095572D01*
X207272760Y-127000334D01*
X207225141Y-126952715D01*
X207129903Y-126905096D01*
X206891808Y-126905096D01*
X206796570Y-126952715D01*
X206748951Y-127000334D01*
X206701332Y-127095572D01*
X206701332Y-127286048D01*
X206748951Y-127381286D01*
X206796570Y-127428905D01*
X206891808Y-127476524D01*
X207447379Y-130587905D02*
X206447379Y-130587905D01*
X207447379Y-130016477D02*
X206875951Y-130445048D01*
X206447379Y-130016477D02*
X207018808Y-130587905D01*
G04 #@! TO.C,J1*
X183308666Y-143724380D02*
X183308666Y-144438666D01*
X183261047Y-144581523D01*
X183165809Y-144676761D01*
X183022952Y-144724380D01*
X182927714Y-144724380D01*
X184308666Y-144724380D02*
X183737238Y-144724380D01*
X184022952Y-144724380D02*
X184022952Y-143724380D01*
X183927714Y-143867238D01*
X183832476Y-143962476D01*
X183737238Y-144010095D01*
G04 #@! TO.C,JP1*
X193857666Y-73957380D02*
X193857666Y-74671666D01*
X193810047Y-74814523D01*
X193714809Y-74909761D01*
X193571952Y-74957380D01*
X193476714Y-74957380D01*
X194333857Y-74957380D02*
X194333857Y-73957380D01*
X194714809Y-73957380D01*
X194810047Y-74005000D01*
X194857666Y-74052619D01*
X194905285Y-74147857D01*
X194905285Y-74290714D01*
X194857666Y-74385952D01*
X194810047Y-74433571D01*
X194714809Y-74481190D01*
X194333857Y-74481190D01*
X195857666Y-74957380D02*
X195286238Y-74957380D01*
X195571952Y-74957380D02*
X195571952Y-73957380D01*
X195476714Y-74100238D01*
X195381476Y-74195476D01*
X195286238Y-74243095D01*
G04 #@! TO.C,JP2*
X207815380Y-80081333D02*
X208529666Y-80081333D01*
X208672523Y-80128952D01*
X208767761Y-80224190D01*
X208815380Y-80367047D01*
X208815380Y-80462285D01*
X208815380Y-79605142D02*
X207815380Y-79605142D01*
X207815380Y-79224190D01*
X207863000Y-79128952D01*
X207910619Y-79081333D01*
X208005857Y-79033714D01*
X208148714Y-79033714D01*
X208243952Y-79081333D01*
X208291571Y-79128952D01*
X208339190Y-79224190D01*
X208339190Y-79605142D01*
X207910619Y-78652761D02*
X207863000Y-78605142D01*
X207815380Y-78509904D01*
X207815380Y-78271809D01*
X207863000Y-78176571D01*
X207910619Y-78128952D01*
X208005857Y-78081333D01*
X208101095Y-78081333D01*
X208243952Y-78128952D01*
X208815380Y-78700380D01*
X208815380Y-78081333D01*
G04 #@! TO.C,JP3*
X194492666Y-98976380D02*
X194492666Y-99690666D01*
X194445047Y-99833523D01*
X194349809Y-99928761D01*
X194206952Y-99976380D01*
X194111714Y-99976380D01*
X194968857Y-99976380D02*
X194968857Y-98976380D01*
X195349809Y-98976380D01*
X195445047Y-99024000D01*
X195492666Y-99071619D01*
X195540285Y-99166857D01*
X195540285Y-99309714D01*
X195492666Y-99404952D01*
X195445047Y-99452571D01*
X195349809Y-99500190D01*
X194968857Y-99500190D01*
X195873619Y-98976380D02*
X196492666Y-98976380D01*
X196159333Y-99357333D01*
X196302190Y-99357333D01*
X196397428Y-99404952D01*
X196445047Y-99452571D01*
X196492666Y-99547809D01*
X196492666Y-99785904D01*
X196445047Y-99881142D01*
X196397428Y-99928761D01*
X196302190Y-99976380D01*
X196016476Y-99976380D01*
X195921238Y-99928761D01*
X195873619Y-99881142D01*
G04 #@! TO.C,JP4*
X195127666Y-93222380D02*
X195127666Y-93936666D01*
X195080047Y-94079523D01*
X194984809Y-94174761D01*
X194841952Y-94222380D01*
X194746714Y-94222380D01*
X195603857Y-94222380D02*
X195603857Y-93222380D01*
X195984809Y-93222380D01*
X196080047Y-93270000D01*
X196127666Y-93317619D01*
X196175285Y-93412857D01*
X196175285Y-93555714D01*
X196127666Y-93650952D01*
X196080047Y-93698571D01*
X195984809Y-93746190D01*
X195603857Y-93746190D01*
X197032428Y-93555714D02*
X197032428Y-94222380D01*
X196794333Y-93174761D02*
X196556238Y-93889047D01*
X197175285Y-93889047D01*
G04 #@! TO.C,R1*
D15*
X219808697Y-58586218D02*
X219527180Y-58184051D01*
X219326097Y-58586218D02*
X219326097Y-57741668D01*
X219647830Y-57741668D01*
X219728264Y-57781885D01*
X219768480Y-57822101D01*
X219808697Y-57902535D01*
X219808697Y-58023185D01*
X219768480Y-58103618D01*
X219728264Y-58143835D01*
X219647830Y-58184051D01*
X219326097Y-58184051D01*
X220613030Y-58586218D02*
X220130430Y-58586218D01*
X220371730Y-58586218D02*
X220371730Y-57741668D01*
X220291297Y-57862318D01*
X220210864Y-57942751D01*
X220130430Y-57982968D01*
G04 #@! TO.C,R2*
X212510218Y-52098302D02*
X212108051Y-52379819D01*
X212510218Y-52580902D02*
X211665668Y-52580902D01*
X211665668Y-52259169D01*
X211705885Y-52178736D01*
X211746101Y-52138519D01*
X211826535Y-52098302D01*
X211947185Y-52098302D01*
X212027618Y-52138519D01*
X212067835Y-52178736D01*
X212108051Y-52259169D01*
X212108051Y-52580902D01*
X211746101Y-51776569D02*
X211705885Y-51736352D01*
X211665668Y-51655919D01*
X211665668Y-51454836D01*
X211705885Y-51374402D01*
X211746101Y-51334186D01*
X211826535Y-51293969D01*
X211906968Y-51293969D01*
X212027618Y-51334186D01*
X212510218Y-51816786D01*
X212510218Y-51293969D01*
G04 #@! TO.C,R3*
X224142239Y-81452448D02*
X223860722Y-81050281D01*
X223659639Y-81452448D02*
X223659639Y-80607898D01*
X223981372Y-80607898D01*
X224061806Y-80648115D01*
X224102022Y-80688331D01*
X224142239Y-80768765D01*
X224142239Y-80889415D01*
X224102022Y-80969848D01*
X224061806Y-81010065D01*
X223981372Y-81050281D01*
X223659639Y-81050281D01*
X224423756Y-80607898D02*
X224946572Y-80607898D01*
X224665056Y-80929631D01*
X224785706Y-80929631D01*
X224866139Y-80969848D01*
X224906356Y-81010065D01*
X224946572Y-81090498D01*
X224946572Y-81291581D01*
X224906356Y-81372015D01*
X224866139Y-81412231D01*
X224785706Y-81452448D01*
X224544406Y-81452448D01*
X224463972Y-81412231D01*
X224423756Y-81372015D01*
G04 #@! TO.C,R4*
X188193468Y-64685333D02*
X187911951Y-64283166D01*
X187710868Y-64685333D02*
X187710868Y-63840783D01*
X188032601Y-63840783D01*
X188113035Y-63881000D01*
X188153251Y-63921216D01*
X188193468Y-64001650D01*
X188193468Y-64122300D01*
X188153251Y-64202733D01*
X188113035Y-64242950D01*
X188032601Y-64283166D01*
X187710868Y-64283166D01*
X188917368Y-64122300D02*
X188917368Y-64685333D01*
X188716285Y-63800566D02*
X188515201Y-64403816D01*
X189038018Y-64403816D01*
G04 #@! TO.C,R5*
X201012697Y-65444218D02*
X200731180Y-65042051D01*
X200530097Y-65444218D02*
X200530097Y-64599668D01*
X200851830Y-64599668D01*
X200932264Y-64639885D01*
X200972480Y-64680101D01*
X201012697Y-64760535D01*
X201012697Y-64881185D01*
X200972480Y-64961618D01*
X200932264Y-65001835D01*
X200851830Y-65042051D01*
X200530097Y-65042051D01*
X201776814Y-64599668D02*
X201374647Y-64599668D01*
X201334430Y-65001835D01*
X201374647Y-64961618D01*
X201455080Y-64921401D01*
X201656164Y-64921401D01*
X201736597Y-64961618D01*
X201776814Y-65001835D01*
X201817030Y-65082268D01*
X201817030Y-65283351D01*
X201776814Y-65363785D01*
X201736597Y-65404001D01*
X201656164Y-65444218D01*
X201455080Y-65444218D01*
X201374647Y-65404001D01*
X201334430Y-65363785D01*
G04 #@! TO.C,R6*
X196000218Y-112677302D02*
X195598051Y-112958819D01*
X196000218Y-113159902D02*
X195155668Y-113159902D01*
X195155668Y-112838169D01*
X195195885Y-112757736D01*
X195236101Y-112717519D01*
X195316535Y-112677302D01*
X195437185Y-112677302D01*
X195517618Y-112717519D01*
X195557835Y-112757736D01*
X195598051Y-112838169D01*
X195598051Y-113159902D01*
X195155668Y-111953402D02*
X195155668Y-112114269D01*
X195195885Y-112194702D01*
X195236101Y-112234919D01*
X195356751Y-112315352D01*
X195517618Y-112355569D01*
X195839351Y-112355569D01*
X195919785Y-112315352D01*
X195960001Y-112275136D01*
X196000218Y-112194702D01*
X196000218Y-112033836D01*
X195960001Y-111953402D01*
X195919785Y-111913186D01*
X195839351Y-111872969D01*
X195638268Y-111872969D01*
X195557835Y-111913186D01*
X195517618Y-111953402D01*
X195477401Y-112033836D01*
X195477401Y-112194702D01*
X195517618Y-112275136D01*
X195557835Y-112315352D01*
X195638268Y-112355569D01*
G04 #@! TO.C,R7*
X204957468Y-93641333D02*
X204675951Y-93239166D01*
X204474868Y-93641333D02*
X204474868Y-92796783D01*
X204796601Y-92796783D01*
X204877035Y-92837000D01*
X204917251Y-92877216D01*
X204957468Y-92957650D01*
X204957468Y-93078300D01*
X204917251Y-93158733D01*
X204877035Y-93198950D01*
X204796601Y-93239166D01*
X204474868Y-93239166D01*
X205238985Y-92796783D02*
X205802018Y-92796783D01*
X205440068Y-93641333D01*
G04 #@! TO.C,R8*
X219554697Y-96686218D02*
X219273180Y-96284051D01*
X219072097Y-96686218D02*
X219072097Y-95841668D01*
X219393830Y-95841668D01*
X219474264Y-95881885D01*
X219514480Y-95922101D01*
X219554697Y-96002535D01*
X219554697Y-96123185D01*
X219514480Y-96203618D01*
X219474264Y-96243835D01*
X219393830Y-96284051D01*
X219072097Y-96284051D01*
X220037297Y-96203618D02*
X219956864Y-96163401D01*
X219916647Y-96123185D01*
X219876430Y-96042751D01*
X219876430Y-96002535D01*
X219916647Y-95922101D01*
X219956864Y-95881885D01*
X220037297Y-95841668D01*
X220198164Y-95841668D01*
X220278597Y-95881885D01*
X220318814Y-95922101D01*
X220359030Y-96002535D01*
X220359030Y-96042751D01*
X220318814Y-96123185D01*
X220278597Y-96163401D01*
X220198164Y-96203618D01*
X220037297Y-96203618D01*
X219956864Y-96243835D01*
X219916647Y-96284051D01*
X219876430Y-96364485D01*
X219876430Y-96525351D01*
X219916647Y-96605785D01*
X219956864Y-96646001D01*
X220037297Y-96686218D01*
X220198164Y-96686218D01*
X220278597Y-96646001D01*
X220318814Y-96605785D01*
X220359030Y-96525351D01*
X220359030Y-96364485D01*
X220318814Y-96284051D01*
X220278597Y-96243835D01*
X220198164Y-96203618D01*
G04 #@! TO.C,R9*
X219808697Y-114212218D02*
X219527180Y-113810051D01*
X219326097Y-114212218D02*
X219326097Y-113367668D01*
X219647830Y-113367668D01*
X219728264Y-113407885D01*
X219768480Y-113448101D01*
X219808697Y-113528535D01*
X219808697Y-113649185D01*
X219768480Y-113729618D01*
X219728264Y-113769835D01*
X219647830Y-113810051D01*
X219326097Y-113810051D01*
X220210864Y-114212218D02*
X220371730Y-114212218D01*
X220452164Y-114172001D01*
X220492380Y-114131785D01*
X220572814Y-114011135D01*
X220613030Y-113850268D01*
X220613030Y-113528535D01*
X220572814Y-113448101D01*
X220532597Y-113407885D01*
X220452164Y-113367668D01*
X220291297Y-113367668D01*
X220210864Y-113407885D01*
X220170647Y-113448101D01*
X220130430Y-113528535D01*
X220130430Y-113729618D01*
X220170647Y-113810051D01*
X220210864Y-113850268D01*
X220291297Y-113890485D01*
X220452164Y-113890485D01*
X220532597Y-113850268D01*
X220572814Y-113810051D01*
X220613030Y-113729618D01*
G04 #@! TO.C,R10*
X211680697Y-128944218D02*
X211399180Y-128542051D01*
X211198097Y-128944218D02*
X211198097Y-128099668D01*
X211519830Y-128099668D01*
X211600264Y-128139885D01*
X211640480Y-128180101D01*
X211680697Y-128260535D01*
X211680697Y-128381185D01*
X211640480Y-128461618D01*
X211600264Y-128501835D01*
X211519830Y-128542051D01*
X211198097Y-128542051D01*
X212485030Y-128944218D02*
X212002430Y-128944218D01*
X212243730Y-128944218D02*
X212243730Y-128099668D01*
X212163297Y-128220318D01*
X212082864Y-128300751D01*
X212002430Y-128340968D01*
X213007847Y-128099668D02*
X213088280Y-128099668D01*
X213168714Y-128139885D01*
X213208930Y-128180101D01*
X213249147Y-128260535D01*
X213289364Y-128421401D01*
X213289364Y-128622485D01*
X213249147Y-128783351D01*
X213208930Y-128863785D01*
X213168714Y-128904001D01*
X213088280Y-128944218D01*
X213007847Y-128944218D01*
X212927414Y-128904001D01*
X212887197Y-128863785D01*
X212846980Y-128783351D01*
X212806764Y-128622485D01*
X212806764Y-128421401D01*
X212846980Y-128260535D01*
X212887197Y-128180101D01*
X212927414Y-128139885D01*
X213007847Y-128099668D01*
G04 #@! TO.C,R11*
X212005333Y-137688531D02*
X211603166Y-137970048D01*
X212005333Y-138171131D02*
X211160783Y-138171131D01*
X211160783Y-137849398D01*
X211201000Y-137768965D01*
X211241216Y-137728748D01*
X211321650Y-137688531D01*
X211442300Y-137688531D01*
X211522733Y-137728748D01*
X211562950Y-137768965D01*
X211603166Y-137849398D01*
X211603166Y-138171131D01*
X212005333Y-136884198D02*
X212005333Y-137366798D01*
X212005333Y-137125498D02*
X211160783Y-137125498D01*
X211281433Y-137205931D01*
X211361866Y-137286365D01*
X211402083Y-137366798D01*
X212005333Y-136079865D02*
X212005333Y-136562465D01*
X212005333Y-136321165D02*
X211160783Y-136321165D01*
X211281433Y-136401598D01*
X211361866Y-136482031D01*
X211402083Y-136562465D01*
G04 #@! TO.C,R12*
X222483468Y-77766333D02*
X222201951Y-77364166D01*
X222000868Y-77766333D02*
X222000868Y-76921783D01*
X222322601Y-76921783D01*
X222403035Y-76962000D01*
X222443251Y-77002216D01*
X222483468Y-77082650D01*
X222483468Y-77203300D01*
X222443251Y-77283733D01*
X222403035Y-77323950D01*
X222322601Y-77364166D01*
X222000868Y-77364166D01*
X223287801Y-77766333D02*
X222805201Y-77766333D01*
X223046501Y-77766333D02*
X223046501Y-76921783D01*
X222966068Y-77042433D01*
X222885635Y-77122866D01*
X222805201Y-77163083D01*
X223609535Y-77002216D02*
X223649751Y-76962000D01*
X223730185Y-76921783D01*
X223931268Y-76921783D01*
X224011701Y-76962000D01*
X224051918Y-77002216D01*
X224092135Y-77082650D01*
X224092135Y-77163083D01*
X224051918Y-77283733D01*
X223569318Y-77766333D01*
X224092135Y-77766333D01*
G04 #@! TO.C,R13*
X222610468Y-95673333D02*
X222328951Y-95271166D01*
X222127868Y-95673333D02*
X222127868Y-94828783D01*
X222449601Y-94828783D01*
X222530035Y-94869000D01*
X222570251Y-94909216D01*
X222610468Y-94989650D01*
X222610468Y-95110300D01*
X222570251Y-95190733D01*
X222530035Y-95230950D01*
X222449601Y-95271166D01*
X222127868Y-95271166D01*
X223414801Y-95673333D02*
X222932201Y-95673333D01*
X223173501Y-95673333D02*
X223173501Y-94828783D01*
X223093068Y-94949433D01*
X223012635Y-95029866D01*
X222932201Y-95070083D01*
X223696318Y-94828783D02*
X224219135Y-94828783D01*
X223937618Y-95150516D01*
X224058268Y-95150516D01*
X224138701Y-95190733D01*
X224178918Y-95230950D01*
X224219135Y-95311383D01*
X224219135Y-95512466D01*
X224178918Y-95592900D01*
X224138701Y-95633116D01*
X224058268Y-95673333D01*
X223816968Y-95673333D01*
X223736535Y-95633116D01*
X223696318Y-95592900D01*
G04 #@! TO.C,R14*
X222864468Y-112818333D02*
X222582951Y-112416166D01*
X222381868Y-112818333D02*
X222381868Y-111973783D01*
X222703601Y-111973783D01*
X222784035Y-112014000D01*
X222824251Y-112054216D01*
X222864468Y-112134650D01*
X222864468Y-112255300D01*
X222824251Y-112335733D01*
X222784035Y-112375950D01*
X222703601Y-112416166D01*
X222381868Y-112416166D01*
X223668801Y-112818333D02*
X223186201Y-112818333D01*
X223427501Y-112818333D02*
X223427501Y-111973783D01*
X223347068Y-112094433D01*
X223266635Y-112174866D01*
X223186201Y-112215083D01*
X224392701Y-112255300D02*
X224392701Y-112818333D01*
X224191618Y-111933566D02*
X223990535Y-112536816D01*
X224513351Y-112536816D01*
G04 #@! TO.C,R15*
X224261468Y-130471333D02*
X223979951Y-130069166D01*
X223778868Y-130471333D02*
X223778868Y-129626783D01*
X224100601Y-129626783D01*
X224181035Y-129667000D01*
X224221251Y-129707216D01*
X224261468Y-129787650D01*
X224261468Y-129908300D01*
X224221251Y-129988733D01*
X224181035Y-130028950D01*
X224100601Y-130069166D01*
X223778868Y-130069166D01*
X225065801Y-130471333D02*
X224583201Y-130471333D01*
X224824501Y-130471333D02*
X224824501Y-129626783D01*
X224744068Y-129747433D01*
X224663635Y-129827866D01*
X224583201Y-129868083D01*
X225829918Y-129626783D02*
X225427751Y-129626783D01*
X225387535Y-130028950D01*
X225427751Y-129988733D01*
X225508185Y-129948516D01*
X225709268Y-129948516D01*
X225789701Y-129988733D01*
X225829918Y-130028950D01*
X225870135Y-130109383D01*
X225870135Y-130310466D01*
X225829918Y-130390900D01*
X225789701Y-130431116D01*
X225709268Y-130471333D01*
X225508185Y-130471333D01*
X225427751Y-130431116D01*
X225387535Y-130390900D01*
G04 #@! TO.C,R16*
X224261468Y-133265333D02*
X223979951Y-132863166D01*
X223778868Y-133265333D02*
X223778868Y-132420783D01*
X224100601Y-132420783D01*
X224181035Y-132461000D01*
X224221251Y-132501216D01*
X224261468Y-132581650D01*
X224261468Y-132702300D01*
X224221251Y-132782733D01*
X224181035Y-132822950D01*
X224100601Y-132863166D01*
X223778868Y-132863166D01*
X225065801Y-133265333D02*
X224583201Y-133265333D01*
X224824501Y-133265333D02*
X224824501Y-132420783D01*
X224744068Y-132541433D01*
X224663635Y-132621866D01*
X224583201Y-132662083D01*
X225789701Y-132420783D02*
X225628835Y-132420783D01*
X225548401Y-132461000D01*
X225508185Y-132501216D01*
X225427751Y-132621866D01*
X225387535Y-132782733D01*
X225387535Y-133104466D01*
X225427751Y-133184900D01*
X225467968Y-133225116D01*
X225548401Y-133265333D01*
X225709268Y-133265333D01*
X225789701Y-133225116D01*
X225829918Y-133184900D01*
X225870135Y-133104466D01*
X225870135Y-132903383D01*
X225829918Y-132822950D01*
X225789701Y-132782733D01*
X225709268Y-132742516D01*
X225548401Y-132742516D01*
X225467968Y-132782733D01*
X225427751Y-132822950D01*
X225387535Y-132903383D01*
G04 #@! TO.C,TP1*
D14*
X184793095Y-122930380D02*
X185364523Y-122930380D01*
X185078809Y-123930380D02*
X185078809Y-122930380D01*
X185697857Y-123930380D02*
X185697857Y-122930380D01*
X186078809Y-122930380D01*
X186174047Y-122978000D01*
X186221666Y-123025619D01*
X186269285Y-123120857D01*
X186269285Y-123263714D01*
X186221666Y-123358952D01*
X186174047Y-123406571D01*
X186078809Y-123454190D01*
X185697857Y-123454190D01*
X187221666Y-123930380D02*
X186650238Y-123930380D01*
X186935952Y-123930380D02*
X186935952Y-122930380D01*
X186840714Y-123073238D01*
X186745476Y-123168476D01*
X186650238Y-123216095D01*
G04 #@! TO.C,TP2*
X184793095Y-128264380D02*
X185364523Y-128264380D01*
X185078809Y-129264380D02*
X185078809Y-128264380D01*
X185697857Y-129264380D02*
X185697857Y-128264380D01*
X186078809Y-128264380D01*
X186174047Y-128312000D01*
X186221666Y-128359619D01*
X186269285Y-128454857D01*
X186269285Y-128597714D01*
X186221666Y-128692952D01*
X186174047Y-128740571D01*
X186078809Y-128788190D01*
X185697857Y-128788190D01*
X186650238Y-128359619D02*
X186697857Y-128312000D01*
X186793095Y-128264380D01*
X187031190Y-128264380D01*
X187126428Y-128312000D01*
X187174047Y-128359619D01*
X187221666Y-128454857D01*
X187221666Y-128550095D01*
X187174047Y-128692952D01*
X186602619Y-129264380D01*
X187221666Y-129264380D01*
G04 #@! TO.C,TP3*
X184793095Y-133598380D02*
X185364523Y-133598380D01*
X185078809Y-134598380D02*
X185078809Y-133598380D01*
X185697857Y-134598380D02*
X185697857Y-133598380D01*
X186078809Y-133598380D01*
X186174047Y-133646000D01*
X186221666Y-133693619D01*
X186269285Y-133788857D01*
X186269285Y-133931714D01*
X186221666Y-134026952D01*
X186174047Y-134074571D01*
X186078809Y-134122190D01*
X185697857Y-134122190D01*
X186602619Y-133598380D02*
X187221666Y-133598380D01*
X186888333Y-133979333D01*
X187031190Y-133979333D01*
X187126428Y-134026952D01*
X187174047Y-134074571D01*
X187221666Y-134169809D01*
X187221666Y-134407904D01*
X187174047Y-134503142D01*
X187126428Y-134550761D01*
X187031190Y-134598380D01*
X186745476Y-134598380D01*
X186650238Y-134550761D01*
X186602619Y-134503142D01*
G04 #@! TO.C,U1*
X201930095Y-63714380D02*
X201930095Y-64523904D01*
X201977714Y-64619142D01*
X202025333Y-64666761D01*
X202120571Y-64714380D01*
X202311047Y-64714380D01*
X202406285Y-64666761D01*
X202453904Y-64619142D01*
X202501523Y-64523904D01*
X202501523Y-63714380D01*
X203501523Y-64714380D02*
X202930095Y-64714380D01*
X203215809Y-64714380D02*
X203215809Y-63714380D01*
X203120571Y-63857238D01*
X203025333Y-63952476D01*
X202930095Y-64000095D01*
G04 #@! TO.C,U2*
X202184095Y-66762380D02*
X202184095Y-67571904D01*
X202231714Y-67667142D01*
X202279333Y-67714761D01*
X202374571Y-67762380D01*
X202565047Y-67762380D01*
X202660285Y-67714761D01*
X202707904Y-67667142D01*
X202755523Y-67571904D01*
X202755523Y-66762380D01*
X203184095Y-66857619D02*
X203231714Y-66810000D01*
X203326952Y-66762380D01*
X203565047Y-66762380D01*
X203660285Y-66810000D01*
X203707904Y-66857619D01*
X203755523Y-66952857D01*
X203755523Y-67048095D01*
X203707904Y-67190952D01*
X203136476Y-67762380D01*
X203755523Y-67762380D01*
G04 #@! TO.C,U3*
X202057095Y-93686380D02*
X202057095Y-94495904D01*
X202104714Y-94591142D01*
X202152333Y-94638761D01*
X202247571Y-94686380D01*
X202438047Y-94686380D01*
X202533285Y-94638761D01*
X202580904Y-94591142D01*
X202628523Y-94495904D01*
X202628523Y-93686380D01*
X203009476Y-93686380D02*
X203628523Y-93686380D01*
X203295190Y-94067333D01*
X203438047Y-94067333D01*
X203533285Y-94114952D01*
X203580904Y-94162571D01*
X203628523Y-94257809D01*
X203628523Y-94495904D01*
X203580904Y-94591142D01*
X203533285Y-94638761D01*
X203438047Y-94686380D01*
X203152333Y-94686380D01*
X203057095Y-94638761D01*
X203009476Y-94591142D01*
G04 #@! TO.C,TP4*
X184793095Y-139059380D02*
X185364523Y-139059380D01*
X185078809Y-140059380D02*
X185078809Y-139059380D01*
X185697857Y-140059380D02*
X185697857Y-139059380D01*
X186078809Y-139059380D01*
X186174047Y-139107000D01*
X186221666Y-139154619D01*
X186269285Y-139249857D01*
X186269285Y-139392714D01*
X186221666Y-139487952D01*
X186174047Y-139535571D01*
X186078809Y-139583190D01*
X185697857Y-139583190D01*
X187126428Y-139392714D02*
X187126428Y-140059380D01*
X186888333Y-139011761D02*
X186650238Y-139726047D01*
X187269285Y-139726047D01*
G04 #@! TO.C,TP5*
X208923095Y-50506380D02*
X209494523Y-50506380D01*
X209208809Y-51506380D02*
X209208809Y-50506380D01*
X209827857Y-51506380D02*
X209827857Y-50506380D01*
X210208809Y-50506380D01*
X210304047Y-50554000D01*
X210351666Y-50601619D01*
X210399285Y-50696857D01*
X210399285Y-50839714D01*
X210351666Y-50934952D01*
X210304047Y-50982571D01*
X210208809Y-51030190D01*
X209827857Y-51030190D01*
X211304047Y-50506380D02*
X210827857Y-50506380D01*
X210780238Y-50982571D01*
X210827857Y-50934952D01*
X210923095Y-50887333D01*
X211161190Y-50887333D01*
X211256428Y-50934952D01*
X211304047Y-50982571D01*
X211351666Y-51077809D01*
X211351666Y-51315904D01*
X211304047Y-51411142D01*
X211256428Y-51458761D01*
X211161190Y-51506380D01*
X210923095Y-51506380D01*
X210827857Y-51458761D01*
X210780238Y-51411142D01*
G04 #@! TD*
M02*
