G04 #@! TF.GenerationSoftware,KiCad,Pcbnew,(5.0.0-3-g5ebb6b6)*
G04 #@! TF.CreationDate,2019-04-25T19:55:48+02:00*
G04 #@! TF.ProjectId,triggerhappy,7472696767657268617070792E6B6963,rev?*
G04 #@! TF.SameCoordinates,Original*
G04 #@! TF.FileFunction,Copper,L1,Top,Signal*
G04 #@! TF.FilePolarity,Positive*
%FSLAX46Y46*%
G04 Gerber Fmt 4.6, Leading zero omitted, Abs format (unit mm)*
G04 Created by KiCad (PCBNEW (5.0.0-3-g5ebb6b6)) date Thursday 25 April 2019 19:55:48*
%MOMM*%
%LPD*%
G01*
G04 APERTURE LIST*
G04 #@! TA.AperFunction,ComponentPad*
%ADD10C,1.600000*%
G04 #@! TD*
G04 #@! TA.AperFunction,ComponentPad*
%ADD11R,1.600000X1.600000*%
G04 #@! TD*
G04 #@! TA.AperFunction,ComponentPad*
%ADD12R,2.200000X2.200000*%
G04 #@! TD*
G04 #@! TA.AperFunction,ComponentPad*
%ADD13O,2.200000X2.200000*%
G04 #@! TD*
G04 #@! TA.AperFunction,ComponentPad*
%ADD14O,1.600000X1.600000*%
G04 #@! TD*
G04 #@! TA.AperFunction,ComponentPad*
%ADD15R,1.800000X1.800000*%
G04 #@! TD*
G04 #@! TA.AperFunction,ComponentPad*
%ADD16C,1.800000*%
G04 #@! TD*
G04 #@! TA.AperFunction,ComponentPad*
%ADD17R,1.700000X1.700000*%
G04 #@! TD*
G04 #@! TA.AperFunction,ComponentPad*
%ADD18O,1.700000X1.700000*%
G04 #@! TD*
G04 #@! TA.AperFunction,ComponentPad*
%ADD19O,3.000000X5.500000*%
G04 #@! TD*
G04 #@! TA.AperFunction,ComponentPad*
%ADD20O,3.000000X4.000000*%
G04 #@! TD*
G04 #@! TA.AperFunction,ComponentPad*
%ADD21O,5.500000X3.000000*%
G04 #@! TD*
G04 #@! TA.AperFunction,ComponentPad*
%ADD22C,1.320800*%
G04 #@! TD*
G04 #@! TA.AperFunction,WasherPad*
%ADD23C,4.000000*%
G04 #@! TD*
G04 #@! TA.AperFunction,ComponentPad*
%ADD24R,2.000000X2.000000*%
G04 #@! TD*
G04 #@! TA.AperFunction,Conductor*
%ADD25C,0.250000*%
G04 #@! TD*
G04 #@! TA.AperFunction,Conductor*
%ADD26C,0.254000*%
G04 #@! TD*
G04 APERTURE END LIST*
D10*
G04 #@! TO.P,C1,2*
G04 #@! TO.N,GND*
X191992000Y-142367000D03*
D11*
G04 #@! TO.P,C1,1*
G04 #@! TO.N,+5V*
X189992000Y-142367000D03*
G04 #@! TD*
D10*
G04 #@! TO.P,C2,1*
G04 #@! TO.N,+5V*
X193675000Y-51943000D03*
G04 #@! TO.P,C2,2*
G04 #@! TO.N,GND*
X193675000Y-46943000D03*
G04 #@! TD*
G04 #@! TO.P,C3,2*
G04 #@! TO.N,Net-(C3-Pad2)*
X215185000Y-58928000D03*
G04 #@! TO.P,C3,1*
G04 #@! TO.N,Net-(C3-Pad1)*
X210185000Y-58928000D03*
G04 #@! TD*
G04 #@! TO.P,C4,2*
G04 #@! TO.N,GND*
X190293000Y-85598000D03*
G04 #@! TO.P,C4,1*
G04 #@! TO.N,+5V*
X185293000Y-85598000D03*
G04 #@! TD*
G04 #@! TO.P,C5,1*
G04 #@! TO.N,+5V*
X184658000Y-106807000D03*
G04 #@! TO.P,C5,2*
G04 #@! TO.N,GND*
X189658000Y-106807000D03*
G04 #@! TD*
D11*
G04 #@! TO.P,C6,1*
G04 #@! TO.N,+5V*
X179705000Y-62865000D03*
D10*
G04 #@! TO.P,C6,2*
G04 #@! TO.N,Net-(C6-Pad2)*
X181705000Y-62865000D03*
G04 #@! TD*
G04 #@! TO.P,C7,2*
G04 #@! TO.N,Net-(C7-Pad2)*
X181705000Y-84074000D03*
D11*
G04 #@! TO.P,C7,1*
G04 #@! TO.N,+5V*
X179705000Y-84074000D03*
G04 #@! TD*
G04 #@! TO.P,C8,1*
G04 #@! TO.N,+5V*
X179578000Y-105156000D03*
D10*
G04 #@! TO.P,C8,2*
G04 #@! TO.N,Net-(C8-Pad2)*
X181578000Y-105156000D03*
G04 #@! TD*
D11*
G04 #@! TO.P,C9,1*
G04 #@! TO.N,+5V*
X190754000Y-126619000D03*
D10*
G04 #@! TO.P,C9,2*
G04 #@! TO.N,Net-(C9-Pad2)*
X190754000Y-124619000D03*
G04 #@! TD*
G04 #@! TO.P,C10,2*
G04 #@! TO.N,Net-(C10-Pad2)*
X193421000Y-72564000D03*
G04 #@! TO.P,C10,1*
G04 #@! TO.N,Net-(C10-Pad1)*
X193421000Y-67564000D03*
G04 #@! TD*
G04 #@! TO.P,C11,1*
G04 #@! TO.N,Net-(C11-Pad1)*
X209550000Y-65278000D03*
G04 #@! TO.P,C11,2*
G04 #@! TO.N,Net-(C11-Pad2)*
X209550000Y-70278000D03*
G04 #@! TD*
G04 #@! TO.P,C12,1*
G04 #@! TO.N,Net-(C12-Pad1)*
X193294000Y-113792000D03*
G04 #@! TO.P,C12,2*
G04 #@! TO.N,Net-(C12-Pad2)*
X193294000Y-108792000D03*
G04 #@! TD*
G04 #@! TO.P,C13,2*
G04 #@! TO.N,Net-(C13-Pad2)*
X200232000Y-88900000D03*
G04 #@! TO.P,C13,1*
G04 #@! TO.N,Net-(C13-Pad1)*
X205232000Y-88900000D03*
G04 #@! TD*
D12*
G04 #@! TO.P,D1,1*
G04 #@! TO.N,+5V*
X190754000Y-130048000D03*
D13*
G04 #@! TO.P,D1,2*
G04 #@! TO.N,GND*
X190754000Y-137668000D03*
G04 #@! TD*
D14*
G04 #@! TO.P,D2,2*
G04 #@! TO.N,GND*
X225298000Y-61595000D03*
D11*
G04 #@! TO.P,D2,1*
G04 #@! TO.N,Net-(C3-Pad2)*
X217678000Y-61595000D03*
G04 #@! TD*
G04 #@! TO.P,D3,1*
G04 #@! TO.N,Net-(D3-Pad1)*
X192151000Y-61341000D03*
D14*
G04 #@! TO.P,D3,2*
G04 #@! TO.N,Net-(C6-Pad2)*
X184531000Y-61341000D03*
G04 #@! TD*
D11*
G04 #@! TO.P,D4,1*
G04 #@! TO.N,Net-(D4-Pad1)*
X192151000Y-82550000D03*
D14*
G04 #@! TO.P,D4,2*
G04 #@! TO.N,Net-(C7-Pad2)*
X184531000Y-82550000D03*
G04 #@! TD*
D11*
G04 #@! TO.P,D5,1*
G04 #@! TO.N,Net-(D5-Pad1)*
X192151000Y-103632000D03*
D14*
G04 #@! TO.P,D5,2*
G04 #@! TO.N,Net-(C8-Pad2)*
X184531000Y-103632000D03*
G04 #@! TD*
G04 #@! TO.P,D6,2*
G04 #@! TO.N,Net-(C9-Pad2)*
X193167000Y-118745000D03*
D11*
G04 #@! TO.P,D6,1*
G04 #@! TO.N,Net-(D6-Pad1)*
X200787000Y-118745000D03*
G04 #@! TD*
D15*
G04 #@! TO.P,D7,1*
G04 #@! TO.N,Net-(D7-Pad1)*
X212217000Y-72644000D03*
D16*
G04 #@! TO.P,D7,2*
G04 #@! TO.N,Net-(D7-Pad2)*
X214757000Y-72644000D03*
G04 #@! TD*
D15*
G04 #@! TO.P,D8,1*
G04 #@! TO.N,Net-(D8-Pad1)*
X212217000Y-90170000D03*
D16*
G04 #@! TO.P,D8,2*
G04 #@! TO.N,Net-(D8-Pad2)*
X214757000Y-90170000D03*
G04 #@! TD*
G04 #@! TO.P,D9,2*
G04 #@! TO.N,Net-(D9-Pad2)*
X214630000Y-107696000D03*
D15*
G04 #@! TO.P,D9,1*
G04 #@! TO.N,Net-(D9-Pad1)*
X212090000Y-107696000D03*
G04 #@! TD*
D16*
G04 #@! TO.P,D10,2*
G04 #@! TO.N,Net-(D10-Pad2)*
X214630000Y-125222000D03*
D15*
G04 #@! TO.P,D10,1*
G04 #@! TO.N,Net-(D10-Pad1)*
X212090000Y-125222000D03*
G04 #@! TD*
G04 #@! TO.P,D11,1*
G04 #@! TO.N,Net-(D11-Pad1)*
X212090000Y-142748000D03*
D16*
G04 #@! TO.P,D11,2*
G04 #@! TO.N,Net-(D11-Pad2)*
X214630000Y-142748000D03*
G04 #@! TD*
D14*
G04 #@! TO.P,D12,2*
G04 #@! TO.N,Net-(D12-Pad2)*
X196215000Y-124714000D03*
D11*
G04 #@! TO.P,D12,1*
G04 #@! TO.N,Net-(D12-Pad1)*
X196215000Y-132334000D03*
G04 #@! TD*
G04 #@! TO.P,D13,1*
G04 #@! TO.N,Net-(D12-Pad1)*
X198882000Y-132334000D03*
D14*
G04 #@! TO.P,D13,2*
G04 #@! TO.N,Net-(D13-Pad2)*
X198882000Y-124714000D03*
G04 #@! TD*
G04 #@! TO.P,D14,2*
G04 #@! TO.N,Net-(D14-Pad2)*
X201549000Y-124714000D03*
D11*
G04 #@! TO.P,D14,1*
G04 #@! TO.N,Net-(D12-Pad1)*
X201549000Y-132334000D03*
G04 #@! TD*
G04 #@! TO.P,D15,1*
G04 #@! TO.N,Net-(D12-Pad1)*
X204216000Y-132334000D03*
D14*
G04 #@! TO.P,D15,2*
G04 #@! TO.N,Net-(D15-Pad2)*
X204216000Y-124714000D03*
G04 #@! TD*
G04 #@! TO.P,D16,2*
G04 #@! TO.N,Net-(D16-Pad2)*
X206883000Y-124714000D03*
D11*
G04 #@! TO.P,D16,1*
G04 #@! TO.N,Net-(D12-Pad1)*
X206883000Y-132334000D03*
G04 #@! TD*
D17*
G04 #@! TO.P,J1,1*
G04 #@! TO.N,-12V*
X179705000Y-143129000D03*
D18*
G04 #@! TO.P,J1,2*
X182245000Y-143129000D03*
G04 #@! TO.P,J1,3*
G04 #@! TO.N,GND*
X179705000Y-140589000D03*
G04 #@! TO.P,J1,4*
X182245000Y-140589000D03*
G04 #@! TO.P,J1,5*
X179705000Y-138049000D03*
G04 #@! TO.P,J1,6*
X182245000Y-138049000D03*
G04 #@! TO.P,J1,7*
X179705000Y-135509000D03*
G04 #@! TO.P,J1,8*
X182245000Y-135509000D03*
G04 #@! TO.P,J1,9*
G04 #@! TO.N,+12V*
X179705000Y-132969000D03*
G04 #@! TO.P,J1,10*
X182245000Y-132969000D03*
G04 #@! TO.P,J1,11*
G04 #@! TO.N,+5V*
X179705000Y-130429000D03*
G04 #@! TO.P,J1,12*
X182245000Y-130429000D03*
G04 #@! TO.P,J1,13*
G04 #@! TO.N,N/C*
X179705000Y-127889000D03*
G04 #@! TO.P,J1,14*
X182245000Y-127889000D03*
G04 #@! TO.P,J1,15*
X179705000Y-125349000D03*
G04 #@! TO.P,J1,16*
X182245000Y-125349000D03*
G04 #@! TD*
D19*
G04 #@! TO.P,J2,1*
G04 #@! TO.N,GND*
X215900000Y-50165000D03*
D20*
X226060000Y-50165000D03*
D21*
G04 #@! TO.P,J2,*
G04 #@! TO.N,*
X220980000Y-47498000D03*
G04 #@! TO.P,J2,2*
G04 #@! TO.N,Net-(J2-Pad2)*
X220980000Y-55626000D03*
G04 #@! TD*
D19*
G04 #@! TO.P,J3,1*
G04 #@! TO.N,GND*
X215900000Y-67818000D03*
D20*
X226060000Y-67818000D03*
D21*
G04 #@! TO.P,J3,2*
G04 #@! TO.N,Net-(D12-Pad2)*
X220980000Y-65151000D03*
G04 #@! TO.P,J3,3*
G04 #@! TO.N,Net-(J3-Pad3)*
X220980000Y-73279000D03*
G04 #@! TD*
G04 #@! TO.P,J4,3*
G04 #@! TO.N,Net-(J4-Pad3)*
X220980000Y-90805000D03*
G04 #@! TO.P,J4,2*
G04 #@! TO.N,Net-(D13-Pad2)*
X220980000Y-82677000D03*
D20*
G04 #@! TO.P,J4,1*
G04 #@! TO.N,GND*
X226060000Y-85344000D03*
D19*
X215900000Y-85344000D03*
G04 #@! TD*
G04 #@! TO.P,J5,1*
G04 #@! TO.N,GND*
X215900000Y-102870000D03*
D20*
X226060000Y-102870000D03*
D21*
G04 #@! TO.P,J5,2*
G04 #@! TO.N,Net-(D14-Pad2)*
X220980000Y-100203000D03*
G04 #@! TO.P,J5,3*
G04 #@! TO.N,Net-(J5-Pad3)*
X220980000Y-108331000D03*
G04 #@! TD*
G04 #@! TO.P,J6,3*
G04 #@! TO.N,Net-(J6-Pad3)*
X220980000Y-125857000D03*
G04 #@! TO.P,J6,2*
G04 #@! TO.N,Net-(D15-Pad2)*
X220980000Y-117729000D03*
D20*
G04 #@! TO.P,J6,1*
G04 #@! TO.N,GND*
X226060000Y-120396000D03*
D19*
X215900000Y-120396000D03*
G04 #@! TD*
G04 #@! TO.P,J7,1*
G04 #@! TO.N,GND*
X215900000Y-137922000D03*
D20*
X226060000Y-137922000D03*
D21*
G04 #@! TO.P,J7,2*
G04 #@! TO.N,Net-(D16-Pad2)*
X220980000Y-135255000D03*
G04 #@! TO.P,J7,3*
G04 #@! TO.N,Net-(J7-Pad3)*
X220980000Y-143383000D03*
G04 #@! TD*
G04 #@! TO.P,J8,2*
G04 #@! TO.N,Net-(D12-Pad1)*
X203454000Y-143383000D03*
G04 #@! TO.P,J8,*
G04 #@! TO.N,*
X203454000Y-135255000D03*
D20*
G04 #@! TO.P,J8,1*
G04 #@! TO.N,GND*
X208534000Y-137922000D03*
D19*
X198374000Y-137922000D03*
G04 #@! TD*
D18*
G04 #@! TO.P,JP1,2*
G04 #@! TO.N,Net-(C10-Pad2)*
X194691000Y-79375000D03*
D17*
G04 #@! TO.P,JP1,1*
G04 #@! TO.N,Net-(JP1-Pad1)*
X194691000Y-76835000D03*
G04 #@! TD*
G04 #@! TO.P,JP2,1*
G04 #@! TO.N,Net-(JP2-Pad1)*
X210693000Y-79248000D03*
D18*
G04 #@! TO.P,JP2,2*
G04 #@! TO.N,Net-(C11-Pad2)*
X213233000Y-79248000D03*
G04 #@! TD*
G04 #@! TO.P,JP3,2*
G04 #@! TO.N,Net-(C12-Pad2)*
X195326000Y-104394000D03*
D17*
G04 #@! TO.P,JP3,1*
G04 #@! TO.N,Net-(JP3-Pad1)*
X195326000Y-101854000D03*
G04 #@! TD*
G04 #@! TO.P,JP4,1*
G04 #@! TO.N,Net-(JP4-Pad1)*
X195961000Y-91440000D03*
D18*
G04 #@! TO.P,JP4,2*
G04 #@! TO.N,Net-(C13-Pad2)*
X195961000Y-88900000D03*
G04 #@! TD*
D22*
G04 #@! TO.P,R1,1*
G04 #@! TO.N,Net-(C3-Pad2)*
X217678000Y-58928000D03*
G04 #@! TO.P,R1,2*
G04 #@! TO.N,Net-(J2-Pad2)*
X225298000Y-58928000D03*
G04 #@! TD*
G04 #@! TO.P,R2,1*
G04 #@! TO.N,Net-(C3-Pad1)*
X212852000Y-54229000D03*
G04 #@! TO.P,R2,2*
G04 #@! TO.N,GND*
X212852000Y-46609000D03*
G04 #@! TD*
G04 #@! TO.P,R3,1*
G04 #@! TO.N,+5V*
X224790000Y-79502000D03*
G04 #@! TO.P,R3,2*
G04 #@! TO.N,Net-(D7-Pad2)*
X217170000Y-79502000D03*
G04 #@! TD*
G04 #@! TO.P,R4,2*
G04 #@! TO.N,Net-(C10-Pad1)*
X192405000Y-64516000D03*
G04 #@! TO.P,R4,1*
G04 #@! TO.N,+5V*
X184785000Y-64516000D03*
G04 #@! TD*
G04 #@! TO.P,R5,2*
G04 #@! TO.N,Net-(C11-Pad1)*
X206502000Y-65786000D03*
G04 #@! TO.P,R5,1*
G04 #@! TO.N,+5V*
X198882000Y-65786000D03*
G04 #@! TD*
G04 #@! TO.P,R6,1*
G04 #@! TO.N,+5V*
X196342000Y-114808000D03*
G04 #@! TO.P,R6,2*
G04 #@! TO.N,Net-(C12-Pad1)*
X196342000Y-107188000D03*
G04 #@! TD*
G04 #@! TO.P,R7,1*
G04 #@! TO.N,+5V*
X206756000Y-92329000D03*
G04 #@! TO.P,R7,2*
G04 #@! TO.N,Net-(C13-Pad1)*
X199136000Y-92329000D03*
G04 #@! TD*
G04 #@! TO.P,R8,1*
G04 #@! TO.N,Net-(D8-Pad1)*
X217424000Y-97028000D03*
G04 #@! TO.P,R8,2*
G04 #@! TO.N,GND*
X225044000Y-97028000D03*
G04 #@! TD*
G04 #@! TO.P,R9,1*
G04 #@! TO.N,Net-(D9-Pad1)*
X217678000Y-114554000D03*
G04 #@! TO.P,R9,2*
G04 #@! TO.N,GND*
X225298000Y-114554000D03*
G04 #@! TD*
G04 #@! TO.P,R10,2*
G04 #@! TO.N,GND*
X217170000Y-129286000D03*
G04 #@! TO.P,R10,1*
G04 #@! TO.N,Net-(D10-Pad1)*
X209550000Y-129286000D03*
G04 #@! TD*
G04 #@! TO.P,R11,2*
G04 #@! TO.N,GND*
X212217000Y-132207000D03*
G04 #@! TO.P,R11,1*
G04 #@! TO.N,Net-(D11-Pad1)*
X212217000Y-139827000D03*
G04 #@! TD*
G04 #@! TO.P,R12,2*
G04 #@! TO.N,Net-(R12-Pad2)*
X217170000Y-76454000D03*
G04 #@! TO.P,R12,1*
G04 #@! TO.N,Net-(J3-Pad3)*
X224790000Y-76454000D03*
G04 #@! TD*
G04 #@! TO.P,R13,1*
G04 #@! TO.N,Net-(J4-Pad3)*
X225044000Y-94234000D03*
G04 #@! TO.P,R13,2*
G04 #@! TO.N,Net-(D8-Pad2)*
X217424000Y-94234000D03*
G04 #@! TD*
G04 #@! TO.P,R14,2*
G04 #@! TO.N,Net-(D9-Pad2)*
X217551000Y-111760000D03*
G04 #@! TO.P,R14,1*
G04 #@! TO.N,Net-(J5-Pad3)*
X225171000Y-111760000D03*
G04 #@! TD*
G04 #@! TO.P,R15,2*
G04 #@! TO.N,Net-(D10-Pad2)*
X219075000Y-129286000D03*
G04 #@! TO.P,R15,1*
G04 #@! TO.N,Net-(J6-Pad3)*
X226695000Y-129286000D03*
G04 #@! TD*
G04 #@! TO.P,R16,1*
G04 #@! TO.N,Net-(J7-Pad3)*
X226695000Y-132207000D03*
G04 #@! TO.P,R16,2*
G04 #@! TO.N,Net-(D11-Pad2)*
X219075000Y-132207000D03*
G04 #@! TD*
D23*
G04 #@! TO.P,RV1,*
G04 #@! TO.N,*
X180218000Y-51547000D03*
X189018000Y-51547000D03*
D16*
G04 #@! TO.P,RV1,1*
G04 #@! TO.N,+5V*
X182118000Y-58547000D03*
G04 #@! TO.P,RV1,2*
X184618000Y-58547000D03*
G04 #@! TO.P,RV1,3*
G04 #@! TO.N,Net-(C6-Pad2)*
X187118000Y-58547000D03*
G04 #@! TD*
G04 #@! TO.P,RV2,3*
G04 #@! TO.N,Net-(C7-Pad2)*
X187118000Y-79629000D03*
G04 #@! TO.P,RV2,2*
G04 #@! TO.N,+5V*
X184618000Y-79629000D03*
G04 #@! TO.P,RV2,1*
X182118000Y-79629000D03*
D23*
G04 #@! TO.P,RV2,*
G04 #@! TO.N,*
X189018000Y-72629000D03*
X180218000Y-72629000D03*
G04 #@! TD*
D16*
G04 #@! TO.P,RV3,3*
G04 #@! TO.N,Net-(C8-Pad2)*
X187118000Y-100711000D03*
G04 #@! TO.P,RV3,2*
G04 #@! TO.N,+5V*
X184618000Y-100711000D03*
G04 #@! TO.P,RV3,1*
X182118000Y-100711000D03*
D23*
G04 #@! TO.P,RV3,*
G04 #@! TO.N,*
X189018000Y-93711000D03*
X180218000Y-93711000D03*
G04 #@! TD*
G04 #@! TO.P,RV4,*
G04 #@! TO.N,*
X180218000Y-114793000D03*
X189018000Y-114793000D03*
D16*
G04 #@! TO.P,RV4,1*
G04 #@! TO.N,+5V*
X182118000Y-121793000D03*
G04 #@! TO.P,RV4,2*
X184618000Y-121793000D03*
G04 #@! TO.P,RV4,3*
G04 #@! TO.N,Net-(C9-Pad2)*
X187118000Y-121793000D03*
G04 #@! TD*
D24*
G04 #@! TO.P,TP1,1*
G04 #@! TO.N,+5V*
X186055000Y-125476000D03*
G04 #@! TD*
G04 #@! TO.P,TP2,1*
G04 #@! TO.N,+12V*
X186055000Y-130810000D03*
G04 #@! TD*
G04 #@! TO.P,TP3,1*
G04 #@! TO.N,GND*
X186055000Y-136144000D03*
G04 #@! TD*
D11*
G04 #@! TO.P,U1,1*
G04 #@! TO.N,Net-(C3-Pad1)*
X206502000Y-62357000D03*
D14*
G04 #@! TO.P,U1,8*
G04 #@! TO.N,N/C*
X198882000Y-47117000D03*
G04 #@! TO.P,U1,2*
G04 #@! TO.N,Net-(D7-Pad1)*
X206502000Y-59817000D03*
G04 #@! TO.P,U1,9*
G04 #@! TO.N,N/C*
X198882000Y-49657000D03*
G04 #@! TO.P,U1,3*
G04 #@! TO.N,Net-(D7-Pad1)*
X206502000Y-57277000D03*
G04 #@! TO.P,U1,10*
G04 #@! TO.N,N/C*
X198882000Y-52197000D03*
G04 #@! TO.P,U1,4*
G04 #@! TO.N,Net-(R12-Pad2)*
X206502000Y-54737000D03*
G04 #@! TO.P,U1,11*
G04 #@! TO.N,N/C*
X198882000Y-54737000D03*
G04 #@! TO.P,U1,5*
X206502000Y-52197000D03*
G04 #@! TO.P,U1,12*
X198882000Y-57277000D03*
G04 #@! TO.P,U1,6*
X206502000Y-49657000D03*
G04 #@! TO.P,U1,13*
X198882000Y-59817000D03*
G04 #@! TO.P,U1,7*
G04 #@! TO.N,GND*
X206502000Y-47117000D03*
G04 #@! TO.P,U1,14*
G04 #@! TO.N,+5V*
X198882000Y-62357000D03*
G04 #@! TD*
D11*
G04 #@! TO.P,U2,1*
G04 #@! TO.N,Net-(C3-Pad1)*
X199009000Y-68834000D03*
D14*
G04 #@! TO.P,U2,8*
G04 #@! TO.N,Net-(D4-Pad1)*
X206629000Y-84074000D03*
G04 #@! TO.P,U2,2*
G04 #@! TO.N,Net-(D3-Pad1)*
X199009000Y-71374000D03*
G04 #@! TO.P,U2,9*
G04 #@! TO.N,Net-(C3-Pad1)*
X206629000Y-81534000D03*
G04 #@! TO.P,U2,3*
G04 #@! TO.N,Net-(C6-Pad2)*
X199009000Y-73914000D03*
G04 #@! TO.P,U2,10*
G04 #@! TO.N,Net-(JP2-Pad1)*
X206629000Y-78994000D03*
G04 #@! TO.P,U2,4*
G04 #@! TO.N,Net-(JP1-Pad1)*
X199009000Y-76454000D03*
G04 #@! TO.P,U2,11*
G04 #@! TO.N,Net-(C7-Pad2)*
X206629000Y-76454000D03*
G04 #@! TO.P,U2,5*
G04 #@! TO.N,Net-(C10-Pad1)*
X199009000Y-78994000D03*
G04 #@! TO.P,U2,12*
G04 #@! TO.N,Net-(D9-Pad2)*
X206629000Y-73914000D03*
G04 #@! TO.P,U2,6*
G04 #@! TO.N,Net-(D8-Pad2)*
X199009000Y-81534000D03*
G04 #@! TO.P,U2,13*
G04 #@! TO.N,Net-(C11-Pad1)*
X206629000Y-71374000D03*
G04 #@! TO.P,U2,7*
G04 #@! TO.N,GND*
X199009000Y-84074000D03*
G04 #@! TO.P,U2,14*
G04 #@! TO.N,+5V*
X206629000Y-68834000D03*
G04 #@! TD*
G04 #@! TO.P,U3,14*
G04 #@! TO.N,+5V*
X206629000Y-95631000D03*
G04 #@! TO.P,U3,7*
G04 #@! TO.N,GND*
X199009000Y-110871000D03*
G04 #@! TO.P,U3,13*
G04 #@! TO.N,Net-(C13-Pad1)*
X206629000Y-98171000D03*
G04 #@! TO.P,U3,6*
G04 #@! TO.N,Net-(D10-Pad2)*
X199009000Y-108331000D03*
G04 #@! TO.P,U3,12*
G04 #@! TO.N,Net-(D11-Pad2)*
X206629000Y-100711000D03*
G04 #@! TO.P,U3,5*
G04 #@! TO.N,Net-(C12-Pad1)*
X199009000Y-105791000D03*
G04 #@! TO.P,U3,11*
G04 #@! TO.N,Net-(C9-Pad2)*
X206629000Y-103251000D03*
G04 #@! TO.P,U3,4*
G04 #@! TO.N,Net-(JP3-Pad1)*
X199009000Y-103251000D03*
G04 #@! TO.P,U3,10*
G04 #@! TO.N,Net-(JP4-Pad1)*
X206629000Y-105791000D03*
G04 #@! TO.P,U3,3*
G04 #@! TO.N,Net-(C8-Pad2)*
X199009000Y-100711000D03*
G04 #@! TO.P,U3,9*
G04 #@! TO.N,Net-(C3-Pad1)*
X206629000Y-108331000D03*
G04 #@! TO.P,U3,2*
G04 #@! TO.N,Net-(D5-Pad1)*
X199009000Y-98171000D03*
G04 #@! TO.P,U3,8*
G04 #@! TO.N,Net-(D6-Pad1)*
X206629000Y-110871000D03*
D11*
G04 #@! TO.P,U3,1*
G04 #@! TO.N,Net-(C3-Pad1)*
X199009000Y-95631000D03*
G04 #@! TD*
D24*
G04 #@! TO.P,TP4,1*
G04 #@! TO.N,-12V*
X186055000Y-141605000D03*
G04 #@! TD*
G04 #@! TO.P,TP5,1*
G04 #@! TO.N,Net-(D7-Pad1)*
X210058000Y-48895000D03*
G04 #@! TD*
D25*
G04 #@! TO.N,Net-(C3-Pad2)*
X217678000Y-61595000D02*
X217678000Y-58928000D01*
X215185000Y-58928000D02*
X217678000Y-58928000D01*
G04 #@! TO.N,Net-(C3-Pad1)*
X210185000Y-56896000D02*
X210185000Y-58928000D01*
X212852000Y-54229000D02*
X210185000Y-56896000D01*
X208788000Y-62484000D02*
X210185000Y-61087000D01*
X210185000Y-61087000D02*
X210185000Y-58928000D01*
X206409000Y-62484000D02*
X208788000Y-62484000D01*
X199009000Y-68834000D02*
X200059000Y-68834000D01*
X199009000Y-68199000D02*
X199009000Y-68834000D01*
G04 #@! TO.N,Net-(C6-Pad2)*
X183229000Y-61341000D02*
X184531000Y-61341000D01*
X181705000Y-62865000D02*
X183229000Y-61341000D01*
X187118000Y-58754000D02*
X187118000Y-58547000D01*
X184531000Y-61341000D02*
X187118000Y-58754000D01*
X195580000Y-70485000D02*
X199009000Y-73914000D01*
X195580000Y-64770000D02*
X195580000Y-70485000D01*
X190754000Y-63119000D02*
X193929000Y-63119000D01*
X193929000Y-63119000D02*
X195580000Y-64770000D01*
X188976000Y-61341000D02*
X190754000Y-63119000D01*
X184531000Y-61341000D02*
X188976000Y-61341000D01*
G04 #@! TO.N,Net-(C7-Pad2)*
X187118000Y-79629000D02*
X191897000Y-79629000D01*
X191897000Y-79629000D02*
X193167000Y-80899000D01*
X193167000Y-80899000D02*
X197612000Y-80899000D01*
X197612000Y-80899000D02*
X198247000Y-80264000D01*
X202819000Y-80264000D02*
X206629000Y-76454000D01*
X198247000Y-80264000D02*
X202819000Y-80264000D01*
X185801000Y-80946000D02*
X187118000Y-79629000D01*
X185535370Y-82423000D02*
X185801000Y-82157370D01*
X184404000Y-82423000D02*
X185535370Y-82423000D01*
X184277000Y-82550000D02*
X184404000Y-82423000D01*
X183229000Y-82550000D02*
X184277000Y-82550000D01*
X185801000Y-82157370D02*
X185801000Y-80946000D01*
X181705000Y-84074000D02*
X183229000Y-82550000D01*
G04 #@! TO.N,Net-(C8-Pad2)*
X183007000Y-105156000D02*
X184531000Y-103632000D01*
X181578000Y-105156000D02*
X183007000Y-105156000D01*
X187118000Y-101045000D02*
X187118000Y-100711000D01*
X184531000Y-103632000D02*
X187118000Y-101045000D01*
X187118000Y-100711000D02*
X192151000Y-100711000D01*
X192151000Y-100711000D02*
X193040000Y-99822000D01*
X198120000Y-99822000D02*
X199009000Y-100711000D01*
X193040000Y-99822000D02*
X198120000Y-99822000D01*
G04 #@! TO.N,Net-(C9-Pad2)*
X189944000Y-124619000D02*
X190754000Y-124619000D01*
X187118000Y-121793000D02*
X189944000Y-124619000D01*
X193167000Y-122206000D02*
X193167000Y-118745000D01*
X190754000Y-124619000D02*
X193167000Y-122206000D01*
X197612000Y-107696000D02*
X198247000Y-107061000D01*
X198247000Y-107061000D02*
X202819000Y-107061000D01*
X197612000Y-109474000D02*
X197612000Y-107696000D01*
X195199000Y-111887000D02*
X197612000Y-109474000D01*
X195199000Y-115581630D02*
X195199000Y-111887000D01*
X202819000Y-107061000D02*
X206629000Y-103251000D01*
X193167000Y-117613630D02*
X195199000Y-115581630D01*
X193167000Y-118745000D02*
X193167000Y-117613630D01*
G04 #@! TO.N,Net-(C10-Pad2)*
X192621001Y-73363999D02*
X192621001Y-77305001D01*
X193841001Y-78525001D02*
X194691000Y-79375000D01*
X192621001Y-77305001D02*
X193841001Y-78525001D01*
X193421000Y-72564000D02*
X192621001Y-73363999D01*
G04 #@! TO.N,Net-(C10-Pad1)*
X192405000Y-66548000D02*
X193421000Y-67564000D01*
X192405000Y-64516000D02*
X192405000Y-66548000D01*
X194546001Y-68689001D02*
X194546001Y-70975001D01*
X193421000Y-67564000D02*
X194546001Y-68689001D01*
X194546001Y-70975001D02*
X196596000Y-73025000D01*
X196596000Y-76581000D02*
X199009000Y-78994000D01*
X196596000Y-73025000D02*
X196596000Y-76581000D01*
G04 #@! TO.N,Net-(C11-Pad1)*
X209042000Y-65786000D02*
X206502000Y-65786000D01*
X209550000Y-65278000D02*
X209042000Y-65786000D01*
X209550000Y-68453000D02*
X209550000Y-65278000D01*
X206629000Y-71374000D02*
X209550000Y-68453000D01*
G04 #@! TO.N,Net-(C11-Pad2)*
X209550000Y-75565000D02*
X213233000Y-79248000D01*
X209550000Y-70278000D02*
X209550000Y-75565000D01*
G04 #@! TO.N,Net-(C12-Pad1)*
X194093999Y-112992001D02*
X194093999Y-110198001D01*
X193294000Y-113792000D02*
X194093999Y-112992001D01*
X195681601Y-107848399D02*
X196342000Y-107188000D01*
X195681601Y-108610399D02*
X195681601Y-107848399D01*
X194093999Y-110198001D02*
X195681601Y-108610399D01*
X197739000Y-105791000D02*
X199009000Y-105791000D01*
X196342000Y-107188000D02*
X197739000Y-105791000D01*
G04 #@! TO.N,Net-(C12-Pad2)*
X195326000Y-106760000D02*
X195326000Y-104394000D01*
X193294000Y-108792000D02*
X195326000Y-106760000D01*
G04 #@! TO.N,Net-(C13-Pad2)*
X200232000Y-88900000D02*
X195961000Y-88900000D01*
G04 #@! TO.N,Net-(C13-Pad1)*
X202565000Y-88900000D02*
X205232000Y-88900000D01*
X199136000Y-92329000D02*
X202565000Y-88900000D01*
X205829001Y-97371001D02*
X206629000Y-98171000D01*
X204432001Y-95974001D02*
X205829001Y-97371001D01*
X204432001Y-89699999D02*
X204432001Y-95974001D01*
X205232000Y-88900000D02*
X204432001Y-89699999D01*
G04 #@! TO.N,Net-(D3-Pad1)*
X196596000Y-64262000D02*
X196596000Y-68961000D01*
X196596000Y-68961000D02*
X199009000Y-71374000D01*
X193675000Y-61341000D02*
X196596000Y-64262000D01*
X192151000Y-61341000D02*
X193675000Y-61341000D01*
G04 #@! TO.N,Net-(D4-Pad1)*
X205105000Y-85598000D02*
X206629000Y-84074000D01*
X194310000Y-85598000D02*
X205105000Y-85598000D01*
X192024000Y-83312000D02*
X194310000Y-85598000D01*
X192024000Y-82423000D02*
X192024000Y-83312000D01*
G04 #@! TO.N,Net-(D6-Pad1)*
X200787000Y-116713000D02*
X206629000Y-110871000D01*
X200787000Y-118745000D02*
X200787000Y-116713000D01*
G04 #@! TO.N,Net-(D7-Pad1)*
X206502000Y-58408370D02*
X206502000Y-59817000D01*
X206502000Y-57277000D02*
X206502000Y-58408370D01*
X214376000Y-53848000D02*
X214376000Y-56134000D01*
X214376000Y-56134000D02*
X212217000Y-58293000D01*
X208444999Y-56477001D02*
X211963000Y-52959000D01*
X213487000Y-52959000D02*
X214376000Y-53848000D01*
X211963000Y-52959000D02*
X213487000Y-52959000D01*
X212217000Y-58293000D02*
X212217000Y-72644000D01*
X207301999Y-56477001D02*
X208444999Y-56477001D01*
X206502000Y-57277000D02*
X207301999Y-56477001D01*
G04 #@! TO.N,Net-(D8-Pad1)*
X212217000Y-91821000D02*
X212217000Y-90170000D01*
X217424000Y-97028000D02*
X212217000Y-91821000D01*
G04 #@! TO.N,Net-(D8-Pad2)*
X214757000Y-91567000D02*
X214757000Y-90170000D01*
X217424000Y-94234000D02*
X214757000Y-91567000D01*
X200279000Y-82804000D02*
X199009000Y-81534000D01*
X207772000Y-82804000D02*
X200279000Y-82804000D01*
X213857001Y-89270001D02*
X213857001Y-88889001D01*
X213857001Y-88889001D02*
X207772000Y-82804000D01*
X214757000Y-90170000D02*
X213857001Y-89270001D01*
G04 #@! TO.N,Net-(D9-Pad2)*
X217551000Y-111760000D02*
X216535000Y-111760000D01*
X214630000Y-109855000D02*
X214630000Y-107696000D01*
X216535000Y-111760000D02*
X214630000Y-109855000D01*
X207137000Y-74422000D02*
X206629000Y-73914000D01*
X208661000Y-82677000D02*
X208661000Y-75946000D01*
X214376000Y-88392000D02*
X208661000Y-82677000D01*
X216387047Y-89662000D02*
X215117047Y-88392000D01*
X216408000Y-90678000D02*
X216408000Y-89662000D01*
X215519000Y-98552000D02*
X218313000Y-98552000D01*
X215117047Y-88392000D02*
X214376000Y-88392000D01*
X218821000Y-93091000D02*
X216408000Y-90678000D01*
X218313000Y-98552000D02*
X218821000Y-98044000D01*
X208661000Y-75946000D02*
X207137000Y-74422000D01*
X213614000Y-100457000D02*
X215519000Y-98552000D01*
X218821000Y-98044000D02*
X218821000Y-93091000D01*
X216408000Y-89662000D02*
X216387047Y-89662000D01*
X213614000Y-101071047D02*
X213614000Y-100457000D01*
X213741000Y-101198047D02*
X213614000Y-101071047D01*
X214630000Y-107696000D02*
X213730001Y-106796001D01*
X213730001Y-104891001D02*
X213741000Y-104880002D01*
X213741000Y-104880002D02*
X213741000Y-101198047D01*
X213730001Y-106796001D02*
X213730001Y-104891001D01*
G04 #@! TO.N,Net-(D9-Pad1)*
X217678000Y-114554000D02*
X216535000Y-114554000D01*
X212090000Y-110109000D02*
X212090000Y-107696000D01*
X216535000Y-114554000D02*
X212090000Y-110109000D01*
G04 #@! TO.N,Net-(D10-Pad1)*
X210940000Y-125222000D02*
X212090000Y-125222000D01*
X209550000Y-126612000D02*
X210940000Y-125222000D01*
X209550000Y-129286000D02*
X209550000Y-126612000D01*
G04 #@! TO.N,Net-(D11-Pad1)*
X212090000Y-139954000D02*
X212217000Y-139827000D01*
X212090000Y-142748000D02*
X212090000Y-139954000D01*
G04 #@! TO.N,Net-(D11-Pad2)*
X223393000Y-132207000D02*
X219075000Y-132207000D01*
X225298000Y-134112000D02*
X223393000Y-132207000D01*
X223647000Y-136525000D02*
X225298000Y-134874000D01*
X223647000Y-137287000D02*
X223647000Y-136525000D01*
X219837000Y-141097000D02*
X223647000Y-137287000D01*
X218567000Y-141097000D02*
X219837000Y-141097000D01*
X225298000Y-134874000D02*
X225298000Y-134112000D01*
X218106010Y-141557990D02*
X218567000Y-141097000D01*
X215820010Y-141557990D02*
X218106010Y-141557990D01*
X214630000Y-142748000D02*
X215820010Y-141557990D01*
X208534000Y-102616000D02*
X206629000Y-100711000D01*
X215138000Y-127000000D02*
X217904990Y-124233010D01*
X217904990Y-117828990D02*
X208534000Y-108458000D01*
X215138000Y-129286000D02*
X215138000Y-127000000D01*
X217904990Y-124233010D02*
X217904990Y-117828990D01*
X218059000Y-132207000D02*
X215138000Y-129286000D01*
X208534000Y-108458000D02*
X208534000Y-102616000D01*
X219075000Y-132207000D02*
X218059000Y-132207000D01*
G04 #@! TO.N,Net-(D12-Pad1)*
X205833000Y-132334000D02*
X204216000Y-132334000D01*
X206883000Y-132334000D02*
X205833000Y-132334000D01*
X204216000Y-132334000D02*
X201549000Y-132334000D01*
X200499000Y-132334000D02*
X198882000Y-132334000D01*
X201549000Y-132334000D02*
X200499000Y-132334000D01*
X198882000Y-132334000D02*
X196215000Y-132334000D01*
X196215000Y-133384000D02*
X195580000Y-134019000D01*
X196215000Y-132334000D02*
X196215000Y-133384000D01*
X195580000Y-134019000D02*
X195580000Y-140970000D01*
X197993000Y-143383000D02*
X203454000Y-143383000D01*
X195580000Y-140970000D02*
X197993000Y-143383000D01*
G04 #@! TO.N,Net-(D16-Pad2)*
X217980000Y-135255000D02*
X217091000Y-134366000D01*
X220980000Y-135255000D02*
X217980000Y-135255000D01*
X217091000Y-134366000D02*
X210566000Y-134366000D01*
X210566000Y-134366000D02*
X208534000Y-132334000D01*
X208534000Y-132334000D02*
X208534000Y-130810000D01*
X206883000Y-129159000D02*
X206883000Y-124714000D01*
X208534000Y-130810000D02*
X206883000Y-129159000D01*
G04 #@! TO.N,-12V*
X179705000Y-143129000D02*
X182245000Y-143129000D01*
X183769000Y-141605000D02*
X186055000Y-141605000D01*
X182245000Y-143129000D02*
X183769000Y-141605000D01*
G04 #@! TO.N,+12V*
X180907081Y-132969000D02*
X182245000Y-132969000D01*
X179705000Y-132969000D02*
X180907081Y-132969000D01*
X186055000Y-132060000D02*
X186055000Y-130810000D01*
X185146000Y-132969000D02*
X186055000Y-132060000D01*
X182245000Y-132969000D02*
X185146000Y-132969000D01*
G04 #@! TO.N,Net-(J2-Pad2)*
X220980000Y-57376000D02*
X220980000Y-55626000D01*
X222532000Y-58928000D02*
X220980000Y-57376000D01*
X225298000Y-58928000D02*
X222532000Y-58928000D01*
G04 #@! TO.N,Net-(J3-Pad3)*
X224790000Y-75839000D02*
X224790000Y-76454000D01*
X222230000Y-73279000D02*
X224790000Y-75839000D01*
X220980000Y-73279000D02*
X222230000Y-73279000D01*
G04 #@! TO.N,Net-(J4-Pad3)*
X221615000Y-90805000D02*
X220980000Y-90805000D01*
X225044000Y-94234000D02*
X221615000Y-90805000D01*
G04 #@! TO.N,Net-(J5-Pad3)*
X221742000Y-108331000D02*
X220980000Y-108331000D01*
X225171000Y-111760000D02*
X221742000Y-108331000D01*
G04 #@! TO.N,Net-(J6-Pad3)*
X223266000Y-125857000D02*
X220980000Y-125857000D01*
X226695000Y-129286000D02*
X223266000Y-125857000D01*
G04 #@! TO.N,Net-(J7-Pad3)*
X220980000Y-141633000D02*
X224155000Y-138458000D01*
X220980000Y-143383000D02*
X220980000Y-141633000D01*
X226695000Y-133140946D02*
X226695000Y-132207000D01*
X224155000Y-136653410D02*
X226695000Y-134113410D01*
X224155000Y-138458000D02*
X224155000Y-136653410D01*
X226695000Y-134113410D02*
X226695000Y-133140946D01*
G04 #@! TO.N,Net-(JP3-Pad1)*
X197612000Y-101854000D02*
X199009000Y-103251000D01*
X195326000Y-101854000D02*
X197612000Y-101854000D01*
G04 #@! TO.N,Net-(R12-Pad2)*
X215011000Y-71247000D02*
X215900000Y-71247000D01*
X207301999Y-53937001D02*
X209714999Y-53937001D01*
X213487000Y-57785000D02*
X213487000Y-69723000D01*
X217170000Y-72517000D02*
X217170000Y-76454000D01*
X215900000Y-71247000D02*
X217170000Y-72517000D01*
X213741000Y-52451000D02*
X214884000Y-53594000D01*
X214884000Y-56388000D02*
X213487000Y-57785000D01*
X213487000Y-69723000D02*
X215011000Y-71247000D01*
X209714999Y-53937001D02*
X211201000Y-52451000D01*
X211201000Y-52451000D02*
X213741000Y-52451000D01*
X214884000Y-53594000D02*
X214884000Y-56388000D01*
X206502000Y-54737000D02*
X207301999Y-53937001D01*
G04 #@! TD*
D26*
G04 #@! TO.N,+5V*
G36*
X192458466Y-46130138D02*
X192240000Y-46657561D01*
X192240000Y-47228439D01*
X192458466Y-47755862D01*
X192862138Y-48159534D01*
X193389561Y-48378000D01*
X193960439Y-48378000D01*
X194487862Y-48159534D01*
X194891534Y-47755862D01*
X195110000Y-47228439D01*
X195110000Y-46657561D01*
X194891534Y-46130138D01*
X194683396Y-45922000D01*
X198087513Y-45922000D01*
X197847423Y-46082423D01*
X197530260Y-46557091D01*
X197418887Y-47117000D01*
X197530260Y-47676909D01*
X197847423Y-48151577D01*
X198199758Y-48387000D01*
X197847423Y-48622423D01*
X197530260Y-49097091D01*
X197418887Y-49657000D01*
X197530260Y-50216909D01*
X197847423Y-50691577D01*
X198199758Y-50927000D01*
X197847423Y-51162423D01*
X197530260Y-51637091D01*
X197418887Y-52197000D01*
X197530260Y-52756909D01*
X197847423Y-53231577D01*
X198199758Y-53467000D01*
X197847423Y-53702423D01*
X197530260Y-54177091D01*
X197418887Y-54737000D01*
X197530260Y-55296909D01*
X197847423Y-55771577D01*
X198199758Y-56007000D01*
X197847423Y-56242423D01*
X197530260Y-56717091D01*
X197418887Y-57277000D01*
X197530260Y-57836909D01*
X197847423Y-58311577D01*
X198199758Y-58547000D01*
X197847423Y-58782423D01*
X197530260Y-59257091D01*
X197418887Y-59817000D01*
X197530260Y-60376909D01*
X197847423Y-60851577D01*
X198231108Y-61107947D01*
X198026866Y-61204611D01*
X197650959Y-61619577D01*
X197490096Y-62007961D01*
X197612085Y-62230000D01*
X198755000Y-62230000D01*
X198755000Y-62210000D01*
X199009000Y-62210000D01*
X199009000Y-62230000D01*
X200151915Y-62230000D01*
X200273904Y-62007961D01*
X200113041Y-61619577D01*
X199737134Y-61204611D01*
X199532892Y-61107947D01*
X199916577Y-60851577D01*
X200233740Y-60376909D01*
X200345113Y-59817000D01*
X200233740Y-59257091D01*
X199916577Y-58782423D01*
X199564242Y-58547000D01*
X199916577Y-58311577D01*
X200233740Y-57836909D01*
X200345113Y-57277000D01*
X200233740Y-56717091D01*
X199916577Y-56242423D01*
X199564242Y-56007000D01*
X199916577Y-55771577D01*
X200233740Y-55296909D01*
X200345113Y-54737000D01*
X200233740Y-54177091D01*
X199916577Y-53702423D01*
X199564242Y-53467000D01*
X199916577Y-53231577D01*
X200233740Y-52756909D01*
X200345113Y-52197000D01*
X200233740Y-51637091D01*
X199916577Y-51162423D01*
X199564242Y-50927000D01*
X199916577Y-50691577D01*
X200233740Y-50216909D01*
X200345113Y-49657000D01*
X200233740Y-49097091D01*
X199916577Y-48622423D01*
X199564242Y-48387000D01*
X199916577Y-48151577D01*
X200233740Y-47676909D01*
X200345113Y-47117000D01*
X200233740Y-46557091D01*
X199916577Y-46082423D01*
X199676487Y-45922000D01*
X205707513Y-45922000D01*
X205467423Y-46082423D01*
X205150260Y-46557091D01*
X205038887Y-47117000D01*
X205150260Y-47676909D01*
X205467423Y-48151577D01*
X205819758Y-48387000D01*
X205467423Y-48622423D01*
X205150260Y-49097091D01*
X205038887Y-49657000D01*
X205150260Y-50216909D01*
X205467423Y-50691577D01*
X205819758Y-50927000D01*
X205467423Y-51162423D01*
X205150260Y-51637091D01*
X205038887Y-52197000D01*
X205150260Y-52756909D01*
X205467423Y-53231577D01*
X205819758Y-53467000D01*
X205467423Y-53702423D01*
X205150260Y-54177091D01*
X205038887Y-54737000D01*
X205150260Y-55296909D01*
X205467423Y-55771577D01*
X205819758Y-56007000D01*
X205467423Y-56242423D01*
X205150260Y-56717091D01*
X205038887Y-57277000D01*
X205150260Y-57836909D01*
X205467423Y-58311577D01*
X205742000Y-58495044D01*
X205742000Y-58598956D01*
X205467423Y-58782423D01*
X205150260Y-59257091D01*
X205038887Y-59817000D01*
X205150260Y-60376909D01*
X205467423Y-60851577D01*
X205588106Y-60932215D01*
X205454235Y-60958843D01*
X205244191Y-61099191D01*
X205103843Y-61309235D01*
X205054560Y-61557000D01*
X205054560Y-63157000D01*
X205103843Y-63404765D01*
X205244191Y-63614809D01*
X205454235Y-63755157D01*
X205702000Y-63804440D01*
X207302000Y-63804440D01*
X207549765Y-63755157D01*
X207759809Y-63614809D01*
X207900157Y-63404765D01*
X207932135Y-63244000D01*
X208713153Y-63244000D01*
X208788000Y-63258888D01*
X208862847Y-63244000D01*
X208862852Y-63244000D01*
X209084537Y-63199904D01*
X209335929Y-63031929D01*
X209378331Y-62968470D01*
X210669476Y-61677327D01*
X210732929Y-61634929D01*
X210775327Y-61571476D01*
X210775329Y-61571474D01*
X210900903Y-61383538D01*
X210900904Y-61383537D01*
X210945000Y-61161852D01*
X210945000Y-61161848D01*
X210959888Y-61087001D01*
X210945000Y-61012154D01*
X210945000Y-60166430D01*
X210997862Y-60144534D01*
X211401534Y-59740862D01*
X211457000Y-59606955D01*
X211457001Y-71096560D01*
X211317000Y-71096560D01*
X211069235Y-71145843D01*
X210859191Y-71286191D01*
X210718843Y-71496235D01*
X210669560Y-71744000D01*
X210669560Y-73544000D01*
X210718843Y-73791765D01*
X210859191Y-74001809D01*
X211069235Y-74142157D01*
X211317000Y-74191440D01*
X213117000Y-74191440D01*
X213364765Y-74142157D01*
X213574809Y-74001809D01*
X213715157Y-73791765D01*
X213718275Y-73776092D01*
X213887493Y-73945310D01*
X214451670Y-74179000D01*
X215062330Y-74179000D01*
X215626507Y-73945310D01*
X216058310Y-73513507D01*
X216292000Y-72949330D01*
X216292000Y-72713802D01*
X216410000Y-72831802D01*
X216410001Y-75382027D01*
X216071813Y-75720215D01*
X215874600Y-76196329D01*
X215874600Y-76711671D01*
X216071813Y-77187785D01*
X216436215Y-77552187D01*
X216912329Y-77749400D01*
X217427671Y-77749400D01*
X217903785Y-77552187D01*
X218268187Y-77187785D01*
X218465400Y-76711671D01*
X218465400Y-76196329D01*
X218268187Y-75720215D01*
X217930000Y-75382028D01*
X217930000Y-74428008D01*
X218190751Y-74818249D01*
X218896964Y-75290126D01*
X219519721Y-75414000D01*
X222440279Y-75414000D01*
X223063036Y-75290126D01*
X223124953Y-75248754D01*
X223663871Y-75787673D01*
X223494600Y-76196329D01*
X223494600Y-76711671D01*
X223691813Y-77187785D01*
X224056215Y-77552187D01*
X224532329Y-77749400D01*
X225047671Y-77749400D01*
X225523785Y-77552187D01*
X225888187Y-77187785D01*
X226085400Y-76711671D01*
X226085400Y-76196329D01*
X225888187Y-75720215D01*
X225523785Y-75355813D01*
X225289725Y-75258862D01*
X225274473Y-75248671D01*
X224199754Y-74173953D01*
X224241126Y-74112036D01*
X224406827Y-73279000D01*
X224241126Y-72445964D01*
X223769249Y-71739751D01*
X223063036Y-71267874D01*
X222440279Y-71144000D01*
X219519721Y-71144000D01*
X218896964Y-71267874D01*
X218190751Y-71739751D01*
X217877727Y-72208225D01*
X217717929Y-71969071D01*
X217654473Y-71926671D01*
X216777331Y-71049529D01*
X217439249Y-70607249D01*
X217911126Y-69901036D01*
X218035000Y-69278279D01*
X218035000Y-66457151D01*
X218190751Y-66690249D01*
X218896964Y-67162126D01*
X219519721Y-67286000D01*
X222440279Y-67286000D01*
X223063036Y-67162126D01*
X223769249Y-66690249D01*
X224241126Y-65984036D01*
X224406827Y-65151000D01*
X224241126Y-64317964D01*
X223769249Y-63611751D01*
X223063036Y-63139874D01*
X222440279Y-63016000D01*
X219519721Y-63016000D01*
X218896964Y-63139874D01*
X218190751Y-63611751D01*
X217718874Y-64317964D01*
X217553173Y-65151000D01*
X217566839Y-65219702D01*
X217439249Y-65028751D01*
X216733035Y-64556874D01*
X215900000Y-64391173D01*
X215066964Y-64556874D01*
X214360751Y-65028751D01*
X214247000Y-65198991D01*
X214247000Y-60019396D01*
X214372138Y-60144534D01*
X214899561Y-60363000D01*
X215470439Y-60363000D01*
X215997862Y-60144534D01*
X216401534Y-59740862D01*
X216423430Y-59688000D01*
X216606028Y-59688000D01*
X216918001Y-59999973D01*
X216918001Y-60147560D01*
X216878000Y-60147560D01*
X216630235Y-60196843D01*
X216420191Y-60337191D01*
X216279843Y-60547235D01*
X216230560Y-60795000D01*
X216230560Y-62395000D01*
X216279843Y-62642765D01*
X216420191Y-62852809D01*
X216630235Y-62993157D01*
X216878000Y-63042440D01*
X218478000Y-63042440D01*
X218725765Y-62993157D01*
X218935809Y-62852809D01*
X219076157Y-62642765D01*
X219125440Y-62395000D01*
X219125440Y-60795000D01*
X219076157Y-60547235D01*
X218935809Y-60337191D01*
X218725765Y-60196843D01*
X218478000Y-60147560D01*
X218438000Y-60147560D01*
X218438000Y-59999972D01*
X218776187Y-59661785D01*
X218973400Y-59185671D01*
X218973400Y-58670329D01*
X218776187Y-58194215D01*
X218411785Y-57829813D01*
X217935671Y-57632600D01*
X217420329Y-57632600D01*
X216944215Y-57829813D01*
X216606028Y-58168000D01*
X216423430Y-58168000D01*
X216401534Y-58115138D01*
X215997862Y-57711466D01*
X215470439Y-57493000D01*
X214899561Y-57493000D01*
X214821446Y-57525356D01*
X215368476Y-56978327D01*
X215431929Y-56935929D01*
X215474327Y-56872476D01*
X215474329Y-56872474D01*
X215599903Y-56684538D01*
X215599904Y-56684537D01*
X215644000Y-56462852D01*
X215644000Y-56462848D01*
X215658888Y-56388001D01*
X215644000Y-56313154D01*
X215644000Y-55626000D01*
X217553173Y-55626000D01*
X217718874Y-56459036D01*
X218190751Y-57165249D01*
X218896964Y-57637126D01*
X219519721Y-57761000D01*
X220323206Y-57761000D01*
X220432071Y-57923929D01*
X220495530Y-57966331D01*
X221941673Y-59412476D01*
X221984071Y-59475929D01*
X222047524Y-59518327D01*
X222047526Y-59518329D01*
X222172902Y-59602102D01*
X222235463Y-59643904D01*
X222457148Y-59688000D01*
X222457152Y-59688000D01*
X222531999Y-59702888D01*
X222606846Y-59688000D01*
X224226028Y-59688000D01*
X224564215Y-60026187D01*
X224974667Y-60196202D01*
X224738091Y-60243260D01*
X224263423Y-60560423D01*
X223946260Y-61035091D01*
X223834887Y-61595000D01*
X223946260Y-62154909D01*
X224263423Y-62629577D01*
X224738091Y-62946740D01*
X225156667Y-63030000D01*
X225439333Y-63030000D01*
X225857909Y-62946740D01*
X226332577Y-62629577D01*
X226649740Y-62154909D01*
X226761113Y-61595000D01*
X226649740Y-61035091D01*
X226332577Y-60560423D01*
X225857909Y-60243260D01*
X225621333Y-60196202D01*
X226031785Y-60026187D01*
X226396187Y-59661785D01*
X226593400Y-59185671D01*
X226593400Y-58670329D01*
X226396187Y-58194215D01*
X226031785Y-57829813D01*
X225555671Y-57632600D01*
X225040329Y-57632600D01*
X224564215Y-57829813D01*
X224226028Y-58168000D01*
X222846803Y-58168000D01*
X222439802Y-57761000D01*
X222440279Y-57761000D01*
X223063036Y-57637126D01*
X223769249Y-57165249D01*
X224241126Y-56459036D01*
X224406827Y-55626000D01*
X224241126Y-54792964D01*
X223769249Y-54086751D01*
X223063036Y-53614874D01*
X222440279Y-53491000D01*
X219519721Y-53491000D01*
X218896964Y-53614874D01*
X218190751Y-54086751D01*
X217718874Y-54792964D01*
X217553173Y-55626000D01*
X215644000Y-55626000D01*
X215644000Y-53668846D01*
X215658888Y-53593999D01*
X215648505Y-53541802D01*
X215900000Y-53591827D01*
X216733036Y-53426126D01*
X217439249Y-52954249D01*
X217911126Y-52248036D01*
X218035000Y-51625279D01*
X218035000Y-48804151D01*
X218190751Y-49037249D01*
X218896964Y-49509126D01*
X219519721Y-49633000D01*
X222440279Y-49633000D01*
X223063036Y-49509126D01*
X223769249Y-49037249D01*
X224241126Y-48331036D01*
X224406827Y-47498000D01*
X224241126Y-46664964D01*
X223769249Y-45958751D01*
X223714247Y-45922000D01*
X227128001Y-45922000D01*
X227128001Y-47810873D01*
X226893035Y-47653874D01*
X226060000Y-47488173D01*
X225226964Y-47653874D01*
X224520751Y-48125751D01*
X224048874Y-48831965D01*
X223925000Y-49454722D01*
X223925000Y-50875279D01*
X224048874Y-51498036D01*
X224520752Y-52204249D01*
X225226965Y-52676126D01*
X226060000Y-52841827D01*
X226893036Y-52676126D01*
X227128001Y-52519127D01*
X227128001Y-65463873D01*
X226893035Y-65306874D01*
X226060000Y-65141173D01*
X225226964Y-65306874D01*
X224520751Y-65778751D01*
X224048874Y-66484965D01*
X223925000Y-67107722D01*
X223925000Y-68528279D01*
X224048874Y-69151036D01*
X224520752Y-69857249D01*
X225226965Y-70329126D01*
X226060000Y-70494827D01*
X226893036Y-70329126D01*
X227128001Y-70172127D01*
X227128001Y-82989873D01*
X226893035Y-82832874D01*
X226060000Y-82667173D01*
X225226964Y-82832874D01*
X224520751Y-83304751D01*
X224048874Y-84010965D01*
X223925000Y-84633722D01*
X223925000Y-86054279D01*
X224048874Y-86677036D01*
X224520752Y-87383249D01*
X225226965Y-87855126D01*
X226060000Y-88020827D01*
X226893036Y-87855126D01*
X227128001Y-87698128D01*
X227128000Y-100515873D01*
X226893035Y-100358874D01*
X226060000Y-100193173D01*
X225226964Y-100358874D01*
X224520751Y-100830751D01*
X224048874Y-101536965D01*
X223925000Y-102159722D01*
X223925000Y-103580279D01*
X224048874Y-104203036D01*
X224520752Y-104909249D01*
X225226965Y-105381126D01*
X226060000Y-105546827D01*
X226893036Y-105381126D01*
X227128000Y-105224128D01*
X227128000Y-118041873D01*
X226893035Y-117884874D01*
X226060000Y-117719173D01*
X225226964Y-117884874D01*
X224520751Y-118356751D01*
X224048874Y-119062965D01*
X223925000Y-119685722D01*
X223925000Y-121106279D01*
X224048874Y-121729036D01*
X224520752Y-122435249D01*
X225226965Y-122907126D01*
X226060000Y-123072827D01*
X226893036Y-122907126D01*
X227128000Y-122750128D01*
X227128000Y-128063224D01*
X226952671Y-127990600D01*
X226474403Y-127990600D01*
X224395873Y-125912071D01*
X224406827Y-125857000D01*
X224241126Y-125023964D01*
X223769249Y-124317751D01*
X223063036Y-123845874D01*
X222440279Y-123722000D01*
X219519721Y-123722000D01*
X218896964Y-123845874D01*
X218664990Y-124000874D01*
X218664990Y-119585126D01*
X218896964Y-119740126D01*
X219519721Y-119864000D01*
X222440279Y-119864000D01*
X223063036Y-119740126D01*
X223769249Y-119268249D01*
X224241126Y-118562036D01*
X224406827Y-117729000D01*
X224241126Y-116895964D01*
X223769249Y-116189751D01*
X223063036Y-115717874D01*
X222440279Y-115594000D01*
X219519721Y-115594000D01*
X218896964Y-115717874D01*
X218190751Y-116189751D01*
X217850209Y-116699407D01*
X216465956Y-115315155D01*
X216534999Y-115328888D01*
X216606661Y-115314633D01*
X216944215Y-115652187D01*
X217420329Y-115849400D01*
X217935671Y-115849400D01*
X218411785Y-115652187D01*
X218776187Y-115287785D01*
X218973400Y-114811671D01*
X218973400Y-114296329D01*
X224002600Y-114296329D01*
X224002600Y-114811671D01*
X224199813Y-115287785D01*
X224564215Y-115652187D01*
X225040329Y-115849400D01*
X225555671Y-115849400D01*
X226031785Y-115652187D01*
X226396187Y-115287785D01*
X226593400Y-114811671D01*
X226593400Y-114296329D01*
X226396187Y-113820215D01*
X226031785Y-113455813D01*
X225555671Y-113258600D01*
X225040329Y-113258600D01*
X224564215Y-113455813D01*
X224199813Y-113820215D01*
X224002600Y-114296329D01*
X218973400Y-114296329D01*
X218776187Y-113820215D01*
X218411785Y-113455813D01*
X217935671Y-113258600D01*
X217420329Y-113258600D01*
X216944215Y-113455813D01*
X216727915Y-113672113D01*
X212850000Y-109794199D01*
X212850000Y-109243440D01*
X212990000Y-109243440D01*
X213237765Y-109194157D01*
X213447809Y-109053809D01*
X213588157Y-108843765D01*
X213591275Y-108828092D01*
X213760493Y-108997310D01*
X213870000Y-109042669D01*
X213870000Y-109780153D01*
X213855112Y-109855000D01*
X213870000Y-109929847D01*
X213870000Y-109929851D01*
X213914096Y-110151536D01*
X214082071Y-110402929D01*
X214145530Y-110445331D01*
X215944671Y-112244473D01*
X215987071Y-112307929D01*
X216050527Y-112350329D01*
X216238462Y-112475904D01*
X216286605Y-112485480D01*
X216460148Y-112520000D01*
X216460152Y-112520000D01*
X216483715Y-112524687D01*
X216817215Y-112858187D01*
X217293329Y-113055400D01*
X217808671Y-113055400D01*
X218284785Y-112858187D01*
X218649187Y-112493785D01*
X218846400Y-112017671D01*
X218846400Y-111502329D01*
X218649187Y-111026215D01*
X218284785Y-110661813D01*
X217808671Y-110464600D01*
X217293329Y-110464600D01*
X216817215Y-110661813D01*
X216664415Y-110814613D01*
X215390000Y-109540199D01*
X215390000Y-109042669D01*
X215499507Y-108997310D01*
X215931310Y-108565507D01*
X216028446Y-108331000D01*
X217553173Y-108331000D01*
X217718874Y-109164036D01*
X218190751Y-109870249D01*
X218896964Y-110342126D01*
X219519721Y-110466000D01*
X222440279Y-110466000D01*
X222742152Y-110405954D01*
X223875600Y-111539403D01*
X223875600Y-112017671D01*
X224072813Y-112493785D01*
X224437215Y-112858187D01*
X224913329Y-113055400D01*
X225428671Y-113055400D01*
X225904785Y-112858187D01*
X226269187Y-112493785D01*
X226466400Y-112017671D01*
X226466400Y-111502329D01*
X226269187Y-111026215D01*
X225904785Y-110661813D01*
X225428671Y-110464600D01*
X224950403Y-110464600D01*
X224004289Y-109518487D01*
X224241126Y-109164036D01*
X224406827Y-108331000D01*
X224241126Y-107497964D01*
X223769249Y-106791751D01*
X223063036Y-106319874D01*
X222440279Y-106196000D01*
X219519721Y-106196000D01*
X218896964Y-106319874D01*
X218190751Y-106791751D01*
X217718874Y-107497964D01*
X217553173Y-108331000D01*
X216028446Y-108331000D01*
X216165000Y-108001330D01*
X216165000Y-107390670D01*
X215931310Y-106826493D01*
X215499507Y-106394690D01*
X214935330Y-106161000D01*
X214490001Y-106161000D01*
X214490001Y-105745611D01*
X215066965Y-106131126D01*
X215900000Y-106296827D01*
X216733036Y-106131126D01*
X217439249Y-105659249D01*
X217911126Y-104953036D01*
X218035000Y-104330279D01*
X218035000Y-101509151D01*
X218190751Y-101742249D01*
X218896964Y-102214126D01*
X219519721Y-102338000D01*
X222440279Y-102338000D01*
X223063036Y-102214126D01*
X223769249Y-101742249D01*
X224241126Y-101036036D01*
X224406827Y-100203000D01*
X224241126Y-99369964D01*
X223769249Y-98663751D01*
X223063036Y-98191874D01*
X222440279Y-98068000D01*
X219591114Y-98068000D01*
X219595888Y-98044001D01*
X219581000Y-97969154D01*
X219581000Y-96770329D01*
X223748600Y-96770329D01*
X223748600Y-97285671D01*
X223945813Y-97761785D01*
X224310215Y-98126187D01*
X224786329Y-98323400D01*
X225301671Y-98323400D01*
X225777785Y-98126187D01*
X226142187Y-97761785D01*
X226339400Y-97285671D01*
X226339400Y-96770329D01*
X226142187Y-96294215D01*
X225777785Y-95929813D01*
X225301671Y-95732600D01*
X224786329Y-95732600D01*
X224310215Y-95929813D01*
X223945813Y-96294215D01*
X223748600Y-96770329D01*
X219581000Y-96770329D01*
X219581000Y-93165846D01*
X219595888Y-93090999D01*
X219581000Y-93016152D01*
X219581000Y-93016148D01*
X219565853Y-92940000D01*
X222440279Y-92940000D01*
X222636223Y-92901024D01*
X223748600Y-94013403D01*
X223748600Y-94491671D01*
X223945813Y-94967785D01*
X224310215Y-95332187D01*
X224786329Y-95529400D01*
X225301671Y-95529400D01*
X225777785Y-95332187D01*
X226142187Y-94967785D01*
X226339400Y-94491671D01*
X226339400Y-93976329D01*
X226142187Y-93500215D01*
X225777785Y-93135813D01*
X225301671Y-92938600D01*
X224823403Y-92938600D01*
X223953420Y-92068618D01*
X224241126Y-91638036D01*
X224406827Y-90805000D01*
X224241126Y-89971964D01*
X223769249Y-89265751D01*
X223063036Y-88793874D01*
X222440279Y-88670000D01*
X219519721Y-88670000D01*
X218896964Y-88793874D01*
X218190751Y-89265751D01*
X217718874Y-89971964D01*
X217562568Y-90757767D01*
X217168000Y-90363199D01*
X217168000Y-89736852D01*
X217182889Y-89662000D01*
X217123904Y-89365463D01*
X216955929Y-89114071D01*
X216829327Y-89029478D01*
X216459403Y-88659555D01*
X216733036Y-88605126D01*
X217439249Y-88133249D01*
X217911126Y-87427036D01*
X218035000Y-86804279D01*
X218035000Y-83983151D01*
X218190751Y-84216249D01*
X218896964Y-84688126D01*
X219519721Y-84812000D01*
X222440279Y-84812000D01*
X223063036Y-84688126D01*
X223769249Y-84216249D01*
X224241126Y-83510036D01*
X224406827Y-82677000D01*
X224241126Y-81843964D01*
X223769249Y-81137751D01*
X223063036Y-80665874D01*
X222440279Y-80542000D01*
X219519721Y-80542000D01*
X218896964Y-80665874D01*
X218190751Y-81137751D01*
X217718874Y-81843964D01*
X217553173Y-82677000D01*
X217566839Y-82745702D01*
X217439249Y-82554751D01*
X216733035Y-82082874D01*
X215900000Y-81917173D01*
X215066964Y-82082874D01*
X214360751Y-82554751D01*
X213888874Y-83260965D01*
X213765000Y-83883722D01*
X213765000Y-86706198D01*
X209421000Y-82362199D01*
X209421000Y-80579736D01*
X209595235Y-80696157D01*
X209843000Y-80745440D01*
X211543000Y-80745440D01*
X211790765Y-80696157D01*
X212000809Y-80555809D01*
X212141157Y-80345765D01*
X212150184Y-80300381D01*
X212162375Y-80318625D01*
X212653582Y-80646839D01*
X213086744Y-80733000D01*
X213379256Y-80733000D01*
X213812418Y-80646839D01*
X214303625Y-80318625D01*
X214631839Y-79827418D01*
X214747092Y-79248000D01*
X214746362Y-79244329D01*
X215874600Y-79244329D01*
X215874600Y-79759671D01*
X216071813Y-80235785D01*
X216436215Y-80600187D01*
X216912329Y-80797400D01*
X217427671Y-80797400D01*
X217903785Y-80600187D01*
X218095414Y-80408558D01*
X224063047Y-80408558D01*
X224120009Y-80640229D01*
X224606590Y-80809981D01*
X225121094Y-80780605D01*
X225459991Y-80640229D01*
X225516953Y-80408558D01*
X224790000Y-79681605D01*
X224063047Y-80408558D01*
X218095414Y-80408558D01*
X218268187Y-80235785D01*
X218465400Y-79759671D01*
X218465400Y-79318590D01*
X223482019Y-79318590D01*
X223511395Y-79833094D01*
X223651771Y-80171991D01*
X223883442Y-80228953D01*
X224610395Y-79502000D01*
X224969605Y-79502000D01*
X225696558Y-80228953D01*
X225928229Y-80171991D01*
X226097981Y-79685410D01*
X226068605Y-79170906D01*
X225928229Y-78832009D01*
X225696558Y-78775047D01*
X224969605Y-79502000D01*
X224610395Y-79502000D01*
X223883442Y-78775047D01*
X223651771Y-78832009D01*
X223482019Y-79318590D01*
X218465400Y-79318590D01*
X218465400Y-79244329D01*
X218268187Y-78768215D01*
X218095414Y-78595442D01*
X224063047Y-78595442D01*
X224790000Y-79322395D01*
X225516953Y-78595442D01*
X225459991Y-78363771D01*
X224973410Y-78194019D01*
X224458906Y-78223395D01*
X224120009Y-78363771D01*
X224063047Y-78595442D01*
X218095414Y-78595442D01*
X217903785Y-78403813D01*
X217427671Y-78206600D01*
X216912329Y-78206600D01*
X216436215Y-78403813D01*
X216071813Y-78768215D01*
X215874600Y-79244329D01*
X214746362Y-79244329D01*
X214631839Y-78668582D01*
X214303625Y-78177375D01*
X213812418Y-77849161D01*
X213379256Y-77763000D01*
X213086744Y-77763000D01*
X212866592Y-77806791D01*
X210310000Y-75250199D01*
X210310000Y-71516430D01*
X210362862Y-71494534D01*
X210766534Y-71090862D01*
X210985000Y-70563439D01*
X210985000Y-69992561D01*
X210766534Y-69465138D01*
X210362862Y-69061466D01*
X210123678Y-68962393D01*
X210209468Y-68834000D01*
X210265904Y-68749538D01*
X210308088Y-68537463D01*
X210310000Y-68527852D01*
X210310000Y-68527848D01*
X210324888Y-68453000D01*
X210310000Y-68378152D01*
X210310000Y-66516430D01*
X210362862Y-66494534D01*
X210766534Y-66090862D01*
X210985000Y-65563439D01*
X210985000Y-64992561D01*
X210766534Y-64465138D01*
X210362862Y-64061466D01*
X209835439Y-63843000D01*
X209264561Y-63843000D01*
X208737138Y-64061466D01*
X208333466Y-64465138D01*
X208115000Y-64992561D01*
X208115000Y-65026000D01*
X207573972Y-65026000D01*
X207235785Y-64687813D01*
X206759671Y-64490600D01*
X206244329Y-64490600D01*
X205768215Y-64687813D01*
X205403813Y-65052215D01*
X205206600Y-65528329D01*
X205206600Y-66043671D01*
X205403813Y-66519785D01*
X205768215Y-66884187D01*
X206244329Y-67081400D01*
X206759671Y-67081400D01*
X207235785Y-66884187D01*
X207573972Y-66546000D01*
X208790001Y-66546000D01*
X208790000Y-68138198D01*
X207923128Y-69005071D01*
X207898915Y-68961000D01*
X206756000Y-68961000D01*
X206756000Y-68981000D01*
X206502000Y-68981000D01*
X206502000Y-68961000D01*
X205359085Y-68961000D01*
X205237096Y-69183039D01*
X205397959Y-69571423D01*
X205773866Y-69986389D01*
X205978108Y-70083053D01*
X205594423Y-70339423D01*
X205277260Y-70814091D01*
X205165887Y-71374000D01*
X205277260Y-71933909D01*
X205594423Y-72408577D01*
X205946758Y-72644000D01*
X205594423Y-72879423D01*
X205277260Y-73354091D01*
X205165887Y-73914000D01*
X205277260Y-74473909D01*
X205594423Y-74948577D01*
X205946758Y-75184000D01*
X205594423Y-75419423D01*
X205277260Y-75894091D01*
X205165887Y-76454000D01*
X205230312Y-76777886D01*
X202504199Y-79504000D01*
X200370668Y-79504000D01*
X200472113Y-78994000D01*
X200360740Y-78434091D01*
X200043577Y-77959423D01*
X199691242Y-77724000D01*
X200043577Y-77488577D01*
X200360740Y-77013909D01*
X200472113Y-76454000D01*
X200360740Y-75894091D01*
X200043577Y-75419423D01*
X199691242Y-75184000D01*
X200043577Y-74948577D01*
X200360740Y-74473909D01*
X200472113Y-73914000D01*
X200360740Y-73354091D01*
X200043577Y-72879423D01*
X199691242Y-72644000D01*
X200043577Y-72408577D01*
X200360740Y-71933909D01*
X200472113Y-71374000D01*
X200360740Y-70814091D01*
X200043577Y-70339423D01*
X199922894Y-70258785D01*
X200056765Y-70232157D01*
X200266809Y-70091809D01*
X200407157Y-69881765D01*
X200456440Y-69634000D01*
X200456440Y-69482483D01*
X200606929Y-69381929D01*
X200774904Y-69130537D01*
X200833889Y-68834000D01*
X200774904Y-68537463D01*
X200739824Y-68484961D01*
X205237096Y-68484961D01*
X205359085Y-68707000D01*
X206502000Y-68707000D01*
X206502000Y-67563371D01*
X206756000Y-67563371D01*
X206756000Y-68707000D01*
X207898915Y-68707000D01*
X208020904Y-68484961D01*
X207860041Y-68096577D01*
X207484134Y-67681611D01*
X206978041Y-67442086D01*
X206756000Y-67563371D01*
X206502000Y-67563371D01*
X206279959Y-67442086D01*
X205773866Y-67681611D01*
X205397959Y-68096577D01*
X205237096Y-68484961D01*
X200739824Y-68484961D01*
X200606929Y-68286071D01*
X200456440Y-68185517D01*
X200456440Y-68034000D01*
X200407157Y-67786235D01*
X200266809Y-67576191D01*
X200056765Y-67435843D01*
X199809000Y-67386560D01*
X198209000Y-67386560D01*
X197961235Y-67435843D01*
X197751191Y-67576191D01*
X197610843Y-67786235D01*
X197561560Y-68034000D01*
X197561560Y-68851759D01*
X197356000Y-68646199D01*
X197356000Y-66692558D01*
X198155047Y-66692558D01*
X198212009Y-66924229D01*
X198698590Y-67093981D01*
X199213094Y-67064605D01*
X199551991Y-66924229D01*
X199608953Y-66692558D01*
X198882000Y-65965605D01*
X198155047Y-66692558D01*
X197356000Y-66692558D01*
X197356000Y-65602590D01*
X197574019Y-65602590D01*
X197603395Y-66117094D01*
X197743771Y-66455991D01*
X197975442Y-66512953D01*
X198702395Y-65786000D01*
X199061605Y-65786000D01*
X199788558Y-66512953D01*
X200020229Y-66455991D01*
X200189981Y-65969410D01*
X200160605Y-65454906D01*
X200020229Y-65116009D01*
X199788558Y-65059047D01*
X199061605Y-65786000D01*
X198702395Y-65786000D01*
X197975442Y-65059047D01*
X197743771Y-65116009D01*
X197574019Y-65602590D01*
X197356000Y-65602590D01*
X197356000Y-64879442D01*
X198155047Y-64879442D01*
X198882000Y-65606395D01*
X199608953Y-64879442D01*
X199551991Y-64647771D01*
X199065410Y-64478019D01*
X198550906Y-64507395D01*
X198212009Y-64647771D01*
X198155047Y-64879442D01*
X197356000Y-64879442D01*
X197356000Y-64336848D01*
X197370888Y-64262000D01*
X197356000Y-64187152D01*
X197356000Y-64187148D01*
X197311904Y-63965463D01*
X197311904Y-63965462D01*
X197186329Y-63777527D01*
X197143929Y-63714071D01*
X197080473Y-63671671D01*
X196114841Y-62706039D01*
X197490096Y-62706039D01*
X197650959Y-63094423D01*
X198026866Y-63509389D01*
X198532959Y-63748914D01*
X198755000Y-63627629D01*
X198755000Y-62484000D01*
X199009000Y-62484000D01*
X199009000Y-63627629D01*
X199231041Y-63748914D01*
X199737134Y-63509389D01*
X200113041Y-63094423D01*
X200273904Y-62706039D01*
X200151915Y-62484000D01*
X199009000Y-62484000D01*
X198755000Y-62484000D01*
X197612085Y-62484000D01*
X197490096Y-62706039D01*
X196114841Y-62706039D01*
X194265331Y-60856530D01*
X194222929Y-60793071D01*
X193971537Y-60625096D01*
X193749852Y-60581000D01*
X193749847Y-60581000D01*
X193675000Y-60566112D01*
X193600153Y-60581000D01*
X193598440Y-60581000D01*
X193598440Y-60541000D01*
X193549157Y-60293235D01*
X193408809Y-60083191D01*
X193198765Y-59942843D01*
X192951000Y-59893560D01*
X191351000Y-59893560D01*
X191103235Y-59942843D01*
X190893191Y-60083191D01*
X190752843Y-60293235D01*
X190703560Y-60541000D01*
X190703560Y-61993758D01*
X189566331Y-60856530D01*
X189523929Y-60793071D01*
X189272537Y-60625096D01*
X189050852Y-60581000D01*
X189050847Y-60581000D01*
X188976000Y-60566112D01*
X188901153Y-60581000D01*
X186365802Y-60581000D01*
X186864802Y-60082000D01*
X187423330Y-60082000D01*
X187987507Y-59848310D01*
X188419310Y-59416507D01*
X188653000Y-58852330D01*
X188653000Y-58241670D01*
X188419310Y-57677493D01*
X187987507Y-57245690D01*
X187423330Y-57012000D01*
X186812670Y-57012000D01*
X186248493Y-57245690D01*
X185816690Y-57677493D01*
X185813461Y-57685290D01*
X185698159Y-57646446D01*
X184797605Y-58547000D01*
X184811748Y-58561143D01*
X184632143Y-58740748D01*
X184618000Y-58726605D01*
X183717446Y-59627159D01*
X183803852Y-59883643D01*
X184049761Y-59973611D01*
X183971091Y-59989260D01*
X183496423Y-60306423D01*
X183312957Y-60581000D01*
X183303846Y-60581000D01*
X183228999Y-60566112D01*
X183154152Y-60581000D01*
X183154148Y-60581000D01*
X182932463Y-60625096D01*
X182932461Y-60625097D01*
X182932462Y-60625097D01*
X182744526Y-60750671D01*
X182744524Y-60750673D01*
X182681071Y-60793071D01*
X182638673Y-60856524D01*
X182043301Y-61451896D01*
X181990439Y-61430000D01*
X181419561Y-61430000D01*
X180958856Y-61620830D01*
X180864698Y-61526673D01*
X180631309Y-61430000D01*
X179990750Y-61430000D01*
X179832000Y-61588750D01*
X179832000Y-62738000D01*
X179852000Y-62738000D01*
X179852000Y-62992000D01*
X179832000Y-62992000D01*
X179832000Y-64141250D01*
X179990750Y-64300000D01*
X180631309Y-64300000D01*
X180864698Y-64203327D01*
X180958856Y-64109170D01*
X181419561Y-64300000D01*
X181990439Y-64300000D01*
X182517862Y-64081534D01*
X182921534Y-63677862D01*
X182949874Y-63609442D01*
X184058047Y-63609442D01*
X184785000Y-64336395D01*
X185511953Y-63609442D01*
X185454991Y-63377771D01*
X184968410Y-63208019D01*
X184453906Y-63237395D01*
X184115009Y-63377771D01*
X184058047Y-63609442D01*
X182949874Y-63609442D01*
X183140000Y-63150439D01*
X183140000Y-62579561D01*
X183118104Y-62526699D01*
X183405420Y-62239382D01*
X183496423Y-62375577D01*
X183971091Y-62692740D01*
X184389667Y-62776000D01*
X184672333Y-62776000D01*
X185090909Y-62692740D01*
X185565577Y-62375577D01*
X185749043Y-62101000D01*
X188661199Y-62101000D01*
X190163670Y-63603472D01*
X190206071Y-63666929D01*
X190269527Y-63709329D01*
X190457462Y-63834904D01*
X190498164Y-63843000D01*
X190679148Y-63879000D01*
X190679152Y-63879000D01*
X190754000Y-63893888D01*
X190828848Y-63879000D01*
X191266723Y-63879000D01*
X191109600Y-64258329D01*
X191109600Y-64773671D01*
X191306813Y-65249785D01*
X191645001Y-65587973D01*
X191645001Y-66473148D01*
X191630112Y-66548000D01*
X191689097Y-66844537D01*
X191803713Y-67016071D01*
X191857072Y-67095929D01*
X191920528Y-67138329D01*
X192007897Y-67225698D01*
X191986000Y-67278561D01*
X191986000Y-67849439D01*
X192204466Y-68376862D01*
X192608138Y-68780534D01*
X193135561Y-68999000D01*
X193706439Y-68999000D01*
X193759302Y-68977104D01*
X193786001Y-69003803D01*
X193786002Y-70900149D01*
X193771113Y-70975001D01*
X193810303Y-71172022D01*
X193706439Y-71129000D01*
X193135561Y-71129000D01*
X192608138Y-71347466D01*
X192204466Y-71751138D01*
X191986000Y-72278561D01*
X191986000Y-72849439D01*
X192010789Y-72909284D01*
X191905097Y-73067463D01*
X191861001Y-73289148D01*
X191861001Y-73289152D01*
X191846113Y-73363999D01*
X191861001Y-73438846D01*
X191861002Y-77230149D01*
X191846113Y-77305001D01*
X191905098Y-77601538D01*
X192012984Y-77763000D01*
X192073073Y-77852930D01*
X192136529Y-77895330D01*
X193249791Y-79008593D01*
X193176908Y-79375000D01*
X193290905Y-79948103D01*
X192487331Y-79144530D01*
X192444929Y-79081071D01*
X192193537Y-78913096D01*
X191971852Y-78869000D01*
X191971847Y-78869000D01*
X191897000Y-78854112D01*
X191822153Y-78869000D01*
X188464669Y-78869000D01*
X188419310Y-78759493D01*
X187987507Y-78327690D01*
X187423330Y-78094000D01*
X186812670Y-78094000D01*
X186248493Y-78327690D01*
X185816690Y-78759493D01*
X185813461Y-78767290D01*
X185698159Y-78728446D01*
X184797605Y-79629000D01*
X184811748Y-79643143D01*
X184632143Y-79822748D01*
X184618000Y-79808605D01*
X183717446Y-80709159D01*
X183803852Y-80965643D01*
X184274631Y-81137882D01*
X183971091Y-81198260D01*
X183496423Y-81515423D01*
X183312957Y-81790000D01*
X183303846Y-81790000D01*
X183228999Y-81775112D01*
X183154152Y-81790000D01*
X183154148Y-81790000D01*
X182932463Y-81834096D01*
X182932461Y-81834097D01*
X182932462Y-81834097D01*
X182744526Y-81959671D01*
X182744524Y-81959673D01*
X182681071Y-82002071D01*
X182638673Y-82065524D01*
X182043301Y-82660896D01*
X181990439Y-82639000D01*
X181419561Y-82639000D01*
X180958856Y-82829830D01*
X180864698Y-82735673D01*
X180631309Y-82639000D01*
X179990750Y-82639000D01*
X179832000Y-82797750D01*
X179832000Y-83947000D01*
X179852000Y-83947000D01*
X179852000Y-84201000D01*
X179832000Y-84201000D01*
X179832000Y-85350250D01*
X179990750Y-85509000D01*
X180631309Y-85509000D01*
X180864698Y-85412327D01*
X180958856Y-85318170D01*
X181419561Y-85509000D01*
X181990439Y-85509000D01*
X182298919Y-85381223D01*
X183846035Y-85381223D01*
X183873222Y-85951454D01*
X184039136Y-86352005D01*
X184285255Y-86426139D01*
X185113395Y-85598000D01*
X185472605Y-85598000D01*
X186300745Y-86426139D01*
X186546864Y-86352005D01*
X186739965Y-85814777D01*
X186716021Y-85312561D01*
X188858000Y-85312561D01*
X188858000Y-85883439D01*
X189076466Y-86410862D01*
X189480138Y-86814534D01*
X190007561Y-87033000D01*
X190578439Y-87033000D01*
X191105862Y-86814534D01*
X191509534Y-86410862D01*
X191728000Y-85883439D01*
X191728000Y-85312561D01*
X191509534Y-84785138D01*
X191105862Y-84381466D01*
X190578439Y-84163000D01*
X190007561Y-84163000D01*
X189480138Y-84381466D01*
X189076466Y-84785138D01*
X188858000Y-85312561D01*
X186716021Y-85312561D01*
X186712778Y-85244546D01*
X186546864Y-84843995D01*
X186300745Y-84769861D01*
X185472605Y-85598000D01*
X185113395Y-85598000D01*
X184285255Y-84769861D01*
X184039136Y-84843995D01*
X183846035Y-85381223D01*
X182298919Y-85381223D01*
X182517862Y-85290534D01*
X182921534Y-84886862D01*
X183044392Y-84590255D01*
X184464861Y-84590255D01*
X185293000Y-85418395D01*
X186121139Y-84590255D01*
X186047005Y-84344136D01*
X185509777Y-84151035D01*
X184939546Y-84178222D01*
X184538995Y-84344136D01*
X184464861Y-84590255D01*
X183044392Y-84590255D01*
X183140000Y-84359439D01*
X183140000Y-83788561D01*
X183118104Y-83735699D01*
X183405420Y-83448382D01*
X183496423Y-83584577D01*
X183971091Y-83901740D01*
X184389667Y-83985000D01*
X184672333Y-83985000D01*
X185090909Y-83901740D01*
X185565577Y-83584577D01*
X185882740Y-83109909D01*
X185883880Y-83104177D01*
X186083299Y-82970929D01*
X186125701Y-82907470D01*
X186285470Y-82747701D01*
X186348929Y-82705299D01*
X186516904Y-82453907D01*
X186561000Y-82232222D01*
X186561000Y-82232218D01*
X186575888Y-82157370D01*
X186561000Y-82082522D01*
X186561000Y-81260801D01*
X186703161Y-81118640D01*
X186812670Y-81164000D01*
X187423330Y-81164000D01*
X187987507Y-80930310D01*
X188419310Y-80498507D01*
X188464669Y-80389000D01*
X191582199Y-80389000D01*
X192295758Y-81102560D01*
X191351000Y-81102560D01*
X191103235Y-81151843D01*
X190893191Y-81292191D01*
X190752843Y-81502235D01*
X190703560Y-81750000D01*
X190703560Y-83350000D01*
X190752843Y-83597765D01*
X190893191Y-83807809D01*
X191103235Y-83948157D01*
X191351000Y-83997440D01*
X191634639Y-83997440D01*
X193719671Y-86082473D01*
X193762071Y-86145929D01*
X194013463Y-86313904D01*
X194235148Y-86358000D01*
X194235152Y-86358000D01*
X194309999Y-86372888D01*
X194384846Y-86358000D01*
X205030153Y-86358000D01*
X205105000Y-86372888D01*
X205179847Y-86358000D01*
X205179852Y-86358000D01*
X205401537Y-86313904D01*
X205652929Y-86145929D01*
X205695331Y-86082470D01*
X206305114Y-85472688D01*
X206487667Y-85509000D01*
X206770333Y-85509000D01*
X207188909Y-85425740D01*
X207663577Y-85108577D01*
X207980740Y-84633909D01*
X208071388Y-84178190D01*
X212515758Y-88622560D01*
X211317000Y-88622560D01*
X211069235Y-88671843D01*
X210859191Y-88812191D01*
X210718843Y-89022235D01*
X210669560Y-89270000D01*
X210669560Y-91070000D01*
X210718843Y-91317765D01*
X210859191Y-91527809D01*
X211069235Y-91668157D01*
X211317000Y-91717440D01*
X211457000Y-91717440D01*
X211457000Y-91746153D01*
X211442112Y-91821000D01*
X211457000Y-91895847D01*
X211457000Y-91895851D01*
X211501096Y-92117536D01*
X211669071Y-92368929D01*
X211732530Y-92411331D01*
X216128600Y-96807402D01*
X216128600Y-97285671D01*
X216325813Y-97761785D01*
X216356028Y-97792000D01*
X215593848Y-97792000D01*
X215519000Y-97777112D01*
X215444152Y-97792000D01*
X215444148Y-97792000D01*
X215270605Y-97826520D01*
X215222462Y-97836096D01*
X215165044Y-97874462D01*
X214971071Y-98004071D01*
X214928671Y-98067527D01*
X213129528Y-99866671D01*
X213066072Y-99909071D01*
X212898096Y-100160463D01*
X212854000Y-100382148D01*
X212854000Y-100382153D01*
X212839112Y-100457000D01*
X212854000Y-100531847D01*
X212854000Y-100996200D01*
X212839112Y-101071047D01*
X212854000Y-101145894D01*
X212854000Y-101145898D01*
X212898096Y-101367583D01*
X212981001Y-101491659D01*
X212981000Y-104760858D01*
X212955113Y-104891001D01*
X212970002Y-104965853D01*
X212970001Y-106148560D01*
X211190000Y-106148560D01*
X210942235Y-106197843D01*
X210732191Y-106338191D01*
X210591843Y-106548235D01*
X210542560Y-106796000D01*
X210542560Y-108596000D01*
X210591843Y-108843765D01*
X210732191Y-109053809D01*
X210942235Y-109194157D01*
X211190000Y-109243440D01*
X211330000Y-109243440D01*
X211330000Y-110034153D01*
X211315112Y-110109000D01*
X211328846Y-110178045D01*
X209294000Y-108143199D01*
X209294000Y-102690848D01*
X209308888Y-102616000D01*
X209294000Y-102541152D01*
X209294000Y-102541148D01*
X209249904Y-102319463D01*
X209249904Y-102319462D01*
X209124329Y-102131527D01*
X209081929Y-102068071D01*
X209018473Y-102025671D01*
X208027688Y-101034886D01*
X208092113Y-100711000D01*
X207980740Y-100151091D01*
X207663577Y-99676423D01*
X207311242Y-99441000D01*
X207663577Y-99205577D01*
X207980740Y-98730909D01*
X208092113Y-98171000D01*
X207980740Y-97611091D01*
X207663577Y-97136423D01*
X207279892Y-96880053D01*
X207484134Y-96783389D01*
X207860041Y-96368423D01*
X208020904Y-95980039D01*
X207898915Y-95758000D01*
X206756000Y-95758000D01*
X206756000Y-95778000D01*
X206502000Y-95778000D01*
X206502000Y-95758000D01*
X205359085Y-95758000D01*
X205334872Y-95802071D01*
X205192001Y-95659200D01*
X205192001Y-95281961D01*
X205237096Y-95281961D01*
X205359085Y-95504000D01*
X206502000Y-95504000D01*
X206502000Y-94360371D01*
X206756000Y-94360371D01*
X206756000Y-95504000D01*
X207898915Y-95504000D01*
X208020904Y-95281961D01*
X207860041Y-94893577D01*
X207484134Y-94478611D01*
X206978041Y-94239086D01*
X206756000Y-94360371D01*
X206502000Y-94360371D01*
X206279959Y-94239086D01*
X205773866Y-94478611D01*
X205397959Y-94893577D01*
X205237096Y-95281961D01*
X205192001Y-95281961D01*
X205192001Y-93235558D01*
X206029047Y-93235558D01*
X206086009Y-93467229D01*
X206572590Y-93636981D01*
X207087094Y-93607605D01*
X207425991Y-93467229D01*
X207482953Y-93235558D01*
X206756000Y-92508605D01*
X206029047Y-93235558D01*
X205192001Y-93235558D01*
X205192001Y-92145590D01*
X205448019Y-92145590D01*
X205477395Y-92660094D01*
X205617771Y-92998991D01*
X205849442Y-93055953D01*
X206576395Y-92329000D01*
X206935605Y-92329000D01*
X207662558Y-93055953D01*
X207894229Y-92998991D01*
X208063981Y-92512410D01*
X208034605Y-91997906D01*
X207894229Y-91659009D01*
X207662558Y-91602047D01*
X206935605Y-92329000D01*
X206576395Y-92329000D01*
X205849442Y-91602047D01*
X205617771Y-91659009D01*
X205448019Y-92145590D01*
X205192001Y-92145590D01*
X205192001Y-91422442D01*
X206029047Y-91422442D01*
X206756000Y-92149395D01*
X207482953Y-91422442D01*
X207425991Y-91190771D01*
X206939410Y-91021019D01*
X206424906Y-91050395D01*
X206086009Y-91190771D01*
X206029047Y-91422442D01*
X205192001Y-91422442D01*
X205192001Y-90335000D01*
X205517439Y-90335000D01*
X206044862Y-90116534D01*
X206448534Y-89712862D01*
X206667000Y-89185439D01*
X206667000Y-88614561D01*
X206448534Y-88087138D01*
X206044862Y-87683466D01*
X205517439Y-87465000D01*
X204946561Y-87465000D01*
X204419138Y-87683466D01*
X204015466Y-88087138D01*
X203993570Y-88140000D01*
X202639846Y-88140000D01*
X202564999Y-88125112D01*
X202490152Y-88140000D01*
X202490148Y-88140000D01*
X202268463Y-88184096D01*
X202268461Y-88184097D01*
X202268462Y-88184097D01*
X202080526Y-88309671D01*
X202080524Y-88309673D01*
X202017071Y-88352071D01*
X201974673Y-88415524D01*
X201667000Y-88723197D01*
X201667000Y-88614561D01*
X201448534Y-88087138D01*
X201044862Y-87683466D01*
X200517439Y-87465000D01*
X199946561Y-87465000D01*
X199419138Y-87683466D01*
X199015466Y-88087138D01*
X198993570Y-88140000D01*
X197239178Y-88140000D01*
X197031625Y-87829375D01*
X196540418Y-87501161D01*
X196107256Y-87415000D01*
X195814744Y-87415000D01*
X195381582Y-87501161D01*
X194890375Y-87829375D01*
X194562161Y-88320582D01*
X194446908Y-88900000D01*
X194562161Y-89479418D01*
X194890375Y-89970625D01*
X194908619Y-89982816D01*
X194863235Y-89991843D01*
X194653191Y-90132191D01*
X194512843Y-90342235D01*
X194463560Y-90590000D01*
X194463560Y-92290000D01*
X194512843Y-92537765D01*
X194653191Y-92747809D01*
X194863235Y-92888157D01*
X195111000Y-92937440D01*
X196811000Y-92937440D01*
X197058765Y-92888157D01*
X197268809Y-92747809D01*
X197409157Y-92537765D01*
X197458440Y-92290000D01*
X197458440Y-90590000D01*
X197409157Y-90342235D01*
X197268809Y-90132191D01*
X197058765Y-89991843D01*
X197013381Y-89982816D01*
X197031625Y-89970625D01*
X197239178Y-89660000D01*
X198993570Y-89660000D01*
X199015466Y-89712862D01*
X199419138Y-90116534D01*
X199946561Y-90335000D01*
X200055198Y-90335000D01*
X199356599Y-91033600D01*
X198878329Y-91033600D01*
X198402215Y-91230813D01*
X198037813Y-91595215D01*
X197840600Y-92071329D01*
X197840600Y-92586671D01*
X198037813Y-93062785D01*
X198402215Y-93427187D01*
X198878329Y-93624400D01*
X199393671Y-93624400D01*
X199869785Y-93427187D01*
X200234187Y-93062785D01*
X200431400Y-92586671D01*
X200431400Y-92108401D01*
X202879803Y-89660000D01*
X203665069Y-89660000D01*
X203657113Y-89699999D01*
X203672001Y-89774846D01*
X203672002Y-95899149D01*
X203657113Y-95974001D01*
X203672002Y-96048853D01*
X203716098Y-96270538D01*
X203884073Y-96521930D01*
X203947529Y-96564330D01*
X205230312Y-97847115D01*
X205165887Y-98171000D01*
X205277260Y-98730909D01*
X205594423Y-99205577D01*
X205946758Y-99441000D01*
X205594423Y-99676423D01*
X205277260Y-100151091D01*
X205165887Y-100711000D01*
X205277260Y-101270909D01*
X205594423Y-101745577D01*
X205946758Y-101981000D01*
X205594423Y-102216423D01*
X205277260Y-102691091D01*
X205165887Y-103251000D01*
X205230312Y-103574886D01*
X202504199Y-106301000D01*
X200370668Y-106301000D01*
X200472113Y-105791000D01*
X200360740Y-105231091D01*
X200043577Y-104756423D01*
X199691242Y-104521000D01*
X200043577Y-104285577D01*
X200360740Y-103810909D01*
X200472113Y-103251000D01*
X200360740Y-102691091D01*
X200043577Y-102216423D01*
X199691242Y-101981000D01*
X200043577Y-101745577D01*
X200360740Y-101270909D01*
X200472113Y-100711000D01*
X200360740Y-100151091D01*
X200043577Y-99676423D01*
X199691242Y-99441000D01*
X200043577Y-99205577D01*
X200360740Y-98730909D01*
X200472113Y-98171000D01*
X200360740Y-97611091D01*
X200043577Y-97136423D01*
X199922894Y-97055785D01*
X200056765Y-97029157D01*
X200266809Y-96888809D01*
X200407157Y-96678765D01*
X200456440Y-96431000D01*
X200456440Y-94831000D01*
X200407157Y-94583235D01*
X200266809Y-94373191D01*
X200056765Y-94232843D01*
X199809000Y-94183560D01*
X198209000Y-94183560D01*
X197961235Y-94232843D01*
X197751191Y-94373191D01*
X197610843Y-94583235D01*
X197561560Y-94831000D01*
X197561560Y-96431000D01*
X197610843Y-96678765D01*
X197751191Y-96888809D01*
X197961235Y-97029157D01*
X198095106Y-97055785D01*
X197974423Y-97136423D01*
X197657260Y-97611091D01*
X197545887Y-98171000D01*
X197657260Y-98730909D01*
X197878488Y-99062000D01*
X193114847Y-99062000D01*
X193040000Y-99047112D01*
X192965153Y-99062000D01*
X192965148Y-99062000D01*
X192743463Y-99106096D01*
X192492071Y-99274071D01*
X192449671Y-99337527D01*
X191836199Y-99951000D01*
X188464669Y-99951000D01*
X188419310Y-99841493D01*
X187987507Y-99409690D01*
X187423330Y-99176000D01*
X186812670Y-99176000D01*
X186248493Y-99409690D01*
X185816690Y-99841493D01*
X185813461Y-99849290D01*
X185698159Y-99810446D01*
X184797605Y-100711000D01*
X184811748Y-100725143D01*
X184632143Y-100904748D01*
X184618000Y-100890605D01*
X183717446Y-101791159D01*
X183803852Y-102047643D01*
X184274631Y-102219882D01*
X183971091Y-102280260D01*
X183496423Y-102597423D01*
X183179260Y-103072091D01*
X183067887Y-103632000D01*
X183132312Y-103955886D01*
X182769797Y-104318401D01*
X182390862Y-103939466D01*
X181863439Y-103721000D01*
X181292561Y-103721000D01*
X180831856Y-103911830D01*
X180737698Y-103817673D01*
X180504309Y-103721000D01*
X179863750Y-103721000D01*
X179705000Y-103879750D01*
X179705000Y-105029000D01*
X179725000Y-105029000D01*
X179725000Y-105283000D01*
X179705000Y-105283000D01*
X179705000Y-106432250D01*
X179863750Y-106591000D01*
X180504309Y-106591000D01*
X180737698Y-106494327D01*
X180831856Y-106400170D01*
X181292561Y-106591000D01*
X181863439Y-106591000D01*
X181865314Y-106590223D01*
X183211035Y-106590223D01*
X183238222Y-107160454D01*
X183404136Y-107561005D01*
X183650255Y-107635139D01*
X184478395Y-106807000D01*
X184837605Y-106807000D01*
X185665745Y-107635139D01*
X185911864Y-107561005D01*
X186104965Y-107023777D01*
X186081021Y-106521561D01*
X188223000Y-106521561D01*
X188223000Y-107092439D01*
X188441466Y-107619862D01*
X188845138Y-108023534D01*
X189372561Y-108242000D01*
X189943439Y-108242000D01*
X190470862Y-108023534D01*
X190874534Y-107619862D01*
X191093000Y-107092439D01*
X191093000Y-106521561D01*
X190874534Y-105994138D01*
X190470862Y-105590466D01*
X189943439Y-105372000D01*
X189372561Y-105372000D01*
X188845138Y-105590466D01*
X188441466Y-105994138D01*
X188223000Y-106521561D01*
X186081021Y-106521561D01*
X186077778Y-106453546D01*
X185911864Y-106052995D01*
X185665745Y-105978861D01*
X184837605Y-106807000D01*
X184478395Y-106807000D01*
X183650255Y-105978861D01*
X183404136Y-106052995D01*
X183211035Y-106590223D01*
X181865314Y-106590223D01*
X182390862Y-106372534D01*
X182794534Y-105968862D01*
X182816430Y-105916000D01*
X182932153Y-105916000D01*
X183007000Y-105930888D01*
X183081847Y-105916000D01*
X183081852Y-105916000D01*
X183303537Y-105871904D01*
X183412263Y-105799255D01*
X183829861Y-105799255D01*
X184658000Y-106627395D01*
X185486139Y-105799255D01*
X185412005Y-105553136D01*
X184874777Y-105360035D01*
X184304546Y-105387222D01*
X183903995Y-105553136D01*
X183829861Y-105799255D01*
X183412263Y-105799255D01*
X183554929Y-105703929D01*
X183597331Y-105640470D01*
X184207114Y-105030688D01*
X184389667Y-105067000D01*
X184672333Y-105067000D01*
X185090909Y-104983740D01*
X185565577Y-104666577D01*
X185882740Y-104191909D01*
X185994113Y-103632000D01*
X185929688Y-103308114D01*
X186405802Y-102832000D01*
X190703560Y-102832000D01*
X190703560Y-104432000D01*
X190752843Y-104679765D01*
X190893191Y-104889809D01*
X191103235Y-105030157D01*
X191351000Y-105079440D01*
X192951000Y-105079440D01*
X193198765Y-105030157D01*
X193408809Y-104889809D01*
X193549157Y-104679765D01*
X193598440Y-104432000D01*
X193598440Y-102832000D01*
X193549157Y-102584235D01*
X193408809Y-102374191D01*
X193198765Y-102233843D01*
X192951000Y-102184560D01*
X191351000Y-102184560D01*
X191103235Y-102233843D01*
X190893191Y-102374191D01*
X190752843Y-102584235D01*
X190703560Y-102832000D01*
X186405802Y-102832000D01*
X186991802Y-102246000D01*
X187423330Y-102246000D01*
X187987507Y-102012310D01*
X188419310Y-101580507D01*
X188464669Y-101471000D01*
X192076153Y-101471000D01*
X192151000Y-101485888D01*
X192225847Y-101471000D01*
X192225852Y-101471000D01*
X192447537Y-101426904D01*
X192698929Y-101258929D01*
X192741331Y-101195470D01*
X193354802Y-100582000D01*
X193994264Y-100582000D01*
X193877843Y-100756235D01*
X193828560Y-101004000D01*
X193828560Y-102704000D01*
X193877843Y-102951765D01*
X194018191Y-103161809D01*
X194228235Y-103302157D01*
X194273619Y-103311184D01*
X194255375Y-103323375D01*
X193927161Y-103814582D01*
X193811908Y-104394000D01*
X193927161Y-104973418D01*
X194255375Y-105464625D01*
X194566000Y-105672178D01*
X194566000Y-106445198D01*
X193632302Y-107378897D01*
X193579439Y-107357000D01*
X193008561Y-107357000D01*
X192481138Y-107575466D01*
X192077466Y-107979138D01*
X191859000Y-108506561D01*
X191859000Y-109077439D01*
X192077466Y-109604862D01*
X192481138Y-110008534D01*
X193008561Y-110227000D01*
X193324879Y-110227000D01*
X193334000Y-110272853D01*
X193333999Y-112357000D01*
X193008561Y-112357000D01*
X192481138Y-112575466D01*
X192077466Y-112979138D01*
X191859000Y-113506561D01*
X191859000Y-114077439D01*
X192077466Y-114604862D01*
X192481138Y-115008534D01*
X193008561Y-115227000D01*
X193579439Y-115227000D01*
X194106862Y-115008534D01*
X194439000Y-114676396D01*
X194439000Y-115266828D01*
X192682528Y-117023301D01*
X192619072Y-117065701D01*
X192576672Y-117129157D01*
X192576671Y-117129158D01*
X192451097Y-117317093D01*
X192409713Y-117525144D01*
X192132423Y-117710423D01*
X191815260Y-118185091D01*
X191703887Y-118745000D01*
X191815260Y-119304909D01*
X192132423Y-119779577D01*
X192407001Y-119963044D01*
X192407000Y-121891197D01*
X191092302Y-123205896D01*
X191039439Y-123184000D01*
X190468561Y-123184000D01*
X189941138Y-123402466D01*
X189871703Y-123471901D01*
X188607640Y-122207839D01*
X188653000Y-122098330D01*
X188653000Y-121487670D01*
X188419310Y-120923493D01*
X187987507Y-120491690D01*
X187423330Y-120258000D01*
X186812670Y-120258000D01*
X186248493Y-120491690D01*
X185816690Y-120923493D01*
X185813461Y-120931290D01*
X185698159Y-120892446D01*
X184797605Y-121793000D01*
X185698159Y-122693554D01*
X185813461Y-122654710D01*
X185816690Y-122662507D01*
X186248493Y-123094310D01*
X186812670Y-123328000D01*
X187423330Y-123328000D01*
X187532839Y-123282640D01*
X189353671Y-125103473D01*
X189396071Y-125166929D01*
X189439841Y-125196175D01*
X189509830Y-125365144D01*
X189415673Y-125459302D01*
X189319000Y-125692691D01*
X189319000Y-126333250D01*
X189477750Y-126492000D01*
X190627000Y-126492000D01*
X190627000Y-126472000D01*
X190881000Y-126472000D01*
X190881000Y-126492000D01*
X192030250Y-126492000D01*
X192189000Y-126333250D01*
X192189000Y-125692691D01*
X192092327Y-125459302D01*
X191998170Y-125365144D01*
X192189000Y-124904439D01*
X192189000Y-124333561D01*
X192167104Y-124280698D01*
X193651476Y-122796327D01*
X193714929Y-122753929D01*
X193757327Y-122690476D01*
X193757329Y-122690474D01*
X193882903Y-122502538D01*
X193882904Y-122502537D01*
X193927000Y-122280852D01*
X193927000Y-122280848D01*
X193941888Y-122206001D01*
X193927000Y-122131154D01*
X193927000Y-119963043D01*
X194201577Y-119779577D01*
X194518740Y-119304909D01*
X194630113Y-118745000D01*
X194518740Y-118185091D01*
X194201577Y-117710423D01*
X194167667Y-117687765D01*
X195683473Y-116171959D01*
X195746929Y-116129559D01*
X195832107Y-116002082D01*
X196158590Y-116115981D01*
X196673094Y-116086605D01*
X197011991Y-115946229D01*
X197068953Y-115714558D01*
X196342000Y-114987605D01*
X196327858Y-115001748D01*
X196148253Y-114822143D01*
X196162395Y-114808000D01*
X196521605Y-114808000D01*
X197248558Y-115534953D01*
X197480229Y-115477991D01*
X197649981Y-114991410D01*
X197620605Y-114476906D01*
X197480229Y-114138009D01*
X197248558Y-114081047D01*
X196521605Y-114808000D01*
X196162395Y-114808000D01*
X196148253Y-114793858D01*
X196327858Y-114614253D01*
X196342000Y-114628395D01*
X197068953Y-113901442D01*
X197011991Y-113669771D01*
X196525410Y-113500019D01*
X196010906Y-113529395D01*
X195959000Y-113550895D01*
X195959000Y-112201801D01*
X197609474Y-110551329D01*
X197545887Y-110871000D01*
X197657260Y-111430909D01*
X197974423Y-111905577D01*
X198449091Y-112222740D01*
X198867667Y-112306000D01*
X199150333Y-112306000D01*
X199568909Y-112222740D01*
X200043577Y-111905577D01*
X200360740Y-111430909D01*
X200472113Y-110871000D01*
X200360740Y-110311091D01*
X200043577Y-109836423D01*
X199691242Y-109601000D01*
X200043577Y-109365577D01*
X200360740Y-108890909D01*
X200472113Y-108331000D01*
X200370668Y-107821000D01*
X202744153Y-107821000D01*
X202819000Y-107835888D01*
X202893847Y-107821000D01*
X202893852Y-107821000D01*
X203115537Y-107776904D01*
X203366929Y-107608929D01*
X203409331Y-107545470D01*
X205166405Y-105788397D01*
X205165887Y-105791000D01*
X205277260Y-106350909D01*
X205594423Y-106825577D01*
X205946758Y-107061000D01*
X205594423Y-107296423D01*
X205277260Y-107771091D01*
X205165887Y-108331000D01*
X205277260Y-108890909D01*
X205594423Y-109365577D01*
X205946758Y-109601000D01*
X205594423Y-109836423D01*
X205277260Y-110311091D01*
X205165887Y-110871000D01*
X205230312Y-111194886D01*
X200302528Y-116122671D01*
X200239072Y-116165071D01*
X200196672Y-116228527D01*
X200196671Y-116228528D01*
X200071097Y-116416463D01*
X200012112Y-116713000D01*
X200027001Y-116787852D01*
X200027001Y-117297560D01*
X199987000Y-117297560D01*
X199739235Y-117346843D01*
X199529191Y-117487191D01*
X199388843Y-117697235D01*
X199339560Y-117945000D01*
X199339560Y-119545000D01*
X199388843Y-119792765D01*
X199529191Y-120002809D01*
X199739235Y-120143157D01*
X199987000Y-120192440D01*
X201587000Y-120192440D01*
X201834765Y-120143157D01*
X202044809Y-120002809D01*
X202185157Y-119792765D01*
X202234440Y-119545000D01*
X202234440Y-117945000D01*
X202185157Y-117697235D01*
X202044809Y-117487191D01*
X201834765Y-117346843D01*
X201587000Y-117297560D01*
X201547000Y-117297560D01*
X201547000Y-117027801D01*
X206305114Y-112269688D01*
X206487667Y-112306000D01*
X206770333Y-112306000D01*
X207188909Y-112222740D01*
X207663577Y-111905577D01*
X207980740Y-111430909D01*
X208092113Y-110871000D01*
X207980740Y-110311091D01*
X207663577Y-109836423D01*
X207311242Y-109601000D01*
X207663577Y-109365577D01*
X207944979Y-108944430D01*
X207986071Y-109005929D01*
X208049530Y-109048331D01*
X215987845Y-116986646D01*
X215900000Y-116969173D01*
X215066964Y-117134874D01*
X214360751Y-117606751D01*
X213888874Y-118312965D01*
X213765000Y-118935722D01*
X213765000Y-121856279D01*
X213888875Y-122479036D01*
X214360752Y-123185249D01*
X215066965Y-123657126D01*
X215900000Y-123822827D01*
X216733036Y-123657126D01*
X217144990Y-123381867D01*
X217144990Y-123918208D01*
X216159590Y-124903609D01*
X215931310Y-124352493D01*
X215499507Y-123920690D01*
X214935330Y-123687000D01*
X214324670Y-123687000D01*
X213760493Y-123920690D01*
X213591275Y-124089908D01*
X213588157Y-124074235D01*
X213447809Y-123864191D01*
X213237765Y-123723843D01*
X212990000Y-123674560D01*
X211190000Y-123674560D01*
X210942235Y-123723843D01*
X210732191Y-123864191D01*
X210591843Y-124074235D01*
X210542560Y-124322000D01*
X210542560Y-124573517D01*
X210474490Y-124619000D01*
X210392071Y-124674071D01*
X210349671Y-124737527D01*
X209065528Y-126021671D01*
X209002072Y-126064071D01*
X208959672Y-126127527D01*
X208959671Y-126127528D01*
X208894468Y-126225111D01*
X208834097Y-126315463D01*
X208794302Y-126515528D01*
X208775112Y-126612000D01*
X208790001Y-126686852D01*
X208790000Y-128214028D01*
X208451813Y-128552215D01*
X208254600Y-129028329D01*
X208254600Y-129455798D01*
X207643000Y-128844199D01*
X207643000Y-125932043D01*
X207917577Y-125748577D01*
X208234740Y-125273909D01*
X208346113Y-124714000D01*
X208234740Y-124154091D01*
X207917577Y-123679423D01*
X207442909Y-123362260D01*
X207024333Y-123279000D01*
X206741667Y-123279000D01*
X206323091Y-123362260D01*
X205848423Y-123679423D01*
X205549500Y-124126793D01*
X205250577Y-123679423D01*
X204775909Y-123362260D01*
X204357333Y-123279000D01*
X204074667Y-123279000D01*
X203656091Y-123362260D01*
X203181423Y-123679423D01*
X202882500Y-124126793D01*
X202583577Y-123679423D01*
X202108909Y-123362260D01*
X201690333Y-123279000D01*
X201407667Y-123279000D01*
X200989091Y-123362260D01*
X200514423Y-123679423D01*
X200215500Y-124126793D01*
X199916577Y-123679423D01*
X199441909Y-123362260D01*
X199023333Y-123279000D01*
X198740667Y-123279000D01*
X198322091Y-123362260D01*
X197847423Y-123679423D01*
X197548500Y-124126793D01*
X197249577Y-123679423D01*
X196774909Y-123362260D01*
X196356333Y-123279000D01*
X196073667Y-123279000D01*
X195655091Y-123362260D01*
X195180423Y-123679423D01*
X194863260Y-124154091D01*
X194751887Y-124714000D01*
X194863260Y-125273909D01*
X195180423Y-125748577D01*
X195655091Y-126065740D01*
X196073667Y-126149000D01*
X196356333Y-126149000D01*
X196774909Y-126065740D01*
X197249577Y-125748577D01*
X197548500Y-125301207D01*
X197847423Y-125748577D01*
X198322091Y-126065740D01*
X198740667Y-126149000D01*
X199023333Y-126149000D01*
X199441909Y-126065740D01*
X199916577Y-125748577D01*
X200215500Y-125301207D01*
X200514423Y-125748577D01*
X200989091Y-126065740D01*
X201407667Y-126149000D01*
X201690333Y-126149000D01*
X202108909Y-126065740D01*
X202583577Y-125748577D01*
X202882500Y-125301207D01*
X203181423Y-125748577D01*
X203656091Y-126065740D01*
X204074667Y-126149000D01*
X204357333Y-126149000D01*
X204775909Y-126065740D01*
X205250577Y-125748577D01*
X205549500Y-125301207D01*
X205848423Y-125748577D01*
X206123001Y-125932044D01*
X206123000Y-129084153D01*
X206108112Y-129159000D01*
X206123000Y-129233847D01*
X206123000Y-129233851D01*
X206167096Y-129455536D01*
X206335071Y-129706929D01*
X206398530Y-129749331D01*
X207535758Y-130886560D01*
X206083000Y-130886560D01*
X205835235Y-130935843D01*
X205625191Y-131076191D01*
X205549500Y-131189470D01*
X205473809Y-131076191D01*
X205263765Y-130935843D01*
X205016000Y-130886560D01*
X203416000Y-130886560D01*
X203168235Y-130935843D01*
X202958191Y-131076191D01*
X202882500Y-131189470D01*
X202806809Y-131076191D01*
X202596765Y-130935843D01*
X202349000Y-130886560D01*
X200749000Y-130886560D01*
X200501235Y-130935843D01*
X200291191Y-131076191D01*
X200215500Y-131189470D01*
X200139809Y-131076191D01*
X199929765Y-130935843D01*
X199682000Y-130886560D01*
X198082000Y-130886560D01*
X197834235Y-130935843D01*
X197624191Y-131076191D01*
X197548500Y-131189470D01*
X197472809Y-131076191D01*
X197262765Y-130935843D01*
X197015000Y-130886560D01*
X195415000Y-130886560D01*
X195167235Y-130935843D01*
X194957191Y-131076191D01*
X194816843Y-131286235D01*
X194767560Y-131534000D01*
X194767560Y-133134000D01*
X194816843Y-133381765D01*
X194954294Y-133587473D01*
X194864096Y-133722464D01*
X194820000Y-133944149D01*
X194820000Y-133944153D01*
X194805112Y-134019000D01*
X194820000Y-134093847D01*
X194820001Y-140895148D01*
X194805112Y-140970000D01*
X194820001Y-141044852D01*
X194841009Y-141150466D01*
X194864097Y-141266537D01*
X194984472Y-141446690D01*
X195032072Y-141517929D01*
X195095528Y-141560329D01*
X197402673Y-143867476D01*
X197445071Y-143930929D01*
X197508524Y-143973327D01*
X197508526Y-143973329D01*
X197622240Y-144049310D01*
X197696463Y-144098904D01*
X197918148Y-144143000D01*
X197918152Y-144143000D01*
X197992999Y-144157888D01*
X198067846Y-144143000D01*
X200178346Y-144143000D01*
X200192874Y-144216036D01*
X200265013Y-144324000D01*
X183129485Y-144324000D01*
X183315625Y-144199625D01*
X183643839Y-143708418D01*
X183759092Y-143129000D01*
X183686209Y-142762593D01*
X184083803Y-142365000D01*
X184407560Y-142365000D01*
X184407560Y-142605000D01*
X184456843Y-142852765D01*
X184597191Y-143062809D01*
X184807235Y-143203157D01*
X185055000Y-143252440D01*
X187055000Y-143252440D01*
X187302765Y-143203157D01*
X187512809Y-143062809D01*
X187653157Y-142852765D01*
X187692942Y-142652750D01*
X188557000Y-142652750D01*
X188557000Y-143293310D01*
X188653673Y-143526699D01*
X188832302Y-143705327D01*
X189065691Y-143802000D01*
X189706250Y-143802000D01*
X189865000Y-143643250D01*
X189865000Y-142494000D01*
X188715750Y-142494000D01*
X188557000Y-142652750D01*
X187692942Y-142652750D01*
X187702440Y-142605000D01*
X187702440Y-141440690D01*
X188557000Y-141440690D01*
X188557000Y-142081250D01*
X188715750Y-142240000D01*
X189865000Y-142240000D01*
X189865000Y-141090750D01*
X190119000Y-141090750D01*
X190119000Y-142240000D01*
X190139000Y-142240000D01*
X190139000Y-142494000D01*
X190119000Y-142494000D01*
X190119000Y-143643250D01*
X190277750Y-143802000D01*
X190918309Y-143802000D01*
X191151698Y-143705327D01*
X191245856Y-143611170D01*
X191706561Y-143802000D01*
X192277439Y-143802000D01*
X192804862Y-143583534D01*
X193208534Y-143179862D01*
X193427000Y-142652439D01*
X193427000Y-142081561D01*
X193208534Y-141554138D01*
X192804862Y-141150466D01*
X192277439Y-140932000D01*
X191706561Y-140932000D01*
X191245856Y-141122830D01*
X191151698Y-141028673D01*
X190918309Y-140932000D01*
X190277750Y-140932000D01*
X190119000Y-141090750D01*
X189865000Y-141090750D01*
X189706250Y-140932000D01*
X189065691Y-140932000D01*
X188832302Y-141028673D01*
X188653673Y-141207301D01*
X188557000Y-141440690D01*
X187702440Y-141440690D01*
X187702440Y-140605000D01*
X187653157Y-140357235D01*
X187512809Y-140147191D01*
X187302765Y-140006843D01*
X187055000Y-139957560D01*
X185055000Y-139957560D01*
X184807235Y-140006843D01*
X184597191Y-140147191D01*
X184456843Y-140357235D01*
X184407560Y-140605000D01*
X184407560Y-140845000D01*
X183843846Y-140845000D01*
X183768999Y-140830112D01*
X183708748Y-140842097D01*
X183759092Y-140589000D01*
X183643839Y-140009582D01*
X183315625Y-139518375D01*
X183017239Y-139319000D01*
X183315625Y-139119625D01*
X183643839Y-138628418D01*
X183759092Y-138049000D01*
X183643839Y-137469582D01*
X183315625Y-136978375D01*
X183017239Y-136779000D01*
X183315625Y-136579625D01*
X183643839Y-136088418D01*
X183759092Y-135509000D01*
X183686490Y-135144000D01*
X184407560Y-135144000D01*
X184407560Y-137144000D01*
X184456843Y-137391765D01*
X184597191Y-137601809D01*
X184807235Y-137742157D01*
X185055000Y-137791440D01*
X187055000Y-137791440D01*
X187302765Y-137742157D01*
X187413747Y-137668000D01*
X188985010Y-137668000D01*
X189119666Y-138344963D01*
X189503135Y-138918865D01*
X190077037Y-139302334D01*
X190583120Y-139403000D01*
X190924880Y-139403000D01*
X191430963Y-139302334D01*
X192004865Y-138918865D01*
X192388334Y-138344963D01*
X192522990Y-137668000D01*
X192388334Y-136991037D01*
X192004865Y-136417135D01*
X191430963Y-136033666D01*
X190924880Y-135933000D01*
X190583120Y-135933000D01*
X190077037Y-136033666D01*
X189503135Y-136417135D01*
X189119666Y-136991037D01*
X188985010Y-137668000D01*
X187413747Y-137668000D01*
X187512809Y-137601809D01*
X187653157Y-137391765D01*
X187702440Y-137144000D01*
X187702440Y-135144000D01*
X187653157Y-134896235D01*
X187512809Y-134686191D01*
X187302765Y-134545843D01*
X187055000Y-134496560D01*
X185055000Y-134496560D01*
X184807235Y-134545843D01*
X184597191Y-134686191D01*
X184456843Y-134896235D01*
X184407560Y-135144000D01*
X183686490Y-135144000D01*
X183643839Y-134929582D01*
X183315625Y-134438375D01*
X183017239Y-134239000D01*
X183315625Y-134039625D01*
X183523178Y-133729000D01*
X185071153Y-133729000D01*
X185146000Y-133743888D01*
X185220847Y-133729000D01*
X185220852Y-133729000D01*
X185442537Y-133684904D01*
X185693929Y-133516929D01*
X185736331Y-133453470D01*
X186539473Y-132650329D01*
X186602929Y-132607929D01*
X186703483Y-132457440D01*
X187055000Y-132457440D01*
X187302765Y-132408157D01*
X187512809Y-132267809D01*
X187653157Y-132057765D01*
X187702440Y-131810000D01*
X187702440Y-130333750D01*
X189019000Y-130333750D01*
X189019000Y-131274309D01*
X189115673Y-131507698D01*
X189294301Y-131686327D01*
X189527690Y-131783000D01*
X190468250Y-131783000D01*
X190627000Y-131624250D01*
X190627000Y-130175000D01*
X190881000Y-130175000D01*
X190881000Y-131624250D01*
X191039750Y-131783000D01*
X191980310Y-131783000D01*
X192213699Y-131686327D01*
X192392327Y-131507698D01*
X192489000Y-131274309D01*
X192489000Y-130333750D01*
X192330250Y-130175000D01*
X190881000Y-130175000D01*
X190627000Y-130175000D01*
X189177750Y-130175000D01*
X189019000Y-130333750D01*
X187702440Y-130333750D01*
X187702440Y-129810000D01*
X187653157Y-129562235D01*
X187512809Y-129352191D01*
X187302765Y-129211843D01*
X187055000Y-129162560D01*
X185055000Y-129162560D01*
X184807235Y-129211843D01*
X184597191Y-129352191D01*
X184456843Y-129562235D01*
X184407560Y-129810000D01*
X184407560Y-131810000D01*
X184456843Y-132057765D01*
X184557896Y-132209000D01*
X183523178Y-132209000D01*
X183315625Y-131898375D01*
X182996522Y-131685157D01*
X183126358Y-131624183D01*
X183516645Y-131195924D01*
X183686476Y-130785890D01*
X183565155Y-130556000D01*
X182372000Y-130556000D01*
X182372000Y-130576000D01*
X182118000Y-130576000D01*
X182118000Y-130556000D01*
X179832000Y-130556000D01*
X179832000Y-130576000D01*
X179578000Y-130576000D01*
X179578000Y-130556000D01*
X179558000Y-130556000D01*
X179558000Y-130302000D01*
X179578000Y-130302000D01*
X179578000Y-130282000D01*
X179832000Y-130282000D01*
X179832000Y-130302000D01*
X182118000Y-130302000D01*
X182118000Y-130282000D01*
X182372000Y-130282000D01*
X182372000Y-130302000D01*
X183565155Y-130302000D01*
X183686476Y-130072110D01*
X183516645Y-129662076D01*
X183126358Y-129233817D01*
X182996522Y-129172843D01*
X183315625Y-128959625D01*
X183407789Y-128821691D01*
X189019000Y-128821691D01*
X189019000Y-129762250D01*
X189177750Y-129921000D01*
X190627000Y-129921000D01*
X190627000Y-128471750D01*
X190881000Y-128471750D01*
X190881000Y-129921000D01*
X192330250Y-129921000D01*
X192489000Y-129762250D01*
X192489000Y-128821691D01*
X192392327Y-128588302D01*
X192213699Y-128409673D01*
X191980310Y-128313000D01*
X191039750Y-128313000D01*
X190881000Y-128471750D01*
X190627000Y-128471750D01*
X190468250Y-128313000D01*
X189527690Y-128313000D01*
X189294301Y-128409673D01*
X189115673Y-128588302D01*
X189019000Y-128821691D01*
X183407789Y-128821691D01*
X183643839Y-128468418D01*
X183759092Y-127889000D01*
X183643839Y-127309582D01*
X183315625Y-126818375D01*
X183017239Y-126619000D01*
X183315625Y-126419625D01*
X183643839Y-125928418D01*
X183676991Y-125761750D01*
X184420000Y-125761750D01*
X184420000Y-126602310D01*
X184516673Y-126835699D01*
X184695302Y-127014327D01*
X184928691Y-127111000D01*
X185769250Y-127111000D01*
X185928000Y-126952250D01*
X185928000Y-125603000D01*
X186182000Y-125603000D01*
X186182000Y-126952250D01*
X186340750Y-127111000D01*
X187181309Y-127111000D01*
X187414698Y-127014327D01*
X187524275Y-126904750D01*
X189319000Y-126904750D01*
X189319000Y-127545309D01*
X189415673Y-127778698D01*
X189594301Y-127957327D01*
X189827690Y-128054000D01*
X190468250Y-128054000D01*
X190627000Y-127895250D01*
X190627000Y-126746000D01*
X190881000Y-126746000D01*
X190881000Y-127895250D01*
X191039750Y-128054000D01*
X191680310Y-128054000D01*
X191913699Y-127957327D01*
X192092327Y-127778698D01*
X192189000Y-127545309D01*
X192189000Y-126904750D01*
X192030250Y-126746000D01*
X190881000Y-126746000D01*
X190627000Y-126746000D01*
X189477750Y-126746000D01*
X189319000Y-126904750D01*
X187524275Y-126904750D01*
X187593327Y-126835699D01*
X187690000Y-126602310D01*
X187690000Y-125761750D01*
X187531250Y-125603000D01*
X186182000Y-125603000D01*
X185928000Y-125603000D01*
X184578750Y-125603000D01*
X184420000Y-125761750D01*
X183676991Y-125761750D01*
X183759092Y-125349000D01*
X183643839Y-124769582D01*
X183363277Y-124349690D01*
X184420000Y-124349690D01*
X184420000Y-125190250D01*
X184578750Y-125349000D01*
X185928000Y-125349000D01*
X185928000Y-123999750D01*
X186182000Y-123999750D01*
X186182000Y-125349000D01*
X187531250Y-125349000D01*
X187690000Y-125190250D01*
X187690000Y-124349690D01*
X187593327Y-124116301D01*
X187414698Y-123937673D01*
X187181309Y-123841000D01*
X186340750Y-123841000D01*
X186182000Y-123999750D01*
X185928000Y-123999750D01*
X185769250Y-123841000D01*
X184928691Y-123841000D01*
X184695302Y-123937673D01*
X184516673Y-124116301D01*
X184420000Y-124349690D01*
X183363277Y-124349690D01*
X183315625Y-124278375D01*
X182824418Y-123950161D01*
X182391256Y-123864000D01*
X182098744Y-123864000D01*
X181665582Y-123950161D01*
X181174375Y-124278375D01*
X180975000Y-124576761D01*
X180775625Y-124278375D01*
X180284418Y-123950161D01*
X179851256Y-123864000D01*
X179558744Y-123864000D01*
X179125582Y-123950161D01*
X178637000Y-124276621D01*
X178637000Y-122873159D01*
X181217446Y-122873159D01*
X181303852Y-123129643D01*
X181877336Y-123339458D01*
X182487460Y-123313839D01*
X182932148Y-123129643D01*
X183018554Y-122873159D01*
X183717446Y-122873159D01*
X183803852Y-123129643D01*
X184377336Y-123339458D01*
X184987460Y-123313839D01*
X185432148Y-123129643D01*
X185518554Y-122873159D01*
X184618000Y-121972605D01*
X183717446Y-122873159D01*
X183018554Y-122873159D01*
X182118000Y-121972605D01*
X181217446Y-122873159D01*
X178637000Y-122873159D01*
X178637000Y-121552336D01*
X180571542Y-121552336D01*
X180597161Y-122162460D01*
X180781357Y-122607148D01*
X181037841Y-122693554D01*
X181938395Y-121793000D01*
X182297605Y-121793000D01*
X183198159Y-122693554D01*
X183368000Y-122636337D01*
X183537841Y-122693554D01*
X184438395Y-121793000D01*
X183537841Y-120892446D01*
X183368000Y-120949663D01*
X183198159Y-120892446D01*
X182297605Y-121793000D01*
X181938395Y-121793000D01*
X181037841Y-120892446D01*
X180781357Y-120978852D01*
X180571542Y-121552336D01*
X178637000Y-121552336D01*
X178637000Y-120712841D01*
X181217446Y-120712841D01*
X182118000Y-121613395D01*
X183018554Y-120712841D01*
X183717446Y-120712841D01*
X184618000Y-121613395D01*
X185518554Y-120712841D01*
X185432148Y-120456357D01*
X184858664Y-120246542D01*
X184248540Y-120272161D01*
X183803852Y-120456357D01*
X183717446Y-120712841D01*
X183018554Y-120712841D01*
X182932148Y-120456357D01*
X182358664Y-120246542D01*
X181748540Y-120272161D01*
X181303852Y-120456357D01*
X181217446Y-120712841D01*
X178637000Y-120712841D01*
X178637000Y-116938453D01*
X178725392Y-117026845D01*
X179693866Y-117428000D01*
X180742134Y-117428000D01*
X181710608Y-117026845D01*
X182451845Y-116285608D01*
X182853000Y-115317134D01*
X182853000Y-114268866D01*
X186383000Y-114268866D01*
X186383000Y-115317134D01*
X186784155Y-116285608D01*
X187525392Y-117026845D01*
X188493866Y-117428000D01*
X189542134Y-117428000D01*
X190510608Y-117026845D01*
X191251845Y-116285608D01*
X191653000Y-115317134D01*
X191653000Y-114268866D01*
X191251845Y-113300392D01*
X190510608Y-112559155D01*
X189542134Y-112158000D01*
X188493866Y-112158000D01*
X187525392Y-112559155D01*
X186784155Y-113300392D01*
X186383000Y-114268866D01*
X182853000Y-114268866D01*
X182451845Y-113300392D01*
X181710608Y-112559155D01*
X180742134Y-112158000D01*
X179693866Y-112158000D01*
X178725392Y-112559155D01*
X178637000Y-112647547D01*
X178637000Y-107814745D01*
X183829861Y-107814745D01*
X183903995Y-108060864D01*
X184441223Y-108253965D01*
X185011454Y-108226778D01*
X185412005Y-108060864D01*
X185486139Y-107814745D01*
X184658000Y-106986605D01*
X183829861Y-107814745D01*
X178637000Y-107814745D01*
X178637000Y-106584915D01*
X178651691Y-106591000D01*
X179292250Y-106591000D01*
X179451000Y-106432250D01*
X179451000Y-105283000D01*
X179431000Y-105283000D01*
X179431000Y-105029000D01*
X179451000Y-105029000D01*
X179451000Y-103879750D01*
X179292250Y-103721000D01*
X178651691Y-103721000D01*
X178637000Y-103727085D01*
X178637000Y-101791159D01*
X181217446Y-101791159D01*
X181303852Y-102047643D01*
X181877336Y-102257458D01*
X182487460Y-102231839D01*
X182932148Y-102047643D01*
X183018554Y-101791159D01*
X182118000Y-100890605D01*
X181217446Y-101791159D01*
X178637000Y-101791159D01*
X178637000Y-100470336D01*
X180571542Y-100470336D01*
X180597161Y-101080460D01*
X180781357Y-101525148D01*
X181037841Y-101611554D01*
X181938395Y-100711000D01*
X182297605Y-100711000D01*
X183198159Y-101611554D01*
X183368000Y-101554337D01*
X183537841Y-101611554D01*
X184438395Y-100711000D01*
X183537841Y-99810446D01*
X183368000Y-99867663D01*
X183198159Y-99810446D01*
X182297605Y-100711000D01*
X181938395Y-100711000D01*
X181037841Y-99810446D01*
X180781357Y-99896852D01*
X180571542Y-100470336D01*
X178637000Y-100470336D01*
X178637000Y-99630841D01*
X181217446Y-99630841D01*
X182118000Y-100531395D01*
X183018554Y-99630841D01*
X183717446Y-99630841D01*
X184618000Y-100531395D01*
X185518554Y-99630841D01*
X185432148Y-99374357D01*
X184858664Y-99164542D01*
X184248540Y-99190161D01*
X183803852Y-99374357D01*
X183717446Y-99630841D01*
X183018554Y-99630841D01*
X182932148Y-99374357D01*
X182358664Y-99164542D01*
X181748540Y-99190161D01*
X181303852Y-99374357D01*
X181217446Y-99630841D01*
X178637000Y-99630841D01*
X178637000Y-95856453D01*
X178725392Y-95944845D01*
X179693866Y-96346000D01*
X180742134Y-96346000D01*
X181710608Y-95944845D01*
X182451845Y-95203608D01*
X182853000Y-94235134D01*
X182853000Y-93186866D01*
X186383000Y-93186866D01*
X186383000Y-94235134D01*
X186784155Y-95203608D01*
X187525392Y-95944845D01*
X188493866Y-96346000D01*
X189542134Y-96346000D01*
X190510608Y-95944845D01*
X191251845Y-95203608D01*
X191653000Y-94235134D01*
X191653000Y-93186866D01*
X191251845Y-92218392D01*
X190510608Y-91477155D01*
X189542134Y-91076000D01*
X188493866Y-91076000D01*
X187525392Y-91477155D01*
X186784155Y-92218392D01*
X186383000Y-93186866D01*
X182853000Y-93186866D01*
X182451845Y-92218392D01*
X181710608Y-91477155D01*
X180742134Y-91076000D01*
X179693866Y-91076000D01*
X178725392Y-91477155D01*
X178637000Y-91565547D01*
X178637000Y-86605745D01*
X184464861Y-86605745D01*
X184538995Y-86851864D01*
X185076223Y-87044965D01*
X185646454Y-87017778D01*
X186047005Y-86851864D01*
X186121139Y-86605745D01*
X185293000Y-85777605D01*
X184464861Y-86605745D01*
X178637000Y-86605745D01*
X178637000Y-85450310D01*
X178778691Y-85509000D01*
X179419250Y-85509000D01*
X179578000Y-85350250D01*
X179578000Y-84201000D01*
X179558000Y-84201000D01*
X179558000Y-83947000D01*
X179578000Y-83947000D01*
X179578000Y-82797750D01*
X179419250Y-82639000D01*
X178778691Y-82639000D01*
X178637000Y-82697690D01*
X178637000Y-80709159D01*
X181217446Y-80709159D01*
X181303852Y-80965643D01*
X181877336Y-81175458D01*
X182487460Y-81149839D01*
X182932148Y-80965643D01*
X183018554Y-80709159D01*
X182118000Y-79808605D01*
X181217446Y-80709159D01*
X178637000Y-80709159D01*
X178637000Y-79388336D01*
X180571542Y-79388336D01*
X180597161Y-79998460D01*
X180781357Y-80443148D01*
X181037841Y-80529554D01*
X181938395Y-79629000D01*
X182297605Y-79629000D01*
X183198159Y-80529554D01*
X183368000Y-80472337D01*
X183537841Y-80529554D01*
X184438395Y-79629000D01*
X183537841Y-78728446D01*
X183368000Y-78785663D01*
X183198159Y-78728446D01*
X182297605Y-79629000D01*
X181938395Y-79629000D01*
X181037841Y-78728446D01*
X180781357Y-78814852D01*
X180571542Y-79388336D01*
X178637000Y-79388336D01*
X178637000Y-78548841D01*
X181217446Y-78548841D01*
X182118000Y-79449395D01*
X183018554Y-78548841D01*
X183717446Y-78548841D01*
X184618000Y-79449395D01*
X185518554Y-78548841D01*
X185432148Y-78292357D01*
X184858664Y-78082542D01*
X184248540Y-78108161D01*
X183803852Y-78292357D01*
X183717446Y-78548841D01*
X183018554Y-78548841D01*
X182932148Y-78292357D01*
X182358664Y-78082542D01*
X181748540Y-78108161D01*
X181303852Y-78292357D01*
X181217446Y-78548841D01*
X178637000Y-78548841D01*
X178637000Y-74774453D01*
X178725392Y-74862845D01*
X179693866Y-75264000D01*
X180742134Y-75264000D01*
X181710608Y-74862845D01*
X182451845Y-74121608D01*
X182853000Y-73153134D01*
X182853000Y-72104866D01*
X186383000Y-72104866D01*
X186383000Y-73153134D01*
X186784155Y-74121608D01*
X187525392Y-74862845D01*
X188493866Y-75264000D01*
X189542134Y-75264000D01*
X190510608Y-74862845D01*
X191251845Y-74121608D01*
X191653000Y-73153134D01*
X191653000Y-72104866D01*
X191251845Y-71136392D01*
X190510608Y-70395155D01*
X189542134Y-69994000D01*
X188493866Y-69994000D01*
X187525392Y-70395155D01*
X186784155Y-71136392D01*
X186383000Y-72104866D01*
X182853000Y-72104866D01*
X182451845Y-71136392D01*
X181710608Y-70395155D01*
X180742134Y-69994000D01*
X179693866Y-69994000D01*
X178725392Y-70395155D01*
X178637000Y-70483547D01*
X178637000Y-65422558D01*
X184058047Y-65422558D01*
X184115009Y-65654229D01*
X184601590Y-65823981D01*
X185116094Y-65794605D01*
X185454991Y-65654229D01*
X185511953Y-65422558D01*
X184785000Y-64695605D01*
X184058047Y-65422558D01*
X178637000Y-65422558D01*
X178637000Y-64332590D01*
X183477019Y-64332590D01*
X183506395Y-64847094D01*
X183646771Y-65185991D01*
X183878442Y-65242953D01*
X184605395Y-64516000D01*
X184964605Y-64516000D01*
X185691558Y-65242953D01*
X185923229Y-65185991D01*
X186092981Y-64699410D01*
X186063605Y-64184906D01*
X185923229Y-63846009D01*
X185691558Y-63789047D01*
X184964605Y-64516000D01*
X184605395Y-64516000D01*
X183878442Y-63789047D01*
X183646771Y-63846009D01*
X183477019Y-64332590D01*
X178637000Y-64332590D01*
X178637000Y-64241310D01*
X178778691Y-64300000D01*
X179419250Y-64300000D01*
X179578000Y-64141250D01*
X179578000Y-62992000D01*
X179558000Y-62992000D01*
X179558000Y-62738000D01*
X179578000Y-62738000D01*
X179578000Y-61588750D01*
X179419250Y-61430000D01*
X178778691Y-61430000D01*
X178637000Y-61488690D01*
X178637000Y-59627159D01*
X181217446Y-59627159D01*
X181303852Y-59883643D01*
X181877336Y-60093458D01*
X182487460Y-60067839D01*
X182932148Y-59883643D01*
X183018554Y-59627159D01*
X182118000Y-58726605D01*
X181217446Y-59627159D01*
X178637000Y-59627159D01*
X178637000Y-58306336D01*
X180571542Y-58306336D01*
X180597161Y-58916460D01*
X180781357Y-59361148D01*
X181037841Y-59447554D01*
X181938395Y-58547000D01*
X182297605Y-58547000D01*
X183198159Y-59447554D01*
X183368000Y-59390337D01*
X183537841Y-59447554D01*
X184438395Y-58547000D01*
X183537841Y-57646446D01*
X183368000Y-57703663D01*
X183198159Y-57646446D01*
X182297605Y-58547000D01*
X181938395Y-58547000D01*
X181037841Y-57646446D01*
X180781357Y-57732852D01*
X180571542Y-58306336D01*
X178637000Y-58306336D01*
X178637000Y-57466841D01*
X181217446Y-57466841D01*
X182118000Y-58367395D01*
X183018554Y-57466841D01*
X183717446Y-57466841D01*
X184618000Y-58367395D01*
X185518554Y-57466841D01*
X185432148Y-57210357D01*
X184858664Y-57000542D01*
X184248540Y-57026161D01*
X183803852Y-57210357D01*
X183717446Y-57466841D01*
X183018554Y-57466841D01*
X182932148Y-57210357D01*
X182358664Y-57000542D01*
X181748540Y-57026161D01*
X181303852Y-57210357D01*
X181217446Y-57466841D01*
X178637000Y-57466841D01*
X178637000Y-53692453D01*
X178725392Y-53780845D01*
X179693866Y-54182000D01*
X180742134Y-54182000D01*
X181710608Y-53780845D01*
X182451845Y-53039608D01*
X182853000Y-52071134D01*
X182853000Y-51022866D01*
X186383000Y-51022866D01*
X186383000Y-52071134D01*
X186784155Y-53039608D01*
X187525392Y-53780845D01*
X188493866Y-54182000D01*
X189542134Y-54182000D01*
X190510608Y-53780845D01*
X191251845Y-53039608D01*
X191288653Y-52950745D01*
X192846861Y-52950745D01*
X192920995Y-53196864D01*
X193458223Y-53389965D01*
X194028454Y-53362778D01*
X194429005Y-53196864D01*
X194503139Y-52950745D01*
X193675000Y-52122605D01*
X192846861Y-52950745D01*
X191288653Y-52950745D01*
X191653000Y-52071134D01*
X191653000Y-51726223D01*
X192228035Y-51726223D01*
X192255222Y-52296454D01*
X192421136Y-52697005D01*
X192667255Y-52771139D01*
X193495395Y-51943000D01*
X193854605Y-51943000D01*
X194682745Y-52771139D01*
X194928864Y-52697005D01*
X195121965Y-52159777D01*
X195094778Y-51589546D01*
X194928864Y-51188995D01*
X194682745Y-51114861D01*
X193854605Y-51943000D01*
X193495395Y-51943000D01*
X192667255Y-51114861D01*
X192421136Y-51188995D01*
X192228035Y-51726223D01*
X191653000Y-51726223D01*
X191653000Y-51022866D01*
X191616711Y-50935255D01*
X192846861Y-50935255D01*
X193675000Y-51763395D01*
X194503139Y-50935255D01*
X194429005Y-50689136D01*
X193891777Y-50496035D01*
X193321546Y-50523222D01*
X192920995Y-50689136D01*
X192846861Y-50935255D01*
X191616711Y-50935255D01*
X191251845Y-50054392D01*
X190510608Y-49313155D01*
X189542134Y-48912000D01*
X188493866Y-48912000D01*
X187525392Y-49313155D01*
X186784155Y-50054392D01*
X186383000Y-51022866D01*
X182853000Y-51022866D01*
X182451845Y-50054392D01*
X181710608Y-49313155D01*
X180742134Y-48912000D01*
X179693866Y-48912000D01*
X178725392Y-49313155D01*
X178637000Y-49401547D01*
X178637000Y-45922000D01*
X192666604Y-45922000D01*
X192458466Y-46130138D01*
X192458466Y-46130138D01*
G37*
X192458466Y-46130138D02*
X192240000Y-46657561D01*
X192240000Y-47228439D01*
X192458466Y-47755862D01*
X192862138Y-48159534D01*
X193389561Y-48378000D01*
X193960439Y-48378000D01*
X194487862Y-48159534D01*
X194891534Y-47755862D01*
X195110000Y-47228439D01*
X195110000Y-46657561D01*
X194891534Y-46130138D01*
X194683396Y-45922000D01*
X198087513Y-45922000D01*
X197847423Y-46082423D01*
X197530260Y-46557091D01*
X197418887Y-47117000D01*
X197530260Y-47676909D01*
X197847423Y-48151577D01*
X198199758Y-48387000D01*
X197847423Y-48622423D01*
X197530260Y-49097091D01*
X197418887Y-49657000D01*
X197530260Y-50216909D01*
X197847423Y-50691577D01*
X198199758Y-50927000D01*
X197847423Y-51162423D01*
X197530260Y-51637091D01*
X197418887Y-52197000D01*
X197530260Y-52756909D01*
X197847423Y-53231577D01*
X198199758Y-53467000D01*
X197847423Y-53702423D01*
X197530260Y-54177091D01*
X197418887Y-54737000D01*
X197530260Y-55296909D01*
X197847423Y-55771577D01*
X198199758Y-56007000D01*
X197847423Y-56242423D01*
X197530260Y-56717091D01*
X197418887Y-57277000D01*
X197530260Y-57836909D01*
X197847423Y-58311577D01*
X198199758Y-58547000D01*
X197847423Y-58782423D01*
X197530260Y-59257091D01*
X197418887Y-59817000D01*
X197530260Y-60376909D01*
X197847423Y-60851577D01*
X198231108Y-61107947D01*
X198026866Y-61204611D01*
X197650959Y-61619577D01*
X197490096Y-62007961D01*
X197612085Y-62230000D01*
X198755000Y-62230000D01*
X198755000Y-62210000D01*
X199009000Y-62210000D01*
X199009000Y-62230000D01*
X200151915Y-62230000D01*
X200273904Y-62007961D01*
X200113041Y-61619577D01*
X199737134Y-61204611D01*
X199532892Y-61107947D01*
X199916577Y-60851577D01*
X200233740Y-60376909D01*
X200345113Y-59817000D01*
X200233740Y-59257091D01*
X199916577Y-58782423D01*
X199564242Y-58547000D01*
X199916577Y-58311577D01*
X200233740Y-57836909D01*
X200345113Y-57277000D01*
X200233740Y-56717091D01*
X199916577Y-56242423D01*
X199564242Y-56007000D01*
X199916577Y-55771577D01*
X200233740Y-55296909D01*
X200345113Y-54737000D01*
X200233740Y-54177091D01*
X199916577Y-53702423D01*
X199564242Y-53467000D01*
X199916577Y-53231577D01*
X200233740Y-52756909D01*
X200345113Y-52197000D01*
X200233740Y-51637091D01*
X199916577Y-51162423D01*
X199564242Y-50927000D01*
X199916577Y-50691577D01*
X200233740Y-50216909D01*
X200345113Y-49657000D01*
X200233740Y-49097091D01*
X199916577Y-48622423D01*
X199564242Y-48387000D01*
X199916577Y-48151577D01*
X200233740Y-47676909D01*
X200345113Y-47117000D01*
X200233740Y-46557091D01*
X199916577Y-46082423D01*
X199676487Y-45922000D01*
X205707513Y-45922000D01*
X205467423Y-46082423D01*
X205150260Y-46557091D01*
X205038887Y-47117000D01*
X205150260Y-47676909D01*
X205467423Y-48151577D01*
X205819758Y-48387000D01*
X205467423Y-48622423D01*
X205150260Y-49097091D01*
X205038887Y-49657000D01*
X205150260Y-50216909D01*
X205467423Y-50691577D01*
X205819758Y-50927000D01*
X205467423Y-51162423D01*
X205150260Y-51637091D01*
X205038887Y-52197000D01*
X205150260Y-52756909D01*
X205467423Y-53231577D01*
X205819758Y-53467000D01*
X205467423Y-53702423D01*
X205150260Y-54177091D01*
X205038887Y-54737000D01*
X205150260Y-55296909D01*
X205467423Y-55771577D01*
X205819758Y-56007000D01*
X205467423Y-56242423D01*
X205150260Y-56717091D01*
X205038887Y-57277000D01*
X205150260Y-57836909D01*
X205467423Y-58311577D01*
X205742000Y-58495044D01*
X205742000Y-58598956D01*
X205467423Y-58782423D01*
X205150260Y-59257091D01*
X205038887Y-59817000D01*
X205150260Y-60376909D01*
X205467423Y-60851577D01*
X205588106Y-60932215D01*
X205454235Y-60958843D01*
X205244191Y-61099191D01*
X205103843Y-61309235D01*
X205054560Y-61557000D01*
X205054560Y-63157000D01*
X205103843Y-63404765D01*
X205244191Y-63614809D01*
X205454235Y-63755157D01*
X205702000Y-63804440D01*
X207302000Y-63804440D01*
X207549765Y-63755157D01*
X207759809Y-63614809D01*
X207900157Y-63404765D01*
X207932135Y-63244000D01*
X208713153Y-63244000D01*
X208788000Y-63258888D01*
X208862847Y-63244000D01*
X208862852Y-63244000D01*
X209084537Y-63199904D01*
X209335929Y-63031929D01*
X209378331Y-62968470D01*
X210669476Y-61677327D01*
X210732929Y-61634929D01*
X210775327Y-61571476D01*
X210775329Y-61571474D01*
X210900903Y-61383538D01*
X210900904Y-61383537D01*
X210945000Y-61161852D01*
X210945000Y-61161848D01*
X210959888Y-61087001D01*
X210945000Y-61012154D01*
X210945000Y-60166430D01*
X210997862Y-60144534D01*
X211401534Y-59740862D01*
X211457000Y-59606955D01*
X211457001Y-71096560D01*
X211317000Y-71096560D01*
X211069235Y-71145843D01*
X210859191Y-71286191D01*
X210718843Y-71496235D01*
X210669560Y-71744000D01*
X210669560Y-73544000D01*
X210718843Y-73791765D01*
X210859191Y-74001809D01*
X211069235Y-74142157D01*
X211317000Y-74191440D01*
X213117000Y-74191440D01*
X213364765Y-74142157D01*
X213574809Y-74001809D01*
X213715157Y-73791765D01*
X213718275Y-73776092D01*
X213887493Y-73945310D01*
X214451670Y-74179000D01*
X215062330Y-74179000D01*
X215626507Y-73945310D01*
X216058310Y-73513507D01*
X216292000Y-72949330D01*
X216292000Y-72713802D01*
X216410000Y-72831802D01*
X216410001Y-75382027D01*
X216071813Y-75720215D01*
X215874600Y-76196329D01*
X215874600Y-76711671D01*
X216071813Y-77187785D01*
X216436215Y-77552187D01*
X216912329Y-77749400D01*
X217427671Y-77749400D01*
X217903785Y-77552187D01*
X218268187Y-77187785D01*
X218465400Y-76711671D01*
X218465400Y-76196329D01*
X218268187Y-75720215D01*
X217930000Y-75382028D01*
X217930000Y-74428008D01*
X218190751Y-74818249D01*
X218896964Y-75290126D01*
X219519721Y-75414000D01*
X222440279Y-75414000D01*
X223063036Y-75290126D01*
X223124953Y-75248754D01*
X223663871Y-75787673D01*
X223494600Y-76196329D01*
X223494600Y-76711671D01*
X223691813Y-77187785D01*
X224056215Y-77552187D01*
X224532329Y-77749400D01*
X225047671Y-77749400D01*
X225523785Y-77552187D01*
X225888187Y-77187785D01*
X226085400Y-76711671D01*
X226085400Y-76196329D01*
X225888187Y-75720215D01*
X225523785Y-75355813D01*
X225289725Y-75258862D01*
X225274473Y-75248671D01*
X224199754Y-74173953D01*
X224241126Y-74112036D01*
X224406827Y-73279000D01*
X224241126Y-72445964D01*
X223769249Y-71739751D01*
X223063036Y-71267874D01*
X222440279Y-71144000D01*
X219519721Y-71144000D01*
X218896964Y-71267874D01*
X218190751Y-71739751D01*
X217877727Y-72208225D01*
X217717929Y-71969071D01*
X217654473Y-71926671D01*
X216777331Y-71049529D01*
X217439249Y-70607249D01*
X217911126Y-69901036D01*
X218035000Y-69278279D01*
X218035000Y-66457151D01*
X218190751Y-66690249D01*
X218896964Y-67162126D01*
X219519721Y-67286000D01*
X222440279Y-67286000D01*
X223063036Y-67162126D01*
X223769249Y-66690249D01*
X224241126Y-65984036D01*
X224406827Y-65151000D01*
X224241126Y-64317964D01*
X223769249Y-63611751D01*
X223063036Y-63139874D01*
X222440279Y-63016000D01*
X219519721Y-63016000D01*
X218896964Y-63139874D01*
X218190751Y-63611751D01*
X217718874Y-64317964D01*
X217553173Y-65151000D01*
X217566839Y-65219702D01*
X217439249Y-65028751D01*
X216733035Y-64556874D01*
X215900000Y-64391173D01*
X215066964Y-64556874D01*
X214360751Y-65028751D01*
X214247000Y-65198991D01*
X214247000Y-60019396D01*
X214372138Y-60144534D01*
X214899561Y-60363000D01*
X215470439Y-60363000D01*
X215997862Y-60144534D01*
X216401534Y-59740862D01*
X216423430Y-59688000D01*
X216606028Y-59688000D01*
X216918001Y-59999973D01*
X216918001Y-60147560D01*
X216878000Y-60147560D01*
X216630235Y-60196843D01*
X216420191Y-60337191D01*
X216279843Y-60547235D01*
X216230560Y-60795000D01*
X216230560Y-62395000D01*
X216279843Y-62642765D01*
X216420191Y-62852809D01*
X216630235Y-62993157D01*
X216878000Y-63042440D01*
X218478000Y-63042440D01*
X218725765Y-62993157D01*
X218935809Y-62852809D01*
X219076157Y-62642765D01*
X219125440Y-62395000D01*
X219125440Y-60795000D01*
X219076157Y-60547235D01*
X218935809Y-60337191D01*
X218725765Y-60196843D01*
X218478000Y-60147560D01*
X218438000Y-60147560D01*
X218438000Y-59999972D01*
X218776187Y-59661785D01*
X218973400Y-59185671D01*
X218973400Y-58670329D01*
X218776187Y-58194215D01*
X218411785Y-57829813D01*
X217935671Y-57632600D01*
X217420329Y-57632600D01*
X216944215Y-57829813D01*
X216606028Y-58168000D01*
X216423430Y-58168000D01*
X216401534Y-58115138D01*
X215997862Y-57711466D01*
X215470439Y-57493000D01*
X214899561Y-57493000D01*
X214821446Y-57525356D01*
X215368476Y-56978327D01*
X215431929Y-56935929D01*
X215474327Y-56872476D01*
X215474329Y-56872474D01*
X215599903Y-56684538D01*
X215599904Y-56684537D01*
X215644000Y-56462852D01*
X215644000Y-56462848D01*
X215658888Y-56388001D01*
X215644000Y-56313154D01*
X215644000Y-55626000D01*
X217553173Y-55626000D01*
X217718874Y-56459036D01*
X218190751Y-57165249D01*
X218896964Y-57637126D01*
X219519721Y-57761000D01*
X220323206Y-57761000D01*
X220432071Y-57923929D01*
X220495530Y-57966331D01*
X221941673Y-59412476D01*
X221984071Y-59475929D01*
X222047524Y-59518327D01*
X222047526Y-59518329D01*
X222172902Y-59602102D01*
X222235463Y-59643904D01*
X222457148Y-59688000D01*
X222457152Y-59688000D01*
X222531999Y-59702888D01*
X222606846Y-59688000D01*
X224226028Y-59688000D01*
X224564215Y-60026187D01*
X224974667Y-60196202D01*
X224738091Y-60243260D01*
X224263423Y-60560423D01*
X223946260Y-61035091D01*
X223834887Y-61595000D01*
X223946260Y-62154909D01*
X224263423Y-62629577D01*
X224738091Y-62946740D01*
X225156667Y-63030000D01*
X225439333Y-63030000D01*
X225857909Y-62946740D01*
X226332577Y-62629577D01*
X226649740Y-62154909D01*
X226761113Y-61595000D01*
X226649740Y-61035091D01*
X226332577Y-60560423D01*
X225857909Y-60243260D01*
X225621333Y-60196202D01*
X226031785Y-60026187D01*
X226396187Y-59661785D01*
X226593400Y-59185671D01*
X226593400Y-58670329D01*
X226396187Y-58194215D01*
X226031785Y-57829813D01*
X225555671Y-57632600D01*
X225040329Y-57632600D01*
X224564215Y-57829813D01*
X224226028Y-58168000D01*
X222846803Y-58168000D01*
X222439802Y-57761000D01*
X222440279Y-57761000D01*
X223063036Y-57637126D01*
X223769249Y-57165249D01*
X224241126Y-56459036D01*
X224406827Y-55626000D01*
X224241126Y-54792964D01*
X223769249Y-54086751D01*
X223063036Y-53614874D01*
X222440279Y-53491000D01*
X219519721Y-53491000D01*
X218896964Y-53614874D01*
X218190751Y-54086751D01*
X217718874Y-54792964D01*
X217553173Y-55626000D01*
X215644000Y-55626000D01*
X215644000Y-53668846D01*
X215658888Y-53593999D01*
X215648505Y-53541802D01*
X215900000Y-53591827D01*
X216733036Y-53426126D01*
X217439249Y-52954249D01*
X217911126Y-52248036D01*
X218035000Y-51625279D01*
X218035000Y-48804151D01*
X218190751Y-49037249D01*
X218896964Y-49509126D01*
X219519721Y-49633000D01*
X222440279Y-49633000D01*
X223063036Y-49509126D01*
X223769249Y-49037249D01*
X224241126Y-48331036D01*
X224406827Y-47498000D01*
X224241126Y-46664964D01*
X223769249Y-45958751D01*
X223714247Y-45922000D01*
X227128001Y-45922000D01*
X227128001Y-47810873D01*
X226893035Y-47653874D01*
X226060000Y-47488173D01*
X225226964Y-47653874D01*
X224520751Y-48125751D01*
X224048874Y-48831965D01*
X223925000Y-49454722D01*
X223925000Y-50875279D01*
X224048874Y-51498036D01*
X224520752Y-52204249D01*
X225226965Y-52676126D01*
X226060000Y-52841827D01*
X226893036Y-52676126D01*
X227128001Y-52519127D01*
X227128001Y-65463873D01*
X226893035Y-65306874D01*
X226060000Y-65141173D01*
X225226964Y-65306874D01*
X224520751Y-65778751D01*
X224048874Y-66484965D01*
X223925000Y-67107722D01*
X223925000Y-68528279D01*
X224048874Y-69151036D01*
X224520752Y-69857249D01*
X225226965Y-70329126D01*
X226060000Y-70494827D01*
X226893036Y-70329126D01*
X227128001Y-70172127D01*
X227128001Y-82989873D01*
X226893035Y-82832874D01*
X226060000Y-82667173D01*
X225226964Y-82832874D01*
X224520751Y-83304751D01*
X224048874Y-84010965D01*
X223925000Y-84633722D01*
X223925000Y-86054279D01*
X224048874Y-86677036D01*
X224520752Y-87383249D01*
X225226965Y-87855126D01*
X226060000Y-88020827D01*
X226893036Y-87855126D01*
X227128001Y-87698128D01*
X227128000Y-100515873D01*
X226893035Y-100358874D01*
X226060000Y-100193173D01*
X225226964Y-100358874D01*
X224520751Y-100830751D01*
X224048874Y-101536965D01*
X223925000Y-102159722D01*
X223925000Y-103580279D01*
X224048874Y-104203036D01*
X224520752Y-104909249D01*
X225226965Y-105381126D01*
X226060000Y-105546827D01*
X226893036Y-105381126D01*
X227128000Y-105224128D01*
X227128000Y-118041873D01*
X226893035Y-117884874D01*
X226060000Y-117719173D01*
X225226964Y-117884874D01*
X224520751Y-118356751D01*
X224048874Y-119062965D01*
X223925000Y-119685722D01*
X223925000Y-121106279D01*
X224048874Y-121729036D01*
X224520752Y-122435249D01*
X225226965Y-122907126D01*
X226060000Y-123072827D01*
X226893036Y-122907126D01*
X227128000Y-122750128D01*
X227128000Y-128063224D01*
X226952671Y-127990600D01*
X226474403Y-127990600D01*
X224395873Y-125912071D01*
X224406827Y-125857000D01*
X224241126Y-125023964D01*
X223769249Y-124317751D01*
X223063036Y-123845874D01*
X222440279Y-123722000D01*
X219519721Y-123722000D01*
X218896964Y-123845874D01*
X218664990Y-124000874D01*
X218664990Y-119585126D01*
X218896964Y-119740126D01*
X219519721Y-119864000D01*
X222440279Y-119864000D01*
X223063036Y-119740126D01*
X223769249Y-119268249D01*
X224241126Y-118562036D01*
X224406827Y-117729000D01*
X224241126Y-116895964D01*
X223769249Y-116189751D01*
X223063036Y-115717874D01*
X222440279Y-115594000D01*
X219519721Y-115594000D01*
X218896964Y-115717874D01*
X218190751Y-116189751D01*
X217850209Y-116699407D01*
X216465956Y-115315155D01*
X216534999Y-115328888D01*
X216606661Y-115314633D01*
X216944215Y-115652187D01*
X217420329Y-115849400D01*
X217935671Y-115849400D01*
X218411785Y-115652187D01*
X218776187Y-115287785D01*
X218973400Y-114811671D01*
X218973400Y-114296329D01*
X224002600Y-114296329D01*
X224002600Y-114811671D01*
X224199813Y-115287785D01*
X224564215Y-115652187D01*
X225040329Y-115849400D01*
X225555671Y-115849400D01*
X226031785Y-115652187D01*
X226396187Y-115287785D01*
X226593400Y-114811671D01*
X226593400Y-114296329D01*
X226396187Y-113820215D01*
X226031785Y-113455813D01*
X225555671Y-113258600D01*
X225040329Y-113258600D01*
X224564215Y-113455813D01*
X224199813Y-113820215D01*
X224002600Y-114296329D01*
X218973400Y-114296329D01*
X218776187Y-113820215D01*
X218411785Y-113455813D01*
X217935671Y-113258600D01*
X217420329Y-113258600D01*
X216944215Y-113455813D01*
X216727915Y-113672113D01*
X212850000Y-109794199D01*
X212850000Y-109243440D01*
X212990000Y-109243440D01*
X213237765Y-109194157D01*
X213447809Y-109053809D01*
X213588157Y-108843765D01*
X213591275Y-108828092D01*
X213760493Y-108997310D01*
X213870000Y-109042669D01*
X213870000Y-109780153D01*
X213855112Y-109855000D01*
X213870000Y-109929847D01*
X213870000Y-109929851D01*
X213914096Y-110151536D01*
X214082071Y-110402929D01*
X214145530Y-110445331D01*
X215944671Y-112244473D01*
X215987071Y-112307929D01*
X216050527Y-112350329D01*
X216238462Y-112475904D01*
X216286605Y-112485480D01*
X216460148Y-112520000D01*
X216460152Y-112520000D01*
X216483715Y-112524687D01*
X216817215Y-112858187D01*
X217293329Y-113055400D01*
X217808671Y-113055400D01*
X218284785Y-112858187D01*
X218649187Y-112493785D01*
X218846400Y-112017671D01*
X218846400Y-111502329D01*
X218649187Y-111026215D01*
X218284785Y-110661813D01*
X217808671Y-110464600D01*
X217293329Y-110464600D01*
X216817215Y-110661813D01*
X216664415Y-110814613D01*
X215390000Y-109540199D01*
X215390000Y-109042669D01*
X215499507Y-108997310D01*
X215931310Y-108565507D01*
X216028446Y-108331000D01*
X217553173Y-108331000D01*
X217718874Y-109164036D01*
X218190751Y-109870249D01*
X218896964Y-110342126D01*
X219519721Y-110466000D01*
X222440279Y-110466000D01*
X222742152Y-110405954D01*
X223875600Y-111539403D01*
X223875600Y-112017671D01*
X224072813Y-112493785D01*
X224437215Y-112858187D01*
X224913329Y-113055400D01*
X225428671Y-113055400D01*
X225904785Y-112858187D01*
X226269187Y-112493785D01*
X226466400Y-112017671D01*
X226466400Y-111502329D01*
X226269187Y-111026215D01*
X225904785Y-110661813D01*
X225428671Y-110464600D01*
X224950403Y-110464600D01*
X224004289Y-109518487D01*
X224241126Y-109164036D01*
X224406827Y-108331000D01*
X224241126Y-107497964D01*
X223769249Y-106791751D01*
X223063036Y-106319874D01*
X222440279Y-106196000D01*
X219519721Y-106196000D01*
X218896964Y-106319874D01*
X218190751Y-106791751D01*
X217718874Y-107497964D01*
X217553173Y-108331000D01*
X216028446Y-108331000D01*
X216165000Y-108001330D01*
X216165000Y-107390670D01*
X215931310Y-106826493D01*
X215499507Y-106394690D01*
X214935330Y-106161000D01*
X214490001Y-106161000D01*
X214490001Y-105745611D01*
X215066965Y-106131126D01*
X215900000Y-106296827D01*
X216733036Y-106131126D01*
X217439249Y-105659249D01*
X217911126Y-104953036D01*
X218035000Y-104330279D01*
X218035000Y-101509151D01*
X218190751Y-101742249D01*
X218896964Y-102214126D01*
X219519721Y-102338000D01*
X222440279Y-102338000D01*
X223063036Y-102214126D01*
X223769249Y-101742249D01*
X224241126Y-101036036D01*
X224406827Y-100203000D01*
X224241126Y-99369964D01*
X223769249Y-98663751D01*
X223063036Y-98191874D01*
X222440279Y-98068000D01*
X219591114Y-98068000D01*
X219595888Y-98044001D01*
X219581000Y-97969154D01*
X219581000Y-96770329D01*
X223748600Y-96770329D01*
X223748600Y-97285671D01*
X223945813Y-97761785D01*
X224310215Y-98126187D01*
X224786329Y-98323400D01*
X225301671Y-98323400D01*
X225777785Y-98126187D01*
X226142187Y-97761785D01*
X226339400Y-97285671D01*
X226339400Y-96770329D01*
X226142187Y-96294215D01*
X225777785Y-95929813D01*
X225301671Y-95732600D01*
X224786329Y-95732600D01*
X224310215Y-95929813D01*
X223945813Y-96294215D01*
X223748600Y-96770329D01*
X219581000Y-96770329D01*
X219581000Y-93165846D01*
X219595888Y-93090999D01*
X219581000Y-93016152D01*
X219581000Y-93016148D01*
X219565853Y-92940000D01*
X222440279Y-92940000D01*
X222636223Y-92901024D01*
X223748600Y-94013403D01*
X223748600Y-94491671D01*
X223945813Y-94967785D01*
X224310215Y-95332187D01*
X224786329Y-95529400D01*
X225301671Y-95529400D01*
X225777785Y-95332187D01*
X226142187Y-94967785D01*
X226339400Y-94491671D01*
X226339400Y-93976329D01*
X226142187Y-93500215D01*
X225777785Y-93135813D01*
X225301671Y-92938600D01*
X224823403Y-92938600D01*
X223953420Y-92068618D01*
X224241126Y-91638036D01*
X224406827Y-90805000D01*
X224241126Y-89971964D01*
X223769249Y-89265751D01*
X223063036Y-88793874D01*
X222440279Y-88670000D01*
X219519721Y-88670000D01*
X218896964Y-88793874D01*
X218190751Y-89265751D01*
X217718874Y-89971964D01*
X217562568Y-90757767D01*
X217168000Y-90363199D01*
X217168000Y-89736852D01*
X217182889Y-89662000D01*
X217123904Y-89365463D01*
X216955929Y-89114071D01*
X216829327Y-89029478D01*
X216459403Y-88659555D01*
X216733036Y-88605126D01*
X217439249Y-88133249D01*
X217911126Y-87427036D01*
X218035000Y-86804279D01*
X218035000Y-83983151D01*
X218190751Y-84216249D01*
X218896964Y-84688126D01*
X219519721Y-84812000D01*
X222440279Y-84812000D01*
X223063036Y-84688126D01*
X223769249Y-84216249D01*
X224241126Y-83510036D01*
X224406827Y-82677000D01*
X224241126Y-81843964D01*
X223769249Y-81137751D01*
X223063036Y-80665874D01*
X222440279Y-80542000D01*
X219519721Y-80542000D01*
X218896964Y-80665874D01*
X218190751Y-81137751D01*
X217718874Y-81843964D01*
X217553173Y-82677000D01*
X217566839Y-82745702D01*
X217439249Y-82554751D01*
X216733035Y-82082874D01*
X215900000Y-81917173D01*
X215066964Y-82082874D01*
X214360751Y-82554751D01*
X213888874Y-83260965D01*
X213765000Y-83883722D01*
X213765000Y-86706198D01*
X209421000Y-82362199D01*
X209421000Y-80579736D01*
X209595235Y-80696157D01*
X209843000Y-80745440D01*
X211543000Y-80745440D01*
X211790765Y-80696157D01*
X212000809Y-80555809D01*
X212141157Y-80345765D01*
X212150184Y-80300381D01*
X212162375Y-80318625D01*
X212653582Y-80646839D01*
X213086744Y-80733000D01*
X213379256Y-80733000D01*
X213812418Y-80646839D01*
X214303625Y-80318625D01*
X214631839Y-79827418D01*
X214747092Y-79248000D01*
X214746362Y-79244329D01*
X215874600Y-79244329D01*
X215874600Y-79759671D01*
X216071813Y-80235785D01*
X216436215Y-80600187D01*
X216912329Y-80797400D01*
X217427671Y-80797400D01*
X217903785Y-80600187D01*
X218095414Y-80408558D01*
X224063047Y-80408558D01*
X224120009Y-80640229D01*
X224606590Y-80809981D01*
X225121094Y-80780605D01*
X225459991Y-80640229D01*
X225516953Y-80408558D01*
X224790000Y-79681605D01*
X224063047Y-80408558D01*
X218095414Y-80408558D01*
X218268187Y-80235785D01*
X218465400Y-79759671D01*
X218465400Y-79318590D01*
X223482019Y-79318590D01*
X223511395Y-79833094D01*
X223651771Y-80171991D01*
X223883442Y-80228953D01*
X224610395Y-79502000D01*
X224969605Y-79502000D01*
X225696558Y-80228953D01*
X225928229Y-80171991D01*
X226097981Y-79685410D01*
X226068605Y-79170906D01*
X225928229Y-78832009D01*
X225696558Y-78775047D01*
X224969605Y-79502000D01*
X224610395Y-79502000D01*
X223883442Y-78775047D01*
X223651771Y-78832009D01*
X223482019Y-79318590D01*
X218465400Y-79318590D01*
X218465400Y-79244329D01*
X218268187Y-78768215D01*
X218095414Y-78595442D01*
X224063047Y-78595442D01*
X224790000Y-79322395D01*
X225516953Y-78595442D01*
X225459991Y-78363771D01*
X224973410Y-78194019D01*
X224458906Y-78223395D01*
X224120009Y-78363771D01*
X224063047Y-78595442D01*
X218095414Y-78595442D01*
X217903785Y-78403813D01*
X217427671Y-78206600D01*
X216912329Y-78206600D01*
X216436215Y-78403813D01*
X216071813Y-78768215D01*
X215874600Y-79244329D01*
X214746362Y-79244329D01*
X214631839Y-78668582D01*
X214303625Y-78177375D01*
X213812418Y-77849161D01*
X213379256Y-77763000D01*
X213086744Y-77763000D01*
X212866592Y-77806791D01*
X210310000Y-75250199D01*
X210310000Y-71516430D01*
X210362862Y-71494534D01*
X210766534Y-71090862D01*
X210985000Y-70563439D01*
X210985000Y-69992561D01*
X210766534Y-69465138D01*
X210362862Y-69061466D01*
X210123678Y-68962393D01*
X210209468Y-68834000D01*
X210265904Y-68749538D01*
X210308088Y-68537463D01*
X210310000Y-68527852D01*
X210310000Y-68527848D01*
X210324888Y-68453000D01*
X210310000Y-68378152D01*
X210310000Y-66516430D01*
X210362862Y-66494534D01*
X210766534Y-66090862D01*
X210985000Y-65563439D01*
X210985000Y-64992561D01*
X210766534Y-64465138D01*
X210362862Y-64061466D01*
X209835439Y-63843000D01*
X209264561Y-63843000D01*
X208737138Y-64061466D01*
X208333466Y-64465138D01*
X208115000Y-64992561D01*
X208115000Y-65026000D01*
X207573972Y-65026000D01*
X207235785Y-64687813D01*
X206759671Y-64490600D01*
X206244329Y-64490600D01*
X205768215Y-64687813D01*
X205403813Y-65052215D01*
X205206600Y-65528329D01*
X205206600Y-66043671D01*
X205403813Y-66519785D01*
X205768215Y-66884187D01*
X206244329Y-67081400D01*
X206759671Y-67081400D01*
X207235785Y-66884187D01*
X207573972Y-66546000D01*
X208790001Y-66546000D01*
X208790000Y-68138198D01*
X207923128Y-69005071D01*
X207898915Y-68961000D01*
X206756000Y-68961000D01*
X206756000Y-68981000D01*
X206502000Y-68981000D01*
X206502000Y-68961000D01*
X205359085Y-68961000D01*
X205237096Y-69183039D01*
X205397959Y-69571423D01*
X205773866Y-69986389D01*
X205978108Y-70083053D01*
X205594423Y-70339423D01*
X205277260Y-70814091D01*
X205165887Y-71374000D01*
X205277260Y-71933909D01*
X205594423Y-72408577D01*
X205946758Y-72644000D01*
X205594423Y-72879423D01*
X205277260Y-73354091D01*
X205165887Y-73914000D01*
X205277260Y-74473909D01*
X205594423Y-74948577D01*
X205946758Y-75184000D01*
X205594423Y-75419423D01*
X205277260Y-75894091D01*
X205165887Y-76454000D01*
X205230312Y-76777886D01*
X202504199Y-79504000D01*
X200370668Y-79504000D01*
X200472113Y-78994000D01*
X200360740Y-78434091D01*
X200043577Y-77959423D01*
X199691242Y-77724000D01*
X200043577Y-77488577D01*
X200360740Y-77013909D01*
X200472113Y-76454000D01*
X200360740Y-75894091D01*
X200043577Y-75419423D01*
X199691242Y-75184000D01*
X200043577Y-74948577D01*
X200360740Y-74473909D01*
X200472113Y-73914000D01*
X200360740Y-73354091D01*
X200043577Y-72879423D01*
X199691242Y-72644000D01*
X200043577Y-72408577D01*
X200360740Y-71933909D01*
X200472113Y-71374000D01*
X200360740Y-70814091D01*
X200043577Y-70339423D01*
X199922894Y-70258785D01*
X200056765Y-70232157D01*
X200266809Y-70091809D01*
X200407157Y-69881765D01*
X200456440Y-69634000D01*
X200456440Y-69482483D01*
X200606929Y-69381929D01*
X200774904Y-69130537D01*
X200833889Y-68834000D01*
X200774904Y-68537463D01*
X200739824Y-68484961D01*
X205237096Y-68484961D01*
X205359085Y-68707000D01*
X206502000Y-68707000D01*
X206502000Y-67563371D01*
X206756000Y-67563371D01*
X206756000Y-68707000D01*
X207898915Y-68707000D01*
X208020904Y-68484961D01*
X207860041Y-68096577D01*
X207484134Y-67681611D01*
X206978041Y-67442086D01*
X206756000Y-67563371D01*
X206502000Y-67563371D01*
X206279959Y-67442086D01*
X205773866Y-67681611D01*
X205397959Y-68096577D01*
X205237096Y-68484961D01*
X200739824Y-68484961D01*
X200606929Y-68286071D01*
X200456440Y-68185517D01*
X200456440Y-68034000D01*
X200407157Y-67786235D01*
X200266809Y-67576191D01*
X200056765Y-67435843D01*
X199809000Y-67386560D01*
X198209000Y-67386560D01*
X197961235Y-67435843D01*
X197751191Y-67576191D01*
X197610843Y-67786235D01*
X197561560Y-68034000D01*
X197561560Y-68851759D01*
X197356000Y-68646199D01*
X197356000Y-66692558D01*
X198155047Y-66692558D01*
X198212009Y-66924229D01*
X198698590Y-67093981D01*
X199213094Y-67064605D01*
X199551991Y-66924229D01*
X199608953Y-66692558D01*
X198882000Y-65965605D01*
X198155047Y-66692558D01*
X197356000Y-66692558D01*
X197356000Y-65602590D01*
X197574019Y-65602590D01*
X197603395Y-66117094D01*
X197743771Y-66455991D01*
X197975442Y-66512953D01*
X198702395Y-65786000D01*
X199061605Y-65786000D01*
X199788558Y-66512953D01*
X200020229Y-66455991D01*
X200189981Y-65969410D01*
X200160605Y-65454906D01*
X200020229Y-65116009D01*
X199788558Y-65059047D01*
X199061605Y-65786000D01*
X198702395Y-65786000D01*
X197975442Y-65059047D01*
X197743771Y-65116009D01*
X197574019Y-65602590D01*
X197356000Y-65602590D01*
X197356000Y-64879442D01*
X198155047Y-64879442D01*
X198882000Y-65606395D01*
X199608953Y-64879442D01*
X199551991Y-64647771D01*
X199065410Y-64478019D01*
X198550906Y-64507395D01*
X198212009Y-64647771D01*
X198155047Y-64879442D01*
X197356000Y-64879442D01*
X197356000Y-64336848D01*
X197370888Y-64262000D01*
X197356000Y-64187152D01*
X197356000Y-64187148D01*
X197311904Y-63965463D01*
X197311904Y-63965462D01*
X197186329Y-63777527D01*
X197143929Y-63714071D01*
X197080473Y-63671671D01*
X196114841Y-62706039D01*
X197490096Y-62706039D01*
X197650959Y-63094423D01*
X198026866Y-63509389D01*
X198532959Y-63748914D01*
X198755000Y-63627629D01*
X198755000Y-62484000D01*
X199009000Y-62484000D01*
X199009000Y-63627629D01*
X199231041Y-63748914D01*
X199737134Y-63509389D01*
X200113041Y-63094423D01*
X200273904Y-62706039D01*
X200151915Y-62484000D01*
X199009000Y-62484000D01*
X198755000Y-62484000D01*
X197612085Y-62484000D01*
X197490096Y-62706039D01*
X196114841Y-62706039D01*
X194265331Y-60856530D01*
X194222929Y-60793071D01*
X193971537Y-60625096D01*
X193749852Y-60581000D01*
X193749847Y-60581000D01*
X193675000Y-60566112D01*
X193600153Y-60581000D01*
X193598440Y-60581000D01*
X193598440Y-60541000D01*
X193549157Y-60293235D01*
X193408809Y-60083191D01*
X193198765Y-59942843D01*
X192951000Y-59893560D01*
X191351000Y-59893560D01*
X191103235Y-59942843D01*
X190893191Y-60083191D01*
X190752843Y-60293235D01*
X190703560Y-60541000D01*
X190703560Y-61993758D01*
X189566331Y-60856530D01*
X189523929Y-60793071D01*
X189272537Y-60625096D01*
X189050852Y-60581000D01*
X189050847Y-60581000D01*
X188976000Y-60566112D01*
X188901153Y-60581000D01*
X186365802Y-60581000D01*
X186864802Y-60082000D01*
X187423330Y-60082000D01*
X187987507Y-59848310D01*
X188419310Y-59416507D01*
X188653000Y-58852330D01*
X188653000Y-58241670D01*
X188419310Y-57677493D01*
X187987507Y-57245690D01*
X187423330Y-57012000D01*
X186812670Y-57012000D01*
X186248493Y-57245690D01*
X185816690Y-57677493D01*
X185813461Y-57685290D01*
X185698159Y-57646446D01*
X184797605Y-58547000D01*
X184811748Y-58561143D01*
X184632143Y-58740748D01*
X184618000Y-58726605D01*
X183717446Y-59627159D01*
X183803852Y-59883643D01*
X184049761Y-59973611D01*
X183971091Y-59989260D01*
X183496423Y-60306423D01*
X183312957Y-60581000D01*
X183303846Y-60581000D01*
X183228999Y-60566112D01*
X183154152Y-60581000D01*
X183154148Y-60581000D01*
X182932463Y-60625096D01*
X182932461Y-60625097D01*
X182932462Y-60625097D01*
X182744526Y-60750671D01*
X182744524Y-60750673D01*
X182681071Y-60793071D01*
X182638673Y-60856524D01*
X182043301Y-61451896D01*
X181990439Y-61430000D01*
X181419561Y-61430000D01*
X180958856Y-61620830D01*
X180864698Y-61526673D01*
X180631309Y-61430000D01*
X179990750Y-61430000D01*
X179832000Y-61588750D01*
X179832000Y-62738000D01*
X179852000Y-62738000D01*
X179852000Y-62992000D01*
X179832000Y-62992000D01*
X179832000Y-64141250D01*
X179990750Y-64300000D01*
X180631309Y-64300000D01*
X180864698Y-64203327D01*
X180958856Y-64109170D01*
X181419561Y-64300000D01*
X181990439Y-64300000D01*
X182517862Y-64081534D01*
X182921534Y-63677862D01*
X182949874Y-63609442D01*
X184058047Y-63609442D01*
X184785000Y-64336395D01*
X185511953Y-63609442D01*
X185454991Y-63377771D01*
X184968410Y-63208019D01*
X184453906Y-63237395D01*
X184115009Y-63377771D01*
X184058047Y-63609442D01*
X182949874Y-63609442D01*
X183140000Y-63150439D01*
X183140000Y-62579561D01*
X183118104Y-62526699D01*
X183405420Y-62239382D01*
X183496423Y-62375577D01*
X183971091Y-62692740D01*
X184389667Y-62776000D01*
X184672333Y-62776000D01*
X185090909Y-62692740D01*
X185565577Y-62375577D01*
X185749043Y-62101000D01*
X188661199Y-62101000D01*
X190163670Y-63603472D01*
X190206071Y-63666929D01*
X190269527Y-63709329D01*
X190457462Y-63834904D01*
X190498164Y-63843000D01*
X190679148Y-63879000D01*
X190679152Y-63879000D01*
X190754000Y-63893888D01*
X190828848Y-63879000D01*
X191266723Y-63879000D01*
X191109600Y-64258329D01*
X191109600Y-64773671D01*
X191306813Y-65249785D01*
X191645001Y-65587973D01*
X191645001Y-66473148D01*
X191630112Y-66548000D01*
X191689097Y-66844537D01*
X191803713Y-67016071D01*
X191857072Y-67095929D01*
X191920528Y-67138329D01*
X192007897Y-67225698D01*
X191986000Y-67278561D01*
X191986000Y-67849439D01*
X192204466Y-68376862D01*
X192608138Y-68780534D01*
X193135561Y-68999000D01*
X193706439Y-68999000D01*
X193759302Y-68977104D01*
X193786001Y-69003803D01*
X193786002Y-70900149D01*
X193771113Y-70975001D01*
X193810303Y-71172022D01*
X193706439Y-71129000D01*
X193135561Y-71129000D01*
X192608138Y-71347466D01*
X192204466Y-71751138D01*
X191986000Y-72278561D01*
X191986000Y-72849439D01*
X192010789Y-72909284D01*
X191905097Y-73067463D01*
X191861001Y-73289148D01*
X191861001Y-73289152D01*
X191846113Y-73363999D01*
X191861001Y-73438846D01*
X191861002Y-77230149D01*
X191846113Y-77305001D01*
X191905098Y-77601538D01*
X192012984Y-77763000D01*
X192073073Y-77852930D01*
X192136529Y-77895330D01*
X193249791Y-79008593D01*
X193176908Y-79375000D01*
X193290905Y-79948103D01*
X192487331Y-79144530D01*
X192444929Y-79081071D01*
X192193537Y-78913096D01*
X191971852Y-78869000D01*
X191971847Y-78869000D01*
X191897000Y-78854112D01*
X191822153Y-78869000D01*
X188464669Y-78869000D01*
X188419310Y-78759493D01*
X187987507Y-78327690D01*
X187423330Y-78094000D01*
X186812670Y-78094000D01*
X186248493Y-78327690D01*
X185816690Y-78759493D01*
X185813461Y-78767290D01*
X185698159Y-78728446D01*
X184797605Y-79629000D01*
X184811748Y-79643143D01*
X184632143Y-79822748D01*
X184618000Y-79808605D01*
X183717446Y-80709159D01*
X183803852Y-80965643D01*
X184274631Y-81137882D01*
X183971091Y-81198260D01*
X183496423Y-81515423D01*
X183312957Y-81790000D01*
X183303846Y-81790000D01*
X183228999Y-81775112D01*
X183154152Y-81790000D01*
X183154148Y-81790000D01*
X182932463Y-81834096D01*
X182932461Y-81834097D01*
X182932462Y-81834097D01*
X182744526Y-81959671D01*
X182744524Y-81959673D01*
X182681071Y-82002071D01*
X182638673Y-82065524D01*
X182043301Y-82660896D01*
X181990439Y-82639000D01*
X181419561Y-82639000D01*
X180958856Y-82829830D01*
X180864698Y-82735673D01*
X180631309Y-82639000D01*
X179990750Y-82639000D01*
X179832000Y-82797750D01*
X179832000Y-83947000D01*
X179852000Y-83947000D01*
X179852000Y-84201000D01*
X179832000Y-84201000D01*
X179832000Y-85350250D01*
X179990750Y-85509000D01*
X180631309Y-85509000D01*
X180864698Y-85412327D01*
X180958856Y-85318170D01*
X181419561Y-85509000D01*
X181990439Y-85509000D01*
X182298919Y-85381223D01*
X183846035Y-85381223D01*
X183873222Y-85951454D01*
X184039136Y-86352005D01*
X184285255Y-86426139D01*
X185113395Y-85598000D01*
X185472605Y-85598000D01*
X186300745Y-86426139D01*
X186546864Y-86352005D01*
X186739965Y-85814777D01*
X186716021Y-85312561D01*
X188858000Y-85312561D01*
X188858000Y-85883439D01*
X189076466Y-86410862D01*
X189480138Y-86814534D01*
X190007561Y-87033000D01*
X190578439Y-87033000D01*
X191105862Y-86814534D01*
X191509534Y-86410862D01*
X191728000Y-85883439D01*
X191728000Y-85312561D01*
X191509534Y-84785138D01*
X191105862Y-84381466D01*
X190578439Y-84163000D01*
X190007561Y-84163000D01*
X189480138Y-84381466D01*
X189076466Y-84785138D01*
X188858000Y-85312561D01*
X186716021Y-85312561D01*
X186712778Y-85244546D01*
X186546864Y-84843995D01*
X186300745Y-84769861D01*
X185472605Y-85598000D01*
X185113395Y-85598000D01*
X184285255Y-84769861D01*
X184039136Y-84843995D01*
X183846035Y-85381223D01*
X182298919Y-85381223D01*
X182517862Y-85290534D01*
X182921534Y-84886862D01*
X183044392Y-84590255D01*
X184464861Y-84590255D01*
X185293000Y-85418395D01*
X186121139Y-84590255D01*
X186047005Y-84344136D01*
X185509777Y-84151035D01*
X184939546Y-84178222D01*
X184538995Y-84344136D01*
X184464861Y-84590255D01*
X183044392Y-84590255D01*
X183140000Y-84359439D01*
X183140000Y-83788561D01*
X183118104Y-83735699D01*
X183405420Y-83448382D01*
X183496423Y-83584577D01*
X183971091Y-83901740D01*
X184389667Y-83985000D01*
X184672333Y-83985000D01*
X185090909Y-83901740D01*
X185565577Y-83584577D01*
X185882740Y-83109909D01*
X185883880Y-83104177D01*
X186083299Y-82970929D01*
X186125701Y-82907470D01*
X186285470Y-82747701D01*
X186348929Y-82705299D01*
X186516904Y-82453907D01*
X186561000Y-82232222D01*
X186561000Y-82232218D01*
X186575888Y-82157370D01*
X186561000Y-82082522D01*
X186561000Y-81260801D01*
X186703161Y-81118640D01*
X186812670Y-81164000D01*
X187423330Y-81164000D01*
X187987507Y-80930310D01*
X188419310Y-80498507D01*
X188464669Y-80389000D01*
X191582199Y-80389000D01*
X192295758Y-81102560D01*
X191351000Y-81102560D01*
X191103235Y-81151843D01*
X190893191Y-81292191D01*
X190752843Y-81502235D01*
X190703560Y-81750000D01*
X190703560Y-83350000D01*
X190752843Y-83597765D01*
X190893191Y-83807809D01*
X191103235Y-83948157D01*
X191351000Y-83997440D01*
X191634639Y-83997440D01*
X193719671Y-86082473D01*
X193762071Y-86145929D01*
X194013463Y-86313904D01*
X194235148Y-86358000D01*
X194235152Y-86358000D01*
X194309999Y-86372888D01*
X194384846Y-86358000D01*
X205030153Y-86358000D01*
X205105000Y-86372888D01*
X205179847Y-86358000D01*
X205179852Y-86358000D01*
X205401537Y-86313904D01*
X205652929Y-86145929D01*
X205695331Y-86082470D01*
X206305114Y-85472688D01*
X206487667Y-85509000D01*
X206770333Y-85509000D01*
X207188909Y-85425740D01*
X207663577Y-85108577D01*
X207980740Y-84633909D01*
X208071388Y-84178190D01*
X212515758Y-88622560D01*
X211317000Y-88622560D01*
X211069235Y-88671843D01*
X210859191Y-88812191D01*
X210718843Y-89022235D01*
X210669560Y-89270000D01*
X210669560Y-91070000D01*
X210718843Y-91317765D01*
X210859191Y-91527809D01*
X211069235Y-91668157D01*
X211317000Y-91717440D01*
X211457000Y-91717440D01*
X211457000Y-91746153D01*
X211442112Y-91821000D01*
X211457000Y-91895847D01*
X211457000Y-91895851D01*
X211501096Y-92117536D01*
X211669071Y-92368929D01*
X211732530Y-92411331D01*
X216128600Y-96807402D01*
X216128600Y-97285671D01*
X216325813Y-97761785D01*
X216356028Y-97792000D01*
X215593848Y-97792000D01*
X215519000Y-97777112D01*
X215444152Y-97792000D01*
X215444148Y-97792000D01*
X215270605Y-97826520D01*
X215222462Y-97836096D01*
X215165044Y-97874462D01*
X214971071Y-98004071D01*
X214928671Y-98067527D01*
X213129528Y-99866671D01*
X213066072Y-99909071D01*
X212898096Y-100160463D01*
X212854000Y-100382148D01*
X212854000Y-100382153D01*
X212839112Y-100457000D01*
X212854000Y-100531847D01*
X212854000Y-100996200D01*
X212839112Y-101071047D01*
X212854000Y-101145894D01*
X212854000Y-101145898D01*
X212898096Y-101367583D01*
X212981001Y-101491659D01*
X212981000Y-104760858D01*
X212955113Y-104891001D01*
X212970002Y-104965853D01*
X212970001Y-106148560D01*
X211190000Y-106148560D01*
X210942235Y-106197843D01*
X210732191Y-106338191D01*
X210591843Y-106548235D01*
X210542560Y-106796000D01*
X210542560Y-108596000D01*
X210591843Y-108843765D01*
X210732191Y-109053809D01*
X210942235Y-109194157D01*
X211190000Y-109243440D01*
X211330000Y-109243440D01*
X211330000Y-110034153D01*
X211315112Y-110109000D01*
X211328846Y-110178045D01*
X209294000Y-108143199D01*
X209294000Y-102690848D01*
X209308888Y-102616000D01*
X209294000Y-102541152D01*
X209294000Y-102541148D01*
X209249904Y-102319463D01*
X209249904Y-102319462D01*
X209124329Y-102131527D01*
X209081929Y-102068071D01*
X209018473Y-102025671D01*
X208027688Y-101034886D01*
X208092113Y-100711000D01*
X207980740Y-100151091D01*
X207663577Y-99676423D01*
X207311242Y-99441000D01*
X207663577Y-99205577D01*
X207980740Y-98730909D01*
X208092113Y-98171000D01*
X207980740Y-97611091D01*
X207663577Y-97136423D01*
X207279892Y-96880053D01*
X207484134Y-96783389D01*
X207860041Y-96368423D01*
X208020904Y-95980039D01*
X207898915Y-95758000D01*
X206756000Y-95758000D01*
X206756000Y-95778000D01*
X206502000Y-95778000D01*
X206502000Y-95758000D01*
X205359085Y-95758000D01*
X205334872Y-95802071D01*
X205192001Y-95659200D01*
X205192001Y-95281961D01*
X205237096Y-95281961D01*
X205359085Y-95504000D01*
X206502000Y-95504000D01*
X206502000Y-94360371D01*
X206756000Y-94360371D01*
X206756000Y-95504000D01*
X207898915Y-95504000D01*
X208020904Y-95281961D01*
X207860041Y-94893577D01*
X207484134Y-94478611D01*
X206978041Y-94239086D01*
X206756000Y-94360371D01*
X206502000Y-94360371D01*
X206279959Y-94239086D01*
X205773866Y-94478611D01*
X205397959Y-94893577D01*
X205237096Y-95281961D01*
X205192001Y-95281961D01*
X205192001Y-93235558D01*
X206029047Y-93235558D01*
X206086009Y-93467229D01*
X206572590Y-93636981D01*
X207087094Y-93607605D01*
X207425991Y-93467229D01*
X207482953Y-93235558D01*
X206756000Y-92508605D01*
X206029047Y-93235558D01*
X205192001Y-93235558D01*
X205192001Y-92145590D01*
X205448019Y-92145590D01*
X205477395Y-92660094D01*
X205617771Y-92998991D01*
X205849442Y-93055953D01*
X206576395Y-92329000D01*
X206935605Y-92329000D01*
X207662558Y-93055953D01*
X207894229Y-92998991D01*
X208063981Y-92512410D01*
X208034605Y-91997906D01*
X207894229Y-91659009D01*
X207662558Y-91602047D01*
X206935605Y-92329000D01*
X206576395Y-92329000D01*
X205849442Y-91602047D01*
X205617771Y-91659009D01*
X205448019Y-92145590D01*
X205192001Y-92145590D01*
X205192001Y-91422442D01*
X206029047Y-91422442D01*
X206756000Y-92149395D01*
X207482953Y-91422442D01*
X207425991Y-91190771D01*
X206939410Y-91021019D01*
X206424906Y-91050395D01*
X206086009Y-91190771D01*
X206029047Y-91422442D01*
X205192001Y-91422442D01*
X205192001Y-90335000D01*
X205517439Y-90335000D01*
X206044862Y-90116534D01*
X206448534Y-89712862D01*
X206667000Y-89185439D01*
X206667000Y-88614561D01*
X206448534Y-88087138D01*
X206044862Y-87683466D01*
X205517439Y-87465000D01*
X204946561Y-87465000D01*
X204419138Y-87683466D01*
X204015466Y-88087138D01*
X203993570Y-88140000D01*
X202639846Y-88140000D01*
X202564999Y-88125112D01*
X202490152Y-88140000D01*
X202490148Y-88140000D01*
X202268463Y-88184096D01*
X202268461Y-88184097D01*
X202268462Y-88184097D01*
X202080526Y-88309671D01*
X202080524Y-88309673D01*
X202017071Y-88352071D01*
X201974673Y-88415524D01*
X201667000Y-88723197D01*
X201667000Y-88614561D01*
X201448534Y-88087138D01*
X201044862Y-87683466D01*
X200517439Y-87465000D01*
X199946561Y-87465000D01*
X199419138Y-87683466D01*
X199015466Y-88087138D01*
X198993570Y-88140000D01*
X197239178Y-88140000D01*
X197031625Y-87829375D01*
X196540418Y-87501161D01*
X196107256Y-87415000D01*
X195814744Y-87415000D01*
X195381582Y-87501161D01*
X194890375Y-87829375D01*
X194562161Y-88320582D01*
X194446908Y-88900000D01*
X194562161Y-89479418D01*
X194890375Y-89970625D01*
X194908619Y-89982816D01*
X194863235Y-89991843D01*
X194653191Y-90132191D01*
X194512843Y-90342235D01*
X194463560Y-90590000D01*
X194463560Y-92290000D01*
X194512843Y-92537765D01*
X194653191Y-92747809D01*
X194863235Y-92888157D01*
X195111000Y-92937440D01*
X196811000Y-92937440D01*
X197058765Y-92888157D01*
X197268809Y-92747809D01*
X197409157Y-92537765D01*
X197458440Y-92290000D01*
X197458440Y-90590000D01*
X197409157Y-90342235D01*
X197268809Y-90132191D01*
X197058765Y-89991843D01*
X197013381Y-89982816D01*
X197031625Y-89970625D01*
X197239178Y-89660000D01*
X198993570Y-89660000D01*
X199015466Y-89712862D01*
X199419138Y-90116534D01*
X199946561Y-90335000D01*
X200055198Y-90335000D01*
X199356599Y-91033600D01*
X198878329Y-91033600D01*
X198402215Y-91230813D01*
X198037813Y-91595215D01*
X197840600Y-92071329D01*
X197840600Y-92586671D01*
X198037813Y-93062785D01*
X198402215Y-93427187D01*
X198878329Y-93624400D01*
X199393671Y-93624400D01*
X199869785Y-93427187D01*
X200234187Y-93062785D01*
X200431400Y-92586671D01*
X200431400Y-92108401D01*
X202879803Y-89660000D01*
X203665069Y-89660000D01*
X203657113Y-89699999D01*
X203672001Y-89774846D01*
X203672002Y-95899149D01*
X203657113Y-95974001D01*
X203672002Y-96048853D01*
X203716098Y-96270538D01*
X203884073Y-96521930D01*
X203947529Y-96564330D01*
X205230312Y-97847115D01*
X205165887Y-98171000D01*
X205277260Y-98730909D01*
X205594423Y-99205577D01*
X205946758Y-99441000D01*
X205594423Y-99676423D01*
X205277260Y-100151091D01*
X205165887Y-100711000D01*
X205277260Y-101270909D01*
X205594423Y-101745577D01*
X205946758Y-101981000D01*
X205594423Y-102216423D01*
X205277260Y-102691091D01*
X205165887Y-103251000D01*
X205230312Y-103574886D01*
X202504199Y-106301000D01*
X200370668Y-106301000D01*
X200472113Y-105791000D01*
X200360740Y-105231091D01*
X200043577Y-104756423D01*
X199691242Y-104521000D01*
X200043577Y-104285577D01*
X200360740Y-103810909D01*
X200472113Y-103251000D01*
X200360740Y-102691091D01*
X200043577Y-102216423D01*
X199691242Y-101981000D01*
X200043577Y-101745577D01*
X200360740Y-101270909D01*
X200472113Y-100711000D01*
X200360740Y-100151091D01*
X200043577Y-99676423D01*
X199691242Y-99441000D01*
X200043577Y-99205577D01*
X200360740Y-98730909D01*
X200472113Y-98171000D01*
X200360740Y-97611091D01*
X200043577Y-97136423D01*
X199922894Y-97055785D01*
X200056765Y-97029157D01*
X200266809Y-96888809D01*
X200407157Y-96678765D01*
X200456440Y-96431000D01*
X200456440Y-94831000D01*
X200407157Y-94583235D01*
X200266809Y-94373191D01*
X200056765Y-94232843D01*
X199809000Y-94183560D01*
X198209000Y-94183560D01*
X197961235Y-94232843D01*
X197751191Y-94373191D01*
X197610843Y-94583235D01*
X197561560Y-94831000D01*
X197561560Y-96431000D01*
X197610843Y-96678765D01*
X197751191Y-96888809D01*
X197961235Y-97029157D01*
X198095106Y-97055785D01*
X197974423Y-97136423D01*
X197657260Y-97611091D01*
X197545887Y-98171000D01*
X197657260Y-98730909D01*
X197878488Y-99062000D01*
X193114847Y-99062000D01*
X193040000Y-99047112D01*
X192965153Y-99062000D01*
X192965148Y-99062000D01*
X192743463Y-99106096D01*
X192492071Y-99274071D01*
X192449671Y-99337527D01*
X191836199Y-99951000D01*
X188464669Y-99951000D01*
X188419310Y-99841493D01*
X187987507Y-99409690D01*
X187423330Y-99176000D01*
X186812670Y-99176000D01*
X186248493Y-99409690D01*
X185816690Y-99841493D01*
X185813461Y-99849290D01*
X185698159Y-99810446D01*
X184797605Y-100711000D01*
X184811748Y-100725143D01*
X184632143Y-100904748D01*
X184618000Y-100890605D01*
X183717446Y-101791159D01*
X183803852Y-102047643D01*
X184274631Y-102219882D01*
X183971091Y-102280260D01*
X183496423Y-102597423D01*
X183179260Y-103072091D01*
X183067887Y-103632000D01*
X183132312Y-103955886D01*
X182769797Y-104318401D01*
X182390862Y-103939466D01*
X181863439Y-103721000D01*
X181292561Y-103721000D01*
X180831856Y-103911830D01*
X180737698Y-103817673D01*
X180504309Y-103721000D01*
X179863750Y-103721000D01*
X179705000Y-103879750D01*
X179705000Y-105029000D01*
X179725000Y-105029000D01*
X179725000Y-105283000D01*
X179705000Y-105283000D01*
X179705000Y-106432250D01*
X179863750Y-106591000D01*
X180504309Y-106591000D01*
X180737698Y-106494327D01*
X180831856Y-106400170D01*
X181292561Y-106591000D01*
X181863439Y-106591000D01*
X181865314Y-106590223D01*
X183211035Y-106590223D01*
X183238222Y-107160454D01*
X183404136Y-107561005D01*
X183650255Y-107635139D01*
X184478395Y-106807000D01*
X184837605Y-106807000D01*
X185665745Y-107635139D01*
X185911864Y-107561005D01*
X186104965Y-107023777D01*
X186081021Y-106521561D01*
X188223000Y-106521561D01*
X188223000Y-107092439D01*
X188441466Y-107619862D01*
X188845138Y-108023534D01*
X189372561Y-108242000D01*
X189943439Y-108242000D01*
X190470862Y-108023534D01*
X190874534Y-107619862D01*
X191093000Y-107092439D01*
X191093000Y-106521561D01*
X190874534Y-105994138D01*
X190470862Y-105590466D01*
X189943439Y-105372000D01*
X189372561Y-105372000D01*
X188845138Y-105590466D01*
X188441466Y-105994138D01*
X188223000Y-106521561D01*
X186081021Y-106521561D01*
X186077778Y-106453546D01*
X185911864Y-106052995D01*
X185665745Y-105978861D01*
X184837605Y-106807000D01*
X184478395Y-106807000D01*
X183650255Y-105978861D01*
X183404136Y-106052995D01*
X183211035Y-106590223D01*
X181865314Y-106590223D01*
X182390862Y-106372534D01*
X182794534Y-105968862D01*
X182816430Y-105916000D01*
X182932153Y-105916000D01*
X183007000Y-105930888D01*
X183081847Y-105916000D01*
X183081852Y-105916000D01*
X183303537Y-105871904D01*
X183412263Y-105799255D01*
X183829861Y-105799255D01*
X184658000Y-106627395D01*
X185486139Y-105799255D01*
X185412005Y-105553136D01*
X184874777Y-105360035D01*
X184304546Y-105387222D01*
X183903995Y-105553136D01*
X183829861Y-105799255D01*
X183412263Y-105799255D01*
X183554929Y-105703929D01*
X183597331Y-105640470D01*
X184207114Y-105030688D01*
X184389667Y-105067000D01*
X184672333Y-105067000D01*
X185090909Y-104983740D01*
X185565577Y-104666577D01*
X185882740Y-104191909D01*
X185994113Y-103632000D01*
X185929688Y-103308114D01*
X186405802Y-102832000D01*
X190703560Y-102832000D01*
X190703560Y-104432000D01*
X190752843Y-104679765D01*
X190893191Y-104889809D01*
X191103235Y-105030157D01*
X191351000Y-105079440D01*
X192951000Y-105079440D01*
X193198765Y-105030157D01*
X193408809Y-104889809D01*
X193549157Y-104679765D01*
X193598440Y-104432000D01*
X193598440Y-102832000D01*
X193549157Y-102584235D01*
X193408809Y-102374191D01*
X193198765Y-102233843D01*
X192951000Y-102184560D01*
X191351000Y-102184560D01*
X191103235Y-102233843D01*
X190893191Y-102374191D01*
X190752843Y-102584235D01*
X190703560Y-102832000D01*
X186405802Y-102832000D01*
X186991802Y-102246000D01*
X187423330Y-102246000D01*
X187987507Y-102012310D01*
X188419310Y-101580507D01*
X188464669Y-101471000D01*
X192076153Y-101471000D01*
X192151000Y-101485888D01*
X192225847Y-101471000D01*
X192225852Y-101471000D01*
X192447537Y-101426904D01*
X192698929Y-101258929D01*
X192741331Y-101195470D01*
X193354802Y-100582000D01*
X193994264Y-100582000D01*
X193877843Y-100756235D01*
X193828560Y-101004000D01*
X193828560Y-102704000D01*
X193877843Y-102951765D01*
X194018191Y-103161809D01*
X194228235Y-103302157D01*
X194273619Y-103311184D01*
X194255375Y-103323375D01*
X193927161Y-103814582D01*
X193811908Y-104394000D01*
X193927161Y-104973418D01*
X194255375Y-105464625D01*
X194566000Y-105672178D01*
X194566000Y-106445198D01*
X193632302Y-107378897D01*
X193579439Y-107357000D01*
X193008561Y-107357000D01*
X192481138Y-107575466D01*
X192077466Y-107979138D01*
X191859000Y-108506561D01*
X191859000Y-109077439D01*
X192077466Y-109604862D01*
X192481138Y-110008534D01*
X193008561Y-110227000D01*
X193324879Y-110227000D01*
X193334000Y-110272853D01*
X193333999Y-112357000D01*
X193008561Y-112357000D01*
X192481138Y-112575466D01*
X192077466Y-112979138D01*
X191859000Y-113506561D01*
X191859000Y-114077439D01*
X192077466Y-114604862D01*
X192481138Y-115008534D01*
X193008561Y-115227000D01*
X193579439Y-115227000D01*
X194106862Y-115008534D01*
X194439000Y-114676396D01*
X194439000Y-115266828D01*
X192682528Y-117023301D01*
X192619072Y-117065701D01*
X192576672Y-117129157D01*
X192576671Y-117129158D01*
X192451097Y-117317093D01*
X192409713Y-117525144D01*
X192132423Y-117710423D01*
X191815260Y-118185091D01*
X191703887Y-118745000D01*
X191815260Y-119304909D01*
X192132423Y-119779577D01*
X192407001Y-119963044D01*
X192407000Y-121891197D01*
X191092302Y-123205896D01*
X191039439Y-123184000D01*
X190468561Y-123184000D01*
X189941138Y-123402466D01*
X189871703Y-123471901D01*
X188607640Y-122207839D01*
X188653000Y-122098330D01*
X188653000Y-121487670D01*
X188419310Y-120923493D01*
X187987507Y-120491690D01*
X187423330Y-120258000D01*
X186812670Y-120258000D01*
X186248493Y-120491690D01*
X185816690Y-120923493D01*
X185813461Y-120931290D01*
X185698159Y-120892446D01*
X184797605Y-121793000D01*
X185698159Y-122693554D01*
X185813461Y-122654710D01*
X185816690Y-122662507D01*
X186248493Y-123094310D01*
X186812670Y-123328000D01*
X187423330Y-123328000D01*
X187532839Y-123282640D01*
X189353671Y-125103473D01*
X189396071Y-125166929D01*
X189439841Y-125196175D01*
X189509830Y-125365144D01*
X189415673Y-125459302D01*
X189319000Y-125692691D01*
X189319000Y-126333250D01*
X189477750Y-126492000D01*
X190627000Y-126492000D01*
X190627000Y-126472000D01*
X190881000Y-126472000D01*
X190881000Y-126492000D01*
X192030250Y-126492000D01*
X192189000Y-126333250D01*
X192189000Y-125692691D01*
X192092327Y-125459302D01*
X191998170Y-125365144D01*
X192189000Y-124904439D01*
X192189000Y-124333561D01*
X192167104Y-124280698D01*
X193651476Y-122796327D01*
X193714929Y-122753929D01*
X193757327Y-122690476D01*
X193757329Y-122690474D01*
X193882903Y-122502538D01*
X193882904Y-122502537D01*
X193927000Y-122280852D01*
X193927000Y-122280848D01*
X193941888Y-122206001D01*
X193927000Y-122131154D01*
X193927000Y-119963043D01*
X194201577Y-119779577D01*
X194518740Y-119304909D01*
X194630113Y-118745000D01*
X194518740Y-118185091D01*
X194201577Y-117710423D01*
X194167667Y-117687765D01*
X195683473Y-116171959D01*
X195746929Y-116129559D01*
X195832107Y-116002082D01*
X196158590Y-116115981D01*
X196673094Y-116086605D01*
X197011991Y-115946229D01*
X197068953Y-115714558D01*
X196342000Y-114987605D01*
X196327858Y-115001748D01*
X196148253Y-114822143D01*
X196162395Y-114808000D01*
X196521605Y-114808000D01*
X197248558Y-115534953D01*
X197480229Y-115477991D01*
X197649981Y-114991410D01*
X197620605Y-114476906D01*
X197480229Y-114138009D01*
X197248558Y-114081047D01*
X196521605Y-114808000D01*
X196162395Y-114808000D01*
X196148253Y-114793858D01*
X196327858Y-114614253D01*
X196342000Y-114628395D01*
X197068953Y-113901442D01*
X197011991Y-113669771D01*
X196525410Y-113500019D01*
X196010906Y-113529395D01*
X195959000Y-113550895D01*
X195959000Y-112201801D01*
X197609474Y-110551329D01*
X197545887Y-110871000D01*
X197657260Y-111430909D01*
X197974423Y-111905577D01*
X198449091Y-112222740D01*
X198867667Y-112306000D01*
X199150333Y-112306000D01*
X199568909Y-112222740D01*
X200043577Y-111905577D01*
X200360740Y-111430909D01*
X200472113Y-110871000D01*
X200360740Y-110311091D01*
X200043577Y-109836423D01*
X199691242Y-109601000D01*
X200043577Y-109365577D01*
X200360740Y-108890909D01*
X200472113Y-108331000D01*
X200370668Y-107821000D01*
X202744153Y-107821000D01*
X202819000Y-107835888D01*
X202893847Y-107821000D01*
X202893852Y-107821000D01*
X203115537Y-107776904D01*
X203366929Y-107608929D01*
X203409331Y-107545470D01*
X205166405Y-105788397D01*
X205165887Y-105791000D01*
X205277260Y-106350909D01*
X205594423Y-106825577D01*
X205946758Y-107061000D01*
X205594423Y-107296423D01*
X205277260Y-107771091D01*
X205165887Y-108331000D01*
X205277260Y-108890909D01*
X205594423Y-109365577D01*
X205946758Y-109601000D01*
X205594423Y-109836423D01*
X205277260Y-110311091D01*
X205165887Y-110871000D01*
X205230312Y-111194886D01*
X200302528Y-116122671D01*
X200239072Y-116165071D01*
X200196672Y-116228527D01*
X200196671Y-116228528D01*
X200071097Y-116416463D01*
X200012112Y-116713000D01*
X200027001Y-116787852D01*
X200027001Y-117297560D01*
X199987000Y-117297560D01*
X199739235Y-117346843D01*
X199529191Y-117487191D01*
X199388843Y-117697235D01*
X199339560Y-117945000D01*
X199339560Y-119545000D01*
X199388843Y-119792765D01*
X199529191Y-120002809D01*
X199739235Y-120143157D01*
X199987000Y-120192440D01*
X201587000Y-120192440D01*
X201834765Y-120143157D01*
X202044809Y-120002809D01*
X202185157Y-119792765D01*
X202234440Y-119545000D01*
X202234440Y-117945000D01*
X202185157Y-117697235D01*
X202044809Y-117487191D01*
X201834765Y-117346843D01*
X201587000Y-117297560D01*
X201547000Y-117297560D01*
X201547000Y-117027801D01*
X206305114Y-112269688D01*
X206487667Y-112306000D01*
X206770333Y-112306000D01*
X207188909Y-112222740D01*
X207663577Y-111905577D01*
X207980740Y-111430909D01*
X208092113Y-110871000D01*
X207980740Y-110311091D01*
X207663577Y-109836423D01*
X207311242Y-109601000D01*
X207663577Y-109365577D01*
X207944979Y-108944430D01*
X207986071Y-109005929D01*
X208049530Y-109048331D01*
X215987845Y-116986646D01*
X215900000Y-116969173D01*
X215066964Y-117134874D01*
X214360751Y-117606751D01*
X213888874Y-118312965D01*
X213765000Y-118935722D01*
X213765000Y-121856279D01*
X213888875Y-122479036D01*
X214360752Y-123185249D01*
X215066965Y-123657126D01*
X215900000Y-123822827D01*
X216733036Y-123657126D01*
X217144990Y-123381867D01*
X217144990Y-123918208D01*
X216159590Y-124903609D01*
X215931310Y-124352493D01*
X215499507Y-123920690D01*
X214935330Y-123687000D01*
X214324670Y-123687000D01*
X213760493Y-123920690D01*
X213591275Y-124089908D01*
X213588157Y-124074235D01*
X213447809Y-123864191D01*
X213237765Y-123723843D01*
X212990000Y-123674560D01*
X211190000Y-123674560D01*
X210942235Y-123723843D01*
X210732191Y-123864191D01*
X210591843Y-124074235D01*
X210542560Y-124322000D01*
X210542560Y-124573517D01*
X210474490Y-124619000D01*
X210392071Y-124674071D01*
X210349671Y-124737527D01*
X209065528Y-126021671D01*
X209002072Y-126064071D01*
X208959672Y-126127527D01*
X208959671Y-126127528D01*
X208894468Y-126225111D01*
X208834097Y-126315463D01*
X208794302Y-126515528D01*
X208775112Y-126612000D01*
X208790001Y-126686852D01*
X208790000Y-128214028D01*
X208451813Y-128552215D01*
X208254600Y-129028329D01*
X208254600Y-129455798D01*
X207643000Y-128844199D01*
X207643000Y-125932043D01*
X207917577Y-125748577D01*
X208234740Y-125273909D01*
X208346113Y-124714000D01*
X208234740Y-124154091D01*
X207917577Y-123679423D01*
X207442909Y-123362260D01*
X207024333Y-123279000D01*
X206741667Y-123279000D01*
X206323091Y-123362260D01*
X205848423Y-123679423D01*
X205549500Y-124126793D01*
X205250577Y-123679423D01*
X204775909Y-123362260D01*
X204357333Y-123279000D01*
X204074667Y-123279000D01*
X203656091Y-123362260D01*
X203181423Y-123679423D01*
X202882500Y-124126793D01*
X202583577Y-123679423D01*
X202108909Y-123362260D01*
X201690333Y-123279000D01*
X201407667Y-123279000D01*
X200989091Y-123362260D01*
X200514423Y-123679423D01*
X200215500Y-124126793D01*
X199916577Y-123679423D01*
X199441909Y-123362260D01*
X199023333Y-123279000D01*
X198740667Y-123279000D01*
X198322091Y-123362260D01*
X197847423Y-123679423D01*
X197548500Y-124126793D01*
X197249577Y-123679423D01*
X196774909Y-123362260D01*
X196356333Y-123279000D01*
X196073667Y-123279000D01*
X195655091Y-123362260D01*
X195180423Y-123679423D01*
X194863260Y-124154091D01*
X194751887Y-124714000D01*
X194863260Y-125273909D01*
X195180423Y-125748577D01*
X195655091Y-126065740D01*
X196073667Y-126149000D01*
X196356333Y-126149000D01*
X196774909Y-126065740D01*
X197249577Y-125748577D01*
X197548500Y-125301207D01*
X197847423Y-125748577D01*
X198322091Y-126065740D01*
X198740667Y-126149000D01*
X199023333Y-126149000D01*
X199441909Y-126065740D01*
X199916577Y-125748577D01*
X200215500Y-125301207D01*
X200514423Y-125748577D01*
X200989091Y-126065740D01*
X201407667Y-126149000D01*
X201690333Y-126149000D01*
X202108909Y-126065740D01*
X202583577Y-125748577D01*
X202882500Y-125301207D01*
X203181423Y-125748577D01*
X203656091Y-126065740D01*
X204074667Y-126149000D01*
X204357333Y-126149000D01*
X204775909Y-126065740D01*
X205250577Y-125748577D01*
X205549500Y-125301207D01*
X205848423Y-125748577D01*
X206123001Y-125932044D01*
X206123000Y-129084153D01*
X206108112Y-129159000D01*
X206123000Y-129233847D01*
X206123000Y-129233851D01*
X206167096Y-129455536D01*
X206335071Y-129706929D01*
X206398530Y-129749331D01*
X207535758Y-130886560D01*
X206083000Y-130886560D01*
X205835235Y-130935843D01*
X205625191Y-131076191D01*
X205549500Y-131189470D01*
X205473809Y-131076191D01*
X205263765Y-130935843D01*
X205016000Y-130886560D01*
X203416000Y-130886560D01*
X203168235Y-130935843D01*
X202958191Y-131076191D01*
X202882500Y-131189470D01*
X202806809Y-131076191D01*
X202596765Y-130935843D01*
X202349000Y-130886560D01*
X200749000Y-130886560D01*
X200501235Y-130935843D01*
X200291191Y-131076191D01*
X200215500Y-131189470D01*
X200139809Y-131076191D01*
X199929765Y-130935843D01*
X199682000Y-130886560D01*
X198082000Y-130886560D01*
X197834235Y-130935843D01*
X197624191Y-131076191D01*
X197548500Y-131189470D01*
X197472809Y-131076191D01*
X197262765Y-130935843D01*
X197015000Y-130886560D01*
X195415000Y-130886560D01*
X195167235Y-130935843D01*
X194957191Y-131076191D01*
X194816843Y-131286235D01*
X194767560Y-131534000D01*
X194767560Y-133134000D01*
X194816843Y-133381765D01*
X194954294Y-133587473D01*
X194864096Y-133722464D01*
X194820000Y-133944149D01*
X194820000Y-133944153D01*
X194805112Y-134019000D01*
X194820000Y-134093847D01*
X194820001Y-140895148D01*
X194805112Y-140970000D01*
X194820001Y-141044852D01*
X194841009Y-141150466D01*
X194864097Y-141266537D01*
X194984472Y-141446690D01*
X195032072Y-141517929D01*
X195095528Y-141560329D01*
X197402673Y-143867476D01*
X197445071Y-143930929D01*
X197508524Y-143973327D01*
X197508526Y-143973329D01*
X197622240Y-144049310D01*
X197696463Y-144098904D01*
X197918148Y-144143000D01*
X197918152Y-144143000D01*
X197992999Y-144157888D01*
X198067846Y-144143000D01*
X200178346Y-144143000D01*
X200192874Y-144216036D01*
X200265013Y-144324000D01*
X183129485Y-144324000D01*
X183315625Y-144199625D01*
X183643839Y-143708418D01*
X183759092Y-143129000D01*
X183686209Y-142762593D01*
X184083803Y-142365000D01*
X184407560Y-142365000D01*
X184407560Y-142605000D01*
X184456843Y-142852765D01*
X184597191Y-143062809D01*
X184807235Y-143203157D01*
X185055000Y-143252440D01*
X187055000Y-143252440D01*
X187302765Y-143203157D01*
X187512809Y-143062809D01*
X187653157Y-142852765D01*
X187692942Y-142652750D01*
X188557000Y-142652750D01*
X188557000Y-143293310D01*
X188653673Y-143526699D01*
X188832302Y-143705327D01*
X189065691Y-143802000D01*
X189706250Y-143802000D01*
X189865000Y-143643250D01*
X189865000Y-142494000D01*
X188715750Y-142494000D01*
X188557000Y-142652750D01*
X187692942Y-142652750D01*
X187702440Y-142605000D01*
X187702440Y-141440690D01*
X188557000Y-141440690D01*
X188557000Y-142081250D01*
X188715750Y-142240000D01*
X189865000Y-142240000D01*
X189865000Y-141090750D01*
X190119000Y-141090750D01*
X190119000Y-142240000D01*
X190139000Y-142240000D01*
X190139000Y-142494000D01*
X190119000Y-142494000D01*
X190119000Y-143643250D01*
X190277750Y-143802000D01*
X190918309Y-143802000D01*
X191151698Y-143705327D01*
X191245856Y-143611170D01*
X191706561Y-143802000D01*
X192277439Y-143802000D01*
X192804862Y-143583534D01*
X193208534Y-143179862D01*
X193427000Y-142652439D01*
X193427000Y-142081561D01*
X193208534Y-141554138D01*
X192804862Y-141150466D01*
X192277439Y-140932000D01*
X191706561Y-140932000D01*
X191245856Y-141122830D01*
X191151698Y-141028673D01*
X190918309Y-140932000D01*
X190277750Y-140932000D01*
X190119000Y-141090750D01*
X189865000Y-141090750D01*
X189706250Y-140932000D01*
X189065691Y-140932000D01*
X188832302Y-141028673D01*
X188653673Y-141207301D01*
X188557000Y-141440690D01*
X187702440Y-141440690D01*
X187702440Y-140605000D01*
X187653157Y-140357235D01*
X187512809Y-140147191D01*
X187302765Y-140006843D01*
X187055000Y-139957560D01*
X185055000Y-139957560D01*
X184807235Y-140006843D01*
X184597191Y-140147191D01*
X184456843Y-140357235D01*
X184407560Y-140605000D01*
X184407560Y-140845000D01*
X183843846Y-140845000D01*
X183768999Y-140830112D01*
X183708748Y-140842097D01*
X183759092Y-140589000D01*
X183643839Y-140009582D01*
X183315625Y-139518375D01*
X183017239Y-139319000D01*
X183315625Y-139119625D01*
X183643839Y-138628418D01*
X183759092Y-138049000D01*
X183643839Y-137469582D01*
X183315625Y-136978375D01*
X183017239Y-136779000D01*
X183315625Y-136579625D01*
X183643839Y-136088418D01*
X183759092Y-135509000D01*
X183686490Y-135144000D01*
X184407560Y-135144000D01*
X184407560Y-137144000D01*
X184456843Y-137391765D01*
X184597191Y-137601809D01*
X184807235Y-137742157D01*
X185055000Y-137791440D01*
X187055000Y-137791440D01*
X187302765Y-137742157D01*
X187413747Y-137668000D01*
X188985010Y-137668000D01*
X189119666Y-138344963D01*
X189503135Y-138918865D01*
X190077037Y-139302334D01*
X190583120Y-139403000D01*
X190924880Y-139403000D01*
X191430963Y-139302334D01*
X192004865Y-138918865D01*
X192388334Y-138344963D01*
X192522990Y-137668000D01*
X192388334Y-136991037D01*
X192004865Y-136417135D01*
X191430963Y-136033666D01*
X190924880Y-135933000D01*
X190583120Y-135933000D01*
X190077037Y-136033666D01*
X189503135Y-136417135D01*
X189119666Y-136991037D01*
X188985010Y-137668000D01*
X187413747Y-137668000D01*
X187512809Y-137601809D01*
X187653157Y-137391765D01*
X187702440Y-137144000D01*
X187702440Y-135144000D01*
X187653157Y-134896235D01*
X187512809Y-134686191D01*
X187302765Y-134545843D01*
X187055000Y-134496560D01*
X185055000Y-134496560D01*
X184807235Y-134545843D01*
X184597191Y-134686191D01*
X184456843Y-134896235D01*
X184407560Y-135144000D01*
X183686490Y-135144000D01*
X183643839Y-134929582D01*
X183315625Y-134438375D01*
X183017239Y-134239000D01*
X183315625Y-134039625D01*
X183523178Y-133729000D01*
X185071153Y-133729000D01*
X185146000Y-133743888D01*
X185220847Y-133729000D01*
X185220852Y-133729000D01*
X185442537Y-133684904D01*
X185693929Y-133516929D01*
X185736331Y-133453470D01*
X186539473Y-132650329D01*
X186602929Y-132607929D01*
X186703483Y-132457440D01*
X187055000Y-132457440D01*
X187302765Y-132408157D01*
X187512809Y-132267809D01*
X187653157Y-132057765D01*
X187702440Y-131810000D01*
X187702440Y-130333750D01*
X189019000Y-130333750D01*
X189019000Y-131274309D01*
X189115673Y-131507698D01*
X189294301Y-131686327D01*
X189527690Y-131783000D01*
X190468250Y-131783000D01*
X190627000Y-131624250D01*
X190627000Y-130175000D01*
X190881000Y-130175000D01*
X190881000Y-131624250D01*
X191039750Y-131783000D01*
X191980310Y-131783000D01*
X192213699Y-131686327D01*
X192392327Y-131507698D01*
X192489000Y-131274309D01*
X192489000Y-130333750D01*
X192330250Y-130175000D01*
X190881000Y-130175000D01*
X190627000Y-130175000D01*
X189177750Y-130175000D01*
X189019000Y-130333750D01*
X187702440Y-130333750D01*
X187702440Y-129810000D01*
X187653157Y-129562235D01*
X187512809Y-129352191D01*
X187302765Y-129211843D01*
X187055000Y-129162560D01*
X185055000Y-129162560D01*
X184807235Y-129211843D01*
X184597191Y-129352191D01*
X184456843Y-129562235D01*
X184407560Y-129810000D01*
X184407560Y-131810000D01*
X184456843Y-132057765D01*
X184557896Y-132209000D01*
X183523178Y-132209000D01*
X183315625Y-131898375D01*
X182996522Y-131685157D01*
X183126358Y-131624183D01*
X183516645Y-131195924D01*
X183686476Y-130785890D01*
X183565155Y-130556000D01*
X182372000Y-130556000D01*
X182372000Y-130576000D01*
X182118000Y-130576000D01*
X182118000Y-130556000D01*
X179832000Y-130556000D01*
X179832000Y-130576000D01*
X179578000Y-130576000D01*
X179578000Y-130556000D01*
X179558000Y-130556000D01*
X179558000Y-130302000D01*
X179578000Y-130302000D01*
X179578000Y-130282000D01*
X179832000Y-130282000D01*
X179832000Y-130302000D01*
X182118000Y-130302000D01*
X182118000Y-130282000D01*
X182372000Y-130282000D01*
X182372000Y-130302000D01*
X183565155Y-130302000D01*
X183686476Y-130072110D01*
X183516645Y-129662076D01*
X183126358Y-129233817D01*
X182996522Y-129172843D01*
X183315625Y-128959625D01*
X183407789Y-128821691D01*
X189019000Y-128821691D01*
X189019000Y-129762250D01*
X189177750Y-129921000D01*
X190627000Y-129921000D01*
X190627000Y-128471750D01*
X190881000Y-128471750D01*
X190881000Y-129921000D01*
X192330250Y-129921000D01*
X192489000Y-129762250D01*
X192489000Y-128821691D01*
X192392327Y-128588302D01*
X192213699Y-128409673D01*
X191980310Y-128313000D01*
X191039750Y-128313000D01*
X190881000Y-128471750D01*
X190627000Y-128471750D01*
X190468250Y-128313000D01*
X189527690Y-128313000D01*
X189294301Y-128409673D01*
X189115673Y-128588302D01*
X189019000Y-128821691D01*
X183407789Y-128821691D01*
X183643839Y-128468418D01*
X183759092Y-127889000D01*
X183643839Y-127309582D01*
X183315625Y-126818375D01*
X183017239Y-126619000D01*
X183315625Y-126419625D01*
X183643839Y-125928418D01*
X183676991Y-125761750D01*
X184420000Y-125761750D01*
X184420000Y-126602310D01*
X184516673Y-126835699D01*
X184695302Y-127014327D01*
X184928691Y-127111000D01*
X185769250Y-127111000D01*
X185928000Y-126952250D01*
X185928000Y-125603000D01*
X186182000Y-125603000D01*
X186182000Y-126952250D01*
X186340750Y-127111000D01*
X187181309Y-127111000D01*
X187414698Y-127014327D01*
X187524275Y-126904750D01*
X189319000Y-126904750D01*
X189319000Y-127545309D01*
X189415673Y-127778698D01*
X189594301Y-127957327D01*
X189827690Y-128054000D01*
X190468250Y-128054000D01*
X190627000Y-127895250D01*
X190627000Y-126746000D01*
X190881000Y-126746000D01*
X190881000Y-127895250D01*
X191039750Y-128054000D01*
X191680310Y-128054000D01*
X191913699Y-127957327D01*
X192092327Y-127778698D01*
X192189000Y-127545309D01*
X192189000Y-126904750D01*
X192030250Y-126746000D01*
X190881000Y-126746000D01*
X190627000Y-126746000D01*
X189477750Y-126746000D01*
X189319000Y-126904750D01*
X187524275Y-126904750D01*
X187593327Y-126835699D01*
X187690000Y-126602310D01*
X187690000Y-125761750D01*
X187531250Y-125603000D01*
X186182000Y-125603000D01*
X185928000Y-125603000D01*
X184578750Y-125603000D01*
X184420000Y-125761750D01*
X183676991Y-125761750D01*
X183759092Y-125349000D01*
X183643839Y-124769582D01*
X183363277Y-124349690D01*
X184420000Y-124349690D01*
X184420000Y-125190250D01*
X184578750Y-125349000D01*
X185928000Y-125349000D01*
X185928000Y-123999750D01*
X186182000Y-123999750D01*
X186182000Y-125349000D01*
X187531250Y-125349000D01*
X187690000Y-125190250D01*
X187690000Y-124349690D01*
X187593327Y-124116301D01*
X187414698Y-123937673D01*
X187181309Y-123841000D01*
X186340750Y-123841000D01*
X186182000Y-123999750D01*
X185928000Y-123999750D01*
X185769250Y-123841000D01*
X184928691Y-123841000D01*
X184695302Y-123937673D01*
X184516673Y-124116301D01*
X184420000Y-124349690D01*
X183363277Y-124349690D01*
X183315625Y-124278375D01*
X182824418Y-123950161D01*
X182391256Y-123864000D01*
X182098744Y-123864000D01*
X181665582Y-123950161D01*
X181174375Y-124278375D01*
X180975000Y-124576761D01*
X180775625Y-124278375D01*
X180284418Y-123950161D01*
X179851256Y-123864000D01*
X179558744Y-123864000D01*
X179125582Y-123950161D01*
X178637000Y-124276621D01*
X178637000Y-122873159D01*
X181217446Y-122873159D01*
X181303852Y-123129643D01*
X181877336Y-123339458D01*
X182487460Y-123313839D01*
X182932148Y-123129643D01*
X183018554Y-122873159D01*
X183717446Y-122873159D01*
X183803852Y-123129643D01*
X184377336Y-123339458D01*
X184987460Y-123313839D01*
X185432148Y-123129643D01*
X185518554Y-122873159D01*
X184618000Y-121972605D01*
X183717446Y-122873159D01*
X183018554Y-122873159D01*
X182118000Y-121972605D01*
X181217446Y-122873159D01*
X178637000Y-122873159D01*
X178637000Y-121552336D01*
X180571542Y-121552336D01*
X180597161Y-122162460D01*
X180781357Y-122607148D01*
X181037841Y-122693554D01*
X181938395Y-121793000D01*
X182297605Y-121793000D01*
X183198159Y-122693554D01*
X183368000Y-122636337D01*
X183537841Y-122693554D01*
X184438395Y-121793000D01*
X183537841Y-120892446D01*
X183368000Y-120949663D01*
X183198159Y-120892446D01*
X182297605Y-121793000D01*
X181938395Y-121793000D01*
X181037841Y-120892446D01*
X180781357Y-120978852D01*
X180571542Y-121552336D01*
X178637000Y-121552336D01*
X178637000Y-120712841D01*
X181217446Y-120712841D01*
X182118000Y-121613395D01*
X183018554Y-120712841D01*
X183717446Y-120712841D01*
X184618000Y-121613395D01*
X185518554Y-120712841D01*
X185432148Y-120456357D01*
X184858664Y-120246542D01*
X184248540Y-120272161D01*
X183803852Y-120456357D01*
X183717446Y-120712841D01*
X183018554Y-120712841D01*
X182932148Y-120456357D01*
X182358664Y-120246542D01*
X181748540Y-120272161D01*
X181303852Y-120456357D01*
X181217446Y-120712841D01*
X178637000Y-120712841D01*
X178637000Y-116938453D01*
X178725392Y-117026845D01*
X179693866Y-117428000D01*
X180742134Y-117428000D01*
X181710608Y-117026845D01*
X182451845Y-116285608D01*
X182853000Y-115317134D01*
X182853000Y-114268866D01*
X186383000Y-114268866D01*
X186383000Y-115317134D01*
X186784155Y-116285608D01*
X187525392Y-117026845D01*
X188493866Y-117428000D01*
X189542134Y-117428000D01*
X190510608Y-117026845D01*
X191251845Y-116285608D01*
X191653000Y-115317134D01*
X191653000Y-114268866D01*
X191251845Y-113300392D01*
X190510608Y-112559155D01*
X189542134Y-112158000D01*
X188493866Y-112158000D01*
X187525392Y-112559155D01*
X186784155Y-113300392D01*
X186383000Y-114268866D01*
X182853000Y-114268866D01*
X182451845Y-113300392D01*
X181710608Y-112559155D01*
X180742134Y-112158000D01*
X179693866Y-112158000D01*
X178725392Y-112559155D01*
X178637000Y-112647547D01*
X178637000Y-107814745D01*
X183829861Y-107814745D01*
X183903995Y-108060864D01*
X184441223Y-108253965D01*
X185011454Y-108226778D01*
X185412005Y-108060864D01*
X185486139Y-107814745D01*
X184658000Y-106986605D01*
X183829861Y-107814745D01*
X178637000Y-107814745D01*
X178637000Y-106584915D01*
X178651691Y-106591000D01*
X179292250Y-106591000D01*
X179451000Y-106432250D01*
X179451000Y-105283000D01*
X179431000Y-105283000D01*
X179431000Y-105029000D01*
X179451000Y-105029000D01*
X179451000Y-103879750D01*
X179292250Y-103721000D01*
X178651691Y-103721000D01*
X178637000Y-103727085D01*
X178637000Y-101791159D01*
X181217446Y-101791159D01*
X181303852Y-102047643D01*
X181877336Y-102257458D01*
X182487460Y-102231839D01*
X182932148Y-102047643D01*
X183018554Y-101791159D01*
X182118000Y-100890605D01*
X181217446Y-101791159D01*
X178637000Y-101791159D01*
X178637000Y-100470336D01*
X180571542Y-100470336D01*
X180597161Y-101080460D01*
X180781357Y-101525148D01*
X181037841Y-101611554D01*
X181938395Y-100711000D01*
X182297605Y-100711000D01*
X183198159Y-101611554D01*
X183368000Y-101554337D01*
X183537841Y-101611554D01*
X184438395Y-100711000D01*
X183537841Y-99810446D01*
X183368000Y-99867663D01*
X183198159Y-99810446D01*
X182297605Y-100711000D01*
X181938395Y-100711000D01*
X181037841Y-99810446D01*
X180781357Y-99896852D01*
X180571542Y-100470336D01*
X178637000Y-100470336D01*
X178637000Y-99630841D01*
X181217446Y-99630841D01*
X182118000Y-100531395D01*
X183018554Y-99630841D01*
X183717446Y-99630841D01*
X184618000Y-100531395D01*
X185518554Y-99630841D01*
X185432148Y-99374357D01*
X184858664Y-99164542D01*
X184248540Y-99190161D01*
X183803852Y-99374357D01*
X183717446Y-99630841D01*
X183018554Y-99630841D01*
X182932148Y-99374357D01*
X182358664Y-99164542D01*
X181748540Y-99190161D01*
X181303852Y-99374357D01*
X181217446Y-99630841D01*
X178637000Y-99630841D01*
X178637000Y-95856453D01*
X178725392Y-95944845D01*
X179693866Y-96346000D01*
X180742134Y-96346000D01*
X181710608Y-95944845D01*
X182451845Y-95203608D01*
X182853000Y-94235134D01*
X182853000Y-93186866D01*
X186383000Y-93186866D01*
X186383000Y-94235134D01*
X186784155Y-95203608D01*
X187525392Y-95944845D01*
X188493866Y-96346000D01*
X189542134Y-96346000D01*
X190510608Y-95944845D01*
X191251845Y-95203608D01*
X191653000Y-94235134D01*
X191653000Y-93186866D01*
X191251845Y-92218392D01*
X190510608Y-91477155D01*
X189542134Y-91076000D01*
X188493866Y-91076000D01*
X187525392Y-91477155D01*
X186784155Y-92218392D01*
X186383000Y-93186866D01*
X182853000Y-93186866D01*
X182451845Y-92218392D01*
X181710608Y-91477155D01*
X180742134Y-91076000D01*
X179693866Y-91076000D01*
X178725392Y-91477155D01*
X178637000Y-91565547D01*
X178637000Y-86605745D01*
X184464861Y-86605745D01*
X184538995Y-86851864D01*
X185076223Y-87044965D01*
X185646454Y-87017778D01*
X186047005Y-86851864D01*
X186121139Y-86605745D01*
X185293000Y-85777605D01*
X184464861Y-86605745D01*
X178637000Y-86605745D01*
X178637000Y-85450310D01*
X178778691Y-85509000D01*
X179419250Y-85509000D01*
X179578000Y-85350250D01*
X179578000Y-84201000D01*
X179558000Y-84201000D01*
X179558000Y-83947000D01*
X179578000Y-83947000D01*
X179578000Y-82797750D01*
X179419250Y-82639000D01*
X178778691Y-82639000D01*
X178637000Y-82697690D01*
X178637000Y-80709159D01*
X181217446Y-80709159D01*
X181303852Y-80965643D01*
X181877336Y-81175458D01*
X182487460Y-81149839D01*
X182932148Y-80965643D01*
X183018554Y-80709159D01*
X182118000Y-79808605D01*
X181217446Y-80709159D01*
X178637000Y-80709159D01*
X178637000Y-79388336D01*
X180571542Y-79388336D01*
X180597161Y-79998460D01*
X180781357Y-80443148D01*
X181037841Y-80529554D01*
X181938395Y-79629000D01*
X182297605Y-79629000D01*
X183198159Y-80529554D01*
X183368000Y-80472337D01*
X183537841Y-80529554D01*
X184438395Y-79629000D01*
X183537841Y-78728446D01*
X183368000Y-78785663D01*
X183198159Y-78728446D01*
X182297605Y-79629000D01*
X181938395Y-79629000D01*
X181037841Y-78728446D01*
X180781357Y-78814852D01*
X180571542Y-79388336D01*
X178637000Y-79388336D01*
X178637000Y-78548841D01*
X181217446Y-78548841D01*
X182118000Y-79449395D01*
X183018554Y-78548841D01*
X183717446Y-78548841D01*
X184618000Y-79449395D01*
X185518554Y-78548841D01*
X185432148Y-78292357D01*
X184858664Y-78082542D01*
X184248540Y-78108161D01*
X183803852Y-78292357D01*
X183717446Y-78548841D01*
X183018554Y-78548841D01*
X182932148Y-78292357D01*
X182358664Y-78082542D01*
X181748540Y-78108161D01*
X181303852Y-78292357D01*
X181217446Y-78548841D01*
X178637000Y-78548841D01*
X178637000Y-74774453D01*
X178725392Y-74862845D01*
X179693866Y-75264000D01*
X180742134Y-75264000D01*
X181710608Y-74862845D01*
X182451845Y-74121608D01*
X182853000Y-73153134D01*
X182853000Y-72104866D01*
X186383000Y-72104866D01*
X186383000Y-73153134D01*
X186784155Y-74121608D01*
X187525392Y-74862845D01*
X188493866Y-75264000D01*
X189542134Y-75264000D01*
X190510608Y-74862845D01*
X191251845Y-74121608D01*
X191653000Y-73153134D01*
X191653000Y-72104866D01*
X191251845Y-71136392D01*
X190510608Y-70395155D01*
X189542134Y-69994000D01*
X188493866Y-69994000D01*
X187525392Y-70395155D01*
X186784155Y-71136392D01*
X186383000Y-72104866D01*
X182853000Y-72104866D01*
X182451845Y-71136392D01*
X181710608Y-70395155D01*
X180742134Y-69994000D01*
X179693866Y-69994000D01*
X178725392Y-70395155D01*
X178637000Y-70483547D01*
X178637000Y-65422558D01*
X184058047Y-65422558D01*
X184115009Y-65654229D01*
X184601590Y-65823981D01*
X185116094Y-65794605D01*
X185454991Y-65654229D01*
X185511953Y-65422558D01*
X184785000Y-64695605D01*
X184058047Y-65422558D01*
X178637000Y-65422558D01*
X178637000Y-64332590D01*
X183477019Y-64332590D01*
X183506395Y-64847094D01*
X183646771Y-65185991D01*
X183878442Y-65242953D01*
X184605395Y-64516000D01*
X184964605Y-64516000D01*
X185691558Y-65242953D01*
X185923229Y-65185991D01*
X186092981Y-64699410D01*
X186063605Y-64184906D01*
X185923229Y-63846009D01*
X185691558Y-63789047D01*
X184964605Y-64516000D01*
X184605395Y-64516000D01*
X183878442Y-63789047D01*
X183646771Y-63846009D01*
X183477019Y-64332590D01*
X178637000Y-64332590D01*
X178637000Y-64241310D01*
X178778691Y-64300000D01*
X179419250Y-64300000D01*
X179578000Y-64141250D01*
X179578000Y-62992000D01*
X179558000Y-62992000D01*
X179558000Y-62738000D01*
X179578000Y-62738000D01*
X179578000Y-61588750D01*
X179419250Y-61430000D01*
X178778691Y-61430000D01*
X178637000Y-61488690D01*
X178637000Y-59627159D01*
X181217446Y-59627159D01*
X181303852Y-59883643D01*
X181877336Y-60093458D01*
X182487460Y-60067839D01*
X182932148Y-59883643D01*
X183018554Y-59627159D01*
X182118000Y-58726605D01*
X181217446Y-59627159D01*
X178637000Y-59627159D01*
X178637000Y-58306336D01*
X180571542Y-58306336D01*
X180597161Y-58916460D01*
X180781357Y-59361148D01*
X181037841Y-59447554D01*
X181938395Y-58547000D01*
X182297605Y-58547000D01*
X183198159Y-59447554D01*
X183368000Y-59390337D01*
X183537841Y-59447554D01*
X184438395Y-58547000D01*
X183537841Y-57646446D01*
X183368000Y-57703663D01*
X183198159Y-57646446D01*
X182297605Y-58547000D01*
X181938395Y-58547000D01*
X181037841Y-57646446D01*
X180781357Y-57732852D01*
X180571542Y-58306336D01*
X178637000Y-58306336D01*
X178637000Y-57466841D01*
X181217446Y-57466841D01*
X182118000Y-58367395D01*
X183018554Y-57466841D01*
X183717446Y-57466841D01*
X184618000Y-58367395D01*
X185518554Y-57466841D01*
X185432148Y-57210357D01*
X184858664Y-57000542D01*
X184248540Y-57026161D01*
X183803852Y-57210357D01*
X183717446Y-57466841D01*
X183018554Y-57466841D01*
X182932148Y-57210357D01*
X182358664Y-57000542D01*
X181748540Y-57026161D01*
X181303852Y-57210357D01*
X181217446Y-57466841D01*
X178637000Y-57466841D01*
X178637000Y-53692453D01*
X178725392Y-53780845D01*
X179693866Y-54182000D01*
X180742134Y-54182000D01*
X181710608Y-53780845D01*
X182451845Y-53039608D01*
X182853000Y-52071134D01*
X182853000Y-51022866D01*
X186383000Y-51022866D01*
X186383000Y-52071134D01*
X186784155Y-53039608D01*
X187525392Y-53780845D01*
X188493866Y-54182000D01*
X189542134Y-54182000D01*
X190510608Y-53780845D01*
X191251845Y-53039608D01*
X191288653Y-52950745D01*
X192846861Y-52950745D01*
X192920995Y-53196864D01*
X193458223Y-53389965D01*
X194028454Y-53362778D01*
X194429005Y-53196864D01*
X194503139Y-52950745D01*
X193675000Y-52122605D01*
X192846861Y-52950745D01*
X191288653Y-52950745D01*
X191653000Y-52071134D01*
X191653000Y-51726223D01*
X192228035Y-51726223D01*
X192255222Y-52296454D01*
X192421136Y-52697005D01*
X192667255Y-52771139D01*
X193495395Y-51943000D01*
X193854605Y-51943000D01*
X194682745Y-52771139D01*
X194928864Y-52697005D01*
X195121965Y-52159777D01*
X195094778Y-51589546D01*
X194928864Y-51188995D01*
X194682745Y-51114861D01*
X193854605Y-51943000D01*
X193495395Y-51943000D01*
X192667255Y-51114861D01*
X192421136Y-51188995D01*
X192228035Y-51726223D01*
X191653000Y-51726223D01*
X191653000Y-51022866D01*
X191616711Y-50935255D01*
X192846861Y-50935255D01*
X193675000Y-51763395D01*
X194503139Y-50935255D01*
X194429005Y-50689136D01*
X193891777Y-50496035D01*
X193321546Y-50523222D01*
X192920995Y-50689136D01*
X192846861Y-50935255D01*
X191616711Y-50935255D01*
X191251845Y-50054392D01*
X190510608Y-49313155D01*
X189542134Y-48912000D01*
X188493866Y-48912000D01*
X187525392Y-49313155D01*
X186784155Y-50054392D01*
X186383000Y-51022866D01*
X182853000Y-51022866D01*
X182451845Y-50054392D01*
X181710608Y-49313155D01*
X180742134Y-48912000D01*
X179693866Y-48912000D01*
X178725392Y-49313155D01*
X178637000Y-49401547D01*
X178637000Y-45922000D01*
X192666604Y-45922000D01*
X192458466Y-46130138D01*
G04 #@! TD*
M02*
