M48
;DRILL file {KiCad (5.0.0-3-g5ebb6b6)} date Thursday 25 April 2019 19:55:54
;FORMAT={-:-/ absolute / metric / decimal}
FMAT,2
METRIC,TZ
T1C0.800
T2C0.813
T3C0.900
T4C1.000
T5C1.100
T6C1.500
T7C2.000
%
G90
G05
M71
T1
X198.882Y-47.117
X198.882Y-49.657
X198.882Y-52.197
X198.882Y-54.737
X198.882Y-57.277
X198.882Y-59.817
X198.882Y-62.357
X206.502Y-47.117
X206.502Y-49.657
X206.502Y-52.197
X206.502Y-54.737
X206.502Y-57.277
X206.502Y-59.817
X206.502Y-62.357
X201.549Y-124.714
X201.549Y-132.334
X184.531Y-82.55
X192.151Y-82.55
X193.294Y-108.792
X193.294Y-113.792
X179.705Y-62.865
X181.705Y-62.865
X200.232Y-88.9
X205.232Y-88.9
X196.215Y-124.714
X196.215Y-132.334
X193.167Y-118.745
X200.787Y-118.745
X217.678Y-61.595
X225.298Y-61.595
X190.754Y-124.619
X190.754Y-126.619
X199.009Y-68.834
X199.009Y-71.374
X199.009Y-73.914
X199.009Y-76.454
X199.009Y-78.994
X199.009Y-81.534
X199.009Y-84.074
X206.629Y-68.834
X206.629Y-71.374
X206.629Y-73.914
X206.629Y-76.454
X206.629Y-78.994
X206.629Y-81.534
X206.629Y-84.074
X210.185Y-58.928
X215.185Y-58.928
X189.992Y-142.367
X191.992Y-142.367
X204.216Y-124.714
X204.216Y-132.334
X209.55Y-65.278
X209.55Y-70.278
X179.578Y-105.156
X181.578Y-105.156
X184.658Y-106.807
X189.658Y-106.807
X199.009Y-95.631
X199.009Y-98.171
X199.009Y-100.711
X199.009Y-103.251
X199.009Y-105.791
X199.009Y-108.331
X199.009Y-110.871
X206.629Y-95.631
X206.629Y-98.171
X206.629Y-100.711
X206.629Y-103.251
X206.629Y-105.791
X206.629Y-108.331
X206.629Y-110.871
X198.882Y-124.714
X198.882Y-132.334
X184.531Y-61.341
X192.151Y-61.341
X193.675Y-46.943
X193.675Y-51.943
X184.531Y-103.632
X192.151Y-103.632
X179.705Y-84.074
X181.705Y-84.074
X193.421Y-67.564
X193.421Y-72.564
X185.293Y-85.598
X190.293Y-85.598
X206.883Y-124.714
X206.883Y-132.334
T2
X217.17Y-79.502
X224.79Y-79.502
X209.55Y-129.286
X217.17Y-129.286
X198.882Y-65.786
X206.502Y-65.786
X217.17Y-76.454
X224.79Y-76.454
X199.136Y-92.329
X206.756Y-92.329
X217.551Y-111.76
X225.171Y-111.76
X212.852Y-46.609
X212.852Y-54.229
X217.678Y-114.554
X225.298Y-114.554
X219.075Y-132.207
X226.695Y-132.207
X184.785Y-64.516
X192.405Y-64.516
X212.217Y-132.207
X212.217Y-139.827
X196.342Y-107.188
X196.342Y-114.808
X217.424Y-94.234
X225.044Y-94.234
X217.678Y-58.928
X225.298Y-58.928
X217.424Y-97.028
X225.044Y-97.028
X219.075Y-129.286
X226.695Y-129.286
T3
X212.09Y-125.222
X214.63Y-125.222
X212.217Y-72.644
X214.757Y-72.644
X212.09Y-107.696
X214.63Y-107.696
X212.09Y-142.748
X214.63Y-142.748
X212.217Y-90.17
X214.757Y-90.17
T4
X186.055Y-125.476
X195.326Y-101.854
X195.326Y-104.394
X182.118Y-100.711
X184.618Y-100.711
X187.118Y-100.711
X182.118Y-58.547
X184.618Y-58.547
X187.118Y-58.547
X186.055Y-136.144
X179.705Y-125.349
X179.705Y-127.889
X179.705Y-130.429
X179.705Y-132.969
X179.705Y-135.509
X179.705Y-138.049
X179.705Y-140.589
X179.705Y-143.129
X182.245Y-125.349
X182.245Y-127.889
X182.245Y-130.429
X182.245Y-132.969
X182.245Y-135.509
X182.245Y-138.049
X182.245Y-140.589
X182.245Y-143.129
X210.693Y-79.248
X213.233Y-79.248
X210.058Y-48.895
X195.961Y-88.9
X195.961Y-91.44
X182.118Y-121.793
X184.618Y-121.793
X187.118Y-121.793
X186.055Y-130.81
X182.118Y-79.629
X184.618Y-79.629
X187.118Y-79.629
X186.055Y-141.605
X194.691Y-76.835
X194.691Y-79.375
T5
X190.754Y-130.048
X190.754Y-137.668
T7
X180.218Y-93.711
X189.018Y-93.711
X180.218Y-51.547
X189.018Y-51.547
X180.218Y-114.793
X189.018Y-114.793
X180.218Y-72.629
X189.018Y-72.629
T4
X219.73Y-117.729G85X222.23Y-117.729
G05
X219.73Y-125.857G85X222.23Y-125.857
G05
X219.73Y-65.151G85X222.23Y-65.151
G05
X219.73Y-73.279G85X222.23Y-73.279
G05
X202.204Y-135.255G85X204.704Y-135.255
G05
X202.204Y-143.383G85X204.704Y-143.383
G05
X219.73Y-100.203G85X222.23Y-100.203
G05
X219.73Y-108.331G85X222.23Y-108.331
G05
X219.73Y-47.498G85X222.23Y-47.498
G05
X219.73Y-55.626G85X222.23Y-55.626
G05
X219.73Y-135.255G85X222.23Y-135.255
G05
X219.73Y-143.383G85X222.23Y-143.383
G05
X219.73Y-82.677G85X222.23Y-82.677
G05
X219.73Y-90.805G85X222.23Y-90.805
G05
T6
X215.9Y-66.818G85X215.9Y-68.818
G05
X226.06Y-67.318G85X226.06Y-68.318
G05
X198.374Y-136.922G85X198.374Y-138.922
G05
X208.534Y-137.422G85X208.534Y-138.422
G05
X215.9Y-101.87G85X215.9Y-103.87
G05
X226.06Y-102.37G85X226.06Y-103.37
G05
X215.9Y-49.165G85X215.9Y-51.165
G05
X226.06Y-49.665G85X226.06Y-50.665
G05
X215.9Y-136.922G85X215.9Y-138.922
G05
X226.06Y-137.422G85X226.06Y-138.422
G05
X215.9Y-84.344G85X215.9Y-86.344
G05
X226.06Y-84.844G85X226.06Y-85.844
G05
X215.9Y-119.396G85X215.9Y-121.396
G05
X226.06Y-119.896G85X226.06Y-120.896
G05
T0
M30
