G04 #@! TF.FileFunction,Copper,L2,Bot,Signal*
%FSLAX46Y46*%
G04 Gerber Fmt 4.6, Leading zero omitted, Abs format (unit mm)*
G04 Created by KiCad (PCBNEW 4.0.7) date Monday 10 September 2018 20:38:50*
%MOMM*%
%LPD*%
G01*
G04 APERTURE LIST*
%ADD10C,0.100000*%
%ADD11C,6.400000*%
%ADD12C,1.900000*%
%ADD13C,1.600000*%
%ADD14R,1.800000X1.800000*%
%ADD15C,1.800000*%
%ADD16O,4.000000X2.000000*%
%ADD17O,1.600000X1.600000*%
%ADD18R,1.570000X2.290000*%
%ADD19O,1.570000X2.290000*%
%ADD20C,2.600000*%
%ADD21C,1.524000*%
%ADD22R,1.700000X1.700000*%
%ADD23O,1.700000X1.700000*%
%ADD24C,4.000000*%
%ADD25R,1.600000X1.600000*%
%ADD26C,0.250000*%
%ADD27C,0.254000*%
G04 APERTURE END LIST*
D10*
D11*
X199390000Y-40640000D03*
D12*
X142875000Y-40005000D03*
X145415000Y-40005000D03*
X147955000Y-40005000D03*
X150495000Y-40005000D03*
X153035000Y-40005000D03*
X155575000Y-40005000D03*
X158115000Y-40005000D03*
X160655000Y-40005000D03*
X163195000Y-40005000D03*
X165735000Y-40005000D03*
X165735000Y-42545000D03*
X163195000Y-42545000D03*
X160655000Y-42545000D03*
X158115000Y-42545000D03*
X155575000Y-42545000D03*
X153035000Y-42545000D03*
X150495000Y-42545000D03*
X147955000Y-42545000D03*
X145415000Y-42545000D03*
X142875000Y-42545000D03*
X142875000Y-45085000D03*
X145415000Y-45085000D03*
X147955000Y-45085000D03*
X150495000Y-45085000D03*
X153035000Y-45085000D03*
X155575000Y-45085000D03*
X158115000Y-45085000D03*
X160655000Y-45085000D03*
X163195000Y-45085000D03*
X165735000Y-45085000D03*
X165735000Y-47625000D03*
X163195000Y-47625000D03*
X160655000Y-47625000D03*
X158115000Y-47625000D03*
X155575000Y-47625000D03*
X153035000Y-47625000D03*
X150495000Y-47625000D03*
X147955000Y-47625000D03*
X145415000Y-47625000D03*
X142875000Y-47625000D03*
D11*
X185420000Y-74930000D03*
X162560000Y-74930000D03*
D13*
X187960000Y-62865000D03*
X182960000Y-62865000D03*
D14*
X180340000Y-55245000D03*
D15*
X180340000Y-57785000D03*
D16*
X151130000Y-65540000D03*
X151130000Y-71340000D03*
X151130000Y-76640000D03*
X173990000Y-65540000D03*
X173990000Y-71340000D03*
X173990000Y-76640000D03*
X196850000Y-65540000D03*
X196850000Y-71340000D03*
X196850000Y-76640000D03*
D13*
X166370000Y-67945000D03*
D17*
X158750000Y-67945000D03*
D13*
X166370000Y-62865000D03*
D17*
X158750000Y-62865000D03*
D13*
X181610000Y-67945000D03*
D17*
X189230000Y-67945000D03*
D18*
X182880000Y-50800000D03*
D19*
X179070000Y-50800000D03*
X179710000Y-40640000D03*
X182240000Y-40640000D03*
D20*
X191770000Y-53340000D03*
X196770000Y-53340000D03*
D21*
X204810000Y-54720000D03*
X204810000Y-57920000D03*
X204810000Y-61120000D03*
X204810000Y-67420000D03*
X204810000Y-70620000D03*
X204810000Y-73820000D03*
X204810000Y-42020000D03*
X204810000Y-45220000D03*
X204810000Y-48420000D03*
D22*
X145415000Y-53340000D03*
D23*
X145415000Y-55880000D03*
D22*
X151130000Y-53340000D03*
D23*
X151130000Y-55880000D03*
D22*
X156845000Y-53340000D03*
D23*
X156845000Y-55880000D03*
D22*
X162560000Y-53340000D03*
D23*
X162560000Y-55880000D03*
D15*
X142160000Y-62230000D03*
X139660000Y-62230000D03*
X137160000Y-62230000D03*
D24*
X144060000Y-69230000D03*
X135260000Y-69230000D03*
D11*
X135890000Y-40640000D03*
D25*
X173355000Y-46990000D03*
D17*
X173355000Y-39370000D03*
D25*
X188595000Y-46990000D03*
D17*
X188595000Y-39370000D03*
D26*
X191770000Y-53340000D02*
X191770000Y-59055000D01*
X191770000Y-59055000D02*
X187960000Y-62865000D01*
X156845000Y-55880000D02*
X160020000Y-55880000D01*
X160020000Y-55880000D02*
X162560000Y-53340000D01*
X151130000Y-71340000D02*
X150715000Y-71340000D01*
X150715000Y-71340000D02*
X146050000Y-65405000D01*
X138430000Y-53340000D02*
X145415000Y-53340000D01*
X134620000Y-57150000D02*
X138430000Y-53340000D01*
X134620000Y-64135000D02*
X134620000Y-57150000D01*
X135890000Y-65405000D02*
X134620000Y-64135000D01*
X146050000Y-65405000D02*
X135890000Y-65405000D01*
X142160000Y-62230000D02*
X145415000Y-62230000D01*
X149225000Y-53340000D02*
X151130000Y-53340000D01*
X148590000Y-53975000D02*
X149225000Y-53340000D01*
X148590000Y-59055000D02*
X148590000Y-53975000D01*
X145415000Y-62230000D02*
X148590000Y-59055000D01*
X204810000Y-45220000D02*
X195715000Y-45220000D01*
X174625000Y-38100000D02*
X173355000Y-39370000D01*
X183515000Y-38100000D02*
X174625000Y-38100000D01*
X187960000Y-42545000D02*
X183515000Y-38100000D01*
X193040000Y-42545000D02*
X187960000Y-42545000D01*
X195715000Y-45220000D02*
X193040000Y-42545000D01*
X196850000Y-76640000D02*
X194115000Y-75370000D01*
X178997143Y-70485000D02*
X173990000Y-76640000D01*
X189230000Y-70485000D02*
X178997143Y-70485000D01*
X194115000Y-75370000D02*
X189230000Y-70485000D01*
X151130000Y-76640000D02*
X154500000Y-75370000D01*
X154500000Y-75370000D02*
X159385000Y-70485000D01*
X159385000Y-70485000D02*
X165100000Y-70485000D01*
X165100000Y-70485000D02*
X170190000Y-75575000D01*
X170190000Y-75575000D02*
X173990000Y-76640000D01*
X173355000Y-39370000D02*
X174625000Y-39370000D01*
X174625000Y-39370000D02*
X179070000Y-43815000D01*
X179070000Y-43815000D02*
X179070000Y-50800000D01*
X204810000Y-70620000D02*
X208145000Y-70620000D01*
X208280000Y-48690000D02*
X204810000Y-45220000D01*
X208280000Y-70485000D02*
X208280000Y-48690000D01*
X208145000Y-70620000D02*
X208280000Y-70485000D01*
X174625000Y-39370000D02*
X179070000Y-43815000D01*
X179070000Y-43815000D02*
X179070000Y-53340000D01*
X179070000Y-53340000D02*
X180340000Y-55245000D01*
X151130000Y-76640000D02*
X152205000Y-76640000D01*
X152205000Y-76640000D02*
X152645000Y-76200000D01*
X173345000Y-75995000D02*
X173990000Y-76640000D01*
X196410000Y-76200000D02*
X196850000Y-76640000D01*
X196850000Y-76640000D02*
X200060000Y-75370000D01*
X200060000Y-75370000D02*
X204810000Y-70620000D01*
D27*
G36*
X196140741Y-38464811D02*
X195555667Y-39873825D01*
X195554336Y-41399482D01*
X196136950Y-42809515D01*
X197214811Y-43889259D01*
X198623825Y-44474333D01*
X200149482Y-44475664D01*
X200720347Y-44239787D01*
X204009392Y-44239787D01*
X204810000Y-45040395D01*
X205610608Y-44239787D01*
X205541143Y-43997603D01*
X205017698Y-43810856D01*
X204462632Y-43838638D01*
X204078857Y-43997603D01*
X204009392Y-44239787D01*
X200720347Y-44239787D01*
X201559515Y-43893050D01*
X202639259Y-42815189D01*
X202854570Y-42296661D01*
X203412758Y-42296661D01*
X203624990Y-42810303D01*
X204017630Y-43203629D01*
X204530900Y-43416757D01*
X205086661Y-43417242D01*
X205600303Y-43205010D01*
X205993629Y-42812370D01*
X206206757Y-42299100D01*
X206207242Y-41743339D01*
X205995010Y-41229697D01*
X205602370Y-40836371D01*
X205089100Y-40623243D01*
X204533339Y-40622758D01*
X204019697Y-40834990D01*
X203626371Y-41227630D01*
X203413243Y-41740900D01*
X203412758Y-42296661D01*
X202854570Y-42296661D01*
X203224333Y-41406175D01*
X203225664Y-39880518D01*
X202643050Y-38470485D01*
X201714188Y-37540000D01*
X211380000Y-37540000D01*
X211380000Y-78030000D01*
X198684470Y-78030000D01*
X199095922Y-77706317D01*
X199409144Y-77148355D01*
X199440124Y-77020434D01*
X199320777Y-76767000D01*
X196977000Y-76767000D01*
X196977000Y-76787000D01*
X196723000Y-76787000D01*
X196723000Y-76767000D01*
X194379223Y-76767000D01*
X194259876Y-77020434D01*
X194290856Y-77148355D01*
X194604078Y-77706317D01*
X195015530Y-78030000D01*
X187742832Y-78030000D01*
X188669259Y-77105189D01*
X189020392Y-76259566D01*
X194259876Y-76259566D01*
X194379223Y-76513000D01*
X196723000Y-76513000D01*
X196723000Y-75005000D01*
X196977000Y-75005000D01*
X196977000Y-76513000D01*
X199320777Y-76513000D01*
X199440124Y-76259566D01*
X199409144Y-76131645D01*
X199095922Y-75573683D01*
X198593020Y-75178058D01*
X197977000Y-75005000D01*
X196977000Y-75005000D01*
X196723000Y-75005000D01*
X195723000Y-75005000D01*
X195106980Y-75178058D01*
X194604078Y-75573683D01*
X194290856Y-76131645D01*
X194259876Y-76259566D01*
X189020392Y-76259566D01*
X189254333Y-75696175D01*
X189255664Y-74170518D01*
X189225147Y-74096661D01*
X203412758Y-74096661D01*
X203624990Y-74610303D01*
X204017630Y-75003629D01*
X204530900Y-75216757D01*
X205086661Y-75217242D01*
X205600303Y-75005010D01*
X205993629Y-74612370D01*
X206206757Y-74099100D01*
X206207242Y-73543339D01*
X205995010Y-73029697D01*
X205602370Y-72636371D01*
X205089100Y-72423243D01*
X204533339Y-72422758D01*
X204019697Y-72634990D01*
X203626371Y-73027630D01*
X203413243Y-73540900D01*
X203412758Y-74096661D01*
X189225147Y-74096661D01*
X188673050Y-72760485D01*
X187595189Y-71680741D01*
X186774594Y-71340000D01*
X194163377Y-71340000D01*
X194287834Y-71965687D01*
X194642257Y-72496120D01*
X195172690Y-72850543D01*
X195798377Y-72975000D01*
X197901623Y-72975000D01*
X198527310Y-72850543D01*
X199057743Y-72496120D01*
X199412166Y-71965687D01*
X199484863Y-71600213D01*
X204009392Y-71600213D01*
X204078857Y-71842397D01*
X204602302Y-72029144D01*
X205157368Y-72001362D01*
X205541143Y-71842397D01*
X205610608Y-71600213D01*
X204810000Y-70799605D01*
X204009392Y-71600213D01*
X199484863Y-71600213D01*
X199536623Y-71340000D01*
X199412166Y-70714313D01*
X199210370Y-70412302D01*
X203400856Y-70412302D01*
X203428638Y-70967368D01*
X203587603Y-71351143D01*
X203829787Y-71420608D01*
X204630395Y-70620000D01*
X204989605Y-70620000D01*
X205790213Y-71420608D01*
X206032397Y-71351143D01*
X206219144Y-70827698D01*
X206191362Y-70272632D01*
X206032397Y-69888857D01*
X205790213Y-69819392D01*
X204989605Y-70620000D01*
X204630395Y-70620000D01*
X203829787Y-69819392D01*
X203587603Y-69888857D01*
X203400856Y-70412302D01*
X199210370Y-70412302D01*
X199057743Y-70183880D01*
X198527310Y-69829457D01*
X197901623Y-69705000D01*
X195798377Y-69705000D01*
X195172690Y-69829457D01*
X194642257Y-70183880D01*
X194287834Y-70714313D01*
X194163377Y-71340000D01*
X186774594Y-71340000D01*
X186186175Y-71095667D01*
X184660518Y-71094336D01*
X183250485Y-71676950D01*
X182170741Y-72754811D01*
X181585667Y-74163825D01*
X181584336Y-75689482D01*
X182166950Y-77099515D01*
X183095812Y-78030000D01*
X175824470Y-78030000D01*
X176235922Y-77706317D01*
X176549144Y-77148355D01*
X176580124Y-77020434D01*
X176460777Y-76767000D01*
X174117000Y-76767000D01*
X174117000Y-76787000D01*
X173863000Y-76787000D01*
X173863000Y-76767000D01*
X171519223Y-76767000D01*
X171399876Y-77020434D01*
X171430856Y-77148355D01*
X171744078Y-77706317D01*
X172155530Y-78030000D01*
X164882832Y-78030000D01*
X165809259Y-77105189D01*
X166160392Y-76259566D01*
X171399876Y-76259566D01*
X171519223Y-76513000D01*
X173863000Y-76513000D01*
X173863000Y-75005000D01*
X174117000Y-75005000D01*
X174117000Y-76513000D01*
X176460777Y-76513000D01*
X176580124Y-76259566D01*
X176549144Y-76131645D01*
X176235922Y-75573683D01*
X175733020Y-75178058D01*
X175117000Y-75005000D01*
X174117000Y-75005000D01*
X173863000Y-75005000D01*
X172863000Y-75005000D01*
X172246980Y-75178058D01*
X171744078Y-75573683D01*
X171430856Y-76131645D01*
X171399876Y-76259566D01*
X166160392Y-76259566D01*
X166394333Y-75696175D01*
X166395664Y-74170518D01*
X165813050Y-72760485D01*
X164735189Y-71680741D01*
X163914594Y-71340000D01*
X171303377Y-71340000D01*
X171427834Y-71965687D01*
X171782257Y-72496120D01*
X172312690Y-72850543D01*
X172938377Y-72975000D01*
X175041623Y-72975000D01*
X175667310Y-72850543D01*
X176197743Y-72496120D01*
X176552166Y-71965687D01*
X176676623Y-71340000D01*
X176552166Y-70714313D01*
X176197743Y-70183880D01*
X175667310Y-69829457D01*
X175041623Y-69705000D01*
X172938377Y-69705000D01*
X172312690Y-69829457D01*
X171782257Y-70183880D01*
X171427834Y-70714313D01*
X171303377Y-71340000D01*
X163914594Y-71340000D01*
X163326175Y-71095667D01*
X161800518Y-71094336D01*
X160390485Y-71676950D01*
X159310741Y-72754811D01*
X158725667Y-74163825D01*
X158724336Y-75689482D01*
X159306950Y-77099515D01*
X160235812Y-78030000D01*
X152964470Y-78030000D01*
X153375922Y-77706317D01*
X153689144Y-77148355D01*
X153720124Y-77020434D01*
X153600777Y-76767000D01*
X151257000Y-76767000D01*
X151257000Y-76787000D01*
X151003000Y-76787000D01*
X151003000Y-76767000D01*
X148659223Y-76767000D01*
X148539876Y-77020434D01*
X148570856Y-77148355D01*
X148884078Y-77706317D01*
X149295530Y-78030000D01*
X132790000Y-78030000D01*
X132790000Y-76259566D01*
X148539876Y-76259566D01*
X148659223Y-76513000D01*
X151003000Y-76513000D01*
X151003000Y-75005000D01*
X151257000Y-75005000D01*
X151257000Y-76513000D01*
X153600777Y-76513000D01*
X153720124Y-76259566D01*
X153689144Y-76131645D01*
X153375922Y-75573683D01*
X152873020Y-75178058D01*
X152257000Y-75005000D01*
X151257000Y-75005000D01*
X151003000Y-75005000D01*
X150003000Y-75005000D01*
X149386980Y-75178058D01*
X148884078Y-75573683D01*
X148570856Y-76131645D01*
X148539876Y-76259566D01*
X132790000Y-76259566D01*
X132790000Y-70152270D01*
X133024853Y-70720658D01*
X133765443Y-71462542D01*
X134733567Y-71864542D01*
X135781834Y-71865457D01*
X136750658Y-71465147D01*
X137492542Y-70724557D01*
X137894542Y-69756433D01*
X137894546Y-69751834D01*
X141424543Y-69751834D01*
X141824853Y-70720658D01*
X142565443Y-71462542D01*
X143533567Y-71864542D01*
X144581834Y-71865457D01*
X145550658Y-71465147D01*
X146292542Y-70724557D01*
X146694542Y-69756433D01*
X146695457Y-68708166D01*
X146295147Y-67739342D01*
X145554557Y-66997458D01*
X144586433Y-66595458D01*
X143538166Y-66594543D01*
X142569342Y-66994853D01*
X141827458Y-67735443D01*
X141425458Y-68703567D01*
X141424543Y-69751834D01*
X137894546Y-69751834D01*
X137895457Y-68708166D01*
X137495147Y-67739342D01*
X136754557Y-66997458D01*
X135786433Y-66595458D01*
X134738166Y-66594543D01*
X133769342Y-66994853D01*
X133027458Y-67735443D01*
X132790000Y-68307306D01*
X132790000Y-57150000D01*
X133860000Y-57150000D01*
X133860000Y-64135000D01*
X133917852Y-64425839D01*
X134082599Y-64672401D01*
X135352599Y-65942401D01*
X135599160Y-66107148D01*
X135890000Y-66165000D01*
X145680700Y-66165000D01*
X148884278Y-70240720D01*
X148567834Y-70714313D01*
X148443377Y-71340000D01*
X148567834Y-71965687D01*
X148922257Y-72496120D01*
X149452690Y-72850543D01*
X150078377Y-72975000D01*
X152181623Y-72975000D01*
X152807310Y-72850543D01*
X153337743Y-72496120D01*
X153692166Y-71965687D01*
X153816623Y-71340000D01*
X153692166Y-70714313D01*
X153337743Y-70183880D01*
X152807310Y-69829457D01*
X152181623Y-69705000D01*
X150396537Y-69705000D01*
X150345279Y-69639787D01*
X204009392Y-69639787D01*
X204810000Y-70440395D01*
X205610608Y-69639787D01*
X205541143Y-69397603D01*
X205017698Y-69210856D01*
X204462632Y-69238638D01*
X204078857Y-69397603D01*
X204009392Y-69639787D01*
X150345279Y-69639787D01*
X149013151Y-67945000D01*
X157286887Y-67945000D01*
X157396120Y-68494151D01*
X157707189Y-68959698D01*
X158172736Y-69270767D01*
X158721887Y-69380000D01*
X158778113Y-69380000D01*
X159327264Y-69270767D01*
X159792811Y-68959698D01*
X160103880Y-68494151D01*
X160156584Y-68229187D01*
X164934752Y-68229187D01*
X165152757Y-68756800D01*
X165556077Y-69160824D01*
X166083309Y-69379750D01*
X166654187Y-69380248D01*
X167181800Y-69162243D01*
X167585824Y-68758923D01*
X167804750Y-68231691D01*
X167804752Y-68229187D01*
X180174752Y-68229187D01*
X180392757Y-68756800D01*
X180796077Y-69160824D01*
X181323309Y-69379750D01*
X181894187Y-69380248D01*
X182421800Y-69162243D01*
X182825824Y-68758923D01*
X183044750Y-68231691D01*
X183045000Y-67945000D01*
X187766887Y-67945000D01*
X187876120Y-68494151D01*
X188187189Y-68959698D01*
X188652736Y-69270767D01*
X189201887Y-69380000D01*
X189258113Y-69380000D01*
X189807264Y-69270767D01*
X190272811Y-68959698D01*
X190583880Y-68494151D01*
X190693113Y-67945000D01*
X190643716Y-67696661D01*
X203412758Y-67696661D01*
X203624990Y-68210303D01*
X204017630Y-68603629D01*
X204530900Y-68816757D01*
X205086661Y-68817242D01*
X205600303Y-68605010D01*
X205993629Y-68212370D01*
X206206757Y-67699100D01*
X206207242Y-67143339D01*
X205995010Y-66629697D01*
X205602370Y-66236371D01*
X205089100Y-66023243D01*
X204533339Y-66022758D01*
X204019697Y-66234990D01*
X203626371Y-66627630D01*
X203413243Y-67140900D01*
X203412758Y-67696661D01*
X190643716Y-67696661D01*
X190583880Y-67395849D01*
X190272811Y-66930302D01*
X189807264Y-66619233D01*
X189258113Y-66510000D01*
X189201887Y-66510000D01*
X188652736Y-66619233D01*
X188187189Y-66930302D01*
X187876120Y-67395849D01*
X187766887Y-67945000D01*
X183045000Y-67945000D01*
X183045248Y-67660813D01*
X182827243Y-67133200D01*
X182423923Y-66729176D01*
X181896691Y-66510250D01*
X181325813Y-66509752D01*
X180798200Y-66727757D01*
X180394176Y-67131077D01*
X180175250Y-67658309D01*
X180174752Y-68229187D01*
X167804752Y-68229187D01*
X167805248Y-67660813D01*
X167587243Y-67133200D01*
X167183923Y-66729176D01*
X166656691Y-66510250D01*
X166085813Y-66509752D01*
X165558200Y-66727757D01*
X165154176Y-67131077D01*
X164935250Y-67658309D01*
X164934752Y-68229187D01*
X160156584Y-68229187D01*
X160213113Y-67945000D01*
X160103880Y-67395849D01*
X159792811Y-66930302D01*
X159327264Y-66619233D01*
X158778113Y-66510000D01*
X158721887Y-66510000D01*
X158172736Y-66619233D01*
X157707189Y-66930302D01*
X157396120Y-67395849D01*
X157286887Y-67945000D01*
X149013151Y-67945000D01*
X147122784Y-65540000D01*
X148443377Y-65540000D01*
X148567834Y-66165687D01*
X148922257Y-66696120D01*
X149452690Y-67050543D01*
X150078377Y-67175000D01*
X152181623Y-67175000D01*
X152807310Y-67050543D01*
X153337743Y-66696120D01*
X153692166Y-66165687D01*
X153816623Y-65540000D01*
X171303377Y-65540000D01*
X171427834Y-66165687D01*
X171782257Y-66696120D01*
X172312690Y-67050543D01*
X172938377Y-67175000D01*
X175041623Y-67175000D01*
X175667310Y-67050543D01*
X176197743Y-66696120D01*
X176552166Y-66165687D01*
X176676623Y-65540000D01*
X194163377Y-65540000D01*
X194287834Y-66165687D01*
X194642257Y-66696120D01*
X195172690Y-67050543D01*
X195798377Y-67175000D01*
X197901623Y-67175000D01*
X198527310Y-67050543D01*
X199057743Y-66696120D01*
X199412166Y-66165687D01*
X199536623Y-65540000D01*
X199412166Y-64914313D01*
X199057743Y-64383880D01*
X198527310Y-64029457D01*
X197901623Y-63905000D01*
X195798377Y-63905000D01*
X195172690Y-64029457D01*
X194642257Y-64383880D01*
X194287834Y-64914313D01*
X194163377Y-65540000D01*
X176676623Y-65540000D01*
X176552166Y-64914313D01*
X176197743Y-64383880D01*
X175667310Y-64029457D01*
X175041623Y-63905000D01*
X172938377Y-63905000D01*
X172312690Y-64029457D01*
X171782257Y-64383880D01*
X171427834Y-64914313D01*
X171303377Y-65540000D01*
X153816623Y-65540000D01*
X153692166Y-64914313D01*
X153337743Y-64383880D01*
X152807310Y-64029457D01*
X152181623Y-63905000D01*
X150078377Y-63905000D01*
X149452690Y-64029457D01*
X148922257Y-64383880D01*
X148567834Y-64914313D01*
X148443377Y-65540000D01*
X147122784Y-65540000D01*
X146647515Y-64935344D01*
X146612796Y-64905605D01*
X146587401Y-64867599D01*
X146501116Y-64809945D01*
X146422302Y-64742437D01*
X146378849Y-64728249D01*
X146340839Y-64702852D01*
X146239058Y-64682606D01*
X146140410Y-64650397D01*
X146094835Y-64653918D01*
X146050000Y-64645000D01*
X136204802Y-64645000D01*
X135380000Y-63820198D01*
X135380000Y-62533991D01*
X135624735Y-62533991D01*
X135857932Y-63098371D01*
X136289357Y-63530551D01*
X136853330Y-63764733D01*
X137463991Y-63765265D01*
X138028371Y-63532068D01*
X138410288Y-63150818D01*
X138789357Y-63530551D01*
X139353330Y-63764733D01*
X139963991Y-63765265D01*
X140528371Y-63532068D01*
X140910288Y-63150818D01*
X141289357Y-63530551D01*
X141853330Y-63764733D01*
X142463991Y-63765265D01*
X143028371Y-63532068D01*
X143460551Y-63100643D01*
X143506494Y-62990000D01*
X145415000Y-62990000D01*
X145705839Y-62932148D01*
X145806333Y-62865000D01*
X157286887Y-62865000D01*
X157396120Y-63414151D01*
X157707189Y-63879698D01*
X158172736Y-64190767D01*
X158721887Y-64300000D01*
X158778113Y-64300000D01*
X159327264Y-64190767D01*
X159792811Y-63879698D01*
X160103880Y-63414151D01*
X160156584Y-63149187D01*
X164934752Y-63149187D01*
X165152757Y-63676800D01*
X165556077Y-64080824D01*
X166083309Y-64299750D01*
X166654187Y-64300248D01*
X167181800Y-64082243D01*
X167585824Y-63678923D01*
X167804750Y-63151691D01*
X167804752Y-63149187D01*
X181524752Y-63149187D01*
X181742757Y-63676800D01*
X182146077Y-64080824D01*
X182673309Y-64299750D01*
X183244187Y-64300248D01*
X183771800Y-64082243D01*
X184175824Y-63678923D01*
X184394750Y-63151691D01*
X184394752Y-63149187D01*
X186524752Y-63149187D01*
X186742757Y-63676800D01*
X187146077Y-64080824D01*
X187673309Y-64299750D01*
X188244187Y-64300248D01*
X188771800Y-64082243D01*
X189175824Y-63678923D01*
X189394750Y-63151691D01*
X189395248Y-62580813D01*
X189372951Y-62526851D01*
X190503141Y-61396661D01*
X203412758Y-61396661D01*
X203624990Y-61910303D01*
X204017630Y-62303629D01*
X204530900Y-62516757D01*
X205086661Y-62517242D01*
X205600303Y-62305010D01*
X205993629Y-61912370D01*
X206206757Y-61399100D01*
X206207242Y-60843339D01*
X205995010Y-60329697D01*
X205602370Y-59936371D01*
X205089100Y-59723243D01*
X204533339Y-59722758D01*
X204019697Y-59934990D01*
X203626371Y-60327630D01*
X203413243Y-60840900D01*
X203412758Y-61396661D01*
X190503141Y-61396661D01*
X192307401Y-59592401D01*
X192472148Y-59345839D01*
X192530000Y-59055000D01*
X192530000Y-58196661D01*
X203412758Y-58196661D01*
X203624990Y-58710303D01*
X204017630Y-59103629D01*
X204530900Y-59316757D01*
X205086661Y-59317242D01*
X205600303Y-59105010D01*
X205993629Y-58712370D01*
X206206757Y-58199100D01*
X206207242Y-57643339D01*
X205995010Y-57129697D01*
X205602370Y-56736371D01*
X205089100Y-56523243D01*
X204533339Y-56522758D01*
X204019697Y-56734990D01*
X203626371Y-57127630D01*
X203413243Y-57640900D01*
X203412758Y-58196661D01*
X192530000Y-58196661D01*
X192530000Y-55119648D01*
X192864658Y-54981370D01*
X193409457Y-54437521D01*
X193704663Y-53726584D01*
X193704665Y-53723207D01*
X194834665Y-53723207D01*
X195128630Y-54434658D01*
X195672479Y-54979457D01*
X196383416Y-55274663D01*
X197153207Y-55275335D01*
X197827650Y-54996661D01*
X203412758Y-54996661D01*
X203624990Y-55510303D01*
X204017630Y-55903629D01*
X204530900Y-56116757D01*
X205086661Y-56117242D01*
X205600303Y-55905010D01*
X205993629Y-55512370D01*
X206206757Y-54999100D01*
X206207242Y-54443339D01*
X205995010Y-53929697D01*
X205602370Y-53536371D01*
X205089100Y-53323243D01*
X204533339Y-53322758D01*
X204019697Y-53534990D01*
X203626371Y-53927630D01*
X203413243Y-54440900D01*
X203412758Y-54996661D01*
X197827650Y-54996661D01*
X197864658Y-54981370D01*
X198409457Y-54437521D01*
X198704663Y-53726584D01*
X198705335Y-52956793D01*
X198411370Y-52245342D01*
X197867521Y-51700543D01*
X197156584Y-51405337D01*
X196386793Y-51404665D01*
X195675342Y-51698630D01*
X195130543Y-52242479D01*
X194835337Y-52953416D01*
X194834665Y-53723207D01*
X193704665Y-53723207D01*
X193705335Y-52956793D01*
X193411370Y-52245342D01*
X192867521Y-51700543D01*
X192156584Y-51405337D01*
X191386793Y-51404665D01*
X190675342Y-51698630D01*
X190130543Y-52242479D01*
X189835337Y-52953416D01*
X189834665Y-53723207D01*
X190128630Y-54434658D01*
X190672479Y-54979457D01*
X191010000Y-55119608D01*
X191010000Y-58740198D01*
X188298454Y-61451744D01*
X188246691Y-61430250D01*
X187675813Y-61429752D01*
X187148200Y-61647757D01*
X186744176Y-62051077D01*
X186525250Y-62578309D01*
X186524752Y-63149187D01*
X184394752Y-63149187D01*
X184395248Y-62580813D01*
X184177243Y-62053200D01*
X183773923Y-61649176D01*
X183246691Y-61430250D01*
X182675813Y-61429752D01*
X182148200Y-61647757D01*
X181744176Y-62051077D01*
X181525250Y-62578309D01*
X181524752Y-63149187D01*
X167804752Y-63149187D01*
X167805248Y-62580813D01*
X167587243Y-62053200D01*
X167183923Y-61649176D01*
X166656691Y-61430250D01*
X166085813Y-61429752D01*
X165558200Y-61647757D01*
X165154176Y-62051077D01*
X164935250Y-62578309D01*
X164934752Y-63149187D01*
X160156584Y-63149187D01*
X160213113Y-62865000D01*
X160103880Y-62315849D01*
X159792811Y-61850302D01*
X159327264Y-61539233D01*
X158778113Y-61430000D01*
X158721887Y-61430000D01*
X158172736Y-61539233D01*
X157707189Y-61850302D01*
X157396120Y-62315849D01*
X157286887Y-62865000D01*
X145806333Y-62865000D01*
X145952401Y-62767401D01*
X149127401Y-59592401D01*
X149292148Y-59345839D01*
X149350000Y-59055000D01*
X149350000Y-58088991D01*
X178804735Y-58088991D01*
X179037932Y-58653371D01*
X179469357Y-59085551D01*
X180033330Y-59319733D01*
X180643991Y-59320265D01*
X181208371Y-59087068D01*
X181640551Y-58655643D01*
X181874733Y-58091670D01*
X181875265Y-57481009D01*
X181642068Y-56916629D01*
X181464908Y-56739159D01*
X181599699Y-56683327D01*
X181778327Y-56504698D01*
X181875000Y-56271309D01*
X181875000Y-55530750D01*
X181716250Y-55372000D01*
X180467000Y-55372000D01*
X180467000Y-55392000D01*
X180213000Y-55392000D01*
X180213000Y-55372000D01*
X178963750Y-55372000D01*
X178805000Y-55530750D01*
X178805000Y-56271309D01*
X178901673Y-56504698D01*
X179080301Y-56683327D01*
X179214994Y-56739119D01*
X179039449Y-56914357D01*
X178805267Y-57478330D01*
X178804735Y-58088991D01*
X149350000Y-58088991D01*
X149350000Y-54289802D01*
X149539802Y-54100000D01*
X149632560Y-54100000D01*
X149632560Y-54190000D01*
X149676838Y-54425317D01*
X149815910Y-54641441D01*
X150028110Y-54786431D01*
X150095541Y-54800086D01*
X150050853Y-54829946D01*
X149728946Y-55311715D01*
X149615907Y-55880000D01*
X149728946Y-56448285D01*
X150050853Y-56930054D01*
X150532622Y-57251961D01*
X151100907Y-57365000D01*
X151159093Y-57365000D01*
X151727378Y-57251961D01*
X152209147Y-56930054D01*
X152531054Y-56448285D01*
X152644093Y-55880000D01*
X155330907Y-55880000D01*
X155443946Y-56448285D01*
X155765853Y-56930054D01*
X156247622Y-57251961D01*
X156815907Y-57365000D01*
X156874093Y-57365000D01*
X157442378Y-57251961D01*
X157924147Y-56930054D01*
X158117954Y-56640000D01*
X160020000Y-56640000D01*
X160310839Y-56582148D01*
X160557401Y-56417401D01*
X161054019Y-55920783D01*
X161158946Y-56448285D01*
X161480853Y-56930054D01*
X161962622Y-57251961D01*
X162530907Y-57365000D01*
X162589093Y-57365000D01*
X163157378Y-57251961D01*
X163639147Y-56930054D01*
X163961054Y-56448285D01*
X164074093Y-55880000D01*
X163961054Y-55311715D01*
X163639147Y-54829946D01*
X163597548Y-54802150D01*
X163645317Y-54793162D01*
X163861441Y-54654090D01*
X164006431Y-54441890D01*
X164051629Y-54218691D01*
X178805000Y-54218691D01*
X178805000Y-54959250D01*
X178963750Y-55118000D01*
X180213000Y-55118000D01*
X180213000Y-53868750D01*
X180467000Y-53868750D01*
X180467000Y-55118000D01*
X181716250Y-55118000D01*
X181875000Y-54959250D01*
X181875000Y-54218691D01*
X181778327Y-53985302D01*
X181599699Y-53806673D01*
X181366310Y-53710000D01*
X180625750Y-53710000D01*
X180467000Y-53868750D01*
X180213000Y-53868750D01*
X180054250Y-53710000D01*
X179313690Y-53710000D01*
X179080301Y-53806673D01*
X178901673Y-53985302D01*
X178805000Y-54218691D01*
X164051629Y-54218691D01*
X164057440Y-54190000D01*
X164057440Y-52490000D01*
X164013162Y-52254683D01*
X163874090Y-52038559D01*
X163661890Y-51893569D01*
X163410000Y-51842560D01*
X161710000Y-51842560D01*
X161474683Y-51886838D01*
X161258559Y-52025910D01*
X161113569Y-52238110D01*
X161062560Y-52490000D01*
X161062560Y-53762638D01*
X159705198Y-55120000D01*
X158117954Y-55120000D01*
X157924147Y-54829946D01*
X157882548Y-54802150D01*
X157930317Y-54793162D01*
X158146441Y-54654090D01*
X158291431Y-54441890D01*
X158342440Y-54190000D01*
X158342440Y-52490000D01*
X158298162Y-52254683D01*
X158159090Y-52038559D01*
X157946890Y-51893569D01*
X157695000Y-51842560D01*
X155995000Y-51842560D01*
X155759683Y-51886838D01*
X155543559Y-52025910D01*
X155398569Y-52238110D01*
X155347560Y-52490000D01*
X155347560Y-54190000D01*
X155391838Y-54425317D01*
X155530910Y-54641441D01*
X155743110Y-54786431D01*
X155810541Y-54800086D01*
X155765853Y-54829946D01*
X155443946Y-55311715D01*
X155330907Y-55880000D01*
X152644093Y-55880000D01*
X152531054Y-55311715D01*
X152209147Y-54829946D01*
X152167548Y-54802150D01*
X152215317Y-54793162D01*
X152431441Y-54654090D01*
X152576431Y-54441890D01*
X152627440Y-54190000D01*
X152627440Y-52490000D01*
X152583162Y-52254683D01*
X152444090Y-52038559D01*
X152231890Y-51893569D01*
X151980000Y-51842560D01*
X150280000Y-51842560D01*
X150044683Y-51886838D01*
X149828559Y-52025910D01*
X149683569Y-52238110D01*
X149632560Y-52490000D01*
X149632560Y-52580000D01*
X149225000Y-52580000D01*
X148934161Y-52637852D01*
X148687599Y-52802599D01*
X148052599Y-53437599D01*
X147887852Y-53684161D01*
X147830000Y-53975000D01*
X147830000Y-58740198D01*
X145100198Y-61470000D01*
X143506846Y-61470000D01*
X143462068Y-61361629D01*
X143030643Y-60929449D01*
X142466670Y-60695267D01*
X141856009Y-60694735D01*
X141291629Y-60927932D01*
X140909712Y-61309182D01*
X140530643Y-60929449D01*
X139966670Y-60695267D01*
X139356009Y-60694735D01*
X138791629Y-60927932D01*
X138409712Y-61309182D01*
X138030643Y-60929449D01*
X137466670Y-60695267D01*
X136856009Y-60694735D01*
X136291629Y-60927932D01*
X135859449Y-61359357D01*
X135625267Y-61923330D01*
X135624735Y-62533991D01*
X135380000Y-62533991D01*
X135380000Y-57464802D01*
X138744802Y-54100000D01*
X143917560Y-54100000D01*
X143917560Y-54190000D01*
X143961838Y-54425317D01*
X144100910Y-54641441D01*
X144313110Y-54786431D01*
X144380541Y-54800086D01*
X144335853Y-54829946D01*
X144013946Y-55311715D01*
X143900907Y-55880000D01*
X144013946Y-56448285D01*
X144335853Y-56930054D01*
X144817622Y-57251961D01*
X145385907Y-57365000D01*
X145444093Y-57365000D01*
X146012378Y-57251961D01*
X146494147Y-56930054D01*
X146816054Y-56448285D01*
X146929093Y-55880000D01*
X146816054Y-55311715D01*
X146494147Y-54829946D01*
X146452548Y-54802150D01*
X146500317Y-54793162D01*
X146716441Y-54654090D01*
X146861431Y-54441890D01*
X146912440Y-54190000D01*
X146912440Y-52490000D01*
X146868162Y-52254683D01*
X146729090Y-52038559D01*
X146516890Y-51893569D01*
X146265000Y-51842560D01*
X144565000Y-51842560D01*
X144329683Y-51886838D01*
X144113559Y-52025910D01*
X143968569Y-52238110D01*
X143917560Y-52490000D01*
X143917560Y-52580000D01*
X138430000Y-52580000D01*
X138139161Y-52637852D01*
X137892599Y-52802599D01*
X134082599Y-56612599D01*
X133917852Y-56859161D01*
X133860000Y-57150000D01*
X132790000Y-57150000D01*
X132790000Y-50927000D01*
X177650000Y-50927000D01*
X177650000Y-51287000D01*
X177806692Y-51820743D01*
X178155711Y-52253894D01*
X178643922Y-52520510D01*
X178723317Y-52537029D01*
X178943000Y-52414840D01*
X178943000Y-50927000D01*
X179197000Y-50927000D01*
X179197000Y-52414840D01*
X179416683Y-52537029D01*
X179496078Y-52520510D01*
X179984289Y-52253894D01*
X180333308Y-51820743D01*
X180490000Y-51287000D01*
X180490000Y-50927000D01*
X179197000Y-50927000D01*
X178943000Y-50927000D01*
X177650000Y-50927000D01*
X132790000Y-50927000D01*
X132790000Y-50313000D01*
X177650000Y-50313000D01*
X177650000Y-50673000D01*
X178943000Y-50673000D01*
X178943000Y-49185160D01*
X179197000Y-49185160D01*
X179197000Y-50673000D01*
X180490000Y-50673000D01*
X180490000Y-50313000D01*
X180333308Y-49779257D01*
X180233186Y-49655000D01*
X181447560Y-49655000D01*
X181447560Y-51945000D01*
X181491838Y-52180317D01*
X181630910Y-52396441D01*
X181843110Y-52541431D01*
X182095000Y-52592440D01*
X183665000Y-52592440D01*
X183900317Y-52548162D01*
X184116441Y-52409090D01*
X184261431Y-52196890D01*
X184312440Y-51945000D01*
X184312440Y-49655000D01*
X184268162Y-49419683D01*
X184129090Y-49203559D01*
X183916890Y-49058569D01*
X183665000Y-49007560D01*
X182095000Y-49007560D01*
X181859683Y-49051838D01*
X181643559Y-49190910D01*
X181498569Y-49403110D01*
X181447560Y-49655000D01*
X180233186Y-49655000D01*
X179984289Y-49346106D01*
X179496078Y-49079490D01*
X179416683Y-49062971D01*
X179197000Y-49185160D01*
X178943000Y-49185160D01*
X178723317Y-49062971D01*
X178643922Y-49079490D01*
X178155711Y-49346106D01*
X177806692Y-49779257D01*
X177650000Y-50313000D01*
X132790000Y-50313000D01*
X132790000Y-42962832D01*
X133714811Y-43889259D01*
X135123825Y-44474333D01*
X136649482Y-44475664D01*
X138059515Y-43893050D01*
X139139259Y-42815189D01*
X139724333Y-41406175D01*
X139725281Y-40318893D01*
X141289725Y-40318893D01*
X141530519Y-40901657D01*
X141903471Y-41275261D01*
X141532086Y-41645997D01*
X141290276Y-42228341D01*
X141289725Y-42858893D01*
X141530519Y-43441657D01*
X141903471Y-43815261D01*
X141532086Y-44185997D01*
X141290276Y-44768341D01*
X141289725Y-45398893D01*
X141530519Y-45981657D01*
X141903471Y-46355261D01*
X141532086Y-46725997D01*
X141290276Y-47308341D01*
X141289725Y-47938893D01*
X141530519Y-48521657D01*
X141975997Y-48967914D01*
X142558341Y-49209724D01*
X143188893Y-49210275D01*
X143771657Y-48969481D01*
X144145261Y-48596529D01*
X144515997Y-48967914D01*
X145098341Y-49209724D01*
X145728893Y-49210275D01*
X146311657Y-48969481D01*
X146685261Y-48596529D01*
X147055997Y-48967914D01*
X147638341Y-49209724D01*
X148268893Y-49210275D01*
X148851657Y-48969481D01*
X149225261Y-48596529D01*
X149595997Y-48967914D01*
X150178341Y-49209724D01*
X150808893Y-49210275D01*
X151391657Y-48969481D01*
X151765261Y-48596529D01*
X152135997Y-48967914D01*
X152718341Y-49209724D01*
X153348893Y-49210275D01*
X153931657Y-48969481D01*
X154305261Y-48596529D01*
X154675997Y-48967914D01*
X155258341Y-49209724D01*
X155888893Y-49210275D01*
X156471657Y-48969481D01*
X156845261Y-48596529D01*
X157215997Y-48967914D01*
X157798341Y-49209724D01*
X158428893Y-49210275D01*
X159011657Y-48969481D01*
X159385261Y-48596529D01*
X159755997Y-48967914D01*
X160338341Y-49209724D01*
X160968893Y-49210275D01*
X161551657Y-48969481D01*
X161925261Y-48596529D01*
X162295997Y-48967914D01*
X162878341Y-49209724D01*
X163508893Y-49210275D01*
X164091657Y-48969481D01*
X164465261Y-48596529D01*
X164835997Y-48967914D01*
X165418341Y-49209724D01*
X166048893Y-49210275D01*
X166631657Y-48969481D01*
X166904954Y-48696661D01*
X203412758Y-48696661D01*
X203624990Y-49210303D01*
X204017630Y-49603629D01*
X204530900Y-49816757D01*
X205086661Y-49817242D01*
X205600303Y-49605010D01*
X205993629Y-49212370D01*
X206206757Y-48699100D01*
X206207242Y-48143339D01*
X205995010Y-47629697D01*
X205602370Y-47236371D01*
X205089100Y-47023243D01*
X204533339Y-47022758D01*
X204019697Y-47234990D01*
X203626371Y-47627630D01*
X203413243Y-48140900D01*
X203412758Y-48696661D01*
X166904954Y-48696661D01*
X167077914Y-48524003D01*
X167319724Y-47941659D01*
X167320275Y-47311107D01*
X167079481Y-46728343D01*
X166706529Y-46354739D01*
X166871556Y-46190000D01*
X171907560Y-46190000D01*
X171907560Y-47790000D01*
X171951838Y-48025317D01*
X172090910Y-48241441D01*
X172303110Y-48386431D01*
X172555000Y-48437440D01*
X174155000Y-48437440D01*
X174390317Y-48393162D01*
X174606441Y-48254090D01*
X174751431Y-48041890D01*
X174802440Y-47790000D01*
X174802440Y-46190000D01*
X187147560Y-46190000D01*
X187147560Y-47790000D01*
X187191838Y-48025317D01*
X187330910Y-48241441D01*
X187543110Y-48386431D01*
X187795000Y-48437440D01*
X189395000Y-48437440D01*
X189630317Y-48393162D01*
X189846441Y-48254090D01*
X189991431Y-48041890D01*
X190042440Y-47790000D01*
X190042440Y-46200213D01*
X204009392Y-46200213D01*
X204078857Y-46442397D01*
X204602302Y-46629144D01*
X205157368Y-46601362D01*
X205541143Y-46442397D01*
X205610608Y-46200213D01*
X204810000Y-45399605D01*
X204009392Y-46200213D01*
X190042440Y-46200213D01*
X190042440Y-46190000D01*
X189998162Y-45954683D01*
X189859090Y-45738559D01*
X189646890Y-45593569D01*
X189395000Y-45542560D01*
X187795000Y-45542560D01*
X187559683Y-45586838D01*
X187343559Y-45725910D01*
X187198569Y-45938110D01*
X187147560Y-46190000D01*
X174802440Y-46190000D01*
X174758162Y-45954683D01*
X174619090Y-45738559D01*
X174406890Y-45593569D01*
X174155000Y-45542560D01*
X172555000Y-45542560D01*
X172319683Y-45586838D01*
X172103559Y-45725910D01*
X171958569Y-45938110D01*
X171907560Y-46190000D01*
X166871556Y-46190000D01*
X167077914Y-45984003D01*
X167319724Y-45401659D01*
X167320064Y-45012302D01*
X203400856Y-45012302D01*
X203428638Y-45567368D01*
X203587603Y-45951143D01*
X203829787Y-46020608D01*
X204630395Y-45220000D01*
X204989605Y-45220000D01*
X205790213Y-46020608D01*
X206032397Y-45951143D01*
X206219144Y-45427698D01*
X206191362Y-44872632D01*
X206032397Y-44488857D01*
X205790213Y-44419392D01*
X204989605Y-45220000D01*
X204630395Y-45220000D01*
X203829787Y-44419392D01*
X203587603Y-44488857D01*
X203400856Y-45012302D01*
X167320064Y-45012302D01*
X167320275Y-44771107D01*
X167079481Y-44188343D01*
X166706529Y-43814739D01*
X167077914Y-43444003D01*
X167319724Y-42861659D01*
X167320275Y-42231107D01*
X167079481Y-41648343D01*
X166706529Y-41274739D01*
X167077914Y-40904003D01*
X167319724Y-40321659D01*
X167320250Y-39719041D01*
X171963086Y-39719041D01*
X172202611Y-40225134D01*
X172617577Y-40601041D01*
X173005961Y-40761904D01*
X173228000Y-40639915D01*
X173228000Y-39497000D01*
X173482000Y-39497000D01*
X173482000Y-40639915D01*
X173704039Y-40761904D01*
X174092423Y-40601041D01*
X174485317Y-40245128D01*
X178290000Y-40245128D01*
X178290000Y-41034872D01*
X178398091Y-41578282D01*
X178705908Y-42038964D01*
X179166590Y-42346781D01*
X179710000Y-42454872D01*
X180253410Y-42346781D01*
X180714092Y-42038964D01*
X180975000Y-41648486D01*
X181235908Y-42038964D01*
X181696590Y-42346781D01*
X182240000Y-42454872D01*
X182783410Y-42346781D01*
X183244092Y-42038964D01*
X183551909Y-41578282D01*
X183660000Y-41034872D01*
X183660000Y-40245128D01*
X183551909Y-39701718D01*
X183311479Y-39341887D01*
X187160000Y-39341887D01*
X187160000Y-39398113D01*
X187269233Y-39947264D01*
X187580302Y-40412811D01*
X188045849Y-40723880D01*
X188595000Y-40833113D01*
X189144151Y-40723880D01*
X189609698Y-40412811D01*
X189920767Y-39947264D01*
X190030000Y-39398113D01*
X190030000Y-39341887D01*
X189920767Y-38792736D01*
X189609698Y-38327189D01*
X189144151Y-38016120D01*
X188595000Y-37906887D01*
X188045849Y-38016120D01*
X187580302Y-38327189D01*
X187269233Y-38792736D01*
X187160000Y-39341887D01*
X183311479Y-39341887D01*
X183244092Y-39241036D01*
X182783410Y-38933219D01*
X182240000Y-38825128D01*
X181696590Y-38933219D01*
X181235908Y-39241036D01*
X180975000Y-39631514D01*
X180714092Y-39241036D01*
X180253410Y-38933219D01*
X179710000Y-38825128D01*
X179166590Y-38933219D01*
X178705908Y-39241036D01*
X178398091Y-39701718D01*
X178290000Y-40245128D01*
X174485317Y-40245128D01*
X174507389Y-40225134D01*
X174746914Y-39719041D01*
X174625629Y-39497000D01*
X173482000Y-39497000D01*
X173228000Y-39497000D01*
X172084371Y-39497000D01*
X171963086Y-39719041D01*
X167320250Y-39719041D01*
X167320275Y-39691107D01*
X167079481Y-39108343D01*
X166992250Y-39020959D01*
X171963086Y-39020959D01*
X172084371Y-39243000D01*
X173228000Y-39243000D01*
X173228000Y-38100085D01*
X173482000Y-38100085D01*
X173482000Y-39243000D01*
X174625629Y-39243000D01*
X174746914Y-39020959D01*
X174507389Y-38514866D01*
X174092423Y-38138959D01*
X173704039Y-37978096D01*
X173482000Y-38100085D01*
X173228000Y-38100085D01*
X173005961Y-37978096D01*
X172617577Y-38138959D01*
X172202611Y-38514866D01*
X171963086Y-39020959D01*
X166992250Y-39020959D01*
X166634003Y-38662086D01*
X166051659Y-38420276D01*
X165421107Y-38419725D01*
X164838343Y-38660519D01*
X164464739Y-39033471D01*
X164094003Y-38662086D01*
X163511659Y-38420276D01*
X162881107Y-38419725D01*
X162298343Y-38660519D01*
X161924739Y-39033471D01*
X161554003Y-38662086D01*
X160971659Y-38420276D01*
X160341107Y-38419725D01*
X159758343Y-38660519D01*
X159384739Y-39033471D01*
X159014003Y-38662086D01*
X158431659Y-38420276D01*
X157801107Y-38419725D01*
X157218343Y-38660519D01*
X156844739Y-39033471D01*
X156474003Y-38662086D01*
X155891659Y-38420276D01*
X155261107Y-38419725D01*
X154678343Y-38660519D01*
X154304739Y-39033471D01*
X153934003Y-38662086D01*
X153351659Y-38420276D01*
X152721107Y-38419725D01*
X152138343Y-38660519D01*
X151764739Y-39033471D01*
X151394003Y-38662086D01*
X150811659Y-38420276D01*
X150181107Y-38419725D01*
X149598343Y-38660519D01*
X149224739Y-39033471D01*
X148854003Y-38662086D01*
X148271659Y-38420276D01*
X147641107Y-38419725D01*
X147058343Y-38660519D01*
X146684739Y-39033471D01*
X146314003Y-38662086D01*
X145731659Y-38420276D01*
X145101107Y-38419725D01*
X144518343Y-38660519D01*
X144144739Y-39033471D01*
X143774003Y-38662086D01*
X143191659Y-38420276D01*
X142561107Y-38419725D01*
X141978343Y-38660519D01*
X141532086Y-39105997D01*
X141290276Y-39688341D01*
X141289725Y-40318893D01*
X139725281Y-40318893D01*
X139725664Y-39880518D01*
X139143050Y-38470485D01*
X138214188Y-37540000D01*
X197067168Y-37540000D01*
X196140741Y-38464811D01*
X196140741Y-38464811D01*
G37*
X196140741Y-38464811D02*
X195555667Y-39873825D01*
X195554336Y-41399482D01*
X196136950Y-42809515D01*
X197214811Y-43889259D01*
X198623825Y-44474333D01*
X200149482Y-44475664D01*
X200720347Y-44239787D01*
X204009392Y-44239787D01*
X204810000Y-45040395D01*
X205610608Y-44239787D01*
X205541143Y-43997603D01*
X205017698Y-43810856D01*
X204462632Y-43838638D01*
X204078857Y-43997603D01*
X204009392Y-44239787D01*
X200720347Y-44239787D01*
X201559515Y-43893050D01*
X202639259Y-42815189D01*
X202854570Y-42296661D01*
X203412758Y-42296661D01*
X203624990Y-42810303D01*
X204017630Y-43203629D01*
X204530900Y-43416757D01*
X205086661Y-43417242D01*
X205600303Y-43205010D01*
X205993629Y-42812370D01*
X206206757Y-42299100D01*
X206207242Y-41743339D01*
X205995010Y-41229697D01*
X205602370Y-40836371D01*
X205089100Y-40623243D01*
X204533339Y-40622758D01*
X204019697Y-40834990D01*
X203626371Y-41227630D01*
X203413243Y-41740900D01*
X203412758Y-42296661D01*
X202854570Y-42296661D01*
X203224333Y-41406175D01*
X203225664Y-39880518D01*
X202643050Y-38470485D01*
X201714188Y-37540000D01*
X211380000Y-37540000D01*
X211380000Y-78030000D01*
X198684470Y-78030000D01*
X199095922Y-77706317D01*
X199409144Y-77148355D01*
X199440124Y-77020434D01*
X199320777Y-76767000D01*
X196977000Y-76767000D01*
X196977000Y-76787000D01*
X196723000Y-76787000D01*
X196723000Y-76767000D01*
X194379223Y-76767000D01*
X194259876Y-77020434D01*
X194290856Y-77148355D01*
X194604078Y-77706317D01*
X195015530Y-78030000D01*
X187742832Y-78030000D01*
X188669259Y-77105189D01*
X189020392Y-76259566D01*
X194259876Y-76259566D01*
X194379223Y-76513000D01*
X196723000Y-76513000D01*
X196723000Y-75005000D01*
X196977000Y-75005000D01*
X196977000Y-76513000D01*
X199320777Y-76513000D01*
X199440124Y-76259566D01*
X199409144Y-76131645D01*
X199095922Y-75573683D01*
X198593020Y-75178058D01*
X197977000Y-75005000D01*
X196977000Y-75005000D01*
X196723000Y-75005000D01*
X195723000Y-75005000D01*
X195106980Y-75178058D01*
X194604078Y-75573683D01*
X194290856Y-76131645D01*
X194259876Y-76259566D01*
X189020392Y-76259566D01*
X189254333Y-75696175D01*
X189255664Y-74170518D01*
X189225147Y-74096661D01*
X203412758Y-74096661D01*
X203624990Y-74610303D01*
X204017630Y-75003629D01*
X204530900Y-75216757D01*
X205086661Y-75217242D01*
X205600303Y-75005010D01*
X205993629Y-74612370D01*
X206206757Y-74099100D01*
X206207242Y-73543339D01*
X205995010Y-73029697D01*
X205602370Y-72636371D01*
X205089100Y-72423243D01*
X204533339Y-72422758D01*
X204019697Y-72634990D01*
X203626371Y-73027630D01*
X203413243Y-73540900D01*
X203412758Y-74096661D01*
X189225147Y-74096661D01*
X188673050Y-72760485D01*
X187595189Y-71680741D01*
X186774594Y-71340000D01*
X194163377Y-71340000D01*
X194287834Y-71965687D01*
X194642257Y-72496120D01*
X195172690Y-72850543D01*
X195798377Y-72975000D01*
X197901623Y-72975000D01*
X198527310Y-72850543D01*
X199057743Y-72496120D01*
X199412166Y-71965687D01*
X199484863Y-71600213D01*
X204009392Y-71600213D01*
X204078857Y-71842397D01*
X204602302Y-72029144D01*
X205157368Y-72001362D01*
X205541143Y-71842397D01*
X205610608Y-71600213D01*
X204810000Y-70799605D01*
X204009392Y-71600213D01*
X199484863Y-71600213D01*
X199536623Y-71340000D01*
X199412166Y-70714313D01*
X199210370Y-70412302D01*
X203400856Y-70412302D01*
X203428638Y-70967368D01*
X203587603Y-71351143D01*
X203829787Y-71420608D01*
X204630395Y-70620000D01*
X204989605Y-70620000D01*
X205790213Y-71420608D01*
X206032397Y-71351143D01*
X206219144Y-70827698D01*
X206191362Y-70272632D01*
X206032397Y-69888857D01*
X205790213Y-69819392D01*
X204989605Y-70620000D01*
X204630395Y-70620000D01*
X203829787Y-69819392D01*
X203587603Y-69888857D01*
X203400856Y-70412302D01*
X199210370Y-70412302D01*
X199057743Y-70183880D01*
X198527310Y-69829457D01*
X197901623Y-69705000D01*
X195798377Y-69705000D01*
X195172690Y-69829457D01*
X194642257Y-70183880D01*
X194287834Y-70714313D01*
X194163377Y-71340000D01*
X186774594Y-71340000D01*
X186186175Y-71095667D01*
X184660518Y-71094336D01*
X183250485Y-71676950D01*
X182170741Y-72754811D01*
X181585667Y-74163825D01*
X181584336Y-75689482D01*
X182166950Y-77099515D01*
X183095812Y-78030000D01*
X175824470Y-78030000D01*
X176235922Y-77706317D01*
X176549144Y-77148355D01*
X176580124Y-77020434D01*
X176460777Y-76767000D01*
X174117000Y-76767000D01*
X174117000Y-76787000D01*
X173863000Y-76787000D01*
X173863000Y-76767000D01*
X171519223Y-76767000D01*
X171399876Y-77020434D01*
X171430856Y-77148355D01*
X171744078Y-77706317D01*
X172155530Y-78030000D01*
X164882832Y-78030000D01*
X165809259Y-77105189D01*
X166160392Y-76259566D01*
X171399876Y-76259566D01*
X171519223Y-76513000D01*
X173863000Y-76513000D01*
X173863000Y-75005000D01*
X174117000Y-75005000D01*
X174117000Y-76513000D01*
X176460777Y-76513000D01*
X176580124Y-76259566D01*
X176549144Y-76131645D01*
X176235922Y-75573683D01*
X175733020Y-75178058D01*
X175117000Y-75005000D01*
X174117000Y-75005000D01*
X173863000Y-75005000D01*
X172863000Y-75005000D01*
X172246980Y-75178058D01*
X171744078Y-75573683D01*
X171430856Y-76131645D01*
X171399876Y-76259566D01*
X166160392Y-76259566D01*
X166394333Y-75696175D01*
X166395664Y-74170518D01*
X165813050Y-72760485D01*
X164735189Y-71680741D01*
X163914594Y-71340000D01*
X171303377Y-71340000D01*
X171427834Y-71965687D01*
X171782257Y-72496120D01*
X172312690Y-72850543D01*
X172938377Y-72975000D01*
X175041623Y-72975000D01*
X175667310Y-72850543D01*
X176197743Y-72496120D01*
X176552166Y-71965687D01*
X176676623Y-71340000D01*
X176552166Y-70714313D01*
X176197743Y-70183880D01*
X175667310Y-69829457D01*
X175041623Y-69705000D01*
X172938377Y-69705000D01*
X172312690Y-69829457D01*
X171782257Y-70183880D01*
X171427834Y-70714313D01*
X171303377Y-71340000D01*
X163914594Y-71340000D01*
X163326175Y-71095667D01*
X161800518Y-71094336D01*
X160390485Y-71676950D01*
X159310741Y-72754811D01*
X158725667Y-74163825D01*
X158724336Y-75689482D01*
X159306950Y-77099515D01*
X160235812Y-78030000D01*
X152964470Y-78030000D01*
X153375922Y-77706317D01*
X153689144Y-77148355D01*
X153720124Y-77020434D01*
X153600777Y-76767000D01*
X151257000Y-76767000D01*
X151257000Y-76787000D01*
X151003000Y-76787000D01*
X151003000Y-76767000D01*
X148659223Y-76767000D01*
X148539876Y-77020434D01*
X148570856Y-77148355D01*
X148884078Y-77706317D01*
X149295530Y-78030000D01*
X132790000Y-78030000D01*
X132790000Y-76259566D01*
X148539876Y-76259566D01*
X148659223Y-76513000D01*
X151003000Y-76513000D01*
X151003000Y-75005000D01*
X151257000Y-75005000D01*
X151257000Y-76513000D01*
X153600777Y-76513000D01*
X153720124Y-76259566D01*
X153689144Y-76131645D01*
X153375922Y-75573683D01*
X152873020Y-75178058D01*
X152257000Y-75005000D01*
X151257000Y-75005000D01*
X151003000Y-75005000D01*
X150003000Y-75005000D01*
X149386980Y-75178058D01*
X148884078Y-75573683D01*
X148570856Y-76131645D01*
X148539876Y-76259566D01*
X132790000Y-76259566D01*
X132790000Y-70152270D01*
X133024853Y-70720658D01*
X133765443Y-71462542D01*
X134733567Y-71864542D01*
X135781834Y-71865457D01*
X136750658Y-71465147D01*
X137492542Y-70724557D01*
X137894542Y-69756433D01*
X137894546Y-69751834D01*
X141424543Y-69751834D01*
X141824853Y-70720658D01*
X142565443Y-71462542D01*
X143533567Y-71864542D01*
X144581834Y-71865457D01*
X145550658Y-71465147D01*
X146292542Y-70724557D01*
X146694542Y-69756433D01*
X146695457Y-68708166D01*
X146295147Y-67739342D01*
X145554557Y-66997458D01*
X144586433Y-66595458D01*
X143538166Y-66594543D01*
X142569342Y-66994853D01*
X141827458Y-67735443D01*
X141425458Y-68703567D01*
X141424543Y-69751834D01*
X137894546Y-69751834D01*
X137895457Y-68708166D01*
X137495147Y-67739342D01*
X136754557Y-66997458D01*
X135786433Y-66595458D01*
X134738166Y-66594543D01*
X133769342Y-66994853D01*
X133027458Y-67735443D01*
X132790000Y-68307306D01*
X132790000Y-57150000D01*
X133860000Y-57150000D01*
X133860000Y-64135000D01*
X133917852Y-64425839D01*
X134082599Y-64672401D01*
X135352599Y-65942401D01*
X135599160Y-66107148D01*
X135890000Y-66165000D01*
X145680700Y-66165000D01*
X148884278Y-70240720D01*
X148567834Y-70714313D01*
X148443377Y-71340000D01*
X148567834Y-71965687D01*
X148922257Y-72496120D01*
X149452690Y-72850543D01*
X150078377Y-72975000D01*
X152181623Y-72975000D01*
X152807310Y-72850543D01*
X153337743Y-72496120D01*
X153692166Y-71965687D01*
X153816623Y-71340000D01*
X153692166Y-70714313D01*
X153337743Y-70183880D01*
X152807310Y-69829457D01*
X152181623Y-69705000D01*
X150396537Y-69705000D01*
X150345279Y-69639787D01*
X204009392Y-69639787D01*
X204810000Y-70440395D01*
X205610608Y-69639787D01*
X205541143Y-69397603D01*
X205017698Y-69210856D01*
X204462632Y-69238638D01*
X204078857Y-69397603D01*
X204009392Y-69639787D01*
X150345279Y-69639787D01*
X149013151Y-67945000D01*
X157286887Y-67945000D01*
X157396120Y-68494151D01*
X157707189Y-68959698D01*
X158172736Y-69270767D01*
X158721887Y-69380000D01*
X158778113Y-69380000D01*
X159327264Y-69270767D01*
X159792811Y-68959698D01*
X160103880Y-68494151D01*
X160156584Y-68229187D01*
X164934752Y-68229187D01*
X165152757Y-68756800D01*
X165556077Y-69160824D01*
X166083309Y-69379750D01*
X166654187Y-69380248D01*
X167181800Y-69162243D01*
X167585824Y-68758923D01*
X167804750Y-68231691D01*
X167804752Y-68229187D01*
X180174752Y-68229187D01*
X180392757Y-68756800D01*
X180796077Y-69160824D01*
X181323309Y-69379750D01*
X181894187Y-69380248D01*
X182421800Y-69162243D01*
X182825824Y-68758923D01*
X183044750Y-68231691D01*
X183045000Y-67945000D01*
X187766887Y-67945000D01*
X187876120Y-68494151D01*
X188187189Y-68959698D01*
X188652736Y-69270767D01*
X189201887Y-69380000D01*
X189258113Y-69380000D01*
X189807264Y-69270767D01*
X190272811Y-68959698D01*
X190583880Y-68494151D01*
X190693113Y-67945000D01*
X190643716Y-67696661D01*
X203412758Y-67696661D01*
X203624990Y-68210303D01*
X204017630Y-68603629D01*
X204530900Y-68816757D01*
X205086661Y-68817242D01*
X205600303Y-68605010D01*
X205993629Y-68212370D01*
X206206757Y-67699100D01*
X206207242Y-67143339D01*
X205995010Y-66629697D01*
X205602370Y-66236371D01*
X205089100Y-66023243D01*
X204533339Y-66022758D01*
X204019697Y-66234990D01*
X203626371Y-66627630D01*
X203413243Y-67140900D01*
X203412758Y-67696661D01*
X190643716Y-67696661D01*
X190583880Y-67395849D01*
X190272811Y-66930302D01*
X189807264Y-66619233D01*
X189258113Y-66510000D01*
X189201887Y-66510000D01*
X188652736Y-66619233D01*
X188187189Y-66930302D01*
X187876120Y-67395849D01*
X187766887Y-67945000D01*
X183045000Y-67945000D01*
X183045248Y-67660813D01*
X182827243Y-67133200D01*
X182423923Y-66729176D01*
X181896691Y-66510250D01*
X181325813Y-66509752D01*
X180798200Y-66727757D01*
X180394176Y-67131077D01*
X180175250Y-67658309D01*
X180174752Y-68229187D01*
X167804752Y-68229187D01*
X167805248Y-67660813D01*
X167587243Y-67133200D01*
X167183923Y-66729176D01*
X166656691Y-66510250D01*
X166085813Y-66509752D01*
X165558200Y-66727757D01*
X165154176Y-67131077D01*
X164935250Y-67658309D01*
X164934752Y-68229187D01*
X160156584Y-68229187D01*
X160213113Y-67945000D01*
X160103880Y-67395849D01*
X159792811Y-66930302D01*
X159327264Y-66619233D01*
X158778113Y-66510000D01*
X158721887Y-66510000D01*
X158172736Y-66619233D01*
X157707189Y-66930302D01*
X157396120Y-67395849D01*
X157286887Y-67945000D01*
X149013151Y-67945000D01*
X147122784Y-65540000D01*
X148443377Y-65540000D01*
X148567834Y-66165687D01*
X148922257Y-66696120D01*
X149452690Y-67050543D01*
X150078377Y-67175000D01*
X152181623Y-67175000D01*
X152807310Y-67050543D01*
X153337743Y-66696120D01*
X153692166Y-66165687D01*
X153816623Y-65540000D01*
X171303377Y-65540000D01*
X171427834Y-66165687D01*
X171782257Y-66696120D01*
X172312690Y-67050543D01*
X172938377Y-67175000D01*
X175041623Y-67175000D01*
X175667310Y-67050543D01*
X176197743Y-66696120D01*
X176552166Y-66165687D01*
X176676623Y-65540000D01*
X194163377Y-65540000D01*
X194287834Y-66165687D01*
X194642257Y-66696120D01*
X195172690Y-67050543D01*
X195798377Y-67175000D01*
X197901623Y-67175000D01*
X198527310Y-67050543D01*
X199057743Y-66696120D01*
X199412166Y-66165687D01*
X199536623Y-65540000D01*
X199412166Y-64914313D01*
X199057743Y-64383880D01*
X198527310Y-64029457D01*
X197901623Y-63905000D01*
X195798377Y-63905000D01*
X195172690Y-64029457D01*
X194642257Y-64383880D01*
X194287834Y-64914313D01*
X194163377Y-65540000D01*
X176676623Y-65540000D01*
X176552166Y-64914313D01*
X176197743Y-64383880D01*
X175667310Y-64029457D01*
X175041623Y-63905000D01*
X172938377Y-63905000D01*
X172312690Y-64029457D01*
X171782257Y-64383880D01*
X171427834Y-64914313D01*
X171303377Y-65540000D01*
X153816623Y-65540000D01*
X153692166Y-64914313D01*
X153337743Y-64383880D01*
X152807310Y-64029457D01*
X152181623Y-63905000D01*
X150078377Y-63905000D01*
X149452690Y-64029457D01*
X148922257Y-64383880D01*
X148567834Y-64914313D01*
X148443377Y-65540000D01*
X147122784Y-65540000D01*
X146647515Y-64935344D01*
X146612796Y-64905605D01*
X146587401Y-64867599D01*
X146501116Y-64809945D01*
X146422302Y-64742437D01*
X146378849Y-64728249D01*
X146340839Y-64702852D01*
X146239058Y-64682606D01*
X146140410Y-64650397D01*
X146094835Y-64653918D01*
X146050000Y-64645000D01*
X136204802Y-64645000D01*
X135380000Y-63820198D01*
X135380000Y-62533991D01*
X135624735Y-62533991D01*
X135857932Y-63098371D01*
X136289357Y-63530551D01*
X136853330Y-63764733D01*
X137463991Y-63765265D01*
X138028371Y-63532068D01*
X138410288Y-63150818D01*
X138789357Y-63530551D01*
X139353330Y-63764733D01*
X139963991Y-63765265D01*
X140528371Y-63532068D01*
X140910288Y-63150818D01*
X141289357Y-63530551D01*
X141853330Y-63764733D01*
X142463991Y-63765265D01*
X143028371Y-63532068D01*
X143460551Y-63100643D01*
X143506494Y-62990000D01*
X145415000Y-62990000D01*
X145705839Y-62932148D01*
X145806333Y-62865000D01*
X157286887Y-62865000D01*
X157396120Y-63414151D01*
X157707189Y-63879698D01*
X158172736Y-64190767D01*
X158721887Y-64300000D01*
X158778113Y-64300000D01*
X159327264Y-64190767D01*
X159792811Y-63879698D01*
X160103880Y-63414151D01*
X160156584Y-63149187D01*
X164934752Y-63149187D01*
X165152757Y-63676800D01*
X165556077Y-64080824D01*
X166083309Y-64299750D01*
X166654187Y-64300248D01*
X167181800Y-64082243D01*
X167585824Y-63678923D01*
X167804750Y-63151691D01*
X167804752Y-63149187D01*
X181524752Y-63149187D01*
X181742757Y-63676800D01*
X182146077Y-64080824D01*
X182673309Y-64299750D01*
X183244187Y-64300248D01*
X183771800Y-64082243D01*
X184175824Y-63678923D01*
X184394750Y-63151691D01*
X184394752Y-63149187D01*
X186524752Y-63149187D01*
X186742757Y-63676800D01*
X187146077Y-64080824D01*
X187673309Y-64299750D01*
X188244187Y-64300248D01*
X188771800Y-64082243D01*
X189175824Y-63678923D01*
X189394750Y-63151691D01*
X189395248Y-62580813D01*
X189372951Y-62526851D01*
X190503141Y-61396661D01*
X203412758Y-61396661D01*
X203624990Y-61910303D01*
X204017630Y-62303629D01*
X204530900Y-62516757D01*
X205086661Y-62517242D01*
X205600303Y-62305010D01*
X205993629Y-61912370D01*
X206206757Y-61399100D01*
X206207242Y-60843339D01*
X205995010Y-60329697D01*
X205602370Y-59936371D01*
X205089100Y-59723243D01*
X204533339Y-59722758D01*
X204019697Y-59934990D01*
X203626371Y-60327630D01*
X203413243Y-60840900D01*
X203412758Y-61396661D01*
X190503141Y-61396661D01*
X192307401Y-59592401D01*
X192472148Y-59345839D01*
X192530000Y-59055000D01*
X192530000Y-58196661D01*
X203412758Y-58196661D01*
X203624990Y-58710303D01*
X204017630Y-59103629D01*
X204530900Y-59316757D01*
X205086661Y-59317242D01*
X205600303Y-59105010D01*
X205993629Y-58712370D01*
X206206757Y-58199100D01*
X206207242Y-57643339D01*
X205995010Y-57129697D01*
X205602370Y-56736371D01*
X205089100Y-56523243D01*
X204533339Y-56522758D01*
X204019697Y-56734990D01*
X203626371Y-57127630D01*
X203413243Y-57640900D01*
X203412758Y-58196661D01*
X192530000Y-58196661D01*
X192530000Y-55119648D01*
X192864658Y-54981370D01*
X193409457Y-54437521D01*
X193704663Y-53726584D01*
X193704665Y-53723207D01*
X194834665Y-53723207D01*
X195128630Y-54434658D01*
X195672479Y-54979457D01*
X196383416Y-55274663D01*
X197153207Y-55275335D01*
X197827650Y-54996661D01*
X203412758Y-54996661D01*
X203624990Y-55510303D01*
X204017630Y-55903629D01*
X204530900Y-56116757D01*
X205086661Y-56117242D01*
X205600303Y-55905010D01*
X205993629Y-55512370D01*
X206206757Y-54999100D01*
X206207242Y-54443339D01*
X205995010Y-53929697D01*
X205602370Y-53536371D01*
X205089100Y-53323243D01*
X204533339Y-53322758D01*
X204019697Y-53534990D01*
X203626371Y-53927630D01*
X203413243Y-54440900D01*
X203412758Y-54996661D01*
X197827650Y-54996661D01*
X197864658Y-54981370D01*
X198409457Y-54437521D01*
X198704663Y-53726584D01*
X198705335Y-52956793D01*
X198411370Y-52245342D01*
X197867521Y-51700543D01*
X197156584Y-51405337D01*
X196386793Y-51404665D01*
X195675342Y-51698630D01*
X195130543Y-52242479D01*
X194835337Y-52953416D01*
X194834665Y-53723207D01*
X193704665Y-53723207D01*
X193705335Y-52956793D01*
X193411370Y-52245342D01*
X192867521Y-51700543D01*
X192156584Y-51405337D01*
X191386793Y-51404665D01*
X190675342Y-51698630D01*
X190130543Y-52242479D01*
X189835337Y-52953416D01*
X189834665Y-53723207D01*
X190128630Y-54434658D01*
X190672479Y-54979457D01*
X191010000Y-55119608D01*
X191010000Y-58740198D01*
X188298454Y-61451744D01*
X188246691Y-61430250D01*
X187675813Y-61429752D01*
X187148200Y-61647757D01*
X186744176Y-62051077D01*
X186525250Y-62578309D01*
X186524752Y-63149187D01*
X184394752Y-63149187D01*
X184395248Y-62580813D01*
X184177243Y-62053200D01*
X183773923Y-61649176D01*
X183246691Y-61430250D01*
X182675813Y-61429752D01*
X182148200Y-61647757D01*
X181744176Y-62051077D01*
X181525250Y-62578309D01*
X181524752Y-63149187D01*
X167804752Y-63149187D01*
X167805248Y-62580813D01*
X167587243Y-62053200D01*
X167183923Y-61649176D01*
X166656691Y-61430250D01*
X166085813Y-61429752D01*
X165558200Y-61647757D01*
X165154176Y-62051077D01*
X164935250Y-62578309D01*
X164934752Y-63149187D01*
X160156584Y-63149187D01*
X160213113Y-62865000D01*
X160103880Y-62315849D01*
X159792811Y-61850302D01*
X159327264Y-61539233D01*
X158778113Y-61430000D01*
X158721887Y-61430000D01*
X158172736Y-61539233D01*
X157707189Y-61850302D01*
X157396120Y-62315849D01*
X157286887Y-62865000D01*
X145806333Y-62865000D01*
X145952401Y-62767401D01*
X149127401Y-59592401D01*
X149292148Y-59345839D01*
X149350000Y-59055000D01*
X149350000Y-58088991D01*
X178804735Y-58088991D01*
X179037932Y-58653371D01*
X179469357Y-59085551D01*
X180033330Y-59319733D01*
X180643991Y-59320265D01*
X181208371Y-59087068D01*
X181640551Y-58655643D01*
X181874733Y-58091670D01*
X181875265Y-57481009D01*
X181642068Y-56916629D01*
X181464908Y-56739159D01*
X181599699Y-56683327D01*
X181778327Y-56504698D01*
X181875000Y-56271309D01*
X181875000Y-55530750D01*
X181716250Y-55372000D01*
X180467000Y-55372000D01*
X180467000Y-55392000D01*
X180213000Y-55392000D01*
X180213000Y-55372000D01*
X178963750Y-55372000D01*
X178805000Y-55530750D01*
X178805000Y-56271309D01*
X178901673Y-56504698D01*
X179080301Y-56683327D01*
X179214994Y-56739119D01*
X179039449Y-56914357D01*
X178805267Y-57478330D01*
X178804735Y-58088991D01*
X149350000Y-58088991D01*
X149350000Y-54289802D01*
X149539802Y-54100000D01*
X149632560Y-54100000D01*
X149632560Y-54190000D01*
X149676838Y-54425317D01*
X149815910Y-54641441D01*
X150028110Y-54786431D01*
X150095541Y-54800086D01*
X150050853Y-54829946D01*
X149728946Y-55311715D01*
X149615907Y-55880000D01*
X149728946Y-56448285D01*
X150050853Y-56930054D01*
X150532622Y-57251961D01*
X151100907Y-57365000D01*
X151159093Y-57365000D01*
X151727378Y-57251961D01*
X152209147Y-56930054D01*
X152531054Y-56448285D01*
X152644093Y-55880000D01*
X155330907Y-55880000D01*
X155443946Y-56448285D01*
X155765853Y-56930054D01*
X156247622Y-57251961D01*
X156815907Y-57365000D01*
X156874093Y-57365000D01*
X157442378Y-57251961D01*
X157924147Y-56930054D01*
X158117954Y-56640000D01*
X160020000Y-56640000D01*
X160310839Y-56582148D01*
X160557401Y-56417401D01*
X161054019Y-55920783D01*
X161158946Y-56448285D01*
X161480853Y-56930054D01*
X161962622Y-57251961D01*
X162530907Y-57365000D01*
X162589093Y-57365000D01*
X163157378Y-57251961D01*
X163639147Y-56930054D01*
X163961054Y-56448285D01*
X164074093Y-55880000D01*
X163961054Y-55311715D01*
X163639147Y-54829946D01*
X163597548Y-54802150D01*
X163645317Y-54793162D01*
X163861441Y-54654090D01*
X164006431Y-54441890D01*
X164051629Y-54218691D01*
X178805000Y-54218691D01*
X178805000Y-54959250D01*
X178963750Y-55118000D01*
X180213000Y-55118000D01*
X180213000Y-53868750D01*
X180467000Y-53868750D01*
X180467000Y-55118000D01*
X181716250Y-55118000D01*
X181875000Y-54959250D01*
X181875000Y-54218691D01*
X181778327Y-53985302D01*
X181599699Y-53806673D01*
X181366310Y-53710000D01*
X180625750Y-53710000D01*
X180467000Y-53868750D01*
X180213000Y-53868750D01*
X180054250Y-53710000D01*
X179313690Y-53710000D01*
X179080301Y-53806673D01*
X178901673Y-53985302D01*
X178805000Y-54218691D01*
X164051629Y-54218691D01*
X164057440Y-54190000D01*
X164057440Y-52490000D01*
X164013162Y-52254683D01*
X163874090Y-52038559D01*
X163661890Y-51893569D01*
X163410000Y-51842560D01*
X161710000Y-51842560D01*
X161474683Y-51886838D01*
X161258559Y-52025910D01*
X161113569Y-52238110D01*
X161062560Y-52490000D01*
X161062560Y-53762638D01*
X159705198Y-55120000D01*
X158117954Y-55120000D01*
X157924147Y-54829946D01*
X157882548Y-54802150D01*
X157930317Y-54793162D01*
X158146441Y-54654090D01*
X158291431Y-54441890D01*
X158342440Y-54190000D01*
X158342440Y-52490000D01*
X158298162Y-52254683D01*
X158159090Y-52038559D01*
X157946890Y-51893569D01*
X157695000Y-51842560D01*
X155995000Y-51842560D01*
X155759683Y-51886838D01*
X155543559Y-52025910D01*
X155398569Y-52238110D01*
X155347560Y-52490000D01*
X155347560Y-54190000D01*
X155391838Y-54425317D01*
X155530910Y-54641441D01*
X155743110Y-54786431D01*
X155810541Y-54800086D01*
X155765853Y-54829946D01*
X155443946Y-55311715D01*
X155330907Y-55880000D01*
X152644093Y-55880000D01*
X152531054Y-55311715D01*
X152209147Y-54829946D01*
X152167548Y-54802150D01*
X152215317Y-54793162D01*
X152431441Y-54654090D01*
X152576431Y-54441890D01*
X152627440Y-54190000D01*
X152627440Y-52490000D01*
X152583162Y-52254683D01*
X152444090Y-52038559D01*
X152231890Y-51893569D01*
X151980000Y-51842560D01*
X150280000Y-51842560D01*
X150044683Y-51886838D01*
X149828559Y-52025910D01*
X149683569Y-52238110D01*
X149632560Y-52490000D01*
X149632560Y-52580000D01*
X149225000Y-52580000D01*
X148934161Y-52637852D01*
X148687599Y-52802599D01*
X148052599Y-53437599D01*
X147887852Y-53684161D01*
X147830000Y-53975000D01*
X147830000Y-58740198D01*
X145100198Y-61470000D01*
X143506846Y-61470000D01*
X143462068Y-61361629D01*
X143030643Y-60929449D01*
X142466670Y-60695267D01*
X141856009Y-60694735D01*
X141291629Y-60927932D01*
X140909712Y-61309182D01*
X140530643Y-60929449D01*
X139966670Y-60695267D01*
X139356009Y-60694735D01*
X138791629Y-60927932D01*
X138409712Y-61309182D01*
X138030643Y-60929449D01*
X137466670Y-60695267D01*
X136856009Y-60694735D01*
X136291629Y-60927932D01*
X135859449Y-61359357D01*
X135625267Y-61923330D01*
X135624735Y-62533991D01*
X135380000Y-62533991D01*
X135380000Y-57464802D01*
X138744802Y-54100000D01*
X143917560Y-54100000D01*
X143917560Y-54190000D01*
X143961838Y-54425317D01*
X144100910Y-54641441D01*
X144313110Y-54786431D01*
X144380541Y-54800086D01*
X144335853Y-54829946D01*
X144013946Y-55311715D01*
X143900907Y-55880000D01*
X144013946Y-56448285D01*
X144335853Y-56930054D01*
X144817622Y-57251961D01*
X145385907Y-57365000D01*
X145444093Y-57365000D01*
X146012378Y-57251961D01*
X146494147Y-56930054D01*
X146816054Y-56448285D01*
X146929093Y-55880000D01*
X146816054Y-55311715D01*
X146494147Y-54829946D01*
X146452548Y-54802150D01*
X146500317Y-54793162D01*
X146716441Y-54654090D01*
X146861431Y-54441890D01*
X146912440Y-54190000D01*
X146912440Y-52490000D01*
X146868162Y-52254683D01*
X146729090Y-52038559D01*
X146516890Y-51893569D01*
X146265000Y-51842560D01*
X144565000Y-51842560D01*
X144329683Y-51886838D01*
X144113559Y-52025910D01*
X143968569Y-52238110D01*
X143917560Y-52490000D01*
X143917560Y-52580000D01*
X138430000Y-52580000D01*
X138139161Y-52637852D01*
X137892599Y-52802599D01*
X134082599Y-56612599D01*
X133917852Y-56859161D01*
X133860000Y-57150000D01*
X132790000Y-57150000D01*
X132790000Y-50927000D01*
X177650000Y-50927000D01*
X177650000Y-51287000D01*
X177806692Y-51820743D01*
X178155711Y-52253894D01*
X178643922Y-52520510D01*
X178723317Y-52537029D01*
X178943000Y-52414840D01*
X178943000Y-50927000D01*
X179197000Y-50927000D01*
X179197000Y-52414840D01*
X179416683Y-52537029D01*
X179496078Y-52520510D01*
X179984289Y-52253894D01*
X180333308Y-51820743D01*
X180490000Y-51287000D01*
X180490000Y-50927000D01*
X179197000Y-50927000D01*
X178943000Y-50927000D01*
X177650000Y-50927000D01*
X132790000Y-50927000D01*
X132790000Y-50313000D01*
X177650000Y-50313000D01*
X177650000Y-50673000D01*
X178943000Y-50673000D01*
X178943000Y-49185160D01*
X179197000Y-49185160D01*
X179197000Y-50673000D01*
X180490000Y-50673000D01*
X180490000Y-50313000D01*
X180333308Y-49779257D01*
X180233186Y-49655000D01*
X181447560Y-49655000D01*
X181447560Y-51945000D01*
X181491838Y-52180317D01*
X181630910Y-52396441D01*
X181843110Y-52541431D01*
X182095000Y-52592440D01*
X183665000Y-52592440D01*
X183900317Y-52548162D01*
X184116441Y-52409090D01*
X184261431Y-52196890D01*
X184312440Y-51945000D01*
X184312440Y-49655000D01*
X184268162Y-49419683D01*
X184129090Y-49203559D01*
X183916890Y-49058569D01*
X183665000Y-49007560D01*
X182095000Y-49007560D01*
X181859683Y-49051838D01*
X181643559Y-49190910D01*
X181498569Y-49403110D01*
X181447560Y-49655000D01*
X180233186Y-49655000D01*
X179984289Y-49346106D01*
X179496078Y-49079490D01*
X179416683Y-49062971D01*
X179197000Y-49185160D01*
X178943000Y-49185160D01*
X178723317Y-49062971D01*
X178643922Y-49079490D01*
X178155711Y-49346106D01*
X177806692Y-49779257D01*
X177650000Y-50313000D01*
X132790000Y-50313000D01*
X132790000Y-42962832D01*
X133714811Y-43889259D01*
X135123825Y-44474333D01*
X136649482Y-44475664D01*
X138059515Y-43893050D01*
X139139259Y-42815189D01*
X139724333Y-41406175D01*
X139725281Y-40318893D01*
X141289725Y-40318893D01*
X141530519Y-40901657D01*
X141903471Y-41275261D01*
X141532086Y-41645997D01*
X141290276Y-42228341D01*
X141289725Y-42858893D01*
X141530519Y-43441657D01*
X141903471Y-43815261D01*
X141532086Y-44185997D01*
X141290276Y-44768341D01*
X141289725Y-45398893D01*
X141530519Y-45981657D01*
X141903471Y-46355261D01*
X141532086Y-46725997D01*
X141290276Y-47308341D01*
X141289725Y-47938893D01*
X141530519Y-48521657D01*
X141975997Y-48967914D01*
X142558341Y-49209724D01*
X143188893Y-49210275D01*
X143771657Y-48969481D01*
X144145261Y-48596529D01*
X144515997Y-48967914D01*
X145098341Y-49209724D01*
X145728893Y-49210275D01*
X146311657Y-48969481D01*
X146685261Y-48596529D01*
X147055997Y-48967914D01*
X147638341Y-49209724D01*
X148268893Y-49210275D01*
X148851657Y-48969481D01*
X149225261Y-48596529D01*
X149595997Y-48967914D01*
X150178341Y-49209724D01*
X150808893Y-49210275D01*
X151391657Y-48969481D01*
X151765261Y-48596529D01*
X152135997Y-48967914D01*
X152718341Y-49209724D01*
X153348893Y-49210275D01*
X153931657Y-48969481D01*
X154305261Y-48596529D01*
X154675997Y-48967914D01*
X155258341Y-49209724D01*
X155888893Y-49210275D01*
X156471657Y-48969481D01*
X156845261Y-48596529D01*
X157215997Y-48967914D01*
X157798341Y-49209724D01*
X158428893Y-49210275D01*
X159011657Y-48969481D01*
X159385261Y-48596529D01*
X159755997Y-48967914D01*
X160338341Y-49209724D01*
X160968893Y-49210275D01*
X161551657Y-48969481D01*
X161925261Y-48596529D01*
X162295997Y-48967914D01*
X162878341Y-49209724D01*
X163508893Y-49210275D01*
X164091657Y-48969481D01*
X164465261Y-48596529D01*
X164835997Y-48967914D01*
X165418341Y-49209724D01*
X166048893Y-49210275D01*
X166631657Y-48969481D01*
X166904954Y-48696661D01*
X203412758Y-48696661D01*
X203624990Y-49210303D01*
X204017630Y-49603629D01*
X204530900Y-49816757D01*
X205086661Y-49817242D01*
X205600303Y-49605010D01*
X205993629Y-49212370D01*
X206206757Y-48699100D01*
X206207242Y-48143339D01*
X205995010Y-47629697D01*
X205602370Y-47236371D01*
X205089100Y-47023243D01*
X204533339Y-47022758D01*
X204019697Y-47234990D01*
X203626371Y-47627630D01*
X203413243Y-48140900D01*
X203412758Y-48696661D01*
X166904954Y-48696661D01*
X167077914Y-48524003D01*
X167319724Y-47941659D01*
X167320275Y-47311107D01*
X167079481Y-46728343D01*
X166706529Y-46354739D01*
X166871556Y-46190000D01*
X171907560Y-46190000D01*
X171907560Y-47790000D01*
X171951838Y-48025317D01*
X172090910Y-48241441D01*
X172303110Y-48386431D01*
X172555000Y-48437440D01*
X174155000Y-48437440D01*
X174390317Y-48393162D01*
X174606441Y-48254090D01*
X174751431Y-48041890D01*
X174802440Y-47790000D01*
X174802440Y-46190000D01*
X187147560Y-46190000D01*
X187147560Y-47790000D01*
X187191838Y-48025317D01*
X187330910Y-48241441D01*
X187543110Y-48386431D01*
X187795000Y-48437440D01*
X189395000Y-48437440D01*
X189630317Y-48393162D01*
X189846441Y-48254090D01*
X189991431Y-48041890D01*
X190042440Y-47790000D01*
X190042440Y-46200213D01*
X204009392Y-46200213D01*
X204078857Y-46442397D01*
X204602302Y-46629144D01*
X205157368Y-46601362D01*
X205541143Y-46442397D01*
X205610608Y-46200213D01*
X204810000Y-45399605D01*
X204009392Y-46200213D01*
X190042440Y-46200213D01*
X190042440Y-46190000D01*
X189998162Y-45954683D01*
X189859090Y-45738559D01*
X189646890Y-45593569D01*
X189395000Y-45542560D01*
X187795000Y-45542560D01*
X187559683Y-45586838D01*
X187343559Y-45725910D01*
X187198569Y-45938110D01*
X187147560Y-46190000D01*
X174802440Y-46190000D01*
X174758162Y-45954683D01*
X174619090Y-45738559D01*
X174406890Y-45593569D01*
X174155000Y-45542560D01*
X172555000Y-45542560D01*
X172319683Y-45586838D01*
X172103559Y-45725910D01*
X171958569Y-45938110D01*
X171907560Y-46190000D01*
X166871556Y-46190000D01*
X167077914Y-45984003D01*
X167319724Y-45401659D01*
X167320064Y-45012302D01*
X203400856Y-45012302D01*
X203428638Y-45567368D01*
X203587603Y-45951143D01*
X203829787Y-46020608D01*
X204630395Y-45220000D01*
X204989605Y-45220000D01*
X205790213Y-46020608D01*
X206032397Y-45951143D01*
X206219144Y-45427698D01*
X206191362Y-44872632D01*
X206032397Y-44488857D01*
X205790213Y-44419392D01*
X204989605Y-45220000D01*
X204630395Y-45220000D01*
X203829787Y-44419392D01*
X203587603Y-44488857D01*
X203400856Y-45012302D01*
X167320064Y-45012302D01*
X167320275Y-44771107D01*
X167079481Y-44188343D01*
X166706529Y-43814739D01*
X167077914Y-43444003D01*
X167319724Y-42861659D01*
X167320275Y-42231107D01*
X167079481Y-41648343D01*
X166706529Y-41274739D01*
X167077914Y-40904003D01*
X167319724Y-40321659D01*
X167320250Y-39719041D01*
X171963086Y-39719041D01*
X172202611Y-40225134D01*
X172617577Y-40601041D01*
X173005961Y-40761904D01*
X173228000Y-40639915D01*
X173228000Y-39497000D01*
X173482000Y-39497000D01*
X173482000Y-40639915D01*
X173704039Y-40761904D01*
X174092423Y-40601041D01*
X174485317Y-40245128D01*
X178290000Y-40245128D01*
X178290000Y-41034872D01*
X178398091Y-41578282D01*
X178705908Y-42038964D01*
X179166590Y-42346781D01*
X179710000Y-42454872D01*
X180253410Y-42346781D01*
X180714092Y-42038964D01*
X180975000Y-41648486D01*
X181235908Y-42038964D01*
X181696590Y-42346781D01*
X182240000Y-42454872D01*
X182783410Y-42346781D01*
X183244092Y-42038964D01*
X183551909Y-41578282D01*
X183660000Y-41034872D01*
X183660000Y-40245128D01*
X183551909Y-39701718D01*
X183311479Y-39341887D01*
X187160000Y-39341887D01*
X187160000Y-39398113D01*
X187269233Y-39947264D01*
X187580302Y-40412811D01*
X188045849Y-40723880D01*
X188595000Y-40833113D01*
X189144151Y-40723880D01*
X189609698Y-40412811D01*
X189920767Y-39947264D01*
X190030000Y-39398113D01*
X190030000Y-39341887D01*
X189920767Y-38792736D01*
X189609698Y-38327189D01*
X189144151Y-38016120D01*
X188595000Y-37906887D01*
X188045849Y-38016120D01*
X187580302Y-38327189D01*
X187269233Y-38792736D01*
X187160000Y-39341887D01*
X183311479Y-39341887D01*
X183244092Y-39241036D01*
X182783410Y-38933219D01*
X182240000Y-38825128D01*
X181696590Y-38933219D01*
X181235908Y-39241036D01*
X180975000Y-39631514D01*
X180714092Y-39241036D01*
X180253410Y-38933219D01*
X179710000Y-38825128D01*
X179166590Y-38933219D01*
X178705908Y-39241036D01*
X178398091Y-39701718D01*
X178290000Y-40245128D01*
X174485317Y-40245128D01*
X174507389Y-40225134D01*
X174746914Y-39719041D01*
X174625629Y-39497000D01*
X173482000Y-39497000D01*
X173228000Y-39497000D01*
X172084371Y-39497000D01*
X171963086Y-39719041D01*
X167320250Y-39719041D01*
X167320275Y-39691107D01*
X167079481Y-39108343D01*
X166992250Y-39020959D01*
X171963086Y-39020959D01*
X172084371Y-39243000D01*
X173228000Y-39243000D01*
X173228000Y-38100085D01*
X173482000Y-38100085D01*
X173482000Y-39243000D01*
X174625629Y-39243000D01*
X174746914Y-39020959D01*
X174507389Y-38514866D01*
X174092423Y-38138959D01*
X173704039Y-37978096D01*
X173482000Y-38100085D01*
X173228000Y-38100085D01*
X173005961Y-37978096D01*
X172617577Y-38138959D01*
X172202611Y-38514866D01*
X171963086Y-39020959D01*
X166992250Y-39020959D01*
X166634003Y-38662086D01*
X166051659Y-38420276D01*
X165421107Y-38419725D01*
X164838343Y-38660519D01*
X164464739Y-39033471D01*
X164094003Y-38662086D01*
X163511659Y-38420276D01*
X162881107Y-38419725D01*
X162298343Y-38660519D01*
X161924739Y-39033471D01*
X161554003Y-38662086D01*
X160971659Y-38420276D01*
X160341107Y-38419725D01*
X159758343Y-38660519D01*
X159384739Y-39033471D01*
X159014003Y-38662086D01*
X158431659Y-38420276D01*
X157801107Y-38419725D01*
X157218343Y-38660519D01*
X156844739Y-39033471D01*
X156474003Y-38662086D01*
X155891659Y-38420276D01*
X155261107Y-38419725D01*
X154678343Y-38660519D01*
X154304739Y-39033471D01*
X153934003Y-38662086D01*
X153351659Y-38420276D01*
X152721107Y-38419725D01*
X152138343Y-38660519D01*
X151764739Y-39033471D01*
X151394003Y-38662086D01*
X150811659Y-38420276D01*
X150181107Y-38419725D01*
X149598343Y-38660519D01*
X149224739Y-39033471D01*
X148854003Y-38662086D01*
X148271659Y-38420276D01*
X147641107Y-38419725D01*
X147058343Y-38660519D01*
X146684739Y-39033471D01*
X146314003Y-38662086D01*
X145731659Y-38420276D01*
X145101107Y-38419725D01*
X144518343Y-38660519D01*
X144144739Y-39033471D01*
X143774003Y-38662086D01*
X143191659Y-38420276D01*
X142561107Y-38419725D01*
X141978343Y-38660519D01*
X141532086Y-39105997D01*
X141290276Y-39688341D01*
X141289725Y-40318893D01*
X139725281Y-40318893D01*
X139725664Y-39880518D01*
X139143050Y-38470485D01*
X138214188Y-37540000D01*
X197067168Y-37540000D01*
X196140741Y-38464811D01*
M02*
