G04 #@! TF.FileFunction,Legend,Top*
%FSLAX46Y46*%
G04 Gerber Fmt 4.6, Leading zero omitted, Abs format (unit mm)*
G04 Created by KiCad (PCBNEW 4.0.7) date Monday 10 September 2018 20:38:50*
%MOMM*%
%LPD*%
G01*
G04 APERTURE LIST*
%ADD10C,0.100000*%
%ADD11C,0.200000*%
%ADD12C,0.300000*%
%ADD13C,0.120000*%
%ADD14C,0.150000*%
G04 APERTURE END LIST*
D10*
D11*
X170154762Y-59070952D02*
X170202381Y-59166190D01*
X170202381Y-59356667D01*
X170154762Y-59451905D01*
X170059524Y-59499524D01*
X169678571Y-59499524D01*
X169583333Y-59451905D01*
X169535714Y-59356667D01*
X169535714Y-59166190D01*
X169583333Y-59070952D01*
X169678571Y-59023333D01*
X169773810Y-59023333D01*
X169869048Y-59499524D01*
X170202381Y-58451905D02*
X170154762Y-58547143D01*
X170059524Y-58594762D01*
X169202381Y-58594762D01*
X170154762Y-57689999D02*
X170202381Y-57785237D01*
X170202381Y-57975714D01*
X170154762Y-58070952D01*
X170059524Y-58118571D01*
X169678571Y-58118571D01*
X169583333Y-58070952D01*
X169535714Y-57975714D01*
X169535714Y-57785237D01*
X169583333Y-57689999D01*
X169678571Y-57642380D01*
X169773810Y-57642380D01*
X169869048Y-58118571D01*
X170154762Y-56785237D02*
X170202381Y-56880475D01*
X170202381Y-57070952D01*
X170154762Y-57166190D01*
X170107143Y-57213809D01*
X170011905Y-57261428D01*
X169726190Y-57261428D01*
X169630952Y-57213809D01*
X169583333Y-57166190D01*
X169535714Y-57070952D01*
X169535714Y-56880475D01*
X169583333Y-56785237D01*
X169535714Y-56499523D02*
X169535714Y-56118571D01*
X169202381Y-56356666D02*
X170059524Y-56356666D01*
X170154762Y-56309047D01*
X170202381Y-56213809D01*
X170202381Y-56118571D01*
X170202381Y-55785237D02*
X169535714Y-55785237D01*
X169726190Y-55785237D02*
X169630952Y-55737618D01*
X169583333Y-55689999D01*
X169535714Y-55594761D01*
X169535714Y-55499522D01*
X170202381Y-55023332D02*
X170154762Y-55118570D01*
X170107143Y-55166189D01*
X170011905Y-55213808D01*
X169726190Y-55213808D01*
X169630952Y-55166189D01*
X169583333Y-55118570D01*
X169535714Y-55023332D01*
X169535714Y-54880474D01*
X169583333Y-54785236D01*
X169630952Y-54737617D01*
X169726190Y-54689998D01*
X170011905Y-54689998D01*
X170107143Y-54737617D01*
X170154762Y-54785236D01*
X170202381Y-54880474D01*
X170202381Y-55023332D01*
X169535714Y-54261427D02*
X170202381Y-54261427D01*
X169630952Y-54261427D02*
X169583333Y-54213808D01*
X169535714Y-54118570D01*
X169535714Y-53975712D01*
X169583333Y-53880474D01*
X169678571Y-53832855D01*
X170202381Y-53832855D01*
X170202381Y-53356665D02*
X169535714Y-53356665D01*
X169202381Y-53356665D02*
X169250000Y-53404284D01*
X169297619Y-53356665D01*
X169250000Y-53309046D01*
X169202381Y-53356665D01*
X169297619Y-53356665D01*
X170154762Y-52451903D02*
X170202381Y-52547141D01*
X170202381Y-52737618D01*
X170154762Y-52832856D01*
X170107143Y-52880475D01*
X170011905Y-52928094D01*
X169726190Y-52928094D01*
X169630952Y-52880475D01*
X169583333Y-52832856D01*
X169535714Y-52737618D01*
X169535714Y-52547141D01*
X169583333Y-52451903D01*
X171854762Y-59499524D02*
X171902381Y-59404286D01*
X171902381Y-59213810D01*
X171854762Y-59118571D01*
X171759524Y-59070952D01*
X171711905Y-59070952D01*
X171616667Y-59118571D01*
X171569048Y-59213810D01*
X171569048Y-59356667D01*
X171521429Y-59451905D01*
X171426190Y-59499524D01*
X171378571Y-59499524D01*
X171283333Y-59451905D01*
X171235714Y-59356667D01*
X171235714Y-59213810D01*
X171283333Y-59118571D01*
X171902381Y-58499524D02*
X171854762Y-58594762D01*
X171807143Y-58642381D01*
X171711905Y-58690000D01*
X171426190Y-58690000D01*
X171330952Y-58642381D01*
X171283333Y-58594762D01*
X171235714Y-58499524D01*
X171235714Y-58356666D01*
X171283333Y-58261428D01*
X171330952Y-58213809D01*
X171426190Y-58166190D01*
X171711905Y-58166190D01*
X171807143Y-58213809D01*
X171854762Y-58261428D01*
X171902381Y-58356666D01*
X171902381Y-58499524D01*
X171235714Y-57309047D02*
X171902381Y-57309047D01*
X171235714Y-57737619D02*
X171759524Y-57737619D01*
X171854762Y-57690000D01*
X171902381Y-57594762D01*
X171902381Y-57451904D01*
X171854762Y-57356666D01*
X171807143Y-57309047D01*
X171235714Y-56832857D02*
X171902381Y-56832857D01*
X171330952Y-56832857D02*
X171283333Y-56785238D01*
X171235714Y-56690000D01*
X171235714Y-56547142D01*
X171283333Y-56451904D01*
X171378571Y-56404285D01*
X171902381Y-56404285D01*
X171902381Y-55499523D02*
X170902381Y-55499523D01*
X171854762Y-55499523D02*
X171902381Y-55594761D01*
X171902381Y-55785238D01*
X171854762Y-55880476D01*
X171807143Y-55928095D01*
X171711905Y-55975714D01*
X171426190Y-55975714D01*
X171330952Y-55928095D01*
X171283333Y-55880476D01*
X171235714Y-55785238D01*
X171235714Y-55594761D01*
X171283333Y-55499523D01*
X173602381Y-59451905D02*
X172935714Y-59451905D01*
X173030952Y-59451905D02*
X172983333Y-59404286D01*
X172935714Y-59309048D01*
X172935714Y-59166190D01*
X172983333Y-59070952D01*
X173078571Y-59023333D01*
X173602381Y-59023333D01*
X173078571Y-59023333D02*
X172983333Y-58975714D01*
X172935714Y-58880476D01*
X172935714Y-58737619D01*
X172983333Y-58642381D01*
X173078571Y-58594762D01*
X173602381Y-58594762D01*
X173602381Y-57690000D02*
X173078571Y-57690000D01*
X172983333Y-57737619D01*
X172935714Y-57832857D01*
X172935714Y-58023334D01*
X172983333Y-58118572D01*
X173554762Y-57690000D02*
X173602381Y-57785238D01*
X173602381Y-58023334D01*
X173554762Y-58118572D01*
X173459524Y-58166191D01*
X173364286Y-58166191D01*
X173269048Y-58118572D01*
X173221429Y-58023334D01*
X173221429Y-57785238D01*
X173173810Y-57690000D01*
X173554762Y-56785238D02*
X173602381Y-56880476D01*
X173602381Y-57070953D01*
X173554762Y-57166191D01*
X173507143Y-57213810D01*
X173411905Y-57261429D01*
X173126190Y-57261429D01*
X173030952Y-57213810D01*
X172983333Y-57166191D01*
X172935714Y-57070953D01*
X172935714Y-56880476D01*
X172983333Y-56785238D01*
X173602381Y-56356667D02*
X172602381Y-56356667D01*
X173602381Y-55928095D02*
X173078571Y-55928095D01*
X172983333Y-55975714D01*
X172935714Y-56070952D01*
X172935714Y-56213810D01*
X172983333Y-56309048D01*
X173030952Y-56356667D01*
X173602381Y-55451905D02*
X172935714Y-55451905D01*
X172602381Y-55451905D02*
X172650000Y-55499524D01*
X172697619Y-55451905D01*
X172650000Y-55404286D01*
X172602381Y-55451905D01*
X172697619Y-55451905D01*
X172935714Y-54975715D02*
X173602381Y-54975715D01*
X173030952Y-54975715D02*
X172983333Y-54928096D01*
X172935714Y-54832858D01*
X172935714Y-54690000D01*
X172983333Y-54594762D01*
X173078571Y-54547143D01*
X173602381Y-54547143D01*
X173554762Y-53690000D02*
X173602381Y-53785238D01*
X173602381Y-53975715D01*
X173554762Y-54070953D01*
X173459524Y-54118572D01*
X173078571Y-54118572D01*
X172983333Y-54070953D01*
X172935714Y-53975715D01*
X172935714Y-53785238D01*
X172983333Y-53690000D01*
X173078571Y-53642381D01*
X173173810Y-53642381D01*
X173269048Y-54118572D01*
X173554762Y-53261429D02*
X173602381Y-53166191D01*
X173602381Y-52975715D01*
X173554762Y-52880476D01*
X173459524Y-52832857D01*
X173411905Y-52832857D01*
X173316667Y-52880476D01*
X173269048Y-52975715D01*
X173269048Y-53118572D01*
X173221429Y-53213810D01*
X173126190Y-53261429D01*
X173078571Y-53261429D01*
X172983333Y-53213810D01*
X172935714Y-53118572D01*
X172935714Y-52975715D01*
X172983333Y-52880476D01*
D12*
X135933571Y-59959286D02*
X134933571Y-59959286D01*
X135076429Y-59959286D02*
X135005000Y-59887858D01*
X134933571Y-59745000D01*
X134933571Y-59530715D01*
X135005000Y-59387858D01*
X135147857Y-59316429D01*
X135933571Y-59316429D01*
X135147857Y-59316429D02*
X135005000Y-59245000D01*
X134933571Y-59102143D01*
X134933571Y-58887858D01*
X135005000Y-58745000D01*
X135147857Y-58673572D01*
X135933571Y-58673572D01*
X135933571Y-57959286D02*
X134933571Y-57959286D01*
X134433571Y-57959286D02*
X134505000Y-58030715D01*
X134576429Y-57959286D01*
X134505000Y-57887858D01*
X134433571Y-57959286D01*
X134576429Y-57959286D01*
X134933571Y-57245000D02*
X135933571Y-57245000D01*
X135076429Y-57245000D02*
X135005000Y-57173572D01*
X134933571Y-57030714D01*
X134933571Y-56816429D01*
X135005000Y-56673572D01*
X135147857Y-56602143D01*
X135933571Y-56602143D01*
X135933571Y-55887857D02*
X134933571Y-55887857D01*
X134433571Y-55887857D02*
X134505000Y-55959286D01*
X134576429Y-55887857D01*
X134505000Y-55816429D01*
X134433571Y-55887857D01*
X134576429Y-55887857D01*
X135362143Y-55173571D02*
X135362143Y-54030714D01*
X135933571Y-53102142D02*
X135862143Y-53245000D01*
X135719286Y-53316428D01*
X134433571Y-53316428D01*
X134933571Y-52530714D02*
X136433571Y-52530714D01*
X135005000Y-52530714D02*
X134933571Y-52387857D01*
X134933571Y-52102143D01*
X135005000Y-51959286D01*
X135076429Y-51887857D01*
X135219286Y-51816428D01*
X135647857Y-51816428D01*
X135790714Y-51887857D01*
X135862143Y-51959286D01*
X135933571Y-52102143D01*
X135933571Y-52387857D01*
X135862143Y-52530714D01*
X134933571Y-50530714D02*
X136147857Y-50530714D01*
X136290714Y-50602143D01*
X136362143Y-50673571D01*
X136433571Y-50816428D01*
X136433571Y-51030714D01*
X136362143Y-51173571D01*
X135862143Y-50530714D02*
X135933571Y-50673571D01*
X135933571Y-50959285D01*
X135862143Y-51102143D01*
X135790714Y-51173571D01*
X135647857Y-51245000D01*
X135219286Y-51245000D01*
X135076429Y-51173571D01*
X135005000Y-51102143D01*
X134933571Y-50959285D01*
X134933571Y-50673571D01*
X135005000Y-50530714D01*
D11*
X203017381Y-46434285D02*
X202017381Y-46434285D01*
X202969762Y-46434285D02*
X203017381Y-46529523D01*
X203017381Y-46720000D01*
X202969762Y-46815238D01*
X202922143Y-46862857D01*
X202826905Y-46910476D01*
X202541190Y-46910476D01*
X202445952Y-46862857D01*
X202398333Y-46815238D01*
X202350714Y-46720000D01*
X202350714Y-46529523D01*
X202398333Y-46434285D01*
X203017381Y-45958095D02*
X202350714Y-45958095D01*
X202017381Y-45958095D02*
X202065000Y-46005714D01*
X202112619Y-45958095D01*
X202065000Y-45910476D01*
X202017381Y-45958095D01*
X202112619Y-45958095D01*
X202969762Y-45529524D02*
X203017381Y-45434286D01*
X203017381Y-45243810D01*
X202969762Y-45148571D01*
X202874524Y-45100952D01*
X202826905Y-45100952D01*
X202731667Y-45148571D01*
X202684048Y-45243810D01*
X202684048Y-45386667D01*
X202636429Y-45481905D01*
X202541190Y-45529524D01*
X202493571Y-45529524D01*
X202398333Y-45481905D01*
X202350714Y-45386667D01*
X202350714Y-45243810D01*
X202398333Y-45148571D01*
X202350714Y-44815238D02*
X202350714Y-44434286D01*
X202017381Y-44672381D02*
X202874524Y-44672381D01*
X202969762Y-44624762D01*
X203017381Y-44529524D01*
X203017381Y-44434286D01*
X203017381Y-61737382D02*
X202969762Y-61832620D01*
X202874524Y-61880239D01*
X202017381Y-61880239D01*
X203017381Y-61213572D02*
X202969762Y-61308810D01*
X202922143Y-61356429D01*
X202826905Y-61404048D01*
X202541190Y-61404048D01*
X202445952Y-61356429D01*
X202398333Y-61308810D01*
X202350714Y-61213572D01*
X202350714Y-61070714D01*
X202398333Y-60975476D01*
X202445952Y-60927857D01*
X202541190Y-60880238D01*
X202826905Y-60880238D01*
X202922143Y-60927857D01*
X202969762Y-60975476D01*
X203017381Y-61070714D01*
X203017381Y-61213572D01*
X202350714Y-60546905D02*
X203017381Y-60356429D01*
X202541190Y-60165952D01*
X203017381Y-59975476D01*
X202350714Y-59785000D01*
X201969762Y-57927857D02*
X203255476Y-58785000D01*
X203017381Y-56832619D02*
X202017381Y-56832619D01*
X202398333Y-56832619D02*
X202350714Y-56737381D01*
X202350714Y-56546904D01*
X202398333Y-56451666D01*
X202445952Y-56404047D01*
X202541190Y-56356428D01*
X202826905Y-56356428D01*
X202922143Y-56404047D01*
X202969762Y-56451666D01*
X203017381Y-56546904D01*
X203017381Y-56737381D01*
X202969762Y-56832619D01*
X203017381Y-55499285D02*
X202493571Y-55499285D01*
X202398333Y-55546904D01*
X202350714Y-55642142D01*
X202350714Y-55832619D01*
X202398333Y-55927857D01*
X202969762Y-55499285D02*
X203017381Y-55594523D01*
X203017381Y-55832619D01*
X202969762Y-55927857D01*
X202874524Y-55975476D01*
X202779286Y-55975476D01*
X202684048Y-55927857D01*
X202636429Y-55832619D01*
X202636429Y-55594523D01*
X202588810Y-55499285D01*
X202350714Y-55023095D02*
X203017381Y-55023095D01*
X202445952Y-55023095D02*
X202398333Y-54975476D01*
X202350714Y-54880238D01*
X202350714Y-54737380D01*
X202398333Y-54642142D01*
X202493571Y-54594523D01*
X203017381Y-54594523D01*
X203017381Y-53689761D02*
X202017381Y-53689761D01*
X202969762Y-53689761D02*
X203017381Y-53784999D01*
X203017381Y-53975476D01*
X202969762Y-54070714D01*
X202922143Y-54118333D01*
X202826905Y-54165952D01*
X202541190Y-54165952D01*
X202445952Y-54118333D01*
X202398333Y-54070714D01*
X202350714Y-53975476D01*
X202350714Y-53784999D01*
X202398333Y-53689761D01*
X203017381Y-74453334D02*
X202969762Y-74548572D01*
X202874524Y-74596191D01*
X202017381Y-74596191D01*
X202350714Y-74072381D02*
X203350714Y-74072381D01*
X202398333Y-74072381D02*
X202350714Y-73977143D01*
X202350714Y-73786666D01*
X202398333Y-73691428D01*
X202445952Y-73643809D01*
X202541190Y-73596190D01*
X202826905Y-73596190D01*
X202922143Y-73643809D01*
X202969762Y-73691428D01*
X203017381Y-73786666D01*
X203017381Y-73977143D01*
X202969762Y-74072381D01*
X202350714Y-72739047D02*
X203160238Y-72739047D01*
X203255476Y-72786666D01*
X203303095Y-72834285D01*
X203350714Y-72929524D01*
X203350714Y-73072381D01*
X203303095Y-73167619D01*
X202969762Y-72739047D02*
X203017381Y-72834285D01*
X203017381Y-73024762D01*
X202969762Y-73120000D01*
X202922143Y-73167619D01*
X202826905Y-73215238D01*
X202541190Y-73215238D01*
X202445952Y-73167619D01*
X202398333Y-73120000D01*
X202350714Y-73024762D01*
X202350714Y-72834285D01*
X202398333Y-72739047D01*
X201969762Y-70786666D02*
X203255476Y-71643809D01*
X202350714Y-69786666D02*
X203017381Y-69548571D01*
X202350714Y-69310475D01*
X202969762Y-68500951D02*
X203017381Y-68596189D01*
X203017381Y-68786666D01*
X202969762Y-68881904D01*
X202922143Y-68929523D01*
X202826905Y-68977142D01*
X202541190Y-68977142D01*
X202445952Y-68929523D01*
X202398333Y-68881904D01*
X202350714Y-68786666D01*
X202350714Y-68596189D01*
X202398333Y-68500951D01*
X203017381Y-67643808D02*
X202493571Y-67643808D01*
X202398333Y-67691427D01*
X202350714Y-67786665D01*
X202350714Y-67977142D01*
X202398333Y-68072380D01*
X202969762Y-67643808D02*
X203017381Y-67739046D01*
X203017381Y-67977142D01*
X202969762Y-68072380D01*
X202874524Y-68119999D01*
X202779286Y-68119999D01*
X202684048Y-68072380D01*
X202636429Y-67977142D01*
X202636429Y-67739046D01*
X202588810Y-67643808D01*
X133754762Y-77088810D02*
X133802381Y-77184048D01*
X133802381Y-77374525D01*
X133754762Y-77469763D01*
X133707143Y-77517382D01*
X133611905Y-77565001D01*
X133326190Y-77565001D01*
X133230952Y-77517382D01*
X133183333Y-77469763D01*
X133135714Y-77374525D01*
X133135714Y-77184048D01*
X133183333Y-77088810D01*
X133135714Y-76231667D02*
X133802381Y-76231667D01*
X133135714Y-76660239D02*
X133659524Y-76660239D01*
X133754762Y-76612620D01*
X133802381Y-76517382D01*
X133802381Y-76374524D01*
X133754762Y-76279286D01*
X133707143Y-76231667D01*
X133135714Y-75898334D02*
X133135714Y-75517382D01*
X132802381Y-75755477D02*
X133659524Y-75755477D01*
X133754762Y-75707858D01*
X133802381Y-75612620D01*
X133802381Y-75517382D01*
X133802381Y-75041191D02*
X133754762Y-75136429D01*
X133707143Y-75184048D01*
X133611905Y-75231667D01*
X133326190Y-75231667D01*
X133230952Y-75184048D01*
X133183333Y-75136429D01*
X133135714Y-75041191D01*
X133135714Y-74898333D01*
X133183333Y-74803095D01*
X133230952Y-74755476D01*
X133326190Y-74707857D01*
X133611905Y-74707857D01*
X133707143Y-74755476D01*
X133754762Y-74803095D01*
X133802381Y-74898333D01*
X133802381Y-75041191D01*
X133135714Y-74422143D02*
X133135714Y-74041191D01*
X133802381Y-74279286D02*
X132945238Y-74279286D01*
X132850000Y-74231667D01*
X132802381Y-74136429D01*
X132802381Y-74041191D01*
X133135714Y-73850714D02*
X133135714Y-73469762D01*
X133802381Y-73707857D02*
X132945238Y-73707857D01*
X132850000Y-73660238D01*
X132802381Y-73565000D01*
X132802381Y-73469762D01*
X192222381Y-77167857D02*
X191698571Y-77167857D01*
X191603333Y-77215476D01*
X191555714Y-77310714D01*
X191555714Y-77501191D01*
X191603333Y-77596429D01*
X192174762Y-77167857D02*
X192222381Y-77263095D01*
X192222381Y-77501191D01*
X192174762Y-77596429D01*
X192079524Y-77644048D01*
X191984286Y-77644048D01*
X191889048Y-77596429D01*
X191841429Y-77501191D01*
X191841429Y-77263095D01*
X191793810Y-77167857D01*
X191555714Y-76263095D02*
X192222381Y-76263095D01*
X191555714Y-76691667D02*
X192079524Y-76691667D01*
X192174762Y-76644048D01*
X192222381Y-76548810D01*
X192222381Y-76405952D01*
X192174762Y-76310714D01*
X192127143Y-76263095D01*
X192222381Y-75358333D02*
X191222381Y-75358333D01*
X192174762Y-75358333D02*
X192222381Y-75453571D01*
X192222381Y-75644048D01*
X192174762Y-75739286D01*
X192127143Y-75786905D01*
X192031905Y-75834524D01*
X191746190Y-75834524D01*
X191650952Y-75786905D01*
X191603333Y-75739286D01*
X191555714Y-75644048D01*
X191555714Y-75453571D01*
X191603333Y-75358333D01*
X192222381Y-74882143D02*
X191555714Y-74882143D01*
X191222381Y-74882143D02*
X191270000Y-74929762D01*
X191317619Y-74882143D01*
X191270000Y-74834524D01*
X191222381Y-74882143D01*
X191317619Y-74882143D01*
X192222381Y-74263096D02*
X192174762Y-74358334D01*
X192127143Y-74405953D01*
X192031905Y-74453572D01*
X191746190Y-74453572D01*
X191650952Y-74405953D01*
X191603333Y-74358334D01*
X191555714Y-74263096D01*
X191555714Y-74120238D01*
X191603333Y-74025000D01*
X191650952Y-73977381D01*
X191746190Y-73929762D01*
X192031905Y-73929762D01*
X192127143Y-73977381D01*
X192174762Y-74025000D01*
X192222381Y-74120238D01*
X192222381Y-74263096D01*
X192222381Y-72596429D02*
X192174762Y-72691667D01*
X192127143Y-72739286D01*
X192031905Y-72786905D01*
X191746190Y-72786905D01*
X191650952Y-72739286D01*
X191603333Y-72691667D01*
X191555714Y-72596429D01*
X191555714Y-72453571D01*
X191603333Y-72358333D01*
X191650952Y-72310714D01*
X191746190Y-72263095D01*
X192031905Y-72263095D01*
X192127143Y-72310714D01*
X192174762Y-72358333D01*
X192222381Y-72453571D01*
X192222381Y-72596429D01*
X191555714Y-71405952D02*
X192222381Y-71405952D01*
X191555714Y-71834524D02*
X192079524Y-71834524D01*
X192174762Y-71786905D01*
X192222381Y-71691667D01*
X192222381Y-71548809D01*
X192174762Y-71453571D01*
X192127143Y-71405952D01*
X191555714Y-71072619D02*
X191555714Y-70691667D01*
X191222381Y-70929762D02*
X192079524Y-70929762D01*
X192174762Y-70882143D01*
X192222381Y-70786905D01*
X192222381Y-70691667D01*
X191555714Y-70358333D02*
X192555714Y-70358333D01*
X191603333Y-70358333D02*
X191555714Y-70263095D01*
X191555714Y-70072618D01*
X191603333Y-69977380D01*
X191650952Y-69929761D01*
X191746190Y-69882142D01*
X192031905Y-69882142D01*
X192127143Y-69929761D01*
X192174762Y-69977380D01*
X192222381Y-70072618D01*
X192222381Y-70263095D01*
X192174762Y-70358333D01*
X191555714Y-69024999D02*
X192222381Y-69024999D01*
X191555714Y-69453571D02*
X192079524Y-69453571D01*
X192174762Y-69405952D01*
X192222381Y-69310714D01*
X192222381Y-69167856D01*
X192174762Y-69072618D01*
X192127143Y-69024999D01*
X191555714Y-68691666D02*
X191555714Y-68310714D01*
X191222381Y-68548809D02*
X192079524Y-68548809D01*
X192174762Y-68501190D01*
X192222381Y-68405952D01*
X192222381Y-68310714D01*
X169362381Y-77302857D02*
X168838571Y-77302857D01*
X168743333Y-77350476D01*
X168695714Y-77445714D01*
X168695714Y-77636191D01*
X168743333Y-77731429D01*
X169314762Y-77302857D02*
X169362381Y-77398095D01*
X169362381Y-77636191D01*
X169314762Y-77731429D01*
X169219524Y-77779048D01*
X169124286Y-77779048D01*
X169029048Y-77731429D01*
X168981429Y-77636191D01*
X168981429Y-77398095D01*
X168933810Y-77302857D01*
X168695714Y-76398095D02*
X169362381Y-76398095D01*
X168695714Y-76826667D02*
X169219524Y-76826667D01*
X169314762Y-76779048D01*
X169362381Y-76683810D01*
X169362381Y-76540952D01*
X169314762Y-76445714D01*
X169267143Y-76398095D01*
X169362381Y-75493333D02*
X168362381Y-75493333D01*
X169314762Y-75493333D02*
X169362381Y-75588571D01*
X169362381Y-75779048D01*
X169314762Y-75874286D01*
X169267143Y-75921905D01*
X169171905Y-75969524D01*
X168886190Y-75969524D01*
X168790952Y-75921905D01*
X168743333Y-75874286D01*
X168695714Y-75779048D01*
X168695714Y-75588571D01*
X168743333Y-75493333D01*
X169362381Y-75017143D02*
X168695714Y-75017143D01*
X168362381Y-75017143D02*
X168410000Y-75064762D01*
X168457619Y-75017143D01*
X168410000Y-74969524D01*
X168362381Y-75017143D01*
X168457619Y-75017143D01*
X169362381Y-74398096D02*
X169314762Y-74493334D01*
X169267143Y-74540953D01*
X169171905Y-74588572D01*
X168886190Y-74588572D01*
X168790952Y-74540953D01*
X168743333Y-74493334D01*
X168695714Y-74398096D01*
X168695714Y-74255238D01*
X168743333Y-74160000D01*
X168790952Y-74112381D01*
X168886190Y-74064762D01*
X169171905Y-74064762D01*
X169267143Y-74112381D01*
X169314762Y-74160000D01*
X169362381Y-74255238D01*
X169362381Y-74398096D01*
X169362381Y-72874286D02*
X168695714Y-72874286D01*
X168362381Y-72874286D02*
X168410000Y-72921905D01*
X168457619Y-72874286D01*
X168410000Y-72826667D01*
X168362381Y-72874286D01*
X168457619Y-72874286D01*
X168695714Y-72398096D02*
X169362381Y-72398096D01*
X168790952Y-72398096D02*
X168743333Y-72350477D01*
X168695714Y-72255239D01*
X168695714Y-72112381D01*
X168743333Y-72017143D01*
X168838571Y-71969524D01*
X169362381Y-71969524D01*
X168695714Y-71493334D02*
X169695714Y-71493334D01*
X168743333Y-71493334D02*
X168695714Y-71398096D01*
X168695714Y-71207619D01*
X168743333Y-71112381D01*
X168790952Y-71064762D01*
X168886190Y-71017143D01*
X169171905Y-71017143D01*
X169267143Y-71064762D01*
X169314762Y-71112381D01*
X169362381Y-71207619D01*
X169362381Y-71398096D01*
X169314762Y-71493334D01*
X168695714Y-70160000D02*
X169362381Y-70160000D01*
X168695714Y-70588572D02*
X169219524Y-70588572D01*
X169314762Y-70540953D01*
X169362381Y-70445715D01*
X169362381Y-70302857D01*
X169314762Y-70207619D01*
X169267143Y-70160000D01*
X168695714Y-69826667D02*
X168695714Y-69445715D01*
X168362381Y-69683810D02*
X169219524Y-69683810D01*
X169314762Y-69636191D01*
X169362381Y-69540953D01*
X169362381Y-69445715D01*
X146454762Y-77334762D02*
X146502381Y-77430000D01*
X146502381Y-77620477D01*
X146454762Y-77715715D01*
X146407143Y-77763334D01*
X146311905Y-77810953D01*
X146026190Y-77810953D01*
X145930952Y-77763334D01*
X145883333Y-77715715D01*
X145835714Y-77620477D01*
X145835714Y-77430000D01*
X145883333Y-77334762D01*
X145835714Y-77001429D02*
X146502381Y-76763334D01*
X145835714Y-76525238D01*
X146502381Y-75382381D02*
X145835714Y-75382381D01*
X145502381Y-75382381D02*
X145550000Y-75430000D01*
X145597619Y-75382381D01*
X145550000Y-75334762D01*
X145502381Y-75382381D01*
X145597619Y-75382381D01*
X145835714Y-74906191D02*
X146502381Y-74906191D01*
X145930952Y-74906191D02*
X145883333Y-74858572D01*
X145835714Y-74763334D01*
X145835714Y-74620476D01*
X145883333Y-74525238D01*
X145978571Y-74477619D01*
X146502381Y-74477619D01*
X145835714Y-74001429D02*
X146835714Y-74001429D01*
X145883333Y-74001429D02*
X145835714Y-73906191D01*
X145835714Y-73715714D01*
X145883333Y-73620476D01*
X145930952Y-73572857D01*
X146026190Y-73525238D01*
X146311905Y-73525238D01*
X146407143Y-73572857D01*
X146454762Y-73620476D01*
X146502381Y-73715714D01*
X146502381Y-73906191D01*
X146454762Y-74001429D01*
X145835714Y-72668095D02*
X146502381Y-72668095D01*
X145835714Y-73096667D02*
X146359524Y-73096667D01*
X146454762Y-73049048D01*
X146502381Y-72953810D01*
X146502381Y-72810952D01*
X146454762Y-72715714D01*
X146407143Y-72668095D01*
X145835714Y-72334762D02*
X145835714Y-71953810D01*
X145502381Y-72191905D02*
X146359524Y-72191905D01*
X146454762Y-72144286D01*
X146502381Y-72049048D01*
X146502381Y-71953810D01*
X161750476Y-58872381D02*
X161655238Y-58824762D01*
X161607619Y-58777143D01*
X161560000Y-58681905D01*
X161560000Y-58396190D01*
X161607619Y-58300952D01*
X161655238Y-58253333D01*
X161750476Y-58205714D01*
X161893334Y-58205714D01*
X161988572Y-58253333D01*
X162036191Y-58300952D01*
X162083810Y-58396190D01*
X162083810Y-58681905D01*
X162036191Y-58777143D01*
X161988572Y-58824762D01*
X161893334Y-58872381D01*
X161750476Y-58872381D01*
X162940953Y-58205714D02*
X162940953Y-58872381D01*
X162512381Y-58205714D02*
X162512381Y-58729524D01*
X162560000Y-58824762D01*
X162655238Y-58872381D01*
X162798096Y-58872381D01*
X162893334Y-58824762D01*
X162940953Y-58777143D01*
X163274286Y-58205714D02*
X163655238Y-58205714D01*
X163417143Y-57872381D02*
X163417143Y-58729524D01*
X163464762Y-58824762D01*
X163560000Y-58872381D01*
X163655238Y-58872381D01*
X155725953Y-58872381D02*
X155725953Y-58205714D01*
X155725953Y-58300952D02*
X155773572Y-58253333D01*
X155868810Y-58205714D01*
X156011668Y-58205714D01*
X156106906Y-58253333D01*
X156154525Y-58348571D01*
X156154525Y-58872381D01*
X156154525Y-58348571D02*
X156202144Y-58253333D01*
X156297382Y-58205714D01*
X156440239Y-58205714D01*
X156535477Y-58253333D01*
X156583096Y-58348571D01*
X156583096Y-58872381D01*
X157059286Y-58872381D02*
X157059286Y-58205714D01*
X157059286Y-57872381D02*
X157011667Y-57920000D01*
X157059286Y-57967619D01*
X157106905Y-57920000D01*
X157059286Y-57872381D01*
X157059286Y-57967619D01*
X157964048Y-58872381D02*
X157964048Y-57872381D01*
X157964048Y-58824762D02*
X157868810Y-58872381D01*
X157678333Y-58872381D01*
X157583095Y-58824762D01*
X157535476Y-58777143D01*
X157487857Y-58681905D01*
X157487857Y-58396190D01*
X157535476Y-58300952D01*
X157583095Y-58253333D01*
X157678333Y-58205714D01*
X157868810Y-58205714D01*
X157964048Y-58253333D01*
X150677619Y-58872381D02*
X150677619Y-58205714D01*
X150677619Y-57872381D02*
X150630000Y-57920000D01*
X150677619Y-57967619D01*
X150725238Y-57920000D01*
X150677619Y-57872381D01*
X150677619Y-57967619D01*
X151153809Y-58205714D02*
X151153809Y-58872381D01*
X151153809Y-58300952D02*
X151201428Y-58253333D01*
X151296666Y-58205714D01*
X151439524Y-58205714D01*
X151534762Y-58253333D01*
X151582381Y-58348571D01*
X151582381Y-58872381D01*
X145272143Y-58824762D02*
X145176905Y-58872381D01*
X144986428Y-58872381D01*
X144891190Y-58824762D01*
X144843571Y-58777143D01*
X144795952Y-58681905D01*
X144795952Y-58396190D01*
X144843571Y-58300952D01*
X144891190Y-58253333D01*
X144986428Y-58205714D01*
X145176905Y-58205714D01*
X145272143Y-58253333D01*
X145605476Y-58205714D02*
X145843571Y-58872381D01*
X146081667Y-58205714D01*
X146566905Y-51252381D02*
X146566905Y-50585714D01*
X146566905Y-50680952D02*
X146614524Y-50633333D01*
X146709762Y-50585714D01*
X146852620Y-50585714D01*
X146947858Y-50633333D01*
X146995477Y-50728571D01*
X146995477Y-51252381D01*
X146995477Y-50728571D02*
X147043096Y-50633333D01*
X147138334Y-50585714D01*
X147281191Y-50585714D01*
X147376429Y-50633333D01*
X147424048Y-50728571D01*
X147424048Y-51252381D01*
X148043095Y-51252381D02*
X147947857Y-51204762D01*
X147900238Y-51157143D01*
X147852619Y-51061905D01*
X147852619Y-50776190D01*
X147900238Y-50680952D01*
X147947857Y-50633333D01*
X148043095Y-50585714D01*
X148185953Y-50585714D01*
X148281191Y-50633333D01*
X148328810Y-50680952D01*
X148376429Y-50776190D01*
X148376429Y-51061905D01*
X148328810Y-51157143D01*
X148281191Y-51204762D01*
X148185953Y-51252381D01*
X148043095Y-51252381D01*
X149233572Y-51252381D02*
X149233572Y-50252381D01*
X149233572Y-51204762D02*
X149138334Y-51252381D01*
X148947857Y-51252381D01*
X148852619Y-51204762D01*
X148805000Y-51157143D01*
X148757381Y-51061905D01*
X148757381Y-50776190D01*
X148805000Y-50680952D01*
X148852619Y-50633333D01*
X148947857Y-50585714D01*
X149138334Y-50585714D01*
X149233572Y-50633333D01*
X149709762Y-51252381D02*
X149709762Y-50585714D01*
X149709762Y-50252381D02*
X149662143Y-50300000D01*
X149709762Y-50347619D01*
X149757381Y-50300000D01*
X149709762Y-50252381D01*
X149709762Y-50347619D01*
X150043095Y-50585714D02*
X150424047Y-50585714D01*
X150185952Y-51252381D02*
X150185952Y-50395238D01*
X150233571Y-50300000D01*
X150328809Y-50252381D01*
X150424047Y-50252381D01*
X150757381Y-51252381D02*
X150757381Y-50585714D01*
X150757381Y-50252381D02*
X150709762Y-50300000D01*
X150757381Y-50347619D01*
X150805000Y-50300000D01*
X150757381Y-50252381D01*
X150757381Y-50347619D01*
X151662143Y-51204762D02*
X151566905Y-51252381D01*
X151376428Y-51252381D01*
X151281190Y-51204762D01*
X151233571Y-51157143D01*
X151185952Y-51061905D01*
X151185952Y-50776190D01*
X151233571Y-50680952D01*
X151281190Y-50633333D01*
X151376428Y-50585714D01*
X151566905Y-50585714D01*
X151662143Y-50633333D01*
X152519286Y-51252381D02*
X152519286Y-50728571D01*
X152471667Y-50633333D01*
X152376429Y-50585714D01*
X152185952Y-50585714D01*
X152090714Y-50633333D01*
X152519286Y-51204762D02*
X152424048Y-51252381D01*
X152185952Y-51252381D01*
X152090714Y-51204762D01*
X152043095Y-51109524D01*
X152043095Y-51014286D01*
X152090714Y-50919048D01*
X152185952Y-50871429D01*
X152424048Y-50871429D01*
X152519286Y-50823810D01*
X152852619Y-50585714D02*
X153233571Y-50585714D01*
X152995476Y-50252381D02*
X152995476Y-51109524D01*
X153043095Y-51204762D01*
X153138333Y-51252381D01*
X153233571Y-51252381D01*
X153566905Y-51252381D02*
X153566905Y-50585714D01*
X153566905Y-50252381D02*
X153519286Y-50300000D01*
X153566905Y-50347619D01*
X153614524Y-50300000D01*
X153566905Y-50252381D01*
X153566905Y-50347619D01*
X154185952Y-51252381D02*
X154090714Y-51204762D01*
X154043095Y-51157143D01*
X153995476Y-51061905D01*
X153995476Y-50776190D01*
X154043095Y-50680952D01*
X154090714Y-50633333D01*
X154185952Y-50585714D01*
X154328810Y-50585714D01*
X154424048Y-50633333D01*
X154471667Y-50680952D01*
X154519286Y-50776190D01*
X154519286Y-51061905D01*
X154471667Y-51157143D01*
X154424048Y-51204762D01*
X154328810Y-51252381D01*
X154185952Y-51252381D01*
X154947857Y-50585714D02*
X154947857Y-51252381D01*
X154947857Y-50680952D02*
X154995476Y-50633333D01*
X155090714Y-50585714D01*
X155233572Y-50585714D01*
X155328810Y-50633333D01*
X155376429Y-50728571D01*
X155376429Y-51252381D01*
X156614524Y-50585714D02*
X156614524Y-51442857D01*
X156566905Y-51538095D01*
X156471667Y-51585714D01*
X156424048Y-51585714D01*
X156614524Y-50252381D02*
X156566905Y-50300000D01*
X156614524Y-50347619D01*
X156662143Y-50300000D01*
X156614524Y-50252381D01*
X156614524Y-50347619D01*
X157519286Y-50585714D02*
X157519286Y-51252381D01*
X157090714Y-50585714D02*
X157090714Y-51109524D01*
X157138333Y-51204762D01*
X157233571Y-51252381D01*
X157376429Y-51252381D01*
X157471667Y-51204762D01*
X157519286Y-51157143D01*
X157995476Y-51252381D02*
X157995476Y-50585714D01*
X157995476Y-50680952D02*
X158043095Y-50633333D01*
X158138333Y-50585714D01*
X158281191Y-50585714D01*
X158376429Y-50633333D01*
X158424048Y-50728571D01*
X158424048Y-51252381D01*
X158424048Y-50728571D02*
X158471667Y-50633333D01*
X158566905Y-50585714D01*
X158709762Y-50585714D01*
X158805000Y-50633333D01*
X158852619Y-50728571D01*
X158852619Y-51252381D01*
X159328809Y-50585714D02*
X159328809Y-51585714D01*
X159328809Y-50633333D02*
X159424047Y-50585714D01*
X159614524Y-50585714D01*
X159709762Y-50633333D01*
X159757381Y-50680952D01*
X159805000Y-50776190D01*
X159805000Y-51061905D01*
X159757381Y-51157143D01*
X159709762Y-51204762D01*
X159614524Y-51252381D01*
X159424047Y-51252381D01*
X159328809Y-51204762D01*
X160614524Y-51204762D02*
X160519286Y-51252381D01*
X160328809Y-51252381D01*
X160233571Y-51204762D01*
X160185952Y-51109524D01*
X160185952Y-50728571D01*
X160233571Y-50633333D01*
X160328809Y-50585714D01*
X160519286Y-50585714D01*
X160614524Y-50633333D01*
X160662143Y-50728571D01*
X160662143Y-50823810D01*
X160185952Y-50919048D01*
X161090714Y-51252381D02*
X161090714Y-50585714D01*
X161090714Y-50776190D02*
X161138333Y-50680952D01*
X161185952Y-50633333D01*
X161281190Y-50585714D01*
X161376429Y-50585714D01*
X161662143Y-51204762D02*
X161757381Y-51252381D01*
X161947857Y-51252381D01*
X162043096Y-51204762D01*
X162090715Y-51109524D01*
X162090715Y-51061905D01*
X162043096Y-50966667D01*
X161947857Y-50919048D01*
X161805000Y-50919048D01*
X161709762Y-50871429D01*
X161662143Y-50776190D01*
X161662143Y-50728571D01*
X161709762Y-50633333D01*
X161805000Y-50585714D01*
X161947857Y-50585714D01*
X162043096Y-50633333D01*
D13*
X189120000Y-64175000D02*
X181800000Y-64175000D01*
X189120000Y-61555000D02*
X181800000Y-61555000D01*
X189120000Y-64175000D02*
X189120000Y-61555000D01*
X181800000Y-64175000D02*
X181800000Y-61555000D01*
X181418608Y-58187335D02*
G75*
G03X181575516Y-54955000I-1078608J1672335D01*
G01*
X179261392Y-58187335D02*
G75*
G02X179104484Y-54955000I1078608J1672335D01*
G01*
X181419837Y-57556130D02*
G75*
G03X181420000Y-55474039I-1079837J1041130D01*
G01*
X179260163Y-57556130D02*
G75*
G02X179260000Y-55474039I1079837J1041130D01*
G01*
X181576000Y-54955000D02*
X181420000Y-54955000D01*
X179260000Y-54955000D02*
X179104000Y-54955000D01*
D14*
X148590000Y-78740000D02*
X148590000Y-82550000D01*
X148590000Y-82550000D02*
X153670000Y-82550000D01*
X153670000Y-82550000D02*
X153670000Y-78740000D01*
X154940000Y-78740000D02*
X147320000Y-78740000D01*
X147320000Y-78740000D02*
X147320000Y-64770000D01*
X147320000Y-64770000D02*
X154940000Y-64770000D01*
X154940000Y-64770000D02*
X154940000Y-78740000D01*
X171450000Y-78740000D02*
X171450000Y-82550000D01*
X171450000Y-82550000D02*
X176530000Y-82550000D01*
X176530000Y-82550000D02*
X176530000Y-78740000D01*
X177800000Y-78740000D02*
X170180000Y-78740000D01*
X170180000Y-78740000D02*
X170180000Y-64770000D01*
X170180000Y-64770000D02*
X177800000Y-64770000D01*
X177800000Y-64770000D02*
X177800000Y-78740000D01*
X194310000Y-78740000D02*
X194310000Y-82550000D01*
X194310000Y-82550000D02*
X199390000Y-82550000D01*
X199390000Y-82550000D02*
X199390000Y-78740000D01*
X200660000Y-78740000D02*
X193040000Y-78740000D01*
X193040000Y-78740000D02*
X193040000Y-64770000D01*
X193040000Y-64770000D02*
X200660000Y-64770000D01*
X200660000Y-64770000D02*
X200660000Y-78740000D01*
D13*
X165770000Y-68925000D02*
X165770000Y-69255000D01*
X165770000Y-69255000D02*
X159350000Y-69255000D01*
X159350000Y-69255000D02*
X159350000Y-68925000D01*
X165770000Y-66965000D02*
X165770000Y-66635000D01*
X165770000Y-66635000D02*
X159350000Y-66635000D01*
X159350000Y-66635000D02*
X159350000Y-66965000D01*
X165770000Y-63845000D02*
X165770000Y-64175000D01*
X165770000Y-64175000D02*
X159350000Y-64175000D01*
X159350000Y-64175000D02*
X159350000Y-63845000D01*
X165770000Y-61885000D02*
X165770000Y-61555000D01*
X165770000Y-61555000D02*
X159350000Y-61555000D01*
X159350000Y-61555000D02*
X159350000Y-61885000D01*
X182210000Y-66965000D02*
X182210000Y-66635000D01*
X182210000Y-66635000D02*
X188630000Y-66635000D01*
X188630000Y-66635000D02*
X188630000Y-66965000D01*
X182210000Y-68925000D02*
X182210000Y-69255000D01*
X182210000Y-69255000D02*
X188630000Y-69255000D01*
X188630000Y-69255000D02*
X188630000Y-68925000D01*
X179080000Y-49470000D02*
X179080000Y-48870000D01*
X182870000Y-48870000D02*
X182870000Y-49470000D01*
X182220000Y-41920000D02*
X182220000Y-42570000D01*
X179670000Y-42570000D02*
X179670000Y-41920000D01*
X177670000Y-48870000D02*
X177670000Y-42570000D01*
X177670000Y-42570000D02*
X184270000Y-42570000D01*
X184270000Y-42570000D02*
X184270000Y-48870000D01*
X184270000Y-48870000D02*
X177670000Y-48870000D01*
X200360000Y-53340000D02*
G75*
G03X200360000Y-53340000I-6090000J0D01*
G01*
D14*
X211970000Y-61300000D02*
X216970000Y-61300000D01*
X216970000Y-61300000D02*
X216970000Y-58600000D01*
X216970000Y-58600000D02*
X211970000Y-58600000D01*
X205970000Y-63500000D02*
X205970000Y-52500000D01*
X205970000Y-52500000D02*
X211970000Y-52500000D01*
X211970000Y-63500000D02*
X211970000Y-52500000D01*
X205970000Y-63500000D02*
X211970000Y-63500000D01*
X211970000Y-74000000D02*
X216970000Y-74000000D01*
X216970000Y-74000000D02*
X216970000Y-71300000D01*
X216970000Y-71300000D02*
X211970000Y-71300000D01*
X205970000Y-76200000D02*
X205970000Y-65200000D01*
X205970000Y-65200000D02*
X211970000Y-65200000D01*
X211970000Y-76200000D02*
X211970000Y-65200000D01*
X205970000Y-76200000D02*
X211970000Y-76200000D01*
X211970000Y-48600000D02*
X216970000Y-48600000D01*
X216970000Y-48600000D02*
X216970000Y-45900000D01*
X216970000Y-45900000D02*
X211970000Y-45900000D01*
X205970000Y-50800000D02*
X205970000Y-39800000D01*
X205970000Y-39800000D02*
X211970000Y-39800000D01*
X211970000Y-50800000D02*
X211970000Y-39800000D01*
X205970000Y-50800000D02*
X211970000Y-50800000D01*
D13*
X144085000Y-57210000D02*
X146745000Y-57210000D01*
X144085000Y-54610000D02*
X144085000Y-57210000D01*
X146745000Y-54610000D02*
X146745000Y-57210000D01*
X144085000Y-54610000D02*
X146745000Y-54610000D01*
X144085000Y-53340000D02*
X144085000Y-52010000D01*
X144085000Y-52010000D02*
X145415000Y-52010000D01*
X149800000Y-57210000D02*
X152460000Y-57210000D01*
X149800000Y-54610000D02*
X149800000Y-57210000D01*
X152460000Y-54610000D02*
X152460000Y-57210000D01*
X149800000Y-54610000D02*
X152460000Y-54610000D01*
X149800000Y-53340000D02*
X149800000Y-52010000D01*
X149800000Y-52010000D02*
X151130000Y-52010000D01*
X155515000Y-57210000D02*
X158175000Y-57210000D01*
X155515000Y-54610000D02*
X155515000Y-57210000D01*
X158175000Y-54610000D02*
X158175000Y-57210000D01*
X155515000Y-54610000D02*
X158175000Y-54610000D01*
X155515000Y-53340000D02*
X155515000Y-52010000D01*
X155515000Y-52010000D02*
X156845000Y-52010000D01*
X161230000Y-57210000D02*
X163890000Y-57210000D01*
X161230000Y-54610000D02*
X161230000Y-57210000D01*
X163890000Y-54610000D02*
X163890000Y-57210000D01*
X161230000Y-54610000D02*
X163890000Y-54610000D01*
X161230000Y-53340000D02*
X161230000Y-52010000D01*
X161230000Y-52010000D02*
X162560000Y-52010000D01*
X142422432Y-70901982D02*
G75*
G02X136898000Y-70903000I-2762432J1171982D01*
G01*
X137362247Y-67801705D02*
G75*
G02X141958000Y-67802000I2297753J-1928295D01*
G01*
X144621000Y-63170000D02*
X144621000Y-67036000D01*
X144621000Y-71425000D02*
X144621000Y-75290000D01*
X134700000Y-63170000D02*
X134700000Y-67036000D01*
X134700000Y-71425000D02*
X134700000Y-75290000D01*
X144621000Y-63170000D02*
X142985000Y-63170000D01*
X141335000Y-63170000D02*
X140485000Y-63170000D01*
X138835000Y-63170000D02*
X137985000Y-63170000D01*
X136335000Y-63170000D02*
X134700000Y-63170000D01*
X144621000Y-75290000D02*
X134700000Y-75290000D01*
X172295000Y-45240000D02*
X174415000Y-45240000D01*
X174415000Y-45240000D02*
X174415000Y-41120000D01*
X174415000Y-41120000D02*
X172295000Y-41120000D01*
X172295000Y-41120000D02*
X172295000Y-45240000D01*
X173355000Y-46010000D02*
X173355000Y-45240000D01*
X173355000Y-40350000D02*
X173355000Y-41120000D01*
X172295000Y-44580000D02*
X174415000Y-44580000D01*
X187535000Y-45240000D02*
X189655000Y-45240000D01*
X189655000Y-45240000D02*
X189655000Y-41120000D01*
X189655000Y-41120000D02*
X187535000Y-41120000D01*
X187535000Y-41120000D02*
X187535000Y-45240000D01*
X188595000Y-46010000D02*
X188595000Y-45240000D01*
X188595000Y-40350000D02*
X188595000Y-41120000D01*
X187535000Y-44580000D02*
X189655000Y-44580000D01*
D14*
X182713334Y-65762143D02*
X182665715Y-65809762D01*
X182522858Y-65857381D01*
X182427620Y-65857381D01*
X182284762Y-65809762D01*
X182189524Y-65714524D01*
X182141905Y-65619286D01*
X182094286Y-65428810D01*
X182094286Y-65285952D01*
X182141905Y-65095476D01*
X182189524Y-65000238D01*
X182284762Y-64905000D01*
X182427620Y-64857381D01*
X182522858Y-64857381D01*
X182665715Y-64905000D01*
X182713334Y-64952619D01*
X183665715Y-65857381D02*
X183094286Y-65857381D01*
X183380000Y-65857381D02*
X183380000Y-64857381D01*
X183284762Y-65000238D01*
X183189524Y-65095476D01*
X183094286Y-65143095D01*
X183752381Y-57253095D02*
X182752381Y-57253095D01*
X182752381Y-57015000D01*
X182800000Y-56872142D01*
X182895238Y-56776904D01*
X182990476Y-56729285D01*
X183180952Y-56681666D01*
X183323810Y-56681666D01*
X183514286Y-56729285D01*
X183609524Y-56776904D01*
X183704762Y-56872142D01*
X183752381Y-57015000D01*
X183752381Y-57253095D01*
X183752381Y-55729285D02*
X183752381Y-56300714D01*
X183752381Y-56015000D02*
X182752381Y-56015000D01*
X182895238Y-56110238D01*
X182990476Y-56205476D01*
X183038095Y-56300714D01*
X146986667Y-63587381D02*
X146986667Y-64301667D01*
X146939047Y-64444524D01*
X146843809Y-64539762D01*
X146700952Y-64587381D01*
X146605714Y-64587381D01*
X147986667Y-64587381D02*
X147415238Y-64587381D01*
X147700952Y-64587381D02*
X147700952Y-63587381D01*
X147605714Y-63730238D01*
X147510476Y-63825476D01*
X147415238Y-63873095D01*
X169929524Y-63382381D02*
X169929524Y-64096667D01*
X169881904Y-64239524D01*
X169786666Y-64334762D01*
X169643809Y-64382381D01*
X169548571Y-64382381D01*
X170358095Y-63477619D02*
X170405714Y-63430000D01*
X170500952Y-63382381D01*
X170739048Y-63382381D01*
X170834286Y-63430000D01*
X170881905Y-63477619D01*
X170929524Y-63572857D01*
X170929524Y-63668095D01*
X170881905Y-63810952D01*
X170310476Y-64382381D01*
X170929524Y-64382381D01*
X192706667Y-63587381D02*
X192706667Y-64301667D01*
X192659047Y-64444524D01*
X192563809Y-64539762D01*
X192420952Y-64587381D01*
X192325714Y-64587381D01*
X193087619Y-63587381D02*
X193706667Y-63587381D01*
X193373333Y-63968333D01*
X193516191Y-63968333D01*
X193611429Y-64015952D01*
X193659048Y-64063571D01*
X193706667Y-64158810D01*
X193706667Y-64396905D01*
X193659048Y-64492143D01*
X193611429Y-64539762D01*
X193516191Y-64587381D01*
X193230476Y-64587381D01*
X193135238Y-64539762D01*
X193087619Y-64492143D01*
X159853334Y-70937381D02*
X159520000Y-70461190D01*
X159281905Y-70937381D02*
X159281905Y-69937381D01*
X159662858Y-69937381D01*
X159758096Y-69985000D01*
X159805715Y-70032619D01*
X159853334Y-70127857D01*
X159853334Y-70270714D01*
X159805715Y-70365952D01*
X159758096Y-70413571D01*
X159662858Y-70461190D01*
X159281905Y-70461190D01*
X160805715Y-70937381D02*
X160234286Y-70937381D01*
X160520000Y-70937381D02*
X160520000Y-69937381D01*
X160424762Y-70080238D01*
X160329524Y-70175476D01*
X160234286Y-70223095D01*
X159853334Y-65857381D02*
X159520000Y-65381190D01*
X159281905Y-65857381D02*
X159281905Y-64857381D01*
X159662858Y-64857381D01*
X159758096Y-64905000D01*
X159805715Y-64952619D01*
X159853334Y-65047857D01*
X159853334Y-65190714D01*
X159805715Y-65285952D01*
X159758096Y-65333571D01*
X159662858Y-65381190D01*
X159281905Y-65381190D01*
X160234286Y-64952619D02*
X160281905Y-64905000D01*
X160377143Y-64857381D01*
X160615239Y-64857381D01*
X160710477Y-64905000D01*
X160758096Y-64952619D01*
X160805715Y-65047857D01*
X160805715Y-65143095D01*
X160758096Y-65285952D01*
X160186667Y-65857381D01*
X160805715Y-65857381D01*
X182713334Y-70937381D02*
X182380000Y-70461190D01*
X182141905Y-70937381D02*
X182141905Y-69937381D01*
X182522858Y-69937381D01*
X182618096Y-69985000D01*
X182665715Y-70032619D01*
X182713334Y-70127857D01*
X182713334Y-70270714D01*
X182665715Y-70365952D01*
X182618096Y-70413571D01*
X182522858Y-70461190D01*
X182141905Y-70461190D01*
X183046667Y-69937381D02*
X183665715Y-69937381D01*
X183332381Y-70318333D01*
X183475239Y-70318333D01*
X183570477Y-70365952D01*
X183618096Y-70413571D01*
X183665715Y-70508810D01*
X183665715Y-70746905D01*
X183618096Y-70842143D01*
X183570477Y-70889762D01*
X183475239Y-70937381D01*
X183189524Y-70937381D01*
X183094286Y-70889762D01*
X183046667Y-70842143D01*
X175982381Y-49021905D02*
X176791905Y-49021905D01*
X176887143Y-48974286D01*
X176934762Y-48926667D01*
X176982381Y-48831429D01*
X176982381Y-48640952D01*
X176934762Y-48545714D01*
X176887143Y-48498095D01*
X176791905Y-48450476D01*
X175982381Y-48450476D01*
X176982381Y-47450476D02*
X176982381Y-48021905D01*
X176982381Y-47736191D02*
X175982381Y-47736191D01*
X176125238Y-47831429D01*
X176220476Y-47926667D01*
X176268095Y-48021905D01*
X194103334Y-46732381D02*
X193627143Y-46732381D01*
X193627143Y-45732381D01*
X194960477Y-46732381D02*
X194389048Y-46732381D01*
X194674762Y-46732381D02*
X194674762Y-45732381D01*
X194579524Y-45875238D01*
X194484286Y-45970476D01*
X194389048Y-46018095D01*
X205374762Y-64833333D02*
X205422381Y-64690476D01*
X205422381Y-64452380D01*
X205374762Y-64357142D01*
X205327143Y-64309523D01*
X205231905Y-64261904D01*
X205136667Y-64261904D01*
X205041429Y-64309523D01*
X204993810Y-64357142D01*
X204946190Y-64452380D01*
X204898571Y-64642857D01*
X204850952Y-64738095D01*
X204803333Y-64785714D01*
X204708095Y-64833333D01*
X204612857Y-64833333D01*
X204517619Y-64785714D01*
X204470000Y-64738095D01*
X204422381Y-64642857D01*
X204422381Y-64404761D01*
X204470000Y-64261904D01*
X204422381Y-63928571D02*
X205422381Y-63690476D01*
X204708095Y-63499999D01*
X205422381Y-63309523D01*
X204422381Y-63071428D01*
X205422381Y-62166666D02*
X205422381Y-62738095D01*
X205422381Y-62452381D02*
X204422381Y-62452381D01*
X204565238Y-62547619D01*
X204660476Y-62642857D01*
X204708095Y-62738095D01*
X205374762Y-77533333D02*
X205422381Y-77390476D01*
X205422381Y-77152380D01*
X205374762Y-77057142D01*
X205327143Y-77009523D01*
X205231905Y-76961904D01*
X205136667Y-76961904D01*
X205041429Y-77009523D01*
X204993810Y-77057142D01*
X204946190Y-77152380D01*
X204898571Y-77342857D01*
X204850952Y-77438095D01*
X204803333Y-77485714D01*
X204708095Y-77533333D01*
X204612857Y-77533333D01*
X204517619Y-77485714D01*
X204470000Y-77438095D01*
X204422381Y-77342857D01*
X204422381Y-77104761D01*
X204470000Y-76961904D01*
X204422381Y-76628571D02*
X205422381Y-76390476D01*
X204708095Y-76199999D01*
X205422381Y-76009523D01*
X204422381Y-75771428D01*
X204517619Y-75438095D02*
X204470000Y-75390476D01*
X204422381Y-75295238D01*
X204422381Y-75057142D01*
X204470000Y-74961904D01*
X204517619Y-74914285D01*
X204612857Y-74866666D01*
X204708095Y-74866666D01*
X204850952Y-74914285D01*
X205422381Y-75485714D01*
X205422381Y-74866666D01*
X205374762Y-52133333D02*
X205422381Y-51990476D01*
X205422381Y-51752380D01*
X205374762Y-51657142D01*
X205327143Y-51609523D01*
X205231905Y-51561904D01*
X205136667Y-51561904D01*
X205041429Y-51609523D01*
X204993810Y-51657142D01*
X204946190Y-51752380D01*
X204898571Y-51942857D01*
X204850952Y-52038095D01*
X204803333Y-52085714D01*
X204708095Y-52133333D01*
X204612857Y-52133333D01*
X204517619Y-52085714D01*
X204470000Y-52038095D01*
X204422381Y-51942857D01*
X204422381Y-51704761D01*
X204470000Y-51561904D01*
X204422381Y-51228571D02*
X205422381Y-50990476D01*
X204708095Y-50799999D01*
X205422381Y-50609523D01*
X204422381Y-50371428D01*
X204422381Y-50085714D02*
X204422381Y-49466666D01*
X204803333Y-49800000D01*
X204803333Y-49657142D01*
X204850952Y-49561904D01*
X204898571Y-49514285D01*
X204993810Y-49466666D01*
X205231905Y-49466666D01*
X205327143Y-49514285D01*
X205374762Y-49561904D01*
X205422381Y-49657142D01*
X205422381Y-49942857D01*
X205374762Y-50038095D01*
X205327143Y-50085714D01*
X142327381Y-54173333D02*
X143041667Y-54173333D01*
X143184524Y-54220953D01*
X143279762Y-54316191D01*
X143327381Y-54459048D01*
X143327381Y-54554286D01*
X143327381Y-53697143D02*
X142327381Y-53697143D01*
X142327381Y-53316190D01*
X142375000Y-53220952D01*
X142422619Y-53173333D01*
X142517857Y-53125714D01*
X142660714Y-53125714D01*
X142755952Y-53173333D01*
X142803571Y-53220952D01*
X142851190Y-53316190D01*
X142851190Y-53697143D01*
X143327381Y-52173333D02*
X143327381Y-52744762D01*
X143327381Y-52459048D02*
X142327381Y-52459048D01*
X142470238Y-52554286D01*
X142565476Y-52649524D01*
X142613095Y-52744762D01*
X148042381Y-54173333D02*
X148756667Y-54173333D01*
X148899524Y-54220953D01*
X148994762Y-54316191D01*
X149042381Y-54459048D01*
X149042381Y-54554286D01*
X149042381Y-53697143D02*
X148042381Y-53697143D01*
X148042381Y-53316190D01*
X148090000Y-53220952D01*
X148137619Y-53173333D01*
X148232857Y-53125714D01*
X148375714Y-53125714D01*
X148470952Y-53173333D01*
X148518571Y-53220952D01*
X148566190Y-53316190D01*
X148566190Y-53697143D01*
X148137619Y-52744762D02*
X148090000Y-52697143D01*
X148042381Y-52601905D01*
X148042381Y-52363809D01*
X148090000Y-52268571D01*
X148137619Y-52220952D01*
X148232857Y-52173333D01*
X148328095Y-52173333D01*
X148470952Y-52220952D01*
X149042381Y-52792381D01*
X149042381Y-52173333D01*
X153757381Y-54173333D02*
X154471667Y-54173333D01*
X154614524Y-54220953D01*
X154709762Y-54316191D01*
X154757381Y-54459048D01*
X154757381Y-54554286D01*
X154757381Y-53697143D02*
X153757381Y-53697143D01*
X153757381Y-53316190D01*
X153805000Y-53220952D01*
X153852619Y-53173333D01*
X153947857Y-53125714D01*
X154090714Y-53125714D01*
X154185952Y-53173333D01*
X154233571Y-53220952D01*
X154281190Y-53316190D01*
X154281190Y-53697143D01*
X153757381Y-52792381D02*
X153757381Y-52173333D01*
X154138333Y-52506667D01*
X154138333Y-52363809D01*
X154185952Y-52268571D01*
X154233571Y-52220952D01*
X154328810Y-52173333D01*
X154566905Y-52173333D01*
X154662143Y-52220952D01*
X154709762Y-52268571D01*
X154757381Y-52363809D01*
X154757381Y-52649524D01*
X154709762Y-52744762D01*
X154662143Y-52792381D01*
X159472381Y-54173333D02*
X160186667Y-54173333D01*
X160329524Y-54220953D01*
X160424762Y-54316191D01*
X160472381Y-54459048D01*
X160472381Y-54554286D01*
X160472381Y-53697143D02*
X159472381Y-53697143D01*
X159472381Y-53316190D01*
X159520000Y-53220952D01*
X159567619Y-53173333D01*
X159662857Y-53125714D01*
X159805714Y-53125714D01*
X159900952Y-53173333D01*
X159948571Y-53220952D01*
X159996190Y-53316190D01*
X159996190Y-53697143D01*
X159805714Y-52268571D02*
X160472381Y-52268571D01*
X159424762Y-52506667D02*
X160139048Y-52744762D01*
X160139048Y-52125714D01*
X144184762Y-62682381D02*
X143851428Y-62206190D01*
X143613333Y-62682381D02*
X143613333Y-61682381D01*
X143994286Y-61682381D01*
X144089524Y-61730000D01*
X144137143Y-61777619D01*
X144184762Y-61872857D01*
X144184762Y-62015714D01*
X144137143Y-62110952D01*
X144089524Y-62158571D01*
X143994286Y-62206190D01*
X143613333Y-62206190D01*
X144470476Y-61682381D02*
X144803809Y-62682381D01*
X145137143Y-61682381D01*
X145994286Y-62682381D02*
X145422857Y-62682381D01*
X145708571Y-62682381D02*
X145708571Y-61682381D01*
X145613333Y-61825238D01*
X145518095Y-61920476D01*
X145422857Y-61968095D01*
X171747381Y-43918095D02*
X170747381Y-43918095D01*
X170747381Y-43680000D01*
X170795000Y-43537142D01*
X170890238Y-43441904D01*
X170985476Y-43394285D01*
X171175952Y-43346666D01*
X171318810Y-43346666D01*
X171509286Y-43394285D01*
X171604524Y-43441904D01*
X171699762Y-43537142D01*
X171747381Y-43680000D01*
X171747381Y-43918095D01*
X170842619Y-42965714D02*
X170795000Y-42918095D01*
X170747381Y-42822857D01*
X170747381Y-42584761D01*
X170795000Y-42489523D01*
X170842619Y-42441904D01*
X170937857Y-42394285D01*
X171033095Y-42394285D01*
X171175952Y-42441904D01*
X171747381Y-43013333D01*
X171747381Y-42394285D01*
X186987381Y-43918095D02*
X185987381Y-43918095D01*
X185987381Y-43680000D01*
X186035000Y-43537142D01*
X186130238Y-43441904D01*
X186225476Y-43394285D01*
X186415952Y-43346666D01*
X186558810Y-43346666D01*
X186749286Y-43394285D01*
X186844524Y-43441904D01*
X186939762Y-43537142D01*
X186987381Y-43680000D01*
X186987381Y-43918095D01*
X185987381Y-43013333D02*
X185987381Y-42394285D01*
X186368333Y-42727619D01*
X186368333Y-42584761D01*
X186415952Y-42489523D01*
X186463571Y-42441904D01*
X186558810Y-42394285D01*
X186796905Y-42394285D01*
X186892143Y-42441904D01*
X186939762Y-42489523D01*
X186987381Y-42584761D01*
X186987381Y-42870476D01*
X186939762Y-42965714D01*
X186892143Y-43013333D01*
M02*
