M48
;DRILL file {KiCad 4.0.7} date Monday 10 September 2018 20:38:27
;FORMAT={-:-/ absolute / metric / decimal}
FMAT,2
METRIC,TZ
T1C0.800
T2C0.810
T3C0.900
T4C1.000
T5C1.200
T6C1.300
T7C3.200
T8C2.000
%
G90
G05
M71
T1
X158.75Y-62.865
X158.75Y-67.945
X166.37Y-62.865
X166.37Y-67.945
X173.355Y-39.37
X173.355Y-46.99
X181.61Y-67.945
X182.96Y-62.865
X187.96Y-62.865
X188.595Y-39.37
X188.595Y-46.99
X189.23Y-67.945
T2
X179.07Y-50.8
X179.71Y-40.64
X182.24Y-40.64
X182.88Y-50.8
T3
X180.34Y-55.245
X180.34Y-57.785
X204.81Y-42.02
X204.81Y-45.22
X204.81Y-48.42
X204.81Y-54.72
X204.81Y-57.92
X204.81Y-61.12
X204.81Y-67.42
X204.81Y-70.62
X204.81Y-73.82
T4
X137.16Y-62.23
X139.66Y-62.23
X142.16Y-62.23
X145.415Y-53.34
X145.415Y-55.88
X151.13Y-53.34
X151.13Y-55.88
X156.845Y-53.34
X156.845Y-55.88
X162.56Y-53.34
X162.56Y-55.88
T5
X142.875Y-40.005
X142.875Y-42.545
X142.875Y-45.085
X142.875Y-47.625
X145.415Y-40.005
X145.415Y-42.545
X145.415Y-45.085
X145.415Y-47.625
X147.955Y-40.005
X147.955Y-42.545
X147.955Y-45.085
X147.955Y-47.625
X150.495Y-40.005
X150.495Y-42.545
X150.495Y-45.085
X150.495Y-47.625
X153.035Y-40.005
X153.035Y-42.545
X153.035Y-45.085
X153.035Y-47.625
X155.575Y-40.005
X155.575Y-42.545
X155.575Y-45.085
X155.575Y-47.625
X158.115Y-40.005
X158.115Y-42.545
X158.115Y-45.085
X158.115Y-47.625
X160.655Y-40.005
X160.655Y-42.545
X160.655Y-45.085
X160.655Y-47.625
X163.195Y-40.005
X163.195Y-42.545
X163.195Y-45.085
X163.195Y-47.625
X165.735Y-40.005
X165.735Y-42.545
X165.735Y-45.085
X165.735Y-47.625
T6
X191.77Y-53.34
X196.77Y-53.34
T7
X135.89Y-40.64
X162.56Y-74.93
X185.42Y-74.93
X199.39Y-40.64
T8
X135.26Y-69.23
X144.06Y-69.23
T5
X150.48Y-65.54G85X151.78Y-65.54
G05
X150.48Y-71.34G85X151.78Y-71.34
G05
X150.48Y-76.64G85X151.78Y-76.64
G05
X173.34Y-65.54G85X174.64Y-65.54
G05
X173.34Y-71.34G85X174.64Y-71.34
G05
X173.34Y-76.64G85X174.64Y-76.64
G05
X196.2Y-65.54G85X197.5Y-65.54
G05
X196.2Y-71.34G85X197.5Y-71.34
G05
X196.2Y-76.64G85X197.5Y-76.64
G05
T0
M30
