<?xml version="1.0" encoding="UTF-8" standalone="no"?>
<!-- Created with Inkscape (http://www.inkscape.org/) -->

<svg
   xmlns:dc="http://purl.org/dc/elements/1.1/"
   xmlns:cc="http://creativecommons.org/ns#"
   xmlns:rdf="http://www.w3.org/1999/02/22-rdf-syntax-ns#"
   xmlns:svg="http://www.w3.org/2000/svg"
   xmlns="http://www.w3.org/2000/svg"
   xmlns:sodipodi="http://sodipodi.sourceforge.net/DTD/sodipodi-0.dtd"
   xmlns:inkscape="http://www.inkscape.org/namespaces/inkscape"
   width="210mm"
   height="297mm"
   viewBox="0 0 210 297"
   version="1.1"
   id="svg8"
   inkscape:version="0.92.2 5c3e80d, 2017-08-06"
   sodipodi:docname="minidrum_panel.svg">
  <defs
     id="defs2">
    <marker
       inkscape:stockid="Tail"
       orient="auto"
       refY="0.0"
       refX="0.0"
       id="marker5332"
       style="overflow:visible"
       inkscape:isstock="true">
      <g
         id="g5330"
         transform="scale(-1.2)"
         style="stroke:#000000;stroke-opacity:1;fill:#000000;fill-opacity:1">
        <path
           id="path5318"
           d="M -3.8048674,-3.9585227 L 0.54352094,0"
           style="fill:#000000;fill-rule:evenodd;stroke:#000000;stroke-width:0.8;stroke-linecap:round;stroke-opacity:1;fill-opacity:1" />
        <path
           id="path5320"
           d="M -1.2866832,-3.9585227 L 3.0617053,0"
           style="fill:#000000;fill-rule:evenodd;stroke:#000000;stroke-width:0.8;stroke-linecap:round;stroke-opacity:1;fill-opacity:1" />
        <path
           id="path5322"
           d="M 1.3053582,-3.9585227 L 5.6537466,0"
           style="fill:#000000;fill-rule:evenodd;stroke:#000000;stroke-width:0.8;stroke-linecap:round;stroke-opacity:1;fill-opacity:1" />
        <path
           id="path5324"
           d="M -3.8048674,4.1775838 L 0.54352094,0.21974226"
           style="fill:#000000;fill-rule:evenodd;stroke:#000000;stroke-width:0.8;stroke-linecap:round;stroke-opacity:1;fill-opacity:1" />
        <path
           id="path5326"
           d="M -1.2866832,4.1775838 L 3.0617053,0.21974226"
           style="fill:#000000;fill-rule:evenodd;stroke:#000000;stroke-width:0.8;stroke-linecap:round;stroke-opacity:1;fill-opacity:1" />
        <path
           id="path5328"
           d="M 1.3053582,4.1775838 L 5.6537466,0.21974226"
           style="fill:#000000;fill-rule:evenodd;stroke:#000000;stroke-width:0.8;stroke-linecap:round;stroke-opacity:1;fill-opacity:1" />
      </g>
    </marker>
    <marker
       inkscape:stockid="Tail"
       orient="auto"
       refY="0.0"
       refX="0.0"
       id="Tail"
       style="overflow:visible"
       inkscape:isstock="true">
      <g
         id="g948"
         transform="scale(-1.2)"
         style="stroke:#000000;stroke-opacity:1;fill:#000000;fill-opacity:1">
        <path
           id="path936"
           d="M -3.8048674,-3.9585227 L 0.54352094,0"
           style="fill:#000000;fill-rule:evenodd;stroke:#000000;stroke-width:0.8;stroke-linecap:round;stroke-opacity:1;fill-opacity:1" />
        <path
           id="path938"
           d="M -1.2866832,-3.9585227 L 3.0617053,0"
           style="fill:#000000;fill-rule:evenodd;stroke:#000000;stroke-width:0.8;stroke-linecap:round;stroke-opacity:1;fill-opacity:1" />
        <path
           id="path940"
           d="M 1.3053582,-3.9585227 L 5.6537466,0"
           style="fill:#000000;fill-rule:evenodd;stroke:#000000;stroke-width:0.8;stroke-linecap:round;stroke-opacity:1;fill-opacity:1" />
        <path
           id="path942"
           d="M -3.8048674,4.1775838 L 0.54352094,0.21974226"
           style="fill:#000000;fill-rule:evenodd;stroke:#000000;stroke-width:0.8;stroke-linecap:round;stroke-opacity:1;fill-opacity:1" />
        <path
           id="path944"
           d="M -1.2866832,4.1775838 L 3.0617053,0.21974226"
           style="fill:#000000;fill-rule:evenodd;stroke:#000000;stroke-width:0.8;stroke-linecap:round;stroke-opacity:1;fill-opacity:1" />
        <path
           id="path5092"
           d="M 1.3053582,4.1775838 L 5.6537466,0.21974226"
           style="fill:#000000;fill-rule:evenodd;stroke:#000000;stroke-width:0.8;stroke-linecap:round;stroke-opacity:1;fill-opacity:1" />
      </g>
    </marker>
    <marker
       inkscape:stockid="Arrow1Mstart"
       orient="auto"
       refY="0.0"
       refX="0.0"
       id="Arrow1Mstart"
       style="overflow:visible"
       inkscape:isstock="true">
      <path
         id="path906"
         d="M 0.0,0.0 L 5.0,-5.0 L -12.5,0.0 L 5.0,5.0 L 0.0,0.0 z "
         style="fill-rule:evenodd;stroke:#e800ed;stroke-width:1pt;stroke-opacity:1;fill:#f500f5;fill-opacity:1"
         transform="scale(0.4) translate(10,0)" />
    </marker>
    <filter
       inkscape:menu-tooltip="In and out glow with a possible offset and colorizable flood"
       inkscape:menu="Shadows and Glows"
       inkscape:label="Cutout Glow"
       style="color-interpolation-filters:sRGB;"
       id="filter915">
      <feOffset
         dy="-100"
         dx="-100"
         id="feOffset905" />
      <feGaussianBlur
         stdDeviation="0.01"
         result="blur"
         id="feGaussianBlur907" />
      <feFlood
         flood-color="rgb(255,255,255)"
         flood-opacity="0.28000000000000003"
         result="flood"
         id="feFlood909" />
      <feComposite
         in="flood"
         in2="SourceGraphic"
         operator="over"
         result="composite"
         id="feComposite911" />
      <feBlend
         in="blur"
         in2="composite"
         mode="normal"
         id="feBlend913" />
    </filter>
  </defs>
  <sodipodi:namedview
     id="base"
     pagecolor="#ffffff"
     bordercolor="#666666"
     borderopacity="1.0"
     inkscape:pageopacity="0.0"
     inkscape:pageshadow="2"
     inkscape:zoom="1.5"
     inkscape:cx="105.79825"
     inkscape:cy="396.63875"
     inkscape:document-units="mm"
     inkscape:current-layer="g6019"
     showgrid="true"
     inkscape:window-width="1150"
     inkscape:window-height="716"
     inkscape:window-x="208"
     inkscape:window-y="56"
     inkscape:window-maximized="0"
     inkscape:measure-start="51,402.8"
     inkscape:measure-end="128,402.8"
     inkscape:snap-to-guides="true"
     inkscape:snap-grids="true"
     showguides="false"
     inkscape:snap-global="false"
     objecttolerance="20">
    <inkscape:grid
       type="xygrid"
       id="grid922"
       dotted="true" />
  </sodipodi:namedview>
  <metadata
     id="metadata5">
    <rdf:RDF>
      <cc:Work
         rdf:about="">
        <dc:format>image/svg+xml</dc:format>
        <dc:type
           rdf:resource="http://purl.org/dc/dcmitype/StillImage" />
        <dc:title />
      </cc:Work>
    </rdf:RDF>
  </metadata>
  <g
     inkscape:groupmode="layer"
     id="layer7"
     inkscape:label="holes"
     style="display:inline">
    <circle
       style="opacity:1;fill:none;fill-opacity:1;stroke:#ff0000;stroke-width:0.02645833;stroke-miterlimit:4;stroke-dasharray:none;stroke-opacity:1"
       id="circle1275"
       cx="37.090637"
       cy="182.99063"
       r="3.3725126" />
    <circle
       r="3.3725126"
       cy="182.99068"
       cx="14.329186"
       id="circle4689"
       style="opacity:1;fill:none;fill-opacity:1;stroke:#ff0000;stroke-width:0.02645833;stroke-miterlimit:4;stroke-dasharray:none;stroke-opacity:1" />
    <circle
       style="opacity:1;fill:none;fill-opacity:1;stroke:#ff0000;stroke-width:0.02645833;stroke-miterlimit:4;stroke-dasharray:none;stroke-opacity:1"
       id="circle4691"
       cx="14.329187"
       cy="-273.37268"
       r="3.3725126"
       transform="scale(1,-1)" />
    <rect
       style="display:inline;opacity:1;fill:none;stroke:#ff0000;stroke-width:0.026;stroke-miterlimit:4;stroke-dasharray:none;stroke-opacity:1"
       id="rect1033"
       width="8.9901962"
       height="4.4901962"
       x="33.078541"
       y="193.15865" />
    <rect
       y="201.09618"
       x="33.078541"
       height="4.4901962"
       width="8.9901962"
       id="rect1066"
       style="display:inline;opacity:1;fill:none;stroke:#ff0000;stroke-width:0.026;stroke-miterlimit:4;stroke-dasharray:none;stroke-opacity:1" />
    <rect
       style="display:inline;opacity:1;fill:none;stroke:#ff0000;stroke-width:0.026;stroke-miterlimit:4;stroke-dasharray:none;stroke-opacity:1"
       id="rect1104"
       width="8.9901962"
       height="4.4901962"
       x="33.078541"
       y="209.16599" />
    <rect
       y="217.1035"
       x="33.078541"
       height="4.4901962"
       width="8.9901962"
       id="rect1116"
       style="display:inline;opacity:1;fill:none;stroke:#ff0000;stroke-width:0.026;stroke-miterlimit:4;stroke-dasharray:none;stroke-opacity:1" />
    <rect
       style="display:inline;opacity:1;fill:none;stroke:#ff0000;stroke-width:0.026;stroke-miterlimit:4;stroke-dasharray:none;stroke-opacity:1"
       id="rect1128"
       width="8.9901962"
       height="4.4901962"
       x="33.078541"
       y="225.04102" />
    <rect
       y="232.97853"
       x="33.078541"
       height="4.4901962"
       width="8.9901962"
       id="rect1140"
       style="display:inline;opacity:1;fill:none;stroke:#ff0000;stroke-width:0.026;stroke-miterlimit:4;stroke-dasharray:none;stroke-opacity:1" />
    <rect
       style="display:inline;opacity:1;fill:none;stroke:#ff0000;stroke-width:0.026;stroke-miterlimit:4;stroke-dasharray:none;stroke-opacity:1"
       id="rect1152"
       width="8.9901962"
       height="4.4901962"
       x="33.078541"
       y="241.31293" />
    <rect
       y="249.51503"
       x="33.078541"
       height="4.4901962"
       width="8.9901962"
       id="rect1164"
       style="display:inline;opacity:1;fill:none;stroke:#ff0000;stroke-width:0.026;stroke-miterlimit:4;stroke-dasharray:none;stroke-opacity:1" />
    <rect
       style="display:inline;opacity:1;fill:none;stroke:#ff0000;stroke-width:0.026;stroke-miterlimit:4;stroke-dasharray:none;stroke-opacity:1"
       id="rect1176"
       width="8.9901962"
       height="4.4901962"
       x="33.078541"
       y="257.45255" />
    <circle
       r="1.0252604"
       cy="179.95496"
       cx="25.565369"
       id="path966"
       style="display:inline;opacity:1;fill:none;fill-opacity:1;stroke:#ff0000;stroke-width:0.026;stroke-miterlimit:4;stroke-dasharray:none;stroke-opacity:1" />
    <circle
       style="display:inline;fill:none;fill-opacity:1;stroke:#ff0000;stroke-width:0.02645833;stroke-miterlimit:4;stroke-dasharray:none;stroke-opacity:1"
       id="circle1253"
       cx="37.958504"
       cy="273.00235"
       r="4.0009871" />
  </g>
  <g
     inkscape:groupmode="layer"
     id="layer4"
     inkscape:label="frame"
     style="display:inline">
    <g
       inkscape:groupmode="layer"
       id="layer6"
       inkscape:label="measurements"
       style="display:inline" />
    <rect
       style="fill:none;fill-opacity:1;stroke:#ff0000;stroke-width:0.0296007;stroke-miterlimit:4;stroke-dasharray:none;stroke-dashoffset:0;stroke-opacity:1"
       id="rect970"
       width="50.470398"
       height="128.5844"
       x="0.45521447"
       y="168.41402" />
  </g>
  <g
     inkscape:groupmode="layer"
     id="layer3"
     inkscape:label="screws"
     style="display:inline">
    <circle
       style="fill:none;fill-opacity:1;stroke:#ff0000;stroke-width:0.02320576;stroke-miterlimit:4;stroke-dasharray:none;stroke-opacity:1"
       id="path97"
       cx="42.960735"
       cy="-171.51096"
       r="1.7566979"
       transform="scale(1,-1)" />
    <ellipse
       style="fill:none;fill-opacity:1;stroke:#ff0000;stroke-width:0.027;stroke-miterlimit:4;stroke-dasharray:none;stroke-opacity:1"
       id="path924"
       cx="7.5387039"
       cy="293.98306"
       rx="1.7552135"
       ry="1.7399799" />
    <circle
       style="fill:none;fill-opacity:1;stroke:#ff0000;stroke-width:0.02849756;stroke-miterlimit:4;stroke-dasharray:none;stroke-opacity:1"
       id="path946"
       cx="42.960678"
       cy="293.9675"
       r="1.7542512" />
    <circle
       style="fill:none;fill-opacity:1;stroke:#ff0000;stroke-width:0.02430471;stroke-miterlimit:4;stroke-dasharray:none;stroke-opacity:1"
       id="path948"
       cx="7.5384998"
       cy="171.5105"
       r="1.7563477" />
    <ellipse
       ry="1.7399799"
       rx="1.7552135"
       cy="249.401"
       cx="23.942867"
       id="ellipse1298"
       style="fill:none;fill-opacity:1;stroke:#ff0000;stroke-width:0.027;stroke-miterlimit:4;stroke-dasharray:none;stroke-opacity:1" />
    <ellipse
       style="fill:none;fill-opacity:1;stroke:#ff0000;stroke-width:0.027;stroke-miterlimit:4;stroke-dasharray:none;stroke-opacity:1"
       id="ellipse1300"
       cx="23.942867"
       cy="205.61229"
       rx="1.7552135"
       ry="1.7399799" />
  </g>
  <g
     inkscape:groupmode="layer"
     id="layer8"
     inkscape:label="text"
     style="display:none">
    <text
       id="text4994"
       y="281.19501"
       x="33.685417"
       style="font-style:normal;font-weight:normal;font-size:3.88055563px;line-height:125%;font-family:Sans;letter-spacing:0px;word-spacing:0px;fill:#000000;fill-opacity:1;stroke:none;stroke-width:0.26458332px;stroke-linecap:butt;stroke-linejoin:miter;stroke-opacity:1"
       xml:space="preserve"><tspan
         style="font-style:normal;font-variant:normal;font-weight:normal;font-stretch:normal;font-size:2.82222223px;font-family:sans-serif;-inkscape-font-specification:sans-serif;fill:#000000;fill-opacity:1;stroke-width:0.26458332px"
         y="281.19501"
         x="33.685417"
         id="tspan4992"
         sodipodi:role="line">lp out</tspan></text>
    <text
       xml:space="preserve"
       style="font-style:normal;font-weight:normal;font-size:3.88055563px;line-height:125%;font-family:Sans;letter-spacing:0px;word-spacing:0px;fill:#000000;fill-opacity:1;stroke:none;stroke-width:0.26458332px;stroke-linecap:butt;stroke-linejoin:miter;stroke-opacity:1"
       x="32.479698"
       y="190.05278"
       id="text5042"><tspan
         sodipodi:role="line"
         id="tspan5040"
         x="32.479698"
         y="190.05278"
         style="font-style:normal;font-variant:normal;font-weight:normal;font-stretch:normal;font-size:2.82222223px;font-family:sans-serif;-inkscape-font-specification:sans-serif;fill:#000000;fill-opacity:1;stroke-width:0.26458332px">ext coil</tspan></text>
    <text
       xml:space="preserve"
       style="font-style:normal;font-weight:normal;font-size:3.88055563px;line-height:125%;font-family:Sans;letter-spacing:0px;word-spacing:0px;fill:#000000;fill-opacity:1;stroke:none;stroke-width:0.26458332px;stroke-linecap:butt;stroke-linejoin:miter;stroke-opacity:1"
       x="16.126659"
       y="174.46991"
       id="text5074"><tspan
         sodipodi:role="line"
         id="tspan5072"
         x="16.126659"
         y="174.46991"
         style="stroke-width:0.26458332px">minidrum</tspan></text>
    <text
       xml:space="preserve"
       style="font-style:normal;font-weight:normal;font-size:3.88055563px;line-height:125%;font-family:Sans;letter-spacing:0px;word-spacing:0px;fill:#000000;fill-opacity:1;stroke:none;stroke-width:0.26458332px;stroke-linecap:butt;stroke-linejoin:miter;stroke-opacity:1"
       x="10.402099"
       y="190.04213"
       id="text5478"><tspan
         sodipodi:role="line"
         id="tspan5476"
         x="10.402099"
         y="190.04213"
         style="font-style:normal;font-variant:normal;font-weight:normal;font-stretch:normal;font-size:2.82222223px;font-family:sans-serif;-inkscape-font-specification:sans-serif;fill:#000000;fill-opacity:1;stroke-width:0.26458332px">trig in</tspan></text>
    <text
       xml:space="preserve"
       style="font-style:normal;font-weight:normal;font-size:3.88055563px;line-height:125%;font-family:Sans;letter-spacing:0px;word-spacing:0px;fill:#000000;fill-opacity:1;stroke:none;stroke-width:0.26458332px;stroke-linecap:butt;stroke-linejoin:miter;stroke-opacity:1"
       x="12.088673"
       y="281.10907"
       id="text5482"><tspan
         sodipodi:role="line"
         id="tspan5480"
         x="12.088673"
         y="281.10907"
         style="font-style:normal;font-variant:normal;font-weight:normal;font-stretch:normal;font-size:2.82222223px;font-family:sans-serif;-inkscape-font-specification:sans-serif;fill:#000000;fill-opacity:1;stroke-width:0.26458332px">out</tspan></text>
    <g
       style="display:inline;opacity:1"
       id="g1072"
       transform="rotate(90,34.269722,206.95197)">
      <text
         transform="rotate(-90)"
         id="text1070"
         y="31.578199"
         x="-198.40414"
         style="font-style:normal;font-weight:normal;font-size:10.58333302px;line-height:1.25;font-family:sans-serif;letter-spacing:0px;word-spacing:0px;fill:#000000;fill-opacity:1;stroke:none;stroke-width:0.26458332;stroke-opacity:1"
         xml:space="preserve"><tspan
           style="font-size:2.82222223px;stroke:none;stroke-width:0.26458332;stroke-opacity:1"
           y="31.578199"
           x="-198.40414"
           id="tspan1068"
           sodipodi:role="line">c/bd</tspan></text>
    </g>
    <text
       id="text1076"
       y="204.36932"
       x="27.715611"
       style="font-style:normal;font-weight:normal;font-size:10.58333302px;line-height:1.25;font-family:sans-serif;letter-spacing:0px;word-spacing:0px;display:inline;opacity:1;fill:#000000;fill-opacity:1;stroke:none;stroke-width:0.26458332;stroke-opacity:1"
       xml:space="preserve"><tspan
         style="font-size:2.82222223px;stroke:none;stroke-width:0.26458332;stroke-opacity:1"
         y="204.36932"
         x="27.715611"
         id="tspan1074"
         sodipodi:role="line">rim</tspan></text>
    <text
       id="text1156"
       y="243.12013"
       x="45.627625"
       style="font-style:normal;font-weight:normal;font-size:10.58333302px;line-height:0.1;font-family:sans-serif;letter-spacing:0px;word-spacing:0px;display:inline;opacity:1;fill:#000000;fill-opacity:1;stroke:none;stroke-width:0.26458332;stroke-opacity:1"
       xml:space="preserve"><tspan
         style="font-size:2.82222223px;line-height:0.1;text-align:center;text-anchor:middle;stroke:none;stroke-width:0.26458332;stroke-opacity:1"
         y="243.12013"
         x="45.627625"
         id="tspan1154"
         sodipodi:role="line">str8</tspan><tspan
         id="tspan1190"
         style="font-size:2.82222223px;line-height:0.1;text-align:center;text-anchor:middle;stroke:none;stroke-width:0.26458332;stroke-opacity:1"
         y="245.80647"
         x="45.627625"
         sodipodi:role="line">out</tspan></text>
    <text
       xml:space="preserve"
       style="font-style:normal;font-weight:normal;font-size:10.58333302px;line-height:0.1;font-family:sans-serif;letter-spacing:0px;word-spacing:0px;display:inline;opacity:1;fill:#000000;fill-opacity:1;stroke:none;stroke-width:0.26458332;stroke-opacity:1"
       x="45.149456"
       y="259.47333"
       id="text1198"><tspan
         sodipodi:role="line"
         id="tspan1194"
         x="45.149456"
         y="259.47333"
         style="font-size:2.82222223px;line-height:0.1;text-align:center;text-anchor:middle;stroke:none;stroke-width:0.26458332;stroke-opacity:1">hp</tspan><tspan
         sodipodi:role="line"
         x="45.149456"
         y="262.15967"
         style="font-size:2.82222223px;line-height:0.1;text-align:center;text-anchor:middle;stroke:none;stroke-width:0.26458332;stroke-opacity:1"
         id="tspan1196">out</tspan></text>
    <text
       id="text1206"
       y="259.47333"
       x="29.935917"
       style="font-style:normal;font-weight:normal;font-size:10.58333302px;line-height:0.1;font-family:sans-serif;letter-spacing:0px;word-spacing:0px;display:inline;opacity:1;fill:#000000;fill-opacity:1;stroke:none;stroke-width:0.26458332;stroke-opacity:1"
       xml:space="preserve"><tspan
         style="font-size:2.82222223px;line-height:0.1;text-align:center;text-anchor:middle;stroke:none;stroke-width:0.26458332;stroke-opacity:1"
         y="259.47333"
         x="29.935917"
         id="tspan1202"
         sodipodi:role="line">lp</tspan><tspan
         id="tspan1204"
         style="font-size:2.82222223px;line-height:0.1;text-align:center;text-anchor:middle;stroke:none;stroke-width:0.26458332;stroke-opacity:1"
         y="262.15967"
         x="29.935917"
         sodipodi:role="line">out</tspan></text>
    <text
       id="text1212"
       y="196.28545"
       x="46.232998"
       style="font-style:normal;font-weight:normal;font-size:10.58333302px;line-height:0.1;font-family:sans-serif;letter-spacing:0px;word-spacing:0px;display:inline;opacity:1;fill:#000000;fill-opacity:1;stroke:none;stroke-width:0.26458332;stroke-opacity:1"
       xml:space="preserve"><tspan
         id="tspan1210"
         style="font-size:2.82222223px;line-height:0.1;text-align:center;text-anchor:middle;stroke:none;stroke-width:0.26458332;stroke-opacity:1"
         y="196.28545"
         x="46.232998"
         sodipodi:role="line">hp in</tspan></text>
    <text
       xml:space="preserve"
       style="font-style:normal;font-weight:normal;font-size:10.58333302px;line-height:0.1;font-family:sans-serif;letter-spacing:0px;word-spacing:0px;display:inline;opacity:1;fill:#000000;fill-opacity:1;stroke:none;stroke-width:0.26458332;stroke-opacity:1"
       x="29.42713"
       y="196.28062"
       id="text1227"><tspan
         sodipodi:role="line"
         x="29.42713"
         y="196.28062"
         style="font-size:2.82222223px;line-height:0.1;text-align:center;text-anchor:middle;stroke:none;stroke-width:0.26458332;stroke-opacity:1"
         id="tspan1225">lp in</tspan></text>
    <g
       style="display:inline;opacity:1"
       id="g1251"
       transform="rotate(90,18.96275,222.0325)">
      <text
         transform="rotate(-90)"
         id="text1249"
         y="31.578199"
         x="-195.54126"
         style="font-style:normal;font-weight:normal;font-size:10.58333302px;line-height:0.1;font-family:sans-serif;letter-spacing:0px;word-spacing:0px;fill:#000000;fill-opacity:1;stroke:none;stroke-width:0.26458332;stroke-opacity:1"
         xml:space="preserve"><tspan
           style="font-size:2.82222223px;line-height:0.1;text-align:center;text-anchor:middle;stroke:none;stroke-width:0.26458332;stroke-opacity:1"
           y="31.578199"
           x="-195.54126"
           id="tspan1245"
           sodipodi:role="line">cap</tspan><tspan
           id="tspan1247"
           style="font-size:2.82222223px;line-height:0.1;text-align:center;text-anchor:middle;stroke:none;stroke-width:0.26458332;stroke-opacity:1"
           y="34.264545"
           x="-195.54126"
           sodipodi:role="line">11</tspan></text>
    </g>
    <text
       id="text1257"
       y="226.82277"
       x="45.341694"
       style="font-style:normal;font-weight:normal;font-size:10.58333302px;line-height:0.1;font-family:sans-serif;letter-spacing:0px;word-spacing:0px;display:inline;opacity:1;fill:#000000;fill-opacity:1;stroke:none;stroke-width:0.26458332;stroke-opacity:1"
       xml:space="preserve"><tspan
         style="font-size:2.82222223px;line-height:0.1;text-align:center;text-anchor:middle;stroke:none;stroke-width:0.26458332;stroke-opacity:1"
         y="226.82277"
         x="45.341694"
         id="tspan1253"
         sodipodi:role="line">cap</tspan><tspan
         id="tspan1255"
         style="font-size:2.82222223px;line-height:0.1;text-align:center;text-anchor:middle;stroke:none;stroke-width:0.26458332;stroke-opacity:1"
         y="229.50911"
         x="45.341694"
         sodipodi:role="line">8</tspan></text>
    <text
       xml:space="preserve"
       style="font-style:normal;font-weight:normal;font-size:10.58333302px;line-height:0.1;font-family:sans-serif;letter-spacing:0px;word-spacing:0px;display:inline;opacity:1;fill:#000000;fill-opacity:1;stroke:none;stroke-width:0.26458332;stroke-opacity:1"
       x="45.341694"
       y="251.29683"
       id="text1265"><tspan
         sodipodi:role="line"
         id="tspan1261"
         x="45.341694"
         y="251.29683"
         style="font-size:2.82222223px;line-height:0.1;text-align:center;text-anchor:middle;stroke:none;stroke-width:0.26458332;stroke-opacity:1">cap</tspan><tspan
         sodipodi:role="line"
         x="45.341694"
         y="253.98317"
         style="font-size:2.82222223px;line-height:0.1;text-align:center;text-anchor:middle;stroke:none;stroke-width:0.26458332;stroke-opacity:1"
         id="tspan1263">6</tspan></text>
    <text
       xml:space="preserve"
       style="font-style:normal;font-weight:normal;font-size:10.58333302px;line-height:0.1;font-family:sans-serif;letter-spacing:0px;word-spacing:0px;display:inline;opacity:1;fill:#000000;fill-opacity:1;stroke:none;stroke-width:0.26458332;stroke-opacity:1"
       x="45.225681"
       y="218.97641"
       id="text1271"><tspan
         sodipodi:role="line"
         x="45.225681"
         y="218.97641"
         style="font-size:2.82222223px;line-height:0.1;text-align:center;text-anchor:middle;stroke:none;stroke-width:0.26458332;stroke-opacity:1"
         id="tspan1269">coil</tspan><tspan
         sodipodi:role="line"
         x="45.225681"
         y="221.66275"
         style="font-size:2.82222223px;line-height:0.1;text-align:center;text-anchor:middle;stroke:none;stroke-width:0.26458332;stroke-opacity:1"
         id="tspan994">1</tspan></text>
    <text
       id="text1286"
       y="211.0499"
       x="45.236706"
       style="font-style:normal;font-weight:normal;font-size:10.58333302px;line-height:0.1;font-family:sans-serif;letter-spacing:0px;word-spacing:0px;display:inline;opacity:1;fill:#000000;fill-opacity:1;stroke:none;stroke-width:0.26458332;stroke-opacity:1"
       xml:space="preserve"><tspan
         id="tspan1284"
         style="font-size:2.82222223px;line-height:0.1;text-align:center;text-anchor:middle;stroke:none;stroke-width:0.26458332;stroke-opacity:1"
         y="211.0499"
         x="45.236706"
         sodipodi:role="line">coil</tspan><tspan
         style="font-size:2.82222223px;line-height:0.1;text-align:center;text-anchor:middle;stroke:none;stroke-width:0.26458332;stroke-opacity:1"
         y="213.73624"
         x="45.236706"
         sodipodi:role="line"
         id="tspan996">2</tspan></text>
  </g>
  <g
     style="display:inline"
     inkscape:label="text path"
     id="g6019"
     inkscape:groupmode="layer">
    <g
       aria-label="lp out"
       style="font-style:normal;font-weight:normal;font-size:3.88055563px;line-height:125%;font-family:Sans;letter-spacing:0px;word-spacing:0px;fill:#000000;fill-opacity:1;stroke:none;stroke-width:0.26458332px;stroke-linecap:butt;stroke-linejoin:miter;stroke-opacity:1"
       id="text5933">
      <path
         d="m 33.951379,279.05078 h 0.253559 v 2.14423 h -0.253559 z"
         style="font-style:normal;font-variant:normal;font-weight:normal;font-stretch:normal;font-size:2.82222223px;font-family:sans-serif;-inkscape-font-specification:sans-serif;fill:#000000;fill-opacity:1;stroke-width:0.26458332px"
         id="path6195"
         inkscape:connector-curvature="0" />
      <path
         d="m 34.979395,280.9635 v 0.81855 h -0.254937 v -2.13045 h 0.254937 v 0.23427 q 0.07993,-0.1378 0.201194,-0.20395 0.122645,-0.0675 0.292144,-0.0675 0.28112,0 0.45613,0.22324 0.176389,0.22324 0.176389,0.58704 0,0.36381 -0.176389,0.58705 -0.17501,0.22324 -0.45613,0.22324 -0.169499,0 -0.292144,-0.0661 -0.121268,-0.0675 -0.201194,-0.20532 z m 0.862652,-0.53882 q 0,-0.27974 -0.115755,-0.43821 -0.114377,-0.15985 -0.315571,-0.15985 -0.201194,0 -0.316949,0.15985 -0.114377,0.15847 -0.114377,0.43821 0,0.27975 0.114377,0.4396 0.115755,0.15847 0.316949,0.15847 0.201194,0 0.315571,-0.15847 0.115755,-0.15985 0.115755,-0.4396 z"
         style="font-style:normal;font-variant:normal;font-weight:normal;font-stretch:normal;font-size:2.82222223px;font-family:sans-serif;-inkscape-font-specification:sans-serif;fill:#000000;fill-opacity:1;stroke-width:0.26458332px"
         id="path6197"
         inkscape:connector-curvature="0" />
      <path
         d="m 38.022103,279.82937 q -0.203949,0 -0.322461,0.15985 -0.118511,0.15848 -0.118511,0.43546 0,0.27699 0.117133,0.43684 0.118512,0.15848 0.323839,0.15848 0.202572,0 0.321083,-0.15986 0.118512,-0.15985 0.118512,-0.43546 0,-0.27423 -0.118512,-0.43408 -0.118511,-0.16123 -0.321083,-0.16123 z m 0,-0.21497 q 0.33073,0 0.519521,0.21497 0.188791,0.21498 0.188791,0.59531 0,0.37896 -0.188791,0.59532 -0.188791,0.21497 -0.519521,0.21497 -0.332107,0 -0.520898,-0.21497 -0.187413,-0.21636 -0.187413,-0.59532 0,-0.38033 0.187413,-0.59531 0.188791,-0.21497 0.520898,-0.21497 z"
         style="font-style:normal;font-variant:normal;font-weight:normal;font-stretch:normal;font-size:2.82222223px;font-family:sans-serif;-inkscape-font-specification:sans-serif;fill:#000000;fill-opacity:1;stroke-width:0.26458332px"
         id="path6199"
         inkscape:connector-curvature="0" />
      <path
         d="m 39.123156,280.58591 v -0.93431 h 0.253559 v 0.92467 q 0,0.21911 0.08544,0.32935 0.08544,0.10886 0.256315,0.10886 0.205328,0 0.323839,-0.13091 0.11989,-0.13091 0.11989,-0.35691 v -0.87506 h 0.253559 v 1.54341 h -0.253559 v -0.23703 q -0.09233,0.14056 -0.214974,0.20947 -0.121268,0.0675 -0.282498,0.0675 -0.265962,0 -0.403765,-0.16536 -0.137804,-0.16537 -0.137804,-0.4837 z"
         style="font-style:normal;font-variant:normal;font-weight:normal;font-stretch:normal;font-size:2.82222223px;font-family:sans-serif;-inkscape-font-specification:sans-serif;fill:#000000;fill-opacity:1;stroke-width:0.26458332px"
         id="path6201"
         inkscape:connector-curvature="0" />
      <path
         d="m 41.191591,279.21339 v 0.43821 h 0.522276 v 0.19706 h -0.522276 v 0.83785 q 0,0.18879 0.05099,0.24254 0.05237,0.0537 0.21084,0.0537 h 0.260449 v 0.21222 h -0.260449 q -0.293522,0 -0.405143,-0.10887 -0.111621,-0.11024 -0.111621,-0.39963 v -0.83785 h -0.186035 v -0.19706 h 0.186035 v -0.43821 z"
         style="font-style:normal;font-variant:normal;font-weight:normal;font-stretch:normal;font-size:2.82222223px;font-family:sans-serif;-inkscape-font-specification:sans-serif;fill:#000000;fill-opacity:1;stroke-width:0.26458332px"
         id="path6203"
         inkscape:connector-curvature="0" />
    </g>
    <g
       aria-label="ext coil"
       style="font-style:normal;font-weight:normal;font-size:3.88055563px;line-height:125%;font-family:Sans;letter-spacing:0px;word-spacing:0px;fill:#000000;fill-opacity:1;stroke:none;stroke-width:0.26458332px;stroke-linecap:butt;stroke-linejoin:miter;stroke-opacity:1"
       id="text5937">
      <path
         d="m 34.06582,189.21769 v 0.12402 H 32.9 q 0.01654,0.26183 0.157096,0.39963 0.141938,0.13643 0.394119,0.13643 0.146072,0 0.282498,-0.0358 0.137804,-0.0358 0.272852,-0.10749 v 0.23978 q -0.136426,0.0579 -0.279742,0.0882 -0.143316,0.0303 -0.290766,0.0303 -0.369315,0 -0.585667,-0.21497 -0.214974,-0.21497 -0.214974,-0.58153 0,-0.37896 0.20395,-0.60083 0.205328,-0.22324 0.552593,-0.22324 0.311437,0 0.49196,0.20119 0.181901,0.19982 0.181901,0.54433 z m -0.253559,-0.0744 q -0.0028,-0.20808 -0.117133,-0.3321 -0.112999,-0.12403 -0.300412,-0.12403 -0.212218,0 -0.340376,0.11989 -0.126779,0.11989 -0.146072,0.33762 z"
         style="font-style:normal;font-variant:normal;font-weight:normal;font-stretch:normal;font-size:2.82222223px;font-family:sans-serif;-inkscape-font-specification:sans-serif;fill:#000000;fill-opacity:1;stroke-width:0.26458332px"
         id="path6180"
         inkscape:connector-curvature="0" />
      <path
         d="m 35.718088,188.50938 -0.558106,0.75103 0.587045,0.79237 h -0.299035 l -0.44924,-0.60634 -0.44924,0.60634 h -0.299035 l 0.599447,-0.80753 -0.548459,-0.73587 h 0.299034 l 0.409277,0.54983 0.409278,-0.54983 z"
         style="font-style:normal;font-variant:normal;font-weight:normal;font-stretch:normal;font-size:2.82222223px;font-family:sans-serif;-inkscape-font-specification:sans-serif;fill:#000000;fill-opacity:1;stroke-width:0.26458332px"
         id="path6182"
         inkscape:connector-curvature="0" />
      <path
         d="m 36.358876,188.07116 v 0.43822 h 0.522276 v 0.19706 h -0.522276 v 0.83784 q 0,0.1888 0.05099,0.24254 0.05237,0.0537 0.21084,0.0537 h 0.260449 v 0.21222 h -0.260449 q -0.293522,0 -0.405143,-0.10886 -0.111621,-0.11025 -0.111621,-0.39964 v -0.83784 h -0.186036 v -0.19706 h 0.186036 v -0.43822 z"
         style="font-style:normal;font-variant:normal;font-weight:normal;font-stretch:normal;font-size:2.82222223px;font-family:sans-serif;-inkscape-font-specification:sans-serif;fill:#000000;fill-opacity:1;stroke-width:0.26458332px"
         id="path6184"
         inkscape:connector-curvature="0" />
      <path
         d="m 39.225195,188.56863 v 0.23703 q -0.107487,-0.0593 -0.216352,-0.0882 -0.107487,-0.0303 -0.21773,-0.0303 -0.246669,0 -0.383094,0.1571 -0.136426,0.15572 -0.136426,0.43822 0,0.28249 0.136426,0.43959 0.136425,0.15572 0.383094,0.15572 0.110243,0 0.21773,-0.0289 0.108865,-0.0303 0.216352,-0.0896 v 0.23426 q -0.106109,0.0496 -0.220486,0.0744 -0.112999,0.0248 -0.241157,0.0248 -0.348643,0 -0.553971,-0.2191 -0.205328,-0.21911 -0.205328,-0.59118 0,-0.37759 0.206706,-0.59394 0.208084,-0.21635 0.56913,-0.21635 0.117133,0 0.228754,0.0248 0.111621,0.0234 0.216352,0.0717 z"
         style="font-style:normal;font-variant:normal;font-weight:normal;font-stretch:normal;font-size:2.82222223px;font-family:sans-serif;-inkscape-font-specification:sans-serif;fill:#000000;fill-opacity:1;stroke-width:0.26458332px"
         id="path6186"
         inkscape:connector-curvature="0" />
      <path
         d="m 40.266992,188.68714 q -0.203949,0 -0.322461,0.15986 -0.118511,0.15847 -0.118511,0.43546 0,0.27698 0.117133,0.43683 0.118511,0.15848 0.323839,0.15848 0.202572,0 0.321083,-0.15985 0.118511,-0.15986 0.118511,-0.43546 0,-0.27423 -0.118511,-0.43409 -0.118511,-0.16123 -0.321083,-0.16123 z m 0,-0.21497 q 0.330729,0 0.519521,0.21497 0.188791,0.21498 0.188791,0.59532 0,0.37896 -0.188791,0.59531 -0.188792,0.21497 -0.519521,0.21497 -0.332107,0 -0.520898,-0.21497 -0.187413,-0.21635 -0.187413,-0.59531 0,-0.38034 0.187413,-0.59532 0.188791,-0.21497 0.520898,-0.21497 z"
         style="font-style:normal;font-variant:normal;font-weight:normal;font-stretch:normal;font-size:2.82222223px;font-family:sans-serif;-inkscape-font-specification:sans-serif;fill:#000000;fill-opacity:1;stroke-width:0.26458332px"
         id="path6188"
         inkscape:connector-curvature="0" />
      <path
         d="m 41.394227,188.50938 h 0.253559 v 1.5434 h -0.253559 z m 0,-0.60083 h 0.253559 v 0.32109 h -0.253559 z"
         style="font-style:normal;font-variant:normal;font-weight:normal;font-stretch:normal;font-size:2.82222223px;font-family:sans-serif;-inkscape-font-specification:sans-serif;fill:#000000;fill-opacity:1;stroke-width:0.26458332px"
         id="path6190"
         inkscape:connector-curvature="0" />
      <path
         d="m 42.176953,187.90855 h 0.253559 v 2.14423 h -0.253559 z"
         style="font-style:normal;font-variant:normal;font-weight:normal;font-stretch:normal;font-size:2.82222223px;font-family:sans-serif;-inkscape-font-specification:sans-serif;fill:#000000;fill-opacity:1;stroke-width:0.26458332px"
         id="path6192"
         inkscape:connector-curvature="0" />
    </g>
    <g
       aria-label="minidrum"
       style="font-style:normal;font-weight:normal;font-size:3.88055563px;line-height:125%;font-family:Sans;letter-spacing:0px;word-spacing:0px;fill:#000000;fill-opacity:1;stroke:none;stroke-width:0.26458332px;stroke-linecap:butt;stroke-linejoin:miter;stroke-opacity:1"
       id="text5941">
      <path
         d="m 18.144624,172.75511 q 0.130741,-0.23495 0.312643,-0.34675 0.181901,-0.11179 0.428225,-0.11179 0.33159,0 0.511597,0.23306 0.180006,0.23117 0.180006,0.65939 v 1.28089 h -0.350539 v -1.26952 q 0,-0.30506 -0.108003,-0.45286 -0.108004,-0.14779 -0.329696,-0.14779 -0.270957,0 -0.428225,0.18001 -0.157269,0.18 -0.157269,0.49075 v 1.19941 h -0.350538 v -1.26952 q 0,-0.30696 -0.108004,-0.45286 -0.108004,-0.14779 -0.333485,-0.14779 -0.267168,0 -0.424436,0.1819 -0.157269,0.18001 -0.157269,0.48886 v 1.19941 h -0.350538 v -2.12218 h 0.350538 v 0.3297 q 0.119373,-0.19517 0.286115,-0.28801 0.166743,-0.0928 0.396014,-0.0928 0.231166,0 0.392224,0.11748 0.162953,0.11748 0.24064,0.34106 z"
         style="stroke-width:0.26458332px"
         id="path6163"
         inkscape:connector-curvature="0" />
      <path
         d="m 20.274382,172.34773 h 0.348644 v 2.12218 h -0.348644 z m 0,-0.82613 h 0.348644 v 0.44149 h -0.348644 z"
         style="stroke-width:0.26458332px"
         id="path6165"
         inkscape:connector-curvature="0" />
      <path
         d="m 23.114691,173.18902 v 1.28089 h -0.348644 v -1.26952 q 0,-0.30127 -0.117477,-0.45096 -0.117478,-0.14969 -0.352434,-0.14969 -0.282325,0 -0.445278,0.18001 -0.162953,0.18 -0.162953,0.49075 v 1.19941 h -0.350539 v -2.12218 h 0.350539 v 0.3297 q 0.125057,-0.19138 0.293694,-0.28612 0.170532,-0.0947 0.392224,-0.0947 0.365697,0 0.553283,0.22738 0.187585,0.22548 0.187585,0.66507 z"
         style="stroke-width:0.26458332px"
         id="path6167"
         inkscape:connector-curvature="0" />
      <path
         d="m 23.813873,172.34773 h 0.348644 v 2.12218 h -0.348644 z m 0,-0.82613 h 0.348644 v 0.44149 h -0.348644 z"
         style="stroke-width:0.26458332px"
         id="path6169"
         inkscape:connector-curvature="0" />
      <path
         d="m 26.28659,172.66985 v -1.14825 h 0.348644 v 2.94831 H 26.28659 v -0.31833 q -0.109899,0.18948 -0.278536,0.28233 -0.166743,0.0909 -0.401698,0.0909 -0.384645,0 -0.62718,-0.30696 -0.24064,-0.30696 -0.24064,-0.80718 0,-0.50023 0.24064,-0.80719 0.242535,-0.30696 0.62718,-0.30696 0.234955,0 0.401698,0.0928 0.168637,0.0909 0.278536,0.28043 z m -1.188041,0.74087 q 0,0.38464 0.157268,0.60444 0.159164,0.2179 0.435805,0.2179 0.276641,0 0.435805,-0.2179 0.159163,-0.2198 0.159163,-0.60444 0,-0.38465 -0.159163,-0.60255 -0.159164,-0.2198 -0.435805,-0.2198 -0.276641,0 -0.435805,0.2198 -0.157268,0.2179 -0.157268,0.60255 z"
         style="stroke-width:0.26458332px"
         id="path6171"
         inkscape:connector-curvature="0" />
      <path
         d="m 28.583091,172.67364 q -0.05874,-0.0341 -0.128847,-0.0493 -0.06821,-0.0171 -0.151584,-0.0171 -0.295589,0 -0.454753,0.19327 -0.157268,0.19137 -0.157268,0.55139 v 1.11793 H 27.3401 v -2.12218 h 0.350539 v 0.3297 q 0.109898,-0.19327 0.286115,-0.28612 0.176217,-0.0947 0.428225,-0.0947 0.036,0 0.07958,0.006 0.04358,0.004 0.09663,0.0133 z"
         style="stroke-width:0.26458332px"
         id="path6173"
         inkscape:connector-curvature="0" />
      <path
         d="m 28.916576,173.63241 v -1.28468 h 0.348644 v 1.27141 q 0,0.30128 0.117478,0.45286 0.117478,0.14969 0.352433,0.14969 0.282326,0 0.445279,-0.18001 0.164847,-0.18 0.164847,-0.49075 v -1.2032 h 0.348644 v 2.12218 H 30.345257 V 174.144 q -0.126951,0.19327 -0.295589,0.28801 -0.166742,0.0928 -0.388434,0.0928 -0.365697,0 -0.555177,-0.22738 -0.189481,-0.22737 -0.189481,-0.66507 z"
         style="stroke-width:0.26458332px"
         id="path6175"
         inkscape:connector-curvature="0" />
      <path
         d="m 33.068089,172.75511 q 0.130741,-0.23495 0.312642,-0.34675 0.181901,-0.11179 0.428226,-0.11179 0.33159,0 0.511596,0.23306 0.180007,0.23117 0.180007,0.65939 v 1.28089 h -0.350539 v -1.26952 q 0,-0.30506 -0.108004,-0.45286 -0.108003,-0.14779 -0.329695,-0.14779 -0.270957,0 -0.428226,0.18001 -0.157268,0.18 -0.157268,0.49075 v 1.19941 h -0.350539 v -1.26952 q 0,-0.30696 -0.108003,-0.45286 -0.108004,-0.14779 -0.333486,-0.14779 -0.267167,0 -0.424435,0.1819 -0.157269,0.18001 -0.157269,0.48886 v 1.19941 h -0.350539 v -2.12218 h 0.350539 v 0.3297 q 0.119372,-0.19517 0.286115,-0.28801 0.166743,-0.0928 0.396014,-0.0928 0.231166,0 0.392224,0.11748 0.162953,0.11748 0.24064,0.34106 z"
         style="stroke-width:0.26458332px"
         id="path6177"
         inkscape:connector-curvature="0" />
    </g>
    <g
       aria-label="trig in"
       style="font-style:normal;font-weight:normal;font-size:3.88055563px;line-height:125%;font-family:Sans;letter-spacing:0px;word-spacing:0px;fill:#000000;fill-opacity:1;stroke:none;stroke-width:0.26458332px;stroke-linecap:butt;stroke-linejoin:miter;stroke-opacity:1"
       id="text5945">
      <path
         d="m 10.918863,188.06051 v 0.43822 h 0.522276 v 0.19706 h -0.522276 v 0.83784 q 0,0.18879 0.05099,0.24254 0.05237,0.0537 0.21084,0.0537 h 0.260449 v 0.21222 H 11.18069 q -0.293522,0 -0.405143,-0.10887 -0.111621,-0.11024 -0.111621,-0.39963 v -0.83784 h -0.186035 v -0.19706 h 0.186035 v -0.43822 z"
         style="font-style:normal;font-variant:normal;font-weight:normal;font-stretch:normal;font-size:2.82222223px;font-family:sans-serif;-inkscape-font-specification:sans-serif;fill:#000000;fill-opacity:1;stroke-width:0.26458332px"
         id="path6150"
         inkscape:connector-curvature="0" />
      <path
         d="m 12.67035,188.73575 q -0.04272,-0.0248 -0.09371,-0.0358 -0.04961,-0.0124 -0.110243,-0.0124 -0.214974,0 -0.330729,0.14056 -0.114377,0.13918 -0.114377,0.40101 v 0.81304 h -0.254938 v -1.5434 h 0.254938 v 0.23978 q 0.07993,-0.14056 0.208083,-0.20809 0.128158,-0.0689 0.311437,-0.0689 0.02618,0 0.05788,0.004 0.03169,0.003 0.07028,0.01 z"
         style="font-style:normal;font-variant:normal;font-weight:normal;font-stretch:normal;font-size:2.82222223px;font-family:sans-serif;-inkscape-font-specification:sans-serif;fill:#000000;fill-opacity:1;stroke-width:0.26458332px"
         id="path6152"
         inkscape:connector-curvature="0" />
      <path
         d="m 12.939067,188.49873 h 0.253559 v 1.5434 h -0.253559 z m 0,-0.60083 h 0.253559 v 0.32108 h -0.253559 z"
         style="font-style:normal;font-variant:normal;font-weight:normal;font-stretch:normal;font-size:2.82222223px;font-family:sans-serif;-inkscape-font-specification:sans-serif;fill:#000000;fill-opacity:1;stroke-width:0.26458332px"
         id="path6154"
         inkscape:connector-curvature="0" />
      <path
         d="m 14.737407,189.25251 q 0,-0.2756 -0.114377,-0.42719 -0.112999,-0.15158 -0.318327,-0.15158 -0.20395,0 -0.318327,0.15158 -0.112999,0.15159 -0.112999,0.42719 0,0.27423 0.112999,0.42582 0.114377,0.15158 0.318327,0.15158 0.205328,0 0.318327,-0.15158 0.114377,-0.15159 0.114377,-0.42582 z m 0.253559,0.59807 q 0,0.39412 -0.175011,0.58567 -0.175011,0.19292 -0.536057,0.19292 -0.13367,0 -0.252181,-0.0207 -0.118511,-0.0193 -0.230132,-0.0606 v -0.24667 q 0.111621,0.0606 0.220486,0.0896 0.108865,0.0289 0.221864,0.0289 0.249425,0 0.373448,-0.13091 0.124024,-0.12954 0.124024,-0.39274 v -0.1254 q -0.07855,0.13642 -0.201194,0.20395 -0.122645,0.0675 -0.293522,0.0675 -0.283876,0 -0.457509,-0.21635 -0.173632,-0.21635 -0.173632,-0.57327 0,-0.35829 0.173632,-0.57464 0.173633,-0.21635 0.457509,-0.21635 0.170877,0 0.293522,0.0675 0.122646,0.0675 0.201194,0.20395 v -0.23426 h 0.253559 z"
         style="font-style:normal;font-variant:normal;font-weight:normal;font-stretch:normal;font-size:2.82222223px;font-family:sans-serif;-inkscape-font-specification:sans-serif;fill:#000000;fill-opacity:1;stroke-width:0.26458332px"
         id="path6156"
         inkscape:connector-curvature="0" />
      <path
         d="m 16.411723,188.49873 h 0.253559 v 1.5434 h -0.253559 z m 0,-0.60083 h 0.253559 v 0.32108 h -0.253559 z"
         style="font-style:normal;font-variant:normal;font-weight:normal;font-stretch:normal;font-size:2.82222223px;font-family:sans-serif;-inkscape-font-specification:sans-serif;fill:#000000;fill-opacity:1;stroke-width:0.26458332px"
         id="path6158"
         inkscape:connector-curvature="0" />
      <path
         d="m 18.477403,189.11058 v 0.93155 h -0.253559 v -0.92329 q 0,-0.2191 -0.08544,-0.32797 -0.08544,-0.10886 -0.256315,-0.10886 -0.205327,0 -0.323839,0.13091 -0.118511,0.13091 -0.118511,0.35691 v 0.8723 h -0.254937 v -1.5434 h 0.254937 v 0.23978 q 0.09095,-0.13919 0.213596,-0.20809 0.124023,-0.0689 0.285254,-0.0689 0.265961,0 0.402387,0.16536 0.136426,0.16399 0.136426,0.4837 z"
         style="font-style:normal;font-variant:normal;font-weight:normal;font-stretch:normal;font-size:2.82222223px;font-family:sans-serif;-inkscape-font-specification:sans-serif;fill:#000000;fill-opacity:1;stroke-width:0.26458332px"
         id="path6160"
         inkscape:connector-curvature="0" />
    </g>
    <g
       aria-label="out"
       style="font-style:normal;font-weight:normal;font-size:3.88055563px;line-height:125%;font-family:Sans;letter-spacing:0px;word-spacing:0px;fill:#000000;fill-opacity:1;stroke:none;stroke-width:0.26458332px;stroke-linecap:butt;stroke-linejoin:miter;stroke-opacity:1"
       id="text5949">
      <path
         d="m 12.952703,279.74343 q -0.20395,0 -0.322461,0.15986 -0.118512,0.15847 -0.118512,0.43546 0,0.27698 0.117134,0.43683 0.118511,0.15848 0.323839,0.15848 0.202571,0 0.321082,-0.15985 0.118512,-0.15986 0.118512,-0.43546 0,-0.27423 -0.118512,-0.43409 -0.118511,-0.16123 -0.321082,-0.16123 z m 0,-0.21497 q 0.330729,0 0.51952,0.21497 0.188791,0.21498 0.188791,0.59532 0,0.37896 -0.188791,0.59531 -0.188791,0.21497 -0.51952,0.21497 -0.332108,0 -0.520899,-0.21497 -0.187413,-0.21635 -0.187413,-0.59531 0,-0.38034 0.187413,-0.59532 0.188791,-0.21497 0.520899,-0.21497 z"
         style="font-style:normal;font-variant:normal;font-weight:normal;font-stretch:normal;font-size:2.82222223px;font-family:sans-serif;-inkscape-font-specification:sans-serif;fill:#000000;fill-opacity:1;stroke-width:0.26458332px"
         id="path6143"
         inkscape:connector-curvature="0" />
      <path
         d="m 14.053755,280.49998 v -0.93431 h 0.253559 v 0.92466 q 0,0.21911 0.08544,0.32935 0.08544,0.10887 0.256316,0.10887 0.205327,0 0.323839,-0.13092 0.119889,-0.13091 0.119889,-0.35691 v -0.87505 h 0.253559 v 1.5434 h -0.253559 v -0.23702 q -0.09233,0.14056 -0.214974,0.20946 -0.121267,0.0675 -0.282498,0.0675 -0.265961,0 -0.403765,-0.16536 -0.137804,-0.16537 -0.137804,-0.48369 z"
         style="font-style:normal;font-variant:normal;font-weight:normal;font-stretch:normal;font-size:2.82222223px;font-family:sans-serif;-inkscape-font-specification:sans-serif;fill:#000000;fill-opacity:1;stroke-width:0.26458332px"
         id="path6145"
         inkscape:connector-curvature="0" />
      <path
         d="m 16.12219,279.12745 v 0.43822 h 0.522277 v 0.19706 H 16.12219 v 0.83784 q 0,0.18879 0.05099,0.24254 0.05236,0.0537 0.21084,0.0537 h 0.260449 v 0.21222 H 16.38402 q -0.293522,0 -0.405144,-0.10887 -0.111621,-0.11024 -0.111621,-0.39963 v -0.83784 H 15.68122 v -0.19706 h 0.186035 v -0.43822 z"
         style="font-style:normal;font-variant:normal;font-weight:normal;font-stretch:normal;font-size:2.82222223px;font-family:sans-serif;-inkscape-font-specification:sans-serif;fill:#000000;fill-opacity:1;stroke-width:0.26458332px"
         id="path6147"
         inkscape:connector-curvature="0" />
    </g>
    <g
       transform="rotate(90,34.269722,206.95197)"
       id="g5955"
       style="display:inline;opacity:1">
      <g
         aria-label="c/bd"
         transform="rotate(-90)"
         style="font-style:normal;font-weight:normal;font-size:10.58333302px;line-height:1.25;font-family:sans-serif;letter-spacing:0px;word-spacing:0px;fill:#000000;fill-opacity:1;stroke:none;stroke-width:0.26458332;stroke-opacity:1"
         id="text5953">
        <path
           d="m -197.02748,30.094052 v 0.237023 q -0.10749,-0.05926 -0.21636,-0.08819 -0.10748,-0.03032 -0.21773,-0.03032 -0.24666,0 -0.38309,0.157096 -0.13643,0.155718 -0.13643,0.438216 0,0.282498 0.13643,0.439594 0.13643,0.155719 0.38309,0.155719 0.11025,0 0.21773,-0.02894 0.10887,-0.03032 0.21636,-0.08957 v 0.234267 q -0.10611,0.04961 -0.22049,0.07441 -0.113,0.0248 -0.24116,0.0248 -0.34864,0 -0.55397,-0.219108 -0.20533,-0.219108 -0.20533,-0.591178 0,-0.377582 0.20671,-0.593934 0.20808,-0.216352 0.56913,-0.216352 0.11713,0 0.22875,0.0248 0.11162,0.02343 0.21636,0.07166 z"
           style="font-size:2.82222223px;stroke:none;stroke-width:0.26458332;stroke-opacity:1"
           id="path6134"
           inkscape:connector-curvature="0" />
        <path
           d="m -196.13314,29.520788 h 0.23427 l -0.71658,2.319239 h -0.23427 z"
           style="font-size:2.82222223px;stroke:none;stroke-width:0.26458332;stroke-opacity:1"
           id="path6136"
           inkscape:connector-curvature="0" />
        <path
           d="m -194.52221,30.807876 q 0,-0.279742 -0.11576,-0.438216 -0.11437,-0.159853 -0.31557,-0.159853 -0.20119,0 -0.31695,0.159853 -0.11437,0.158474 -0.11437,0.438216 0,0.279742 0.11437,0.439594 0.11576,0.158475 0.31695,0.158475 0.2012,0 0.31557,-0.158475 0.11576,-0.159852 0.11576,-0.439594 z m -0.86265,-0.538813 q 0.0799,-0.137804 0.20119,-0.20395 0.12265,-0.06752 0.29215,-0.06752 0.28111,0 0.45613,0.223242 0.17638,0.223242 0.17638,0.587044 0,0.363802 -0.17638,0.587044 -0.17502,0.223242 -0.45613,0.223242 -0.1695,0 -0.29215,-0.06615 -0.12127,-0.06752 -0.20119,-0.205328 v 0.23151 h -0.25494 V 29.43397 h 0.25494 z"
           style="font-size:2.82222223px;stroke:none;stroke-width:0.26458332;stroke-opacity:1"
           id="path6138"
           inkscape:connector-curvature="0" />
        <path
           d="m -192.82309,30.269063 v -0.835091 h 0.25356 v 2.144227 h -0.25356 v -0.23151 q -0.0799,0.137804 -0.20257,0.205328 -0.12127,0.06615 -0.29214,0.06615 -0.27975,0 -0.45614,-0.223242 -0.17501,-0.223242 -0.17501,-0.587044 0,-0.363802 0.17501,-0.587044 0.17639,-0.223242 0.45614,-0.223242 0.17087,0 0.29214,0.06752 0.12264,0.06615 0.20257,0.20395 z m -0.86403,0.538813 q 0,0.279742 0.11438,0.439594 0.11575,0.158475 0.31695,0.158475 0.20119,0 0.31695,-0.158475 0.11575,-0.159852 0.11575,-0.439594 0,-0.279742 -0.11575,-0.438216 -0.11576,-0.159853 -0.31695,-0.159853 -0.2012,0 -0.31695,0.159853 -0.11438,0.158474 -0.11438,0.438216 z"
           style="font-size:2.82222223px;stroke:none;stroke-width:0.26458332;stroke-opacity:1"
           id="path6140"
           inkscape:connector-curvature="0" />
      </g>
    </g>
    <g
       aria-label="rim"
       style="font-style:normal;font-weight:normal;font-size:10.58333302px;line-height:1.25;font-family:sans-serif;letter-spacing:0px;word-spacing:0px;display:inline;opacity:1;fill:#000000;fill-opacity:1;stroke:none;stroke-width:0.26458332;stroke-opacity:1"
       id="text5959">
      <path
         d="m 28.875919,203.06294 q -0.04272,-0.0248 -0.09371,-0.0358 -0.04961,-0.0124 -0.110243,-0.0124 -0.214974,0 -0.330729,0.14056 -0.114377,0.13918 -0.114377,0.40101 v 0.81304 h -0.254937 v -1.5434 h 0.254937 v 0.23978 q 0.07993,-0.14056 0.208083,-0.20808 0.128158,-0.0689 0.311437,-0.0689 0.02618,0 0.05788,0.004 0.03169,0.003 0.07028,0.01 z"
         style="font-size:2.82222223px;stroke:none;stroke-width:0.26458332;stroke-opacity:1"
         id="path6127"
         inkscape:connector-curvature="0" />
      <path
         d="m 29.144636,202.82592 h 0.253559 v 1.5434 h -0.253559 z m 0,-0.60082 h 0.253559 v 0.32108 h -0.253559 z"
         style="font-size:2.82222223px;stroke:none;stroke-width:0.26458332;stroke-opacity:1"
         id="path6129"
         inkscape:connector-curvature="0" />
      <path
         d="m 31.129011,203.1222 q 0.09509,-0.17088 0.227376,-0.25218 0.132292,-0.0813 0.311437,-0.0813 0.241157,0 0.37207,0.1695 0.130914,0.16812 0.130914,0.47956 v 0.93155 h -0.254937 v -0.92328 q 0,-0.22187 -0.07855,-0.32935 -0.07855,-0.10749 -0.239779,-0.10749 -0.197059,0 -0.311437,0.13091 -0.114377,0.13092 -0.114377,0.35692 v 0.87229 h -0.254937 v -0.92328 q 0,-0.22324 -0.07855,-0.32935 -0.07855,-0.10749 -0.242535,-0.10749 -0.194303,0 -0.30868,0.13229 -0.114377,0.13092 -0.114377,0.35554 v 0.87229 h -0.254937 v -1.5434 h 0.254937 v 0.23978 q 0.08682,-0.14194 0.208083,-0.20946 0.121268,-0.0675 0.28801,-0.0675 0.168121,0 0.285254,0.0854 0.118512,0.0854 0.175011,0.24805 z"
         style="font-size:2.82222223px;stroke:none;stroke-width:0.26458332;stroke-opacity:1"
         id="path6131"
         inkscape:connector-curvature="0" />
    </g>
    <g
       aria-label="str8
out"
       style="font-style:normal;font-weight:normal;font-size:10.58333302px;line-height:0.1;font-family:sans-serif;letter-spacing:0px;word-spacing:0px;display:inline;opacity:1;fill:#000000;fill-opacity:1;stroke:none;stroke-width:0.26458332;stroke-opacity:1"
       id="text5965">
      <path
         d="m 44.107648,241.6222 v 0.23978 q -0.107487,-0.0551 -0.223242,-0.0827 -0.115755,-0.0276 -0.239778,-0.0276 -0.188792,0 -0.283876,0.0579 -0.09371,0.0579 -0.09371,0.17363 0,0.0882 0.06752,0.13918 0.06752,0.0496 0.271473,0.0951 l 0.08682,0.0193 q 0.270095,0.0579 0.383094,0.16399 0.114378,0.10473 0.114378,0.29352 0,0.21497 -0.170877,0.34037 -0.169499,0.12541 -0.467155,0.12541 -0.124023,0 -0.259071,-0.0248 -0.13367,-0.0234 -0.282498,-0.0717 v -0.26182 q 0.14056,0.073 0.276986,0.11024 0.136425,0.0358 0.270095,0.0358 0.179145,0 0.275608,-0.0606 0.09646,-0.062 0.09646,-0.17363 0,-0.10335 -0.07028,-0.15847 -0.0689,-0.0551 -0.304547,-0.10611 l -0.08819,-0.0207 q -0.235645,-0.0496 -0.340376,-0.15159 -0.104731,-0.10335 -0.104731,-0.28249 0,-0.21773 0.154341,-0.33625 0.15434,-0.11851 0.438216,-0.11851 0.14056,0 0.264583,0.0207 0.124023,0.0207 0.228754,0.062 z"
         style="font-size:2.82222223px;line-height:0.1;text-align:center;text-anchor:middle;stroke:none;stroke-width:0.26458332;stroke-opacity:1"
         id="path6112"
         inkscape:connector-curvature="0" />
      <path
         d="m 44.846277,241.13851 v 0.43822 h 0.522276 v 0.19706 h -0.522276 v 0.83785 q 0,0.18879 0.05099,0.24253 0.05237,0.0537 0.21084,0.0537 h 0.260449 v 0.21222 h -0.260449 q -0.293522,0 -0.405143,-0.10886 -0.111621,-0.11025 -0.111621,-0.39963 v -0.83785 h -0.186035 v -0.19706 h 0.186035 v -0.43822 z"
         style="font-size:2.82222223px;line-height:0.1;text-align:center;text-anchor:middle;stroke:none;stroke-width:0.26458332;stroke-opacity:1"
         id="path6114"
         inkscape:connector-curvature="0" />
      <path
         d="m 46.597763,241.81375 q -0.04272,-0.0248 -0.09371,-0.0358 -0.04961,-0.0124 -0.110243,-0.0124 -0.214974,0 -0.330729,0.14056 -0.114378,0.13918 -0.114378,0.40101 v 0.81304 H 45.69377 v -1.5434 h 0.254937 v 0.23978 q 0.07993,-0.14056 0.208084,-0.20809 0.128158,-0.0689 0.311437,-0.0689 0.02618,0 0.05788,0.004 0.03169,0.003 0.07028,0.01 z"
         style="font-size:2.82222223px;line-height:0.1;text-align:center;text-anchor:middle;stroke:none;stroke-width:0.26458332;stroke-opacity:1"
         id="path6116"
         inkscape:connector-curvature="0" />
      <path
         d="m 47.497622,242.1431 q -0.198437,0 -0.312814,0.10611 -0.113,0.10611 -0.113,0.29215 0,0.18603 0.113,0.29214 0.114377,0.10611 0.312814,0.10611 0.198438,0 0.312815,-0.10611 0.114377,-0.10749 0.114377,-0.29214 0,-0.18604 -0.114377,-0.29215 -0.112999,-0.10611 -0.312815,-0.10611 z m -0.278364,-0.11851 q -0.179144,-0.0441 -0.279741,-0.16674 -0.09922,-0.12265 -0.09922,-0.29903 0,-0.24667 0.175011,-0.38999 0.176389,-0.14332 0.482313,-0.14332 0.307303,0 0.482314,0.14332 0.17501,0.14332 0.17501,0.38999 0,0.17638 -0.100596,0.29903 -0.09922,0.12264 -0.276986,0.16674 0.201194,0.0469 0.312815,0.18328 0.112999,0.13643 0.112999,0.33349 0,0.29903 -0.183279,0.45888 -0.181901,0.15986 -0.522277,0.15986 -0.340375,0 -0.523654,-0.15986 -0.181901,-0.15985 -0.181901,-0.45888 0,-0.19706 0.112999,-0.33349 0.112999,-0.13642 0.314192,-0.18328 z M 47.117284,241.585 q 0,0.15985 0.09922,0.24942 0.100597,0.0896 0.28112,0.0896 0.179145,0 0.279742,-0.0896 0.101975,-0.0896 0.101975,-0.24942 0,-0.15985 -0.101975,-0.24943 -0.100597,-0.0896 -0.279742,-0.0896 -0.180523,0 -0.28112,0.0896 -0.09922,0.0896 -0.09922,0.24943 z"
         style="font-size:2.82222223px;line-height:0.1;text-align:center;text-anchor:middle;stroke:none;stroke-width:0.26458332;stroke-opacity:1"
         id="path6118"
         inkscape:connector-curvature="0" />
      <path
         d="m 44.179306,244.44084 q -0.203949,0 -0.322461,0.15986 -0.118511,0.15847 -0.118511,0.43546 0,0.27698 0.117133,0.43683 0.118512,0.15848 0.323839,0.15848 0.202572,0 0.321083,-0.15985 0.118512,-0.15986 0.118512,-0.43546 0,-0.27423 -0.118512,-0.43409 -0.118511,-0.16123 -0.321083,-0.16123 z m 0,-0.21497 q 0.33073,0 0.519521,0.21497 0.188791,0.21498 0.188791,0.59532 0,0.37896 -0.188791,0.59531 -0.188791,0.21497 -0.519521,0.21497 -0.332107,0 -0.520898,-0.21497 -0.187413,-0.21635 -0.187413,-0.59531 0,-0.38034 0.187413,-0.59532 0.188791,-0.21497 0.520898,-0.21497 z"
         style="font-size:2.82222223px;line-height:0.1;text-align:center;text-anchor:middle;stroke:none;stroke-width:0.26458332;stroke-opacity:1"
         id="path6120"
         inkscape:connector-curvature="0" />
      <path
         d="m 45.280359,245.19739 v -0.93431 h 0.253559 v 0.92466 q 0,0.21911 0.08544,0.32935 0.08544,0.10887 0.256315,0.10887 0.205328,0 0.323839,-0.13092 0.11989,-0.13091 0.11989,-0.35691 v -0.87505 h 0.253559 v 1.5434 H 46.3194 v -0.23702 q -0.09233,0.14056 -0.214974,0.20946 -0.121268,0.0675 -0.282498,0.0675 -0.265962,0 -0.403765,-0.16536 -0.137804,-0.16537 -0.137804,-0.48369 z"
         style="font-size:2.82222223px;line-height:0.1;text-align:center;text-anchor:middle;stroke:none;stroke-width:0.26458332;stroke-opacity:1"
         id="path6122"
         inkscape:connector-curvature="0" />
      <path
         d="m 47.348794,243.82486 v 0.43822 h 0.522277 v 0.19706 h -0.522277 v 0.83784 q 0,0.1888 0.05099,0.24254 0.05236,0.0537 0.210839,0.0537 h 0.26045 v 0.21222 h -0.26045 q -0.293522,0 -0.405143,-0.10887 -0.111621,-0.11024 -0.111621,-0.39963 v -0.83784 h -0.186035 v -0.19706 h 0.186035 v -0.43822 z"
         style="font-size:2.82222223px;line-height:0.1;text-align:center;text-anchor:middle;stroke:none;stroke-width:0.26458332;stroke-opacity:1"
         id="path6124"
         inkscape:connector-curvature="0" />
    </g>
    <g
       aria-label="hp
out"
       style="font-style:normal;font-weight:normal;font-size:10.58333302px;line-height:0.1;font-family:sans-serif;letter-spacing:0px;word-spacing:0px;display:inline;opacity:1;fill:#000000;fill-opacity:1;stroke:none;stroke-width:0.26458332;stroke-opacity:1"
       id="text5971">
      <path
         d="m 44.906921,258.54177 v 0.93156 h -0.253559 v -0.92329 q 0,-0.21911 -0.08544,-0.32797 -0.08544,-0.10887 -0.256315,-0.10887 -0.205328,0 -0.323839,0.13092 -0.118511,0.13091 -0.118511,0.35691 v 0.8723 h -0.254938 v -2.14423 h 0.254938 v 0.8406 q 0.09095,-0.13918 0.213595,-0.20808 0.124024,-0.0689 0.285254,-0.0689 0.265962,0 0.402388,0.16536 0.136425,0.16399 0.136425,0.48369 z"
         style="font-size:2.82222223px;line-height:0.1;text-align:center;text-anchor:middle;stroke:none;stroke-width:0.26458332;stroke-opacity:1"
         id="path6101"
         inkscape:connector-curvature="0" />
      <path
         d="m 45.660708,259.24182 v 0.81855 h -0.254937 v -2.13045 h 0.254937 v 0.23427 q 0.07993,-0.1378 0.201194,-0.20395 0.122645,-0.0675 0.292144,-0.0675 0.28112,0 0.456131,0.22324 0.176388,0.22324 0.176388,0.58704 0,0.36381 -0.176388,0.58705 -0.175011,0.22324 -0.456131,0.22324 -0.169499,0 -0.292144,-0.0661 -0.121268,-0.0675 -0.201194,-0.20532 z M 46.52336,258.703 q 0,-0.27974 -0.115755,-0.43821 -0.114377,-0.15985 -0.315571,-0.15985 -0.201193,0 -0.316949,0.15985 -0.114377,0.15847 -0.114377,0.43821 0,0.27975 0.114377,0.4396 0.115756,0.15847 0.316949,0.15847 0.201194,0 0.315571,-0.15847 0.115755,-0.15985 0.115755,-0.4396 z"
         style="font-size:2.82222223px;line-height:0.1;text-align:center;text-anchor:middle;stroke:none;stroke-width:0.26458332;stroke-opacity:1"
         id="path6103"
         inkscape:connector-curvature="0" />
      <path
         d="m 43.701138,260.79404 q -0.20395,0 -0.322461,0.15985 -0.118511,0.15848 -0.118511,0.43546 0,0.27699 0.117133,0.43684 0.118511,0.15847 0.323839,0.15847 0.202571,0 0.321083,-0.15985 0.118511,-0.15985 0.118511,-0.43546 0,-0.27423 -0.118511,-0.43408 -0.118512,-0.16123 -0.321083,-0.16123 z m 0,-0.21497 q 0.330729,0 0.51952,0.21497 0.188792,0.21497 0.188792,0.59531 0,0.37896 -0.188792,0.59531 -0.188791,0.21498 -0.51952,0.21498 -0.332107,0 -0.520899,-0.21498 -0.187413,-0.21635 -0.187413,-0.59531 0,-0.38034 0.187413,-0.59531 0.188792,-0.21497 0.520899,-0.21497 z"
         style="font-size:2.82222223px;line-height:0.1;text-align:center;text-anchor:middle;stroke:none;stroke-width:0.26458332;stroke-opacity:1"
         id="path6105"
         inkscape:connector-curvature="0" />
      <path
         d="m 44.80219,261.55058 v -0.93431 h 0.253559 v 0.92467 q 0,0.2191 0.08544,0.32935 0.08544,0.10886 0.256315,0.10886 0.205328,0 0.323839,-0.13091 0.119889,-0.13092 0.119889,-0.35691 v -0.87506 h 0.253559 v 1.54341 h -0.253559 v -0.23703 q -0.09233,0.14056 -0.214974,0.20946 -0.121267,0.0675 -0.282498,0.0675 -0.265961,0 -0.403765,-0.16537 -0.137804,-0.16536 -0.137804,-0.48369 z"
         style="font-size:2.82222223px;line-height:0.1;text-align:center;text-anchor:middle;stroke:none;stroke-width:0.26458332;stroke-opacity:1"
         id="path6107"
         inkscape:connector-curvature="0" />
      <path
         d="m 46.870626,260.17806 v 0.43821 h 0.522276 v 0.19706 h -0.522276 v 0.83785 q 0,0.18879 0.05099,0.24253 0.05237,0.0537 0.21084,0.0537 h 0.260449 v 0.21222 h -0.260449 q -0.293522,0 -0.405143,-0.10887 -0.111621,-0.11024 -0.111621,-0.39963 v -0.83785 h -0.186036 v -0.19706 h 0.186036 v -0.43821 z"
         style="font-size:2.82222223px;line-height:0.1;text-align:center;text-anchor:middle;stroke:none;stroke-width:0.26458332;stroke-opacity:1"
         id="path6109"
         inkscape:connector-curvature="0" />
    </g>
    <g
       aria-label="lp
out"
       style="font-style:normal;font-weight:normal;font-size:10.58333302px;line-height:0.1;font-family:sans-serif;letter-spacing:0px;word-spacing:0px;display:inline;opacity:1;fill:#000000;fill-opacity:1;stroke:none;stroke-width:0.26458332;stroke-opacity:1"
       id="text5977">
      <path
         d="m 28.914791,257.3291 h 0.253559 v 2.14423 h -0.253559 z"
         style="font-size:2.82222223px;line-height:0.1;text-align:center;text-anchor:middle;stroke:none;stroke-width:0.26458332;stroke-opacity:1"
         id="path6090"
         inkscape:connector-curvature="0" />
      <path
         d="m 29.942807,259.24182 v 0.81855 H 29.68787 v -2.13045 h 0.254937 v 0.23427 q 0.07993,-0.1378 0.201194,-0.20395 0.122645,-0.0675 0.292144,-0.0675 0.28112,0 0.45613,0.22324 0.176389,0.22324 0.176389,0.58704 0,0.36381 -0.176389,0.58705 -0.17501,0.22324 -0.45613,0.22324 -0.169499,0 -0.292144,-0.0661 -0.121268,-0.0675 -0.201194,-0.20532 z m 0.862652,-0.53882 q 0,-0.27974 -0.115755,-0.43821 -0.114377,-0.15985 -0.315571,-0.15985 -0.201194,0 -0.316949,0.15985 -0.114377,0.15847 -0.114377,0.43821 0,0.27975 0.114377,0.4396 0.115755,0.15847 0.316949,0.15847 0.201194,0 0.315571,-0.15847 0.115755,-0.15985 0.115755,-0.4396 z"
         style="font-size:2.82222223px;line-height:0.1;text-align:center;text-anchor:middle;stroke:none;stroke-width:0.26458332;stroke-opacity:1"
         id="path6092"
         inkscape:connector-curvature="0" />
      <path
         d="m 28.487599,260.79404 q -0.20395,0 -0.322461,0.15985 -0.118511,0.15848 -0.118511,0.43546 0,0.27699 0.117133,0.43684 0.118511,0.15847 0.323839,0.15847 0.202571,0 0.321083,-0.15985 0.118511,-0.15985 0.118511,-0.43546 0,-0.27423 -0.118511,-0.43408 -0.118512,-0.16123 -0.321083,-0.16123 z m 0,-0.21497 q 0.330729,0 0.51952,0.21497 0.188791,0.21497 0.188791,0.59531 0,0.37896 -0.188791,0.59531 -0.188791,0.21498 -0.51952,0.21498 -0.332107,0 -0.520899,-0.21498 -0.187413,-0.21635 -0.187413,-0.59531 0,-0.38034 0.187413,-0.59531 0.188792,-0.21497 0.520899,-0.21497 z"
         style="font-size:2.82222223px;line-height:0.1;text-align:center;text-anchor:middle;stroke:none;stroke-width:0.26458332;stroke-opacity:1"
         id="path6094"
         inkscape:connector-curvature="0" />
      <path
         d="m 29.588651,261.55058 v -0.93431 h 0.253559 v 0.92467 q 0,0.2191 0.08544,0.32935 0.08544,0.10886 0.256315,0.10886 0.205327,0 0.323839,-0.13091 0.119889,-0.13092 0.119889,-0.35691 v -0.87506 h 0.253559 v 1.54341 h -0.253559 v -0.23703 q -0.09233,0.14056 -0.214974,0.20946 -0.121267,0.0675 -0.282498,0.0675 -0.265961,0 -0.403765,-0.16537 -0.137804,-0.16536 -0.137804,-0.48369 z"
         style="font-size:2.82222223px;line-height:0.1;text-align:center;text-anchor:middle;stroke:none;stroke-width:0.26458332;stroke-opacity:1"
         id="path6096"
         inkscape:connector-curvature="0" />
      <path
         d="m 31.657087,260.17806 v 0.43821 h 0.522276 v 0.19706 h -0.522276 v 0.83785 q 0,0.18879 0.05099,0.24253 0.05237,0.0537 0.21084,0.0537 h 0.260449 v 0.21222 h -0.260449 q -0.293522,0 -0.405143,-0.10887 -0.111622,-0.11024 -0.111622,-0.39963 v -0.83785 h -0.186035 v -0.19706 h 0.186035 v -0.43821 z"
         style="font-size:2.82222223px;line-height:0.1;text-align:center;text-anchor:middle;stroke:none;stroke-width:0.26458332;stroke-opacity:1"
         id="path6098"
         inkscape:connector-curvature="0" />
    </g>
    <g
       aria-label="hp in"
       style="font-style:normal;font-weight:normal;font-size:10.58333302px;line-height:0.1;font-family:sans-serif;letter-spacing:0px;word-spacing:0px;display:inline;opacity:1;fill:#000000;fill-opacity:1;stroke:none;stroke-width:0.26458332;stroke-opacity:1"
       id="text5981">
      <path
         d="m 44.254135,195.35389 v 0.93156 h -0.253559 v -0.92329 q 0,-0.21911 -0.08544,-0.32797 -0.08544,-0.10887 -0.256315,-0.10887 -0.205328,0 -0.323839,0.13092 -0.118512,0.13091 -0.118512,0.35691 v 0.8723 h -0.254937 v -2.14423 h 0.254937 v 0.8406 q 0.09095,-0.13918 0.213596,-0.20808 0.124024,-0.0689 0.285254,-0.0689 0.265961,0 0.402387,0.16536 0.136426,0.16399 0.136426,0.48369 z"
         style="font-size:2.82222223px;line-height:0.1;text-align:center;text-anchor:middle;stroke:none;stroke-width:0.26458332;stroke-opacity:1"
         id="path6081"
         inkscape:connector-curvature="0" />
      <path
         d="m 45.007922,196.05394 v 0.81855 h -0.254937 v -2.13045 h 0.254937 v 0.23427 q 0.07993,-0.1378 0.201194,-0.20395 0.122645,-0.0675 0.292144,-0.0675 0.281119,0 0.45613,0.22324 0.176389,0.22324 0.176389,0.58704 0,0.3638 -0.176389,0.58705 -0.175011,0.22324 -0.45613,0.22324 -0.169499,0 -0.292144,-0.0661 -0.121268,-0.0675 -0.201194,-0.20532 z m 0.862652,-0.53882 q 0,-0.27974 -0.115755,-0.43821 -0.114378,-0.15986 -0.315571,-0.15986 -0.201194,0 -0.316949,0.15986 -0.114377,0.15847 -0.114377,0.43821 0,0.27974 0.114377,0.4396 0.115755,0.15847 0.316949,0.15847 0.201193,0 0.315571,-0.15847 0.115755,-0.15986 0.115755,-0.4396 z"
         style="font-size:2.82222223px;line-height:0.1;text-align:center;text-anchor:middle;stroke:none;stroke-width:0.26458332;stroke-opacity:1"
         id="path6083"
         inkscape:connector-curvature="0" />
      <path
         d="m 47.452562,194.74204 h 0.253559 v 1.54341 h -0.253559 z m 0,-0.60082 h 0.253559 v 0.32108 h -0.253559 z"
         style="font-size:2.82222223px;line-height:0.1;text-align:center;text-anchor:middle;stroke:none;stroke-width:0.26458332;stroke-opacity:1"
         id="path6085"
         inkscape:connector-curvature="0" />
      <path
         d="m 49.518241,195.35389 v 0.93156 h -0.253559 v -0.92329 q 0,-0.21911 -0.08544,-0.32797 -0.08544,-0.10887 -0.256315,-0.10887 -0.205327,0 -0.323839,0.13092 -0.118511,0.13091 -0.118511,0.35691 v 0.8723 H 48.22564 v -1.54341 h 0.254937 v 0.23978 q 0.09095,-0.13918 0.213596,-0.20808 0.124023,-0.0689 0.285254,-0.0689 0.265961,0 0.402387,0.16536 0.136426,0.16399 0.136427,0.48369 z"
         style="font-size:2.82222223px;line-height:0.1;text-align:center;text-anchor:middle;stroke:none;stroke-width:0.26458332;stroke-opacity:1"
         id="path6087"
         inkscape:connector-curvature="0" />
    </g>
    <g
       aria-label="lp in"
       style="font-style:normal;font-weight:normal;font-size:10.58333302px;line-height:0.1;font-family:sans-serif;letter-spacing:0px;word-spacing:0px;display:inline;opacity:1;fill:#000000;fill-opacity:1;stroke:none;stroke-width:0.26458332;stroke-opacity:1"
       id="text5985">
      <path
         d="m 26.669675,194.1364 h 0.253559 v 2.14422 h -0.253559 z"
         style="font-size:2.82222223px;line-height:0.1;text-align:center;text-anchor:middle;stroke:none;stroke-width:0.26458332;stroke-opacity:1"
         id="path6072"
         inkscape:connector-curvature="0" />
      <path
         d="m 27.697692,196.04911 v 0.81856 h -0.254937 v -2.13045 h 0.254937 v 0.23427 q 0.07993,-0.13781 0.201193,-0.20395 0.122646,-0.0675 0.292144,-0.0675 0.28112,0 0.456131,0.22325 0.176389,0.22324 0.176389,0.58704 0,0.3638 -0.176389,0.58705 -0.175011,0.22324 -0.456131,0.22324 -0.169498,0 -0.292144,-0.0662 -0.121267,-0.0675 -0.201193,-0.20533 z m 0.862652,-0.53881 q 0,-0.27974 -0.115755,-0.43822 -0.114378,-0.15985 -0.315571,-0.15985 -0.201194,0 -0.316949,0.15985 -0.114377,0.15848 -0.114377,0.43822 0,0.27974 0.114377,0.4396 0.115755,0.15847 0.316949,0.15847 0.201193,0 0.315571,-0.15847 0.115755,-0.15986 0.115755,-0.4396 z"
         style="font-size:2.82222223px;line-height:0.1;text-align:center;text-anchor:middle;stroke:none;stroke-width:0.26458332;stroke-opacity:1"
         id="path6074"
         inkscape:connector-curvature="0" />
      <path
         d="m 30.142332,194.73722 h 0.253559 v 1.5434 h -0.253559 z m 0,-0.60082 h 0.253559 v 0.32108 h -0.253559 z"
         style="font-size:2.82222223px;line-height:0.1;text-align:center;text-anchor:middle;stroke:none;stroke-width:0.26458332;stroke-opacity:1"
         id="path6076"
         inkscape:connector-curvature="0" />
      <path
         d="m 32.208011,195.34907 v 0.93155 h -0.253559 v -0.92328 q 0,-0.21911 -0.08544,-0.32797 -0.08544,-0.10887 -0.256316,-0.10887 -0.205327,0 -0.323839,0.13091 -0.118511,0.13092 -0.118511,0.35692 v 0.87229 h -0.254937 v -1.5434 h 0.254937 v 0.23978 q 0.09095,-0.13918 0.213596,-0.20808 0.124024,-0.0689 0.285254,-0.0689 0.265961,0 0.402387,0.16537 0.136426,0.16399 0.136426,0.48369 z"
         style="font-size:2.82222223px;line-height:0.1;text-align:center;text-anchor:middle;stroke:none;stroke-width:0.26458332;stroke-opacity:1"
         id="path6078"
         inkscape:connector-curvature="0" />
    </g>
    <g
       transform="rotate(90,18.96275,222.0325)"
       id="g5993"
       style="display:inline;opacity:1">
      <g
         aria-label="cap
11"
         transform="rotate(-90)"
         style="font-style:normal;font-weight:normal;font-size:10.58333302px;line-height:0.1;font-family:sans-serif;letter-spacing:0px;word-spacing:0px;fill:#000000;fill-opacity:1;stroke:none;stroke-width:0.26458332;stroke-opacity:1"
         id="text5991">
        <path
           d="m -196.70295,30.094052 v 0.237023 q -0.10748,-0.05926 -0.21635,-0.08819 -0.10748,-0.03032 -0.21773,-0.03032 -0.24667,0 -0.38309,0.157096 -0.13643,0.155718 -0.13643,0.438216 0,0.282498 0.13643,0.439594 0.13642,0.155719 0.38309,0.155719 0.11025,0 0.21773,-0.02894 0.10887,-0.03032 0.21635,-0.08957 v 0.234267 q -0.1061,0.04961 -0.22048,0.07441 -0.113,0.0248 -0.24116,0.0248 -0.34864,0 -0.55397,-0.219108 -0.20533,-0.219108 -0.20533,-0.591178 0,-0.377582 0.20671,-0.593934 0.20808,-0.216352 0.56913,-0.216352 0.11713,0 0.22875,0.0248 0.11162,0.02343 0.21635,0.07166 z"
           style="font-size:2.82222223px;line-height:0.1;text-align:center;text-anchor:middle;stroke:none;stroke-width:0.26458332;stroke-opacity:1"
           id="path6061"
           inkscape:connector-curvature="0" />
        <path
           d="m -195.5578,30.802364 q -0.3073,0 -0.42581,0.07028 -0.11851,0.07028 -0.11851,0.239778 0,0.135048 0.0882,0.214974 0.0896,0.07855 0.24254,0.07855 0.21084,0 0.33762,-0.148829 0.12815,-0.150206 0.12815,-0.398253 v -0.0565 z m 0.50574,-0.104731 v 0.880566 h -0.25356 v -0.234266 q -0.0868,0.14056 -0.21635,0.208084 -0.12953,0.06615 -0.31695,0.06615 -0.23702,0 -0.37758,-0.132291 -0.13918,-0.13367 -0.13918,-0.356912 0,-0.260449 0.17363,-0.392741 0.17501,-0.132292 0.5209,-0.132292 h 0.35553 v -0.0248 q 0,-0.175011 -0.11575,-0.270096 -0.11438,-0.09646 -0.32246,-0.09646 -0.13229,0 -0.25769,0.03169 -0.12541,0.0317 -0.24116,0.09509 v -0.234266 q 0.13918,-0.05374 0.27009,-0.07993 0.13092,-0.02756 0.25494,-0.02756 0.33486,0 0.50023,0.173632 0.16536,0.173633 0.16536,0.526411 z"
           style="font-size:2.82222223px;line-height:0.1;text-align:center;text-anchor:middle;stroke:none;stroke-width:0.26458332;stroke-opacity:1"
           id="path6063"
           inkscape:connector-curvature="0" />
        <path
           d="m -194.28311,31.346689 v 0.818555 h -0.25494 v -2.130447 h 0.25494 v 0.234266 q 0.0799,-0.137804 0.20119,-0.20395 0.12265,-0.06752 0.29215,-0.06752 0.28112,0 0.45613,0.223242 0.17639,0.223242 0.17639,0.587044 0,0.363802 -0.17639,0.587044 -0.17501,0.223242 -0.45613,0.223242 -0.1695,0 -0.29215,-0.06615 -0.12126,-0.06752 -0.20119,-0.205328 z m 0.86265,-0.538813 q 0,-0.279742 -0.11575,-0.438216 -0.11438,-0.159853 -0.31557,-0.159853 -0.2012,0 -0.31695,0.159853 -0.11438,0.158474 -0.11438,0.438216 0,0.279742 0.11438,0.439594 0.11575,0.158475 0.31695,0.158475 0.20119,0 0.31557,-0.158475 0.11575,-0.159852 0.11575,-0.439594 z"
           style="font-size:2.82222223px;line-height:0.1;text-align:center;text-anchor:middle;stroke:none;stroke-width:0.26458332;stroke-opacity:1"
           id="path6065"
           inkscape:connector-curvature="0" />
        <path
           d="m -196.9882,34.03028 h 0.45475 v -1.569585 l -0.49471,0.09922 v -0.253559 l 0.49196,-0.09922 h 0.27836 v 1.823144 h 0.45475 v 0.234267 h -1.18511 z"
           style="font-size:2.82222223px;line-height:0.1;text-align:center;text-anchor:middle;stroke:none;stroke-width:0.26458332;stroke-opacity:1"
           id="path6067"
           inkscape:connector-curvature="0" />
        <path
           d="m -195.19124,34.03028 h 0.45475 v -1.569585 l -0.49471,0.09922 v -0.253559 l 0.49196,-0.09922 h 0.27836 v 1.823144 h 0.45475 v 0.234267 h -1.18511 z"
           style="font-size:2.82222223px;line-height:0.1;text-align:center;text-anchor:middle;stroke:none;stroke-width:0.26458332;stroke-opacity:1"
           id="path6069"
           inkscape:connector-curvature="0" />
      </g>
    </g>
    <g
       aria-label="cap
8"
       style="font-style:normal;font-weight:normal;font-size:10.58333302px;line-height:0.1;font-family:sans-serif;letter-spacing:0px;word-spacing:0px;display:inline;opacity:1;fill:#000000;fill-opacity:1;stroke:none;stroke-width:0.26458332;stroke-opacity:1"
       id="text5999">
      <path
         d="m 44.180008,225.33862 v 0.23702 q -0.107487,-0.0592 -0.216352,-0.0882 -0.107487,-0.0303 -0.21773,-0.0303 -0.246669,0 -0.383095,0.1571 -0.136426,0.15572 -0.136426,0.43822 0,0.28249 0.136426,0.43959 0.136426,0.15572 0.383095,0.15572 0.110243,0 0.21773,-0.0289 0.108865,-0.0303 0.216352,-0.0896 v 0.23426 q -0.106109,0.0496 -0.220486,0.0744 -0.113,0.0248 -0.241157,0.0248 -0.348644,0 -0.553971,-0.21911 -0.205328,-0.2191 -0.205328,-0.59117 0,-0.37759 0.206706,-0.59394 0.208083,-0.21635 0.569129,-0.21635 0.117134,0 0.228755,0.0248 0.111621,0.0234 0.216352,0.0717 z"
         style="font-size:2.82222223px;line-height:0.1;text-align:center;text-anchor:middle;stroke:none;stroke-width:0.26458332;stroke-opacity:1"
         id="path6052"
         inkscape:connector-curvature="0" />
      <path
         d="m 45.325157,226.04693 q -0.307302,0 -0.425813,0.0703 -0.118512,0.0703 -0.118512,0.23978 0,0.13505 0.0882,0.21498 0.08957,0.0785 0.242535,0.0785 0.210839,0 0.337619,-0.14882 0.128157,-0.15021 0.128157,-0.39826 v -0.0565 z m 0.50574,-0.10473 v 0.88057 h -0.253559 v -0.23427 q -0.08682,0.14056 -0.216352,0.20809 -0.129535,0.0661 -0.316948,0.0661 -0.237023,0 -0.377583,-0.13229 -0.139182,-0.13367 -0.139182,-0.35691 0,-0.26045 0.173633,-0.39274 0.175011,-0.13229 0.520899,-0.13229 h 0.355533 v -0.0248 q 0,-0.17501 -0.115755,-0.27009 -0.114377,-0.0965 -0.322461,-0.0965 -0.132291,0 -0.257693,0.0317 -0.125401,0.0317 -0.241157,0.0951 v -0.23426 q 0.139182,-0.0538 0.270096,-0.0799 0.130914,-0.0276 0.254937,-0.0276 0.334863,0 0.500228,0.17363 0.165364,0.17363 0.165364,0.52641 z"
         style="font-size:2.82222223px;line-height:0.1;text-align:center;text-anchor:middle;stroke:none;stroke-width:0.26458332;stroke-opacity:1"
         id="path6054"
         inkscape:connector-curvature="0" />
      <path
         d="m 46.599843,226.59126 v 0.81855 h -0.254937 v -2.13044 h 0.254937 v 0.23426 q 0.07993,-0.1378 0.201193,-0.20395 0.122646,-0.0675 0.292144,-0.0675 0.28112,0 0.456131,0.22324 0.176389,0.22324 0.176389,0.58705 0,0.3638 -0.176389,0.58704 -0.175011,0.22324 -0.456131,0.22324 -0.169498,0 -0.292144,-0.0661 -0.121267,-0.0675 -0.201193,-0.20533 z m 0.862652,-0.53881 q 0,-0.27975 -0.115756,-0.43822 -0.114377,-0.15985 -0.31557,-0.15985 -0.201194,0 -0.316949,0.15985 -0.114377,0.15847 -0.114377,0.43822 0,0.27974 0.114377,0.43959 0.115755,0.15847 0.316949,0.15847 0.201193,0 0.31557,-0.15847 0.115756,-0.15985 0.115756,-0.43959 z"
         style="font-size:2.82222223px;line-height:0.1;text-align:center;text-anchor:middle;stroke:none;stroke-width:0.26458332;stroke-opacity:1"
         id="path6056"
         inkscape:connector-curvature="0" />
      <path
         d="m 45.340316,228.53209 q -0.198438,0 -0.312815,0.10611 -0.112999,0.10611 -0.112999,0.29214 0,0.18604 0.112999,0.29214 0.114377,0.10611 0.312815,0.10611 0.198437,0 0.312815,-0.10611 0.114377,-0.10748 0.114377,-0.29214 0,-0.18603 -0.114377,-0.29214 -0.113,-0.10611 -0.312815,-0.10611 z m -0.278364,-0.11851 q -0.179145,-0.0441 -0.279742,-0.16675 -0.09922,-0.12264 -0.09922,-0.29903 0,-0.24667 0.17501,-0.38999 0.176389,-0.14331 0.482314,-0.14331 0.307302,0 0.482313,0.14331 0.175011,0.14332 0.175011,0.38999 0,0.17639 -0.100597,0.29903 -0.09922,0.12265 -0.276985,0.16675 0.201193,0.0469 0.312814,0.18328 0.112999,0.13642 0.112999,0.33348 0,0.29903 -0.183279,0.45889 -0.181901,0.15985 -0.522276,0.15985 -0.340376,0 -0.523655,-0.15985 -0.181901,-0.15986 -0.181901,-0.45889 0,-0.19706 0.112999,-0.33348 0.113,-0.13643 0.314193,-0.18328 z m -0.101975,-0.4396 q 0,0.15985 0.09922,0.24943 0.100597,0.0896 0.28112,0.0896 0.179145,0 0.279742,-0.0896 0.101974,-0.0896 0.101974,-0.24943 0,-0.15985 -0.101974,-0.24942 -0.100597,-0.0896 -0.279742,-0.0896 -0.180523,0 -0.28112,0.0896 -0.09922,0.0896 -0.09922,0.24942 z"
         style="font-size:2.82222223px;line-height:0.1;text-align:center;text-anchor:middle;stroke:none;stroke-width:0.26458332;stroke-opacity:1"
         id="path6058"
         inkscape:connector-curvature="0" />
    </g>
    <g
       aria-label="cap
6"
       style="font-style:normal;font-weight:normal;font-size:10.58333302px;line-height:0.1;font-family:sans-serif;letter-spacing:0px;word-spacing:0px;display:inline;opacity:1;fill:#000000;fill-opacity:1;stroke:none;stroke-width:0.26458332;stroke-opacity:1"
       id="text6005">
      <path
         d="m 44.180008,249.81268 v 0.23702 q -0.107487,-0.0592 -0.216352,-0.0882 -0.107487,-0.0303 -0.21773,-0.0303 -0.246669,0 -0.383095,0.1571 -0.136426,0.15572 -0.136426,0.43822 0,0.28249 0.136426,0.43959 0.136426,0.15572 0.383095,0.15572 0.110243,0 0.21773,-0.0289 0.108865,-0.0303 0.216352,-0.0896 v 0.23426 q -0.106109,0.0496 -0.220486,0.0744 -0.113,0.0248 -0.241157,0.0248 -0.348644,0 -0.553971,-0.21911 -0.205328,-0.2191 -0.205328,-0.59117 0,-0.37759 0.206706,-0.59394 0.208083,-0.21635 0.569129,-0.21635 0.117134,0 0.228755,0.0248 0.111621,0.0234 0.216352,0.0717 z"
         style="font-size:2.82222223px;line-height:0.1;text-align:center;text-anchor:middle;stroke:none;stroke-width:0.26458332;stroke-opacity:1"
         id="path6043"
         inkscape:connector-curvature="0" />
      <path
         d="m 45.325157,250.52099 q -0.307302,0 -0.425813,0.0703 -0.118512,0.0703 -0.118512,0.23978 0,0.13505 0.0882,0.21498 0.08957,0.0785 0.242535,0.0785 0.210839,0 0.337619,-0.14882 0.128157,-0.15021 0.128157,-0.39826 v -0.0565 z m 0.50574,-0.10473 v 0.88057 h -0.253559 v -0.23427 q -0.08682,0.14056 -0.216352,0.20809 -0.129535,0.0661 -0.316948,0.0661 -0.237023,0 -0.377583,-0.13229 -0.139182,-0.13367 -0.139182,-0.35691 0,-0.26045 0.173633,-0.39274 0.175011,-0.13229 0.520899,-0.13229 h 0.355533 v -0.0248 q 0,-0.17501 -0.115755,-0.27009 -0.114377,-0.0965 -0.322461,-0.0965 -0.132291,0 -0.257693,0.0317 -0.125401,0.0317 -0.241157,0.0951 v -0.23426 q 0.139182,-0.0538 0.270096,-0.0799 0.130914,-0.0276 0.254937,-0.0276 0.334863,0 0.500228,0.17363 0.165364,0.17364 0.165364,0.52641 z"
         style="font-size:2.82222223px;line-height:0.1;text-align:center;text-anchor:middle;stroke:none;stroke-width:0.26458332;stroke-opacity:1"
         id="path6045"
         inkscape:connector-curvature="0" />
      <path
         d="m 46.599843,251.06532 v 0.81855 h -0.254937 v -2.13044 h 0.254937 v 0.23426 q 0.07993,-0.1378 0.201193,-0.20395 0.122646,-0.0675 0.292144,-0.0675 0.28112,0 0.456131,0.22324 0.176389,0.22324 0.176389,0.58705 0,0.3638 -0.176389,0.58704 -0.175011,0.22324 -0.456131,0.22324 -0.169498,0 -0.292144,-0.0661 -0.121267,-0.0675 -0.201193,-0.20533 z m 0.862652,-0.53881 q 0,-0.27975 -0.115756,-0.43822 -0.114377,-0.15985 -0.31557,-0.15985 -0.201194,0 -0.316949,0.15985 -0.114377,0.15847 -0.114377,0.43822 0,0.27974 0.114377,0.43959 0.115755,0.15847 0.316949,0.15847 0.201193,0 0.31557,-0.15847 0.115756,-0.15985 0.115756,-0.43959 z"
         style="font-size:2.82222223px;line-height:0.1;text-align:center;text-anchor:middle;stroke:none;stroke-width:0.26458332;stroke-opacity:1"
         id="path6047"
         inkscape:connector-curvature="0" />
      <path
         d="m 45.374767,252.84354 q -0.187413,0 -0.297656,0.12816 -0.108865,0.12815 -0.108865,0.3514 0,0.22186 0.108865,0.3514 0.110243,0.12815 0.297656,0.12815 0.187413,0 0.296278,-0.12815 0.110243,-0.12954 0.110243,-0.3514 0,-0.22325 -0.110243,-0.3514 -0.108865,-0.12816 -0.296278,-0.12816 z m 0.552593,-0.8723 v 0.25356 q -0.104731,-0.0496 -0.212218,-0.0758 -0.106109,-0.0262 -0.21084,-0.0262 -0.275607,0 -0.421679,0.18603 -0.144694,0.18604 -0.165365,0.56224 0.0813,-0.11989 0.20395,-0.18328 0.122645,-0.0648 0.270095,-0.0648 0.310059,0 0.489204,0.18879 0.180523,0.18742 0.180523,0.51126 0,0.31695 -0.187413,0.50849 -0.187414,0.19155 -0.49885,0.19155 -0.356912,0 -0.545703,-0.27285 -0.188792,-0.27423 -0.188792,-0.79375 0,-0.48783 0.231511,-0.77722 0.23151,-0.29076 0.621495,-0.29076 0.104731,0 0.21084,0.0207 0.107487,0.0207 0.223242,0.062 z"
         style="font-size:2.82222223px;line-height:0.1;text-align:center;text-anchor:middle;stroke:none;stroke-width:0.26458332;stroke-opacity:1"
         id="path6049"
         inkscape:connector-curvature="0" />
    </g>
    <g
       aria-label="coil
1"
       style="font-style:normal;font-weight:normal;font-size:10.58333302px;line-height:0.1;font-family:sans-serif;letter-spacing:0px;word-spacing:0px;display:inline;opacity:1;fill:#000000;fill-opacity:1;stroke:none;stroke-width:0.26458332;stroke-opacity:1"
       id="text6011">
      <path
         d="m 44.17975,217.49226 v 0.23703 q -0.107487,-0.0593 -0.216352,-0.0882 -0.107487,-0.0303 -0.21773,-0.0303 -0.246669,0 -0.383094,0.1571 -0.136426,0.15572 -0.136426,0.43822 0,0.28249 0.136426,0.43959 0.136425,0.15572 0.383094,0.15572 0.110243,0 0.21773,-0.0289 0.108865,-0.0303 0.216352,-0.0896 v 0.23426 q -0.106109,0.0496 -0.220486,0.0744 -0.112999,0.0248 -0.241156,0.0248 -0.348644,0 -0.553972,-0.21911 -0.205328,-0.2191 -0.205328,-0.59117 0,-0.37759 0.206706,-0.59394 0.208084,-0.21635 0.56913,-0.21635 0.117133,0 0.228754,0.0248 0.111621,0.0234 0.216352,0.0717 z"
         style="font-size:2.82222223px;line-height:0.1;text-align:center;text-anchor:middle;stroke:none;stroke-width:0.26458332;stroke-opacity:1"
         id="path6032"
         inkscape:connector-curvature="0" />
      <path
         d="m 45.221547,217.61077 q -0.203949,0 -0.322461,0.15986 -0.118511,0.15847 -0.118511,0.43546 0,0.27698 0.117133,0.43683 0.118512,0.15848 0.323839,0.15848 0.202572,0 0.321083,-0.15985 0.118511,-0.15986 0.118511,-0.43546 0,-0.27423 -0.118511,-0.43409 -0.118511,-0.16123 -0.321083,-0.16123 z m 0,-0.21497 q 0.330729,0 0.519521,0.21497 0.188791,0.21498 0.188791,0.59532 0,0.37896 -0.188791,0.59531 -0.188792,0.21497 -0.519521,0.21497 -0.332107,0 -0.520898,-0.21497 -0.187413,-0.21635 -0.187413,-0.59531 0,-0.38034 0.187413,-0.59532 0.188791,-0.21497 0.520898,-0.21497 z"
         style="font-size:2.82222223px;line-height:0.1;text-align:center;text-anchor:middle;stroke:none;stroke-width:0.26458332;stroke-opacity:1"
         id="path6034"
         inkscape:connector-curvature="0" />
      <path
         d="m 46.348782,217.43301 h 0.253559 v 1.5434 h -0.253559 z m 0,-0.60083 h 0.253559 v 0.32109 h -0.253559 z"
         style="font-size:2.82222223px;line-height:0.1;text-align:center;text-anchor:middle;stroke:none;stroke-width:0.26458332;stroke-opacity:1"
         id="path6036"
         inkscape:connector-curvature="0" />
      <path
         d="m 47.131508,216.83218 h 0.253559 v 2.14423 h -0.253559 z"
         style="font-size:2.82222223px;line-height:0.1;text-align:center;text-anchor:middle;stroke:none;stroke-width:0.26458332;stroke-opacity:1"
         id="path6038"
         inkscape:connector-curvature="0" />
      <path
         d="m 44.677222,221.42849 h 0.454753 v -1.56958 l -0.494716,0.0992 v -0.25355 l 0.49196,-0.0992 h 0.278363 v 1.82314 h 0.454753 v 0.23427 h -1.185113 z"
         style="font-size:2.82222223px;line-height:0.1;text-align:center;text-anchor:middle;stroke:none;stroke-width:0.26458332;stroke-opacity:1"
         id="path6040"
         inkscape:connector-curvature="0" />
    </g>
    <g
       aria-label="coil
2"
       style="font-style:normal;font-weight:normal;font-size:10.58333302px;line-height:0.1;font-family:sans-serif;letter-spacing:0px;word-spacing:0px;display:inline;opacity:1;fill:#000000;fill-opacity:1;stroke:none;stroke-width:0.26458332;stroke-opacity:1"
       id="text6017">
      <path
         d="m 44.190775,209.56575 v 0.23702 q -0.107487,-0.0593 -0.216352,-0.0882 -0.107487,-0.0303 -0.21773,-0.0303 -0.246669,0 -0.383095,0.1571 -0.136426,0.15572 -0.136426,0.43821 0,0.2825 0.136426,0.4396 0.136426,0.15572 0.383095,0.15572 0.110243,0 0.21773,-0.0289 0.108865,-0.0303 0.216352,-0.0896 v 0.23427 q -0.106109,0.0496 -0.220486,0.0744 -0.112999,0.0248 -0.241157,0.0248 -0.348644,0 -0.553971,-0.21911 -0.205328,-0.21911 -0.205328,-0.59118 0,-0.37758 0.206706,-0.59393 0.208083,-0.21635 0.569129,-0.21635 0.117134,0 0.228755,0.0248 0.111621,0.0234 0.216352,0.0717 z"
         style="font-size:2.82222223px;line-height:0.1;text-align:center;text-anchor:middle;stroke:none;stroke-width:0.26458332;stroke-opacity:1"
         id="path6021"
         inkscape:connector-curvature="0" />
      <path
         d="m 45.232572,209.68426 q -0.20395,0 -0.322461,0.15985 -0.118512,0.15848 -0.118512,0.43546 0,0.27699 0.117134,0.43684 0.118511,0.15848 0.323839,0.15848 0.202571,0 0.321083,-0.15986 0.118511,-0.15985 0.118511,-0.43546 0,-0.27423 -0.118511,-0.43408 -0.118512,-0.16123 -0.321083,-0.16123 z m 0,-0.21497 q 0.330729,0 0.51952,0.21497 0.188791,0.21497 0.188791,0.59531 0,0.37896 -0.188791,0.59532 -0.188791,0.21497 -0.51952,0.21497 -0.332107,0 -0.520899,-0.21497 -0.187413,-0.21636 -0.187413,-0.59532 0,-0.38034 0.187413,-0.59531 0.188792,-0.21497 0.520899,-0.21497 z"
         style="font-size:2.82222223px;line-height:0.1;text-align:center;text-anchor:middle;stroke:none;stroke-width:0.26458332;stroke-opacity:1"
         id="path6023"
         inkscape:connector-curvature="0" />
      <path
         d="m 46.359807,209.50649 h 0.253559 v 1.54341 h -0.253559 z m 0,-0.60082 h 0.253559 v 0.32108 h -0.253559 z"
         style="font-size:2.82222223px;line-height:0.1;text-align:center;text-anchor:middle;stroke:none;stroke-width:0.26458332;stroke-opacity:1"
         id="path6025"
         inkscape:connector-curvature="0" />
      <path
         d="m 47.142533,208.90567 h 0.253559 v 2.14423 h -0.253559 z"
         style="font-size:2.82222223px;line-height:0.1;text-align:center;text-anchor:middle;stroke:none;stroke-width:0.26458332;stroke-opacity:1"
         id="path6027"
         inkscape:connector-curvature="0" />
      <path
         d="m 44.879794,213.50198 h 0.971517 v 0.23426 h -1.30638 v -0.23426 q 0.158474,-0.16399 0.431326,-0.4396 0.274229,-0.27698 0.344509,-0.35691 0.13367,-0.1502 0.186035,-0.25356 0.05374,-0.10473 0.05374,-0.20533 0,-0.16398 -0.115755,-0.26733 -0.114378,-0.10336 -0.299035,-0.10336 -0.130913,0 -0.276985,0.0455 -0.144694,0.0455 -0.310059,0.1378 v -0.28112 q 0.168121,-0.0675 0.314193,-0.10197 0.146072,-0.0345 0.267339,-0.0345 0.319705,0 0.509874,0.15985 0.19017,0.15985 0.19017,0.42719 0,0.12678 -0.04823,0.24116 -0.04685,0.113 -0.172255,0.26734 -0.03445,0.04 -0.219108,0.23151 -0.184657,0.19017 -0.520898,0.5333 z"
         style="font-size:2.82222223px;line-height:0.1;text-align:center;text-anchor:middle;stroke:none;stroke-width:0.26458332;stroke-opacity:1"
         id="path6029"
         inkscape:connector-curvature="0" />
    </g>
  </g>
</svg>
