G04 #@! TF.GenerationSoftware,KiCad,Pcbnew,(5.0.0-3-g5ebb6b6)*
G04 #@! TF.CreationDate,2019-04-25T19:55:12+02:00*
G04 #@! TF.ProjectId,pro3320,70726F333332302E6B696361645F7063,rev?*
G04 #@! TF.SameCoordinates,Original*
G04 #@! TF.FileFunction,Legend,Top*
G04 #@! TF.FilePolarity,Positive*
%FSLAX46Y46*%
G04 Gerber Fmt 4.6, Leading zero omitted, Abs format (unit mm)*
G04 Created by KiCad (PCBNEW (5.0.0-3-g5ebb6b6)) date Thursday 25 April 2019 19:55:12*
%MOMM*%
%LPD*%
G01*
G04 APERTURE LIST*
%ADD10C,0.200000*%
%ADD11C,0.120000*%
%ADD12C,0.150000*%
G04 APERTURE END LIST*
D10*
X147013571Y-100243809D02*
X145713571Y-100243809D01*
X146951666Y-100243809D02*
X147013571Y-100367619D01*
X147013571Y-100615238D01*
X146951666Y-100739047D01*
X146889761Y-100800952D01*
X146765952Y-100862857D01*
X146394523Y-100862857D01*
X146270714Y-100800952D01*
X146208809Y-100739047D01*
X146146904Y-100615238D01*
X146146904Y-100367619D01*
X146208809Y-100243809D01*
X146146904Y-101420000D02*
X147013571Y-101420000D01*
X146765952Y-101420000D02*
X146889761Y-101481904D01*
X146951666Y-101543809D01*
X147013571Y-101667619D01*
X147013571Y-101791428D01*
X146146904Y-102410476D02*
X146208809Y-102286666D01*
X146270714Y-102224761D01*
X146394523Y-102162857D01*
X146765952Y-102162857D01*
X146889761Y-102224761D01*
X146951666Y-102286666D01*
X147013571Y-102410476D01*
X147013571Y-102596190D01*
X146951666Y-102720000D01*
X146889761Y-102781904D01*
X146765952Y-102843809D01*
X146394523Y-102843809D01*
X146270714Y-102781904D01*
X146208809Y-102720000D01*
X146146904Y-102596190D01*
X146146904Y-102410476D01*
X147446904Y-103277142D02*
X147446904Y-104081904D01*
X146951666Y-103648571D01*
X146951666Y-103834285D01*
X146889761Y-103958095D01*
X146827857Y-104020000D01*
X146704047Y-104081904D01*
X146394523Y-104081904D01*
X146270714Y-104020000D01*
X146208809Y-103958095D01*
X146146904Y-103834285D01*
X146146904Y-103462857D01*
X146208809Y-103339047D01*
X146270714Y-103277142D01*
X147446904Y-104515238D02*
X147446904Y-105320000D01*
X146951666Y-104886666D01*
X146951666Y-105072380D01*
X146889761Y-105196190D01*
X146827857Y-105258095D01*
X146704047Y-105320000D01*
X146394523Y-105320000D01*
X146270714Y-105258095D01*
X146208809Y-105196190D01*
X146146904Y-105072380D01*
X146146904Y-104700952D01*
X146208809Y-104577142D01*
X146270714Y-104515238D01*
X147323095Y-105815238D02*
X147385000Y-105877142D01*
X147446904Y-106000952D01*
X147446904Y-106310476D01*
X147385000Y-106434285D01*
X147323095Y-106496190D01*
X147199285Y-106558095D01*
X147075476Y-106558095D01*
X146889761Y-106496190D01*
X146146904Y-105753333D01*
X146146904Y-106558095D01*
X147446904Y-107362857D02*
X147446904Y-107486666D01*
X147385000Y-107610476D01*
X147323095Y-107672380D01*
X147199285Y-107734285D01*
X146951666Y-107796190D01*
X146642142Y-107796190D01*
X146394523Y-107734285D01*
X146270714Y-107672380D01*
X146208809Y-107610476D01*
X146146904Y-107486666D01*
X146146904Y-107362857D01*
X146208809Y-107239047D01*
X146270714Y-107177142D01*
X146394523Y-107115238D01*
X146642142Y-107053333D01*
X146951666Y-107053333D01*
X147199285Y-107115238D01*
X147323095Y-107177142D01*
X147385000Y-107239047D01*
X147446904Y-107362857D01*
X147013571Y-109220000D02*
X146146904Y-109529523D01*
X147013571Y-109839047D01*
X146208809Y-110891428D02*
X146146904Y-110767619D01*
X146146904Y-110520000D01*
X146208809Y-110396190D01*
X146270714Y-110334285D01*
X146394523Y-110272380D01*
X146765952Y-110272380D01*
X146889761Y-110334285D01*
X146951666Y-110396190D01*
X147013571Y-110520000D01*
X147013571Y-110767619D01*
X146951666Y-110891428D01*
X147013571Y-111262857D02*
X147013571Y-111758095D01*
X146146904Y-111448571D02*
X147261190Y-111448571D01*
X147385000Y-111510476D01*
X147446904Y-111634285D01*
X147446904Y-111758095D01*
X146208809Y-112253333D02*
X146146904Y-112253333D01*
X146023095Y-112191428D01*
X145961190Y-112129523D01*
X146146904Y-113800952D02*
X147013571Y-113800952D01*
X146765952Y-113800952D02*
X146889761Y-113862857D01*
X146951666Y-113924761D01*
X147013571Y-114048571D01*
X147013571Y-114172380D01*
X146208809Y-115100952D02*
X146146904Y-114977142D01*
X146146904Y-114729523D01*
X146208809Y-114605714D01*
X146332619Y-114543809D01*
X146827857Y-114543809D01*
X146951666Y-114605714D01*
X147013571Y-114729523D01*
X147013571Y-114977142D01*
X146951666Y-115100952D01*
X146827857Y-115162857D01*
X146704047Y-115162857D01*
X146580238Y-114543809D01*
X147013571Y-115596190D02*
X146146904Y-115905714D01*
X147013571Y-116215238D01*
X146518333Y-117639047D02*
X146518333Y-118258095D01*
X146146904Y-117515238D02*
X147446904Y-117948571D01*
X146146904Y-118381904D01*
X144058809Y-96746190D02*
X143996904Y-96622380D01*
X143996904Y-96374761D01*
X144058809Y-96250952D01*
X144182619Y-96189047D01*
X144677857Y-96189047D01*
X144801666Y-96250952D01*
X144863571Y-96374761D01*
X144863571Y-96622380D01*
X144801666Y-96746190D01*
X144677857Y-96808095D01*
X144554047Y-96808095D01*
X144430238Y-96189047D01*
X143996904Y-97550952D02*
X144058809Y-97427142D01*
X144182619Y-97365238D01*
X145296904Y-97365238D01*
X144058809Y-98541428D02*
X143996904Y-98417619D01*
X143996904Y-98170000D01*
X144058809Y-98046190D01*
X144182619Y-97984285D01*
X144677857Y-97984285D01*
X144801666Y-98046190D01*
X144863571Y-98170000D01*
X144863571Y-98417619D01*
X144801666Y-98541428D01*
X144677857Y-98603333D01*
X144554047Y-98603333D01*
X144430238Y-97984285D01*
X144058809Y-99717619D02*
X143996904Y-99593809D01*
X143996904Y-99346190D01*
X144058809Y-99222380D01*
X144120714Y-99160476D01*
X144244523Y-99098571D01*
X144615952Y-99098571D01*
X144739761Y-99160476D01*
X144801666Y-99222380D01*
X144863571Y-99346190D01*
X144863571Y-99593809D01*
X144801666Y-99717619D01*
X144863571Y-100089047D02*
X144863571Y-100584285D01*
X145296904Y-100274761D02*
X144182619Y-100274761D01*
X144058809Y-100336666D01*
X143996904Y-100460476D01*
X143996904Y-100584285D01*
X143996904Y-101017619D02*
X144863571Y-101017619D01*
X144615952Y-101017619D02*
X144739761Y-101079523D01*
X144801666Y-101141428D01*
X144863571Y-101265238D01*
X144863571Y-101389047D01*
X143996904Y-102008095D02*
X144058809Y-101884285D01*
X144120714Y-101822380D01*
X144244523Y-101760476D01*
X144615952Y-101760476D01*
X144739761Y-101822380D01*
X144801666Y-101884285D01*
X144863571Y-102008095D01*
X144863571Y-102193809D01*
X144801666Y-102317619D01*
X144739761Y-102379523D01*
X144615952Y-102441428D01*
X144244523Y-102441428D01*
X144120714Y-102379523D01*
X144058809Y-102317619D01*
X143996904Y-102193809D01*
X143996904Y-102008095D01*
X144863571Y-102998571D02*
X143996904Y-102998571D01*
X144739761Y-102998571D02*
X144801666Y-103060476D01*
X144863571Y-103184285D01*
X144863571Y-103370000D01*
X144801666Y-103493809D01*
X144677857Y-103555714D01*
X143996904Y-103555714D01*
X143996904Y-104174761D02*
X144863571Y-104174761D01*
X145296904Y-104174761D02*
X145235000Y-104112857D01*
X145173095Y-104174761D01*
X145235000Y-104236666D01*
X145296904Y-104174761D01*
X145173095Y-104174761D01*
X144058809Y-105350952D02*
X143996904Y-105227142D01*
X143996904Y-104979523D01*
X144058809Y-104855714D01*
X144120714Y-104793809D01*
X144244523Y-104731904D01*
X144615952Y-104731904D01*
X144739761Y-104793809D01*
X144801666Y-104855714D01*
X144863571Y-104979523D01*
X144863571Y-105227142D01*
X144801666Y-105350952D01*
X144058809Y-106836666D02*
X143996904Y-106960476D01*
X143996904Y-107208095D01*
X144058809Y-107331904D01*
X144182619Y-107393809D01*
X144244523Y-107393809D01*
X144368333Y-107331904D01*
X144430238Y-107208095D01*
X144430238Y-107022380D01*
X144492142Y-106898571D01*
X144615952Y-106836666D01*
X144677857Y-106836666D01*
X144801666Y-106898571D01*
X144863571Y-107022380D01*
X144863571Y-107208095D01*
X144801666Y-107331904D01*
X143996904Y-108136666D02*
X144058809Y-108012857D01*
X144120714Y-107950952D01*
X144244523Y-107889047D01*
X144615952Y-107889047D01*
X144739761Y-107950952D01*
X144801666Y-108012857D01*
X144863571Y-108136666D01*
X144863571Y-108322380D01*
X144801666Y-108446190D01*
X144739761Y-108508095D01*
X144615952Y-108570000D01*
X144244523Y-108570000D01*
X144120714Y-108508095D01*
X144058809Y-108446190D01*
X143996904Y-108322380D01*
X143996904Y-108136666D01*
X144863571Y-109684285D02*
X143996904Y-109684285D01*
X144863571Y-109127142D02*
X144182619Y-109127142D01*
X144058809Y-109189047D01*
X143996904Y-109312857D01*
X143996904Y-109498571D01*
X144058809Y-109622380D01*
X144120714Y-109684285D01*
X144863571Y-110303333D02*
X143996904Y-110303333D01*
X144739761Y-110303333D02*
X144801666Y-110365238D01*
X144863571Y-110489047D01*
X144863571Y-110674761D01*
X144801666Y-110798571D01*
X144677857Y-110860476D01*
X143996904Y-110860476D01*
X143996904Y-112036666D02*
X145296904Y-112036666D01*
X144058809Y-112036666D02*
X143996904Y-111912857D01*
X143996904Y-111665238D01*
X144058809Y-111541428D01*
X144120714Y-111479523D01*
X144244523Y-111417619D01*
X144615952Y-111417619D01*
X144739761Y-111479523D01*
X144801666Y-111541428D01*
X144863571Y-111665238D01*
X144863571Y-111912857D01*
X144801666Y-112036666D01*
X143996904Y-113646190D02*
X144863571Y-113646190D01*
X144739761Y-113646190D02*
X144801666Y-113708095D01*
X144863571Y-113831904D01*
X144863571Y-114017619D01*
X144801666Y-114141428D01*
X144677857Y-114203333D01*
X143996904Y-114203333D01*
X144677857Y-114203333D02*
X144801666Y-114265238D01*
X144863571Y-114389047D01*
X144863571Y-114574761D01*
X144801666Y-114698571D01*
X144677857Y-114760476D01*
X143996904Y-114760476D01*
X143996904Y-115936666D02*
X144677857Y-115936666D01*
X144801666Y-115874761D01*
X144863571Y-115750952D01*
X144863571Y-115503333D01*
X144801666Y-115379523D01*
X144058809Y-115936666D02*
X143996904Y-115812857D01*
X143996904Y-115503333D01*
X144058809Y-115379523D01*
X144182619Y-115317619D01*
X144306428Y-115317619D01*
X144430238Y-115379523D01*
X144492142Y-115503333D01*
X144492142Y-115812857D01*
X144554047Y-115936666D01*
X144058809Y-117112857D02*
X143996904Y-116989047D01*
X143996904Y-116741428D01*
X144058809Y-116617619D01*
X144120714Y-116555714D01*
X144244523Y-116493809D01*
X144615952Y-116493809D01*
X144739761Y-116555714D01*
X144801666Y-116617619D01*
X144863571Y-116741428D01*
X144863571Y-116989047D01*
X144801666Y-117112857D01*
X143996904Y-117670000D02*
X145296904Y-117670000D01*
X143996904Y-118227142D02*
X144677857Y-118227142D01*
X144801666Y-118165238D01*
X144863571Y-118041428D01*
X144863571Y-117855714D01*
X144801666Y-117731904D01*
X144739761Y-117670000D01*
X143996904Y-118846190D02*
X144863571Y-118846190D01*
X145296904Y-118846190D02*
X145235000Y-118784285D01*
X145173095Y-118846190D01*
X145235000Y-118908095D01*
X145296904Y-118846190D01*
X145173095Y-118846190D01*
X144863571Y-119465238D02*
X143996904Y-119465238D01*
X144739761Y-119465238D02*
X144801666Y-119527142D01*
X144863571Y-119650952D01*
X144863571Y-119836666D01*
X144801666Y-119960476D01*
X144677857Y-120022380D01*
X143996904Y-120022380D01*
X144058809Y-121136666D02*
X143996904Y-121012857D01*
X143996904Y-120765238D01*
X144058809Y-120641428D01*
X144182619Y-120579523D01*
X144677857Y-120579523D01*
X144801666Y-120641428D01*
X144863571Y-120765238D01*
X144863571Y-121012857D01*
X144801666Y-121136666D01*
X144677857Y-121198571D01*
X144554047Y-121198571D01*
X144430238Y-120579523D01*
X144058809Y-121693809D02*
X143996904Y-121817619D01*
X143996904Y-122065238D01*
X144058809Y-122189047D01*
X144182619Y-122250952D01*
X144244523Y-122250952D01*
X144368333Y-122189047D01*
X144430238Y-122065238D01*
X144430238Y-121879523D01*
X144492142Y-121755714D01*
X144615952Y-121693809D01*
X144677857Y-121693809D01*
X144801666Y-121755714D01*
X144863571Y-121879523D01*
X144863571Y-122065238D01*
X144801666Y-122189047D01*
X143023095Y-98974761D02*
X143085000Y-99036666D01*
X143146904Y-99160476D01*
X143146904Y-99470000D01*
X143085000Y-99593809D01*
X143023095Y-99655714D01*
X142899285Y-99717619D01*
X142775476Y-99717619D01*
X142589761Y-99655714D01*
X141846904Y-98912857D01*
X141846904Y-99717619D01*
X143146904Y-100522380D02*
X143146904Y-100646190D01*
X143085000Y-100770000D01*
X143023095Y-100831904D01*
X142899285Y-100893809D01*
X142651666Y-100955714D01*
X142342142Y-100955714D01*
X142094523Y-100893809D01*
X141970714Y-100831904D01*
X141908809Y-100770000D01*
X141846904Y-100646190D01*
X141846904Y-100522380D01*
X141908809Y-100398571D01*
X141970714Y-100336666D01*
X142094523Y-100274761D01*
X142342142Y-100212857D01*
X142651666Y-100212857D01*
X142899285Y-100274761D01*
X143023095Y-100336666D01*
X143085000Y-100398571D01*
X143146904Y-100522380D01*
X141846904Y-102193809D02*
X141846904Y-101450952D01*
X141846904Y-101822380D02*
X143146904Y-101822380D01*
X142961190Y-101698571D01*
X142837380Y-101574761D01*
X142775476Y-101450952D01*
X141846904Y-102812857D02*
X141846904Y-103060476D01*
X141908809Y-103184285D01*
X141970714Y-103246190D01*
X142156428Y-103370000D01*
X142404047Y-103431904D01*
X142899285Y-103431904D01*
X143023095Y-103370000D01*
X143085000Y-103308095D01*
X143146904Y-103184285D01*
X143146904Y-102936666D01*
X143085000Y-102812857D01*
X143023095Y-102750952D01*
X142899285Y-102689047D01*
X142589761Y-102689047D01*
X142465952Y-102750952D01*
X142404047Y-102812857D01*
X142342142Y-102936666D01*
X142342142Y-103184285D01*
X142404047Y-103308095D01*
X142465952Y-103370000D01*
X142589761Y-103431904D01*
X141846904Y-104979523D02*
X143146904Y-104979523D01*
X142527857Y-104979523D02*
X142527857Y-105722380D01*
X141846904Y-105722380D02*
X143146904Y-105722380D01*
X141846904Y-106898571D02*
X142527857Y-106898571D01*
X142651666Y-106836666D01*
X142713571Y-106712857D01*
X142713571Y-106465238D01*
X142651666Y-106341428D01*
X141908809Y-106898571D02*
X141846904Y-106774761D01*
X141846904Y-106465238D01*
X141908809Y-106341428D01*
X142032619Y-106279523D01*
X142156428Y-106279523D01*
X142280238Y-106341428D01*
X142342142Y-106465238D01*
X142342142Y-106774761D01*
X142404047Y-106898571D01*
X143023095Y-106589047D02*
X143085000Y-106465238D01*
X143208809Y-106403333D01*
X143332619Y-106465238D01*
X143394523Y-106589047D01*
X143332619Y-106712857D01*
X143208809Y-106774761D01*
X143085000Y-106712857D01*
X143023095Y-106589047D01*
X141846904Y-107517619D02*
X143146904Y-107517619D01*
X142342142Y-107641428D02*
X141846904Y-108012857D01*
X142713571Y-108012857D02*
X142218333Y-107517619D01*
X141846904Y-109127142D02*
X142527857Y-109127142D01*
X142651666Y-109065238D01*
X142713571Y-108941428D01*
X142713571Y-108693809D01*
X142651666Y-108570000D01*
X141908809Y-109127142D02*
X141846904Y-109003333D01*
X141846904Y-108693809D01*
X141908809Y-108570000D01*
X142032619Y-108508095D01*
X142156428Y-108508095D01*
X142280238Y-108570000D01*
X142342142Y-108693809D01*
X142342142Y-109003333D01*
X142404047Y-109127142D01*
X142713571Y-109746190D02*
X141846904Y-109746190D01*
X142589761Y-109746190D02*
X142651666Y-109808095D01*
X142713571Y-109931904D01*
X142713571Y-110117619D01*
X142651666Y-110241428D01*
X142527857Y-110303333D01*
X141846904Y-110303333D01*
X142527857Y-111912857D02*
X142527857Y-112346190D01*
X141846904Y-112531904D02*
X141846904Y-111912857D01*
X143146904Y-111912857D01*
X143146904Y-112531904D01*
X141846904Y-113089047D02*
X142713571Y-113089047D01*
X142465952Y-113089047D02*
X142589761Y-113150952D01*
X142651666Y-113212857D01*
X142713571Y-113336666D01*
X142713571Y-113460476D01*
X141846904Y-113893809D02*
X142713571Y-113893809D01*
X143146904Y-113893809D02*
X143085000Y-113831904D01*
X143023095Y-113893809D01*
X143085000Y-113955714D01*
X143146904Y-113893809D01*
X143023095Y-113893809D01*
X141846904Y-114512857D02*
X143146904Y-114512857D01*
X142342142Y-114636666D02*
X141846904Y-115008095D01*
X142713571Y-115008095D02*
X142218333Y-114512857D01*
X141908809Y-115503333D02*
X141846904Y-115627142D01*
X141846904Y-115874761D01*
X141908809Y-115998571D01*
X142032619Y-116060476D01*
X142094523Y-116060476D01*
X142218333Y-115998571D01*
X142280238Y-115874761D01*
X142280238Y-115689047D01*
X142342142Y-115565238D01*
X142465952Y-115503333D01*
X142527857Y-115503333D01*
X142651666Y-115565238D01*
X142713571Y-115689047D01*
X142713571Y-115874761D01*
X142651666Y-115998571D01*
X141908809Y-116555714D02*
X141846904Y-116679523D01*
X141846904Y-116927142D01*
X141908809Y-117050952D01*
X142032619Y-117112857D01*
X142094523Y-117112857D01*
X142218333Y-117050952D01*
X142280238Y-116927142D01*
X142280238Y-116741428D01*
X142342142Y-116617619D01*
X142465952Y-116555714D01*
X142527857Y-116555714D01*
X142651666Y-116617619D01*
X142713571Y-116741428D01*
X142713571Y-116927142D01*
X142651666Y-117050952D01*
X141846904Y-117855714D02*
X141908809Y-117731904D01*
X141970714Y-117670000D01*
X142094523Y-117608095D01*
X142465952Y-117608095D01*
X142589761Y-117670000D01*
X142651666Y-117731904D01*
X142713571Y-117855714D01*
X142713571Y-118041428D01*
X142651666Y-118165238D01*
X142589761Y-118227142D01*
X142465952Y-118289047D01*
X142094523Y-118289047D01*
X141970714Y-118227142D01*
X141908809Y-118165238D01*
X141846904Y-118041428D01*
X141846904Y-117855714D01*
X142713571Y-118846190D02*
X141846904Y-118846190D01*
X142589761Y-118846190D02*
X142651666Y-118908095D01*
X142713571Y-119031904D01*
X142713571Y-119217619D01*
X142651666Y-119341428D01*
X142527857Y-119403333D01*
X141846904Y-119403333D01*
X140563571Y-101450952D02*
X139696904Y-101450952D01*
X140563571Y-100893809D02*
X139882619Y-100893809D01*
X139758809Y-100955714D01*
X139696904Y-101079523D01*
X139696904Y-101265238D01*
X139758809Y-101389047D01*
X139820714Y-101450952D01*
X139696904Y-102070000D02*
X140996904Y-102070000D01*
X139696904Y-102627142D02*
X140377857Y-102627142D01*
X140501666Y-102565238D01*
X140563571Y-102441428D01*
X140563571Y-102255714D01*
X140501666Y-102131904D01*
X140439761Y-102070000D01*
X139758809Y-103741428D02*
X139696904Y-103617619D01*
X139696904Y-103370000D01*
X139758809Y-103246190D01*
X139882619Y-103184285D01*
X140377857Y-103184285D01*
X140501666Y-103246190D01*
X140563571Y-103370000D01*
X140563571Y-103617619D01*
X140501666Y-103741428D01*
X140377857Y-103803333D01*
X140254047Y-103803333D01*
X140130238Y-103184285D01*
X139696904Y-104360476D02*
X140563571Y-104360476D01*
X140315952Y-104360476D02*
X140439761Y-104422380D01*
X140501666Y-104484285D01*
X140563571Y-104608095D01*
X140563571Y-104731904D01*
X139696904Y-105165238D02*
X140563571Y-105165238D01*
X140996904Y-105165238D02*
X140935000Y-105103333D01*
X140873095Y-105165238D01*
X140935000Y-105227142D01*
X140996904Y-105165238D01*
X140873095Y-105165238D01*
X139696904Y-105784285D02*
X140996904Y-105784285D01*
X140192142Y-105908095D02*
X139696904Y-106279523D01*
X140563571Y-106279523D02*
X140068333Y-105784285D01*
X139758809Y-106774761D02*
X139696904Y-106898571D01*
X139696904Y-107146190D01*
X139758809Y-107270000D01*
X139882619Y-107331904D01*
X139944523Y-107331904D01*
X140068333Y-107270000D01*
X140130238Y-107146190D01*
X140130238Y-106960476D01*
X140192142Y-106836666D01*
X140315952Y-106774761D01*
X140377857Y-106774761D01*
X140501666Y-106836666D01*
X140563571Y-106960476D01*
X140563571Y-107146190D01*
X140501666Y-107270000D01*
X140315952Y-108693809D02*
X140377857Y-108631904D01*
X140439761Y-108508095D01*
X140439761Y-108384285D01*
X140377857Y-108260476D01*
X140315952Y-108198571D01*
X140192142Y-108136666D01*
X140068333Y-108136666D01*
X139944523Y-108198571D01*
X139882619Y-108260476D01*
X139820714Y-108384285D01*
X139820714Y-108508095D01*
X139882619Y-108631904D01*
X139944523Y-108693809D01*
X140439761Y-108693809D02*
X139944523Y-108693809D01*
X139882619Y-108755714D01*
X139882619Y-108817619D01*
X139944523Y-108941428D01*
X140068333Y-109003333D01*
X140377857Y-109003333D01*
X140563571Y-108879523D01*
X140687380Y-108693809D01*
X140749285Y-108446190D01*
X140687380Y-108198571D01*
X140563571Y-108012857D01*
X140377857Y-107889047D01*
X140130238Y-107827142D01*
X139882619Y-107889047D01*
X139696904Y-108012857D01*
X139573095Y-108198571D01*
X139511190Y-108446190D01*
X139573095Y-108693809D01*
X139696904Y-108879523D01*
X140563571Y-109436666D02*
X139696904Y-109746190D01*
X140563571Y-110055714D02*
X139696904Y-109746190D01*
X139387380Y-109622380D01*
X139325476Y-109560476D01*
X139263571Y-109436666D01*
X139696904Y-111108095D02*
X140377857Y-111108095D01*
X140501666Y-111046190D01*
X140563571Y-110922380D01*
X140563571Y-110674761D01*
X140501666Y-110550952D01*
X139758809Y-111108095D02*
X139696904Y-110984285D01*
X139696904Y-110674761D01*
X139758809Y-110550952D01*
X139882619Y-110489047D01*
X140006428Y-110489047D01*
X140130238Y-110550952D01*
X140192142Y-110674761D01*
X140192142Y-110984285D01*
X140254047Y-111108095D01*
X139696904Y-111727142D02*
X140996904Y-111727142D01*
X139696904Y-112284285D02*
X140377857Y-112284285D01*
X140501666Y-112222380D01*
X140563571Y-112098571D01*
X140563571Y-111912857D01*
X140501666Y-111789047D01*
X140439761Y-111727142D01*
X139696904Y-113089047D02*
X139758809Y-112965238D01*
X139820714Y-112903333D01*
X139944523Y-112841428D01*
X140315952Y-112841428D01*
X140439761Y-112903333D01*
X140501666Y-112965238D01*
X140563571Y-113089047D01*
X140563571Y-113274761D01*
X140501666Y-113398571D01*
X140439761Y-113460476D01*
X140315952Y-113522380D01*
X139944523Y-113522380D01*
X139820714Y-113460476D01*
X139758809Y-113398571D01*
X139696904Y-113274761D01*
X139696904Y-113089047D01*
X139696904Y-114265238D02*
X139758809Y-114141428D01*
X139820714Y-114079523D01*
X139944523Y-114017619D01*
X140315952Y-114017619D01*
X140439761Y-114079523D01*
X140501666Y-114141428D01*
X140563571Y-114265238D01*
X140563571Y-114450952D01*
X140501666Y-114574761D01*
X140439761Y-114636666D01*
X140315952Y-114698571D01*
X139944523Y-114698571D01*
X139820714Y-114636666D01*
X139758809Y-114574761D01*
X139696904Y-114450952D01*
X139696904Y-114265238D01*
X139820714Y-115255714D02*
X139758809Y-115317619D01*
X139696904Y-115255714D01*
X139758809Y-115193809D01*
X139820714Y-115255714D01*
X139696904Y-115255714D01*
X139758809Y-116431904D02*
X139696904Y-116308095D01*
X139696904Y-116060476D01*
X139758809Y-115936666D01*
X139820714Y-115874761D01*
X139944523Y-115812857D01*
X140315952Y-115812857D01*
X140439761Y-115874761D01*
X140501666Y-115936666D01*
X140563571Y-116060476D01*
X140563571Y-116308095D01*
X140501666Y-116431904D01*
X139696904Y-117546190D02*
X140377857Y-117546190D01*
X140501666Y-117484285D01*
X140563571Y-117360476D01*
X140563571Y-117112857D01*
X140501666Y-116989047D01*
X139758809Y-117546190D02*
X139696904Y-117422380D01*
X139696904Y-117112857D01*
X139758809Y-116989047D01*
X139882619Y-116927142D01*
X140006428Y-116927142D01*
X140130238Y-116989047D01*
X140192142Y-117112857D01*
X140192142Y-117422380D01*
X140254047Y-117546190D01*
D11*
G04 #@! TO.C,C1*
X142463225Y-41775000D02*
X142463225Y-42275000D01*
X142213225Y-42025000D02*
X142713225Y-42025000D01*
X147619000Y-43216000D02*
X147619000Y-43784000D01*
X147579000Y-42982000D02*
X147579000Y-44018000D01*
X147539000Y-42823000D02*
X147539000Y-44177000D01*
X147499000Y-42695000D02*
X147499000Y-44305000D01*
X147459000Y-42585000D02*
X147459000Y-44415000D01*
X147419000Y-42489000D02*
X147419000Y-44511000D01*
X147379000Y-42402000D02*
X147379000Y-44598000D01*
X147339000Y-42322000D02*
X147339000Y-44678000D01*
X147299000Y-42249000D02*
X147299000Y-44751000D01*
X147259000Y-42181000D02*
X147259000Y-44819000D01*
X147219000Y-42117000D02*
X147219000Y-44883000D01*
X147179000Y-42057000D02*
X147179000Y-44943000D01*
X147139000Y-42000000D02*
X147139000Y-45000000D01*
X147099000Y-41946000D02*
X147099000Y-45054000D01*
X147059000Y-41895000D02*
X147059000Y-45105000D01*
X147019000Y-44540000D02*
X147019000Y-45153000D01*
X147019000Y-41847000D02*
X147019000Y-42460000D01*
X146979000Y-44540000D02*
X146979000Y-45199000D01*
X146979000Y-41801000D02*
X146979000Y-42460000D01*
X146939000Y-44540000D02*
X146939000Y-45243000D01*
X146939000Y-41757000D02*
X146939000Y-42460000D01*
X146899000Y-44540000D02*
X146899000Y-45285000D01*
X146899000Y-41715000D02*
X146899000Y-42460000D01*
X146859000Y-44540000D02*
X146859000Y-45326000D01*
X146859000Y-41674000D02*
X146859000Y-42460000D01*
X146819000Y-44540000D02*
X146819000Y-45364000D01*
X146819000Y-41636000D02*
X146819000Y-42460000D01*
X146779000Y-44540000D02*
X146779000Y-45401000D01*
X146779000Y-41599000D02*
X146779000Y-42460000D01*
X146739000Y-44540000D02*
X146739000Y-45437000D01*
X146739000Y-41563000D02*
X146739000Y-42460000D01*
X146699000Y-44540000D02*
X146699000Y-45471000D01*
X146699000Y-41529000D02*
X146699000Y-42460000D01*
X146659000Y-44540000D02*
X146659000Y-45504000D01*
X146659000Y-41496000D02*
X146659000Y-42460000D01*
X146619000Y-44540000D02*
X146619000Y-45535000D01*
X146619000Y-41465000D02*
X146619000Y-42460000D01*
X146579000Y-44540000D02*
X146579000Y-45565000D01*
X146579000Y-41435000D02*
X146579000Y-42460000D01*
X146539000Y-44540000D02*
X146539000Y-45595000D01*
X146539000Y-41405000D02*
X146539000Y-42460000D01*
X146499000Y-44540000D02*
X146499000Y-45622000D01*
X146499000Y-41378000D02*
X146499000Y-42460000D01*
X146459000Y-44540000D02*
X146459000Y-45649000D01*
X146459000Y-41351000D02*
X146459000Y-42460000D01*
X146419000Y-44540000D02*
X146419000Y-45675000D01*
X146419000Y-41325000D02*
X146419000Y-42460000D01*
X146379000Y-44540000D02*
X146379000Y-45700000D01*
X146379000Y-41300000D02*
X146379000Y-42460000D01*
X146339000Y-44540000D02*
X146339000Y-45724000D01*
X146339000Y-41276000D02*
X146339000Y-42460000D01*
X146299000Y-44540000D02*
X146299000Y-45747000D01*
X146299000Y-41253000D02*
X146299000Y-42460000D01*
X146259000Y-44540000D02*
X146259000Y-45768000D01*
X146259000Y-41232000D02*
X146259000Y-42460000D01*
X146219000Y-44540000D02*
X146219000Y-45790000D01*
X146219000Y-41210000D02*
X146219000Y-42460000D01*
X146179000Y-44540000D02*
X146179000Y-45810000D01*
X146179000Y-41190000D02*
X146179000Y-42460000D01*
X146139000Y-44540000D02*
X146139000Y-45829000D01*
X146139000Y-41171000D02*
X146139000Y-42460000D01*
X146099000Y-44540000D02*
X146099000Y-45848000D01*
X146099000Y-41152000D02*
X146099000Y-42460000D01*
X146059000Y-44540000D02*
X146059000Y-45865000D01*
X146059000Y-41135000D02*
X146059000Y-42460000D01*
X146019000Y-44540000D02*
X146019000Y-45882000D01*
X146019000Y-41118000D02*
X146019000Y-42460000D01*
X145979000Y-44540000D02*
X145979000Y-45898000D01*
X145979000Y-41102000D02*
X145979000Y-42460000D01*
X145939000Y-44540000D02*
X145939000Y-45914000D01*
X145939000Y-41086000D02*
X145939000Y-42460000D01*
X145899000Y-44540000D02*
X145899000Y-45928000D01*
X145899000Y-41072000D02*
X145899000Y-42460000D01*
X145859000Y-44540000D02*
X145859000Y-45942000D01*
X145859000Y-41058000D02*
X145859000Y-42460000D01*
X145819000Y-44540000D02*
X145819000Y-45955000D01*
X145819000Y-41045000D02*
X145819000Y-42460000D01*
X145779000Y-44540000D02*
X145779000Y-45968000D01*
X145779000Y-41032000D02*
X145779000Y-42460000D01*
X145739000Y-44540000D02*
X145739000Y-45980000D01*
X145739000Y-41020000D02*
X145739000Y-42460000D01*
X145698000Y-44540000D02*
X145698000Y-45991000D01*
X145698000Y-41009000D02*
X145698000Y-42460000D01*
X145658000Y-44540000D02*
X145658000Y-46001000D01*
X145658000Y-40999000D02*
X145658000Y-42460000D01*
X145618000Y-44540000D02*
X145618000Y-46011000D01*
X145618000Y-40989000D02*
X145618000Y-42460000D01*
X145578000Y-44540000D02*
X145578000Y-46020000D01*
X145578000Y-40980000D02*
X145578000Y-42460000D01*
X145538000Y-44540000D02*
X145538000Y-46028000D01*
X145538000Y-40972000D02*
X145538000Y-42460000D01*
X145498000Y-44540000D02*
X145498000Y-46036000D01*
X145498000Y-40964000D02*
X145498000Y-42460000D01*
X145458000Y-44540000D02*
X145458000Y-46043000D01*
X145458000Y-40957000D02*
X145458000Y-42460000D01*
X145418000Y-44540000D02*
X145418000Y-46050000D01*
X145418000Y-40950000D02*
X145418000Y-42460000D01*
X145378000Y-44540000D02*
X145378000Y-46056000D01*
X145378000Y-40944000D02*
X145378000Y-42460000D01*
X145338000Y-44540000D02*
X145338000Y-46061000D01*
X145338000Y-40939000D02*
X145338000Y-42460000D01*
X145298000Y-44540000D02*
X145298000Y-46065000D01*
X145298000Y-40935000D02*
X145298000Y-42460000D01*
X145258000Y-44540000D02*
X145258000Y-46069000D01*
X145258000Y-40931000D02*
X145258000Y-42460000D01*
X145218000Y-44540000D02*
X145218000Y-46073000D01*
X145218000Y-40927000D02*
X145218000Y-42460000D01*
X145178000Y-44540000D02*
X145178000Y-46076000D01*
X145178000Y-40924000D02*
X145178000Y-42460000D01*
X145138000Y-44540000D02*
X145138000Y-46078000D01*
X145138000Y-40922000D02*
X145138000Y-42460000D01*
X145098000Y-44540000D02*
X145098000Y-46079000D01*
X145098000Y-40921000D02*
X145098000Y-42460000D01*
X145058000Y-40920000D02*
X145058000Y-42460000D01*
X145058000Y-44540000D02*
X145058000Y-46080000D01*
X145018000Y-40920000D02*
X145018000Y-42460000D01*
X145018000Y-44540000D02*
X145018000Y-46080000D01*
X147638000Y-43500000D02*
G75*
G03X147638000Y-43500000I-2620000J0D01*
G01*
G04 #@! TO.C,C2*
X111610000Y-65878000D02*
X104370000Y-65878000D01*
X111610000Y-62138000D02*
X104370000Y-62138000D01*
X111610000Y-65878000D02*
X111610000Y-62138000D01*
X104370000Y-65878000D02*
X104370000Y-62138000D01*
G04 #@! TO.C,C3*
X104370000Y-61560000D02*
X104370000Y-57820000D01*
X111610000Y-61560000D02*
X111610000Y-57820000D01*
X111610000Y-57820000D02*
X104370000Y-57820000D01*
X111610000Y-61560000D02*
X104370000Y-61560000D01*
G04 #@! TO.C,C4*
X102934000Y-127000000D02*
G75*
G03X102934000Y-127000000I-2620000J0D01*
G01*
X100314000Y-128040000D02*
X100314000Y-129580000D01*
X100314000Y-124420000D02*
X100314000Y-125960000D01*
X100354000Y-128040000D02*
X100354000Y-129580000D01*
X100354000Y-124420000D02*
X100354000Y-125960000D01*
X100394000Y-124421000D02*
X100394000Y-125960000D01*
X100394000Y-128040000D02*
X100394000Y-129579000D01*
X100434000Y-124422000D02*
X100434000Y-125960000D01*
X100434000Y-128040000D02*
X100434000Y-129578000D01*
X100474000Y-124424000D02*
X100474000Y-125960000D01*
X100474000Y-128040000D02*
X100474000Y-129576000D01*
X100514000Y-124427000D02*
X100514000Y-125960000D01*
X100514000Y-128040000D02*
X100514000Y-129573000D01*
X100554000Y-124431000D02*
X100554000Y-125960000D01*
X100554000Y-128040000D02*
X100554000Y-129569000D01*
X100594000Y-124435000D02*
X100594000Y-125960000D01*
X100594000Y-128040000D02*
X100594000Y-129565000D01*
X100634000Y-124439000D02*
X100634000Y-125960000D01*
X100634000Y-128040000D02*
X100634000Y-129561000D01*
X100674000Y-124444000D02*
X100674000Y-125960000D01*
X100674000Y-128040000D02*
X100674000Y-129556000D01*
X100714000Y-124450000D02*
X100714000Y-125960000D01*
X100714000Y-128040000D02*
X100714000Y-129550000D01*
X100754000Y-124457000D02*
X100754000Y-125960000D01*
X100754000Y-128040000D02*
X100754000Y-129543000D01*
X100794000Y-124464000D02*
X100794000Y-125960000D01*
X100794000Y-128040000D02*
X100794000Y-129536000D01*
X100834000Y-124472000D02*
X100834000Y-125960000D01*
X100834000Y-128040000D02*
X100834000Y-129528000D01*
X100874000Y-124480000D02*
X100874000Y-125960000D01*
X100874000Y-128040000D02*
X100874000Y-129520000D01*
X100914000Y-124489000D02*
X100914000Y-125960000D01*
X100914000Y-128040000D02*
X100914000Y-129511000D01*
X100954000Y-124499000D02*
X100954000Y-125960000D01*
X100954000Y-128040000D02*
X100954000Y-129501000D01*
X100994000Y-124509000D02*
X100994000Y-125960000D01*
X100994000Y-128040000D02*
X100994000Y-129491000D01*
X101035000Y-124520000D02*
X101035000Y-125960000D01*
X101035000Y-128040000D02*
X101035000Y-129480000D01*
X101075000Y-124532000D02*
X101075000Y-125960000D01*
X101075000Y-128040000D02*
X101075000Y-129468000D01*
X101115000Y-124545000D02*
X101115000Y-125960000D01*
X101115000Y-128040000D02*
X101115000Y-129455000D01*
X101155000Y-124558000D02*
X101155000Y-125960000D01*
X101155000Y-128040000D02*
X101155000Y-129442000D01*
X101195000Y-124572000D02*
X101195000Y-125960000D01*
X101195000Y-128040000D02*
X101195000Y-129428000D01*
X101235000Y-124586000D02*
X101235000Y-125960000D01*
X101235000Y-128040000D02*
X101235000Y-129414000D01*
X101275000Y-124602000D02*
X101275000Y-125960000D01*
X101275000Y-128040000D02*
X101275000Y-129398000D01*
X101315000Y-124618000D02*
X101315000Y-125960000D01*
X101315000Y-128040000D02*
X101315000Y-129382000D01*
X101355000Y-124635000D02*
X101355000Y-125960000D01*
X101355000Y-128040000D02*
X101355000Y-129365000D01*
X101395000Y-124652000D02*
X101395000Y-125960000D01*
X101395000Y-128040000D02*
X101395000Y-129348000D01*
X101435000Y-124671000D02*
X101435000Y-125960000D01*
X101435000Y-128040000D02*
X101435000Y-129329000D01*
X101475000Y-124690000D02*
X101475000Y-125960000D01*
X101475000Y-128040000D02*
X101475000Y-129310000D01*
X101515000Y-124710000D02*
X101515000Y-125960000D01*
X101515000Y-128040000D02*
X101515000Y-129290000D01*
X101555000Y-124732000D02*
X101555000Y-125960000D01*
X101555000Y-128040000D02*
X101555000Y-129268000D01*
X101595000Y-124753000D02*
X101595000Y-125960000D01*
X101595000Y-128040000D02*
X101595000Y-129247000D01*
X101635000Y-124776000D02*
X101635000Y-125960000D01*
X101635000Y-128040000D02*
X101635000Y-129224000D01*
X101675000Y-124800000D02*
X101675000Y-125960000D01*
X101675000Y-128040000D02*
X101675000Y-129200000D01*
X101715000Y-124825000D02*
X101715000Y-125960000D01*
X101715000Y-128040000D02*
X101715000Y-129175000D01*
X101755000Y-124851000D02*
X101755000Y-125960000D01*
X101755000Y-128040000D02*
X101755000Y-129149000D01*
X101795000Y-124878000D02*
X101795000Y-125960000D01*
X101795000Y-128040000D02*
X101795000Y-129122000D01*
X101835000Y-124905000D02*
X101835000Y-125960000D01*
X101835000Y-128040000D02*
X101835000Y-129095000D01*
X101875000Y-124935000D02*
X101875000Y-125960000D01*
X101875000Y-128040000D02*
X101875000Y-129065000D01*
X101915000Y-124965000D02*
X101915000Y-125960000D01*
X101915000Y-128040000D02*
X101915000Y-129035000D01*
X101955000Y-124996000D02*
X101955000Y-125960000D01*
X101955000Y-128040000D02*
X101955000Y-129004000D01*
X101995000Y-125029000D02*
X101995000Y-125960000D01*
X101995000Y-128040000D02*
X101995000Y-128971000D01*
X102035000Y-125063000D02*
X102035000Y-125960000D01*
X102035000Y-128040000D02*
X102035000Y-128937000D01*
X102075000Y-125099000D02*
X102075000Y-125960000D01*
X102075000Y-128040000D02*
X102075000Y-128901000D01*
X102115000Y-125136000D02*
X102115000Y-125960000D01*
X102115000Y-128040000D02*
X102115000Y-128864000D01*
X102155000Y-125174000D02*
X102155000Y-125960000D01*
X102155000Y-128040000D02*
X102155000Y-128826000D01*
X102195000Y-125215000D02*
X102195000Y-125960000D01*
X102195000Y-128040000D02*
X102195000Y-128785000D01*
X102235000Y-125257000D02*
X102235000Y-125960000D01*
X102235000Y-128040000D02*
X102235000Y-128743000D01*
X102275000Y-125301000D02*
X102275000Y-125960000D01*
X102275000Y-128040000D02*
X102275000Y-128699000D01*
X102315000Y-125347000D02*
X102315000Y-125960000D01*
X102315000Y-128040000D02*
X102315000Y-128653000D01*
X102355000Y-125395000D02*
X102355000Y-128605000D01*
X102395000Y-125446000D02*
X102395000Y-128554000D01*
X102435000Y-125500000D02*
X102435000Y-128500000D01*
X102475000Y-125557000D02*
X102475000Y-128443000D01*
X102515000Y-125617000D02*
X102515000Y-128383000D01*
X102555000Y-125681000D02*
X102555000Y-128319000D01*
X102595000Y-125749000D02*
X102595000Y-128251000D01*
X102635000Y-125822000D02*
X102635000Y-128178000D01*
X102675000Y-125902000D02*
X102675000Y-128098000D01*
X102715000Y-125989000D02*
X102715000Y-128011000D01*
X102755000Y-126085000D02*
X102755000Y-127915000D01*
X102795000Y-126195000D02*
X102795000Y-127805000D01*
X102835000Y-126323000D02*
X102835000Y-127677000D01*
X102875000Y-126482000D02*
X102875000Y-127518000D01*
X102915000Y-126716000D02*
X102915000Y-127284000D01*
X97509225Y-125525000D02*
X98009225Y-125525000D01*
X97759225Y-125275000D02*
X97759225Y-125775000D01*
G04 #@! TO.C,C5*
X93470775Y-123391000D02*
X93470775Y-122891000D01*
X93720775Y-123141000D02*
X93220775Y-123141000D01*
X88315000Y-121950000D02*
X88315000Y-121382000D01*
X88355000Y-122184000D02*
X88355000Y-121148000D01*
X88395000Y-122343000D02*
X88395000Y-120989000D01*
X88435000Y-122471000D02*
X88435000Y-120861000D01*
X88475000Y-122581000D02*
X88475000Y-120751000D01*
X88515000Y-122677000D02*
X88515000Y-120655000D01*
X88555000Y-122764000D02*
X88555000Y-120568000D01*
X88595000Y-122844000D02*
X88595000Y-120488000D01*
X88635000Y-122917000D02*
X88635000Y-120415000D01*
X88675000Y-122985000D02*
X88675000Y-120347000D01*
X88715000Y-123049000D02*
X88715000Y-120283000D01*
X88755000Y-123109000D02*
X88755000Y-120223000D01*
X88795000Y-123166000D02*
X88795000Y-120166000D01*
X88835000Y-123220000D02*
X88835000Y-120112000D01*
X88875000Y-123271000D02*
X88875000Y-120061000D01*
X88915000Y-120626000D02*
X88915000Y-120013000D01*
X88915000Y-123319000D02*
X88915000Y-122706000D01*
X88955000Y-120626000D02*
X88955000Y-119967000D01*
X88955000Y-123365000D02*
X88955000Y-122706000D01*
X88995000Y-120626000D02*
X88995000Y-119923000D01*
X88995000Y-123409000D02*
X88995000Y-122706000D01*
X89035000Y-120626000D02*
X89035000Y-119881000D01*
X89035000Y-123451000D02*
X89035000Y-122706000D01*
X89075000Y-120626000D02*
X89075000Y-119840000D01*
X89075000Y-123492000D02*
X89075000Y-122706000D01*
X89115000Y-120626000D02*
X89115000Y-119802000D01*
X89115000Y-123530000D02*
X89115000Y-122706000D01*
X89155000Y-120626000D02*
X89155000Y-119765000D01*
X89155000Y-123567000D02*
X89155000Y-122706000D01*
X89195000Y-120626000D02*
X89195000Y-119729000D01*
X89195000Y-123603000D02*
X89195000Y-122706000D01*
X89235000Y-120626000D02*
X89235000Y-119695000D01*
X89235000Y-123637000D02*
X89235000Y-122706000D01*
X89275000Y-120626000D02*
X89275000Y-119662000D01*
X89275000Y-123670000D02*
X89275000Y-122706000D01*
X89315000Y-120626000D02*
X89315000Y-119631000D01*
X89315000Y-123701000D02*
X89315000Y-122706000D01*
X89355000Y-120626000D02*
X89355000Y-119601000D01*
X89355000Y-123731000D02*
X89355000Y-122706000D01*
X89395000Y-120626000D02*
X89395000Y-119571000D01*
X89395000Y-123761000D02*
X89395000Y-122706000D01*
X89435000Y-120626000D02*
X89435000Y-119544000D01*
X89435000Y-123788000D02*
X89435000Y-122706000D01*
X89475000Y-120626000D02*
X89475000Y-119517000D01*
X89475000Y-123815000D02*
X89475000Y-122706000D01*
X89515000Y-120626000D02*
X89515000Y-119491000D01*
X89515000Y-123841000D02*
X89515000Y-122706000D01*
X89555000Y-120626000D02*
X89555000Y-119466000D01*
X89555000Y-123866000D02*
X89555000Y-122706000D01*
X89595000Y-120626000D02*
X89595000Y-119442000D01*
X89595000Y-123890000D02*
X89595000Y-122706000D01*
X89635000Y-120626000D02*
X89635000Y-119419000D01*
X89635000Y-123913000D02*
X89635000Y-122706000D01*
X89675000Y-120626000D02*
X89675000Y-119398000D01*
X89675000Y-123934000D02*
X89675000Y-122706000D01*
X89715000Y-120626000D02*
X89715000Y-119376000D01*
X89715000Y-123956000D02*
X89715000Y-122706000D01*
X89755000Y-120626000D02*
X89755000Y-119356000D01*
X89755000Y-123976000D02*
X89755000Y-122706000D01*
X89795000Y-120626000D02*
X89795000Y-119337000D01*
X89795000Y-123995000D02*
X89795000Y-122706000D01*
X89835000Y-120626000D02*
X89835000Y-119318000D01*
X89835000Y-124014000D02*
X89835000Y-122706000D01*
X89875000Y-120626000D02*
X89875000Y-119301000D01*
X89875000Y-124031000D02*
X89875000Y-122706000D01*
X89915000Y-120626000D02*
X89915000Y-119284000D01*
X89915000Y-124048000D02*
X89915000Y-122706000D01*
X89955000Y-120626000D02*
X89955000Y-119268000D01*
X89955000Y-124064000D02*
X89955000Y-122706000D01*
X89995000Y-120626000D02*
X89995000Y-119252000D01*
X89995000Y-124080000D02*
X89995000Y-122706000D01*
X90035000Y-120626000D02*
X90035000Y-119238000D01*
X90035000Y-124094000D02*
X90035000Y-122706000D01*
X90075000Y-120626000D02*
X90075000Y-119224000D01*
X90075000Y-124108000D02*
X90075000Y-122706000D01*
X90115000Y-120626000D02*
X90115000Y-119211000D01*
X90115000Y-124121000D02*
X90115000Y-122706000D01*
X90155000Y-120626000D02*
X90155000Y-119198000D01*
X90155000Y-124134000D02*
X90155000Y-122706000D01*
X90195000Y-120626000D02*
X90195000Y-119186000D01*
X90195000Y-124146000D02*
X90195000Y-122706000D01*
X90236000Y-120626000D02*
X90236000Y-119175000D01*
X90236000Y-124157000D02*
X90236000Y-122706000D01*
X90276000Y-120626000D02*
X90276000Y-119165000D01*
X90276000Y-124167000D02*
X90276000Y-122706000D01*
X90316000Y-120626000D02*
X90316000Y-119155000D01*
X90316000Y-124177000D02*
X90316000Y-122706000D01*
X90356000Y-120626000D02*
X90356000Y-119146000D01*
X90356000Y-124186000D02*
X90356000Y-122706000D01*
X90396000Y-120626000D02*
X90396000Y-119138000D01*
X90396000Y-124194000D02*
X90396000Y-122706000D01*
X90436000Y-120626000D02*
X90436000Y-119130000D01*
X90436000Y-124202000D02*
X90436000Y-122706000D01*
X90476000Y-120626000D02*
X90476000Y-119123000D01*
X90476000Y-124209000D02*
X90476000Y-122706000D01*
X90516000Y-120626000D02*
X90516000Y-119116000D01*
X90516000Y-124216000D02*
X90516000Y-122706000D01*
X90556000Y-120626000D02*
X90556000Y-119110000D01*
X90556000Y-124222000D02*
X90556000Y-122706000D01*
X90596000Y-120626000D02*
X90596000Y-119105000D01*
X90596000Y-124227000D02*
X90596000Y-122706000D01*
X90636000Y-120626000D02*
X90636000Y-119101000D01*
X90636000Y-124231000D02*
X90636000Y-122706000D01*
X90676000Y-120626000D02*
X90676000Y-119097000D01*
X90676000Y-124235000D02*
X90676000Y-122706000D01*
X90716000Y-120626000D02*
X90716000Y-119093000D01*
X90716000Y-124239000D02*
X90716000Y-122706000D01*
X90756000Y-120626000D02*
X90756000Y-119090000D01*
X90756000Y-124242000D02*
X90756000Y-122706000D01*
X90796000Y-120626000D02*
X90796000Y-119088000D01*
X90796000Y-124244000D02*
X90796000Y-122706000D01*
X90836000Y-120626000D02*
X90836000Y-119087000D01*
X90836000Y-124245000D02*
X90836000Y-122706000D01*
X90876000Y-124246000D02*
X90876000Y-122706000D01*
X90876000Y-120626000D02*
X90876000Y-119086000D01*
X90916000Y-124246000D02*
X90916000Y-122706000D01*
X90916000Y-120626000D02*
X90916000Y-119086000D01*
X93536000Y-121666000D02*
G75*
G03X93536000Y-121666000I-2620000J0D01*
G01*
G04 #@! TO.C,C6*
X104270000Y-57242000D02*
X104270000Y-53502000D01*
X111710000Y-57242000D02*
X111710000Y-53502000D01*
X111710000Y-53502000D02*
X104270000Y-53502000D01*
X111710000Y-57242000D02*
X104270000Y-57242000D01*
G04 #@! TO.C,C7*
X119584000Y-69180000D02*
X112144000Y-69180000D01*
X119584000Y-65440000D02*
X112144000Y-65440000D01*
X119584000Y-69180000D02*
X119584000Y-65440000D01*
X112144000Y-69180000D02*
X112144000Y-65440000D01*
G04 #@! TO.C,C8*
X117694000Y-97406000D02*
X113954000Y-97406000D01*
X117694000Y-89966000D02*
X113954000Y-89966000D01*
X113954000Y-89966000D02*
X113954000Y-97406000D01*
X117694000Y-89966000D02*
X117694000Y-97406000D01*
G04 #@! TO.C,C9*
X98206000Y-97486000D02*
X98206000Y-90046000D01*
X101946000Y-97486000D02*
X101946000Y-90046000D01*
X98206000Y-97486000D02*
X101946000Y-97486000D01*
X98206000Y-90046000D02*
X101946000Y-90046000D01*
G04 #@! TO.C,C12*
X101184000Y-106196000D02*
X97444000Y-106196000D01*
X101184000Y-98956000D02*
X97444000Y-98956000D01*
X97444000Y-98956000D02*
X97444000Y-106196000D01*
X101184000Y-98956000D02*
X101184000Y-106196000D01*
G04 #@! TO.C,C13*
X104290000Y-66456000D02*
X111530000Y-66456000D01*
X104290000Y-70196000D02*
X111530000Y-70196000D01*
X104290000Y-66456000D02*
X104290000Y-70196000D01*
X111530000Y-66456000D02*
X111530000Y-70196000D01*
G04 #@! TO.C,C14*
X139002000Y-118364000D02*
G75*
G03X139002000Y-118364000I-2620000J0D01*
G01*
X136382000Y-119404000D02*
X136382000Y-120944000D01*
X136382000Y-115784000D02*
X136382000Y-117324000D01*
X136422000Y-119404000D02*
X136422000Y-120944000D01*
X136422000Y-115784000D02*
X136422000Y-117324000D01*
X136462000Y-115785000D02*
X136462000Y-117324000D01*
X136462000Y-119404000D02*
X136462000Y-120943000D01*
X136502000Y-115786000D02*
X136502000Y-117324000D01*
X136502000Y-119404000D02*
X136502000Y-120942000D01*
X136542000Y-115788000D02*
X136542000Y-117324000D01*
X136542000Y-119404000D02*
X136542000Y-120940000D01*
X136582000Y-115791000D02*
X136582000Y-117324000D01*
X136582000Y-119404000D02*
X136582000Y-120937000D01*
X136622000Y-115795000D02*
X136622000Y-117324000D01*
X136622000Y-119404000D02*
X136622000Y-120933000D01*
X136662000Y-115799000D02*
X136662000Y-117324000D01*
X136662000Y-119404000D02*
X136662000Y-120929000D01*
X136702000Y-115803000D02*
X136702000Y-117324000D01*
X136702000Y-119404000D02*
X136702000Y-120925000D01*
X136742000Y-115808000D02*
X136742000Y-117324000D01*
X136742000Y-119404000D02*
X136742000Y-120920000D01*
X136782000Y-115814000D02*
X136782000Y-117324000D01*
X136782000Y-119404000D02*
X136782000Y-120914000D01*
X136822000Y-115821000D02*
X136822000Y-117324000D01*
X136822000Y-119404000D02*
X136822000Y-120907000D01*
X136862000Y-115828000D02*
X136862000Y-117324000D01*
X136862000Y-119404000D02*
X136862000Y-120900000D01*
X136902000Y-115836000D02*
X136902000Y-117324000D01*
X136902000Y-119404000D02*
X136902000Y-120892000D01*
X136942000Y-115844000D02*
X136942000Y-117324000D01*
X136942000Y-119404000D02*
X136942000Y-120884000D01*
X136982000Y-115853000D02*
X136982000Y-117324000D01*
X136982000Y-119404000D02*
X136982000Y-120875000D01*
X137022000Y-115863000D02*
X137022000Y-117324000D01*
X137022000Y-119404000D02*
X137022000Y-120865000D01*
X137062000Y-115873000D02*
X137062000Y-117324000D01*
X137062000Y-119404000D02*
X137062000Y-120855000D01*
X137103000Y-115884000D02*
X137103000Y-117324000D01*
X137103000Y-119404000D02*
X137103000Y-120844000D01*
X137143000Y-115896000D02*
X137143000Y-117324000D01*
X137143000Y-119404000D02*
X137143000Y-120832000D01*
X137183000Y-115909000D02*
X137183000Y-117324000D01*
X137183000Y-119404000D02*
X137183000Y-120819000D01*
X137223000Y-115922000D02*
X137223000Y-117324000D01*
X137223000Y-119404000D02*
X137223000Y-120806000D01*
X137263000Y-115936000D02*
X137263000Y-117324000D01*
X137263000Y-119404000D02*
X137263000Y-120792000D01*
X137303000Y-115950000D02*
X137303000Y-117324000D01*
X137303000Y-119404000D02*
X137303000Y-120778000D01*
X137343000Y-115966000D02*
X137343000Y-117324000D01*
X137343000Y-119404000D02*
X137343000Y-120762000D01*
X137383000Y-115982000D02*
X137383000Y-117324000D01*
X137383000Y-119404000D02*
X137383000Y-120746000D01*
X137423000Y-115999000D02*
X137423000Y-117324000D01*
X137423000Y-119404000D02*
X137423000Y-120729000D01*
X137463000Y-116016000D02*
X137463000Y-117324000D01*
X137463000Y-119404000D02*
X137463000Y-120712000D01*
X137503000Y-116035000D02*
X137503000Y-117324000D01*
X137503000Y-119404000D02*
X137503000Y-120693000D01*
X137543000Y-116054000D02*
X137543000Y-117324000D01*
X137543000Y-119404000D02*
X137543000Y-120674000D01*
X137583000Y-116074000D02*
X137583000Y-117324000D01*
X137583000Y-119404000D02*
X137583000Y-120654000D01*
X137623000Y-116096000D02*
X137623000Y-117324000D01*
X137623000Y-119404000D02*
X137623000Y-120632000D01*
X137663000Y-116117000D02*
X137663000Y-117324000D01*
X137663000Y-119404000D02*
X137663000Y-120611000D01*
X137703000Y-116140000D02*
X137703000Y-117324000D01*
X137703000Y-119404000D02*
X137703000Y-120588000D01*
X137743000Y-116164000D02*
X137743000Y-117324000D01*
X137743000Y-119404000D02*
X137743000Y-120564000D01*
X137783000Y-116189000D02*
X137783000Y-117324000D01*
X137783000Y-119404000D02*
X137783000Y-120539000D01*
X137823000Y-116215000D02*
X137823000Y-117324000D01*
X137823000Y-119404000D02*
X137823000Y-120513000D01*
X137863000Y-116242000D02*
X137863000Y-117324000D01*
X137863000Y-119404000D02*
X137863000Y-120486000D01*
X137903000Y-116269000D02*
X137903000Y-117324000D01*
X137903000Y-119404000D02*
X137903000Y-120459000D01*
X137943000Y-116299000D02*
X137943000Y-117324000D01*
X137943000Y-119404000D02*
X137943000Y-120429000D01*
X137983000Y-116329000D02*
X137983000Y-117324000D01*
X137983000Y-119404000D02*
X137983000Y-120399000D01*
X138023000Y-116360000D02*
X138023000Y-117324000D01*
X138023000Y-119404000D02*
X138023000Y-120368000D01*
X138063000Y-116393000D02*
X138063000Y-117324000D01*
X138063000Y-119404000D02*
X138063000Y-120335000D01*
X138103000Y-116427000D02*
X138103000Y-117324000D01*
X138103000Y-119404000D02*
X138103000Y-120301000D01*
X138143000Y-116463000D02*
X138143000Y-117324000D01*
X138143000Y-119404000D02*
X138143000Y-120265000D01*
X138183000Y-116500000D02*
X138183000Y-117324000D01*
X138183000Y-119404000D02*
X138183000Y-120228000D01*
X138223000Y-116538000D02*
X138223000Y-117324000D01*
X138223000Y-119404000D02*
X138223000Y-120190000D01*
X138263000Y-116579000D02*
X138263000Y-117324000D01*
X138263000Y-119404000D02*
X138263000Y-120149000D01*
X138303000Y-116621000D02*
X138303000Y-117324000D01*
X138303000Y-119404000D02*
X138303000Y-120107000D01*
X138343000Y-116665000D02*
X138343000Y-117324000D01*
X138343000Y-119404000D02*
X138343000Y-120063000D01*
X138383000Y-116711000D02*
X138383000Y-117324000D01*
X138383000Y-119404000D02*
X138383000Y-120017000D01*
X138423000Y-116759000D02*
X138423000Y-119969000D01*
X138463000Y-116810000D02*
X138463000Y-119918000D01*
X138503000Y-116864000D02*
X138503000Y-119864000D01*
X138543000Y-116921000D02*
X138543000Y-119807000D01*
X138583000Y-116981000D02*
X138583000Y-119747000D01*
X138623000Y-117045000D02*
X138623000Y-119683000D01*
X138663000Y-117113000D02*
X138663000Y-119615000D01*
X138703000Y-117186000D02*
X138703000Y-119542000D01*
X138743000Y-117266000D02*
X138743000Y-119462000D01*
X138783000Y-117353000D02*
X138783000Y-119375000D01*
X138823000Y-117449000D02*
X138823000Y-119279000D01*
X138863000Y-117559000D02*
X138863000Y-119169000D01*
X138903000Y-117687000D02*
X138903000Y-119041000D01*
X138943000Y-117846000D02*
X138943000Y-118882000D01*
X138983000Y-118080000D02*
X138983000Y-118648000D01*
X133577225Y-116889000D02*
X134077225Y-116889000D01*
X133827225Y-116639000D02*
X133827225Y-117139000D01*
G04 #@! TO.C,J4*
X95310000Y-125670000D02*
X90110000Y-125670000D01*
X95310000Y-135890000D02*
X95310000Y-125670000D01*
X90110000Y-138490000D02*
X90110000Y-125670000D01*
X95310000Y-135890000D02*
X92710000Y-135890000D01*
X92710000Y-135890000D02*
X92710000Y-138490000D01*
X92710000Y-138490000D02*
X90110000Y-138490000D01*
X95310000Y-137160000D02*
X95310000Y-138490000D01*
X95310000Y-138490000D02*
X93980000Y-138490000D01*
G04 #@! TO.C,R1*
X143986000Y-56742000D02*
X143986000Y-56412000D01*
X137446000Y-56742000D02*
X143986000Y-56742000D01*
X137446000Y-56412000D02*
X137446000Y-56742000D01*
X143986000Y-54002000D02*
X143986000Y-54332000D01*
X137446000Y-54002000D02*
X143986000Y-54002000D01*
X137446000Y-54332000D02*
X137446000Y-54002000D01*
G04 #@! TO.C,R2*
X143986000Y-65556000D02*
X143986000Y-65886000D01*
X143986000Y-65886000D02*
X137446000Y-65886000D01*
X137446000Y-65886000D02*
X137446000Y-65556000D01*
X143986000Y-63476000D02*
X143986000Y-63146000D01*
X143986000Y-63146000D02*
X137446000Y-63146000D01*
X137446000Y-63146000D02*
X137446000Y-63476000D01*
G04 #@! TO.C,R3*
X137446000Y-60098000D02*
X137446000Y-60428000D01*
X143986000Y-60098000D02*
X137446000Y-60098000D01*
X143986000Y-60428000D02*
X143986000Y-60098000D01*
X137446000Y-62838000D02*
X137446000Y-62508000D01*
X143986000Y-62838000D02*
X137446000Y-62838000D01*
X143986000Y-62508000D02*
X143986000Y-62838000D01*
G04 #@! TO.C,R4*
X137446000Y-57050000D02*
X137446000Y-57380000D01*
X143986000Y-57050000D02*
X137446000Y-57050000D01*
X143986000Y-57380000D02*
X143986000Y-57050000D01*
X137446000Y-59790000D02*
X137446000Y-59460000D01*
X143986000Y-59790000D02*
X137446000Y-59790000D01*
X143986000Y-59460000D02*
X143986000Y-59790000D01*
G04 #@! TO.C,R5*
X149836000Y-104870000D02*
X149506000Y-104870000D01*
X149506000Y-104870000D02*
X149506000Y-98330000D01*
X149506000Y-98330000D02*
X149836000Y-98330000D01*
X151916000Y-104870000D02*
X152246000Y-104870000D01*
X152246000Y-104870000D02*
X152246000Y-98330000D01*
X152246000Y-98330000D02*
X151916000Y-98330000D01*
G04 #@! TO.C,R6*
X143986000Y-53364000D02*
X143986000Y-53694000D01*
X143986000Y-53694000D02*
X137446000Y-53694000D01*
X137446000Y-53694000D02*
X137446000Y-53364000D01*
X143986000Y-51284000D02*
X143986000Y-50954000D01*
X143986000Y-50954000D02*
X137446000Y-50954000D01*
X137446000Y-50954000D02*
X137446000Y-51284000D01*
G04 #@! TO.C,R7*
X130270000Y-49122000D02*
X130270000Y-48792000D01*
X123730000Y-49122000D02*
X130270000Y-49122000D01*
X123730000Y-48792000D02*
X123730000Y-49122000D01*
X130270000Y-46382000D02*
X130270000Y-46712000D01*
X123730000Y-46382000D02*
X130270000Y-46382000D01*
X123730000Y-46712000D02*
X123730000Y-46382000D01*
G04 #@! TO.C,R8*
X144680000Y-93440000D02*
X145010000Y-93440000D01*
X144680000Y-86900000D02*
X144680000Y-93440000D01*
X145010000Y-86900000D02*
X144680000Y-86900000D01*
X147420000Y-93440000D02*
X147090000Y-93440000D01*
X147420000Y-86900000D02*
X147420000Y-93440000D01*
X147090000Y-86900000D02*
X147420000Y-86900000D01*
G04 #@! TO.C,R9*
X123730000Y-49430000D02*
X123730000Y-49760000D01*
X130270000Y-49430000D02*
X123730000Y-49430000D01*
X130270000Y-49760000D02*
X130270000Y-49430000D01*
X123730000Y-52170000D02*
X123730000Y-51840000D01*
X130270000Y-52170000D02*
X123730000Y-52170000D01*
X130270000Y-51840000D02*
X130270000Y-52170000D01*
G04 #@! TO.C,R10*
X113316000Y-46458000D02*
X113316000Y-46128000D01*
X113316000Y-46128000D02*
X119856000Y-46128000D01*
X119856000Y-46128000D02*
X119856000Y-46458000D01*
X113316000Y-48538000D02*
X113316000Y-48868000D01*
X113316000Y-48868000D02*
X119856000Y-48868000D01*
X119856000Y-48868000D02*
X119856000Y-48538000D01*
G04 #@! TO.C,R11*
X145320000Y-74576000D02*
X145320000Y-74906000D01*
X151860000Y-74576000D02*
X145320000Y-74576000D01*
X151860000Y-74906000D02*
X151860000Y-74576000D01*
X145320000Y-77316000D02*
X145320000Y-76986000D01*
X151860000Y-77316000D02*
X145320000Y-77316000D01*
X151860000Y-76986000D02*
X151860000Y-77316000D01*
G04 #@! TO.C,R12*
X145320000Y-77624000D02*
X145320000Y-77954000D01*
X151860000Y-77624000D02*
X145320000Y-77624000D01*
X151860000Y-77954000D02*
X151860000Y-77624000D01*
X145320000Y-80364000D02*
X145320000Y-80034000D01*
X151860000Y-80364000D02*
X145320000Y-80364000D01*
X151860000Y-80034000D02*
X151860000Y-80364000D01*
G04 #@! TO.C,R13*
X113316000Y-49760000D02*
X113316000Y-49430000D01*
X113316000Y-49430000D02*
X119856000Y-49430000D01*
X119856000Y-49430000D02*
X119856000Y-49760000D01*
X113316000Y-51840000D02*
X113316000Y-52170000D01*
X113316000Y-52170000D02*
X119856000Y-52170000D01*
X119856000Y-52170000D02*
X119856000Y-51840000D01*
G04 #@! TO.C,R14*
X94718000Y-57372000D02*
X94388000Y-57372000D01*
X94388000Y-57372000D02*
X94388000Y-50832000D01*
X94388000Y-50832000D02*
X94718000Y-50832000D01*
X96798000Y-57372000D02*
X97128000Y-57372000D01*
X97128000Y-57372000D02*
X97128000Y-50832000D01*
X97128000Y-50832000D02*
X96798000Y-50832000D01*
G04 #@! TO.C,R15*
X95028000Y-60428000D02*
X95028000Y-60098000D01*
X95028000Y-60098000D02*
X101568000Y-60098000D01*
X101568000Y-60098000D02*
X101568000Y-60428000D01*
X95028000Y-62508000D02*
X95028000Y-62838000D01*
X95028000Y-62838000D02*
X101568000Y-62838000D01*
X101568000Y-62838000D02*
X101568000Y-62508000D01*
G04 #@! TO.C,R16*
X108680000Y-48868000D02*
X108680000Y-48538000D01*
X102140000Y-48868000D02*
X108680000Y-48868000D01*
X102140000Y-48538000D02*
X102140000Y-48868000D01*
X108680000Y-46128000D02*
X108680000Y-46458000D01*
X102140000Y-46128000D02*
X108680000Y-46128000D01*
X102140000Y-46458000D02*
X102140000Y-46128000D01*
G04 #@! TO.C,R17*
X145320000Y-81002000D02*
X145320000Y-80672000D01*
X145320000Y-80672000D02*
X151860000Y-80672000D01*
X151860000Y-80672000D02*
X151860000Y-81002000D01*
X145320000Y-83082000D02*
X145320000Y-83412000D01*
X145320000Y-83412000D02*
X151860000Y-83412000D01*
X151860000Y-83412000D02*
X151860000Y-83082000D01*
G04 #@! TO.C,R18*
X143986000Y-71652000D02*
X143986000Y-71982000D01*
X143986000Y-71982000D02*
X137446000Y-71982000D01*
X137446000Y-71982000D02*
X137446000Y-71652000D01*
X143986000Y-69572000D02*
X143986000Y-69242000D01*
X143986000Y-69242000D02*
X137446000Y-69242000D01*
X137446000Y-69242000D02*
X137446000Y-69572000D01*
G04 #@! TO.C,R19*
X98020000Y-57372000D02*
X97690000Y-57372000D01*
X97690000Y-57372000D02*
X97690000Y-50832000D01*
X97690000Y-50832000D02*
X98020000Y-50832000D01*
X100100000Y-57372000D02*
X100430000Y-57372000D01*
X100430000Y-57372000D02*
X100430000Y-50832000D01*
X100430000Y-50832000D02*
X100100000Y-50832000D01*
G04 #@! TO.C,R20*
X100684000Y-65818000D02*
X100354000Y-65818000D01*
X100684000Y-72358000D02*
X100684000Y-65818000D01*
X100354000Y-72358000D02*
X100684000Y-72358000D01*
X97944000Y-65818000D02*
X98274000Y-65818000D01*
X97944000Y-72358000D02*
X97944000Y-65818000D01*
X98274000Y-72358000D02*
X97944000Y-72358000D01*
G04 #@! TO.C,R21*
X103410000Y-106402000D02*
X103410000Y-106072000D01*
X103410000Y-106072000D02*
X109950000Y-106072000D01*
X109950000Y-106072000D02*
X109950000Y-106402000D01*
X103410000Y-108482000D02*
X103410000Y-108812000D01*
X103410000Y-108812000D02*
X109950000Y-108812000D01*
X109950000Y-108812000D02*
X109950000Y-108482000D01*
G04 #@! TO.C,R22*
X143986000Y-68934000D02*
X143986000Y-68604000D01*
X137446000Y-68934000D02*
X143986000Y-68934000D01*
X137446000Y-68604000D02*
X137446000Y-68934000D01*
X143986000Y-66194000D02*
X143986000Y-66524000D01*
X137446000Y-66194000D02*
X143986000Y-66194000D01*
X137446000Y-66524000D02*
X137446000Y-66194000D01*
G04 #@! TO.C,R23*
X111474000Y-73760000D02*
X111474000Y-73430000D01*
X104934000Y-73760000D02*
X111474000Y-73760000D01*
X104934000Y-73430000D02*
X104934000Y-73760000D01*
X111474000Y-71020000D02*
X111474000Y-71350000D01*
X104934000Y-71020000D02*
X111474000Y-71020000D01*
X104934000Y-71350000D02*
X104934000Y-71020000D01*
G04 #@! TO.C,R24*
X96544000Y-76486000D02*
X96874000Y-76486000D01*
X96874000Y-76486000D02*
X96874000Y-83026000D01*
X96874000Y-83026000D02*
X96544000Y-83026000D01*
X94464000Y-76486000D02*
X94134000Y-76486000D01*
X94134000Y-76486000D02*
X94134000Y-83026000D01*
X94134000Y-83026000D02*
X94464000Y-83026000D01*
G04 #@! TO.C,R25*
X96874000Y-65818000D02*
X96544000Y-65818000D01*
X96874000Y-72358000D02*
X96874000Y-65818000D01*
X96544000Y-72358000D02*
X96874000Y-72358000D01*
X94134000Y-65818000D02*
X94464000Y-65818000D01*
X94134000Y-72358000D02*
X94134000Y-65818000D01*
X94464000Y-72358000D02*
X94134000Y-72358000D01*
G04 #@! TO.C,R26*
X110458000Y-105002000D02*
X110458000Y-104672000D01*
X103918000Y-105002000D02*
X110458000Y-105002000D01*
X103918000Y-104672000D02*
X103918000Y-105002000D01*
X110458000Y-102262000D02*
X110458000Y-102592000D01*
X103918000Y-102262000D02*
X110458000Y-102262000D01*
X103918000Y-102592000D02*
X103918000Y-102262000D01*
G04 #@! TO.C,R27*
X103410000Y-109704000D02*
X103410000Y-109374000D01*
X103410000Y-109374000D02*
X109950000Y-109374000D01*
X109950000Y-109374000D02*
X109950000Y-109704000D01*
X103410000Y-111784000D02*
X103410000Y-112114000D01*
X103410000Y-112114000D02*
X109950000Y-112114000D01*
X109950000Y-112114000D02*
X109950000Y-111784000D01*
G04 #@! TO.C,R28*
X114962000Y-84550000D02*
X115292000Y-84550000D01*
X114962000Y-78010000D02*
X114962000Y-84550000D01*
X115292000Y-78010000D02*
X114962000Y-78010000D01*
X117702000Y-84550000D02*
X117372000Y-84550000D01*
X117702000Y-78010000D02*
X117702000Y-84550000D01*
X117372000Y-78010000D02*
X117702000Y-78010000D01*
G04 #@! TO.C,R29*
X98020000Y-117062000D02*
X97690000Y-117062000D01*
X97690000Y-117062000D02*
X97690000Y-110522000D01*
X97690000Y-110522000D02*
X98020000Y-110522000D01*
X100100000Y-117062000D02*
X100430000Y-117062000D01*
X100430000Y-117062000D02*
X100430000Y-110522000D01*
X100430000Y-110522000D02*
X100100000Y-110522000D01*
G04 #@! TO.C,R30*
X94464000Y-93440000D02*
X94134000Y-93440000D01*
X94134000Y-93440000D02*
X94134000Y-86900000D01*
X94134000Y-86900000D02*
X94464000Y-86900000D01*
X96544000Y-93440000D02*
X96874000Y-93440000D01*
X96874000Y-93440000D02*
X96874000Y-86900000D01*
X96874000Y-86900000D02*
X96544000Y-86900000D01*
G04 #@! TO.C,R31*
X96036000Y-101378000D02*
X96366000Y-101378000D01*
X96366000Y-101378000D02*
X96366000Y-107918000D01*
X96366000Y-107918000D02*
X96036000Y-107918000D01*
X93956000Y-101378000D02*
X93626000Y-101378000D01*
X93626000Y-101378000D02*
X93626000Y-107918000D01*
X93626000Y-107918000D02*
X93956000Y-107918000D01*
G04 #@! TO.C,R32*
X145986000Y-129566000D02*
X145986000Y-129236000D01*
X139446000Y-129566000D02*
X145986000Y-129566000D01*
X139446000Y-129236000D02*
X139446000Y-129566000D01*
X145986000Y-126826000D02*
X145986000Y-127156000D01*
X139446000Y-126826000D02*
X145986000Y-126826000D01*
X139446000Y-127156000D02*
X139446000Y-126826000D01*
G04 #@! TO.C,R36*
X139446000Y-130204000D02*
X139446000Y-129874000D01*
X139446000Y-129874000D02*
X145986000Y-129874000D01*
X145986000Y-129874000D02*
X145986000Y-130204000D01*
X139446000Y-132284000D02*
X139446000Y-132614000D01*
X139446000Y-132614000D02*
X145986000Y-132614000D01*
X145986000Y-132614000D02*
X145986000Y-132284000D01*
G04 #@! TO.C,R40*
X145986000Y-138710000D02*
X145986000Y-138380000D01*
X139446000Y-138710000D02*
X145986000Y-138710000D01*
X139446000Y-138380000D02*
X139446000Y-138710000D01*
X145986000Y-135970000D02*
X145986000Y-136300000D01*
X139446000Y-135970000D02*
X145986000Y-135970000D01*
X139446000Y-136300000D02*
X139446000Y-135970000D01*
G04 #@! TO.C,R44*
X139446000Y-133252000D02*
X139446000Y-132922000D01*
X139446000Y-132922000D02*
X145986000Y-132922000D01*
X145986000Y-132922000D02*
X145986000Y-133252000D01*
X139446000Y-135332000D02*
X139446000Y-135662000D01*
X139446000Y-135662000D02*
X145986000Y-135662000D01*
X145986000Y-135662000D02*
X145986000Y-135332000D01*
G04 #@! TO.C,R48*
X145986000Y-126592000D02*
X145986000Y-126262000D01*
X139446000Y-126592000D02*
X145986000Y-126592000D01*
X139446000Y-126262000D02*
X139446000Y-126592000D01*
X145986000Y-123852000D02*
X145986000Y-124182000D01*
X139446000Y-123852000D02*
X145986000Y-123852000D01*
X139446000Y-124182000D02*
X139446000Y-123852000D01*
G04 #@! TO.C,U1*
X133156000Y-60436000D02*
G75*
G02X133156000Y-58436000I0J1000000D01*
G01*
X133156000Y-58436000D02*
X133156000Y-56786000D01*
X133156000Y-56786000D02*
X115256000Y-56786000D01*
X115256000Y-56786000D02*
X115256000Y-62086000D01*
X115256000Y-62086000D02*
X133156000Y-62086000D01*
X133156000Y-62086000D02*
X133156000Y-60436000D01*
G04 #@! TO.C,U2*
X108950000Y-77410000D02*
G75*
G02X106950000Y-77410000I-1000000J0D01*
G01*
X106950000Y-77410000D02*
X105300000Y-77410000D01*
X105300000Y-77410000D02*
X105300000Y-100390000D01*
X105300000Y-100390000D02*
X110600000Y-100390000D01*
X110600000Y-100390000D02*
X110600000Y-77410000D01*
X110600000Y-77410000D02*
X108950000Y-77410000D01*
G04 #@! TO.C,D1*
X104937000Y-135328000D02*
X104937000Y-132388000D01*
X104697000Y-135328000D02*
X104697000Y-132388000D01*
X104817000Y-135328000D02*
X104817000Y-132388000D01*
X100277000Y-132388000D02*
X100277000Y-132518000D01*
X105717000Y-132388000D02*
X100277000Y-132388000D01*
X105717000Y-132518000D02*
X105717000Y-132388000D01*
X100277000Y-135328000D02*
X100277000Y-135198000D01*
X105717000Y-135328000D02*
X100277000Y-135328000D01*
X105717000Y-135198000D02*
X105717000Y-135328000D01*
G04 #@! TO.C,D2*
X105717000Y-138500000D02*
X105717000Y-138630000D01*
X105717000Y-138630000D02*
X100277000Y-138630000D01*
X100277000Y-138630000D02*
X100277000Y-138500000D01*
X105717000Y-135820000D02*
X105717000Y-135690000D01*
X105717000Y-135690000D02*
X100277000Y-135690000D01*
X100277000Y-135690000D02*
X100277000Y-135820000D01*
X104817000Y-138630000D02*
X104817000Y-135690000D01*
X104697000Y-138630000D02*
X104697000Y-135690000D01*
X104937000Y-138630000D02*
X104937000Y-135690000D01*
G04 #@! TO.C,SW1*
X90110000Y-44390000D02*
X91440000Y-44390000D01*
X90110000Y-45720000D02*
X90110000Y-44390000D01*
X90110000Y-46990000D02*
X92770000Y-46990000D01*
X92770000Y-46990000D02*
X92770000Y-67370000D01*
X90110000Y-46990000D02*
X90110000Y-67370000D01*
X90110000Y-67370000D02*
X92770000Y-67370000D01*
G04 #@! TO.C,SW2*
X110550000Y-44510000D02*
X110550000Y-41850000D01*
X97790000Y-44510000D02*
X110550000Y-44510000D01*
X97790000Y-41850000D02*
X110550000Y-41850000D01*
X97790000Y-44510000D02*
X97790000Y-41850000D01*
X96520000Y-44510000D02*
X95190000Y-44510000D01*
X95190000Y-44510000D02*
X95190000Y-43180000D01*
G04 #@! TO.C,SW3*
X90110000Y-92770000D02*
X92770000Y-92770000D01*
X90110000Y-72390000D02*
X90110000Y-92770000D01*
X92770000Y-72390000D02*
X92770000Y-92770000D01*
X90110000Y-72390000D02*
X92770000Y-72390000D01*
X90110000Y-71120000D02*
X90110000Y-69790000D01*
X90110000Y-69790000D02*
X91440000Y-69790000D01*
G04 #@! TO.C,SW4*
X90110000Y-118170000D02*
X92770000Y-118170000D01*
X90110000Y-97790000D02*
X90110000Y-118170000D01*
X92770000Y-97790000D02*
X92770000Y-118170000D01*
X90110000Y-97790000D02*
X92770000Y-97790000D01*
X90110000Y-96520000D02*
X90110000Y-95190000D01*
X90110000Y-95190000D02*
X91440000Y-95190000D01*
G04 #@! TO.C,C10*
X121222000Y-118618000D02*
G75*
G03X121222000Y-118618000I-2620000J0D01*
G01*
X118602000Y-119658000D02*
X118602000Y-121198000D01*
X118602000Y-116038000D02*
X118602000Y-117578000D01*
X118642000Y-119658000D02*
X118642000Y-121198000D01*
X118642000Y-116038000D02*
X118642000Y-117578000D01*
X118682000Y-116039000D02*
X118682000Y-117578000D01*
X118682000Y-119658000D02*
X118682000Y-121197000D01*
X118722000Y-116040000D02*
X118722000Y-117578000D01*
X118722000Y-119658000D02*
X118722000Y-121196000D01*
X118762000Y-116042000D02*
X118762000Y-117578000D01*
X118762000Y-119658000D02*
X118762000Y-121194000D01*
X118802000Y-116045000D02*
X118802000Y-117578000D01*
X118802000Y-119658000D02*
X118802000Y-121191000D01*
X118842000Y-116049000D02*
X118842000Y-117578000D01*
X118842000Y-119658000D02*
X118842000Y-121187000D01*
X118882000Y-116053000D02*
X118882000Y-117578000D01*
X118882000Y-119658000D02*
X118882000Y-121183000D01*
X118922000Y-116057000D02*
X118922000Y-117578000D01*
X118922000Y-119658000D02*
X118922000Y-121179000D01*
X118962000Y-116062000D02*
X118962000Y-117578000D01*
X118962000Y-119658000D02*
X118962000Y-121174000D01*
X119002000Y-116068000D02*
X119002000Y-117578000D01*
X119002000Y-119658000D02*
X119002000Y-121168000D01*
X119042000Y-116075000D02*
X119042000Y-117578000D01*
X119042000Y-119658000D02*
X119042000Y-121161000D01*
X119082000Y-116082000D02*
X119082000Y-117578000D01*
X119082000Y-119658000D02*
X119082000Y-121154000D01*
X119122000Y-116090000D02*
X119122000Y-117578000D01*
X119122000Y-119658000D02*
X119122000Y-121146000D01*
X119162000Y-116098000D02*
X119162000Y-117578000D01*
X119162000Y-119658000D02*
X119162000Y-121138000D01*
X119202000Y-116107000D02*
X119202000Y-117578000D01*
X119202000Y-119658000D02*
X119202000Y-121129000D01*
X119242000Y-116117000D02*
X119242000Y-117578000D01*
X119242000Y-119658000D02*
X119242000Y-121119000D01*
X119282000Y-116127000D02*
X119282000Y-117578000D01*
X119282000Y-119658000D02*
X119282000Y-121109000D01*
X119323000Y-116138000D02*
X119323000Y-117578000D01*
X119323000Y-119658000D02*
X119323000Y-121098000D01*
X119363000Y-116150000D02*
X119363000Y-117578000D01*
X119363000Y-119658000D02*
X119363000Y-121086000D01*
X119403000Y-116163000D02*
X119403000Y-117578000D01*
X119403000Y-119658000D02*
X119403000Y-121073000D01*
X119443000Y-116176000D02*
X119443000Y-117578000D01*
X119443000Y-119658000D02*
X119443000Y-121060000D01*
X119483000Y-116190000D02*
X119483000Y-117578000D01*
X119483000Y-119658000D02*
X119483000Y-121046000D01*
X119523000Y-116204000D02*
X119523000Y-117578000D01*
X119523000Y-119658000D02*
X119523000Y-121032000D01*
X119563000Y-116220000D02*
X119563000Y-117578000D01*
X119563000Y-119658000D02*
X119563000Y-121016000D01*
X119603000Y-116236000D02*
X119603000Y-117578000D01*
X119603000Y-119658000D02*
X119603000Y-121000000D01*
X119643000Y-116253000D02*
X119643000Y-117578000D01*
X119643000Y-119658000D02*
X119643000Y-120983000D01*
X119683000Y-116270000D02*
X119683000Y-117578000D01*
X119683000Y-119658000D02*
X119683000Y-120966000D01*
X119723000Y-116289000D02*
X119723000Y-117578000D01*
X119723000Y-119658000D02*
X119723000Y-120947000D01*
X119763000Y-116308000D02*
X119763000Y-117578000D01*
X119763000Y-119658000D02*
X119763000Y-120928000D01*
X119803000Y-116328000D02*
X119803000Y-117578000D01*
X119803000Y-119658000D02*
X119803000Y-120908000D01*
X119843000Y-116350000D02*
X119843000Y-117578000D01*
X119843000Y-119658000D02*
X119843000Y-120886000D01*
X119883000Y-116371000D02*
X119883000Y-117578000D01*
X119883000Y-119658000D02*
X119883000Y-120865000D01*
X119923000Y-116394000D02*
X119923000Y-117578000D01*
X119923000Y-119658000D02*
X119923000Y-120842000D01*
X119963000Y-116418000D02*
X119963000Y-117578000D01*
X119963000Y-119658000D02*
X119963000Y-120818000D01*
X120003000Y-116443000D02*
X120003000Y-117578000D01*
X120003000Y-119658000D02*
X120003000Y-120793000D01*
X120043000Y-116469000D02*
X120043000Y-117578000D01*
X120043000Y-119658000D02*
X120043000Y-120767000D01*
X120083000Y-116496000D02*
X120083000Y-117578000D01*
X120083000Y-119658000D02*
X120083000Y-120740000D01*
X120123000Y-116523000D02*
X120123000Y-117578000D01*
X120123000Y-119658000D02*
X120123000Y-120713000D01*
X120163000Y-116553000D02*
X120163000Y-117578000D01*
X120163000Y-119658000D02*
X120163000Y-120683000D01*
X120203000Y-116583000D02*
X120203000Y-117578000D01*
X120203000Y-119658000D02*
X120203000Y-120653000D01*
X120243000Y-116614000D02*
X120243000Y-117578000D01*
X120243000Y-119658000D02*
X120243000Y-120622000D01*
X120283000Y-116647000D02*
X120283000Y-117578000D01*
X120283000Y-119658000D02*
X120283000Y-120589000D01*
X120323000Y-116681000D02*
X120323000Y-117578000D01*
X120323000Y-119658000D02*
X120323000Y-120555000D01*
X120363000Y-116717000D02*
X120363000Y-117578000D01*
X120363000Y-119658000D02*
X120363000Y-120519000D01*
X120403000Y-116754000D02*
X120403000Y-117578000D01*
X120403000Y-119658000D02*
X120403000Y-120482000D01*
X120443000Y-116792000D02*
X120443000Y-117578000D01*
X120443000Y-119658000D02*
X120443000Y-120444000D01*
X120483000Y-116833000D02*
X120483000Y-117578000D01*
X120483000Y-119658000D02*
X120483000Y-120403000D01*
X120523000Y-116875000D02*
X120523000Y-117578000D01*
X120523000Y-119658000D02*
X120523000Y-120361000D01*
X120563000Y-116919000D02*
X120563000Y-117578000D01*
X120563000Y-119658000D02*
X120563000Y-120317000D01*
X120603000Y-116965000D02*
X120603000Y-117578000D01*
X120603000Y-119658000D02*
X120603000Y-120271000D01*
X120643000Y-117013000D02*
X120643000Y-120223000D01*
X120683000Y-117064000D02*
X120683000Y-120172000D01*
X120723000Y-117118000D02*
X120723000Y-120118000D01*
X120763000Y-117175000D02*
X120763000Y-120061000D01*
X120803000Y-117235000D02*
X120803000Y-120001000D01*
X120843000Y-117299000D02*
X120843000Y-119937000D01*
X120883000Y-117367000D02*
X120883000Y-119869000D01*
X120923000Y-117440000D02*
X120923000Y-119796000D01*
X120963000Y-117520000D02*
X120963000Y-119716000D01*
X121003000Y-117607000D02*
X121003000Y-119629000D01*
X121043000Y-117703000D02*
X121043000Y-119533000D01*
X121083000Y-117813000D02*
X121083000Y-119423000D01*
X121123000Y-117941000D02*
X121123000Y-119295000D01*
X121163000Y-118100000D02*
X121163000Y-119136000D01*
X121203000Y-118334000D02*
X121203000Y-118902000D01*
X115797225Y-117143000D02*
X116297225Y-117143000D01*
X116047225Y-116893000D02*
X116047225Y-117393000D01*
G04 #@! TO.C,JP1*
X112208000Y-121726000D02*
X114868000Y-121726000D01*
X112208000Y-119126000D02*
X112208000Y-121726000D01*
X114868000Y-119126000D02*
X114868000Y-121726000D01*
X112208000Y-119126000D02*
X114868000Y-119126000D01*
X112208000Y-117856000D02*
X112208000Y-116526000D01*
X112208000Y-116526000D02*
X113538000Y-116526000D01*
G04 #@! TO.C,R33*
X113570000Y-123598000D02*
X113570000Y-123928000D01*
X120110000Y-123598000D02*
X113570000Y-123598000D01*
X120110000Y-123928000D02*
X120110000Y-123598000D01*
X113570000Y-126338000D02*
X113570000Y-126008000D01*
X120110000Y-126338000D02*
X113570000Y-126338000D01*
X120110000Y-126008000D02*
X120110000Y-126338000D01*
G04 #@! TO.C,R34*
X120110000Y-129056000D02*
X120110000Y-129386000D01*
X120110000Y-129386000D02*
X113570000Y-129386000D01*
X113570000Y-129386000D02*
X113570000Y-129056000D01*
X120110000Y-126976000D02*
X120110000Y-126646000D01*
X120110000Y-126646000D02*
X113570000Y-126646000D01*
X113570000Y-126646000D02*
X113570000Y-126976000D01*
G04 #@! TO.C,U3*
X126508000Y-133156000D02*
G75*
G02X128508000Y-133156000I1000000J0D01*
G01*
X128508000Y-133156000D02*
X130158000Y-133156000D01*
X130158000Y-133156000D02*
X130158000Y-122876000D01*
X130158000Y-122876000D02*
X124858000Y-122876000D01*
X124858000Y-122876000D02*
X124858000Y-133156000D01*
X124858000Y-133156000D02*
X126508000Y-133156000D01*
G04 #@! TO.C,TP1*
X99130000Y-76016000D02*
X101530000Y-76016000D01*
X101530000Y-76016000D02*
X101530000Y-78416000D01*
X101530000Y-78416000D02*
X99130000Y-78416000D01*
X99130000Y-78416000D02*
X99130000Y-76016000D01*
G04 #@! TO.C,TP2*
X112338000Y-115500000D02*
X112338000Y-113100000D01*
X114738000Y-115500000D02*
X112338000Y-115500000D01*
X114738000Y-113100000D02*
X114738000Y-115500000D01*
X112338000Y-113100000D02*
X114738000Y-113100000D01*
G04 #@! TO.C,TP3*
X116910000Y-86938000D02*
X119310000Y-86938000D01*
X119310000Y-86938000D02*
X119310000Y-89338000D01*
X119310000Y-89338000D02*
X116910000Y-89338000D01*
X116910000Y-89338000D02*
X116910000Y-86938000D01*
G04 #@! TO.C,TP4*
X113354000Y-109404000D02*
X113354000Y-107004000D01*
X115754000Y-109404000D02*
X113354000Y-109404000D01*
X115754000Y-107004000D02*
X115754000Y-109404000D01*
X113354000Y-107004000D02*
X115754000Y-107004000D01*
G04 #@! TO.C,C11*
X114176000Y-133696000D02*
X114176000Y-129956000D01*
X121616000Y-133696000D02*
X121616000Y-129956000D01*
X121616000Y-129956000D02*
X114176000Y-129956000D01*
X121616000Y-133696000D02*
X114176000Y-133696000D01*
G04 #@! TO.C,C15*
X133258000Y-130252000D02*
X133258000Y-122812000D01*
X136998000Y-130252000D02*
X136998000Y-122812000D01*
X133258000Y-130252000D02*
X136998000Y-130252000D01*
X133258000Y-122812000D02*
X136998000Y-122812000D01*
G04 #@! TO.C,J1*
X115510000Y-44510000D02*
X115510000Y-43180000D01*
X116840000Y-44510000D02*
X115510000Y-44510000D01*
X118110000Y-44510000D02*
X118110000Y-41850000D01*
X118110000Y-41850000D02*
X120710000Y-41850000D01*
X118110000Y-44510000D02*
X120710000Y-44510000D01*
X120710000Y-44510000D02*
X120710000Y-41850000D01*
G04 #@! TO.C,J2*
X141030000Y-44510000D02*
X141030000Y-41850000D01*
X138430000Y-44510000D02*
X141030000Y-44510000D01*
X138430000Y-41850000D02*
X141030000Y-41850000D01*
X138430000Y-44510000D02*
X138430000Y-41850000D01*
X137160000Y-44510000D02*
X135830000Y-44510000D01*
X135830000Y-44510000D02*
X135830000Y-43180000D01*
G04 #@! TO.C,J3*
X125670000Y-44510000D02*
X125670000Y-43180000D01*
X127000000Y-44510000D02*
X125670000Y-44510000D01*
X128270000Y-44510000D02*
X128270000Y-41850000D01*
X128270000Y-41850000D02*
X130870000Y-41850000D01*
X128270000Y-44510000D02*
X130870000Y-44510000D01*
X130870000Y-44510000D02*
X130870000Y-41850000D01*
G04 #@! TO.C,J5*
X130870000Y-138490000D02*
X130870000Y-135830000D01*
X128270000Y-138490000D02*
X130870000Y-138490000D01*
X128270000Y-135830000D02*
X130870000Y-135830000D01*
X128270000Y-138490000D02*
X128270000Y-135830000D01*
X127000000Y-138490000D02*
X125670000Y-138490000D01*
X125670000Y-138490000D02*
X125670000Y-137160000D01*
G04 #@! TO.C,J6*
X120710000Y-138490000D02*
X120710000Y-135830000D01*
X118110000Y-138490000D02*
X120710000Y-138490000D01*
X118110000Y-135830000D02*
X120710000Y-135830000D01*
X118110000Y-138490000D02*
X118110000Y-135830000D01*
X116840000Y-138490000D02*
X115510000Y-138490000D01*
X115510000Y-138490000D02*
X115510000Y-137160000D01*
G04 #@! TO.C,REF\002A\002A*
D12*
X150812666Y-119696380D02*
X150479333Y-119220190D01*
X150241238Y-119696380D02*
X150241238Y-118696380D01*
X150622190Y-118696380D01*
X150717428Y-118744000D01*
X150765047Y-118791619D01*
X150812666Y-118886857D01*
X150812666Y-119029714D01*
X150765047Y-119124952D01*
X150717428Y-119172571D01*
X150622190Y-119220190D01*
X150241238Y-119220190D01*
X151241238Y-119172571D02*
X151574571Y-119172571D01*
X151717428Y-119696380D02*
X151241238Y-119696380D01*
X151241238Y-118696380D01*
X151717428Y-118696380D01*
X152479333Y-119172571D02*
X152146000Y-119172571D01*
X152146000Y-119696380D02*
X152146000Y-118696380D01*
X152622190Y-118696380D01*
X153146000Y-118696380D02*
X153146000Y-118934476D01*
X152907904Y-118839238D02*
X153146000Y-118934476D01*
X153384095Y-118839238D01*
X153003142Y-119124952D02*
X153146000Y-118934476D01*
X153288857Y-119124952D01*
X153907904Y-118696380D02*
X153907904Y-118934476D01*
X153669809Y-118839238D02*
X153907904Y-118934476D01*
X154146000Y-118839238D01*
X153765047Y-119124952D02*
X153907904Y-118934476D01*
X154050761Y-119124952D01*
G04 #@! TO.C,C1*
X142835333Y-42013142D02*
X142787714Y-42060761D01*
X142644857Y-42108380D01*
X142549619Y-42108380D01*
X142406761Y-42060761D01*
X142311523Y-41965523D01*
X142263904Y-41870285D01*
X142216285Y-41679809D01*
X142216285Y-41536952D01*
X142263904Y-41346476D01*
X142311523Y-41251238D01*
X142406761Y-41156000D01*
X142549619Y-41108380D01*
X142644857Y-41108380D01*
X142787714Y-41156000D01*
X142835333Y-41203619D01*
X143787714Y-42108380D02*
X143216285Y-42108380D01*
X143502000Y-42108380D02*
X143502000Y-41108380D01*
X143406761Y-41251238D01*
X143311523Y-41346476D01*
X143216285Y-41394095D01*
G04 #@! TO.C,C2*
X106513333Y-62587142D02*
X106465714Y-62634761D01*
X106322857Y-62682380D01*
X106227619Y-62682380D01*
X106084761Y-62634761D01*
X105989523Y-62539523D01*
X105941904Y-62444285D01*
X105894285Y-62253809D01*
X105894285Y-62110952D01*
X105941904Y-61920476D01*
X105989523Y-61825238D01*
X106084761Y-61730000D01*
X106227619Y-61682380D01*
X106322857Y-61682380D01*
X106465714Y-61730000D01*
X106513333Y-61777619D01*
X106894285Y-61777619D02*
X106941904Y-61730000D01*
X107037142Y-61682380D01*
X107275238Y-61682380D01*
X107370476Y-61730000D01*
X107418095Y-61777619D01*
X107465714Y-61872857D01*
X107465714Y-61968095D01*
X107418095Y-62110952D01*
X106846666Y-62682380D01*
X107465714Y-62682380D01*
G04 #@! TO.C,C3*
X106513333Y-58269142D02*
X106465714Y-58316761D01*
X106322857Y-58364380D01*
X106227619Y-58364380D01*
X106084761Y-58316761D01*
X105989523Y-58221523D01*
X105941904Y-58126285D01*
X105894285Y-57935809D01*
X105894285Y-57792952D01*
X105941904Y-57602476D01*
X105989523Y-57507238D01*
X106084761Y-57412000D01*
X106227619Y-57364380D01*
X106322857Y-57364380D01*
X106465714Y-57412000D01*
X106513333Y-57459619D01*
X106846666Y-57364380D02*
X107465714Y-57364380D01*
X107132380Y-57745333D01*
X107275238Y-57745333D01*
X107370476Y-57792952D01*
X107418095Y-57840571D01*
X107465714Y-57935809D01*
X107465714Y-58173904D01*
X107418095Y-58269142D01*
X107370476Y-58316761D01*
X107275238Y-58364380D01*
X106989523Y-58364380D01*
X106894285Y-58316761D01*
X106846666Y-58269142D01*
G04 #@! TO.C,C4*
X100147333Y-123607142D02*
X100099714Y-123654761D01*
X99956857Y-123702380D01*
X99861619Y-123702380D01*
X99718761Y-123654761D01*
X99623523Y-123559523D01*
X99575904Y-123464285D01*
X99528285Y-123273809D01*
X99528285Y-123130952D01*
X99575904Y-122940476D01*
X99623523Y-122845238D01*
X99718761Y-122750000D01*
X99861619Y-122702380D01*
X99956857Y-122702380D01*
X100099714Y-122750000D01*
X100147333Y-122797619D01*
X101004476Y-123035714D02*
X101004476Y-123702380D01*
X100766380Y-122654761D02*
X100528285Y-123369047D01*
X101147333Y-123369047D01*
G04 #@! TO.C,C5*
X90749333Y-125773142D02*
X90701714Y-125820761D01*
X90558857Y-125868380D01*
X90463619Y-125868380D01*
X90320761Y-125820761D01*
X90225523Y-125725523D01*
X90177904Y-125630285D01*
X90130285Y-125439809D01*
X90130285Y-125296952D01*
X90177904Y-125106476D01*
X90225523Y-125011238D01*
X90320761Y-124916000D01*
X90463619Y-124868380D01*
X90558857Y-124868380D01*
X90701714Y-124916000D01*
X90749333Y-124963619D01*
X91654095Y-124868380D02*
X91177904Y-124868380D01*
X91130285Y-125344571D01*
X91177904Y-125296952D01*
X91273142Y-125249333D01*
X91511238Y-125249333D01*
X91606476Y-125296952D01*
X91654095Y-125344571D01*
X91701714Y-125439809D01*
X91701714Y-125677904D01*
X91654095Y-125773142D01*
X91606476Y-125820761D01*
X91511238Y-125868380D01*
X91273142Y-125868380D01*
X91177904Y-125820761D01*
X91130285Y-125773142D01*
G04 #@! TO.C,C6*
X109467333Y-57665142D02*
X109419714Y-57712761D01*
X109276857Y-57760380D01*
X109181619Y-57760380D01*
X109038761Y-57712761D01*
X108943523Y-57617523D01*
X108895904Y-57522285D01*
X108848285Y-57331809D01*
X108848285Y-57188952D01*
X108895904Y-56998476D01*
X108943523Y-56903238D01*
X109038761Y-56808000D01*
X109181619Y-56760380D01*
X109276857Y-56760380D01*
X109419714Y-56808000D01*
X109467333Y-56855619D01*
X110324476Y-56760380D02*
X110134000Y-56760380D01*
X110038761Y-56808000D01*
X109991142Y-56855619D01*
X109895904Y-56998476D01*
X109848285Y-57188952D01*
X109848285Y-57569904D01*
X109895904Y-57665142D01*
X109943523Y-57712761D01*
X110038761Y-57760380D01*
X110229238Y-57760380D01*
X110324476Y-57712761D01*
X110372095Y-57665142D01*
X110419714Y-57569904D01*
X110419714Y-57331809D01*
X110372095Y-57236571D01*
X110324476Y-57188952D01*
X110229238Y-57141333D01*
X110038761Y-57141333D01*
X109943523Y-57188952D01*
X109895904Y-57236571D01*
X109848285Y-57331809D01*
G04 #@! TO.C,C7*
X117341333Y-69349142D02*
X117293714Y-69396761D01*
X117150857Y-69444380D01*
X117055619Y-69444380D01*
X116912761Y-69396761D01*
X116817523Y-69301523D01*
X116769904Y-69206285D01*
X116722285Y-69015809D01*
X116722285Y-68872952D01*
X116769904Y-68682476D01*
X116817523Y-68587238D01*
X116912761Y-68492000D01*
X117055619Y-68444380D01*
X117150857Y-68444380D01*
X117293714Y-68492000D01*
X117341333Y-68539619D01*
X117674666Y-68444380D02*
X118341333Y-68444380D01*
X117912761Y-69444380D01*
G04 #@! TO.C,C8*
X118117142Y-92462666D02*
X118164761Y-92510285D01*
X118212380Y-92653142D01*
X118212380Y-92748380D01*
X118164761Y-92891238D01*
X118069523Y-92986476D01*
X117974285Y-93034095D01*
X117783809Y-93081714D01*
X117640952Y-93081714D01*
X117450476Y-93034095D01*
X117355238Y-92986476D01*
X117260000Y-92891238D01*
X117212380Y-92748380D01*
X117212380Y-92653142D01*
X117260000Y-92510285D01*
X117307619Y-92462666D01*
X117640952Y-91891238D02*
X117593333Y-91986476D01*
X117545714Y-92034095D01*
X117450476Y-92081714D01*
X117402857Y-92081714D01*
X117307619Y-92034095D01*
X117260000Y-91986476D01*
X117212380Y-91891238D01*
X117212380Y-91700761D01*
X117260000Y-91605523D01*
X117307619Y-91557904D01*
X117402857Y-91510285D01*
X117450476Y-91510285D01*
X117545714Y-91557904D01*
X117593333Y-91605523D01*
X117640952Y-91700761D01*
X117640952Y-91891238D01*
X117688571Y-91986476D01*
X117736190Y-92034095D01*
X117831428Y-92081714D01*
X118021904Y-92081714D01*
X118117142Y-92034095D01*
X118164761Y-91986476D01*
X118212380Y-91891238D01*
X118212380Y-91700761D01*
X118164761Y-91605523D01*
X118117142Y-91557904D01*
X118021904Y-91510285D01*
X117831428Y-91510285D01*
X117736190Y-91557904D01*
X117688571Y-91605523D01*
X117640952Y-91700761D01*
G04 #@! TO.C,C9*
X98751142Y-95576666D02*
X98798761Y-95624285D01*
X98846380Y-95767142D01*
X98846380Y-95862380D01*
X98798761Y-96005238D01*
X98703523Y-96100476D01*
X98608285Y-96148095D01*
X98417809Y-96195714D01*
X98274952Y-96195714D01*
X98084476Y-96148095D01*
X97989238Y-96100476D01*
X97894000Y-96005238D01*
X97846380Y-95862380D01*
X97846380Y-95767142D01*
X97894000Y-95624285D01*
X97941619Y-95576666D01*
X98846380Y-95100476D02*
X98846380Y-94910000D01*
X98798761Y-94814761D01*
X98751142Y-94767142D01*
X98608285Y-94671904D01*
X98417809Y-94624285D01*
X98036857Y-94624285D01*
X97941619Y-94671904D01*
X97894000Y-94719523D01*
X97846380Y-94814761D01*
X97846380Y-95005238D01*
X97894000Y-95100476D01*
X97941619Y-95148095D01*
X98036857Y-95195714D01*
X98274952Y-95195714D01*
X98370190Y-95148095D01*
X98417809Y-95100476D01*
X98465428Y-95005238D01*
X98465428Y-94814761D01*
X98417809Y-94719523D01*
X98370190Y-94671904D01*
X98274952Y-94624285D01*
G04 #@! TO.C,C12*
X101449142Y-102242857D02*
X101496761Y-102290476D01*
X101544380Y-102433333D01*
X101544380Y-102528571D01*
X101496761Y-102671428D01*
X101401523Y-102766666D01*
X101306285Y-102814285D01*
X101115809Y-102861904D01*
X100972952Y-102861904D01*
X100782476Y-102814285D01*
X100687238Y-102766666D01*
X100592000Y-102671428D01*
X100544380Y-102528571D01*
X100544380Y-102433333D01*
X100592000Y-102290476D01*
X100639619Y-102242857D01*
X101544380Y-101290476D02*
X101544380Y-101861904D01*
X101544380Y-101576190D02*
X100544380Y-101576190D01*
X100687238Y-101671428D01*
X100782476Y-101766666D01*
X100830095Y-101861904D01*
X100639619Y-100909523D02*
X100592000Y-100861904D01*
X100544380Y-100766666D01*
X100544380Y-100528571D01*
X100592000Y-100433333D01*
X100639619Y-100385714D01*
X100734857Y-100338095D01*
X100830095Y-100338095D01*
X100972952Y-100385714D01*
X101544380Y-100957142D01*
X101544380Y-100338095D01*
G04 #@! TO.C,C13*
X108323142Y-70461142D02*
X108275523Y-70508761D01*
X108132666Y-70556380D01*
X108037428Y-70556380D01*
X107894571Y-70508761D01*
X107799333Y-70413523D01*
X107751714Y-70318285D01*
X107704095Y-70127809D01*
X107704095Y-69984952D01*
X107751714Y-69794476D01*
X107799333Y-69699238D01*
X107894571Y-69604000D01*
X108037428Y-69556380D01*
X108132666Y-69556380D01*
X108275523Y-69604000D01*
X108323142Y-69651619D01*
X109275523Y-70556380D02*
X108704095Y-70556380D01*
X108989809Y-70556380D02*
X108989809Y-69556380D01*
X108894571Y-69699238D01*
X108799333Y-69794476D01*
X108704095Y-69842095D01*
X109608857Y-69556380D02*
X110227904Y-69556380D01*
X109894571Y-69937333D01*
X110037428Y-69937333D01*
X110132666Y-69984952D01*
X110180285Y-70032571D01*
X110227904Y-70127809D01*
X110227904Y-70365904D01*
X110180285Y-70461142D01*
X110132666Y-70508761D01*
X110037428Y-70556380D01*
X109751714Y-70556380D01*
X109656476Y-70508761D01*
X109608857Y-70461142D01*
G04 #@! TO.C,C14*
X135739142Y-114971142D02*
X135691523Y-115018761D01*
X135548666Y-115066380D01*
X135453428Y-115066380D01*
X135310571Y-115018761D01*
X135215333Y-114923523D01*
X135167714Y-114828285D01*
X135120095Y-114637809D01*
X135120095Y-114494952D01*
X135167714Y-114304476D01*
X135215333Y-114209238D01*
X135310571Y-114114000D01*
X135453428Y-114066380D01*
X135548666Y-114066380D01*
X135691523Y-114114000D01*
X135739142Y-114161619D01*
X136691523Y-115066380D02*
X136120095Y-115066380D01*
X136405809Y-115066380D02*
X136405809Y-114066380D01*
X136310571Y-114209238D01*
X136215333Y-114304476D01*
X136120095Y-114352095D01*
X137548666Y-114399714D02*
X137548666Y-115066380D01*
X137310571Y-114018761D02*
X137072476Y-114733047D01*
X137691523Y-114733047D01*
G04 #@! TO.C,J4*
X88352380Y-126698333D02*
X89066666Y-126698333D01*
X89209523Y-126745952D01*
X89304761Y-126841190D01*
X89352380Y-126984047D01*
X89352380Y-127079285D01*
X88685714Y-125793571D02*
X89352380Y-125793571D01*
X88304761Y-126031666D02*
X89019047Y-126269761D01*
X89019047Y-125650714D01*
G04 #@! TO.C,R1*
X142327333Y-57094380D02*
X141994000Y-56618190D01*
X141755904Y-57094380D02*
X141755904Y-56094380D01*
X142136857Y-56094380D01*
X142232095Y-56142000D01*
X142279714Y-56189619D01*
X142327333Y-56284857D01*
X142327333Y-56427714D01*
X142279714Y-56522952D01*
X142232095Y-56570571D01*
X142136857Y-56618190D01*
X141755904Y-56618190D01*
X143279714Y-57094380D02*
X142708285Y-57094380D01*
X142994000Y-57094380D02*
X142994000Y-56094380D01*
X142898761Y-56237238D01*
X142803523Y-56332476D01*
X142708285Y-56380095D01*
G04 #@! TO.C,R2*
X142327333Y-66238380D02*
X141994000Y-65762190D01*
X141755904Y-66238380D02*
X141755904Y-65238380D01*
X142136857Y-65238380D01*
X142232095Y-65286000D01*
X142279714Y-65333619D01*
X142327333Y-65428857D01*
X142327333Y-65571714D01*
X142279714Y-65666952D01*
X142232095Y-65714571D01*
X142136857Y-65762190D01*
X141755904Y-65762190D01*
X142708285Y-65333619D02*
X142755904Y-65286000D01*
X142851142Y-65238380D01*
X143089238Y-65238380D01*
X143184476Y-65286000D01*
X143232095Y-65333619D01*
X143279714Y-65428857D01*
X143279714Y-65524095D01*
X143232095Y-65666952D01*
X142660666Y-66238380D01*
X143279714Y-66238380D01*
G04 #@! TO.C,R3*
X141819333Y-63190380D02*
X141486000Y-62714190D01*
X141247904Y-63190380D02*
X141247904Y-62190380D01*
X141628857Y-62190380D01*
X141724095Y-62238000D01*
X141771714Y-62285619D01*
X141819333Y-62380857D01*
X141819333Y-62523714D01*
X141771714Y-62618952D01*
X141724095Y-62666571D01*
X141628857Y-62714190D01*
X141247904Y-62714190D01*
X142152666Y-62190380D02*
X142771714Y-62190380D01*
X142438380Y-62571333D01*
X142581238Y-62571333D01*
X142676476Y-62618952D01*
X142724095Y-62666571D01*
X142771714Y-62761809D01*
X142771714Y-62999904D01*
X142724095Y-63095142D01*
X142676476Y-63142761D01*
X142581238Y-63190380D01*
X142295523Y-63190380D01*
X142200285Y-63142761D01*
X142152666Y-63095142D01*
G04 #@! TO.C,R4*
X141819333Y-60142380D02*
X141486000Y-59666190D01*
X141247904Y-60142380D02*
X141247904Y-59142380D01*
X141628857Y-59142380D01*
X141724095Y-59190000D01*
X141771714Y-59237619D01*
X141819333Y-59332857D01*
X141819333Y-59475714D01*
X141771714Y-59570952D01*
X141724095Y-59618571D01*
X141628857Y-59666190D01*
X141247904Y-59666190D01*
X142676476Y-59475714D02*
X142676476Y-60142380D01*
X142438380Y-59094761D02*
X142200285Y-59809047D01*
X142819333Y-59809047D01*
G04 #@! TO.C,R5*
X152344380Y-99480666D02*
X151868190Y-99814000D01*
X152344380Y-100052095D02*
X151344380Y-100052095D01*
X151344380Y-99671142D01*
X151392000Y-99575904D01*
X151439619Y-99528285D01*
X151534857Y-99480666D01*
X151677714Y-99480666D01*
X151772952Y-99528285D01*
X151820571Y-99575904D01*
X151868190Y-99671142D01*
X151868190Y-100052095D01*
X151344380Y-98575904D02*
X151344380Y-99052095D01*
X151820571Y-99099714D01*
X151772952Y-99052095D01*
X151725333Y-98956857D01*
X151725333Y-98718761D01*
X151772952Y-98623523D01*
X151820571Y-98575904D01*
X151915809Y-98528285D01*
X152153904Y-98528285D01*
X152249142Y-98575904D01*
X152296761Y-98623523D01*
X152344380Y-98718761D01*
X152344380Y-98956857D01*
X152296761Y-99052095D01*
X152249142Y-99099714D01*
G04 #@! TO.C,R6*
X141819333Y-54046380D02*
X141486000Y-53570190D01*
X141247904Y-54046380D02*
X141247904Y-53046380D01*
X141628857Y-53046380D01*
X141724095Y-53094000D01*
X141771714Y-53141619D01*
X141819333Y-53236857D01*
X141819333Y-53379714D01*
X141771714Y-53474952D01*
X141724095Y-53522571D01*
X141628857Y-53570190D01*
X141247904Y-53570190D01*
X142676476Y-53046380D02*
X142486000Y-53046380D01*
X142390761Y-53094000D01*
X142343142Y-53141619D01*
X142247904Y-53284476D01*
X142200285Y-53474952D01*
X142200285Y-53855904D01*
X142247904Y-53951142D01*
X142295523Y-53998761D01*
X142390761Y-54046380D01*
X142581238Y-54046380D01*
X142676476Y-53998761D01*
X142724095Y-53951142D01*
X142771714Y-53855904D01*
X142771714Y-53617809D01*
X142724095Y-53522571D01*
X142676476Y-53474952D01*
X142581238Y-53427333D01*
X142390761Y-53427333D01*
X142295523Y-53474952D01*
X142247904Y-53522571D01*
X142200285Y-53617809D01*
G04 #@! TO.C,R7*
X124547333Y-47188380D02*
X124214000Y-46712190D01*
X123975904Y-47188380D02*
X123975904Y-46188380D01*
X124356857Y-46188380D01*
X124452095Y-46236000D01*
X124499714Y-46283619D01*
X124547333Y-46378857D01*
X124547333Y-46521714D01*
X124499714Y-46616952D01*
X124452095Y-46664571D01*
X124356857Y-46712190D01*
X123975904Y-46712190D01*
X124880666Y-46188380D02*
X125547333Y-46188380D01*
X125118761Y-47188380D01*
G04 #@! TO.C,R8*
X147772380Y-89066666D02*
X147296190Y-89400000D01*
X147772380Y-89638095D02*
X146772380Y-89638095D01*
X146772380Y-89257142D01*
X146820000Y-89161904D01*
X146867619Y-89114285D01*
X146962857Y-89066666D01*
X147105714Y-89066666D01*
X147200952Y-89114285D01*
X147248571Y-89161904D01*
X147296190Y-89257142D01*
X147296190Y-89638095D01*
X147200952Y-88495238D02*
X147153333Y-88590476D01*
X147105714Y-88638095D01*
X147010476Y-88685714D01*
X146962857Y-88685714D01*
X146867619Y-88638095D01*
X146820000Y-88590476D01*
X146772380Y-88495238D01*
X146772380Y-88304761D01*
X146820000Y-88209523D01*
X146867619Y-88161904D01*
X146962857Y-88114285D01*
X147010476Y-88114285D01*
X147105714Y-88161904D01*
X147153333Y-88209523D01*
X147200952Y-88304761D01*
X147200952Y-88495238D01*
X147248571Y-88590476D01*
X147296190Y-88638095D01*
X147391428Y-88685714D01*
X147581904Y-88685714D01*
X147677142Y-88638095D01*
X147724761Y-88590476D01*
X147772380Y-88495238D01*
X147772380Y-88304761D01*
X147724761Y-88209523D01*
X147677142Y-88161904D01*
X147581904Y-88114285D01*
X147391428Y-88114285D01*
X147296190Y-88161904D01*
X147248571Y-88209523D01*
X147200952Y-88304761D01*
G04 #@! TO.C,R9*
X125563333Y-52522380D02*
X125230000Y-52046190D01*
X124991904Y-52522380D02*
X124991904Y-51522380D01*
X125372857Y-51522380D01*
X125468095Y-51570000D01*
X125515714Y-51617619D01*
X125563333Y-51712857D01*
X125563333Y-51855714D01*
X125515714Y-51950952D01*
X125468095Y-51998571D01*
X125372857Y-52046190D01*
X124991904Y-52046190D01*
X126039523Y-52522380D02*
X126230000Y-52522380D01*
X126325238Y-52474761D01*
X126372857Y-52427142D01*
X126468095Y-52284285D01*
X126515714Y-52093809D01*
X126515714Y-51712857D01*
X126468095Y-51617619D01*
X126420476Y-51570000D01*
X126325238Y-51522380D01*
X126134761Y-51522380D01*
X126039523Y-51570000D01*
X125991904Y-51617619D01*
X125944285Y-51712857D01*
X125944285Y-51950952D01*
X125991904Y-52046190D01*
X126039523Y-52093809D01*
X126134761Y-52141428D01*
X126325238Y-52141428D01*
X126420476Y-52093809D01*
X126468095Y-52046190D01*
X126515714Y-51950952D01*
G04 #@! TO.C,R10*
X113911142Y-46680380D02*
X113577809Y-46204190D01*
X113339714Y-46680380D02*
X113339714Y-45680380D01*
X113720666Y-45680380D01*
X113815904Y-45728000D01*
X113863523Y-45775619D01*
X113911142Y-45870857D01*
X113911142Y-46013714D01*
X113863523Y-46108952D01*
X113815904Y-46156571D01*
X113720666Y-46204190D01*
X113339714Y-46204190D01*
X114863523Y-46680380D02*
X114292095Y-46680380D01*
X114577809Y-46680380D02*
X114577809Y-45680380D01*
X114482571Y-45823238D01*
X114387333Y-45918476D01*
X114292095Y-45966095D01*
X115482571Y-45680380D02*
X115577809Y-45680380D01*
X115673047Y-45728000D01*
X115720666Y-45775619D01*
X115768285Y-45870857D01*
X115815904Y-46061333D01*
X115815904Y-46299428D01*
X115768285Y-46489904D01*
X115720666Y-46585142D01*
X115673047Y-46632761D01*
X115577809Y-46680380D01*
X115482571Y-46680380D01*
X115387333Y-46632761D01*
X115339714Y-46585142D01*
X115292095Y-46489904D01*
X115244476Y-46299428D01*
X115244476Y-46061333D01*
X115292095Y-45870857D01*
X115339714Y-45775619D01*
X115387333Y-45728000D01*
X115482571Y-45680380D01*
G04 #@! TO.C,R11*
X146423142Y-75128380D02*
X146089809Y-74652190D01*
X145851714Y-75128380D02*
X145851714Y-74128380D01*
X146232666Y-74128380D01*
X146327904Y-74176000D01*
X146375523Y-74223619D01*
X146423142Y-74318857D01*
X146423142Y-74461714D01*
X146375523Y-74556952D01*
X146327904Y-74604571D01*
X146232666Y-74652190D01*
X145851714Y-74652190D01*
X147375523Y-75128380D02*
X146804095Y-75128380D01*
X147089809Y-75128380D02*
X147089809Y-74128380D01*
X146994571Y-74271238D01*
X146899333Y-74366476D01*
X146804095Y-74414095D01*
X148327904Y-75128380D02*
X147756476Y-75128380D01*
X148042190Y-75128380D02*
X148042190Y-74128380D01*
X147946952Y-74271238D01*
X147851714Y-74366476D01*
X147756476Y-74414095D01*
G04 #@! TO.C,R12*
X149217142Y-80716380D02*
X148883809Y-80240190D01*
X148645714Y-80716380D02*
X148645714Y-79716380D01*
X149026666Y-79716380D01*
X149121904Y-79764000D01*
X149169523Y-79811619D01*
X149217142Y-79906857D01*
X149217142Y-80049714D01*
X149169523Y-80144952D01*
X149121904Y-80192571D01*
X149026666Y-80240190D01*
X148645714Y-80240190D01*
X150169523Y-80716380D02*
X149598095Y-80716380D01*
X149883809Y-80716380D02*
X149883809Y-79716380D01*
X149788571Y-79859238D01*
X149693333Y-79954476D01*
X149598095Y-80002095D01*
X150550476Y-79811619D02*
X150598095Y-79764000D01*
X150693333Y-79716380D01*
X150931428Y-79716380D01*
X151026666Y-79764000D01*
X151074285Y-79811619D01*
X151121904Y-79906857D01*
X151121904Y-80002095D01*
X151074285Y-80144952D01*
X150502857Y-80716380D01*
X151121904Y-80716380D01*
G04 #@! TO.C,R13*
X114241142Y-50100380D02*
X113907809Y-49624190D01*
X113669714Y-50100380D02*
X113669714Y-49100380D01*
X114050666Y-49100380D01*
X114145904Y-49148000D01*
X114193523Y-49195619D01*
X114241142Y-49290857D01*
X114241142Y-49433714D01*
X114193523Y-49528952D01*
X114145904Y-49576571D01*
X114050666Y-49624190D01*
X113669714Y-49624190D01*
X115193523Y-50100380D02*
X114622095Y-50100380D01*
X114907809Y-50100380D02*
X114907809Y-49100380D01*
X114812571Y-49243238D01*
X114717333Y-49338476D01*
X114622095Y-49386095D01*
X115526857Y-49100380D02*
X116145904Y-49100380D01*
X115812571Y-49481333D01*
X115955428Y-49481333D01*
X116050666Y-49528952D01*
X116098285Y-49576571D01*
X116145904Y-49671809D01*
X116145904Y-49909904D01*
X116098285Y-50005142D01*
X116050666Y-50052761D01*
X115955428Y-50100380D01*
X115669714Y-50100380D01*
X115574476Y-50052761D01*
X115526857Y-50005142D01*
G04 #@! TO.C,R14*
X94940380Y-56522857D02*
X94464190Y-56856190D01*
X94940380Y-57094285D02*
X93940380Y-57094285D01*
X93940380Y-56713333D01*
X93988000Y-56618095D01*
X94035619Y-56570476D01*
X94130857Y-56522857D01*
X94273714Y-56522857D01*
X94368952Y-56570476D01*
X94416571Y-56618095D01*
X94464190Y-56713333D01*
X94464190Y-57094285D01*
X94940380Y-55570476D02*
X94940380Y-56141904D01*
X94940380Y-55856190D02*
X93940380Y-55856190D01*
X94083238Y-55951428D01*
X94178476Y-56046666D01*
X94226095Y-56141904D01*
X94273714Y-54713333D02*
X94940380Y-54713333D01*
X93892761Y-54951428D02*
X94607047Y-55189523D01*
X94607047Y-54570476D01*
G04 #@! TO.C,R15*
X95877142Y-60650380D02*
X95543809Y-60174190D01*
X95305714Y-60650380D02*
X95305714Y-59650380D01*
X95686666Y-59650380D01*
X95781904Y-59698000D01*
X95829523Y-59745619D01*
X95877142Y-59840857D01*
X95877142Y-59983714D01*
X95829523Y-60078952D01*
X95781904Y-60126571D01*
X95686666Y-60174190D01*
X95305714Y-60174190D01*
X96829523Y-60650380D02*
X96258095Y-60650380D01*
X96543809Y-60650380D02*
X96543809Y-59650380D01*
X96448571Y-59793238D01*
X96353333Y-59888476D01*
X96258095Y-59936095D01*
X97734285Y-59650380D02*
X97258095Y-59650380D01*
X97210476Y-60126571D01*
X97258095Y-60078952D01*
X97353333Y-60031333D01*
X97591428Y-60031333D01*
X97686666Y-60078952D01*
X97734285Y-60126571D01*
X97781904Y-60221809D01*
X97781904Y-60459904D01*
X97734285Y-60555142D01*
X97686666Y-60602761D01*
X97591428Y-60650380D01*
X97353333Y-60650380D01*
X97258095Y-60602761D01*
X97210476Y-60555142D01*
G04 #@! TO.C,R16*
X102735142Y-46680380D02*
X102401809Y-46204190D01*
X102163714Y-46680380D02*
X102163714Y-45680380D01*
X102544666Y-45680380D01*
X102639904Y-45728000D01*
X102687523Y-45775619D01*
X102735142Y-45870857D01*
X102735142Y-46013714D01*
X102687523Y-46108952D01*
X102639904Y-46156571D01*
X102544666Y-46204190D01*
X102163714Y-46204190D01*
X103687523Y-46680380D02*
X103116095Y-46680380D01*
X103401809Y-46680380D02*
X103401809Y-45680380D01*
X103306571Y-45823238D01*
X103211333Y-45918476D01*
X103116095Y-45966095D01*
X104544666Y-45680380D02*
X104354190Y-45680380D01*
X104258952Y-45728000D01*
X104211333Y-45775619D01*
X104116095Y-45918476D01*
X104068476Y-46108952D01*
X104068476Y-46489904D01*
X104116095Y-46585142D01*
X104163714Y-46632761D01*
X104258952Y-46680380D01*
X104449428Y-46680380D01*
X104544666Y-46632761D01*
X104592285Y-46585142D01*
X104639904Y-46489904D01*
X104639904Y-46251809D01*
X104592285Y-46156571D01*
X104544666Y-46108952D01*
X104449428Y-46061333D01*
X104258952Y-46061333D01*
X104163714Y-46108952D01*
X104116095Y-46156571D01*
X104068476Y-46251809D01*
G04 #@! TO.C,R17*
X145915142Y-81224380D02*
X145581809Y-80748190D01*
X145343714Y-81224380D02*
X145343714Y-80224380D01*
X145724666Y-80224380D01*
X145819904Y-80272000D01*
X145867523Y-80319619D01*
X145915142Y-80414857D01*
X145915142Y-80557714D01*
X145867523Y-80652952D01*
X145819904Y-80700571D01*
X145724666Y-80748190D01*
X145343714Y-80748190D01*
X146867523Y-81224380D02*
X146296095Y-81224380D01*
X146581809Y-81224380D02*
X146581809Y-80224380D01*
X146486571Y-80367238D01*
X146391333Y-80462476D01*
X146296095Y-80510095D01*
X147200857Y-80224380D02*
X147867523Y-80224380D01*
X147438952Y-81224380D01*
G04 #@! TO.C,R18*
X141851142Y-72588380D02*
X141517809Y-72112190D01*
X141279714Y-72588380D02*
X141279714Y-71588380D01*
X141660666Y-71588380D01*
X141755904Y-71636000D01*
X141803523Y-71683619D01*
X141851142Y-71778857D01*
X141851142Y-71921714D01*
X141803523Y-72016952D01*
X141755904Y-72064571D01*
X141660666Y-72112190D01*
X141279714Y-72112190D01*
X142803523Y-72588380D02*
X142232095Y-72588380D01*
X142517809Y-72588380D02*
X142517809Y-71588380D01*
X142422571Y-71731238D01*
X142327333Y-71826476D01*
X142232095Y-71874095D01*
X143374952Y-72016952D02*
X143279714Y-71969333D01*
X143232095Y-71921714D01*
X143184476Y-71826476D01*
X143184476Y-71778857D01*
X143232095Y-71683619D01*
X143279714Y-71636000D01*
X143374952Y-71588380D01*
X143565428Y-71588380D01*
X143660666Y-71636000D01*
X143708285Y-71683619D01*
X143755904Y-71778857D01*
X143755904Y-71826476D01*
X143708285Y-71921714D01*
X143660666Y-71969333D01*
X143565428Y-72016952D01*
X143374952Y-72016952D01*
X143279714Y-72064571D01*
X143232095Y-72112190D01*
X143184476Y-72207428D01*
X143184476Y-72397904D01*
X143232095Y-72493142D01*
X143279714Y-72540761D01*
X143374952Y-72588380D01*
X143565428Y-72588380D01*
X143660666Y-72540761D01*
X143708285Y-72493142D01*
X143755904Y-72397904D01*
X143755904Y-72207428D01*
X143708285Y-72112190D01*
X143660666Y-72064571D01*
X143565428Y-72016952D01*
G04 #@! TO.C,R19*
X98242380Y-56522857D02*
X97766190Y-56856190D01*
X98242380Y-57094285D02*
X97242380Y-57094285D01*
X97242380Y-56713333D01*
X97290000Y-56618095D01*
X97337619Y-56570476D01*
X97432857Y-56522857D01*
X97575714Y-56522857D01*
X97670952Y-56570476D01*
X97718571Y-56618095D01*
X97766190Y-56713333D01*
X97766190Y-57094285D01*
X98242380Y-55570476D02*
X98242380Y-56141904D01*
X98242380Y-55856190D02*
X97242380Y-55856190D01*
X97385238Y-55951428D01*
X97480476Y-56046666D01*
X97528095Y-56141904D01*
X98242380Y-55094285D02*
X98242380Y-54903809D01*
X98194761Y-54808571D01*
X98147142Y-54760952D01*
X98004285Y-54665714D01*
X97813809Y-54618095D01*
X97432857Y-54618095D01*
X97337619Y-54665714D01*
X97290000Y-54713333D01*
X97242380Y-54808571D01*
X97242380Y-54999047D01*
X97290000Y-55094285D01*
X97337619Y-55141904D01*
X97432857Y-55189523D01*
X97670952Y-55189523D01*
X97766190Y-55141904D01*
X97813809Y-55094285D01*
X97861428Y-54999047D01*
X97861428Y-54808571D01*
X97813809Y-54713333D01*
X97766190Y-54665714D01*
X97670952Y-54618095D01*
G04 #@! TO.C,R20*
X98750380Y-71508857D02*
X98274190Y-71842190D01*
X98750380Y-72080285D02*
X97750380Y-72080285D01*
X97750380Y-71699333D01*
X97798000Y-71604095D01*
X97845619Y-71556476D01*
X97940857Y-71508857D01*
X98083714Y-71508857D01*
X98178952Y-71556476D01*
X98226571Y-71604095D01*
X98274190Y-71699333D01*
X98274190Y-72080285D01*
X97845619Y-71127904D02*
X97798000Y-71080285D01*
X97750380Y-70985047D01*
X97750380Y-70746952D01*
X97798000Y-70651714D01*
X97845619Y-70604095D01*
X97940857Y-70556476D01*
X98036095Y-70556476D01*
X98178952Y-70604095D01*
X98750380Y-71175523D01*
X98750380Y-70556476D01*
X97750380Y-69937428D02*
X97750380Y-69842190D01*
X97798000Y-69746952D01*
X97845619Y-69699333D01*
X97940857Y-69651714D01*
X98131333Y-69604095D01*
X98369428Y-69604095D01*
X98559904Y-69651714D01*
X98655142Y-69699333D01*
X98702761Y-69746952D01*
X98750380Y-69842190D01*
X98750380Y-69937428D01*
X98702761Y-70032666D01*
X98655142Y-70080285D01*
X98559904Y-70127904D01*
X98369428Y-70175523D01*
X98131333Y-70175523D01*
X97940857Y-70127904D01*
X97845619Y-70080285D01*
X97798000Y-70032666D01*
X97750380Y-69937428D01*
G04 #@! TO.C,R21*
X107815142Y-109164380D02*
X107481809Y-108688190D01*
X107243714Y-109164380D02*
X107243714Y-108164380D01*
X107624666Y-108164380D01*
X107719904Y-108212000D01*
X107767523Y-108259619D01*
X107815142Y-108354857D01*
X107815142Y-108497714D01*
X107767523Y-108592952D01*
X107719904Y-108640571D01*
X107624666Y-108688190D01*
X107243714Y-108688190D01*
X108196095Y-108259619D02*
X108243714Y-108212000D01*
X108338952Y-108164380D01*
X108577047Y-108164380D01*
X108672285Y-108212000D01*
X108719904Y-108259619D01*
X108767523Y-108354857D01*
X108767523Y-108450095D01*
X108719904Y-108592952D01*
X108148476Y-109164380D01*
X108767523Y-109164380D01*
X109719904Y-109164380D02*
X109148476Y-109164380D01*
X109434190Y-109164380D02*
X109434190Y-108164380D01*
X109338952Y-108307238D01*
X109243714Y-108402476D01*
X109148476Y-108450095D01*
G04 #@! TO.C,R22*
X142105142Y-69286380D02*
X141771809Y-68810190D01*
X141533714Y-69286380D02*
X141533714Y-68286380D01*
X141914666Y-68286380D01*
X142009904Y-68334000D01*
X142057523Y-68381619D01*
X142105142Y-68476857D01*
X142105142Y-68619714D01*
X142057523Y-68714952D01*
X142009904Y-68762571D01*
X141914666Y-68810190D01*
X141533714Y-68810190D01*
X142486095Y-68381619D02*
X142533714Y-68334000D01*
X142628952Y-68286380D01*
X142867047Y-68286380D01*
X142962285Y-68334000D01*
X143009904Y-68381619D01*
X143057523Y-68476857D01*
X143057523Y-68572095D01*
X143009904Y-68714952D01*
X142438476Y-69286380D01*
X143057523Y-69286380D01*
X143438476Y-68381619D02*
X143486095Y-68334000D01*
X143581333Y-68286380D01*
X143819428Y-68286380D01*
X143914666Y-68334000D01*
X143962285Y-68381619D01*
X144009904Y-68476857D01*
X144009904Y-68572095D01*
X143962285Y-68714952D01*
X143390857Y-69286380D01*
X144009904Y-69286380D01*
G04 #@! TO.C,R23*
X109593142Y-74112380D02*
X109259809Y-73636190D01*
X109021714Y-74112380D02*
X109021714Y-73112380D01*
X109402666Y-73112380D01*
X109497904Y-73160000D01*
X109545523Y-73207619D01*
X109593142Y-73302857D01*
X109593142Y-73445714D01*
X109545523Y-73540952D01*
X109497904Y-73588571D01*
X109402666Y-73636190D01*
X109021714Y-73636190D01*
X109974095Y-73207619D02*
X110021714Y-73160000D01*
X110116952Y-73112380D01*
X110355047Y-73112380D01*
X110450285Y-73160000D01*
X110497904Y-73207619D01*
X110545523Y-73302857D01*
X110545523Y-73398095D01*
X110497904Y-73540952D01*
X109926476Y-74112380D01*
X110545523Y-74112380D01*
X110878857Y-73112380D02*
X111497904Y-73112380D01*
X111164571Y-73493333D01*
X111307428Y-73493333D01*
X111402666Y-73540952D01*
X111450285Y-73588571D01*
X111497904Y-73683809D01*
X111497904Y-73921904D01*
X111450285Y-74017142D01*
X111402666Y-74064761D01*
X111307428Y-74112380D01*
X111021714Y-74112380D01*
X110926476Y-74064761D01*
X110878857Y-74017142D01*
G04 #@! TO.C,R24*
X96972380Y-78112857D02*
X96496190Y-78446190D01*
X96972380Y-78684285D02*
X95972380Y-78684285D01*
X95972380Y-78303333D01*
X96020000Y-78208095D01*
X96067619Y-78160476D01*
X96162857Y-78112857D01*
X96305714Y-78112857D01*
X96400952Y-78160476D01*
X96448571Y-78208095D01*
X96496190Y-78303333D01*
X96496190Y-78684285D01*
X96067619Y-77731904D02*
X96020000Y-77684285D01*
X95972380Y-77589047D01*
X95972380Y-77350952D01*
X96020000Y-77255714D01*
X96067619Y-77208095D01*
X96162857Y-77160476D01*
X96258095Y-77160476D01*
X96400952Y-77208095D01*
X96972380Y-77779523D01*
X96972380Y-77160476D01*
X96305714Y-76303333D02*
X96972380Y-76303333D01*
X95924761Y-76541428D02*
X96639047Y-76779523D01*
X96639047Y-76160476D01*
G04 #@! TO.C,R25*
X94686380Y-72016857D02*
X94210190Y-72350190D01*
X94686380Y-72588285D02*
X93686380Y-72588285D01*
X93686380Y-72207333D01*
X93734000Y-72112095D01*
X93781619Y-72064476D01*
X93876857Y-72016857D01*
X94019714Y-72016857D01*
X94114952Y-72064476D01*
X94162571Y-72112095D01*
X94210190Y-72207333D01*
X94210190Y-72588285D01*
X93781619Y-71635904D02*
X93734000Y-71588285D01*
X93686380Y-71493047D01*
X93686380Y-71254952D01*
X93734000Y-71159714D01*
X93781619Y-71112095D01*
X93876857Y-71064476D01*
X93972095Y-71064476D01*
X94114952Y-71112095D01*
X94686380Y-71683523D01*
X94686380Y-71064476D01*
X93686380Y-70159714D02*
X93686380Y-70635904D01*
X94162571Y-70683523D01*
X94114952Y-70635904D01*
X94067333Y-70540666D01*
X94067333Y-70302571D01*
X94114952Y-70207333D01*
X94162571Y-70159714D01*
X94257809Y-70112095D01*
X94495904Y-70112095D01*
X94591142Y-70159714D01*
X94638761Y-70207333D01*
X94686380Y-70302571D01*
X94686380Y-70540666D01*
X94638761Y-70635904D01*
X94591142Y-70683523D01*
G04 #@! TO.C,R26*
X104767142Y-102814380D02*
X104433809Y-102338190D01*
X104195714Y-102814380D02*
X104195714Y-101814380D01*
X104576666Y-101814380D01*
X104671904Y-101862000D01*
X104719523Y-101909619D01*
X104767142Y-102004857D01*
X104767142Y-102147714D01*
X104719523Y-102242952D01*
X104671904Y-102290571D01*
X104576666Y-102338190D01*
X104195714Y-102338190D01*
X105148095Y-101909619D02*
X105195714Y-101862000D01*
X105290952Y-101814380D01*
X105529047Y-101814380D01*
X105624285Y-101862000D01*
X105671904Y-101909619D01*
X105719523Y-102004857D01*
X105719523Y-102100095D01*
X105671904Y-102242952D01*
X105100476Y-102814380D01*
X105719523Y-102814380D01*
X106576666Y-101814380D02*
X106386190Y-101814380D01*
X106290952Y-101862000D01*
X106243333Y-101909619D01*
X106148095Y-102052476D01*
X106100476Y-102242952D01*
X106100476Y-102623904D01*
X106148095Y-102719142D01*
X106195714Y-102766761D01*
X106290952Y-102814380D01*
X106481428Y-102814380D01*
X106576666Y-102766761D01*
X106624285Y-102719142D01*
X106671904Y-102623904D01*
X106671904Y-102385809D01*
X106624285Y-102290571D01*
X106576666Y-102242952D01*
X106481428Y-102195333D01*
X106290952Y-102195333D01*
X106195714Y-102242952D01*
X106148095Y-102290571D01*
X106100476Y-102385809D01*
G04 #@! TO.C,R27*
X104259142Y-109926380D02*
X103925809Y-109450190D01*
X103687714Y-109926380D02*
X103687714Y-108926380D01*
X104068666Y-108926380D01*
X104163904Y-108974000D01*
X104211523Y-109021619D01*
X104259142Y-109116857D01*
X104259142Y-109259714D01*
X104211523Y-109354952D01*
X104163904Y-109402571D01*
X104068666Y-109450190D01*
X103687714Y-109450190D01*
X104640095Y-109021619D02*
X104687714Y-108974000D01*
X104782952Y-108926380D01*
X105021047Y-108926380D01*
X105116285Y-108974000D01*
X105163904Y-109021619D01*
X105211523Y-109116857D01*
X105211523Y-109212095D01*
X105163904Y-109354952D01*
X104592476Y-109926380D01*
X105211523Y-109926380D01*
X105544857Y-108926380D02*
X106211523Y-108926380D01*
X105782952Y-109926380D01*
G04 #@! TO.C,R28*
X118054380Y-79890857D02*
X117578190Y-80224190D01*
X118054380Y-80462285D02*
X117054380Y-80462285D01*
X117054380Y-80081333D01*
X117102000Y-79986095D01*
X117149619Y-79938476D01*
X117244857Y-79890857D01*
X117387714Y-79890857D01*
X117482952Y-79938476D01*
X117530571Y-79986095D01*
X117578190Y-80081333D01*
X117578190Y-80462285D01*
X117149619Y-79509904D02*
X117102000Y-79462285D01*
X117054380Y-79367047D01*
X117054380Y-79128952D01*
X117102000Y-79033714D01*
X117149619Y-78986095D01*
X117244857Y-78938476D01*
X117340095Y-78938476D01*
X117482952Y-78986095D01*
X118054380Y-79557523D01*
X118054380Y-78938476D01*
X117482952Y-78367047D02*
X117435333Y-78462285D01*
X117387714Y-78509904D01*
X117292476Y-78557523D01*
X117244857Y-78557523D01*
X117149619Y-78509904D01*
X117102000Y-78462285D01*
X117054380Y-78367047D01*
X117054380Y-78176571D01*
X117102000Y-78081333D01*
X117149619Y-78033714D01*
X117244857Y-77986095D01*
X117292476Y-77986095D01*
X117387714Y-78033714D01*
X117435333Y-78081333D01*
X117482952Y-78176571D01*
X117482952Y-78367047D01*
X117530571Y-78462285D01*
X117578190Y-78509904D01*
X117673428Y-78557523D01*
X117863904Y-78557523D01*
X117959142Y-78509904D01*
X118006761Y-78462285D01*
X118054380Y-78367047D01*
X118054380Y-78176571D01*
X118006761Y-78081333D01*
X117959142Y-78033714D01*
X117863904Y-77986095D01*
X117673428Y-77986095D01*
X117578190Y-78033714D01*
X117530571Y-78081333D01*
X117482952Y-78176571D01*
G04 #@! TO.C,R29*
X98242380Y-116466857D02*
X97766190Y-116800190D01*
X98242380Y-117038285D02*
X97242380Y-117038285D01*
X97242380Y-116657333D01*
X97290000Y-116562095D01*
X97337619Y-116514476D01*
X97432857Y-116466857D01*
X97575714Y-116466857D01*
X97670952Y-116514476D01*
X97718571Y-116562095D01*
X97766190Y-116657333D01*
X97766190Y-117038285D01*
X97337619Y-116085904D02*
X97290000Y-116038285D01*
X97242380Y-115943047D01*
X97242380Y-115704952D01*
X97290000Y-115609714D01*
X97337619Y-115562095D01*
X97432857Y-115514476D01*
X97528095Y-115514476D01*
X97670952Y-115562095D01*
X98242380Y-116133523D01*
X98242380Y-115514476D01*
X98242380Y-115038285D02*
X98242380Y-114847809D01*
X98194761Y-114752571D01*
X98147142Y-114704952D01*
X98004285Y-114609714D01*
X97813809Y-114562095D01*
X97432857Y-114562095D01*
X97337619Y-114609714D01*
X97290000Y-114657333D01*
X97242380Y-114752571D01*
X97242380Y-114943047D01*
X97290000Y-115038285D01*
X97337619Y-115085904D01*
X97432857Y-115133523D01*
X97670952Y-115133523D01*
X97766190Y-115085904D01*
X97813809Y-115038285D01*
X97861428Y-114943047D01*
X97861428Y-114752571D01*
X97813809Y-114657333D01*
X97766190Y-114609714D01*
X97670952Y-114562095D01*
G04 #@! TO.C,R30*
X94686380Y-92844857D02*
X94210190Y-93178190D01*
X94686380Y-93416285D02*
X93686380Y-93416285D01*
X93686380Y-93035333D01*
X93734000Y-92940095D01*
X93781619Y-92892476D01*
X93876857Y-92844857D01*
X94019714Y-92844857D01*
X94114952Y-92892476D01*
X94162571Y-92940095D01*
X94210190Y-93035333D01*
X94210190Y-93416285D01*
X93686380Y-92511523D02*
X93686380Y-91892476D01*
X94067333Y-92225809D01*
X94067333Y-92082952D01*
X94114952Y-91987714D01*
X94162571Y-91940095D01*
X94257809Y-91892476D01*
X94495904Y-91892476D01*
X94591142Y-91940095D01*
X94638761Y-91987714D01*
X94686380Y-92082952D01*
X94686380Y-92368666D01*
X94638761Y-92463904D01*
X94591142Y-92511523D01*
X93686380Y-91273428D02*
X93686380Y-91178190D01*
X93734000Y-91082952D01*
X93781619Y-91035333D01*
X93876857Y-90987714D01*
X94067333Y-90940095D01*
X94305428Y-90940095D01*
X94495904Y-90987714D01*
X94591142Y-91035333D01*
X94638761Y-91082952D01*
X94686380Y-91178190D01*
X94686380Y-91273428D01*
X94638761Y-91368666D01*
X94591142Y-91416285D01*
X94495904Y-91463904D01*
X94305428Y-91511523D01*
X94067333Y-91511523D01*
X93876857Y-91463904D01*
X93781619Y-91416285D01*
X93734000Y-91368666D01*
X93686380Y-91273428D01*
G04 #@! TO.C,R31*
X96791381Y-103117856D02*
X96315191Y-103451189D01*
X96791381Y-103689284D02*
X95791381Y-103689284D01*
X95791381Y-103308332D01*
X95839001Y-103213094D01*
X95886620Y-103165475D01*
X95981858Y-103117856D01*
X96124715Y-103117856D01*
X96219953Y-103165475D01*
X96267572Y-103213094D01*
X96315191Y-103308332D01*
X96315191Y-103689284D01*
X95791381Y-102784522D02*
X95791381Y-102165475D01*
X96172334Y-102498808D01*
X96172334Y-102355951D01*
X96219953Y-102260713D01*
X96267572Y-102213094D01*
X96362810Y-102165475D01*
X96600905Y-102165475D01*
X96696143Y-102213094D01*
X96743762Y-102260713D01*
X96791381Y-102355951D01*
X96791381Y-102641665D01*
X96743762Y-102736903D01*
X96696143Y-102784522D01*
X96791381Y-101213094D02*
X96791381Y-101784522D01*
X96791381Y-101498808D02*
X95791381Y-101498808D01*
X95934239Y-101594046D01*
X96029477Y-101689284D01*
X96077096Y-101784522D01*
G04 #@! TO.C,R32*
X140295142Y-127886380D02*
X139961809Y-127410190D01*
X139723714Y-127886380D02*
X139723714Y-126886380D01*
X140104666Y-126886380D01*
X140199904Y-126934000D01*
X140247523Y-126981619D01*
X140295142Y-127076857D01*
X140295142Y-127219714D01*
X140247523Y-127314952D01*
X140199904Y-127362571D01*
X140104666Y-127410190D01*
X139723714Y-127410190D01*
X140628476Y-126886380D02*
X141247523Y-126886380D01*
X140914190Y-127267333D01*
X141057047Y-127267333D01*
X141152285Y-127314952D01*
X141199904Y-127362571D01*
X141247523Y-127457809D01*
X141247523Y-127695904D01*
X141199904Y-127791142D01*
X141152285Y-127838761D01*
X141057047Y-127886380D01*
X140771333Y-127886380D01*
X140676095Y-127838761D01*
X140628476Y-127791142D01*
X141628476Y-126981619D02*
X141676095Y-126934000D01*
X141771333Y-126886380D01*
X142009428Y-126886380D01*
X142104666Y-126934000D01*
X142152285Y-126981619D01*
X142199904Y-127076857D01*
X142199904Y-127172095D01*
X142152285Y-127314952D01*
X141580857Y-127886380D01*
X142199904Y-127886380D01*
G04 #@! TO.C,R36*
X140295142Y-130934380D02*
X139961809Y-130458190D01*
X139723714Y-130934380D02*
X139723714Y-129934380D01*
X140104666Y-129934380D01*
X140199904Y-129982000D01*
X140247523Y-130029619D01*
X140295142Y-130124857D01*
X140295142Y-130267714D01*
X140247523Y-130362952D01*
X140199904Y-130410571D01*
X140104666Y-130458190D01*
X139723714Y-130458190D01*
X140628476Y-129934380D02*
X141247523Y-129934380D01*
X140914190Y-130315333D01*
X141057047Y-130315333D01*
X141152285Y-130362952D01*
X141199904Y-130410571D01*
X141247523Y-130505809D01*
X141247523Y-130743904D01*
X141199904Y-130839142D01*
X141152285Y-130886761D01*
X141057047Y-130934380D01*
X140771333Y-130934380D01*
X140676095Y-130886761D01*
X140628476Y-130839142D01*
X142104666Y-129934380D02*
X141914190Y-129934380D01*
X141818952Y-129982000D01*
X141771333Y-130029619D01*
X141676095Y-130172476D01*
X141628476Y-130362952D01*
X141628476Y-130743904D01*
X141676095Y-130839142D01*
X141723714Y-130886761D01*
X141818952Y-130934380D01*
X142009428Y-130934380D01*
X142104666Y-130886761D01*
X142152285Y-130839142D01*
X142199904Y-130743904D01*
X142199904Y-130505809D01*
X142152285Y-130410571D01*
X142104666Y-130362952D01*
X142009428Y-130315333D01*
X141818952Y-130315333D01*
X141723714Y-130362952D01*
X141676095Y-130410571D01*
X141628476Y-130505809D01*
G04 #@! TO.C,R40*
X140295142Y-137030380D02*
X139961809Y-136554190D01*
X139723714Y-137030380D02*
X139723714Y-136030380D01*
X140104666Y-136030380D01*
X140199904Y-136078000D01*
X140247523Y-136125619D01*
X140295142Y-136220857D01*
X140295142Y-136363714D01*
X140247523Y-136458952D01*
X140199904Y-136506571D01*
X140104666Y-136554190D01*
X139723714Y-136554190D01*
X141152285Y-136363714D02*
X141152285Y-137030380D01*
X140914190Y-135982761D02*
X140676095Y-136697047D01*
X141295142Y-136697047D01*
X141866571Y-136030380D02*
X141961809Y-136030380D01*
X142057047Y-136078000D01*
X142104666Y-136125619D01*
X142152285Y-136220857D01*
X142199904Y-136411333D01*
X142199904Y-136649428D01*
X142152285Y-136839904D01*
X142104666Y-136935142D01*
X142057047Y-136982761D01*
X141961809Y-137030380D01*
X141866571Y-137030380D01*
X141771333Y-136982761D01*
X141723714Y-136935142D01*
X141676095Y-136839904D01*
X141628476Y-136649428D01*
X141628476Y-136411333D01*
X141676095Y-136220857D01*
X141723714Y-136125619D01*
X141771333Y-136078000D01*
X141866571Y-136030380D01*
G04 #@! TO.C,R44*
X140549142Y-133982380D02*
X140215809Y-133506190D01*
X139977714Y-133982380D02*
X139977714Y-132982380D01*
X140358666Y-132982380D01*
X140453904Y-133030000D01*
X140501523Y-133077619D01*
X140549142Y-133172857D01*
X140549142Y-133315714D01*
X140501523Y-133410952D01*
X140453904Y-133458571D01*
X140358666Y-133506190D01*
X139977714Y-133506190D01*
X141406285Y-133315714D02*
X141406285Y-133982380D01*
X141168190Y-132934761D02*
X140930095Y-133649047D01*
X141549142Y-133649047D01*
X142358666Y-133315714D02*
X142358666Y-133982380D01*
X142120571Y-132934761D02*
X141882476Y-133649047D01*
X142501523Y-133649047D01*
G04 #@! TO.C,R48*
X140295142Y-124912380D02*
X139961809Y-124436190D01*
X139723714Y-124912380D02*
X139723714Y-123912380D01*
X140104666Y-123912380D01*
X140199904Y-123960000D01*
X140247523Y-124007619D01*
X140295142Y-124102857D01*
X140295142Y-124245714D01*
X140247523Y-124340952D01*
X140199904Y-124388571D01*
X140104666Y-124436190D01*
X139723714Y-124436190D01*
X141152285Y-124245714D02*
X141152285Y-124912380D01*
X140914190Y-123864761D02*
X140676095Y-124579047D01*
X141295142Y-124579047D01*
X141818952Y-124340952D02*
X141723714Y-124293333D01*
X141676095Y-124245714D01*
X141628476Y-124150476D01*
X141628476Y-124102857D01*
X141676095Y-124007619D01*
X141723714Y-123960000D01*
X141818952Y-123912380D01*
X142009428Y-123912380D01*
X142104666Y-123960000D01*
X142152285Y-124007619D01*
X142199904Y-124102857D01*
X142199904Y-124150476D01*
X142152285Y-124245714D01*
X142104666Y-124293333D01*
X142009428Y-124340952D01*
X141818952Y-124340952D01*
X141723714Y-124388571D01*
X141676095Y-124436190D01*
X141628476Y-124531428D01*
X141628476Y-124721904D01*
X141676095Y-124817142D01*
X141723714Y-124864761D01*
X141818952Y-124912380D01*
X142009428Y-124912380D01*
X142104666Y-124864761D01*
X142152285Y-124817142D01*
X142199904Y-124721904D01*
X142199904Y-124531428D01*
X142152285Y-124436190D01*
X142104666Y-124388571D01*
X142009428Y-124340952D01*
G04 #@! TO.C,U1*
X133608380Y-60197904D02*
X134417904Y-60197904D01*
X134513142Y-60150285D01*
X134560761Y-60102666D01*
X134608380Y-60007428D01*
X134608380Y-59816952D01*
X134560761Y-59721714D01*
X134513142Y-59674095D01*
X134417904Y-59626476D01*
X133608380Y-59626476D01*
X134608380Y-58626476D02*
X134608380Y-59197904D01*
X134608380Y-58912190D02*
X133608380Y-58912190D01*
X133751238Y-59007428D01*
X133846476Y-59102666D01*
X133894095Y-59197904D01*
G04 #@! TO.C,U2*
X107188095Y-75862380D02*
X107188095Y-76671904D01*
X107235714Y-76767142D01*
X107283333Y-76814761D01*
X107378571Y-76862380D01*
X107569047Y-76862380D01*
X107664285Y-76814761D01*
X107711904Y-76767142D01*
X107759523Y-76671904D01*
X107759523Y-75862380D01*
X108188095Y-75957619D02*
X108235714Y-75910000D01*
X108330952Y-75862380D01*
X108569047Y-75862380D01*
X108664285Y-75910000D01*
X108711904Y-75957619D01*
X108759523Y-76052857D01*
X108759523Y-76148095D01*
X108711904Y-76290952D01*
X108140476Y-76862380D01*
X108759523Y-76862380D01*
G04 #@! TO.C,D1*
X100099904Y-135580380D02*
X100099904Y-134580380D01*
X100338000Y-134580380D01*
X100480857Y-134628000D01*
X100576095Y-134723238D01*
X100623714Y-134818476D01*
X100671333Y-135008952D01*
X100671333Y-135151809D01*
X100623714Y-135342285D01*
X100576095Y-135437523D01*
X100480857Y-135532761D01*
X100338000Y-135580380D01*
X100099904Y-135580380D01*
X101623714Y-135580380D02*
X101052285Y-135580380D01*
X101338000Y-135580380D02*
X101338000Y-134580380D01*
X101242761Y-134723238D01*
X101147523Y-134818476D01*
X101052285Y-134866095D01*
X106545095Y-136410380D02*
X106545095Y-135410380D01*
X107116523Y-136410380D02*
X106687952Y-135838952D01*
X107116523Y-135410380D02*
X106545095Y-135981809D01*
G04 #@! TO.C,D2*
X100607904Y-138882380D02*
X100607904Y-137882380D01*
X100846000Y-137882380D01*
X100988857Y-137930000D01*
X101084095Y-138025238D01*
X101131714Y-138120476D01*
X101179333Y-138310952D01*
X101179333Y-138453809D01*
X101131714Y-138644285D01*
X101084095Y-138739523D01*
X100988857Y-138834761D01*
X100846000Y-138882380D01*
X100607904Y-138882380D01*
X101560285Y-137977619D02*
X101607904Y-137930000D01*
X101703142Y-137882380D01*
X101941238Y-137882380D01*
X102036476Y-137930000D01*
X102084095Y-137977619D01*
X102131714Y-138072857D01*
X102131714Y-138168095D01*
X102084095Y-138310952D01*
X101512666Y-138882380D01*
X102131714Y-138882380D01*
X106545095Y-139712380D02*
X106545095Y-138712380D01*
X107116523Y-139712380D02*
X106687952Y-139140952D01*
X107116523Y-138712380D02*
X106545095Y-139283809D01*
G04 #@! TO.C,SW1*
X89812761Y-47053333D02*
X89860380Y-46910476D01*
X89860380Y-46672380D01*
X89812761Y-46577142D01*
X89765142Y-46529523D01*
X89669904Y-46481904D01*
X89574666Y-46481904D01*
X89479428Y-46529523D01*
X89431809Y-46577142D01*
X89384190Y-46672380D01*
X89336571Y-46862857D01*
X89288952Y-46958095D01*
X89241333Y-47005714D01*
X89146095Y-47053333D01*
X89050857Y-47053333D01*
X88955619Y-47005714D01*
X88908000Y-46958095D01*
X88860380Y-46862857D01*
X88860380Y-46624761D01*
X88908000Y-46481904D01*
X88860380Y-46148571D02*
X89860380Y-45910476D01*
X89146095Y-45720000D01*
X89860380Y-45529523D01*
X88860380Y-45291428D01*
X89860380Y-44386666D02*
X89860380Y-44958095D01*
X89860380Y-44672380D02*
X88860380Y-44672380D01*
X89003238Y-44767619D01*
X89098476Y-44862857D01*
X89146095Y-44958095D01*
G04 #@! TO.C,SW2*
X107886666Y-45616761D02*
X108029523Y-45664380D01*
X108267619Y-45664380D01*
X108362857Y-45616761D01*
X108410476Y-45569142D01*
X108458095Y-45473904D01*
X108458095Y-45378666D01*
X108410476Y-45283428D01*
X108362857Y-45235809D01*
X108267619Y-45188190D01*
X108077142Y-45140571D01*
X107981904Y-45092952D01*
X107934285Y-45045333D01*
X107886666Y-44950095D01*
X107886666Y-44854857D01*
X107934285Y-44759619D01*
X107981904Y-44712000D01*
X108077142Y-44664380D01*
X108315238Y-44664380D01*
X108458095Y-44712000D01*
X108791428Y-44664380D02*
X109029523Y-45664380D01*
X109220000Y-44950095D01*
X109410476Y-45664380D01*
X109648571Y-44664380D01*
X109981904Y-44759619D02*
X110029523Y-44712000D01*
X110124761Y-44664380D01*
X110362857Y-44664380D01*
X110458095Y-44712000D01*
X110505714Y-44759619D01*
X110553333Y-44854857D01*
X110553333Y-44950095D01*
X110505714Y-45092952D01*
X109934285Y-45664380D01*
X110553333Y-45664380D01*
G04 #@! TO.C,SW3*
X89812761Y-72453333D02*
X89860380Y-72310476D01*
X89860380Y-72072380D01*
X89812761Y-71977142D01*
X89765142Y-71929523D01*
X89669904Y-71881904D01*
X89574666Y-71881904D01*
X89479428Y-71929523D01*
X89431809Y-71977142D01*
X89384190Y-72072380D01*
X89336571Y-72262857D01*
X89288952Y-72358095D01*
X89241333Y-72405714D01*
X89146095Y-72453333D01*
X89050857Y-72453333D01*
X88955619Y-72405714D01*
X88908000Y-72358095D01*
X88860380Y-72262857D01*
X88860380Y-72024761D01*
X88908000Y-71881904D01*
X88860380Y-71548571D02*
X89860380Y-71310476D01*
X89146095Y-71120000D01*
X89860380Y-70929523D01*
X88860380Y-70691428D01*
X88860380Y-70405714D02*
X88860380Y-69786666D01*
X89241333Y-70120000D01*
X89241333Y-69977142D01*
X89288952Y-69881904D01*
X89336571Y-69834285D01*
X89431809Y-69786666D01*
X89669904Y-69786666D01*
X89765142Y-69834285D01*
X89812761Y-69881904D01*
X89860380Y-69977142D01*
X89860380Y-70262857D01*
X89812761Y-70358095D01*
X89765142Y-70405714D01*
G04 #@! TO.C,SW4*
X89812761Y-97853333D02*
X89860380Y-97710476D01*
X89860380Y-97472380D01*
X89812761Y-97377142D01*
X89765142Y-97329523D01*
X89669904Y-97281904D01*
X89574666Y-97281904D01*
X89479428Y-97329523D01*
X89431809Y-97377142D01*
X89384190Y-97472380D01*
X89336571Y-97662857D01*
X89288952Y-97758095D01*
X89241333Y-97805714D01*
X89146095Y-97853333D01*
X89050857Y-97853333D01*
X88955619Y-97805714D01*
X88908000Y-97758095D01*
X88860380Y-97662857D01*
X88860380Y-97424761D01*
X88908000Y-97281904D01*
X88860380Y-96948571D02*
X89860380Y-96710476D01*
X89146095Y-96520000D01*
X89860380Y-96329523D01*
X88860380Y-96091428D01*
X89193714Y-95281904D02*
X89860380Y-95281904D01*
X88812761Y-95520000D02*
X89527047Y-95758095D01*
X89527047Y-95139047D01*
G04 #@! TO.C,C10*
X117959142Y-115225142D02*
X117911523Y-115272761D01*
X117768666Y-115320380D01*
X117673428Y-115320380D01*
X117530571Y-115272761D01*
X117435333Y-115177523D01*
X117387714Y-115082285D01*
X117340095Y-114891809D01*
X117340095Y-114748952D01*
X117387714Y-114558476D01*
X117435333Y-114463238D01*
X117530571Y-114368000D01*
X117673428Y-114320380D01*
X117768666Y-114320380D01*
X117911523Y-114368000D01*
X117959142Y-114415619D01*
X118911523Y-115320380D02*
X118340095Y-115320380D01*
X118625809Y-115320380D02*
X118625809Y-114320380D01*
X118530571Y-114463238D01*
X118435333Y-114558476D01*
X118340095Y-114606095D01*
X119530571Y-114320380D02*
X119625809Y-114320380D01*
X119721047Y-114368000D01*
X119768666Y-114415619D01*
X119816285Y-114510857D01*
X119863904Y-114701333D01*
X119863904Y-114939428D01*
X119816285Y-115129904D01*
X119768666Y-115225142D01*
X119721047Y-115272761D01*
X119625809Y-115320380D01*
X119530571Y-115320380D01*
X119435333Y-115272761D01*
X119387714Y-115225142D01*
X119340095Y-115129904D01*
X119292476Y-114939428D01*
X119292476Y-114701333D01*
X119340095Y-114510857D01*
X119387714Y-114415619D01*
X119435333Y-114368000D01*
X119530571Y-114320380D01*
G04 #@! TO.C,JP1*
X112704666Y-121626380D02*
X112704666Y-122340666D01*
X112657047Y-122483523D01*
X112561809Y-122578761D01*
X112418952Y-122626380D01*
X112323714Y-122626380D01*
X113180857Y-122626380D02*
X113180857Y-121626380D01*
X113561809Y-121626380D01*
X113657047Y-121674000D01*
X113704666Y-121721619D01*
X113752285Y-121816857D01*
X113752285Y-121959714D01*
X113704666Y-122054952D01*
X113657047Y-122102571D01*
X113561809Y-122150190D01*
X113180857Y-122150190D01*
X114704666Y-122626380D02*
X114133238Y-122626380D01*
X114418952Y-122626380D02*
X114418952Y-121626380D01*
X114323714Y-121769238D01*
X114228476Y-121864476D01*
X114133238Y-121912095D01*
G04 #@! TO.C,R33*
X118026143Y-126951381D02*
X117692810Y-126475191D01*
X117454715Y-126951381D02*
X117454715Y-125951381D01*
X117835667Y-125951381D01*
X117930905Y-125999001D01*
X117978524Y-126046620D01*
X118026143Y-126141858D01*
X118026143Y-126284715D01*
X117978524Y-126379953D01*
X117930905Y-126427572D01*
X117835667Y-126475191D01*
X117454715Y-126475191D01*
X118359477Y-125951381D02*
X118978524Y-125951381D01*
X118645191Y-126332334D01*
X118788048Y-126332334D01*
X118883286Y-126379953D01*
X118930905Y-126427572D01*
X118978524Y-126522810D01*
X118978524Y-126760905D01*
X118930905Y-126856143D01*
X118883286Y-126903762D01*
X118788048Y-126951381D01*
X118502334Y-126951381D01*
X118407096Y-126903762D01*
X118359477Y-126856143D01*
X119311858Y-125951381D02*
X119930905Y-125951381D01*
X119597572Y-126332334D01*
X119740429Y-126332334D01*
X119835667Y-126379953D01*
X119883286Y-126427572D01*
X119930905Y-126522810D01*
X119930905Y-126760905D01*
X119883286Y-126856143D01*
X119835667Y-126903762D01*
X119740429Y-126951381D01*
X119454715Y-126951381D01*
X119359477Y-126903762D01*
X119311858Y-126856143D01*
G04 #@! TO.C,R34*
X117975142Y-129738380D02*
X117641809Y-129262190D01*
X117403714Y-129738380D02*
X117403714Y-128738380D01*
X117784666Y-128738380D01*
X117879904Y-128786000D01*
X117927523Y-128833619D01*
X117975142Y-128928857D01*
X117975142Y-129071714D01*
X117927523Y-129166952D01*
X117879904Y-129214571D01*
X117784666Y-129262190D01*
X117403714Y-129262190D01*
X118308476Y-128738380D02*
X118927523Y-128738380D01*
X118594190Y-129119333D01*
X118737047Y-129119333D01*
X118832285Y-129166952D01*
X118879904Y-129214571D01*
X118927523Y-129309809D01*
X118927523Y-129547904D01*
X118879904Y-129643142D01*
X118832285Y-129690761D01*
X118737047Y-129738380D01*
X118451333Y-129738380D01*
X118356095Y-129690761D01*
X118308476Y-129643142D01*
X119784666Y-129071714D02*
X119784666Y-129738380D01*
X119546571Y-128690761D02*
X119308476Y-129405047D01*
X119927523Y-129405047D01*
G04 #@! TO.C,U3*
X126746095Y-133608380D02*
X126746095Y-134417904D01*
X126793714Y-134513142D01*
X126841333Y-134560761D01*
X126936571Y-134608380D01*
X127127047Y-134608380D01*
X127222285Y-134560761D01*
X127269904Y-134513142D01*
X127317523Y-134417904D01*
X127317523Y-133608380D01*
X127698476Y-133608380D02*
X128317523Y-133608380D01*
X127984190Y-133989333D01*
X128127047Y-133989333D01*
X128222285Y-134036952D01*
X128269904Y-134084571D01*
X128317523Y-134179809D01*
X128317523Y-134417904D01*
X128269904Y-134513142D01*
X128222285Y-134560761D01*
X128127047Y-134608380D01*
X127841333Y-134608380D01*
X127746095Y-134560761D01*
X127698476Y-134513142D01*
G04 #@! TO.C,TP1*
X99068095Y-74670380D02*
X99639523Y-74670380D01*
X99353809Y-75670380D02*
X99353809Y-74670380D01*
X99972857Y-75670380D02*
X99972857Y-74670380D01*
X100353809Y-74670380D01*
X100449047Y-74718000D01*
X100496666Y-74765619D01*
X100544285Y-74860857D01*
X100544285Y-75003714D01*
X100496666Y-75098952D01*
X100449047Y-75146571D01*
X100353809Y-75194190D01*
X99972857Y-75194190D01*
X101496666Y-75670380D02*
X100925238Y-75670380D01*
X101210952Y-75670380D02*
X101210952Y-74670380D01*
X101115714Y-74813238D01*
X101020476Y-74908476D01*
X100925238Y-74956095D01*
G04 #@! TO.C,TP2*
X112276095Y-111754380D02*
X112847523Y-111754380D01*
X112561809Y-112754380D02*
X112561809Y-111754380D01*
X113180857Y-112754380D02*
X113180857Y-111754380D01*
X113561809Y-111754380D01*
X113657047Y-111802000D01*
X113704666Y-111849619D01*
X113752285Y-111944857D01*
X113752285Y-112087714D01*
X113704666Y-112182952D01*
X113657047Y-112230571D01*
X113561809Y-112278190D01*
X113180857Y-112278190D01*
X114133238Y-111849619D02*
X114180857Y-111802000D01*
X114276095Y-111754380D01*
X114514190Y-111754380D01*
X114609428Y-111802000D01*
X114657047Y-111849619D01*
X114704666Y-111944857D01*
X114704666Y-112040095D01*
X114657047Y-112182952D01*
X114085619Y-112754380D01*
X114704666Y-112754380D01*
G04 #@! TO.C,TP3*
X116848095Y-85592380D02*
X117419523Y-85592380D01*
X117133809Y-86592380D02*
X117133809Y-85592380D01*
X117752857Y-86592380D02*
X117752857Y-85592380D01*
X118133809Y-85592380D01*
X118229047Y-85640000D01*
X118276666Y-85687619D01*
X118324285Y-85782857D01*
X118324285Y-85925714D01*
X118276666Y-86020952D01*
X118229047Y-86068571D01*
X118133809Y-86116190D01*
X117752857Y-86116190D01*
X118657619Y-85592380D02*
X119276666Y-85592380D01*
X118943333Y-85973333D01*
X119086190Y-85973333D01*
X119181428Y-86020952D01*
X119229047Y-86068571D01*
X119276666Y-86163809D01*
X119276666Y-86401904D01*
X119229047Y-86497142D01*
X119181428Y-86544761D01*
X119086190Y-86592380D01*
X118800476Y-86592380D01*
X118705238Y-86544761D01*
X118657619Y-86497142D01*
G04 #@! TO.C,TP4*
X113292095Y-105658380D02*
X113863523Y-105658380D01*
X113577809Y-106658380D02*
X113577809Y-105658380D01*
X114196857Y-106658380D02*
X114196857Y-105658380D01*
X114577809Y-105658380D01*
X114673047Y-105706000D01*
X114720666Y-105753619D01*
X114768285Y-105848857D01*
X114768285Y-105991714D01*
X114720666Y-106086952D01*
X114673047Y-106134571D01*
X114577809Y-106182190D01*
X114196857Y-106182190D01*
X115625428Y-105991714D02*
X115625428Y-106658380D01*
X115387333Y-105610761D02*
X115149238Y-106325047D01*
X115768285Y-106325047D01*
G04 #@! TO.C,REF\002A\002A*
X150812666Y-53148380D02*
X150479333Y-52672190D01*
X150241238Y-53148380D02*
X150241238Y-52148380D01*
X150622190Y-52148380D01*
X150717428Y-52196000D01*
X150765047Y-52243619D01*
X150812666Y-52338857D01*
X150812666Y-52481714D01*
X150765047Y-52576952D01*
X150717428Y-52624571D01*
X150622190Y-52672190D01*
X150241238Y-52672190D01*
X151241238Y-52624571D02*
X151574571Y-52624571D01*
X151717428Y-53148380D02*
X151241238Y-53148380D01*
X151241238Y-52148380D01*
X151717428Y-52148380D01*
X152479333Y-52624571D02*
X152146000Y-52624571D01*
X152146000Y-53148380D02*
X152146000Y-52148380D01*
X152622190Y-52148380D01*
X153146000Y-52148380D02*
X153146000Y-52386476D01*
X152907904Y-52291238D02*
X153146000Y-52386476D01*
X153384095Y-52291238D01*
X153003142Y-52576952D02*
X153146000Y-52386476D01*
X153288857Y-52576952D01*
X153907904Y-52148380D02*
X153907904Y-52386476D01*
X153669809Y-52291238D02*
X153907904Y-52386476D01*
X154146000Y-52291238D01*
X153765047Y-52576952D02*
X153907904Y-52386476D01*
X154050761Y-52576952D01*
G04 #@! TO.C,C11*
X118334143Y-133954143D02*
X118286524Y-134001762D01*
X118143667Y-134049381D01*
X118048429Y-134049381D01*
X117905572Y-134001762D01*
X117810334Y-133906524D01*
X117762715Y-133811286D01*
X117715096Y-133620810D01*
X117715096Y-133477953D01*
X117762715Y-133287477D01*
X117810334Y-133192239D01*
X117905572Y-133097001D01*
X118048429Y-133049381D01*
X118143667Y-133049381D01*
X118286524Y-133097001D01*
X118334143Y-133144620D01*
X119286524Y-134049381D02*
X118715096Y-134049381D01*
X119000810Y-134049381D02*
X119000810Y-133049381D01*
X118905572Y-133192239D01*
X118810334Y-133287477D01*
X118715096Y-133335096D01*
X120238905Y-134049381D02*
X119667477Y-134049381D01*
X119953191Y-134049381D02*
X119953191Y-133049381D01*
X119857953Y-133192239D01*
X119762715Y-133287477D01*
X119667477Y-133335096D01*
G04 #@! TO.C,C15*
X133728141Y-128509858D02*
X133775760Y-128557477D01*
X133823379Y-128700334D01*
X133823379Y-128795572D01*
X133775760Y-128938429D01*
X133680522Y-129033667D01*
X133585284Y-129081286D01*
X133394808Y-129128905D01*
X133251951Y-129128905D01*
X133061475Y-129081286D01*
X132966237Y-129033667D01*
X132870999Y-128938429D01*
X132823379Y-128795572D01*
X132823379Y-128700334D01*
X132870999Y-128557477D01*
X132918618Y-128509858D01*
X133823379Y-127557477D02*
X133823379Y-128128905D01*
X133823379Y-127843191D02*
X132823379Y-127843191D01*
X132966237Y-127938429D01*
X133061475Y-128033667D01*
X133109094Y-128128905D01*
X132823379Y-126652715D02*
X132823379Y-127128905D01*
X133299570Y-127176524D01*
X133251951Y-127128905D01*
X133204332Y-127033667D01*
X133204332Y-126795572D01*
X133251951Y-126700334D01*
X133299570Y-126652715D01*
X133394808Y-126605096D01*
X133632903Y-126605096D01*
X133728141Y-126652715D01*
X133775760Y-126700334D01*
X133823379Y-126795572D01*
X133823379Y-127033667D01*
X133775760Y-127128905D01*
X133728141Y-127176524D01*
G04 #@! TO.C,J1*
X114260380Y-43513333D02*
X114974666Y-43513333D01*
X115117523Y-43560952D01*
X115212761Y-43656190D01*
X115260380Y-43799047D01*
X115260380Y-43894285D01*
X115260380Y-42513333D02*
X115260380Y-43084761D01*
X115260380Y-42799047D02*
X114260380Y-42799047D01*
X114403238Y-42894285D01*
X114498476Y-42989523D01*
X114546095Y-43084761D01*
G04 #@! TO.C,J2*
X134580380Y-43513333D02*
X135294666Y-43513333D01*
X135437523Y-43560952D01*
X135532761Y-43656190D01*
X135580380Y-43799047D01*
X135580380Y-43894285D01*
X134675619Y-43084761D02*
X134628000Y-43037142D01*
X134580380Y-42941904D01*
X134580380Y-42703809D01*
X134628000Y-42608571D01*
X134675619Y-42560952D01*
X134770857Y-42513333D01*
X134866095Y-42513333D01*
X135008952Y-42560952D01*
X135580380Y-43132380D01*
X135580380Y-42513333D01*
G04 #@! TO.C,J3*
X124420380Y-43513333D02*
X125134666Y-43513333D01*
X125277523Y-43560952D01*
X125372761Y-43656190D01*
X125420380Y-43799047D01*
X125420380Y-43894285D01*
X124420380Y-43132380D02*
X124420380Y-42513333D01*
X124801333Y-42846666D01*
X124801333Y-42703809D01*
X124848952Y-42608571D01*
X124896571Y-42560952D01*
X124991809Y-42513333D01*
X125229904Y-42513333D01*
X125325142Y-42560952D01*
X125372761Y-42608571D01*
X125420380Y-42703809D01*
X125420380Y-42989523D01*
X125372761Y-43084761D01*
X125325142Y-43132380D01*
G04 #@! TO.C,J5*
X124122380Y-137493333D02*
X124836666Y-137493333D01*
X124979523Y-137540952D01*
X125074761Y-137636190D01*
X125122380Y-137779047D01*
X125122380Y-137874285D01*
X124122380Y-136540952D02*
X124122380Y-137017142D01*
X124598571Y-137064761D01*
X124550952Y-137017142D01*
X124503333Y-136921904D01*
X124503333Y-136683809D01*
X124550952Y-136588571D01*
X124598571Y-136540952D01*
X124693809Y-136493333D01*
X124931904Y-136493333D01*
X125027142Y-136540952D01*
X125074761Y-136588571D01*
X125122380Y-136683809D01*
X125122380Y-136921904D01*
X125074761Y-137017142D01*
X125027142Y-137064761D01*
G04 #@! TO.C,J6*
X113962380Y-137493333D02*
X114676666Y-137493333D01*
X114819523Y-137540952D01*
X114914761Y-137636190D01*
X114962380Y-137779047D01*
X114962380Y-137874285D01*
X113962380Y-136588571D02*
X113962380Y-136779047D01*
X114010000Y-136874285D01*
X114057619Y-136921904D01*
X114200476Y-137017142D01*
X114390952Y-137064761D01*
X114771904Y-137064761D01*
X114867142Y-137017142D01*
X114914761Y-136969523D01*
X114962380Y-136874285D01*
X114962380Y-136683809D01*
X114914761Y-136588571D01*
X114867142Y-136540952D01*
X114771904Y-136493333D01*
X114533809Y-136493333D01*
X114438571Y-136540952D01*
X114390952Y-136588571D01*
X114343333Y-136683809D01*
X114343333Y-136874285D01*
X114390952Y-136969523D01*
X114438571Y-137017142D01*
X114533809Y-137064761D01*
G04 #@! TD*
M02*
