M48
;DRILL file {KiCad (5.0.0-3-g5ebb6b6)} date Thursday 25 April 2019 19:55:19
;FORMAT={-:-/ absolute / metric / decimal}
FMAT,2
METRIC,TZ
T1C0.400
T2C0.800
T3C1.000
T4C1.100
T5C1.200
T6C3.200
%
G90
G05
M71
T1
X107.188Y-81.534
X129.286Y-65.024
T2
X113.03Y-124.968
X120.65Y-124.968
X94.996Y-100.838
X94.996Y-108.458
X116.586Y-55.626
X116.586Y-63.246
X119.126Y-55.626
X119.126Y-63.246
X121.666Y-55.626
X121.666Y-63.246
X124.206Y-55.626
X124.206Y-63.246
X126.746Y-55.626
X126.746Y-63.246
X129.286Y-55.626
X129.286Y-63.246
X131.826Y-55.626
X131.826Y-63.246
X138.906Y-131.244
X146.526Y-131.244
X104.394Y-72.39
X112.014Y-72.39
X115.824Y-91.186
X115.824Y-96.186
X123.19Y-50.8
X130.81Y-50.8
X95.504Y-75.946
X95.504Y-83.566
X113.03Y-128.016
X120.65Y-128.016
X138.906Y-137.34
X146.526Y-137.34
X89.916Y-121.666
X91.916Y-121.666
X136.906Y-55.372
X144.526Y-55.372
X144.78Y-75.946
X152.4Y-75.946
X138.906Y-134.292
X146.526Y-134.292
X105.49Y-64.008
X110.49Y-64.008
X103.378Y-103.632
X110.998Y-103.632
X136.906Y-61.468
X144.526Y-61.468
X112.776Y-50.8
X120.396Y-50.8
X99.314Y-100.076
X99.314Y-105.076
X138.906Y-125.222
X146.526Y-125.222
X116.332Y-77.47
X116.332Y-85.09
X150.876Y-97.79
X150.876Y-105.41
X99.314Y-65.278
X99.314Y-72.898
X101.6Y-47.498
X109.22Y-47.498
X95.504Y-86.36
X95.504Y-93.98
X123.19Y-47.752
X130.81Y-47.752
X136.906Y-67.564
X144.526Y-67.564
X136.906Y-70.612
X144.526Y-70.612
X135.128Y-124.032
X135.128Y-129.032
X113.364Y-67.31
X118.364Y-67.31
X99.314Y-127.
X101.314Y-127.
X138.906Y-128.196
X146.526Y-128.196
X135.382Y-118.364
X137.382Y-118.364
X117.602Y-118.618
X119.602Y-118.618
X99.06Y-50.292
X99.06Y-57.912
X146.05Y-86.36
X146.05Y-93.98
X144.018Y-43.5
X146.018Y-43.5
X104.14Y-78.74
X104.14Y-81.28
X104.14Y-83.82
X104.14Y-86.36
X104.14Y-88.9
X104.14Y-91.44
X104.14Y-93.98
X104.14Y-96.52
X104.14Y-99.06
X111.76Y-78.74
X111.76Y-81.28
X111.76Y-83.82
X111.76Y-86.36
X111.76Y-88.9
X111.76Y-91.44
X111.76Y-93.98
X111.76Y-96.52
X111.76Y-99.06
X112.776Y-47.498
X120.396Y-47.498
X100.076Y-91.266
X100.076Y-96.266
X95.504Y-65.278
X95.504Y-72.898
X136.906Y-64.516
X144.526Y-64.516
X144.78Y-78.994
X152.4Y-78.994
X123.698Y-124.206
X123.698Y-126.746
X123.698Y-129.286
X123.698Y-131.826
X131.318Y-124.206
X131.318Y-126.746
X131.318Y-129.286
X131.318Y-131.826
X102.87Y-110.744
X110.49Y-110.744
X136.906Y-58.42
X144.526Y-58.42
X95.758Y-50.292
X95.758Y-57.912
X94.488Y-61.468
X102.108Y-61.468
X115.396Y-131.826
X120.396Y-131.826
X105.49Y-55.372
X110.49Y-55.372
X105.49Y-59.69
X110.49Y-59.69
X99.06Y-109.982
X99.06Y-117.602
X136.906Y-52.324
X144.526Y-52.324
X105.41Y-68.326
X110.41Y-68.326
X102.87Y-107.442
X110.49Y-107.442
X144.78Y-82.042
X152.4Y-82.042
T3
X91.44Y-45.72
X91.44Y-48.26
X91.44Y-50.8
X91.44Y-53.34
X91.44Y-55.88
X91.44Y-58.42
X91.44Y-60.96
X91.44Y-63.5
X91.44Y-66.04
X114.554Y-108.204
X150.749Y-65.278
X150.749Y-67.778
X150.749Y-70.278
X137.16Y-43.18
X139.7Y-43.18
X150.749Y-109.728
X150.749Y-112.228
X150.749Y-114.728
X100.33Y-77.216
X150.876Y-43.053
X150.876Y-45.553
X150.876Y-48.053
X127.Y-43.18
X129.54Y-43.18
X91.44Y-96.52
X91.44Y-99.06
X91.44Y-101.6
X91.44Y-104.14
X91.44Y-106.68
X91.44Y-109.22
X91.44Y-111.76
X91.44Y-114.3
X91.44Y-116.84
X113.538Y-117.856
X113.538Y-120.396
X116.84Y-137.16
X119.38Y-137.16
X150.749Y-87.503
X150.749Y-90.003
X150.749Y-92.503
X118.11Y-88.138
X96.52Y-43.18
X99.06Y-43.18
X101.6Y-43.18
X104.14Y-43.18
X106.68Y-43.18
X109.22Y-43.18
X116.84Y-43.18
X119.38Y-43.18
X91.44Y-127.
X91.44Y-129.54
X91.44Y-132.08
X91.44Y-134.62
X91.44Y-137.16
X93.98Y-127.
X93.98Y-129.54
X93.98Y-132.08
X93.98Y-134.62
X93.98Y-137.16
X150.876Y-131.953
X150.876Y-134.453
X150.876Y-136.953
X113.538Y-114.3
X127.Y-137.16
X129.54Y-137.16
X91.44Y-71.12
X91.44Y-73.66
X91.44Y-76.2
X91.44Y-78.74
X91.44Y-81.28
X91.44Y-83.82
X91.44Y-86.36
X91.44Y-88.9
X91.44Y-91.44
T4
X99.187Y-133.858
X106.807Y-133.858
X99.187Y-137.16
X106.807Y-137.16
T5
X121.92Y-74.93
X121.92Y-77.47
X121.92Y-80.01
X121.92Y-82.55
X121.92Y-85.09
X121.92Y-87.63
X121.92Y-90.17
X121.92Y-92.71
X121.92Y-95.25
X121.92Y-97.79
X121.92Y-100.33
X121.92Y-102.87
X121.92Y-105.41
X121.92Y-107.95
X121.92Y-110.49
X121.92Y-113.03
X124.46Y-74.93
X124.46Y-77.47
X124.46Y-80.01
X124.46Y-82.55
X124.46Y-85.09
X124.46Y-87.63
X124.46Y-90.17
X124.46Y-92.71
X124.46Y-95.25
X124.46Y-97.79
X124.46Y-100.33
X124.46Y-102.87
X124.46Y-105.41
X124.46Y-107.95
X124.46Y-110.49
X124.46Y-113.03
X127.Y-74.93
X127.Y-77.47
X127.Y-80.01
X127.Y-82.55
X127.Y-85.09
X127.Y-87.63
X127.Y-90.17
X127.Y-92.71
X127.Y-95.25
X127.Y-97.79
X127.Y-100.33
X127.Y-102.87
X127.Y-105.41
X127.Y-107.95
X127.Y-110.49
X127.Y-113.03
X129.54Y-74.93
X129.54Y-77.47
X129.54Y-80.01
X129.54Y-82.55
X129.54Y-85.09
X129.54Y-87.63
X129.54Y-90.17
X129.54Y-92.71
X129.54Y-95.25
X129.54Y-97.79
X129.54Y-100.33
X129.54Y-102.87
X129.54Y-105.41
X129.54Y-107.95
X129.54Y-110.49
X129.54Y-113.03
X132.08Y-74.93
X132.08Y-77.47
X132.08Y-80.01
X132.08Y-82.55
X132.08Y-85.09
X132.08Y-87.63
X132.08Y-90.17
X132.08Y-92.71
X132.08Y-95.25
X132.08Y-97.79
X132.08Y-100.33
X132.08Y-102.87
X132.08Y-105.41
X132.08Y-107.95
X132.08Y-110.49
X132.08Y-113.03
X134.62Y-74.93
X134.62Y-77.47
X134.62Y-80.01
X134.62Y-82.55
X134.62Y-85.09
X134.62Y-87.63
X134.62Y-90.17
X134.62Y-92.71
X134.62Y-95.25
X134.62Y-97.79
X134.62Y-100.33
X134.62Y-102.87
X134.62Y-105.41
X134.62Y-107.95
X134.62Y-110.49
X134.62Y-113.03
X137.16Y-74.93
X137.16Y-77.47
X137.16Y-80.01
X137.16Y-82.55
X137.16Y-85.09
X137.16Y-87.63
X137.16Y-90.17
X137.16Y-92.71
X137.16Y-95.25
X137.16Y-97.79
X137.16Y-100.33
X137.16Y-102.87
X137.16Y-105.41
X137.16Y-107.95
X137.16Y-110.49
X137.16Y-113.03
T6
X152.146Y-123.444
X152.146Y-56.896
T0
M30
