G04 #@! TF.GenerationSoftware,KiCad,Pcbnew,(5.0.0-3-g5ebb6b6)*
G04 #@! TF.CreationDate,2019-04-25T18:54:20+02:00*
G04 #@! TF.ProjectId,minidrum-77,6D696E696472756D2D37372E6B696361,rev?*
G04 #@! TF.SameCoordinates,Original*
G04 #@! TF.FileFunction,Legend,Bot*
G04 #@! TF.FilePolarity,Positive*
%FSLAX46Y46*%
G04 Gerber Fmt 4.6, Leading zero omitted, Abs format (unit mm)*
G04 Created by KiCad (PCBNEW (5.0.0-3-g5ebb6b6)) date Thursday 25 April 2019 18:54:20*
%MOMM*%
%LPD*%
G01*
G04 APERTURE LIST*
%ADD10C,0.150000*%
%ADD11C,0.120000*%
G04 APERTURE END LIST*
D10*
G04 #@! TO.C,SW3*
X127508000Y-131318000D02*
X127508000Y-123952000D01*
X142367000Y-131318000D02*
X127508000Y-131318000D01*
X142367000Y-123952000D02*
X142367000Y-131318000D01*
X127508000Y-123952000D02*
X142367000Y-123952000D01*
G04 #@! TO.C,SW7*
X127508000Y-106934000D02*
X127508000Y-99568000D01*
X142367000Y-106934000D02*
X127508000Y-106934000D01*
X142367000Y-99568000D02*
X142367000Y-106934000D01*
X127508000Y-99568000D02*
X142367000Y-99568000D01*
D11*
G04 #@! TO.C,D2*
X148738335Y-56323608D02*
G75*
G02X145506000Y-56480516I-1672335J1078608D01*
G01*
X148738335Y-54166392D02*
G75*
G03X145506000Y-54009484I-1672335J-1078608D01*
G01*
X148107130Y-56324837D02*
G75*
G02X146025039Y-56325000I-1041130J1079837D01*
G01*
X148107130Y-54165163D02*
G75*
G03X146025039Y-54165000I-1041130J-1079837D01*
G01*
X145506000Y-56481000D02*
X145506000Y-56325000D01*
X145506000Y-54165000D02*
X145506000Y-54009000D01*
D10*
G04 #@! TO.C,J1*
X153416000Y-64643000D02*
X163576000Y-64643000D01*
X163576000Y-64643000D02*
X163576000Y-53213000D01*
X163576000Y-53213000D02*
X153416000Y-53213000D01*
X153416000Y-53213000D02*
X153416000Y-64643000D01*
X162088102Y-58293000D02*
G75*
G03X162088102Y-58293000I-3592102J0D01*
G01*
G04 #@! TO.C,J2*
X162088102Y-149352000D02*
G75*
G03X162088102Y-149352000I-3592102J0D01*
G01*
X163576000Y-154432000D02*
X163576000Y-143002000D01*
X153416000Y-154432000D02*
X163576000Y-154432000D01*
X153416000Y-143002000D02*
X153416000Y-154432000D01*
X163576000Y-143002000D02*
X153416000Y-143002000D01*
G04 #@! TO.C,J3*
X130429000Y-64643000D02*
X140589000Y-64643000D01*
X140589000Y-64643000D02*
X140589000Y-53213000D01*
X140589000Y-53213000D02*
X130429000Y-53213000D01*
X130429000Y-53213000D02*
X130429000Y-64643000D01*
X139101102Y-58293000D02*
G75*
G03X139101102Y-58293000I-3592102J0D01*
G01*
G04 #@! TO.C,SW2*
X127508000Y-82550000D02*
X127508000Y-75184000D01*
X142367000Y-82550000D02*
X127508000Y-82550000D01*
X142367000Y-75184000D02*
X142367000Y-82550000D01*
X127508000Y-75184000D02*
X142367000Y-75184000D01*
G04 #@! TO.C,SW4*
X127508000Y-91440000D02*
X142367000Y-91440000D01*
X142367000Y-91440000D02*
X142367000Y-98806000D01*
X142367000Y-98806000D02*
X127508000Y-98806000D01*
X127508000Y-98806000D02*
X127508000Y-91440000D01*
G04 #@! TO.C,SW5*
X127508000Y-90678000D02*
X127508000Y-83312000D01*
X142367000Y-90678000D02*
X127508000Y-90678000D01*
X142367000Y-83312000D02*
X142367000Y-90678000D01*
X127508000Y-83312000D02*
X142367000Y-83312000D01*
G04 #@! TO.C,SW6*
X127508000Y-107696000D02*
X142367000Y-107696000D01*
X142367000Y-107696000D02*
X142367000Y-115062000D01*
X142367000Y-115062000D02*
X127508000Y-115062000D01*
X127508000Y-115062000D02*
X127508000Y-107696000D01*
G04 #@! TO.C,SW8*
X127508000Y-115824000D02*
X142367000Y-115824000D01*
X142367000Y-115824000D02*
X142367000Y-123190000D01*
X142367000Y-123190000D02*
X127508000Y-123190000D01*
X127508000Y-123190000D02*
X127508000Y-115824000D01*
D11*
G04 #@! TO.C,R5*
X129639000Y-142358000D02*
X129639000Y-146295000D01*
X129639000Y-150662000D02*
X129639000Y-154598000D01*
X139680000Y-142358000D02*
X139680000Y-146295000D01*
X139680000Y-150662000D02*
X139680000Y-154598000D01*
X129639000Y-142358000D02*
X131289000Y-142358000D01*
X133031000Y-142358000D02*
X133790000Y-142358000D01*
X135531000Y-142358000D02*
X136290000Y-142358000D01*
X138030000Y-142358000D02*
X139680000Y-142358000D01*
X129639000Y-154598000D02*
X139680000Y-154598000D01*
D10*
G04 #@! TO.C,SW1*
X142367000Y-67056000D02*
X142367000Y-74422000D01*
X127508000Y-67056000D02*
X142367000Y-67056000D01*
X127508000Y-74422000D02*
X127508000Y-67056000D01*
X142367000Y-74422000D02*
X127508000Y-74422000D01*
G04 #@! TO.C,SW9*
X127508000Y-132080000D02*
X142367000Y-132080000D01*
X142367000Y-132080000D02*
X142367000Y-139446000D01*
X142367000Y-139446000D02*
X127508000Y-139446000D01*
X127508000Y-139446000D02*
X127508000Y-132080000D01*
G04 #@! TO.C,SW3*
X145438761Y-127698666D02*
X145486380Y-127841523D01*
X145486380Y-128079619D01*
X145438761Y-128174857D01*
X145391142Y-128222476D01*
X145295904Y-128270095D01*
X145200666Y-128270095D01*
X145105428Y-128222476D01*
X145057809Y-128174857D01*
X145010190Y-128079619D01*
X144962571Y-127889142D01*
X144914952Y-127793904D01*
X144867333Y-127746285D01*
X144772095Y-127698666D01*
X144676857Y-127698666D01*
X144581619Y-127746285D01*
X144534000Y-127793904D01*
X144486380Y-127889142D01*
X144486380Y-128127238D01*
X144534000Y-128270095D01*
X144486380Y-128603428D02*
X145486380Y-128841523D01*
X144772095Y-129032000D01*
X145486380Y-129222476D01*
X144486380Y-129460571D01*
X144486380Y-129746285D02*
X144486380Y-130365333D01*
X144867333Y-130032000D01*
X144867333Y-130174857D01*
X144914952Y-130270095D01*
X144962571Y-130317714D01*
X145057809Y-130365333D01*
X145295904Y-130365333D01*
X145391142Y-130317714D01*
X145438761Y-130270095D01*
X145486380Y-130174857D01*
X145486380Y-129889142D01*
X145438761Y-129793904D01*
X145391142Y-129746285D01*
G04 #@! TO.C,SW7*
X145438761Y-103314666D02*
X145486380Y-103457523D01*
X145486380Y-103695619D01*
X145438761Y-103790857D01*
X145391142Y-103838476D01*
X145295904Y-103886095D01*
X145200666Y-103886095D01*
X145105428Y-103838476D01*
X145057809Y-103790857D01*
X145010190Y-103695619D01*
X144962571Y-103505142D01*
X144914952Y-103409904D01*
X144867333Y-103362285D01*
X144772095Y-103314666D01*
X144676857Y-103314666D01*
X144581619Y-103362285D01*
X144534000Y-103409904D01*
X144486380Y-103505142D01*
X144486380Y-103743238D01*
X144534000Y-103886095D01*
X144486380Y-104219428D02*
X145486380Y-104457523D01*
X144772095Y-104648000D01*
X145486380Y-104838476D01*
X144486380Y-105076571D01*
X144486380Y-105362285D02*
X144486380Y-106028952D01*
X145486380Y-105600380D01*
G04 #@! TO.C,D2*
X149328095Y-57475380D02*
X149328095Y-56475380D01*
X149090000Y-56475380D01*
X148947142Y-56523000D01*
X148851904Y-56618238D01*
X148804285Y-56713476D01*
X148756666Y-56903952D01*
X148756666Y-57046809D01*
X148804285Y-57237285D01*
X148851904Y-57332523D01*
X148947142Y-57427761D01*
X149090000Y-57475380D01*
X149328095Y-57475380D01*
X148375714Y-56570619D02*
X148328095Y-56523000D01*
X148232857Y-56475380D01*
X147994761Y-56475380D01*
X147899523Y-56523000D01*
X147851904Y-56570619D01*
X147804285Y-56665857D01*
X147804285Y-56761095D01*
X147851904Y-56903952D01*
X148423333Y-57475380D01*
X147804285Y-57475380D01*
G04 #@! TO.C,J1*
X165179333Y-52665380D02*
X165179333Y-53379666D01*
X165226952Y-53522523D01*
X165322190Y-53617761D01*
X165465047Y-53665380D01*
X165560285Y-53665380D01*
X164179333Y-53665380D02*
X164750761Y-53665380D01*
X164465047Y-53665380D02*
X164465047Y-52665380D01*
X164560285Y-52808238D01*
X164655523Y-52903476D01*
X164750761Y-52951095D01*
G04 #@! TO.C,J2*
X152479333Y-142454380D02*
X152479333Y-143168666D01*
X152526952Y-143311523D01*
X152622190Y-143406761D01*
X152765047Y-143454380D01*
X152860285Y-143454380D01*
X152050761Y-142549619D02*
X152003142Y-142502000D01*
X151907904Y-142454380D01*
X151669809Y-142454380D01*
X151574571Y-142502000D01*
X151526952Y-142549619D01*
X151479333Y-142644857D01*
X151479333Y-142740095D01*
X151526952Y-142882952D01*
X152098380Y-143454380D01*
X151479333Y-143454380D01*
G04 #@! TO.C,J3*
X139652333Y-62825380D02*
X139652333Y-63539666D01*
X139699952Y-63682523D01*
X139795190Y-63777761D01*
X139938047Y-63825380D01*
X140033285Y-63825380D01*
X139271380Y-62825380D02*
X138652333Y-62825380D01*
X138985666Y-63206333D01*
X138842809Y-63206333D01*
X138747571Y-63253952D01*
X138699952Y-63301571D01*
X138652333Y-63396809D01*
X138652333Y-63634904D01*
X138699952Y-63730142D01*
X138747571Y-63777761D01*
X138842809Y-63825380D01*
X139128523Y-63825380D01*
X139223761Y-63777761D01*
X139271380Y-63730142D01*
G04 #@! TO.C,SW2*
X145438761Y-78930666D02*
X145486380Y-79073523D01*
X145486380Y-79311619D01*
X145438761Y-79406857D01*
X145391142Y-79454476D01*
X145295904Y-79502095D01*
X145200666Y-79502095D01*
X145105428Y-79454476D01*
X145057809Y-79406857D01*
X145010190Y-79311619D01*
X144962571Y-79121142D01*
X144914952Y-79025904D01*
X144867333Y-78978285D01*
X144772095Y-78930666D01*
X144676857Y-78930666D01*
X144581619Y-78978285D01*
X144534000Y-79025904D01*
X144486380Y-79121142D01*
X144486380Y-79359238D01*
X144534000Y-79502095D01*
X144486380Y-79835428D02*
X145486380Y-80073523D01*
X144772095Y-80264000D01*
X145486380Y-80454476D01*
X144486380Y-80692571D01*
X144581619Y-81025904D02*
X144534000Y-81073523D01*
X144486380Y-81168761D01*
X144486380Y-81406857D01*
X144534000Y-81502095D01*
X144581619Y-81549714D01*
X144676857Y-81597333D01*
X144772095Y-81597333D01*
X144914952Y-81549714D01*
X145486380Y-80978285D01*
X145486380Y-81597333D01*
G04 #@! TO.C,SW4*
X145438761Y-95186666D02*
X145486380Y-95329523D01*
X145486380Y-95567619D01*
X145438761Y-95662857D01*
X145391142Y-95710476D01*
X145295904Y-95758095D01*
X145200666Y-95758095D01*
X145105428Y-95710476D01*
X145057809Y-95662857D01*
X145010190Y-95567619D01*
X144962571Y-95377142D01*
X144914952Y-95281904D01*
X144867333Y-95234285D01*
X144772095Y-95186666D01*
X144676857Y-95186666D01*
X144581619Y-95234285D01*
X144534000Y-95281904D01*
X144486380Y-95377142D01*
X144486380Y-95615238D01*
X144534000Y-95758095D01*
X144486380Y-96091428D02*
X145486380Y-96329523D01*
X144772095Y-96520000D01*
X145486380Y-96710476D01*
X144486380Y-96948571D01*
X144819714Y-97758095D02*
X145486380Y-97758095D01*
X144438761Y-97520000D02*
X145153047Y-97281904D01*
X145153047Y-97900952D01*
G04 #@! TO.C,SW5*
X145438761Y-87058666D02*
X145486380Y-87201523D01*
X145486380Y-87439619D01*
X145438761Y-87534857D01*
X145391142Y-87582476D01*
X145295904Y-87630095D01*
X145200666Y-87630095D01*
X145105428Y-87582476D01*
X145057809Y-87534857D01*
X145010190Y-87439619D01*
X144962571Y-87249142D01*
X144914952Y-87153904D01*
X144867333Y-87106285D01*
X144772095Y-87058666D01*
X144676857Y-87058666D01*
X144581619Y-87106285D01*
X144534000Y-87153904D01*
X144486380Y-87249142D01*
X144486380Y-87487238D01*
X144534000Y-87630095D01*
X144486380Y-87963428D02*
X145486380Y-88201523D01*
X144772095Y-88392000D01*
X145486380Y-88582476D01*
X144486380Y-88820571D01*
X144486380Y-89677714D02*
X144486380Y-89201523D01*
X144962571Y-89153904D01*
X144914952Y-89201523D01*
X144867333Y-89296761D01*
X144867333Y-89534857D01*
X144914952Y-89630095D01*
X144962571Y-89677714D01*
X145057809Y-89725333D01*
X145295904Y-89725333D01*
X145391142Y-89677714D01*
X145438761Y-89630095D01*
X145486380Y-89534857D01*
X145486380Y-89296761D01*
X145438761Y-89201523D01*
X145391142Y-89153904D01*
G04 #@! TO.C,SW6*
X145438761Y-111442666D02*
X145486380Y-111585523D01*
X145486380Y-111823619D01*
X145438761Y-111918857D01*
X145391142Y-111966476D01*
X145295904Y-112014095D01*
X145200666Y-112014095D01*
X145105428Y-111966476D01*
X145057809Y-111918857D01*
X145010190Y-111823619D01*
X144962571Y-111633142D01*
X144914952Y-111537904D01*
X144867333Y-111490285D01*
X144772095Y-111442666D01*
X144676857Y-111442666D01*
X144581619Y-111490285D01*
X144534000Y-111537904D01*
X144486380Y-111633142D01*
X144486380Y-111871238D01*
X144534000Y-112014095D01*
X144486380Y-112347428D02*
X145486380Y-112585523D01*
X144772095Y-112776000D01*
X145486380Y-112966476D01*
X144486380Y-113204571D01*
X144486380Y-114014095D02*
X144486380Y-113823619D01*
X144534000Y-113728380D01*
X144581619Y-113680761D01*
X144724476Y-113585523D01*
X144914952Y-113537904D01*
X145295904Y-113537904D01*
X145391142Y-113585523D01*
X145438761Y-113633142D01*
X145486380Y-113728380D01*
X145486380Y-113918857D01*
X145438761Y-114014095D01*
X145391142Y-114061714D01*
X145295904Y-114109333D01*
X145057809Y-114109333D01*
X144962571Y-114061714D01*
X144914952Y-114014095D01*
X144867333Y-113918857D01*
X144867333Y-113728380D01*
X144914952Y-113633142D01*
X144962571Y-113585523D01*
X145057809Y-113537904D01*
G04 #@! TO.C,SW8*
X145438761Y-119570666D02*
X145486380Y-119713523D01*
X145486380Y-119951619D01*
X145438761Y-120046857D01*
X145391142Y-120094476D01*
X145295904Y-120142095D01*
X145200666Y-120142095D01*
X145105428Y-120094476D01*
X145057809Y-120046857D01*
X145010190Y-119951619D01*
X144962571Y-119761142D01*
X144914952Y-119665904D01*
X144867333Y-119618285D01*
X144772095Y-119570666D01*
X144676857Y-119570666D01*
X144581619Y-119618285D01*
X144534000Y-119665904D01*
X144486380Y-119761142D01*
X144486380Y-119999238D01*
X144534000Y-120142095D01*
X144486380Y-120475428D02*
X145486380Y-120713523D01*
X144772095Y-120904000D01*
X145486380Y-121094476D01*
X144486380Y-121332571D01*
X144914952Y-121856380D02*
X144867333Y-121761142D01*
X144819714Y-121713523D01*
X144724476Y-121665904D01*
X144676857Y-121665904D01*
X144581619Y-121713523D01*
X144534000Y-121761142D01*
X144486380Y-121856380D01*
X144486380Y-122046857D01*
X144534000Y-122142095D01*
X144581619Y-122189714D01*
X144676857Y-122237333D01*
X144724476Y-122237333D01*
X144819714Y-122189714D01*
X144867333Y-122142095D01*
X144914952Y-122046857D01*
X144914952Y-121856380D01*
X144962571Y-121761142D01*
X145010190Y-121713523D01*
X145105428Y-121665904D01*
X145295904Y-121665904D01*
X145391142Y-121713523D01*
X145438761Y-121761142D01*
X145486380Y-121856380D01*
X145486380Y-122046857D01*
X145438761Y-122142095D01*
X145391142Y-122189714D01*
X145295904Y-122237333D01*
X145105428Y-122237333D01*
X145010190Y-122189714D01*
X144962571Y-122142095D01*
X144914952Y-122046857D01*
G04 #@! TO.C,R5*
X139866666Y-141930380D02*
X140200000Y-141454190D01*
X140438095Y-141930380D02*
X140438095Y-140930380D01*
X140057142Y-140930380D01*
X139961904Y-140978000D01*
X139914285Y-141025619D01*
X139866666Y-141120857D01*
X139866666Y-141263714D01*
X139914285Y-141358952D01*
X139961904Y-141406571D01*
X140057142Y-141454190D01*
X140438095Y-141454190D01*
X138961904Y-140930380D02*
X139438095Y-140930380D01*
X139485714Y-141406571D01*
X139438095Y-141358952D01*
X139342857Y-141311333D01*
X139104761Y-141311333D01*
X139009523Y-141358952D01*
X138961904Y-141406571D01*
X138914285Y-141501809D01*
X138914285Y-141739904D01*
X138961904Y-141835142D01*
X139009523Y-141882761D01*
X139104761Y-141930380D01*
X139342857Y-141930380D01*
X139438095Y-141882761D01*
X139485714Y-141835142D01*
G04 #@! TO.C,SW1*
X145565761Y-71310666D02*
X145613380Y-71453523D01*
X145613380Y-71691619D01*
X145565761Y-71786857D01*
X145518142Y-71834476D01*
X145422904Y-71882095D01*
X145327666Y-71882095D01*
X145232428Y-71834476D01*
X145184809Y-71786857D01*
X145137190Y-71691619D01*
X145089571Y-71501142D01*
X145041952Y-71405904D01*
X144994333Y-71358285D01*
X144899095Y-71310666D01*
X144803857Y-71310666D01*
X144708619Y-71358285D01*
X144661000Y-71405904D01*
X144613380Y-71501142D01*
X144613380Y-71739238D01*
X144661000Y-71882095D01*
X144613380Y-72215428D02*
X145613380Y-72453523D01*
X144899095Y-72644000D01*
X145613380Y-72834476D01*
X144613380Y-73072571D01*
X145613380Y-73977333D02*
X145613380Y-73405904D01*
X145613380Y-73691619D02*
X144613380Y-73691619D01*
X144756238Y-73596380D01*
X144851476Y-73501142D01*
X144899095Y-73405904D01*
G04 #@! TO.C,SW9*
X145692761Y-136334666D02*
X145740380Y-136477523D01*
X145740380Y-136715619D01*
X145692761Y-136810857D01*
X145645142Y-136858476D01*
X145549904Y-136906095D01*
X145454666Y-136906095D01*
X145359428Y-136858476D01*
X145311809Y-136810857D01*
X145264190Y-136715619D01*
X145216571Y-136525142D01*
X145168952Y-136429904D01*
X145121333Y-136382285D01*
X145026095Y-136334666D01*
X144930857Y-136334666D01*
X144835619Y-136382285D01*
X144788000Y-136429904D01*
X144740380Y-136525142D01*
X144740380Y-136763238D01*
X144788000Y-136906095D01*
X144740380Y-137239428D02*
X145740380Y-137477523D01*
X145026095Y-137668000D01*
X145740380Y-137858476D01*
X144740380Y-138096571D01*
X145740380Y-138525142D02*
X145740380Y-138715619D01*
X145692761Y-138810857D01*
X145645142Y-138858476D01*
X145502285Y-138953714D01*
X145311809Y-139001333D01*
X144930857Y-139001333D01*
X144835619Y-138953714D01*
X144788000Y-138906095D01*
X144740380Y-138810857D01*
X144740380Y-138620380D01*
X144788000Y-138525142D01*
X144835619Y-138477523D01*
X144930857Y-138429904D01*
X145168952Y-138429904D01*
X145264190Y-138477523D01*
X145311809Y-138525142D01*
X145359428Y-138620380D01*
X145359428Y-138810857D01*
X145311809Y-138906095D01*
X145264190Y-138953714D01*
X145168952Y-139001333D01*
G04 #@! TD*
M02*
