M48
;DRILL file {KiCad (5.0.0-3-g5ebb6b6)} date Thursday 25 April 2019 18:55:31
;FORMAT={-:-/ absolute / metric / decimal}
FMAT,2
METRIC,TZ
T1C0.800
T2C0.900
T3C1.000
T4C1.100
T5C1.200
T6C1.300
T7C1.500
T8C3.500
T9C2.000
T10C3.200
%
G90
G05
M71
T1
X141.859Y-61.722
X152.019Y-61.722
X143.51Y-64.897
X148.51Y-64.897
X152.019Y-78.74
X162.179Y-78.74
X123.905Y-61.976
X128.905Y-61.976
X148.844Y-147.654
X148.844Y-152.654
X152.781Y-130.683
X152.781Y-135.683
X158.115Y-65.913
X158.115Y-76.073
X156.718Y-130.683
X156.718Y-135.683
X161.544Y-65.913
X161.544Y-76.073
X148.463Y-69.549
X148.463Y-74.549
X123.905Y-65.151
X128.905Y-65.151
X148.844Y-139.192
X148.844Y-144.192
X148.844Y-130.636
X148.844Y-135.636
X124.079Y-141.605
X124.079Y-146.605
X154.813Y-65.913
X154.813Y-76.073
X151.511Y-65.913
X151.511Y-73.533
X145.034Y-147.654
X145.034Y-152.654
T2
X145.796Y-55.245
X148.336Y-55.245
T3
X157.353Y-140.208
X169.672Y-63.373
X132.16Y-141.478
X134.66Y-141.478
X137.16Y-141.478
X153.67Y-140.208
T4
X159.004Y-100.076
X159.004Y-105.156
T5
X164.592Y-92.456
X164.592Y-94.996
X164.592Y-97.536
X164.592Y-100.076
X164.592Y-102.616
X164.592Y-105.156
X164.592Y-107.696
X164.592Y-110.236
X164.592Y-112.776
X164.592Y-115.316
X167.132Y-92.456
X167.132Y-94.996
X167.132Y-97.536
X167.132Y-100.076
X167.132Y-102.616
X167.132Y-105.156
X167.132Y-107.696
X167.132Y-110.236
X167.132Y-112.776
X167.132Y-115.316
X169.672Y-92.456
X169.672Y-94.996
X169.672Y-97.536
X169.672Y-100.076
X169.672Y-102.616
X169.672Y-105.156
X169.672Y-107.696
X169.672Y-110.236
X169.672Y-112.776
X169.672Y-115.316
X164.592Y-67.056
X164.592Y-69.596
X164.592Y-72.136
X164.592Y-74.676
X164.592Y-77.216
X164.592Y-79.756
X164.592Y-82.296
X164.592Y-84.836
X164.592Y-87.376
X164.592Y-89.916
X167.132Y-67.056
X167.132Y-69.596
X167.132Y-72.136
X167.132Y-74.676
X167.132Y-77.216
X167.132Y-79.756
X167.132Y-82.296
X167.132Y-84.836
X167.132Y-87.376
X167.132Y-89.916
X169.672Y-67.056
X169.672Y-69.596
X169.672Y-72.136
X169.672Y-74.676
X169.672Y-77.216
X169.672Y-79.756
X169.672Y-82.296
X169.672Y-84.836
X169.672Y-87.376
X169.672Y-89.916
T6
X163.322Y-130.175
X168.322Y-130.175
T8
X148.844Y-81.026
X148.844Y-125.298
T9
X130.26Y-148.478
X139.06Y-148.478
T10
X125.222Y-56.388
X168.656Y-56.388
X125.222Y-151.384
X168.656Y-151.384
T3
X131.437Y-117.856G85X130.437Y-117.856
G05
X131.437Y-121.031G85X130.437Y-121.031
G05
X135.501Y-117.856G85X134.501Y-117.856
G05
X135.501Y-121.031G85X134.501Y-121.031
G05
X139.438Y-117.856G85X138.438Y-117.856
G05
X139.438Y-121.031G85X138.438Y-121.031
G05
X130.437Y-69.215G85X131.437Y-69.215
G05
X130.437Y-72.39G85X131.437Y-72.39
G05
X134.374Y-69.215G85X135.374Y-69.215
G05
X134.374Y-72.39G85X135.374Y-72.39
G05
X138.438Y-69.215G85X139.438Y-69.215
G05
X138.438Y-72.39G85X139.438Y-72.39
G05
X131.437Y-85.344G85X130.437Y-85.344
G05
X131.437Y-88.519G85X130.437Y-88.519
G05
X135.501Y-85.344G85X134.501Y-85.344
G05
X135.501Y-88.519G85X134.501Y-88.519
G05
X139.438Y-85.344G85X138.438Y-85.344
G05
X139.438Y-88.519G85X138.438Y-88.519
G05
X131.437Y-77.216G85X130.437Y-77.216
G05
X131.437Y-80.391G85X130.437Y-80.391
G05
X135.501Y-77.216G85X134.501Y-77.216
G05
X135.501Y-80.391G85X134.501Y-80.391
G05
X139.438Y-77.216G85X138.438Y-77.216
G05
X139.438Y-80.391G85X138.438Y-80.391
G05
X131.437Y-101.6G85X130.437Y-101.6
G05
X131.437Y-104.775G85X130.437Y-104.775
G05
X135.501Y-101.6G85X134.501Y-101.6
G05
X135.501Y-104.775G85X134.501Y-104.775
G05
X139.438Y-101.6G85X138.438Y-101.6
G05
X139.438Y-104.775G85X138.438Y-104.775
G05
X134.259Y-54.864G85X136.759Y-54.864
G05
X134.259Y-62.992G85X136.759Y-62.992
G05
X131.437Y-134.112G85X130.437Y-134.112
G05
X131.437Y-137.287G85X130.437Y-137.287
G05
X135.501Y-134.112G85X134.501Y-134.112
G05
X135.501Y-137.287G85X134.501Y-137.287
G05
X139.438Y-134.112G85X138.438Y-134.112
G05
X139.438Y-137.287G85X138.438Y-137.287
G05
X131.437Y-125.984G85X130.437Y-125.984
G05
X131.437Y-129.159G85X130.437Y-129.159
G05
X135.501Y-125.984G85X134.501Y-125.984
G05
X135.501Y-129.159G85X134.501Y-129.159
G05
X139.438Y-125.984G85X138.438Y-125.984
G05
X139.438Y-129.159G85X138.438Y-129.159
G05
X131.437Y-109.728G85X130.437Y-109.728
G05
X131.437Y-112.903G85X130.437Y-112.903
G05
X135.501Y-109.728G85X134.501Y-109.728
G05
X135.501Y-112.903G85X134.501Y-112.903
G05
X139.438Y-109.728G85X138.438Y-109.728
G05
X139.438Y-112.903G85X138.438Y-112.903
G05
X159.746Y-144.653G85X157.246Y-144.653
G05
X159.746Y-152.781G85X157.246Y-152.781
G05
X131.437Y-93.472G85X130.437Y-93.472
G05
X131.437Y-96.647G85X130.437Y-96.647
G05
X135.501Y-93.472G85X134.501Y-93.472
G05
X135.501Y-96.647G85X134.501Y-96.647
G05
X139.438Y-93.472G85X138.438Y-93.472
G05
X139.438Y-96.647G85X138.438Y-96.647
G05
X157.246Y-54.864G85X159.746Y-54.864
G05
X157.246Y-62.992G85X159.746Y-62.992
G05
T7
X130.429Y-56.531G85X130.429Y-58.531
G05
X140.589Y-57.031G85X140.589Y-58.031
G05
X153.416Y-150.614G85X153.416Y-149.614
G05
X163.576Y-151.114G85X163.576Y-149.114
G05
X153.416Y-56.531G85X153.416Y-58.531
G05
X163.576Y-57.031G85X163.576Y-58.031
G05
T0
M30
