G04 #@! TF.GenerationSoftware,KiCad,Pcbnew,(5.0.0-3-g5ebb6b6)*
G04 #@! TF.CreationDate,2019-04-25T18:54:20+02:00*
G04 #@! TF.ProjectId,minidrum-77,6D696E696472756D2D37372E6B696361,rev?*
G04 #@! TF.SameCoordinates,Original*
G04 #@! TF.FileFunction,Legend,Top*
G04 #@! TF.FilePolarity,Positive*
%FSLAX46Y46*%
G04 Gerber Fmt 4.6, Leading zero omitted, Abs format (unit mm)*
G04 Created by KiCad (PCBNEW (5.0.0-3-g5ebb6b6)) date Thursday 25 April 2019 18:54:20*
%MOMM*%
%LPD*%
G01*
G04 APERTURE LIST*
%ADD10C,0.200000*%
%ADD11C,0.300000*%
%ADD12C,0.150000*%
%ADD13C,0.120000*%
G04 APERTURE END LIST*
D10*
X125556619Y-88254095D02*
X124456619Y-88254095D01*
X124980428Y-88254095D02*
X124980428Y-87625523D01*
X125556619Y-87625523D02*
X124456619Y-87625523D01*
X125556619Y-86630285D02*
X124980428Y-86630285D01*
X124875666Y-86682666D01*
X124823285Y-86787428D01*
X124823285Y-86996952D01*
X124875666Y-87101714D01*
X125504238Y-86630285D02*
X125556619Y-86735047D01*
X125556619Y-86996952D01*
X125504238Y-87101714D01*
X125399476Y-87154095D01*
X125294714Y-87154095D01*
X125189952Y-87101714D01*
X125137571Y-86996952D01*
X125137571Y-86735047D01*
X125085190Y-86630285D01*
X124561380Y-86892190D02*
X124509000Y-86996952D01*
X124404238Y-87049333D01*
X124299476Y-86996952D01*
X124247095Y-86892190D01*
X124299476Y-86787428D01*
X124404238Y-86735047D01*
X124509000Y-86787428D01*
X124561380Y-86892190D01*
X125556619Y-86106476D02*
X124456619Y-86106476D01*
X125137571Y-86001714D02*
X125556619Y-85687428D01*
X124823285Y-85687428D02*
X125242333Y-86106476D01*
X125556619Y-84744571D02*
X124980428Y-84744571D01*
X124875666Y-84796952D01*
X124823285Y-84901714D01*
X124823285Y-85111238D01*
X124875666Y-85216000D01*
X125504238Y-84744571D02*
X125556619Y-84849333D01*
X125556619Y-85111238D01*
X125504238Y-85216000D01*
X125399476Y-85268380D01*
X125294714Y-85268380D01*
X125189952Y-85216000D01*
X125137571Y-85111238D01*
X125137571Y-84849333D01*
X125085190Y-84744571D01*
X124823285Y-84220761D02*
X125556619Y-84220761D01*
X124928047Y-84220761D02*
X124875666Y-84168380D01*
X124823285Y-84063619D01*
X124823285Y-83906476D01*
X124875666Y-83801714D01*
X124980428Y-83749333D01*
X125556619Y-83749333D01*
X124980428Y-82387428D02*
X124980428Y-82020761D01*
X125556619Y-81863619D02*
X125556619Y-82387428D01*
X124456619Y-82387428D01*
X124456619Y-81863619D01*
X125556619Y-81392190D02*
X124823285Y-81392190D01*
X125032809Y-81392190D02*
X124928047Y-81339809D01*
X124875666Y-81287428D01*
X124823285Y-81182666D01*
X124823285Y-81077904D01*
X125556619Y-80711238D02*
X124823285Y-80711238D01*
X124456619Y-80711238D02*
X124509000Y-80763619D01*
X124561380Y-80711238D01*
X124509000Y-80658857D01*
X124456619Y-80711238D01*
X124561380Y-80711238D01*
X125556619Y-80187428D02*
X124456619Y-80187428D01*
X125137571Y-80082666D02*
X125556619Y-79768380D01*
X124823285Y-79768380D02*
X125242333Y-80187428D01*
X125504238Y-79349333D02*
X125556619Y-79244571D01*
X125556619Y-79035047D01*
X125504238Y-78930285D01*
X125399476Y-78877904D01*
X125347095Y-78877904D01*
X125242333Y-78930285D01*
X125189952Y-79035047D01*
X125189952Y-79192190D01*
X125137571Y-79296952D01*
X125032809Y-79349333D01*
X124980428Y-79349333D01*
X124875666Y-79296952D01*
X124823285Y-79192190D01*
X124823285Y-79035047D01*
X124875666Y-78930285D01*
X125504238Y-78458857D02*
X125556619Y-78354095D01*
X125556619Y-78144571D01*
X125504238Y-78039809D01*
X125399476Y-77987428D01*
X125347095Y-77987428D01*
X125242333Y-78039809D01*
X125189952Y-78144571D01*
X125189952Y-78301714D01*
X125137571Y-78406476D01*
X125032809Y-78458857D01*
X124980428Y-78458857D01*
X124875666Y-78406476D01*
X124823285Y-78301714D01*
X124823285Y-78144571D01*
X124875666Y-78039809D01*
X125556619Y-77358857D02*
X125504238Y-77463619D01*
X125451857Y-77516000D01*
X125347095Y-77568380D01*
X125032809Y-77568380D01*
X124928047Y-77516000D01*
X124875666Y-77463619D01*
X124823285Y-77358857D01*
X124823285Y-77201714D01*
X124875666Y-77096952D01*
X124928047Y-77044571D01*
X125032809Y-76992190D01*
X125347095Y-76992190D01*
X125451857Y-77044571D01*
X125504238Y-77096952D01*
X125556619Y-77201714D01*
X125556619Y-77358857D01*
X124823285Y-76520761D02*
X125556619Y-76520761D01*
X124928047Y-76520761D02*
X124875666Y-76468380D01*
X124823285Y-76363619D01*
X124823285Y-76206476D01*
X124875666Y-76101714D01*
X124980428Y-76049333D01*
X125556619Y-76049333D01*
X125504238Y-75473142D02*
X125556619Y-75473142D01*
X125661380Y-75525523D01*
X125713761Y-75577904D01*
X124561380Y-74216000D02*
X124509000Y-74163619D01*
X124456619Y-74058857D01*
X124456619Y-73796952D01*
X124509000Y-73692190D01*
X124561380Y-73639809D01*
X124666142Y-73587428D01*
X124770904Y-73587428D01*
X124928047Y-73639809D01*
X125556619Y-74268380D01*
X125556619Y-73587428D01*
X124456619Y-72906476D02*
X124456619Y-72801714D01*
X124509000Y-72696952D01*
X124561380Y-72644571D01*
X124666142Y-72592190D01*
X124875666Y-72539809D01*
X125137571Y-72539809D01*
X125347095Y-72592190D01*
X125451857Y-72644571D01*
X125504238Y-72696952D01*
X125556619Y-72801714D01*
X125556619Y-72906476D01*
X125504238Y-73011238D01*
X125451857Y-73063619D01*
X125347095Y-73116000D01*
X125137571Y-73168380D01*
X124875666Y-73168380D01*
X124666142Y-73116000D01*
X124561380Y-73063619D01*
X124509000Y-73011238D01*
X124456619Y-72906476D01*
X125556619Y-71492190D02*
X125556619Y-72120761D01*
X125556619Y-71806476D02*
X124456619Y-71806476D01*
X124613761Y-71911238D01*
X124718523Y-72016000D01*
X124770904Y-72120761D01*
X125556619Y-70968380D02*
X125556619Y-70758857D01*
X125504238Y-70654095D01*
X125451857Y-70601714D01*
X125294714Y-70496952D01*
X125085190Y-70444571D01*
X124666142Y-70444571D01*
X124561380Y-70496952D01*
X124509000Y-70549333D01*
X124456619Y-70654095D01*
X124456619Y-70863619D01*
X124509000Y-70968380D01*
X124561380Y-71020761D01*
X124666142Y-71073142D01*
X124928047Y-71073142D01*
X125032809Y-71020761D01*
X125085190Y-70968380D01*
X125137571Y-70863619D01*
X125137571Y-70654095D01*
X125085190Y-70549333D01*
X125032809Y-70496952D01*
X124928047Y-70444571D01*
X126673285Y-87782666D02*
X127406619Y-87782666D01*
X126673285Y-88254095D02*
X127249476Y-88254095D01*
X127354238Y-88201714D01*
X127406619Y-88096952D01*
X127406619Y-87939809D01*
X127354238Y-87835047D01*
X127301857Y-87782666D01*
X127406619Y-87258857D02*
X126306619Y-87258857D01*
X127406619Y-86787428D02*
X126830428Y-86787428D01*
X126725666Y-86839809D01*
X126673285Y-86944571D01*
X126673285Y-87101714D01*
X126725666Y-87206476D01*
X126778047Y-87258857D01*
X127354238Y-85844571D02*
X127406619Y-85949333D01*
X127406619Y-86158857D01*
X127354238Y-86263619D01*
X127249476Y-86316000D01*
X126830428Y-86316000D01*
X126725666Y-86263619D01*
X126673285Y-86158857D01*
X126673285Y-85949333D01*
X126725666Y-85844571D01*
X126830428Y-85792190D01*
X126935190Y-85792190D01*
X127039952Y-86316000D01*
X127406619Y-85320761D02*
X126673285Y-85320761D01*
X126882809Y-85320761D02*
X126778047Y-85268380D01*
X126725666Y-85216000D01*
X126673285Y-85111238D01*
X126673285Y-85006476D01*
X127406619Y-84639809D02*
X126673285Y-84639809D01*
X126306619Y-84639809D02*
X126359000Y-84692190D01*
X126411380Y-84639809D01*
X126359000Y-84587428D01*
X126306619Y-84639809D01*
X126411380Y-84639809D01*
X127406619Y-84116000D02*
X126306619Y-84116000D01*
X126987571Y-84011238D02*
X127406619Y-83696952D01*
X126673285Y-83696952D02*
X127092333Y-84116000D01*
X127354238Y-83277904D02*
X127406619Y-83173142D01*
X127406619Y-82963619D01*
X127354238Y-82858857D01*
X127249476Y-82806476D01*
X127197095Y-82806476D01*
X127092333Y-82858857D01*
X127039952Y-82963619D01*
X127039952Y-83120761D01*
X126987571Y-83225523D01*
X126882809Y-83277904D01*
X126830428Y-83277904D01*
X126725666Y-83225523D01*
X126673285Y-83120761D01*
X126673285Y-82963619D01*
X126725666Y-82858857D01*
X126882809Y-81654095D02*
X126830428Y-81706476D01*
X126778047Y-81811238D01*
X126778047Y-81916000D01*
X126830428Y-82020761D01*
X126882809Y-82073142D01*
X126987571Y-82125523D01*
X127092333Y-82125523D01*
X127197095Y-82073142D01*
X127249476Y-82020761D01*
X127301857Y-81916000D01*
X127301857Y-81811238D01*
X127249476Y-81706476D01*
X127197095Y-81654095D01*
X126778047Y-81654095D02*
X127197095Y-81654095D01*
X127249476Y-81601714D01*
X127249476Y-81549333D01*
X127197095Y-81444571D01*
X127092333Y-81392190D01*
X126830428Y-81392190D01*
X126673285Y-81496952D01*
X126568523Y-81654095D01*
X126516142Y-81863619D01*
X126568523Y-82073142D01*
X126673285Y-82230285D01*
X126830428Y-82335047D01*
X127039952Y-82387428D01*
X127249476Y-82335047D01*
X127406619Y-82230285D01*
X127511380Y-82073142D01*
X127563761Y-81863619D01*
X127511380Y-81654095D01*
X127406619Y-81496952D01*
X126673285Y-81025523D02*
X127406619Y-80763619D01*
X126673285Y-80501714D02*
X127406619Y-80763619D01*
X127668523Y-80868380D01*
X127720904Y-80920761D01*
X127773285Y-81025523D01*
X127406619Y-79611238D02*
X126830428Y-79611238D01*
X126725666Y-79663619D01*
X126673285Y-79768380D01*
X126673285Y-79977904D01*
X126725666Y-80082666D01*
X127354238Y-79611238D02*
X127406619Y-79716000D01*
X127406619Y-79977904D01*
X127354238Y-80082666D01*
X127249476Y-80135047D01*
X127144714Y-80135047D01*
X127039952Y-80082666D01*
X126987571Y-79977904D01*
X126987571Y-79716000D01*
X126935190Y-79611238D01*
X127406619Y-79087428D02*
X126306619Y-79087428D01*
X127406619Y-78616000D02*
X126830428Y-78616000D01*
X126725666Y-78668380D01*
X126673285Y-78773142D01*
X126673285Y-78930285D01*
X126725666Y-79035047D01*
X126778047Y-79087428D01*
X127406619Y-77935047D02*
X127354238Y-78039809D01*
X127301857Y-78092190D01*
X127197095Y-78144571D01*
X126882809Y-78144571D01*
X126778047Y-78092190D01*
X126725666Y-78039809D01*
X126673285Y-77935047D01*
X126673285Y-77777904D01*
X126725666Y-77673142D01*
X126778047Y-77620761D01*
X126882809Y-77568380D01*
X127197095Y-77568380D01*
X127301857Y-77620761D01*
X127354238Y-77673142D01*
X127406619Y-77777904D01*
X127406619Y-77935047D01*
X127406619Y-76939809D02*
X127354238Y-77044571D01*
X127301857Y-77096952D01*
X127197095Y-77149333D01*
X126882809Y-77149333D01*
X126778047Y-77096952D01*
X126725666Y-77044571D01*
X126673285Y-76939809D01*
X126673285Y-76782666D01*
X126725666Y-76677904D01*
X126778047Y-76625523D01*
X126882809Y-76573142D01*
X127197095Y-76573142D01*
X127301857Y-76625523D01*
X127354238Y-76677904D01*
X127406619Y-76782666D01*
X127406619Y-76939809D01*
X127301857Y-76101714D02*
X127354238Y-76049333D01*
X127406619Y-76101714D01*
X127354238Y-76154095D01*
X127301857Y-76101714D01*
X127406619Y-76101714D01*
X127354238Y-75106476D02*
X127406619Y-75211238D01*
X127406619Y-75420761D01*
X127354238Y-75525523D01*
X127301857Y-75577904D01*
X127197095Y-75630285D01*
X126882809Y-75630285D01*
X126778047Y-75577904D01*
X126725666Y-75525523D01*
X126673285Y-75420761D01*
X126673285Y-75211238D01*
X126725666Y-75106476D01*
X127406619Y-74163619D02*
X126830428Y-74163619D01*
X126725666Y-74216000D01*
X126673285Y-74320761D01*
X126673285Y-74530285D01*
X126725666Y-74635047D01*
X127354238Y-74163619D02*
X127406619Y-74268380D01*
X127406619Y-74530285D01*
X127354238Y-74635047D01*
X127249476Y-74687428D01*
X127144714Y-74687428D01*
X127039952Y-74635047D01*
X126987571Y-74530285D01*
X126987571Y-74268380D01*
X126935190Y-74163619D01*
D11*
X126826095Y-136401476D02*
X125526095Y-136401476D01*
X125526095Y-136091952D01*
X125588000Y-135906238D01*
X125711809Y-135782428D01*
X125835619Y-135720523D01*
X126083238Y-135658619D01*
X126268952Y-135658619D01*
X126516571Y-135720523D01*
X126640380Y-135782428D01*
X126764190Y-135906238D01*
X126826095Y-136091952D01*
X126826095Y-136401476D01*
X126826095Y-134358619D02*
X126207047Y-134791952D01*
X126826095Y-135101476D02*
X125526095Y-135101476D01*
X125526095Y-134606238D01*
X125588000Y-134482428D01*
X125649904Y-134420523D01*
X125773714Y-134358619D01*
X125959428Y-134358619D01*
X126083238Y-134420523D01*
X126145142Y-134482428D01*
X126207047Y-134606238D01*
X126207047Y-135101476D01*
X126330857Y-133801476D02*
X126330857Y-132811000D01*
X125526095Y-132315761D02*
X125526095Y-131449095D01*
X126826095Y-132006238D01*
X125526095Y-131077666D02*
X125526095Y-130211000D01*
X126826095Y-130768142D01*
X125464190Y-128787190D02*
X127135619Y-129901476D01*
X125526095Y-128477666D02*
X125526095Y-127611000D01*
X126826095Y-128168142D01*
X126083238Y-126930047D02*
X126021333Y-127053857D01*
X125959428Y-127115761D01*
X125835619Y-127177666D01*
X125773714Y-127177666D01*
X125649904Y-127115761D01*
X125588000Y-127053857D01*
X125526095Y-126930047D01*
X125526095Y-126682428D01*
X125588000Y-126558619D01*
X125649904Y-126496714D01*
X125773714Y-126434809D01*
X125835619Y-126434809D01*
X125959428Y-126496714D01*
X126021333Y-126558619D01*
X126083238Y-126682428D01*
X126083238Y-126930047D01*
X126145142Y-127053857D01*
X126207047Y-127115761D01*
X126330857Y-127177666D01*
X126578476Y-127177666D01*
X126702285Y-127115761D01*
X126764190Y-127053857D01*
X126826095Y-126930047D01*
X126826095Y-126682428D01*
X126764190Y-126558619D01*
X126702285Y-126496714D01*
X126578476Y-126434809D01*
X126330857Y-126434809D01*
X126207047Y-126496714D01*
X126145142Y-126558619D01*
X126083238Y-126682428D01*
X127321333Y-124515761D02*
X127259428Y-124577666D01*
X127073714Y-124701476D01*
X126949904Y-124763380D01*
X126764190Y-124825285D01*
X126454666Y-124887190D01*
X126207047Y-124887190D01*
X125897523Y-124825285D01*
X125711809Y-124763380D01*
X125588000Y-124701476D01*
X125402285Y-124577666D01*
X125340380Y-124515761D01*
X126826095Y-124020523D02*
X125959428Y-124020523D01*
X126207047Y-124020523D02*
X126083238Y-123958619D01*
X126021333Y-123896714D01*
X125959428Y-123772904D01*
X125959428Y-123649095D01*
X126764190Y-122720523D02*
X126826095Y-122844333D01*
X126826095Y-123091952D01*
X126764190Y-123215761D01*
X126640380Y-123277666D01*
X126145142Y-123277666D01*
X126021333Y-123215761D01*
X125959428Y-123091952D01*
X125959428Y-122844333D01*
X126021333Y-122720523D01*
X126145142Y-122658619D01*
X126268952Y-122658619D01*
X126392761Y-123277666D01*
X125959428Y-122225285D02*
X126826095Y-121915761D01*
X125959428Y-121606238D01*
X126454666Y-120182428D02*
X126454666Y-119563380D01*
X126826095Y-120306238D02*
X125526095Y-119872904D01*
X126826095Y-119439571D01*
X127321333Y-119130047D02*
X127259428Y-119068142D01*
X127073714Y-118944333D01*
X126949904Y-118882428D01*
X126764190Y-118820523D01*
X126454666Y-118758619D01*
X126207047Y-118758619D01*
X125897523Y-118820523D01*
X125711809Y-118882428D01*
X125588000Y-118944333D01*
X125402285Y-119068142D01*
X125340380Y-119130047D01*
X123752190Y-106950238D02*
X123814095Y-107074047D01*
X123814095Y-107321666D01*
X123752190Y-107445476D01*
X123628380Y-107507380D01*
X123133142Y-107507380D01*
X123009333Y-107445476D01*
X122947428Y-107321666D01*
X122947428Y-107074047D01*
X123009333Y-106950238D01*
X123133142Y-106888333D01*
X123256952Y-106888333D01*
X123380761Y-107507380D01*
X123814095Y-106145476D02*
X123752190Y-106269285D01*
X123628380Y-106331190D01*
X122514095Y-106331190D01*
X123752190Y-105155000D02*
X123814095Y-105278809D01*
X123814095Y-105526428D01*
X123752190Y-105650238D01*
X123628380Y-105712142D01*
X123133142Y-105712142D01*
X123009333Y-105650238D01*
X122947428Y-105526428D01*
X122947428Y-105278809D01*
X123009333Y-105155000D01*
X123133142Y-105093095D01*
X123256952Y-105093095D01*
X123380761Y-105712142D01*
X123752190Y-103978809D02*
X123814095Y-104102619D01*
X123814095Y-104350238D01*
X123752190Y-104474047D01*
X123690285Y-104535952D01*
X123566476Y-104597857D01*
X123195047Y-104597857D01*
X123071238Y-104535952D01*
X123009333Y-104474047D01*
X122947428Y-104350238D01*
X122947428Y-104102619D01*
X123009333Y-103978809D01*
X122947428Y-103607380D02*
X122947428Y-103112142D01*
X122514095Y-103421666D02*
X123628380Y-103421666D01*
X123752190Y-103359761D01*
X123814095Y-103235952D01*
X123814095Y-103112142D01*
X123814095Y-102678809D02*
X122947428Y-102678809D01*
X123195047Y-102678809D02*
X123071238Y-102616904D01*
X123009333Y-102555000D01*
X122947428Y-102431190D01*
X122947428Y-102307380D01*
X123814095Y-101688333D02*
X123752190Y-101812142D01*
X123690285Y-101874047D01*
X123566476Y-101935952D01*
X123195047Y-101935952D01*
X123071238Y-101874047D01*
X123009333Y-101812142D01*
X122947428Y-101688333D01*
X122947428Y-101502619D01*
X123009333Y-101378809D01*
X123071238Y-101316904D01*
X123195047Y-101255000D01*
X123566476Y-101255000D01*
X123690285Y-101316904D01*
X123752190Y-101378809D01*
X123814095Y-101502619D01*
X123814095Y-101688333D01*
X122947428Y-100697857D02*
X123814095Y-100697857D01*
X123071238Y-100697857D02*
X123009333Y-100635952D01*
X122947428Y-100512142D01*
X122947428Y-100326428D01*
X123009333Y-100202619D01*
X123133142Y-100140714D01*
X123814095Y-100140714D01*
X123814095Y-99521666D02*
X122947428Y-99521666D01*
X122514095Y-99521666D02*
X122576000Y-99583571D01*
X122637904Y-99521666D01*
X122576000Y-99459761D01*
X122514095Y-99521666D01*
X122637904Y-99521666D01*
X123752190Y-98345476D02*
X123814095Y-98469285D01*
X123814095Y-98716904D01*
X123752190Y-98840714D01*
X123690285Y-98902619D01*
X123566476Y-98964523D01*
X123195047Y-98964523D01*
X123071238Y-98902619D01*
X123009333Y-98840714D01*
X122947428Y-98716904D01*
X122947428Y-98469285D01*
X123009333Y-98345476D01*
X126002190Y-107507380D02*
X126064095Y-107383571D01*
X126064095Y-107135952D01*
X126002190Y-107012142D01*
X125878380Y-106950238D01*
X125816476Y-106950238D01*
X125692666Y-107012142D01*
X125630761Y-107135952D01*
X125630761Y-107321666D01*
X125568857Y-107445476D01*
X125445047Y-107507380D01*
X125383142Y-107507380D01*
X125259333Y-107445476D01*
X125197428Y-107321666D01*
X125197428Y-107135952D01*
X125259333Y-107012142D01*
X126064095Y-106207380D02*
X126002190Y-106331190D01*
X125940285Y-106393095D01*
X125816476Y-106455000D01*
X125445047Y-106455000D01*
X125321238Y-106393095D01*
X125259333Y-106331190D01*
X125197428Y-106207380D01*
X125197428Y-106021666D01*
X125259333Y-105897857D01*
X125321238Y-105835952D01*
X125445047Y-105774047D01*
X125816476Y-105774047D01*
X125940285Y-105835952D01*
X126002190Y-105897857D01*
X126064095Y-106021666D01*
X126064095Y-106207380D01*
X125197428Y-104659761D02*
X126064095Y-104659761D01*
X125197428Y-105216904D02*
X125878380Y-105216904D01*
X126002190Y-105155000D01*
X126064095Y-105031190D01*
X126064095Y-104845476D01*
X126002190Y-104721666D01*
X125940285Y-104659761D01*
X125197428Y-104040714D02*
X126064095Y-104040714D01*
X125321238Y-104040714D02*
X125259333Y-103978809D01*
X125197428Y-103855000D01*
X125197428Y-103669285D01*
X125259333Y-103545476D01*
X125383142Y-103483571D01*
X126064095Y-103483571D01*
X126064095Y-102307380D02*
X124764095Y-102307380D01*
X126002190Y-102307380D02*
X126064095Y-102431190D01*
X126064095Y-102678809D01*
X126002190Y-102802619D01*
X125940285Y-102864523D01*
X125816476Y-102926428D01*
X125445047Y-102926428D01*
X125321238Y-102864523D01*
X125259333Y-102802619D01*
X125197428Y-102678809D01*
X125197428Y-102431190D01*
X125259333Y-102307380D01*
X128314095Y-107445476D02*
X127447428Y-107445476D01*
X127571238Y-107445476D02*
X127509333Y-107383571D01*
X127447428Y-107259761D01*
X127447428Y-107074047D01*
X127509333Y-106950238D01*
X127633142Y-106888333D01*
X128314095Y-106888333D01*
X127633142Y-106888333D02*
X127509333Y-106826428D01*
X127447428Y-106702619D01*
X127447428Y-106516904D01*
X127509333Y-106393095D01*
X127633142Y-106331190D01*
X128314095Y-106331190D01*
X128314095Y-105155000D02*
X127633142Y-105155000D01*
X127509333Y-105216904D01*
X127447428Y-105340714D01*
X127447428Y-105588333D01*
X127509333Y-105712142D01*
X128252190Y-105155000D02*
X128314095Y-105278809D01*
X128314095Y-105588333D01*
X128252190Y-105712142D01*
X128128380Y-105774047D01*
X128004571Y-105774047D01*
X127880761Y-105712142D01*
X127818857Y-105588333D01*
X127818857Y-105278809D01*
X127756952Y-105155000D01*
X128252190Y-103978809D02*
X128314095Y-104102619D01*
X128314095Y-104350238D01*
X128252190Y-104474047D01*
X128190285Y-104535952D01*
X128066476Y-104597857D01*
X127695047Y-104597857D01*
X127571238Y-104535952D01*
X127509333Y-104474047D01*
X127447428Y-104350238D01*
X127447428Y-104102619D01*
X127509333Y-103978809D01*
X128314095Y-103421666D02*
X127014095Y-103421666D01*
X128314095Y-102864523D02*
X127633142Y-102864523D01*
X127509333Y-102926428D01*
X127447428Y-103050238D01*
X127447428Y-103235952D01*
X127509333Y-103359761D01*
X127571238Y-103421666D01*
X128314095Y-102245476D02*
X127447428Y-102245476D01*
X127014095Y-102245476D02*
X127076000Y-102307380D01*
X127137904Y-102245476D01*
X127076000Y-102183571D01*
X127014095Y-102245476D01*
X127137904Y-102245476D01*
X127447428Y-101626428D02*
X128314095Y-101626428D01*
X127571238Y-101626428D02*
X127509333Y-101564523D01*
X127447428Y-101440714D01*
X127447428Y-101255000D01*
X127509333Y-101131190D01*
X127633142Y-101069285D01*
X128314095Y-101069285D01*
X128252190Y-99955000D02*
X128314095Y-100078809D01*
X128314095Y-100326428D01*
X128252190Y-100450238D01*
X128128380Y-100512142D01*
X127633142Y-100512142D01*
X127509333Y-100450238D01*
X127447428Y-100326428D01*
X127447428Y-100078809D01*
X127509333Y-99955000D01*
X127633142Y-99893095D01*
X127756952Y-99893095D01*
X127880761Y-100512142D01*
X128252190Y-99397857D02*
X128314095Y-99274047D01*
X128314095Y-99026428D01*
X128252190Y-98902619D01*
X128128380Y-98840714D01*
X128066476Y-98840714D01*
X127942666Y-98902619D01*
X127880761Y-99026428D01*
X127880761Y-99212142D01*
X127818857Y-99335952D01*
X127695047Y-99397857D01*
X127633142Y-99397857D01*
X127509333Y-99335952D01*
X127447428Y-99212142D01*
X127447428Y-99026428D01*
X127509333Y-98902619D01*
D12*
G04 #@! TO.C,L1*
X162814000Y-81026000D02*
X162814000Y-112776000D01*
X150114000Y-81026000D02*
X162814000Y-81026000D01*
X134874000Y-112776000D02*
X134874000Y-81026000D01*
X150114000Y-125476000D02*
X162814000Y-125476000D01*
X134874000Y-125476000D02*
X134874000Y-112776000D01*
X134874000Y-81026000D02*
X150114000Y-81026000D01*
X162814000Y-112776000D02*
X162814000Y-125476000D01*
X150114000Y-125476000D02*
X134874000Y-125476000D01*
D13*
G04 #@! TO.C,R6*
X143669000Y-60352000D02*
X143669000Y-63092000D01*
X143669000Y-63092000D02*
X150209000Y-63092000D01*
X150209000Y-63092000D02*
X150209000Y-60352000D01*
X150209000Y-60352000D02*
X143669000Y-60352000D01*
X142899000Y-61722000D02*
X143669000Y-61722000D01*
X150979000Y-61722000D02*
X150209000Y-61722000D01*
G04 #@! TO.C,C3*
X147093000Y-68329000D02*
X149833000Y-68329000D01*
X147093000Y-75769000D02*
X149833000Y-75769000D01*
X149833000Y-75769000D02*
X149833000Y-68329000D01*
X147093000Y-75769000D02*
X147093000Y-68329000D01*
G04 #@! TO.C,C1*
X122685000Y-66521000D02*
X122685000Y-63781000D01*
X130125000Y-66521000D02*
X130125000Y-63781000D01*
X130125000Y-63781000D02*
X122685000Y-63781000D01*
X130125000Y-66521000D02*
X122685000Y-66521000D01*
G04 #@! TO.C,C2*
X142290000Y-63527000D02*
X149730000Y-63527000D01*
X142290000Y-66267000D02*
X149730000Y-66267000D01*
X142290000Y-63527000D02*
X142290000Y-66267000D01*
X149730000Y-63527000D02*
X149730000Y-66267000D01*
G04 #@! TO.C,C4*
X130125000Y-63346000D02*
X122685000Y-63346000D01*
X130125000Y-60606000D02*
X122685000Y-60606000D01*
X130125000Y-63346000D02*
X130125000Y-60606000D01*
X122685000Y-63346000D02*
X122685000Y-60606000D01*
G04 #@! TO.C,C5*
X150214000Y-145412000D02*
X147474000Y-145412000D01*
X150214000Y-137972000D02*
X147474000Y-137972000D01*
X147474000Y-137972000D02*
X147474000Y-145412000D01*
X150214000Y-137972000D02*
X150214000Y-145412000D01*
G04 #@! TO.C,C6*
X125449000Y-140385000D02*
X125449000Y-147825000D01*
X122709000Y-140385000D02*
X122709000Y-147825000D01*
X125449000Y-140385000D02*
X122709000Y-140385000D01*
X125449000Y-147825000D02*
X122709000Y-147825000D01*
G04 #@! TO.C,C7*
X154151000Y-136903000D02*
X151411000Y-136903000D01*
X154151000Y-129463000D02*
X151411000Y-129463000D01*
X151411000Y-129463000D02*
X151411000Y-136903000D01*
X154151000Y-129463000D02*
X154151000Y-136903000D01*
G04 #@! TO.C,C8*
X158088000Y-136903000D02*
X155348000Y-136903000D01*
X158088000Y-129463000D02*
X155348000Y-129463000D01*
X155348000Y-129463000D02*
X155348000Y-136903000D01*
X158088000Y-129463000D02*
X158088000Y-136903000D01*
G04 #@! TO.C,C9*
X143664000Y-153874000D02*
X143664000Y-146434000D01*
X146404000Y-153874000D02*
X146404000Y-146434000D01*
X143664000Y-153874000D02*
X146404000Y-153874000D01*
X143664000Y-146434000D02*
X146404000Y-146434000D01*
G04 #@! TO.C,C10*
X147474000Y-153874000D02*
X147474000Y-146434000D01*
X150214000Y-153874000D02*
X150214000Y-146434000D01*
X147474000Y-153874000D02*
X150214000Y-153874000D01*
X147474000Y-146434000D02*
X150214000Y-146434000D01*
G04 #@! TO.C,D1*
X152631000Y-67603000D02*
X150391000Y-67603000D01*
X150391000Y-67603000D02*
X150391000Y-71843000D01*
X150391000Y-71843000D02*
X152631000Y-71843000D01*
X152631000Y-71843000D02*
X152631000Y-67603000D01*
X151511000Y-66953000D02*
X151511000Y-67603000D01*
X151511000Y-72493000D02*
X151511000Y-71843000D01*
X152631000Y-68323000D02*
X150391000Y-68323000D01*
X152631000Y-68443000D02*
X150391000Y-68443000D01*
X152631000Y-68203000D02*
X150391000Y-68203000D01*
G04 #@! TO.C,R1*
X153829000Y-77370000D02*
X153829000Y-80110000D01*
X153829000Y-80110000D02*
X160369000Y-80110000D01*
X160369000Y-80110000D02*
X160369000Y-77370000D01*
X160369000Y-77370000D02*
X153829000Y-77370000D01*
X153059000Y-78740000D02*
X153829000Y-78740000D01*
X161139000Y-78740000D02*
X160369000Y-78740000D01*
G04 #@! TO.C,R2*
X158115000Y-75033000D02*
X158115000Y-74263000D01*
X158115000Y-66953000D02*
X158115000Y-67723000D01*
X159485000Y-74263000D02*
X159485000Y-67723000D01*
X156745000Y-74263000D02*
X159485000Y-74263000D01*
X156745000Y-67723000D02*
X156745000Y-74263000D01*
X159485000Y-67723000D02*
X156745000Y-67723000D01*
G04 #@! TO.C,R3*
X153443000Y-74263000D02*
X156183000Y-74263000D01*
X156183000Y-74263000D02*
X156183000Y-67723000D01*
X156183000Y-67723000D02*
X153443000Y-67723000D01*
X153443000Y-67723000D02*
X153443000Y-74263000D01*
X154813000Y-75033000D02*
X154813000Y-74263000D01*
X154813000Y-66953000D02*
X154813000Y-67723000D01*
G04 #@! TO.C,R4*
X161544000Y-66953000D02*
X161544000Y-67723000D01*
X161544000Y-75033000D02*
X161544000Y-74263000D01*
X160174000Y-67723000D02*
X160174000Y-74263000D01*
X162914000Y-67723000D02*
X160174000Y-67723000D01*
X162914000Y-74263000D02*
X162914000Y-67723000D01*
X160174000Y-74263000D02*
X162914000Y-74263000D01*
G04 #@! TO.C,L2*
X170942000Y-130175000D02*
G75*
G03X170942000Y-130175000I-5120000J0D01*
G01*
G04 #@! TO.C,C11*
X147474000Y-136856000D02*
X147474000Y-129416000D01*
X150214000Y-136856000D02*
X150214000Y-129416000D01*
X147474000Y-136856000D02*
X150214000Y-136856000D01*
X147474000Y-129416000D02*
X150214000Y-129416000D01*
G04 #@! TO.C,TP1*
X168472000Y-62173000D02*
X170872000Y-62173000D01*
X170872000Y-62173000D02*
X170872000Y-64573000D01*
X170872000Y-64573000D02*
X168472000Y-64573000D01*
X168472000Y-64573000D02*
X168472000Y-62173000D01*
G04 #@! TO.C,TP2*
X156153000Y-139008000D02*
X158553000Y-139008000D01*
X158553000Y-139008000D02*
X158553000Y-141408000D01*
X158553000Y-141408000D02*
X156153000Y-141408000D01*
X156153000Y-141408000D02*
X156153000Y-139008000D01*
G04 #@! TO.C,TP3*
X152470000Y-141408000D02*
X152470000Y-139008000D01*
X154870000Y-141408000D02*
X152470000Y-141408000D01*
X154870000Y-139008000D02*
X154870000Y-141408000D01*
X152470000Y-139008000D02*
X154870000Y-139008000D01*
G04 #@! TO.C,L1*
D12*
X161234380Y-98464666D02*
X161234380Y-98940857D01*
X160234380Y-98940857D01*
X161234380Y-97607523D02*
X161234380Y-98178952D01*
X161234380Y-97893238D02*
X160234380Y-97893238D01*
X160377238Y-97988476D01*
X160472476Y-98083714D01*
X160520095Y-98178952D01*
G04 #@! TO.C,R6*
X147026333Y-62936380D02*
X146693000Y-62460190D01*
X146454904Y-62936380D02*
X146454904Y-61936380D01*
X146835857Y-61936380D01*
X146931095Y-61984000D01*
X146978714Y-62031619D01*
X147026333Y-62126857D01*
X147026333Y-62269714D01*
X146978714Y-62364952D01*
X146931095Y-62412571D01*
X146835857Y-62460190D01*
X146454904Y-62460190D01*
X147883476Y-61936380D02*
X147693000Y-61936380D01*
X147597761Y-61984000D01*
X147550142Y-62031619D01*
X147454904Y-62174476D01*
X147407285Y-62364952D01*
X147407285Y-62745904D01*
X147454904Y-62841142D01*
X147502523Y-62888761D01*
X147597761Y-62936380D01*
X147788238Y-62936380D01*
X147883476Y-62888761D01*
X147931095Y-62841142D01*
X147978714Y-62745904D01*
X147978714Y-62507809D01*
X147931095Y-62412571D01*
X147883476Y-62364952D01*
X147788238Y-62317333D01*
X147597761Y-62317333D01*
X147502523Y-62364952D01*
X147454904Y-62412571D01*
X147407285Y-62507809D01*
G04 #@! TO.C,REF\002A\002A*
X123888666Y-52640380D02*
X123555333Y-52164190D01*
X123317238Y-52640380D02*
X123317238Y-51640380D01*
X123698190Y-51640380D01*
X123793428Y-51688000D01*
X123841047Y-51735619D01*
X123888666Y-51830857D01*
X123888666Y-51973714D01*
X123841047Y-52068952D01*
X123793428Y-52116571D01*
X123698190Y-52164190D01*
X123317238Y-52164190D01*
X124317238Y-52116571D02*
X124650571Y-52116571D01*
X124793428Y-52640380D02*
X124317238Y-52640380D01*
X124317238Y-51640380D01*
X124793428Y-51640380D01*
X125555333Y-52116571D02*
X125222000Y-52116571D01*
X125222000Y-52640380D02*
X125222000Y-51640380D01*
X125698190Y-51640380D01*
X126222000Y-51640380D02*
X126222000Y-51878476D01*
X125983904Y-51783238D02*
X126222000Y-51878476D01*
X126460095Y-51783238D01*
X126079142Y-52068952D02*
X126222000Y-51878476D01*
X126364857Y-52068952D01*
X126983904Y-51640380D02*
X126983904Y-51878476D01*
X126745809Y-51783238D02*
X126983904Y-51878476D01*
X127222000Y-51783238D01*
X126841047Y-52068952D02*
X126983904Y-51878476D01*
X127126761Y-52068952D01*
X167322666Y-52640380D02*
X166989333Y-52164190D01*
X166751238Y-52640380D02*
X166751238Y-51640380D01*
X167132190Y-51640380D01*
X167227428Y-51688000D01*
X167275047Y-51735619D01*
X167322666Y-51830857D01*
X167322666Y-51973714D01*
X167275047Y-52068952D01*
X167227428Y-52116571D01*
X167132190Y-52164190D01*
X166751238Y-52164190D01*
X167751238Y-52116571D02*
X168084571Y-52116571D01*
X168227428Y-52640380D02*
X167751238Y-52640380D01*
X167751238Y-51640380D01*
X168227428Y-51640380D01*
X168989333Y-52116571D02*
X168656000Y-52116571D01*
X168656000Y-52640380D02*
X168656000Y-51640380D01*
X169132190Y-51640380D01*
X169656000Y-51640380D02*
X169656000Y-51878476D01*
X169417904Y-51783238D02*
X169656000Y-51878476D01*
X169894095Y-51783238D01*
X169513142Y-52068952D02*
X169656000Y-51878476D01*
X169798857Y-52068952D01*
X170417904Y-51640380D02*
X170417904Y-51878476D01*
X170179809Y-51783238D02*
X170417904Y-51878476D01*
X170656000Y-51783238D01*
X170275047Y-52068952D02*
X170417904Y-51878476D01*
X170560761Y-52068952D01*
X167322666Y-147636380D02*
X166989333Y-147160190D01*
X166751238Y-147636380D02*
X166751238Y-146636380D01*
X167132190Y-146636380D01*
X167227428Y-146684000D01*
X167275047Y-146731619D01*
X167322666Y-146826857D01*
X167322666Y-146969714D01*
X167275047Y-147064952D01*
X167227428Y-147112571D01*
X167132190Y-147160190D01*
X166751238Y-147160190D01*
X167751238Y-147112571D02*
X168084571Y-147112571D01*
X168227428Y-147636380D02*
X167751238Y-147636380D01*
X167751238Y-146636380D01*
X168227428Y-146636380D01*
X168989333Y-147112571D02*
X168656000Y-147112571D01*
X168656000Y-147636380D02*
X168656000Y-146636380D01*
X169132190Y-146636380D01*
X169656000Y-146636380D02*
X169656000Y-146874476D01*
X169417904Y-146779238D02*
X169656000Y-146874476D01*
X169894095Y-146779238D01*
X169513142Y-147064952D02*
X169656000Y-146874476D01*
X169798857Y-147064952D01*
X170417904Y-146636380D02*
X170417904Y-146874476D01*
X170179809Y-146779238D02*
X170417904Y-146874476D01*
X170656000Y-146779238D01*
X170275047Y-147064952D02*
X170417904Y-146874476D01*
X170560761Y-147064952D01*
G04 #@! TO.C,C3*
X147550142Y-72175666D02*
X147597761Y-72223285D01*
X147645380Y-72366142D01*
X147645380Y-72461380D01*
X147597761Y-72604238D01*
X147502523Y-72699476D01*
X147407285Y-72747095D01*
X147216809Y-72794714D01*
X147073952Y-72794714D01*
X146883476Y-72747095D01*
X146788238Y-72699476D01*
X146693000Y-72604238D01*
X146645380Y-72461380D01*
X146645380Y-72366142D01*
X146693000Y-72223285D01*
X146740619Y-72175666D01*
X146645380Y-71842333D02*
X146645380Y-71223285D01*
X147026333Y-71556619D01*
X147026333Y-71413761D01*
X147073952Y-71318523D01*
X147121571Y-71270904D01*
X147216809Y-71223285D01*
X147454904Y-71223285D01*
X147550142Y-71270904D01*
X147597761Y-71318523D01*
X147645380Y-71413761D01*
X147645380Y-71699476D01*
X147597761Y-71794714D01*
X147550142Y-71842333D01*
G04 #@! TO.C,C1*
X126198333Y-64746142D02*
X126150714Y-64793761D01*
X126007857Y-64841380D01*
X125912619Y-64841380D01*
X125769761Y-64793761D01*
X125674523Y-64698523D01*
X125626904Y-64603285D01*
X125579285Y-64412809D01*
X125579285Y-64269952D01*
X125626904Y-64079476D01*
X125674523Y-63984238D01*
X125769761Y-63889000D01*
X125912619Y-63841380D01*
X126007857Y-63841380D01*
X126150714Y-63889000D01*
X126198333Y-63936619D01*
X127150714Y-64841380D02*
X126579285Y-64841380D01*
X126865000Y-64841380D02*
X126865000Y-63841380D01*
X126769761Y-63984238D01*
X126674523Y-64079476D01*
X126579285Y-64127095D01*
G04 #@! TO.C,C2*
X145883333Y-65762142D02*
X145835714Y-65809761D01*
X145692857Y-65857380D01*
X145597619Y-65857380D01*
X145454761Y-65809761D01*
X145359523Y-65714523D01*
X145311904Y-65619285D01*
X145264285Y-65428809D01*
X145264285Y-65285952D01*
X145311904Y-65095476D01*
X145359523Y-65000238D01*
X145454761Y-64905000D01*
X145597619Y-64857380D01*
X145692857Y-64857380D01*
X145835714Y-64905000D01*
X145883333Y-64952619D01*
X146264285Y-64952619D02*
X146311904Y-64905000D01*
X146407142Y-64857380D01*
X146645238Y-64857380D01*
X146740476Y-64905000D01*
X146788095Y-64952619D01*
X146835714Y-65047857D01*
X146835714Y-65143095D01*
X146788095Y-65285952D01*
X146216666Y-65857380D01*
X146835714Y-65857380D01*
G04 #@! TO.C,C4*
X126198333Y-61825142D02*
X126150714Y-61872761D01*
X126007857Y-61920380D01*
X125912619Y-61920380D01*
X125769761Y-61872761D01*
X125674523Y-61777523D01*
X125626904Y-61682285D01*
X125579285Y-61491809D01*
X125579285Y-61348952D01*
X125626904Y-61158476D01*
X125674523Y-61063238D01*
X125769761Y-60968000D01*
X125912619Y-60920380D01*
X126007857Y-60920380D01*
X126150714Y-60968000D01*
X126198333Y-61015619D01*
X127055476Y-61253714D02*
X127055476Y-61920380D01*
X126817380Y-60872761D02*
X126579285Y-61587047D01*
X127198333Y-61587047D01*
G04 #@! TO.C,C5*
X150471142Y-141858666D02*
X150518761Y-141906285D01*
X150566380Y-142049142D01*
X150566380Y-142144380D01*
X150518761Y-142287238D01*
X150423523Y-142382476D01*
X150328285Y-142430095D01*
X150137809Y-142477714D01*
X149994952Y-142477714D01*
X149804476Y-142430095D01*
X149709238Y-142382476D01*
X149614000Y-142287238D01*
X149566380Y-142144380D01*
X149566380Y-142049142D01*
X149614000Y-141906285D01*
X149661619Y-141858666D01*
X149566380Y-140953904D02*
X149566380Y-141430095D01*
X150042571Y-141477714D01*
X149994952Y-141430095D01*
X149947333Y-141334857D01*
X149947333Y-141096761D01*
X149994952Y-141001523D01*
X150042571Y-140953904D01*
X150137809Y-140906285D01*
X150375904Y-140906285D01*
X150471142Y-140953904D01*
X150518761Y-141001523D01*
X150566380Y-141096761D01*
X150566380Y-141334857D01*
X150518761Y-141430095D01*
X150471142Y-141477714D01*
G04 #@! TO.C,C6*
X123166142Y-144311666D02*
X123213761Y-144359285D01*
X123261380Y-144502142D01*
X123261380Y-144597380D01*
X123213761Y-144740238D01*
X123118523Y-144835476D01*
X123023285Y-144883095D01*
X122832809Y-144930714D01*
X122689952Y-144930714D01*
X122499476Y-144883095D01*
X122404238Y-144835476D01*
X122309000Y-144740238D01*
X122261380Y-144597380D01*
X122261380Y-144502142D01*
X122309000Y-144359285D01*
X122356619Y-144311666D01*
X122261380Y-143454523D02*
X122261380Y-143645000D01*
X122309000Y-143740238D01*
X122356619Y-143787857D01*
X122499476Y-143883095D01*
X122689952Y-143930714D01*
X123070904Y-143930714D01*
X123166142Y-143883095D01*
X123213761Y-143835476D01*
X123261380Y-143740238D01*
X123261380Y-143549761D01*
X123213761Y-143454523D01*
X123166142Y-143406904D01*
X123070904Y-143359285D01*
X122832809Y-143359285D01*
X122737571Y-143406904D01*
X122689952Y-143454523D01*
X122642333Y-143549761D01*
X122642333Y-143740238D01*
X122689952Y-143835476D01*
X122737571Y-143883095D01*
X122832809Y-143930714D01*
G04 #@! TO.C,C7*
X154408142Y-133389666D02*
X154455761Y-133437285D01*
X154503380Y-133580142D01*
X154503380Y-133675380D01*
X154455761Y-133818238D01*
X154360523Y-133913476D01*
X154265285Y-133961095D01*
X154074809Y-134008714D01*
X153931952Y-134008714D01*
X153741476Y-133961095D01*
X153646238Y-133913476D01*
X153551000Y-133818238D01*
X153503380Y-133675380D01*
X153503380Y-133580142D01*
X153551000Y-133437285D01*
X153598619Y-133389666D01*
X153503380Y-133056333D02*
X153503380Y-132389666D01*
X154503380Y-132818238D01*
G04 #@! TO.C,C8*
X158345142Y-133389666D02*
X158392761Y-133437285D01*
X158440380Y-133580142D01*
X158440380Y-133675380D01*
X158392761Y-133818238D01*
X158297523Y-133913476D01*
X158202285Y-133961095D01*
X158011809Y-134008714D01*
X157868952Y-134008714D01*
X157678476Y-133961095D01*
X157583238Y-133913476D01*
X157488000Y-133818238D01*
X157440380Y-133675380D01*
X157440380Y-133580142D01*
X157488000Y-133437285D01*
X157535619Y-133389666D01*
X157868952Y-132818238D02*
X157821333Y-132913476D01*
X157773714Y-132961095D01*
X157678476Y-133008714D01*
X157630857Y-133008714D01*
X157535619Y-132961095D01*
X157488000Y-132913476D01*
X157440380Y-132818238D01*
X157440380Y-132627761D01*
X157488000Y-132532523D01*
X157535619Y-132484904D01*
X157630857Y-132437285D01*
X157678476Y-132437285D01*
X157773714Y-132484904D01*
X157821333Y-132532523D01*
X157868952Y-132627761D01*
X157868952Y-132818238D01*
X157916571Y-132913476D01*
X157964190Y-132961095D01*
X158059428Y-133008714D01*
X158249904Y-133008714D01*
X158345142Y-132961095D01*
X158392761Y-132913476D01*
X158440380Y-132818238D01*
X158440380Y-132627761D01*
X158392761Y-132532523D01*
X158345142Y-132484904D01*
X158249904Y-132437285D01*
X158059428Y-132437285D01*
X157964190Y-132484904D01*
X157916571Y-132532523D01*
X157868952Y-132627761D01*
G04 #@! TO.C,C9*
X146661142Y-150320666D02*
X146708761Y-150368285D01*
X146756380Y-150511142D01*
X146756380Y-150606380D01*
X146708761Y-150749238D01*
X146613523Y-150844476D01*
X146518285Y-150892095D01*
X146327809Y-150939714D01*
X146184952Y-150939714D01*
X145994476Y-150892095D01*
X145899238Y-150844476D01*
X145804000Y-150749238D01*
X145756380Y-150606380D01*
X145756380Y-150511142D01*
X145804000Y-150368285D01*
X145851619Y-150320666D01*
X146756380Y-149844476D02*
X146756380Y-149654000D01*
X146708761Y-149558761D01*
X146661142Y-149511142D01*
X146518285Y-149415904D01*
X146327809Y-149368285D01*
X145946857Y-149368285D01*
X145851619Y-149415904D01*
X145804000Y-149463523D01*
X145756380Y-149558761D01*
X145756380Y-149749238D01*
X145804000Y-149844476D01*
X145851619Y-149892095D01*
X145946857Y-149939714D01*
X146184952Y-149939714D01*
X146280190Y-149892095D01*
X146327809Y-149844476D01*
X146375428Y-149749238D01*
X146375428Y-149558761D01*
X146327809Y-149463523D01*
X146280190Y-149415904D01*
X146184952Y-149368285D01*
G04 #@! TO.C,C10*
X150471142Y-150756857D02*
X150518761Y-150804476D01*
X150566380Y-150947333D01*
X150566380Y-151042571D01*
X150518761Y-151185428D01*
X150423523Y-151280666D01*
X150328285Y-151328285D01*
X150137809Y-151375904D01*
X149994952Y-151375904D01*
X149804476Y-151328285D01*
X149709238Y-151280666D01*
X149614000Y-151185428D01*
X149566380Y-151042571D01*
X149566380Y-150947333D01*
X149614000Y-150804476D01*
X149661619Y-150756857D01*
X150566380Y-149804476D02*
X150566380Y-150375904D01*
X150566380Y-150090190D02*
X149566380Y-150090190D01*
X149709238Y-150185428D01*
X149804476Y-150280666D01*
X149852095Y-150375904D01*
X149566380Y-149185428D02*
X149566380Y-149090190D01*
X149614000Y-148994952D01*
X149661619Y-148947333D01*
X149756857Y-148899714D01*
X149947333Y-148852095D01*
X150185428Y-148852095D01*
X150375904Y-148899714D01*
X150471142Y-148947333D01*
X150518761Y-148994952D01*
X150566380Y-149090190D01*
X150566380Y-149185428D01*
X150518761Y-149280666D01*
X150471142Y-149328285D01*
X150375904Y-149375904D01*
X150185428Y-149423523D01*
X149947333Y-149423523D01*
X149756857Y-149375904D01*
X149661619Y-149328285D01*
X149614000Y-149280666D01*
X149566380Y-149185428D01*
G04 #@! TO.C,D1*
X153233380Y-70461095D02*
X152233380Y-70461095D01*
X152233380Y-70223000D01*
X152281000Y-70080142D01*
X152376238Y-69984904D01*
X152471476Y-69937285D01*
X152661952Y-69889666D01*
X152804809Y-69889666D01*
X152995285Y-69937285D01*
X153090523Y-69984904D01*
X153185761Y-70080142D01*
X153233380Y-70223000D01*
X153233380Y-70461095D01*
X153233380Y-68937285D02*
X153233380Y-69508714D01*
X153233380Y-69223000D02*
X152233380Y-69223000D01*
X152376238Y-69318238D01*
X152471476Y-69413476D01*
X152519095Y-69508714D01*
X153763380Y-66174904D02*
X152763380Y-66174904D01*
X153763380Y-65603476D02*
X153191952Y-66032047D01*
X152763380Y-65603476D02*
X153334809Y-66174904D01*
G04 #@! TO.C,R1*
X156932333Y-77922380D02*
X156599000Y-77446190D01*
X156360904Y-77922380D02*
X156360904Y-76922380D01*
X156741857Y-76922380D01*
X156837095Y-76970000D01*
X156884714Y-77017619D01*
X156932333Y-77112857D01*
X156932333Y-77255714D01*
X156884714Y-77350952D01*
X156837095Y-77398571D01*
X156741857Y-77446190D01*
X156360904Y-77446190D01*
X157884714Y-77922380D02*
X157313285Y-77922380D01*
X157599000Y-77922380D02*
X157599000Y-76922380D01*
X157503761Y-77065238D01*
X157408523Y-77160476D01*
X157313285Y-77208095D01*
G04 #@! TO.C,R2*
X159583380Y-71159666D02*
X159107190Y-71493000D01*
X159583380Y-71731095D02*
X158583380Y-71731095D01*
X158583380Y-71350142D01*
X158631000Y-71254904D01*
X158678619Y-71207285D01*
X158773857Y-71159666D01*
X158916714Y-71159666D01*
X159011952Y-71207285D01*
X159059571Y-71254904D01*
X159107190Y-71350142D01*
X159107190Y-71731095D01*
X158678619Y-70778714D02*
X158631000Y-70731095D01*
X158583380Y-70635857D01*
X158583380Y-70397761D01*
X158631000Y-70302523D01*
X158678619Y-70254904D01*
X158773857Y-70207285D01*
X158869095Y-70207285D01*
X159011952Y-70254904D01*
X159583380Y-70826333D01*
X159583380Y-70207285D01*
G04 #@! TO.C,R3*
X156535380Y-71159666D02*
X156059190Y-71493000D01*
X156535380Y-71731095D02*
X155535380Y-71731095D01*
X155535380Y-71350142D01*
X155583000Y-71254904D01*
X155630619Y-71207285D01*
X155725857Y-71159666D01*
X155868714Y-71159666D01*
X155963952Y-71207285D01*
X156011571Y-71254904D01*
X156059190Y-71350142D01*
X156059190Y-71731095D01*
X155535380Y-70826333D02*
X155535380Y-70207285D01*
X155916333Y-70540619D01*
X155916333Y-70397761D01*
X155963952Y-70302523D01*
X156011571Y-70254904D01*
X156106809Y-70207285D01*
X156344904Y-70207285D01*
X156440142Y-70254904D01*
X156487761Y-70302523D01*
X156535380Y-70397761D01*
X156535380Y-70683476D01*
X156487761Y-70778714D01*
X156440142Y-70826333D01*
G04 #@! TO.C,R4*
X163012380Y-71159666D02*
X162536190Y-71493000D01*
X163012380Y-71731095D02*
X162012380Y-71731095D01*
X162012380Y-71350142D01*
X162060000Y-71254904D01*
X162107619Y-71207285D01*
X162202857Y-71159666D01*
X162345714Y-71159666D01*
X162440952Y-71207285D01*
X162488571Y-71254904D01*
X162536190Y-71350142D01*
X162536190Y-71731095D01*
X162345714Y-70302523D02*
X163012380Y-70302523D01*
X161964761Y-70540619D02*
X162679047Y-70778714D01*
X162679047Y-70159666D01*
G04 #@! TO.C,L2*
X165695333Y-128087380D02*
X165219142Y-128087380D01*
X165219142Y-127087380D01*
X165981047Y-127182619D02*
X166028666Y-127135000D01*
X166123904Y-127087380D01*
X166362000Y-127087380D01*
X166457238Y-127135000D01*
X166504857Y-127182619D01*
X166552476Y-127277857D01*
X166552476Y-127373095D01*
X166504857Y-127515952D01*
X165933428Y-128087380D01*
X166552476Y-128087380D01*
G04 #@! TO.C,C11*
X150471142Y-133778857D02*
X150518761Y-133826476D01*
X150566380Y-133969333D01*
X150566380Y-134064571D01*
X150518761Y-134207428D01*
X150423523Y-134302666D01*
X150328285Y-134350285D01*
X150137809Y-134397904D01*
X149994952Y-134397904D01*
X149804476Y-134350285D01*
X149709238Y-134302666D01*
X149614000Y-134207428D01*
X149566380Y-134064571D01*
X149566380Y-133969333D01*
X149614000Y-133826476D01*
X149661619Y-133778857D01*
X150566380Y-132826476D02*
X150566380Y-133397904D01*
X150566380Y-133112190D02*
X149566380Y-133112190D01*
X149709238Y-133207428D01*
X149804476Y-133302666D01*
X149852095Y-133397904D01*
X150566380Y-131874095D02*
X150566380Y-132445523D01*
X150566380Y-132159809D02*
X149566380Y-132159809D01*
X149709238Y-132255047D01*
X149804476Y-132350285D01*
X149852095Y-132445523D01*
G04 #@! TO.C,TP1*
X168410095Y-60827380D02*
X168981523Y-60827380D01*
X168695809Y-61827380D02*
X168695809Y-60827380D01*
X169314857Y-61827380D02*
X169314857Y-60827380D01*
X169695809Y-60827380D01*
X169791047Y-60875000D01*
X169838666Y-60922619D01*
X169886285Y-61017857D01*
X169886285Y-61160714D01*
X169838666Y-61255952D01*
X169791047Y-61303571D01*
X169695809Y-61351190D01*
X169314857Y-61351190D01*
X170838666Y-61827380D02*
X170267238Y-61827380D01*
X170552952Y-61827380D02*
X170552952Y-60827380D01*
X170457714Y-60970238D01*
X170362476Y-61065476D01*
X170267238Y-61113095D01*
G04 #@! TO.C,TP2*
X156091095Y-137662380D02*
X156662523Y-137662380D01*
X156376809Y-138662380D02*
X156376809Y-137662380D01*
X156995857Y-138662380D02*
X156995857Y-137662380D01*
X157376809Y-137662380D01*
X157472047Y-137710000D01*
X157519666Y-137757619D01*
X157567285Y-137852857D01*
X157567285Y-137995714D01*
X157519666Y-138090952D01*
X157472047Y-138138571D01*
X157376809Y-138186190D01*
X156995857Y-138186190D01*
X157948238Y-137757619D02*
X157995857Y-137710000D01*
X158091095Y-137662380D01*
X158329190Y-137662380D01*
X158424428Y-137710000D01*
X158472047Y-137757619D01*
X158519666Y-137852857D01*
X158519666Y-137948095D01*
X158472047Y-138090952D01*
X157900619Y-138662380D01*
X158519666Y-138662380D01*
G04 #@! TO.C,TP3*
X152408095Y-137662380D02*
X152979523Y-137662380D01*
X152693809Y-138662380D02*
X152693809Y-137662380D01*
X153312857Y-138662380D02*
X153312857Y-137662380D01*
X153693809Y-137662380D01*
X153789047Y-137710000D01*
X153836666Y-137757619D01*
X153884285Y-137852857D01*
X153884285Y-137995714D01*
X153836666Y-138090952D01*
X153789047Y-138138571D01*
X153693809Y-138186190D01*
X153312857Y-138186190D01*
X154217619Y-137662380D02*
X154836666Y-137662380D01*
X154503333Y-138043333D01*
X154646190Y-138043333D01*
X154741428Y-138090952D01*
X154789047Y-138138571D01*
X154836666Y-138233809D01*
X154836666Y-138471904D01*
X154789047Y-138567142D01*
X154741428Y-138614761D01*
X154646190Y-138662380D01*
X154360476Y-138662380D01*
X154265238Y-138614761D01*
X154217619Y-138567142D01*
G04 #@! TO.C,REF\002A\002A*
X123888666Y-147636380D02*
X123555333Y-147160190D01*
X123317238Y-147636380D02*
X123317238Y-146636380D01*
X123698190Y-146636380D01*
X123793428Y-146684000D01*
X123841047Y-146731619D01*
X123888666Y-146826857D01*
X123888666Y-146969714D01*
X123841047Y-147064952D01*
X123793428Y-147112571D01*
X123698190Y-147160190D01*
X123317238Y-147160190D01*
X124317238Y-147112571D02*
X124650571Y-147112571D01*
X124793428Y-147636380D02*
X124317238Y-147636380D01*
X124317238Y-146636380D01*
X124793428Y-146636380D01*
X125555333Y-147112571D02*
X125222000Y-147112571D01*
X125222000Y-147636380D02*
X125222000Y-146636380D01*
X125698190Y-146636380D01*
X126222000Y-146636380D02*
X126222000Y-146874476D01*
X125983904Y-146779238D02*
X126222000Y-146874476D01*
X126460095Y-146779238D01*
X126079142Y-147064952D02*
X126222000Y-146874476D01*
X126364857Y-147064952D01*
X126983904Y-146636380D02*
X126983904Y-146874476D01*
X126745809Y-146779238D02*
X126983904Y-146874476D01*
X127222000Y-146779238D01*
X126841047Y-147064952D02*
X126983904Y-146874476D01*
X127126761Y-147064952D01*
G04 #@! TD*
M02*
