<?xml version="1.0" encoding="UTF-8" standalone="no"?>
<!-- Created with Inkscape (http://www.inkscape.org/) -->

<svg
   xmlns:dc="http://purl.org/dc/elements/1.1/"
   xmlns:cc="http://creativecommons.org/ns#"
   xmlns:rdf="http://www.w3.org/1999/02/22-rdf-syntax-ns#"
   xmlns:svg="http://www.w3.org/2000/svg"
   xmlns="http://www.w3.org/2000/svg"
   xmlns:sodipodi="http://sodipodi.sourceforge.net/DTD/sodipodi-0.dtd"
   xmlns:inkscape="http://www.inkscape.org/namespaces/inkscape"
   width="210mm"
   height="297mm"
   viewBox="0 0 210 297"
   version="1.1"
   id="svg8"
   inkscape:version="0.92.2 5c3e80d, 2017-08-06"
   sodipodi:docname="metallic_beat_panel.svg">
  <defs
     id="defs2">
    <marker
       inkscape:stockid="Tail"
       orient="auto"
       refY="0.0"
       refX="0.0"
       id="marker5332"
       style="overflow:visible"
       inkscape:isstock="true">
      <g
         id="g5330"
         transform="scale(-1.2)"
         style="stroke:#000000;stroke-opacity:1;fill:#000000;fill-opacity:1">
        <path
           id="path5318"
           d="M -3.8048674,-3.9585227 L 0.54352094,0"
           style="fill:#000000;fill-rule:evenodd;stroke:#000000;stroke-width:0.8;stroke-linecap:round;stroke-opacity:1;fill-opacity:1" />
        <path
           id="path5320"
           d="M -1.2866832,-3.9585227 L 3.0617053,0"
           style="fill:#000000;fill-rule:evenodd;stroke:#000000;stroke-width:0.8;stroke-linecap:round;stroke-opacity:1;fill-opacity:1" />
        <path
           id="path5322"
           d="M 1.3053582,-3.9585227 L 5.6537466,0"
           style="fill:#000000;fill-rule:evenodd;stroke:#000000;stroke-width:0.8;stroke-linecap:round;stroke-opacity:1;fill-opacity:1" />
        <path
           id="path5324"
           d="M -3.8048674,4.1775838 L 0.54352094,0.21974226"
           style="fill:#000000;fill-rule:evenodd;stroke:#000000;stroke-width:0.8;stroke-linecap:round;stroke-opacity:1;fill-opacity:1" />
        <path
           id="path5326"
           d="M -1.2866832,4.1775838 L 3.0617053,0.21974226"
           style="fill:#000000;fill-rule:evenodd;stroke:#000000;stroke-width:0.8;stroke-linecap:round;stroke-opacity:1;fill-opacity:1" />
        <path
           id="path5328"
           d="M 1.3053582,4.1775838 L 5.6537466,0.21974226"
           style="fill:#000000;fill-rule:evenodd;stroke:#000000;stroke-width:0.8;stroke-linecap:round;stroke-opacity:1;fill-opacity:1" />
      </g>
    </marker>
    <marker
       inkscape:stockid="Tail"
       orient="auto"
       refY="0.0"
       refX="0.0"
       id="Tail"
       style="overflow:visible"
       inkscape:isstock="true">
      <g
         id="g948"
         transform="scale(-1.2)"
         style="stroke:#000000;stroke-opacity:1;fill:#000000;fill-opacity:1">
        <path
           id="path936"
           d="M -3.8048674,-3.9585227 L 0.54352094,0"
           style="fill:#000000;fill-rule:evenodd;stroke:#000000;stroke-width:0.8;stroke-linecap:round;stroke-opacity:1;fill-opacity:1" />
        <path
           id="path938"
           d="M -1.2866832,-3.9585227 L 3.0617053,0"
           style="fill:#000000;fill-rule:evenodd;stroke:#000000;stroke-width:0.8;stroke-linecap:round;stroke-opacity:1;fill-opacity:1" />
        <path
           id="path940"
           d="M 1.3053582,-3.9585227 L 5.6537466,0"
           style="fill:#000000;fill-rule:evenodd;stroke:#000000;stroke-width:0.8;stroke-linecap:round;stroke-opacity:1;fill-opacity:1" />
        <path
           id="path942"
           d="M -3.8048674,4.1775838 L 0.54352094,0.21974226"
           style="fill:#000000;fill-rule:evenodd;stroke:#000000;stroke-width:0.8;stroke-linecap:round;stroke-opacity:1;fill-opacity:1" />
        <path
           id="path944"
           d="M -1.2866832,4.1775838 L 3.0617053,0.21974226"
           style="fill:#000000;fill-rule:evenodd;stroke:#000000;stroke-width:0.8;stroke-linecap:round;stroke-opacity:1;fill-opacity:1" />
        <path
           id="path5092"
           d="M 1.3053582,4.1775838 L 5.6537466,0.21974226"
           style="fill:#000000;fill-rule:evenodd;stroke:#000000;stroke-width:0.8;stroke-linecap:round;stroke-opacity:1;fill-opacity:1" />
      </g>
    </marker>
    <marker
       inkscape:stockid="Arrow1Mstart"
       orient="auto"
       refY="0.0"
       refX="0.0"
       id="Arrow1Mstart"
       style="overflow:visible"
       inkscape:isstock="true">
      <path
         id="path906"
         d="M 0.0,0.0 L 5.0,-5.0 L -12.5,0.0 L 5.0,5.0 L 0.0,0.0 z "
         style="fill-rule:evenodd;stroke:#e800ed;stroke-width:1pt;stroke-opacity:1;fill:#f500f5;fill-opacity:1"
         transform="scale(0.4) translate(10,0)" />
    </marker>
    <filter
       inkscape:menu-tooltip="In and out glow with a possible offset and colorizable flood"
       inkscape:menu="Shadows and Glows"
       inkscape:label="Cutout Glow"
       style="color-interpolation-filters:sRGB;"
       id="filter915">
      <feOffset
         dy="-100"
         dx="-100"
         id="feOffset905" />
      <feGaussianBlur
         stdDeviation="0.01"
         result="blur"
         id="feGaussianBlur907" />
      <feFlood
         flood-color="rgb(255,255,255)"
         flood-opacity="0.28000000000000003"
         result="flood"
         id="feFlood909" />
      <feComposite
         in="flood"
         in2="SourceGraphic"
         operator="over"
         result="composite"
         id="feComposite911" />
      <feBlend
         in="blur"
         in2="composite"
         mode="normal"
         id="feBlend913" />
    </filter>
  </defs>
  <sodipodi:namedview
     id="base"
     pagecolor="#ffffff"
     bordercolor="#666666"
     borderopacity="1.0"
     inkscape:pageopacity="0.0"
     inkscape:pageshadow="2"
     inkscape:zoom="2"
     inkscape:cx="35.923731"
     inkscape:cy="316.27788"
     inkscape:document-units="mm"
     inkscape:current-layer="g1053"
     showgrid="true"
     inkscape:window-width="1127"
     inkscape:window-height="921"
     inkscape:window-x="704"
     inkscape:window-y="71"
     inkscape:window-maximized="0"
     inkscape:measure-start="61.5,64"
     inkscape:measure-end="97,64"
     inkscape:snap-to-guides="true"
     inkscape:snap-grids="true"
     showguides="true"
     inkscape:snap-global="false"
     objecttolerance="20">
    <inkscape:grid
       type="xygrid"
       id="grid922"
       dotted="true" />
  </sodipodi:namedview>
  <metadata
     id="metadata5">
    <rdf:RDF>
      <cc:Work
         rdf:about="">
        <dc:format>image/svg+xml</dc:format>
        <dc:type
           rdf:resource="http://purl.org/dc/dcmitype/StillImage" />
        <dc:title />
      </cc:Work>
    </rdf:RDF>
  </metadata>
  <g
     inkscape:groupmode="layer"
     id="layer7"
     inkscape:label="holes"
     style="display:inline">
    <circle
       r="3.3725126"
       cy="260.64609"
       cx="13.006282"
       id="circle4689"
       style="opacity:1;fill:none;fill-opacity:1;stroke:#ff0000;stroke-width:0.02645833;stroke-miterlimit:4;stroke-dasharray:none;stroke-opacity:1" />
    <circle
       style="opacity:1;fill:none;fill-opacity:1;stroke:#ff0000;stroke-width:0.02645833;stroke-miterlimit:4;stroke-dasharray:none;stroke-opacity:1"
       id="circle4691"
       cx="13.006282"
       cy="-279.98712"
       r="3.3725126"
       transform="scale(1,-1)" />
    <circle
       style="fill:none;fill-opacity:1;stroke:#ff0000;stroke-width:0.026;stroke-miterlimit:4;stroke-dasharray:none;stroke-opacity:1"
       id="path935"
       cx="6.2706275"
       cy="270.43585"
       r="1.0054166" />
    <circle
       style="display:inline;fill:none;fill-opacity:1;stroke:#ff0000;stroke-width:0.02645833;stroke-miterlimit:4;stroke-dasharray:none;stroke-opacity:1"
       id="path1236"
       cx="17.850159"
       cy="201.90894"
       r="4.0009871" />
    <circle
       style="display:inline;opacity:1;fill:none;fill-opacity:1;stroke:#ff0000;stroke-width:0.026;stroke-miterlimit:4;stroke-dasharray:none;stroke-opacity:1"
       id="path1214"
       cx="17.832905"
       cy="182.425"
       r="4.0009871" />
    <circle
       r="4.0009871"
       cy="221.38219"
       cx="17.850159"
       id="circle1251"
       style="display:inline;fill:none;fill-opacity:1;stroke:#ff0000;stroke-width:0.02645833;stroke-miterlimit:4;stroke-dasharray:none;stroke-opacity:1" />
    <circle
       r="2.9793854"
       style="display:inline;fill:none;fill-opacity:1;stroke:#ff0000;stroke-width:0.04122937;stroke-miterlimit:4;stroke-dasharray:none;stroke-opacity:1"
       id="circle977"
       cx="6.6533332"
       cy="228.75212" />
    <circle
       cy="209.30518"
       cx="6.6533332"
       id="circle981"
       style="display:inline;fill:none;fill-opacity:1;stroke:#ff0000;stroke-width:0.04122937;stroke-miterlimit:4;stroke-dasharray:none;stroke-opacity:1"
       r="2.9793854" />
    <circle
       r="2.9793854"
       style="display:inline;fill:none;fill-opacity:1;stroke:#ff0000;stroke-width:0.04122937;stroke-miterlimit:4;stroke-dasharray:none;stroke-opacity:1"
       id="circle983"
       cx="6.6533332"
       cy="189.85823" />
  </g>
  <g
     inkscape:groupmode="layer"
     id="layer4"
     inkscape:label="frame"
     style="display:inline">
    <g
       inkscape:groupmode="layer"
       id="layer6"
       inkscape:label="measurements"
       style="display:inline" />
    <rect
       style="fill:none;fill-opacity:1;stroke:#ff0000;stroke-width:0.0208159;stroke-miterlimit:4;stroke-dasharray:none;stroke-dashoffset:0;stroke-opacity:1"
       id="rect970"
       width="24.979185"
       height="128.47919"
       x="0.45082206"
       y="168.52361" />
  </g>
  <g
     inkscape:groupmode="layer"
     id="layer3"
     inkscape:label="screws"
     style="display:inline">
    <ellipse
       style="fill:none;fill-opacity:1;stroke:#ff0000;stroke-width:0.02657302;stroke-miterlimit:4;stroke-dasharray:none;stroke-opacity:1"
       id="path924"
       cx="7.5387039"
       cy="293.58618"
       rx="1.7552135"
       ry="1.7399799" />
    <circle
       style="fill:none;fill-opacity:1;stroke:#ff0000;stroke-width:0.02430471;stroke-miterlimit:4;stroke-dasharray:none;stroke-opacity:1"
       id="path948"
       cx="7.5384998"
       cy="171.77509"
       r="1.7563477" />
  </g>
  <g
     inkscape:groupmode="layer"
     id="layer8"
     inkscape:label="text"
     style="display:none">
    <text
       xml:space="preserve"
       style="font-style:normal;font-weight:normal;font-size:3.88055563px;line-height:125%;font-family:Sans;letter-spacing:0px;word-spacing:0px;fill:#000000;fill-opacity:1;stroke:none;stroke-width:0.26458332px;stroke-linecap:butt;stroke-linejoin:miter;stroke-opacity:1"
       x="14.696342"
       y="190.67975"
       id="text1293"><tspan
         sodipodi:role="line"
         id="tspan1291"
         x="14.696342"
         y="190.67975"
         style="font-style:normal;font-variant:normal;font-weight:normal;font-stretch:normal;font-size:3.17499995px;font-family:sans-serif;-inkscape-font-specification:sans-serif;stroke-width:0.26458332px">freq</tspan></text>
    <text
       id="text1297"
       y="210.11765"
       x="14.654968"
       style="font-style:normal;font-weight:normal;font-size:3.88055563px;line-height:125%;font-family:Sans;letter-spacing:0px;word-spacing:0px;fill:#000000;fill-opacity:1;stroke:none;stroke-width:0.26458332px;stroke-linecap:butt;stroke-linejoin:miter;stroke-opacity:1"
       xml:space="preserve"><tspan
         style="font-style:normal;font-variant:normal;font-weight:normal;font-stretch:normal;font-size:3.17499995px;font-family:sans-serif;-inkscape-font-specification:sans-serif;fill:#000000;fill-opacity:1;stroke-width:0.26458332px"
         y="210.11765"
         x="14.654968"
         id="tspan1295"
         sodipodi:role="line">freq</tspan></text>
    <text
       xml:space="preserve"
       style="font-style:normal;font-weight:normal;font-size:3.88055563px;line-height:125%;font-family:Sans;letter-spacing:0px;word-spacing:0px;fill:#000000;fill-opacity:1;stroke:none;stroke-width:0.26458332px;stroke-linecap:butt;stroke-linejoin:miter;stroke-opacity:1"
       x="14.730405"
       y="229.58293"
       id="text4990"><tspan
         sodipodi:role="line"
         x="14.730405"
         y="229.58293"
         style="font-style:normal;font-variant:normal;font-weight:normal;font-stretch:normal;font-size:3.17499995px;font-family:sans-serif;-inkscape-font-specification:sans-serif;fill:#000000;fill-opacity:1;stroke-width:0.26458332px"
         id="tspan5004">freq</tspan></text>
    <text
       xml:space="preserve"
       style="font-style:normal;font-weight:normal;font-size:3.88055563px;line-height:125%;font-family:Sans;letter-spacing:0px;word-spacing:0px;fill:#000000;fill-opacity:1;stroke:none;stroke-width:0.26458332px;stroke-linecap:butt;stroke-linejoin:miter;stroke-opacity:1"
       x="14.631195"
       y="174.94617"
       id="text5074"><tspan
         sodipodi:role="line"
         x="14.631195"
         y="174.94617"
         style="font-size:2.82222223px;line-height:2.92981958px;text-align:center;text-anchor:middle;stroke-width:0.26458332px"
         id="tspan981">mb-78</tspan></text>
    <text
       xml:space="preserve"
       style="font-style:normal;font-weight:normal;font-size:3.88055563px;line-height:125%;font-family:Sans;letter-spacing:0px;word-spacing:0px;fill:#000000;fill-opacity:1;stroke:none;stroke-width:0.26458332px;stroke-linecap:butt;stroke-linejoin:miter;stroke-opacity:1"
       x="9.3437681"
       y="268.23047"
       id="text5478"><tspan
         sodipodi:role="line"
         id="tspan5476"
         x="9.3437681"
         y="268.23047"
         style="font-style:normal;font-variant:normal;font-weight:normal;font-stretch:normal;font-size:3.17499995px;font-family:sans-serif;-inkscape-font-specification:sans-serif;fill:#000000;fill-opacity:1;stroke-width:0.26458332px">out</tspan></text>
    <text
       xml:space="preserve"
       style="font-style:normal;font-weight:normal;font-size:3.88055563px;line-height:125%;font-family:Sans;letter-spacing:0px;word-spacing:0px;fill:#000000;fill-opacity:1;stroke:none;stroke-width:0.26458332px;stroke-linecap:butt;stroke-linejoin:miter;stroke-opacity:1"
       x="8.6490917"
       y="287.45892"
       id="text5482"><tspan
         sodipodi:role="line"
         id="tspan5480"
         x="8.6490917"
         y="287.45892"
         style="font-style:normal;font-variant:normal;font-weight:normal;font-stretch:normal;font-size:3.17499995px;font-family:sans-serif;-inkscape-font-specification:sans-serif;fill:#000000;fill-opacity:1;stroke-width:0.26458332px">gate</tspan></text>
    <text
       id="text997"
       y="236.32983"
       x="4.0147786"
       style="font-style:normal;font-weight:normal;font-size:3.88055563px;line-height:125%;font-family:Sans;letter-spacing:0px;word-spacing:0px;fill:#000000;fill-opacity:1;stroke:none;stroke-width:0.26458332px;stroke-linecap:butt;stroke-linejoin:miter;stroke-opacity:1"
       xml:space="preserve"><tspan
         id="tspan995"
         style="font-style:normal;font-variant:normal;font-weight:normal;font-stretch:normal;font-size:3.17499995px;font-family:sans-serif;-inkscape-font-specification:sans-serif;fill:#000000;fill-opacity:1;stroke-width:0.26458332px"
         y="236.32983"
         x="4.0147786"
         sodipodi:role="line">low</tspan></text>
    <text
       xml:space="preserve"
       style="font-style:normal;font-weight:normal;font-size:3.88055563px;line-height:125%;font-family:Sans;letter-spacing:0px;word-spacing:0px;fill:#000000;fill-opacity:1;stroke:none;stroke-width:0.26458332px;stroke-linecap:butt;stroke-linejoin:miter;stroke-opacity:1"
       x="4.0147786"
       y="216.88289"
       id="text1001"><tspan
         sodipodi:role="line"
         x="4.0147786"
         y="216.88289"
         style="font-style:normal;font-variant:normal;font-weight:normal;font-stretch:normal;font-size:3.17499995px;font-family:sans-serif;-inkscape-font-specification:sans-serif;fill:#000000;fill-opacity:1;stroke-width:0.26458332px"
         id="tspan999">low</tspan></text>
    <text
       id="text1005"
       y="197.30365"
       x="4.0147786"
       style="font-style:normal;font-weight:normal;font-size:3.88055563px;line-height:125%;font-family:Sans;letter-spacing:0px;word-spacing:0px;fill:#000000;fill-opacity:1;stroke:none;stroke-width:0.26458332px;stroke-linecap:butt;stroke-linejoin:miter;stroke-opacity:1"
       xml:space="preserve"><tspan
         id="tspan1003"
         style="font-style:normal;font-variant:normal;font-weight:normal;font-stretch:normal;font-size:3.17499995px;font-family:sans-serif;-inkscape-font-specification:sans-serif;fill:#000000;fill-opacity:1;stroke-width:0.26458332px"
         y="197.30365"
         x="4.0147786"
         sodipodi:role="line">low</tspan></text>
  </g>
  <g
     style="display:inline"
     inkscape:label="text path"
     id="g1053"
     inkscape:groupmode="layer">
    <g
       aria-label="freq"
       style="font-style:normal;font-weight:normal;font-size:3.88055563px;line-height:125%;font-family:Sans;letter-spacing:0px;word-spacing:0px;fill:#000000;fill-opacity:1;stroke:none;stroke-width:0.26458332px;stroke-linecap:butt;stroke-linejoin:miter;stroke-opacity:1"
       id="text1007"
       transform="translate(5.8208336,0.66145835)">
      <path
         d="m 10.05373,188.26749 v 0.2372 H 9.7808784 q -0.153479,0 -0.2139404,0.062 -0.058911,0.062 -0.058911,0.22324 v 0.15348 h 0.4697387 v 0.22169 H 9.5080269 v 1.51464 H 9.2212227 V 189.1651 H 8.9483711 v -0.22169 h 0.2728516 v -0.12092 q 0,-0.28991 0.1348755,-0.42168 0.1348755,-0.13333 0.4278808,-0.13333 z"
         style="font-style:normal;font-variant:normal;font-weight:normal;font-stretch:normal;font-size:3.17499995px;font-family:sans-serif;-inkscape-font-specification:sans-serif;stroke-width:0.26458332px"
         id="path1118"
         inkscape:connector-curvature="0" />
      <path
         d="m 11.297065,189.21007 q -0.04806,-0.0279 -0.10542,-0.0403 -0.05581,-0.0139 -0.124023,-0.0139 -0.241846,0 -0.372071,0.15813 -0.128674,0.15658 -0.128674,0.45114 v 0.91467 h -0.286804 v -1.73633 h 0.286804 v 0.26975 q 0.08992,-0.15813 0.234094,-0.23409 0.144177,-0.0775 0.350366,-0.0775 0.02946,0 0.06511,0.005 0.03566,0.003 0.07906,0.0109 z"
         style="font-style:normal;font-variant:normal;font-weight:normal;font-stretch:normal;font-size:3.17499995px;font-family:sans-serif;-inkscape-font-specification:sans-serif;stroke-width:0.26458332px"
         id="path1120"
         inkscape:connector-curvature="0" />
      <path
         d="m 13.01944,189.74027 v 0.13953 h -1.311547 q 0.0186,0.29455 0.176733,0.44958 0.15968,0.15348 0.443384,0.15348 0.164331,0 0.31781,-0.0403 0.155029,-0.0403 0.306958,-0.12092 v 0.26975 q -0.153479,0.0651 -0.31471,0.0992 -0.16123,0.0341 -0.327111,0.0341 -0.415479,0 -0.658875,-0.24185 -0.241846,-0.24184 -0.241846,-0.65422 0,-0.42633 0.229444,-0.67593 0.230993,-0.25115 0.621667,-0.25115 0.350366,0 0.553455,0.22635 0.204638,0.22479 0.204638,0.61236 z m -0.285253,-0.0837 q -0.0031,-0.2341 -0.131775,-0.37363 -0.127124,-0.13952 -0.337964,-0.13952 -0.238745,0 -0.382923,0.13487 -0.142626,0.13488 -0.164331,0.37983 z"
         style="font-style:normal;font-variant:normal;font-weight:normal;font-stretch:normal;font-size:3.17499995px;font-family:sans-serif;-inkscape-font-specification:sans-serif;stroke-width:0.26458332px"
         id="path1122"
         inkscape:connector-curvature="0" />
      <path
         d="m 13.661262,189.81313 q 0,0.31471 0.128674,0.49455 0.130225,0.17828 0.356568,0.17828 0.226342,0 0.356567,-0.17828 0.130225,-0.17984 0.130225,-0.49455 0,-0.3147 -0.130225,-0.49299 -0.130225,-0.17983 -0.356567,-0.17983 -0.226343,0 -0.356568,0.17983 -0.128674,0.17829 -0.128674,0.49299 z m 0.972034,0.60617 q -0.08992,0.15503 -0.227894,0.23099 -0.136425,0.0744 -0.328662,0.0744 -0.314709,0 -0.513147,-0.25115 -0.196887,-0.25115 -0.196887,-0.66043 0,-0.40927 0.196887,-0.66042 0.198438,-0.25115 0.513147,-0.25115 0.192237,0 0.328662,0.076 0.137977,0.0744 0.227894,0.22944 v -0.26355 h 0.285253 v 2.39675 h -0.285253 z"
         style="font-style:normal;font-variant:normal;font-weight:normal;font-stretch:normal;font-size:3.17499995px;font-family:sans-serif;-inkscape-font-specification:sans-serif;stroke-width:0.26458332px"
         id="path1124"
         inkscape:connector-curvature="0" />
    </g>
    <g
       aria-label="freq"
       style="font-style:normal;font-weight:normal;font-size:3.88055563px;line-height:125%;font-family:Sans;letter-spacing:0px;word-spacing:0px;fill:#000000;fill-opacity:1;stroke:none;stroke-width:0.26458332px;stroke-linecap:butt;stroke-linejoin:miter;stroke-opacity:1"
       id="text1011"
       transform="translate(5.8208336,0.92604169)">
      <path
         d="m 10.012356,207.70539 v 0.23719 H 9.7395042 q -0.153479,0 -0.2139404,0.062 -0.058911,0.062 -0.058911,0.22324 v 0.15348 h 0.4697387 v 0.22169 H 9.4666527 v 1.51464 H 9.1798485 v -1.51464 H 8.9069969 v -0.22169 h 0.2728516 v -0.12093 q 0,-0.2899 0.1348755,-0.42168 0.1348754,-0.13332 0.4278808,-0.13332 z"
         style="font-style:normal;font-variant:normal;font-weight:normal;font-stretch:normal;font-size:3.17499995px;font-family:sans-serif;-inkscape-font-specification:sans-serif;fill:#000000;fill-opacity:1;stroke-width:0.26458332px"
         id="path1109"
         inkscape:connector-curvature="0" />
      <path
         d="m 11.255691,208.64797 q -0.04806,-0.0279 -0.10542,-0.0403 -0.05581,-0.014 -0.124024,-0.014 -0.241845,0 -0.37207,0.15813 -0.128674,0.15658 -0.128674,0.45113 v 0.91468 h -0.286804 v -1.73633 h 0.286804 v 0.26975 q 0.08992,-0.15813 0.234094,-0.2341 0.144177,-0.0775 0.350366,-0.0775 0.02946,0 0.06511,0.005 0.03566,0.003 0.07906,0.0109 z"
         style="font-style:normal;font-variant:normal;font-weight:normal;font-stretch:normal;font-size:3.17499995px;font-family:sans-serif;-inkscape-font-specification:sans-serif;fill:#000000;fill-opacity:1;stroke-width:0.26458332px"
         id="path1111"
         inkscape:connector-curvature="0" />
      <path
         d="m 12.978066,209.17817 v 0.13952 h -1.311548 q 0.0186,0.29456 0.176734,0.44959 0.15968,0.15348 0.443384,0.15348 0.164331,0 0.31781,-0.0403 0.155029,-0.0403 0.306958,-0.12092 v 0.26975 q -0.153479,0.0651 -0.31471,0.0992 -0.16123,0.0341 -0.327112,0.0341 -0.415478,0 -0.658874,-0.24184 -0.241846,-0.24185 -0.241846,-0.65423 0,-0.42633 0.229444,-0.67592 0.230993,-0.25115 0.621667,-0.25115 0.350366,0 0.553455,0.22634 0.204638,0.22479 0.204638,0.61237 z m -0.285254,-0.0837 q -0.0031,-0.23409 -0.131775,-0.37362 -0.127124,-0.13953 -0.337963,-0.13953 -0.238746,0 -0.382923,0.13488 -0.142627,0.13488 -0.164331,0.37982 z"
         style="font-style:normal;font-variant:normal;font-weight:normal;font-stretch:normal;font-size:3.17499995px;font-family:sans-serif;-inkscape-font-specification:sans-serif;fill:#000000;fill-opacity:1;stroke-width:0.26458332px"
         id="path1113"
         inkscape:connector-curvature="0" />
      <path
         d="m 13.619888,209.25103 q 0,0.31471 0.128674,0.49454 0.130225,0.17829 0.356567,0.17829 0.226343,0 0.356568,-0.17829 0.130224,-0.17983 0.130224,-0.49454 0,-0.31471 -0.130224,-0.49299 -0.130225,-0.17984 -0.356568,-0.17984 -0.226342,0 -0.356567,0.17984 -0.128674,0.17828 -0.128674,0.49299 z m 0.972033,0.60617 q -0.08992,0.15503 -0.227893,0.23099 -0.136426,0.0744 -0.328662,0.0744 -0.314709,0 -0.513147,-0.25114 -0.196887,-0.25115 -0.196887,-0.66043 0,-0.40928 0.196887,-0.66042 0.198438,-0.25115 0.513147,-0.25115 0.192236,0 0.328662,0.076 0.137976,0.0744 0.227893,0.22945 v -0.26355 h 0.285254 v 2.39675 h -0.285254 z"
         style="font-style:normal;font-variant:normal;font-weight:normal;font-stretch:normal;font-size:3.17499995px;font-family:sans-serif;-inkscape-font-specification:sans-serif;fill:#000000;fill-opacity:1;stroke-width:0.26458332px"
         id="path1115"
         inkscape:connector-curvature="0" />
    </g>
    <g
       aria-label="freq"
       style="font-style:normal;font-weight:normal;font-size:3.88055563px;line-height:125%;font-family:Sans;letter-spacing:0px;word-spacing:0px;fill:#000000;fill-opacity:1;stroke:none;stroke-width:0.26458332px;stroke-linecap:butt;stroke-linejoin:miter;stroke-opacity:1"
       id="text1015"
       transform="translate(5.8208336,0.79375002)">
      <path
         d="m 10.087791,227.17068 v 0.23719 H 9.8149399 q -0.153479,0 -0.2139405,0.062 -0.058911,0.062 -0.058911,0.22324 v 0.15348 h 0.4697386 v 0.2217 H 9.5420883 v 1.51463 H 9.2552841 V 228.0683 H 8.9824326 v -0.2217 h 0.2728515 v -0.12092 q 0,-0.2899 0.1348755,-0.42168 0.1348755,-0.13332 0.4278809,-0.13332 z"
         style="font-style:normal;font-variant:normal;font-weight:normal;font-stretch:normal;font-size:3.17499995px;font-family:sans-serif;-inkscape-font-specification:sans-serif;fill:#000000;fill-opacity:1;stroke-width:0.26458332px"
         id="path1100"
         inkscape:connector-curvature="0" />
      <path
         d="m 11.331126,228.11325 q -0.04806,-0.0279 -0.10542,-0.0403 -0.05581,-0.014 -0.124023,-0.014 -0.241846,0 -0.37207,0.15813 -0.128675,0.15658 -0.128675,0.45114 v 0.91467 h -0.286804 v -1.73633 h 0.286804 v 0.26975 q 0.08992,-0.15813 0.234095,-0.23409 0.144177,-0.0775 0.350366,-0.0775 0.02946,0 0.06511,0.005 0.03566,0.003 0.07906,0.0108 z"
         style="font-style:normal;font-variant:normal;font-weight:normal;font-stretch:normal;font-size:3.17499995px;font-family:sans-serif;-inkscape-font-specification:sans-serif;fill:#000000;fill-opacity:1;stroke-width:0.26458332px"
         id="path1102"
         inkscape:connector-curvature="0" />
      <path
         d="m 13.053502,228.64345 v 0.13953 h -1.311548 q 0.0186,0.29456 0.176733,0.44959 0.159681,0.15347 0.443384,0.15347 0.164331,0 0.31781,-0.0403 0.15503,-0.0403 0.306958,-0.12093 v 0.26975 q -0.153479,0.0651 -0.314709,0.0992 -0.161231,0.0341 -0.327112,0.0341 -0.415478,0 -0.658874,-0.24185 -0.241846,-0.24184 -0.241846,-0.65422 0,-0.42633 0.229443,-0.67593 0.230994,-0.25114 0.621668,-0.25114 0.350366,0 0.553454,0.22634 0.204639,0.22479 0.204639,0.61236 z m -0.285254,-0.0837 q -0.0031,-0.2341 -0.131775,-0.37362 -0.127124,-0.13953 -0.337964,-0.13953 -0.238745,0 -0.382922,0.13488 -0.142627,0.13487 -0.164331,0.37982 z"
         style="font-style:normal;font-variant:normal;font-weight:normal;font-stretch:normal;font-size:3.17499995px;font-family:sans-serif;-inkscape-font-specification:sans-serif;fill:#000000;fill-opacity:1;stroke-width:0.26458332px"
         id="path1104"
         inkscape:connector-curvature="0" />
      <path
         d="m 13.695323,228.71632 q 0,0.31471 0.128675,0.49454 0.130224,0.17828 0.356567,0.17828 0.226343,0 0.356567,-0.17828 0.130225,-0.17983 0.130225,-0.49454 0,-0.31471 -0.130225,-0.493 -0.130224,-0.17983 -0.356567,-0.17983 -0.226343,0 -0.356567,0.17983 -0.128675,0.17829 -0.128675,0.493 z m 0.972034,0.60616 q -0.08992,0.15503 -0.227893,0.231 -0.136426,0.0744 -0.328662,0.0744 -0.31471,0 -0.513147,-0.25115 -0.196887,-0.25114 -0.196887,-0.66042 0,-0.40928 0.196887,-0.66043 0.198437,-0.25114 0.513147,-0.25114 0.192236,0 0.328662,0.076 0.137976,0.0744 0.227893,0.22944 v -0.26355 h 0.285254 v 2.39676 h -0.285254 z"
         style="font-style:normal;font-variant:normal;font-weight:normal;font-stretch:normal;font-size:3.17499995px;font-family:sans-serif;-inkscape-font-specification:sans-serif;fill:#000000;fill-opacity:1;stroke-width:0.26458332px"
         id="path1106"
         inkscape:connector-curvature="0" />
    </g>
    <g
       aria-label="mb-78"
       style="font-style:normal;font-weight:normal;font-size:3.88055563px;line-height:125%;font-family:Sans;letter-spacing:0px;word-spacing:0px;fill:#000000;fill-opacity:1;stroke:none;stroke-width:0.26458332px;stroke-linecap:butt;stroke-linejoin:miter;stroke-opacity:1"
       id="text1019"
       transform="translate(3.1750006,-2.116667)">
      <path
         d="m 11.520963,173.69904 q 0.09508,-0.17087 0.227376,-0.25218 0.132292,-0.0813 0.311437,-0.0813 0.241156,0 0.37207,0.1695 0.130914,0.16812 0.130914,0.47955 v 0.93156 h -0.254937 v -0.92329 q 0,-0.22186 -0.07855,-0.32935 -0.07855,-0.10749 -0.239778,-0.10749 -0.19706,0 -0.311437,0.13092 -0.114377,0.13091 -0.114377,0.35691 v 0.8723 h -0.254937 v -0.92329 q 0,-0.22324 -0.07855,-0.32935 -0.07855,-0.10749 -0.242535,-0.10749 -0.194303,0 -0.30868,0.13229 -0.114378,0.13092 -0.114378,0.35554 v 0.8723 h -0.254937 v -1.54341 h 0.254937 v 0.23978 q 0.08682,-0.14194 0.208084,-0.20946 0.121267,-0.0675 0.28801,-0.0675 0.168121,0 0.285254,0.0854 0.118511,0.0854 0.175011,0.24804 z"
         style="font-size:2.82222223px;line-height:2.92981958px;text-align:center;text-anchor:middle;stroke-width:0.26458332px"
         id="path1089"
         inkscape:connector-curvature="0" />
      <path
         d="m 14.177821,174.17584 q 0,-0.27974 -0.115756,-0.43821 -0.114377,-0.15985 -0.31557,-0.15985 -0.201194,0 -0.316949,0.15985 -0.114377,0.15847 -0.114377,0.43821 0,0.27975 0.114377,0.4396 0.115755,0.15847 0.316949,0.15847 0.201193,0 0.31557,-0.15847 0.115756,-0.15985 0.115756,-0.4396 z m -0.862652,-0.53881 q 0.07993,-0.1378 0.201193,-0.20395 0.122646,-0.0675 0.292144,-0.0675 0.28112,0 0.456131,0.22324 0.176389,0.22324 0.176389,0.58704 0,0.36381 -0.176389,0.58705 -0.175011,0.22324 -0.456131,0.22324 -0.169498,0 -0.292144,-0.0661 -0.121267,-0.0675 -0.201193,-0.20532 v 0.23151 h -0.254937 v -2.14423 h 0.254937 z"
         style="font-size:2.82222223px;line-height:2.92981958px;text-align:center;text-anchor:middle;stroke-width:0.26458332px"
         id="path1091"
         inkscape:connector-curvature="0" />
      <path
         d="m 14.73317,174.06009 h 0.742763 v 0.226 H 14.73317 Z"
         style="font-size:2.82222223px;line-height:2.92981958px;text-align:center;text-anchor:middle;stroke-width:0.26458332px"
         id="path1093"
         inkscape:connector-curvature="0" />
      <path
         d="m 15.846625,172.88876 h 1.322917 v 0.11851 l -0.746897,1.9389 h -0.290766 l 0.702799,-1.82315 h -0.988053 z"
         style="font-size:2.82222223px;line-height:2.92981958px;text-align:center;text-anchor:middle;stroke-width:0.26458332px"
         id="path1095"
         inkscape:connector-curvature="0" />
      <path
         d="m 18.309179,173.96914 q -0.198437,0 -0.312815,0.10611 -0.112999,0.10611 -0.112999,0.29214 0,0.18604 0.112999,0.29215 0.114378,0.1061 0.312815,0.1061 0.198438,0 0.312815,-0.1061 0.114377,-0.10749 0.114377,-0.29215 0,-0.18603 -0.114377,-0.29214 -0.112999,-0.10611 -0.312815,-0.10611 z m -0.278364,-0.11851 q -0.179145,-0.0441 -0.279741,-0.16675 -0.09922,-0.12264 -0.09922,-0.29903 0,-0.24667 0.175011,-0.38999 0.176389,-0.14331 0.482313,-0.14331 0.307303,0 0.482314,0.14331 0.17501,0.14332 0.17501,0.38999 0,0.17639 -0.100596,0.29903 -0.09922,0.12265 -0.276986,0.16675 0.201193,0.0469 0.312815,0.18328 0.112999,0.13642 0.112999,0.33348 0,0.29904 -0.183279,0.45889 -0.181901,0.15985 -0.522277,0.15985 -0.340375,0 -0.523654,-0.15985 -0.181901,-0.15985 -0.181901,-0.45889 0,-0.19706 0.112999,-0.33348 0.112999,-0.13643 0.314192,-0.18328 z m -0.101974,-0.4396 q 0,0.15985 0.09922,0.24943 0.100597,0.0896 0.28112,0.0896 0.179145,0 0.279742,-0.0896 0.101975,-0.0896 0.101975,-0.24943 0,-0.15985 -0.101975,-0.24942 -0.100597,-0.0896 -0.279742,-0.0896 -0.180523,0 -0.28112,0.0896 -0.09922,0.0896 -0.09922,0.24942 z"
         style="font-size:2.82222223px;line-height:2.92981958px;text-align:center;text-anchor:middle;stroke-width:0.26458332px"
         id="path1097"
         inkscape:connector-curvature="0" />
    </g>
    <g
       aria-label="out"
       style="font-style:normal;font-weight:normal;font-size:3.88055563px;line-height:125%;font-family:Sans;letter-spacing:0px;word-spacing:0px;fill:#000000;fill-opacity:1;stroke:none;stroke-width:0.26458332px;stroke-linecap:butt;stroke-linejoin:miter;stroke-opacity:1"
       id="text1023"
       transform="translate(0.92604173,0.66145835)">
      <path
         d="m 10.315802,266.69413 q -0.229444,0 -0.3627688,0.17983 -0.1333251,0.17829 -0.1333251,0.48989 0,0.31161 0.1317749,0.49145 0.133325,0.17828 0.364319,0.17828 0.227893,0 0.361218,-0.17983 0.133325,-0.17984 0.133325,-0.4899 0,-0.3085 -0.133325,-0.48834 -0.133325,-0.18138 -0.361218,-0.18138 z m 0,-0.24185 q 0.37207,0 0.58446,0.24185 0.21239,0.24184 0.21239,0.66972 0,0.42634 -0.21239,0.66973 -0.21239,0.24185 -0.58446,0.24185 -0.3736208,0 -0.5860109,-0.24185 -0.2108399,-0.24339 -0.2108399,-0.66973 0,-0.42788 0.2108399,-0.66972 0.2123901,-0.24185 0.5860109,-0.24185 z"
         style="font-style:normal;font-variant:normal;font-weight:normal;font-stretch:normal;font-size:3.17499995px;font-family:sans-serif;-inkscape-font-specification:sans-serif;fill:#000000;fill-opacity:1;stroke-width:0.26458332px"
         id="path1082"
         inkscape:connector-curvature="0" />
      <path
         d="m 11.554486,267.54524 v -1.0511 h 0.285254 v 1.04025 q 0,0.24649 0.09612,0.37052 0.09612,0.12247 0.288354,0.12247 0.230994,0 0.364319,-0.14728 0.134876,-0.14728 0.134876,-0.40152 v -0.98444 h 0.285254 v 1.73633 h -0.285254 v -0.26665 q -0.10387,0.15813 -0.241846,0.23564 -0.136426,0.076 -0.31781,0.076 -0.299207,0 -0.454236,-0.18604 -0.155029,-0.18603 -0.155029,-0.54415 z"
         style="font-style:normal;font-variant:normal;font-weight:normal;font-stretch:normal;font-size:3.17499995px;font-family:sans-serif;-inkscape-font-specification:sans-serif;fill:#000000;fill-opacity:1;stroke-width:0.26458332px"
         id="path1084"
         inkscape:connector-curvature="0" />
      <path
         d="m 13.881475,266.00115 v 0.49299 h 0.587561 v 0.22169 h -0.587561 v 0.94258 q 0,0.21239 0.05736,0.27285 0.05891,0.0605 0.237195,0.0605 h 0.293005 v 0.23875 H 14.17603 q -0.330212,0 -0.455786,-0.12247 -0.125574,-0.12403 -0.125574,-0.44959 v -0.94258 h -0.209289 v -0.22169 h 0.209289 v -0.49299 z"
         style="font-style:normal;font-variant:normal;font-weight:normal;font-stretch:normal;font-size:3.17499995px;font-family:sans-serif;-inkscape-font-specification:sans-serif;fill:#000000;fill-opacity:1;stroke-width:0.26458332px"
         id="path1086"
         inkscape:connector-curvature="0" />
    </g>
    <g
       aria-label="gate"
       style="font-style:normal;font-weight:normal;font-size:3.88055563px;line-height:125%;font-family:Sans;letter-spacing:0px;word-spacing:0px;fill:#000000;fill-opacity:1;stroke:none;stroke-width:0.26458332px;stroke-linecap:butt;stroke-linejoin:miter;stroke-opacity:1"
       id="text1027"
       transform="translate(0.92604173,0.66145835)">
      <path
         d="m 10.090864,286.57061 q 0,-0.31006 -0.1286742,-0.4806 -0.127124,-0.17053 -0.3581176,-0.17053 -0.2294434,0 -0.3581177,0.17053 -0.127124,0.17054 -0.127124,0.4806 0,0.3085 0.127124,0.47904 0.1286743,0.17053 0.3581177,0.17053 0.2309936,0 0.3581176,-0.17053 0.1286742,-0.17054 0.1286742,-0.47904 z m 0.285254,0.67282 q 0,0.44339 -0.196887,0.65888 -0.1968873,0.21704 -0.6030641,0.21704 -0.1503784,0 -0.2837036,-0.0233 -0.1333252,-0.0217 -0.2588989,-0.0682 v -0.2775 q 0.1255737,0.0682 0.2480468,0.10077 0.1224732,0.0325 0.2495972,0.0325 0.280603,0 0.4201294,-0.14727 0.1395262,-0.14573 0.1395262,-0.44184 v -0.14107 q -0.08837,0.15347 -0.2263426,0.22944 -0.1379761,0.076 -0.3302124,0.076 -0.3193604,0 -0.5146973,-0.24339 -0.1953369,-0.2434 -0.1953369,-0.64492 0,-0.40308 0.1953369,-0.64648 0.1953369,-0.24339 0.5146973,-0.24339 0.1922363,0 0.3302124,0.076 0.1379756,0.076 0.2263426,0.22945 v -0.26355 h 0.285254 z"
         style="font-style:normal;font-variant:normal;font-weight:normal;font-stretch:normal;font-size:3.17499995px;font-family:sans-serif;-inkscape-font-specification:sans-serif;fill:#000000;fill-opacity:1;stroke-width:0.26458332px"
         id="path1073"
         inkscape:connector-curvature="0" />
      <path
         d="m 11.752778,286.58611 q -0.345715,0 -0.47904,0.0791 -0.133325,0.0791 -0.133325,0.26975 0,0.15193 0.09922,0.24185 0.100769,0.0884 0.272852,0.0884 0.237195,0 0.379822,-0.16743 0.144177,-0.16899 0.144177,-0.44804 v -0.0636 z m 0.568958,-0.11782 v 0.99063 h -0.285254 v -0.26355 q -0.09767,0.15813 -0.243396,0.2341 -0.145728,0.0744 -0.356568,0.0744 -0.26665,0 -0.42478,-0.14883 -0.156579,-0.15037 -0.156579,-0.40152 0,-0.29301 0.195337,-0.44184 0.196887,-0.14882 0.58601,-0.14882 h 0.399976 v -0.0279 q 0,-0.19689 -0.130225,-0.30386 -0.128674,-0.10852 -0.362768,-0.10852 -0.148828,0 -0.289905,0.0357 -0.141077,0.0357 -0.271301,0.10697 v -0.26355 q 0.156579,-0.0605 0.303857,-0.0899 0.147278,-0.031 0.286804,-0.031 0.376721,0 0.562757,0.19533 0.186035,0.19534 0.186035,0.59222 z"
         style="font-style:normal;font-variant:normal;font-weight:normal;font-stretch:normal;font-size:3.17499995px;font-family:sans-serif;-inkscape-font-specification:sans-serif;fill:#000000;fill-opacity:1;stroke-width:0.26458332px"
         id="path1075"
         inkscape:connector-curvature="0" />
      <path
         d="m 13.193,285.2296 v 0.493 h 0.587561 v 0.22169 H 13.193 v 0.94258 q 0,0.21239 0.05736,0.27285 0.05891,0.0605 0.237195,0.0605 h 0.293005 v 0.23874 h -0.293005 q -0.330212,0 -0.455786,-0.12247 -0.125574,-0.12402 -0.125574,-0.44958 v -0.94258 h -0.209289 v -0.22169 h 0.209289 v -0.493 z"
         style="font-style:normal;font-variant:normal;font-weight:normal;font-stretch:normal;font-size:3.17499995px;font-family:sans-serif;-inkscape-font-specification:sans-serif;fill:#000000;fill-opacity:1;stroke-width:0.26458332px"
         id="path1077"
         inkscape:connector-curvature="0" />
      <path
         d="m 15.642463,286.51945 v 0.13952 h -1.311548 q 0.0186,0.29456 0.176734,0.44959 0.15968,0.15348 0.443384,0.15348 0.164331,0 0.31781,-0.0403 0.155029,-0.0403 0.306958,-0.12092 v 0.26975 q -0.153479,0.0651 -0.31471,0.0992 -0.16123,0.0341 -0.327112,0.0341 -0.415478,0 -0.658874,-0.24184 -0.241846,-0.24185 -0.241846,-0.65423 0,-0.42633 0.229444,-0.67593 0.230993,-0.25114 0.621667,-0.25114 0.350366,0 0.553455,0.22634 0.204638,0.22479 0.204638,0.61237 z m -0.285254,-0.0837 q -0.0031,-0.23409 -0.131775,-0.37362 -0.127124,-0.13953 -0.337963,-0.13953 -0.238746,0 -0.382923,0.13488 -0.142627,0.13487 -0.164331,0.37982 z"
         style="font-style:normal;font-variant:normal;font-weight:normal;font-stretch:normal;font-size:3.17499995px;font-family:sans-serif;-inkscape-font-specification:sans-serif;fill:#000000;fill-opacity:1;stroke-width:0.26458332px"
         id="path1079"
         inkscape:connector-curvature="0" />
    </g>
    <g
       aria-label="low"
       style="font-style:normal;font-weight:normal;font-size:3.88055563px;line-height:125%;font-family:Sans;letter-spacing:0px;word-spacing:0px;display:inline;fill:#000000;fill-opacity:1;stroke:none;stroke-width:0.26458332px;stroke-linecap:butt;stroke-linejoin:miter;stroke-opacity:1"
       id="text1009">
      <path
         d="m 4.3139852,233.91758 h 0.2852539 v 2.41225 H 4.3139852 Z"
         style="font-style:normal;font-variant:normal;font-weight:normal;font-stretch:normal;font-size:3.17499995px;font-family:sans-serif;-inkscape-font-specification:sans-serif;fill:#000000;fill-opacity:1;stroke-width:0.26458332px"
         id="path1025" />
      <path
         d="m 5.8673787,234.79349 q -0.2294433,0 -0.3627685,0.17984 -0.1333252,0.17828 -0.1333252,0.48989 0,0.31161 0.1317749,0.49144 0.1333252,0.17829 0.3643188,0.17829 0.2278931,0 0.3612183,-0.17984 0.1333252,-0.17983 0.1333252,-0.48989 0,-0.30851 -0.1333252,-0.48834 -0.1333252,-0.18139 -0.3612183,-0.18139 z m 0,-0.24184 q 0.3720703,0 0.5844604,0.24184 0.2123902,0.24185 0.2123902,0.66973 0,0.42633 -0.2123902,0.66973 -0.2123901,0.24184 -0.5844604,0.24184 -0.3736206,0 -0.5860107,-0.24184 -0.2108399,-0.2434 -0.2108399,-0.66973 0,-0.42788 0.2108399,-0.66973 0.2123901,-0.24184 0.5860107,-0.24184 z"
         style="font-style:normal;font-variant:normal;font-weight:normal;font-stretch:normal;font-size:3.17499995px;font-family:sans-serif;-inkscape-font-specification:sans-serif;fill:#000000;fill-opacity:1;stroke-width:0.26458332px"
         id="path1027" />
      <path
         d="m 6.969637,234.59351 h 0.2852539 l 0.3565674,1.35495 0.3550171,-1.35495 h 0.3364135 l 0.3565674,1.35495 0.3550171,-1.35495 h 0.2852539 l -0.4542358,1.73632 H 8.5090779 l -0.3736206,-1.42316 -0.3751709,1.42316 H 7.4238728 Z"
         style="font-style:normal;font-variant:normal;font-weight:normal;font-stretch:normal;font-size:3.17499995px;font-family:sans-serif;-inkscape-font-specification:sans-serif;fill:#000000;fill-opacity:1;stroke-width:0.26458332px"
         id="path1029" />
    </g>
    <g
       inkscape:groupmode="layer"
       id="layer1"
       inkscape:label="thinner">
      <circle
         style="fill:none;fill-opacity:1;stroke:#00fe00;stroke-width:0.12988716;stroke-miterlimit:4;stroke-dasharray:none;stroke-opacity:1"
         id="path969"
         cx="17.931799"
         cy="182.36296"
         r="6.6850562" />
      <circle
         r="5.6946778"
         cy="279.936"
         cx="13.095343"
         id="circle971"
         style="fill:none;fill-opacity:1;stroke:#00fe00;stroke-width:0.11064462;stroke-miterlimit:4;stroke-dasharray:none;stroke-opacity:1" />
      <circle
         style="fill:none;fill-opacity:1;stroke:#00fe00;stroke-width:0.11064462;stroke-miterlimit:4;stroke-dasharray:none;stroke-opacity:1"
         id="circle973"
         cx="13.095343"
         cy="260.62158"
         r="5.6946778" />
      <circle
         r="6.6850562"
         cy="201.9422"
         cx="17.931799"
         id="circle975"
         style="fill:none;fill-opacity:1;stroke:#00fe00;stroke-width:0.12988716;stroke-miterlimit:4;stroke-dasharray:none;stroke-opacity:1" />
      <circle
         style="fill:none;fill-opacity:1;stroke:#00fe00;stroke-width:0.12988716;stroke-miterlimit:4;stroke-dasharray:none;stroke-opacity:1"
         id="circle978"
         cx="17.931799"
         cy="221.38914"
         r="6.6850562" />
    </g>
    <g
       aria-label="low"
       style="font-style:normal;font-weight:normal;font-size:3.88055563px;line-height:125%;font-family:Sans;letter-spacing:0px;word-spacing:0px;display:inline;fill:#000000;fill-opacity:1;stroke:none;stroke-width:0.26458332px;stroke-linecap:butt;stroke-linejoin:miter;stroke-opacity:1"
       id="text1013">
      <path
         d="m 4.3139852,214.47063 h 0.2852539 v 2.41226 H 4.3139852 Z"
         style="font-style:normal;font-variant:normal;font-weight:normal;font-stretch:normal;font-size:3.17499995px;font-family:sans-serif;-inkscape-font-specification:sans-serif;fill:#000000;fill-opacity:1;stroke-width:0.26458332px"
         id="path1032" />
      <path
         d="m 5.8673787,215.34655 q -0.2294433,0 -0.3627685,0.17983 -0.1333252,0.17829 -0.1333252,0.4899 0,0.3116 0.1317749,0.49144 0.1333252,0.17828 0.3643188,0.17828 0.2278931,0 0.3612183,-0.17983 0.1333252,-0.17984 0.1333252,-0.48989 0,-0.30851 -0.1333252,-0.48835 -0.1333252,-0.18138 -0.3612183,-0.18138 z m 0,-0.24185 q 0.3720703,0 0.5844604,0.24185 0.2123902,0.24184 0.2123902,0.66973 0,0.42633 -0.2123902,0.66972 -0.2123901,0.24185 -0.5844604,0.24185 -0.3736206,0 -0.5860107,-0.24185 -0.2108399,-0.24339 -0.2108399,-0.66972 0,-0.42789 0.2108399,-0.66973 0.2123901,-0.24185 0.5860107,-0.24185 z"
         style="font-style:normal;font-variant:normal;font-weight:normal;font-stretch:normal;font-size:3.17499995px;font-family:sans-serif;-inkscape-font-specification:sans-serif;fill:#000000;fill-opacity:1;stroke-width:0.26458332px"
         id="path1034" />
      <path
         d="m 6.969637,215.14656 h 0.2852539 l 0.3565674,1.35496 0.3550171,-1.35496 h 0.3364135 l 0.3565674,1.35496 0.3550171,-1.35496 h 0.2852539 l -0.4542358,1.73633 H 8.5090779 l -0.3736206,-1.42317 -0.3751709,1.42317 H 7.4238728 Z"
         style="font-style:normal;font-variant:normal;font-weight:normal;font-stretch:normal;font-size:3.17499995px;font-family:sans-serif;-inkscape-font-specification:sans-serif;fill:#000000;fill-opacity:1;stroke-width:0.26458332px"
         id="path1036" />
    </g>
    <g
       aria-label="low"
       style="font-style:normal;font-weight:normal;font-size:3.88055563px;line-height:125%;font-family:Sans;letter-spacing:0px;word-spacing:0px;display:inline;fill:#000000;fill-opacity:1;stroke:none;stroke-width:0.26458332px;stroke-linecap:butt;stroke-linejoin:miter;stroke-opacity:1"
       id="text1017">
      <path
         d="m 4.3139852,194.89139 h 0.2852539 v 2.41226 H 4.3139852 Z"
         style="font-style:normal;font-variant:normal;font-weight:normal;font-stretch:normal;font-size:3.17499995px;font-family:sans-serif;-inkscape-font-specification:sans-serif;fill:#000000;fill-opacity:1;stroke-width:0.26458332px"
         id="path1039" />
      <path
         d="m 5.8673787,195.76731 q -0.2294433,0 -0.3627685,0.17983 -0.1333252,0.17829 -0.1333252,0.4899 0,0.31161 0.1317749,0.49144 0.1333252,0.17828 0.3643188,0.17828 0.2278931,0 0.3612183,-0.17983 0.1333252,-0.17984 0.1333252,-0.48989 0,-0.30851 -0.1333252,-0.48835 -0.1333252,-0.18138 -0.3612183,-0.18138 z m 0,-0.24185 q 0.3720703,0 0.5844604,0.24185 0.2123902,0.24185 0.2123902,0.66973 0,0.42633 -0.2123902,0.66972 -0.2123901,0.24185 -0.5844604,0.24185 -0.3736206,0 -0.5860107,-0.24185 -0.2108399,-0.24339 -0.2108399,-0.66972 0,-0.42788 0.2108399,-0.66973 0.2123901,-0.24185 0.5860107,-0.24185 z"
         style="font-style:normal;font-variant:normal;font-weight:normal;font-stretch:normal;font-size:3.17499995px;font-family:sans-serif;-inkscape-font-specification:sans-serif;fill:#000000;fill-opacity:1;stroke-width:0.26458332px"
         id="path1041" />
      <path
         d="m 6.969637,195.56732 h 0.2852539 l 0.3565674,1.35496 0.3550171,-1.35496 h 0.3364135 l 0.3565674,1.35496 0.3550171,-1.35496 h 0.2852539 l -0.4542358,1.73633 H 8.5090779 l -0.3736206,-1.42317 -0.3751709,1.42317 H 7.4238728 Z"
         style="font-style:normal;font-variant:normal;font-weight:normal;font-stretch:normal;font-size:3.17499995px;font-family:sans-serif;-inkscape-font-specification:sans-serif;fill:#000000;fill-opacity:1;stroke-width:0.26458332px"
         id="path1043" />
    </g>
  </g>
</svg>
