<?xml version="1.0" encoding="UTF-8" standalone="no"?>
<!-- Created with Inkscape (http://www.inkscape.org/) -->

<svg
   xmlns:dc="http://purl.org/dc/elements/1.1/"
   xmlns:cc="http://creativecommons.org/ns#"
   xmlns:rdf="http://www.w3.org/1999/02/22-rdf-syntax-ns#"
   xmlns:svg="http://www.w3.org/2000/svg"
   xmlns="http://www.w3.org/2000/svg"
   xmlns:sodipodi="http://sodipodi.sourceforge.net/DTD/sodipodi-0.dtd"
   xmlns:inkscape="http://www.inkscape.org/namespaces/inkscape"
   width="210mm"
   height="297mm"
   viewBox="0 0 210 297"
   version="1.1"
   id="svg8"
   inkscape:version="0.92.2 5c3e80d, 2017-08-06"
   sodipodi:docname="triggerhappy_panel.svg">
  <defs
     id="defs2">
    <marker
       inkscape:stockid="Tail"
       orient="auto"
       refY="0.0"
       refX="0.0"
       id="marker5332"
       style="overflow:visible"
       inkscape:isstock="true">
      <g
         id="g5330"
         transform="scale(-1.2)"
         style="stroke:#000000;stroke-opacity:1;fill:#000000;fill-opacity:1">
        <path
           id="path5318"
           d="M -3.8048674,-3.9585227 L 0.54352094,0"
           style="fill:#000000;fill-rule:evenodd;stroke:#000000;stroke-width:0.8;stroke-linecap:round;stroke-opacity:1;fill-opacity:1" />
        <path
           id="path5320"
           d="M -1.2866832,-3.9585227 L 3.0617053,0"
           style="fill:#000000;fill-rule:evenodd;stroke:#000000;stroke-width:0.8;stroke-linecap:round;stroke-opacity:1;fill-opacity:1" />
        <path
           id="path5322"
           d="M 1.3053582,-3.9585227 L 5.6537466,0"
           style="fill:#000000;fill-rule:evenodd;stroke:#000000;stroke-width:0.8;stroke-linecap:round;stroke-opacity:1;fill-opacity:1" />
        <path
           id="path5324"
           d="M -3.8048674,4.1775838 L 0.54352094,0.21974226"
           style="fill:#000000;fill-rule:evenodd;stroke:#000000;stroke-width:0.8;stroke-linecap:round;stroke-opacity:1;fill-opacity:1" />
        <path
           id="path5326"
           d="M -1.2866832,4.1775838 L 3.0617053,0.21974226"
           style="fill:#000000;fill-rule:evenodd;stroke:#000000;stroke-width:0.8;stroke-linecap:round;stroke-opacity:1;fill-opacity:1" />
        <path
           id="path5328"
           d="M 1.3053582,4.1775838 L 5.6537466,0.21974226"
           style="fill:#000000;fill-rule:evenodd;stroke:#000000;stroke-width:0.8;stroke-linecap:round;stroke-opacity:1;fill-opacity:1" />
      </g>
    </marker>
    <marker
       inkscape:stockid="Tail"
       orient="auto"
       refY="0.0"
       refX="0.0"
       id="Tail"
       style="overflow:visible"
       inkscape:isstock="true">
      <g
         id="g948"
         transform="scale(-1.2)"
         style="stroke:#000000;stroke-opacity:1;fill:#000000;fill-opacity:1">
        <path
           id="path936"
           d="M -3.8048674,-3.9585227 L 0.54352094,0"
           style="fill:#000000;fill-rule:evenodd;stroke:#000000;stroke-width:0.8;stroke-linecap:round;stroke-opacity:1;fill-opacity:1" />
        <path
           id="path938"
           d="M -1.2866832,-3.9585227 L 3.0617053,0"
           style="fill:#000000;fill-rule:evenodd;stroke:#000000;stroke-width:0.8;stroke-linecap:round;stroke-opacity:1;fill-opacity:1" />
        <path
           id="path940"
           d="M 1.3053582,-3.9585227 L 5.6537466,0"
           style="fill:#000000;fill-rule:evenodd;stroke:#000000;stroke-width:0.8;stroke-linecap:round;stroke-opacity:1;fill-opacity:1" />
        <path
           id="path942"
           d="M -3.8048674,4.1775838 L 0.54352094,0.21974226"
           style="fill:#000000;fill-rule:evenodd;stroke:#000000;stroke-width:0.8;stroke-linecap:round;stroke-opacity:1;fill-opacity:1" />
        <path
           id="path944"
           d="M -1.2866832,4.1775838 L 3.0617053,0.21974226"
           style="fill:#000000;fill-rule:evenodd;stroke:#000000;stroke-width:0.8;stroke-linecap:round;stroke-opacity:1;fill-opacity:1" />
        <path
           id="path5092"
           d="M 1.3053582,4.1775838 L 5.6537466,0.21974226"
           style="fill:#000000;fill-rule:evenodd;stroke:#000000;stroke-width:0.8;stroke-linecap:round;stroke-opacity:1;fill-opacity:1" />
      </g>
    </marker>
    <marker
       inkscape:stockid="Arrow1Mstart"
       orient="auto"
       refY="0.0"
       refX="0.0"
       id="Arrow1Mstart"
       style="overflow:visible"
       inkscape:isstock="true">
      <path
         id="path906"
         d="M 0.0,0.0 L 5.0,-5.0 L -12.5,0.0 L 5.0,5.0 L 0.0,0.0 z "
         style="fill-rule:evenodd;stroke:#e800ed;stroke-width:1pt;stroke-opacity:1;fill:#f500f5;fill-opacity:1"
         transform="scale(0.4) translate(10,0)" />
    </marker>
    <filter
       inkscape:menu-tooltip="In and out glow with a possible offset and colorizable flood"
       inkscape:menu="Shadows and Glows"
       inkscape:label="Cutout Glow"
       style="color-interpolation-filters:sRGB;"
       id="filter915">
      <feOffset
         dy="-100"
         dx="-100"
         id="feOffset905" />
      <feGaussianBlur
         stdDeviation="0.01"
         result="blur"
         id="feGaussianBlur907" />
      <feFlood
         flood-color="rgb(255,255,255)"
         flood-opacity="0.28000000000000003"
         result="flood"
         id="feFlood909" />
      <feComposite
         in="flood"
         in2="SourceGraphic"
         operator="over"
         result="composite"
         id="feComposite911" />
      <feBlend
         in="blur"
         in2="composite"
         mode="normal"
         id="feBlend913" />
    </filter>
  </defs>
  <sodipodi:namedview
     id="base"
     pagecolor="#ffffff"
     bordercolor="#666666"
     borderopacity="1.0"
     inkscape:pageopacity="0.0"
     inkscape:pageshadow="2"
     inkscape:zoom="4"
     inkscape:cx="72.675792"
     inkscape:cy="427.00506"
     inkscape:document-units="mm"
     inkscape:current-layer="g962"
     showgrid="true"
     inkscape:window-width="1404"
     inkscape:window-height="1037"
     inkscape:window-x="50"
     inkscape:window-y="0"
     inkscape:window-maximized="0"
     inkscape:measure-start="41,65.5"
     inkscape:measure-end="43.5,66.5"
     inkscape:snap-to-guides="true"
     inkscape:snap-grids="true"
     showguides="false"
     inkscape:snap-global="false"
     objecttolerance="20">
    <inkscape:grid
       type="xygrid"
       id="grid922"
       dotted="true" />
  </sodipodi:namedview>
  <metadata
     id="metadata5">
    <rdf:RDF>
      <cc:Work
         rdf:about="">
        <dc:format>image/svg+xml</dc:format>
        <dc:type
           rdf:resource="http://purl.org/dc/dcmitype/StillImage" />
        <dc:title />
      </cc:Work>
    </rdf:RDF>
  </metadata>
  <g
     inkscape:groupmode="layer"
     id="layer7"
     inkscape:label="holes"
     style="display:inline">
    <circle
       r="3.3725126"
       cy="193.17717"
       cx="7.7146239"
       id="circle4689"
       style="opacity:1;fill:none;fill-opacity:1;stroke:#ff0000;stroke-width:0.02645833;stroke-miterlimit:4;stroke-dasharray:none;stroke-opacity:1" />
    <circle
       style="opacity:1;fill:none;fill-opacity:1;stroke:#ff0000;stroke-width:0.02645833;stroke-miterlimit:4;stroke-dasharray:none;stroke-opacity:1"
       id="circle990"
       cx="7.7146239"
       cy="210.77202"
       r="3.3725126" />
    <circle
       r="3.3725126"
       cy="228.49918"
       cx="7.7146239"
       id="circle1002"
       style="opacity:1;fill:none;fill-opacity:1;stroke:#ff0000;stroke-width:0.02645833;stroke-miterlimit:4;stroke-dasharray:none;stroke-opacity:1" />
    <circle
       style="opacity:1;fill:none;fill-opacity:1;stroke:#ff0000;stroke-width:0.02645833;stroke-miterlimit:4;stroke-dasharray:none;stroke-opacity:1"
       id="circle1008"
       cx="7.7146239"
       cy="245.96175"
       r="3.3725126" />
    <circle
       r="3.3725126"
       cy="263.42419"
       cx="7.7146239"
       id="circle1014"
       style="opacity:1;fill:none;fill-opacity:1;stroke:#ff0000;stroke-width:0.02645833;stroke-miterlimit:4;stroke-dasharray:none;stroke-opacity:1" />
    <circle
       style="opacity:1;fill:none;fill-opacity:1;stroke:#ff0000;stroke-width:0.02645833;stroke-miterlimit:4;stroke-dasharray:none;stroke-opacity:1"
       id="circle1020"
       cx="7.7146239"
       cy="280.88657"
       r="3.3725126" />
    <circle
       r="3.3725126"
       cy="280.88657"
       cx="25.177116"
       id="circle1026"
       style="opacity:1;fill:none;fill-opacity:1;stroke:#ff0000;stroke-width:0.02645833;stroke-miterlimit:4;stroke-dasharray:none;stroke-opacity:1" />
    <circle
       style="fill:none;fill-opacity:1;stroke:#ff0000;stroke-width:0.026;stroke-miterlimit:4;stroke-dasharray:none;stroke-opacity:1"
       id="path941"
       cx="15.246614"
       cy="214.87993"
       r="1.0252604" />
    <circle
       r="1.0252604"
       cy="232.3425"
       cx="15.246614"
       id="circle943"
       style="fill:none;fill-opacity:1;stroke:#ff0000;stroke-width:0.026;stroke-miterlimit:4;stroke-dasharray:none;stroke-opacity:1" />
    <circle
       style="fill:none;fill-opacity:1;stroke:#ff0000;stroke-width:0.026;stroke-miterlimit:4;stroke-dasharray:none;stroke-opacity:1"
       id="circle945"
       cx="15.246614"
       cy="249.93736"
       r="1.0252604" />
    <circle
       r="1.0252604"
       cy="267.39981"
       cx="15.246614"
       id="circle947"
       style="fill:none;fill-opacity:1;stroke:#ff0000;stroke-width:0.026;stroke-miterlimit:4;stroke-dasharray:none;stroke-opacity:1" />
    <circle
       style="fill:none;fill-opacity:1;stroke:#ff0000;stroke-width:0.026;stroke-miterlimit:4;stroke-dasharray:none;stroke-opacity:1"
       id="circle949"
       cx="15.246614"
       cy="284.86218"
       r="1.0252604" />
    <circle
       style="display:inline;fill:none;fill-opacity:1;stroke:#ff0000;stroke-width:0.02645833;stroke-miterlimit:4;stroke-dasharray:none;stroke-opacity:1"
       id="circle1253"
       cx="44.04393"
       cy="256.466"
       r="4.0009871" />
    <circle
       r="4.0009871"
       cy="235.29926"
       cx="44.04393"
       id="circle1032"
       style="display:inline;fill:none;fill-opacity:1;stroke:#ff0000;stroke-width:0.02645833;stroke-miterlimit:4;stroke-dasharray:none;stroke-opacity:1" />
    <circle
       style="display:inline;fill:none;fill-opacity:1;stroke:#ff0000;stroke-width:0.02645833;stroke-miterlimit:4;stroke-dasharray:none;stroke-opacity:1"
       id="circle1038"
       cx="44.04393"
       cy="214.39709"
       r="4.0009871" />
    <circle
       r="4.0009871"
       cy="193.23033"
       cx="44.04393"
       id="circle1044"
       style="display:inline;fill:none;fill-opacity:1;stroke:#ff0000;stroke-width:0.02645833;stroke-miterlimit:4;stroke-dasharray:none;stroke-opacity:1" />
  </g>
  <g
     inkscape:groupmode="layer"
     id="layer4"
     inkscape:label="frame"
     style="display:inline">
    <g
       inkscape:groupmode="layer"
       id="layer6"
       inkscape:label="measurements"
       style="display:inline" />
    <rect
       style="fill:none;fill-opacity:1;stroke:#ff0000;stroke-width:0.0296007;stroke-miterlimit:4;stroke-dasharray:none;stroke-dashoffset:0;stroke-opacity:1"
       id="rect970"
       width="50.470398"
       height="128.5844"
       x="0.45521447"
       y="168.41402" />
  </g>
  <g
     inkscape:groupmode="layer"
     id="layer3"
     inkscape:label="screws"
     style="display:inline">
    <circle
       style="fill:none;fill-opacity:1;stroke:#ff0000;stroke-width:0.02320576;stroke-miterlimit:4;stroke-dasharray:none;stroke-opacity:1"
       id="path97"
       cx="42.960735"
       cy="-171.51096"
       r="1.7566979"
       transform="scale(1,-1)" />
    <ellipse
       style="fill:none;fill-opacity:1;stroke:#ff0000;stroke-width:0.027;stroke-miterlimit:4;stroke-dasharray:none;stroke-opacity:1"
       id="path924"
       cx="7.5387039"
       cy="293.98306"
       rx="1.7552135"
       ry="1.7399799" />
    <circle
       style="fill:none;fill-opacity:1;stroke:#ff0000;stroke-width:0.02849756;stroke-miterlimit:4;stroke-dasharray:none;stroke-opacity:1"
       id="path946"
       cx="42.960678"
       cy="293.9675"
       r="1.7542512" />
    <circle
       style="fill:none;fill-opacity:1;stroke:#ff0000;stroke-width:0.02430471;stroke-miterlimit:4;stroke-dasharray:none;stroke-opacity:1"
       id="path948"
       cx="7.5384998"
       cy="171.5105"
       r="1.7563477" />
  </g>
  <g
     inkscape:groupmode="layer"
     id="layer9"
     inkscape:label="graphics"
     style="display:inline">
    <path
       sodipodi:nodetypes="ccccccc"
       inkscape:connector-curvature="0"
       id="path1116"
       d="m 41.547889,253.08003 -24.223136,19.12069 -1.67125,-2.4378 -3.548104,7.19415 7.956414,-1.07413 -1.604369,-2.1991 20.73918,-8.85792"
       style="fill:none;fill-rule:evenodd;stroke:#0000fa;stroke-width:0.02166353;stroke-linecap:butt;stroke-linejoin:miter;stroke-miterlimit:4;stroke-dasharray:none;stroke-opacity:1" />
    <path
       style="fill:none;fill-rule:evenodd;stroke:#0000f4;stroke-width:0.0192689;stroke-linecap:butt;stroke-linejoin:miter;stroke-miterlimit:4;stroke-dasharray:none;stroke-opacity:1"
       d="m 40.948169,190.43939 -24.297746,29.03752 -2.013983,-1.40307 -2.533723,6.83236 7.861035,-3.11116 -2.208886,-1.52509 21.763185,-18.38039"
       id="path1118"
       inkscape:connector-curvature="0"
       sodipodi:nodetypes="ccccccc" />
    <path
       sodipodi:nodetypes="ccccccc"
       inkscape:connector-curvature="0"
       id="path1120"
       d="m 40.984856,211.60596 -24.217756,26.08507 -2.007354,-1.26042 -2.525381,6.13766 7.835155,-2.79483 -2.201613,-1.37001 21.514333,-15.58964"
       style="fill:none;fill-rule:evenodd;stroke:#0000f4;stroke-width:0.01823295;stroke-linecap:butt;stroke-linejoin:miter;stroke-miterlimit:4;stroke-dasharray:none;stroke-opacity:1" />
    <path
       style="fill:none;fill-rule:evenodd;stroke:#0000fa;stroke-width:0.02350145;stroke-linecap:butt;stroke-linejoin:miter;stroke-miterlimit:4;stroke-dasharray:none;stroke-opacity:1"
       d="m 41.359457,232.17822 -23.464307,22.99234 -1.491803,-2.14188 -3.437303,7.85351 7.707945,-1.30488 -1.49064,-2.27277 20.055694,-13.44175"
       id="path1122"
       inkscape:connector-curvature="0"
       sodipodi:nodetypes="ccccccc" />
  </g>
  <g
     inkscape:groupmode="layer"
     id="layer1"
     inkscape:label="thinner">
    <ellipse
       style="fill:#ffffff;fill-opacity:1;stroke:none;stroke-width:0.026;stroke-miterlimit:4;stroke-dasharray:none;stroke-opacity:1"
       id="path1085"
       cx="-34.219444"
       cy="191.25487"
       rx="2.998611"
       ry="2.9104166" />
    <ellipse
       style="fill:#ffffff;fill-opacity:1;stroke:none;stroke-width:0.026;stroke-miterlimit:4;stroke-dasharray:none;stroke-opacity:1"
       id="path1087"
       cx="-26.899303"
       cy="213.47986"
       rx="11.553473"
       ry="11.90625" />
    <rect
       style="fill:#ffffff;fill-opacity:1;stroke:none;stroke-width:0.026;stroke-miterlimit:4;stroke-dasharray:none;stroke-opacity:1"
       id="rect1089"
       width="7.9375"
       height="8.6430559"
       x="-45.331944"
       y="191.69583"
       ry="1.5452434" />
    <rect
       style="fill:#ffffff;fill-opacity:1;stroke:none;stroke-width:0.026;stroke-miterlimit:4;stroke-dasharray:none;stroke-opacity:1"
       id="rect1091"
       width="4.7624998"
       height="11.641663"
       x="24.870832"
       y="183.58194"
       ry="2.3812499" />
    <circle
       style="fill:none;fill-opacity:1;stroke:#00e500;stroke-width:0.05539508;stroke-miterlimit:4;stroke-dasharray:none;stroke-opacity:1"
       id="path1093"
       cx="7.6713762"
       cy="193.24077"
       r="5.7223024" />
    <circle
       r="6.7174854"
       cy="256.40244"
       cx="44.125519"
       id="circle1105"
       style="fill:none;fill-opacity:1;stroke:#00e500;stroke-width:0.065029;stroke-miterlimit:4;stroke-dasharray:none;stroke-opacity:1" />
    <circle
       style="fill:none;fill-opacity:1;stroke:#00e500;stroke-width:0.065029;stroke-miterlimit:4;stroke-dasharray:none;stroke-opacity:1"
       id="circle1107"
       cx="43.993229"
       cy="235.23572"
       r="6.7174854" />
    <circle
       r="6.7174854"
       cy="214.46587"
       cx="43.993229"
       id="circle1109"
       style="fill:none;fill-opacity:1;stroke:#00e500;stroke-width:0.065029;stroke-miterlimit:4;stroke-dasharray:none;stroke-opacity:1" />
    <circle
       style="fill:none;fill-opacity:1;stroke:#00e500;stroke-width:0.065029;stroke-miterlimit:4;stroke-dasharray:none;stroke-opacity:1"
       id="circle1111"
       cx="43.993229"
       cy="193.16682"
       r="6.7174854" />
    <circle
       r="5.7223024"
       cy="210.43875"
       cx="7.6713762"
       id="circle1113"
       style="fill:none;fill-opacity:1;stroke:#00e500;stroke-width:0.05539508;stroke-miterlimit:4;stroke-dasharray:none;stroke-opacity:1" />
    <circle
       style="fill:none;fill-opacity:1;stroke:#00e500;stroke-width:0.05539508;stroke-miterlimit:4;stroke-dasharray:none;stroke-opacity:1"
       id="circle1115"
       cx="7.803668"
       cy="228.56276"
       r="5.7223024" />
    <circle
       r="5.7223024"
       cy="246.02531"
       cx="7.6713762"
       id="circle1117"
       style="fill:none;fill-opacity:1;stroke:#00e500;stroke-width:0.05539508;stroke-miterlimit:4;stroke-dasharray:none;stroke-opacity:1" />
    <circle
       style="fill:none;fill-opacity:1;stroke:#00e500;stroke-width:0.05539508;stroke-miterlimit:4;stroke-dasharray:none;stroke-opacity:1"
       id="circle1119"
       cx="25.133877"
       cy="280.81799"
       r="5.7223024" />
    <circle
       r="5.7223024"
       cy="280.81799"
       cx="7.8036704"
       id="circle1121"
       style="fill:none;fill-opacity:1;stroke:#00e500;stroke-width:0.05539508;stroke-miterlimit:4;stroke-dasharray:none;stroke-opacity:1" />
    <circle
       style="fill:none;fill-opacity:1;stroke:#00e500;stroke-width:0.05539508;stroke-miterlimit:4;stroke-dasharray:none;stroke-opacity:1"
       id="circle1123"
       cx="7.6713786"
       cy="263.48785"
       r="5.7223024" />
  </g>
  <g
     inkscape:groupmode="layer"
     id="layer8"
     inkscape:label="text"
     style="display:none">
    <text
       id="text4994"
       y="264.65869"
       x="39.373974"
       style="font-style:normal;font-weight:normal;font-size:3.88055563px;line-height:125%;font-family:Sans;letter-spacing:0px;word-spacing:0px;fill:#000000;fill-opacity:1;stroke:none;stroke-width:0.26458332px;stroke-linecap:butt;stroke-linejoin:miter;stroke-opacity:1"
       xml:space="preserve"><tspan
         style="font-style:normal;font-variant:normal;font-weight:normal;font-stretch:normal;font-size:2.82222223px;font-family:sans-serif;-inkscape-font-specification:sans-serif;fill:#000000;fill-opacity:1;stroke-width:0.26458332px"
         y="264.65869"
         x="39.373974"
         id="tspan4992"
         sodipodi:role="line">time 5</tspan></text>
    <text
       xml:space="preserve"
       style="font-style:normal;font-weight:normal;font-size:3.88055563px;line-height:125%;font-family:Sans;letter-spacing:0px;word-spacing:0px;fill:#000000;fill-opacity:1;stroke:none;stroke-width:0.26458332px;stroke-linecap:butt;stroke-linejoin:miter;stroke-opacity:1"
       x="12.157905"
       y="177.51266"
       id="text5074"><tspan
         sodipodi:role="line"
         id="tspan5072"
         x="12.157905"
         y="177.51266"
         style="stroke-width:0.26458332px">time machine</tspan></text>
    <text
       xml:space="preserve"
       style="font-style:normal;font-weight:normal;font-size:3.88055563px;line-height:125%;font-family:Sans;letter-spacing:0px;word-spacing:0px;fill:#000000;fill-opacity:1;stroke:none;stroke-width:0.26458332px;stroke-linecap:butt;stroke-linejoin:miter;stroke-opacity:1"
       x="3.1260843"
       y="200.22862"
       id="text5478"><tspan
         sodipodi:role="line"
         id="tspan5476"
         x="3.1260843"
         y="200.22862"
         style="font-style:normal;font-variant:normal;font-weight:normal;font-stretch:normal;font-size:2.82222223px;font-family:sans-serif;-inkscape-font-specification:sans-serif;fill:#000000;fill-opacity:1;stroke-width:0.26458332px">gate in</tspan></text>
    <text
       id="text994"
       y="217.82347"
       x="3.7875347"
       style="font-style:normal;font-weight:normal;font-size:3.88055563px;line-height:125%;font-family:Sans;letter-spacing:0px;word-spacing:0px;fill:#000000;fill-opacity:1;stroke:none;stroke-width:0.26458332px;stroke-linecap:butt;stroke-linejoin:miter;stroke-opacity:1"
       xml:space="preserve"><tspan
         style="font-style:normal;font-variant:normal;font-weight:normal;font-stretch:normal;font-size:2.82222223px;font-family:sans-serif;-inkscape-font-specification:sans-serif;fill:#000000;fill-opacity:1;stroke-width:0.26458332px"
         y="217.82347"
         x="3.7875347"
         id="tspan992"
         sodipodi:role="line">trig 1</tspan></text>
    <text
       xml:space="preserve"
       style="font-style:normal;font-weight:normal;font-size:3.88055563px;line-height:125%;font-family:Sans;letter-spacing:0px;word-spacing:0px;fill:#000000;fill-opacity:1;stroke:none;stroke-width:0.26458332px;stroke-linecap:butt;stroke-linejoin:miter;stroke-opacity:1"
       x="3.7875347"
       y="235.55063"
       id="text1006"><tspan
         sodipodi:role="line"
         id="tspan1004"
         x="3.7875347"
         y="235.55063"
         style="font-style:normal;font-variant:normal;font-weight:normal;font-stretch:normal;font-size:2.82222223px;font-family:sans-serif;-inkscape-font-specification:sans-serif;fill:#000000;fill-opacity:1;stroke-width:0.26458332px">trig 2</tspan></text>
    <text
       id="text1012"
       y="253.0132"
       x="3.7875347"
       style="font-style:normal;font-weight:normal;font-size:3.88055563px;line-height:125%;font-family:Sans;letter-spacing:0px;word-spacing:0px;fill:#000000;fill-opacity:1;stroke:none;stroke-width:0.26458332px;stroke-linecap:butt;stroke-linejoin:miter;stroke-opacity:1"
       xml:space="preserve"><tspan
         style="font-style:normal;font-variant:normal;font-weight:normal;font-stretch:normal;font-size:2.82222223px;font-family:sans-serif;-inkscape-font-specification:sans-serif;fill:#000000;fill-opacity:1;stroke-width:0.26458332px"
         y="253.0132"
         x="3.7875347"
         id="tspan1010"
         sodipodi:role="line">trig 3</tspan></text>
    <text
       xml:space="preserve"
       style="font-style:normal;font-weight:normal;font-size:3.88055563px;line-height:125%;font-family:Sans;letter-spacing:0px;word-spacing:0px;fill:#000000;fill-opacity:1;stroke:none;stroke-width:0.26458332px;stroke-linecap:butt;stroke-linejoin:miter;stroke-opacity:1"
       x="3.7875347"
       y="270.47559"
       id="text1018"><tspan
         sodipodi:role="line"
         id="tspan1016"
         x="3.7875347"
         y="270.47559"
         style="font-style:normal;font-variant:normal;font-weight:normal;font-stretch:normal;font-size:2.82222223px;font-family:sans-serif;-inkscape-font-specification:sans-serif;fill:#000000;fill-opacity:1;stroke-width:0.26458332px">trig 4</tspan></text>
    <text
       id="text1024"
       y="287.93796"
       x="3.7875347"
       style="font-style:normal;font-weight:normal;font-size:3.88055563px;line-height:125%;font-family:Sans;letter-spacing:0px;word-spacing:0px;fill:#000000;fill-opacity:1;stroke:none;stroke-width:0.26458332px;stroke-linecap:butt;stroke-linejoin:miter;stroke-opacity:1"
       xml:space="preserve"><tspan
         style="font-style:normal;font-variant:normal;font-weight:normal;font-stretch:normal;font-size:2.82222223px;font-family:sans-serif;-inkscape-font-specification:sans-serif;fill:#000000;fill-opacity:1;stroke-width:0.26458332px"
         y="287.93796"
         x="3.7875347"
         id="tspan1022"
         sodipodi:role="line">trig 5</tspan></text>
    <text
       xml:space="preserve"
       style="font-style:normal;font-weight:normal;font-size:3.88055563px;line-height:125%;font-family:Sans;letter-spacing:0px;word-spacing:0px;fill:#000000;fill-opacity:1;stroke:none;stroke-width:0.26458332px;stroke-linecap:butt;stroke-linejoin:miter;stroke-opacity:1"
       x="20.191698"
       y="287.93796"
       id="text1030"><tspan
         sodipodi:role="line"
         id="tspan1028"
         x="20.191698"
         y="287.93796"
         style="font-style:normal;font-variant:normal;font-weight:normal;font-stretch:normal;font-size:2.82222223px;font-family:sans-serif;-inkscape-font-specification:sans-serif;fill:#000000;fill-opacity:1;stroke-width:0.26458332px">trig mix</tspan></text>
    <text
       xml:space="preserve"
       style="font-style:normal;font-weight:normal;font-size:3.88055563px;line-height:125%;font-family:Sans;letter-spacing:0px;word-spacing:0px;fill:#000000;fill-opacity:1;stroke:none;stroke-width:0.26458332px;stroke-linecap:butt;stroke-linejoin:miter;stroke-opacity:1"
       x="39.373974"
       y="243.49203"
       id="text1036"><tspan
         sodipodi:role="line"
         id="tspan1034"
         x="39.373974"
         y="243.49203"
         style="font-style:normal;font-variant:normal;font-weight:normal;font-stretch:normal;font-size:2.82222223px;font-family:sans-serif;-inkscape-font-specification:sans-serif;fill:#000000;fill-opacity:1;stroke-width:0.26458332px">time 4</tspan></text>
    <text
       id="text1042"
       y="222.58987"
       x="39.373974"
       style="font-style:normal;font-weight:normal;font-size:3.88055563px;line-height:125%;font-family:Sans;letter-spacing:0px;word-spacing:0px;fill:#000000;fill-opacity:1;stroke:none;stroke-width:0.26458332px;stroke-linecap:butt;stroke-linejoin:miter;stroke-opacity:1"
       xml:space="preserve"><tspan
         style="font-style:normal;font-variant:normal;font-weight:normal;font-stretch:normal;font-size:2.82222223px;font-family:sans-serif;-inkscape-font-specification:sans-serif;fill:#000000;fill-opacity:1;stroke-width:0.26458332px"
         y="222.58987"
         x="39.373974"
         id="tspan1040"
         sodipodi:role="line">time 3</tspan></text>
    <text
       xml:space="preserve"
       style="font-style:normal;font-weight:normal;font-size:3.88055563px;line-height:125%;font-family:Sans;letter-spacing:0px;word-spacing:0px;fill:#000000;fill-opacity:1;stroke:none;stroke-width:0.26458332px;stroke-linecap:butt;stroke-linejoin:miter;stroke-opacity:1"
       x="39.241684"
       y="201.29082"
       id="text1048"><tspan
         sodipodi:role="line"
         x="39.241684"
         y="201.29082"
         style="font-style:normal;font-variant:normal;font-weight:normal;font-stretch:normal;font-size:2.82222223px;font-family:sans-serif;-inkscape-font-specification:sans-serif;fill:#000000;fill-opacity:1;stroke-width:0.26458332px"
         id="tspan1050">time 2</tspan><tspan
         sodipodi:role="line"
         x="39.241684"
         y="206.41643"
         style="font-style:normal;font-variant:normal;font-weight:normal;font-stretch:normal;font-size:2.82222223px;font-family:sans-serif;-inkscape-font-specification:sans-serif;fill:#000000;fill-opacity:1;stroke-width:0.26458332px"
         id="tspan955" /><tspan
         sodipodi:role="line"
         x="39.241684"
         y="211.26712"
         style="font-style:normal;font-variant:normal;font-weight:normal;font-stretch:normal;font-size:2.82222223px;font-family:sans-serif;-inkscape-font-specification:sans-serif;fill:#000000;fill-opacity:1;stroke-width:0.26458332px"
         id="tspan953" /></text>
  </g>
  <g
     style="display:inline"
     inkscape:label="text path"
     id="g962"
     inkscape:groupmode="layer">
    <g
       aria-label="time 5"
       style="font-style:normal;font-weight:normal;font-size:3.88055563px;line-height:125%;font-family:Sans;letter-spacing:0px;word-spacing:0px;fill:#000000;fill-opacity:1;stroke:none;stroke-width:0.26458332px;stroke-linecap:butt;stroke-linejoin:miter;stroke-opacity:1"
       id="text912"
       transform="translate(0,0.26458334)">
      <path
         d="m 39.890738,262.67707 v 0.43822 h 0.522277 v 0.19706 h -0.522277 v 0.83785 q 0,0.18879 0.05099,0.24253 0.05236,0.0537 0.210839,0.0537 h 0.26045 v 0.21222 h -0.26045 q -0.293522,0 -0.405143,-0.10886 -0.111621,-0.11025 -0.111621,-0.39963 v -0.83785 h -0.186035 v -0.19706 h 0.186035 v -0.43822 z"
         style="font-style:normal;font-variant:normal;font-weight:normal;font-stretch:normal;font-size:2.82222223px;font-family:sans-serif;-inkscape-font-specification:sans-serif;fill:#000000;fill-opacity:1;stroke-width:0.26458332px"
         id="path1103"
         inkscape:connector-curvature="0" />
      <path
         d="m 40.747878,263.11529 h 0.253559 v 1.5434 h -0.253559 z m 0,-0.60083 h 0.253559 v 0.32109 h -0.253559 z"
         style="font-style:normal;font-variant:normal;font-weight:normal;font-stretch:normal;font-size:2.82222223px;font-family:sans-serif;-inkscape-font-specification:sans-serif;fill:#000000;fill-opacity:1;stroke-width:0.26458332px"
         id="path1105"
         inkscape:connector-curvature="0" />
      <path
         d="m 42.732253,263.41157 q 0.09508,-0.17088 0.227376,-0.25218 0.132292,-0.0813 0.311437,-0.0813 0.241157,0 0.37207,0.1695 0.130914,0.16812 0.130914,0.47956 v 0.93155 h -0.254937 v -0.92328 q 0,-0.22187 -0.07855,-0.32936 -0.07855,-0.10748 -0.239779,-0.10748 -0.19706,0 -0.311437,0.13091 -0.114377,0.13091 -0.114377,0.35691 v 0.8723 h -0.254937 v -0.92328 q 0,-0.22325 -0.07855,-0.32936 -0.07855,-0.10748 -0.242535,-0.10748 -0.194303,0 -0.30868,0.13229 -0.114378,0.13091 -0.114378,0.35553 v 0.8723 h -0.254937 v -1.5434 h 0.254937 v 0.23978 q 0.08682,-0.14194 0.208084,-0.20946 0.121268,-0.0675 0.28801,-0.0675 0.168121,0 0.285254,0.0854 0.118511,0.0854 0.175011,0.24805 z"
         style="font-style:normal;font-variant:normal;font-weight:normal;font-stretch:normal;font-size:2.82222223px;font-family:sans-serif;-inkscape-font-specification:sans-serif;fill:#000000;fill-opacity:1;stroke-width:0.26458332px"
         id="path1107"
         inkscape:connector-curvature="0" />
      <path
         d="m 45.601328,263.8236 v 0.12402 h -1.16582 q 0.01654,0.26183 0.157096,0.39963 0.141938,0.13643 0.394119,0.13643 0.146072,0 0.282498,-0.0358 0.137804,-0.0358 0.272852,-0.10749 v 0.23978 q -0.136426,0.0579 -0.279742,0.0882 -0.143316,0.0303 -0.290766,0.0303 -0.369314,0 -0.585666,-0.21497 -0.214974,-0.21497 -0.214974,-0.58153 0,-0.37896 0.203949,-0.60083 0.205328,-0.22324 0.552594,-0.22324 0.311436,0 0.491959,0.2012 0.181901,0.19981 0.181901,0.54432 z m -0.253559,-0.0744 q -0.0028,-0.20809 -0.117133,-0.33211 -0.112999,-0.12402 -0.300412,-0.12402 -0.212218,0 -0.340376,0.11988 -0.126779,0.11989 -0.146072,0.33762 z"
         style="font-style:normal;font-variant:normal;font-weight:normal;font-stretch:normal;font-size:2.82222223px;font-family:sans-serif;-inkscape-font-specification:sans-serif;fill:#000000;fill-opacity:1;stroke-width:0.26458332px"
         id="path1109"
         inkscape:connector-curvature="0" />
      <path
         d="m 46.954562,262.60128 h 1.092785 v 0.23427 h -0.837848 v 0.50436 q 0.06063,-0.0207 0.121268,-0.0303 0.06063,-0.011 0.121267,-0.011 0.34451,0 0.545703,0.18879 0.201194,0.18879 0.201194,0.51125 0,0.33211 -0.206706,0.51677 -0.206706,0.18327 -0.58291,0.18327 -0.129536,0 -0.264583,-0.022 -0.13367,-0.022 -0.276986,-0.0661 v -0.27974 q 0.124023,0.0675 0.256315,0.1006 0.132292,0.0331 0.279742,0.0331 0.2384,0 0.377582,-0.1254 0.139182,-0.1254 0.139182,-0.34038 0,-0.21497 -0.139182,-0.34037 -0.139182,-0.12541 -0.377582,-0.12541 -0.111621,0 -0.223242,0.0248 -0.110244,0.0248 -0.225999,0.0772 z"
         style="font-style:normal;font-variant:normal;font-weight:normal;font-stretch:normal;font-size:2.82222223px;font-family:sans-serif;-inkscape-font-specification:sans-serif;fill:#000000;fill-opacity:1;stroke-width:0.26458332px"
         id="path1111"
         inkscape:connector-curvature="0" />
    </g>
    <g
       aria-label="time machine"
       style="font-style:normal;font-weight:normal;font-size:3.88055563px;line-height:125%;font-family:Sans;letter-spacing:0px;word-spacing:0px;fill:#000000;fill-opacity:1;stroke:none;stroke-width:0.26458332px;stroke-linecap:butt;stroke-linejoin:miter;stroke-opacity:1"
       id="text916"
       transform="translate(0,-4.6302089)">
      <path
         d="m 12.868456,174.78794 v 0.60255 h 0.71813 v 0.27095 h -0.71813 v 1.15204 q 0,0.25959 0.07011,0.33349 0.072,0.0739 0.289905,0.0739 h 0.358118 v 0.29179 h -0.358118 q -0.403593,0 -0.557072,-0.14968 -0.153479,-0.15159 -0.153479,-0.5495 v -1.15204 h -0.255798 v -0.27095 h 0.255798 v -0.60255 z"
         style="stroke-width:0.26458332px"
         id="path1080"
         inkscape:connector-curvature="0" />
      <path
         d="m 14.047023,175.39049 h 0.348643 v 2.12217 h -0.348643 z m 0,-0.82614 h 0.348643 v 0.44149 h -0.348643 z"
         style="stroke-width:0.26458332px"
         id="path1082"
         inkscape:connector-curvature="0" />
      <path
         d="m 16.775538,175.79787 q 0.130742,-0.23496 0.312643,-0.34675 0.181901,-0.11179 0.428225,-0.11179 0.331591,0 0.511597,0.23306 0.180006,0.23116 0.180006,0.65939 v 1.28088 h -0.350538 v -1.26951 q 0,-0.30507 -0.108004,-0.45286 -0.108004,-0.1478 -0.329696,-0.1478 -0.270957,0 -0.428225,0.18001 -0.157269,0.18001 -0.157269,0.49075 v 1.19941 h -0.350538 v -1.26951 q 0,-0.30696 -0.108004,-0.45286 -0.108004,-0.1478 -0.333485,-0.1478 -0.267167,0 -0.424436,0.18191 -0.157269,0.18 -0.157269,0.48885 v 1.19941 h -0.350538 v -2.12217 h 0.350538 v 0.32969 q 0.119373,-0.19516 0.286116,-0.28801 0.166742,-0.0928 0.396013,-0.0928 0.231166,0 0.392224,0.11747 0.162953,0.11748 0.24064,0.34107 z"
         style="stroke-width:0.26458332px"
         id="path1084"
         inkscape:connector-curvature="0" />
      <path
         d="m 20.720517,176.36441 v 0.17054 h -1.603003 q 0.02274,0.36001 0.216008,0.54949 0.195164,0.18758 0.541913,0.18758 0.200849,0 0.388435,-0.0493 0.18948,-0.0493 0.375171,-0.14779 v 0.32969 q -0.187586,0.0796 -0.384645,0.12127 -0.19706,0.0417 -0.399804,0.0417 -0.507807,0 -0.805291,-0.29559 -0.295589,-0.29558 -0.295589,-0.7996 0,-0.52107 0.280431,-0.82614 0.282325,-0.30695 0.759816,-0.30695 0.428225,0 0.676444,0.27664 0.250114,0.27474 0.250114,0.74844 z m -0.348644,-0.10231 q -0.0038,-0.28612 -0.161058,-0.45665 -0.155374,-0.17053 -0.413067,-0.17053 -0.291799,0 -0.468016,0.16484 -0.174322,0.16485 -0.200849,0.46423 z"
         style="stroke-width:0.26458332px"
         id="path1086"
         inkscape:connector-curvature="0" />
      <path
         d="m 24.180427,175.79787 q 0.130741,-0.23496 0.312642,-0.34675 0.181901,-0.11179 0.428226,-0.11179 0.33159,0 0.511596,0.23306 0.180007,0.23116 0.180007,0.65939 v 1.28088 h -0.350539 v -1.26951 q 0,-0.30507 -0.108004,-0.45286 -0.108003,-0.1478 -0.329695,-0.1478 -0.270957,0 -0.428226,0.18001 -0.157268,0.18001 -0.157268,0.49075 v 1.19941 h -0.350539 v -1.26951 q 0,-0.30696 -0.108003,-0.45286 -0.108004,-0.1478 -0.333486,-0.1478 -0.267167,0 -0.424435,0.18191 -0.157269,0.18 -0.157269,0.48885 v 1.19941 h -0.350538 v -2.12217 h 0.350538 v 0.32969 q 0.119373,-0.19516 0.286115,-0.28801 0.166743,-0.0928 0.396014,-0.0928 0.231166,0 0.392224,0.11747 0.162953,0.11748 0.24064,0.34107 z"
         style="stroke-width:0.26458332px"
         id="path1088"
         inkscape:connector-curvature="0" />
      <path
         d="m 27.274639,176.44589 q -0.422541,0 -0.585494,0.0966 -0.162953,0.0966 -0.162953,0.32969 0,0.18569 0.121267,0.29559 0.123162,0.108 0.333486,0.108 0.289904,0 0.464226,-0.20463 0.176217,-0.20654 0.176217,-0.5476 v -0.0777 z m 0.695393,-0.144 v 1.21077 h -0.348644 v -0.32211 q -0.119373,0.19327 -0.297484,0.28611 -0.178112,0.0909 -0.435805,0.0909 -0.325906,0 -0.519176,-0.1819 -0.191375,-0.18379 -0.191375,-0.49075 0,-0.35812 0.238745,-0.54002 0.24064,-0.1819 0.716236,-0.1819 h 0.488859 v -0.0341 q 0,-0.24064 -0.159164,-0.37138 -0.157268,-0.13263 -0.443383,-0.13263 -0.181901,0 -0.354328,0.0436 -0.172427,0.0436 -0.331591,0.13074 v -0.32212 q 0.191375,-0.0739 0.371381,-0.1099 0.180007,-0.0379 0.350539,-0.0379 0.460437,0 0.687813,0.23874 0.227377,0.23875 0.227377,0.72382 z"
         style="stroke-width:0.26458332px"
         id="path1090"
         inkscape:connector-curvature="0" />
      <path
         d="m 30.217267,175.47196 v 0.32591 q -0.147795,-0.0815 -0.297484,-0.12127 -0.147795,-0.0417 -0.299379,-0.0417 -0.33917,0 -0.526755,0.216 -0.187586,0.21412 -0.187586,0.60255 0,0.38843 0.187586,0.60444 0.187585,0.21411 0.526755,0.21411 0.151584,0 0.299379,-0.0398 0.149689,-0.0417 0.297484,-0.12316 v 0.32212 q -0.1459,0.0682 -0.303169,0.10232 -0.155374,0.0341 -0.33159,0.0341 -0.479385,0 -0.761711,-0.30127 -0.282325,-0.30127 -0.282325,-0.81287 0,-0.51918 0.28422,-0.81666 0.286115,-0.29748 0.782553,-0.29748 0.161059,0 0.314538,0.0341 0.153479,0.0322 0.297484,0.0985 z"
         style="stroke-width:0.26458332px"
         id="path1092"
         inkscape:connector-curvature="0" />
      <path
         d="m 32.591456,176.23178 v 1.28088 h -0.348644 v -1.26951 q 0,-0.30128 -0.117478,-0.45097 -0.117478,-0.14969 -0.352433,-0.14969 -0.282326,0 -0.445279,0.18001 -0.162953,0.18001 -0.162953,0.49075 v 1.19941 h -0.350538 v -2.94831 h 0.350538 v 1.15583 q 0.125057,-0.19137 0.293695,-0.28611 0.170532,-0.0947 0.392224,-0.0947 0.365697,0 0.553282,0.22737 0.187586,0.22548 0.187586,0.66508 z"
         style="stroke-width:0.26458332px"
         id="path1094"
         inkscape:connector-curvature="0" />
      <path
         d="m 33.290638,175.39049 h 0.348644 v 2.12217 h -0.348644 z m 0,-0.82614 h 0.348644 v 0.44149 h -0.348644 z"
         style="stroke-width:0.26458332px"
         id="path1096"
         inkscape:connector-curvature="0" />
      <path
         d="m 36.130945,176.23178 v 1.28088 h -0.348643 v -1.26951 q 0,-0.30128 -0.117478,-0.45097 -0.117478,-0.14969 -0.352433,-0.14969 -0.282326,0 -0.445279,0.18001 -0.162953,0.18001 -0.162953,0.49075 v 1.19941 h -0.350538 v -2.12217 h 0.350538 v 0.32969 q 0.125057,-0.19137 0.293694,-0.28611 0.170533,-0.0947 0.392225,-0.0947 0.365696,0 0.553282,0.22737 0.187585,0.22548 0.187585,0.66508 z"
         style="stroke-width:0.26458332px"
         id="path1098"
         inkscape:connector-curvature="0" />
      <path
         d="m 38.645349,176.36441 v 0.17054 h -1.603003 q 0.02274,0.36001 0.216007,0.54949 0.195165,0.18758 0.541914,0.18758 0.200849,0 0.388434,-0.0493 0.18948,-0.0493 0.375171,-0.14779 v 0.32969 q -0.187585,0.0796 -0.384645,0.12127 -0.197059,0.0417 -0.399803,0.0417 -0.507807,0 -0.805291,-0.29559 -0.29559,-0.29558 -0.29559,-0.7996 0,-0.52107 0.280431,-0.82614 0.282326,-0.30695 0.759816,-0.30695 0.428225,0 0.676445,0.27664 0.250114,0.27474 0.250114,0.74844 z m -0.348644,-0.10231 q -0.0038,-0.28612 -0.161058,-0.45665 -0.155374,-0.17053 -0.413067,-0.17053 -0.2918,0 -0.468017,0.16484 -0.174321,0.16485 -0.200849,0.46423 z"
         style="stroke-width:0.26458332px"
         id="path1100"
         inkscape:connector-curvature="0" />
    </g>
    <g
       aria-label="gate in"
       style="font-style:normal;font-weight:normal;font-size:3.88055563px;line-height:125%;font-family:Sans;letter-spacing:0px;word-spacing:0px;fill:#000000;fill-opacity:1;stroke:none;stroke-width:0.26458332px;stroke-linecap:butt;stroke-linejoin:miter;stroke-opacity:1"
       id="text920"
       transform="translate(0,0.79375002)">
      <path
         d="m 4.4076599,199.43901 q 0,-0.27561 -0.1143772,-0.4272 -0.1129991,-0.15158 -0.3183268,-0.15158 -0.2039497,0 -0.3183269,0.15158 -0.1129991,0.15159 -0.1129991,0.4272 0,0.27423 0.1129991,0.42581 0.1143772,0.15158 0.3183269,0.15158 0.2053277,0 0.3183268,-0.15158 0.1143772,-0.15158 0.1143772,-0.42581 z m 0.253559,0.59807 q 0,0.39411 -0.1750109,0.58566 -0.1750108,0.19293 -0.5360568,0.19293 -0.1336697,0 -0.252181,-0.0207 -0.1185113,-0.0193 -0.2301324,-0.0606 v -0.24667 q 0.1116211,0.0606 0.2204861,0.0896 0.108865,0.0289 0.2218642,0.0289 0.2494249,0 0.3734483,-0.13091 0.1240235,-0.12953 0.1240235,-0.39274 v -0.1254 q -0.078548,0.13642 -0.2011936,0.20395 -0.1226454,0.0675 -0.2935222,0.0675 -0.2838758,0 -0.4575086,-0.21635 -0.1736329,-0.21635 -0.1736329,-0.57326 0,-0.35829 0.1736329,-0.57465 0.1736328,-0.21635 0.4575086,-0.21635 0.1708768,0 0.2935222,0.0675 0.1226454,0.0675 0.2011936,0.20395 v -0.23427 h 0.253559 z"
         style="font-style:normal;font-variant:normal;font-weight:normal;font-stretch:normal;font-size:2.82222223px;font-family:sans-serif;-inkscape-font-specification:sans-serif;fill:#000000;fill-opacity:1;stroke-width:0.26458332px"
         id="path1067"
         inkscape:connector-curvature="0" />
      <path
         d="m 5.8849168,199.45279 q -0.3073025,0 -0.4258138,0.0703 -0.1185113,0.0703 -0.1185113,0.23978 0,0.13504 0.088195,0.21497 0.089572,0.0785 0.2425347,0.0785 0.2108398,0 0.3376193,-0.14883 0.1281576,-0.15021 0.1281576,-0.39825 v -0.0565 z m 0.50574,-0.10473 v 0.88056 h -0.253559 v -0.23426 q -0.086816,0.14056 -0.216352,0.20808 -0.1295356,0.0661 -0.3169488,0.0661 -0.2370226,0 -0.3775824,-0.1323 -0.1391819,-0.13367 -0.1391819,-0.35691 0,-0.26045 0.1736328,-0.39274 0.1750109,-0.13229 0.5208984,-0.13229 h 0.3555339 v -0.0248 q 0,-0.17501 -0.1157552,-0.27009 -0.1143772,-0.0965 -0.3224609,-0.0965 -0.1322917,0 -0.2576932,0.0317 -0.1254015,0.0317 -0.2411567,0.0951 v -0.23427 q 0.1391819,-0.0537 0.2700955,-0.0799 0.1309136,-0.0276 0.2549371,-0.0276 0.3348633,0 0.5002278,0.17364 0.1653646,0.17363 0.1653646,0.52641 z"
         style="font-style:normal;font-variant:normal;font-weight:normal;font-stretch:normal;font-size:2.82222223px;font-family:sans-serif;-inkscape-font-specification:sans-serif;fill:#000000;fill-opacity:1;stroke-width:0.26458332px"
         id="path1069"
         inkscape:connector-curvature="0" />
      <path
         d="m 7.1651143,198.247 v 0.43822 h 0.5222765 v 0.19706 H 7.1651143 v 0.83785 q 0,0.18879 0.050987,0.24253 0.052365,0.0537 0.2108399,0.0537 h 0.2604492 v 0.21222 H 7.4269416 q -0.2935222,0 -0.4051432,-0.10886 -0.1116211,-0.11025 -0.1116211,-0.39963 v -0.83785 H 6.7241421 v -0.19706 H 6.9101773 V 198.247 Z"
         style="font-style:normal;font-variant:normal;font-weight:normal;font-stretch:normal;font-size:2.82222223px;font-family:sans-serif;-inkscape-font-specification:sans-serif;fill:#000000;fill-opacity:1;stroke-width:0.26458332px"
         id="path1071"
         inkscape:connector-curvature="0" />
      <path
         d="m 9.3424148,199.39353 v 0.12402 H 8.1765945 q 0.016536,0.26183 0.1570963,0.39964 0.141938,0.13642 0.394119,0.13642 0.146072,0 0.2824978,-0.0358 0.1378038,-0.0358 0.2728515,-0.10748 v 0.23977 q -0.1364257,0.0579 -0.2797417,0.0882 -0.143316,0.0303 -0.2907661,0.0303 -0.3693142,0 -0.5856662,-0.21498 -0.214974,-0.21497 -0.214974,-0.58153 0,-0.37896 0.2039497,-0.60083 0.2053277,-0.22324 0.5525933,-0.22324 0.3114366,0 0.4919596,0.2012 0.1819011,0.19981 0.1819011,0.54432 z m -0.253559,-0.0744 q -0.00276,-0.20809 -0.1171333,-0.33211 -0.1129991,-0.12402 -0.3004123,-0.12402 -0.2122179,0 -0.3403755,0.11989 -0.1267795,0.11989 -0.146072,0.33762 z"
         style="font-style:normal;font-variant:normal;font-weight:normal;font-stretch:normal;font-size:2.82222223px;font-family:sans-serif;-inkscape-font-specification:sans-serif;fill:#000000;fill-opacity:1;stroke-width:0.26458332px"
         id="path1073"
         inkscape:connector-curvature="0" />
      <path
         d="m 10.657063,198.68522 h 0.253559 v 1.5434 h -0.253559 z m 0,-0.60083 h 0.253559 v 0.32109 h -0.253559 z"
         style="font-style:normal;font-variant:normal;font-weight:normal;font-stretch:normal;font-size:2.82222223px;font-family:sans-serif;-inkscape-font-specification:sans-serif;fill:#000000;fill-opacity:1;stroke-width:0.26458332px"
         id="path1075"
         inkscape:connector-curvature="0" />
      <path
         d="m 12.722742,199.29707 v 0.93155 h -0.253559 v -0.92328 q 0,-0.21911 -0.08544,-0.32798 -0.08544,-0.10886 -0.256315,-0.10886 -0.205328,0 -0.323839,0.13091 -0.118512,0.13092 -0.118512,0.35691 v 0.8723 H 11.43014 v -1.5434 h 0.254937 v 0.23978 q 0.09095,-0.13918 0.213596,-0.20809 0.124024,-0.0689 0.285254,-0.0689 0.265962,0 0.402387,0.16537 0.136426,0.16398 0.136426,0.48369 z"
         style="font-style:normal;font-variant:normal;font-weight:normal;font-stretch:normal;font-size:2.82222223px;font-family:sans-serif;-inkscape-font-specification:sans-serif;fill:#000000;fill-opacity:1;stroke-width:0.26458332px"
         id="path1077"
         inkscape:connector-curvature="0" />
    </g>
    <g
       aria-label="trig 1"
       style="font-style:normal;font-weight:normal;font-size:3.88055563px;line-height:125%;font-family:Sans;letter-spacing:0px;word-spacing:0px;fill:#000000;fill-opacity:1;stroke:none;stroke-width:0.26458332px;stroke-linecap:butt;stroke-linejoin:miter;stroke-opacity:1"
       id="text924"
       transform="translate(0,0.39687501)">
      <path
         d="m 4.304299,215.84185 v 0.43822 h 0.5222765 v 0.19706 H 4.304299 v 0.83784 q 0,0.1888 0.050987,0.24254 0.052365,0.0537 0.2108398,0.0537 H 4.826575 v 0.21222 H 4.5661263 q -0.2935221,0 -0.4051432,-0.10886 -0.1116211,-0.11025 -0.1116211,-0.39964 v -0.83784 H 3.8633268 v -0.19706 H 4.049362 v -0.43822 z"
         style="font-style:normal;font-variant:normal;font-weight:normal;font-stretch:normal;font-size:2.82222223px;font-family:sans-serif;-inkscape-font-specification:sans-serif;fill:#000000;fill-opacity:1;stroke-width:0.26458332px"
         id="path1056"
         inkscape:connector-curvature="0" />
      <path
         d="m 6.0557856,216.51709 q -0.042719,-0.0248 -0.093707,-0.0358 -0.049609,-0.0124 -0.1102431,-0.0124 -0.2149739,0 -0.3307291,0.14056 -0.1143772,0.13918 -0.1143772,0.40101 v 0.81304 H 5.1517925 v -1.5434 h 0.2549371 v 0.23978 q 0.079926,-0.14056 0.2080838,-0.20809 0.1281575,-0.0689 0.3114366,-0.0689 0.026183,0 0.057878,0.004 0.031695,0.003 0.07028,0.01 z"
         style="font-style:normal;font-variant:normal;font-weight:normal;font-stretch:normal;font-size:2.82222223px;font-family:sans-serif;-inkscape-font-specification:sans-serif;fill:#000000;fill-opacity:1;stroke-width:0.26458332px"
         id="path1058"
         inkscape:connector-curvature="0" />
      <path
         d="m 6.3245031,216.28007 h 0.2535591 v 1.5434 H 6.3245031 Z m 0,-0.60083 h 0.2535591 v 0.32109 H 6.3245031 Z"
         style="font-style:normal;font-variant:normal;font-weight:normal;font-stretch:normal;font-size:2.82222223px;font-family:sans-serif;-inkscape-font-specification:sans-serif;fill:#000000;fill-opacity:1;stroke-width:0.26458332px"
         id="path1060"
         inkscape:connector-curvature="0" />
      <path
         d="m 8.1228429,217.03386 q 0,-0.27561 -0.1143772,-0.4272 -0.1129991,-0.15158 -0.3183268,-0.15158 -0.2039497,0 -0.3183268,0.15158 -0.1129992,0.15159 -0.1129992,0.4272 0,0.27422 0.1129992,0.42581 0.1143771,0.15158 0.3183268,0.15158 0.2053277,0 0.3183268,-0.15158 0.1143772,-0.15159 0.1143772,-0.42581 z m 0.253559,0.59806 q 0,0.39412 -0.1750108,0.58567 -0.1750109,0.19293 -0.5360569,0.19293 -0.1336697,0 -0.252181,-0.0207 -0.1185113,-0.0193 -0.2301324,-0.0606 v -0.24667 q 0.1116211,0.0606 0.2204861,0.0896 0.1088651,0.0289 0.2218642,0.0289 0.2494249,0 0.3734483,-0.13091 0.1240235,-0.12954 0.1240235,-0.39274 v -0.1254 q -0.078548,0.13642 -0.2011936,0.20395 -0.1226454,0.0675 -0.2935221,0.0675 -0.2838759,0 -0.4575087,-0.21635 -0.1736328,-0.21635 -0.1736328,-0.57326 0,-0.35829 0.1736328,-0.57465 0.1736328,-0.21635 0.4575087,-0.21635 0.1708767,0 0.2935221,0.0675 0.1226454,0.0675 0.2011936,0.20394 v -0.23426 h 0.253559 z"
         style="font-style:normal;font-variant:normal;font-weight:normal;font-stretch:normal;font-size:2.82222223px;font-family:sans-serif;-inkscape-font-specification:sans-serif;fill:#000000;fill-opacity:1;stroke-width:0.26458332px"
         id="path1062"
         inkscape:connector-curvature="0" />
      <path
         d="m 9.8812197,217.5892 h 0.4547523 v -1.56958 l -0.4947154,0.0992 v -0.25356 l 0.4919594,-0.0992 h 0.278364 v 1.82314 h 0.454753 v 0.23427 H 9.8812197 Z"
         style="font-style:normal;font-variant:normal;font-weight:normal;font-stretch:normal;font-size:2.82222223px;font-family:sans-serif;-inkscape-font-specification:sans-serif;fill:#000000;fill-opacity:1;stroke-width:0.26458332px"
         id="path1064"
         inkscape:connector-curvature="0" />
    </g>
    <g
       aria-label="trig 2"
       style="font-style:normal;font-weight:normal;font-size:3.88055563px;line-height:125%;font-family:Sans;letter-spacing:0px;word-spacing:0px;fill:#000000;fill-opacity:1;stroke:none;stroke-width:0.26458332px;stroke-linecap:butt;stroke-linejoin:miter;stroke-opacity:1"
       id="text928"
       transform="translate(0,0.79375002)">
      <path
         d="m 4.304299,233.56901 v 0.43822 h 0.5222765 v 0.19706 H 4.304299 v 0.83784 q 0,0.18879 0.050987,0.24254 0.052365,0.0537 0.2108398,0.0537 H 4.826575 v 0.21222 H 4.5661263 q -0.2935221,0 -0.4051432,-0.10887 -0.1116211,-0.11024 -0.1116211,-0.39963 v -0.83784 H 3.8633268 v -0.19706 H 4.049362 v -0.43822 z"
         style="font-style:normal;font-variant:normal;font-weight:normal;font-stretch:normal;font-size:2.82222223px;font-family:sans-serif;-inkscape-font-specification:sans-serif;fill:#000000;fill-opacity:1;stroke-width:0.26458332px"
         id="path1045"
         inkscape:connector-curvature="0" />
      <path
         d="m 6.0557856,234.24425 q -0.042719,-0.0248 -0.093707,-0.0358 -0.049609,-0.0124 -0.1102431,-0.0124 -0.2149739,0 -0.3307291,0.14056 -0.1143772,0.13918 -0.1143772,0.40101 v 0.81304 H 5.1517925 v -1.5434 h 0.2549371 v 0.23977 q 0.079926,-0.14056 0.2080838,-0.20808 0.1281575,-0.0689 0.3114366,-0.0689 0.026183,0 0.057878,0.004 0.031695,0.003 0.07028,0.01 z"
         style="font-style:normal;font-variant:normal;font-weight:normal;font-stretch:normal;font-size:2.82222223px;font-family:sans-serif;-inkscape-font-specification:sans-serif;fill:#000000;fill-opacity:1;stroke-width:0.26458332px"
         id="path1047"
         inkscape:connector-curvature="0" />
      <path
         d="m 6.3245031,234.00723 h 0.2535591 v 1.5434 H 6.3245031 Z m 0,-0.60083 h 0.2535591 v 0.32108 H 6.3245031 Z"
         style="font-style:normal;font-variant:normal;font-weight:normal;font-stretch:normal;font-size:2.82222223px;font-family:sans-serif;-inkscape-font-specification:sans-serif;fill:#000000;fill-opacity:1;stroke-width:0.26458332px"
         id="path1049"
         inkscape:connector-curvature="0" />
      <path
         d="m 8.1228429,234.76101 q 0,-0.2756 -0.1143772,-0.42719 -0.1129991,-0.15158 -0.3183268,-0.15158 -0.2039497,0 -0.3183268,0.15158 -0.1129992,0.15159 -0.1129992,0.42719 0,0.27423 0.1129992,0.42582 0.1143771,0.15158 0.3183268,0.15158 0.2053277,0 0.3183268,-0.15158 0.1143772,-0.15159 0.1143772,-0.42582 z m 0.253559,0.59807 q 0,0.39412 -0.1750108,0.58567 -0.1750109,0.19292 -0.5360569,0.19292 -0.1336697,0 -0.252181,-0.0207 -0.1185113,-0.0193 -0.2301324,-0.0606 v -0.24667 q 0.1116211,0.0606 0.2204861,0.0896 0.1088651,0.0289 0.2218642,0.0289 0.2494249,0 0.3734483,-0.13091 0.1240235,-0.12954 0.1240235,-0.39274 v -0.1254 q -0.078548,0.13642 -0.2011936,0.20394 -0.1226454,0.0675 -0.2935221,0.0675 -0.2838759,0 -0.4575087,-0.21635 -0.1736328,-0.21636 -0.1736328,-0.57327 0,-0.35829 0.1736328,-0.57464 0.1736328,-0.21635 0.4575087,-0.21635 0.1708767,0 0.2935221,0.0675 0.1226454,0.0675 0.2011936,0.20395 v -0.23426 h 0.253559 z"
         style="font-style:normal;font-variant:normal;font-weight:normal;font-stretch:normal;font-size:2.82222223px;font-family:sans-serif;-inkscape-font-specification:sans-serif;fill:#000000;fill-opacity:1;stroke-width:0.26458332px"
         id="path1051"
         inkscape:connector-curvature="0" />
      <path
         d="m 10.072767,235.31636 h 0.971517 v 0.23427 H 9.7379038 v -0.23427 q 0.1584743,-0.16398 0.4313262,-0.43959 0.274229,-0.27699 0.344509,-0.35691 0.13367,-0.15021 0.186035,-0.25356 0.05374,-0.10473 0.05374,-0.20533 0,-0.16399 -0.115755,-0.26734 -0.114377,-0.10335 -0.299035,-0.10335 -0.130913,0 -0.276985,0.0455 -0.1446943,0.0455 -0.3100589,0.13781 v -0.28112 q 0.1681207,-0.0675 0.3141929,-0.10198 0.146072,-0.0345 0.267339,-0.0345 0.319705,0 0.509874,0.15985 0.19017,0.15986 0.19017,0.42719 0,0.12678 -0.04823,0.24116 -0.04685,0.113 -0.172254,0.26734 -0.03445,0.04 -0.219109,0.23151 -0.184657,0.19017 -0.520898,0.5333 z"
         style="font-style:normal;font-variant:normal;font-weight:normal;font-stretch:normal;font-size:2.82222223px;font-family:sans-serif;-inkscape-font-specification:sans-serif;fill:#000000;fill-opacity:1;stroke-width:0.26458332px"
         id="path1053"
         inkscape:connector-curvature="0" />
    </g>
    <g
       aria-label="trig 3"
       style="font-style:normal;font-weight:normal;font-size:3.88055563px;line-height:125%;font-family:Sans;letter-spacing:0px;word-spacing:0px;fill:#000000;fill-opacity:1;stroke:none;stroke-width:0.26458332px;stroke-linecap:butt;stroke-linejoin:miter;stroke-opacity:1"
       id="text932"
       transform="translate(0,0.79375001)">
      <path
         d="m 4.304299,251.03158 v 0.43822 h 0.5222765 v 0.19706 H 4.304299 v 0.83784 q 0,0.18879 0.050987,0.24254 0.052365,0.0537 0.2108398,0.0537 H 4.826575 v 0.21222 H 4.5661263 q -0.2935221,0 -0.4051432,-0.10887 -0.1116211,-0.1102 -0.1116211,-0.39959 v -0.83784 H 3.8633268 V 251.4698 H 4.049362 v -0.43822 z"
         style="font-style:normal;font-variant:normal;font-weight:normal;font-stretch:normal;font-size:2.82222223px;font-family:sans-serif;-inkscape-font-specification:sans-serif;fill:#000000;fill-opacity:1;stroke-width:0.26458332px"
         id="path1034"
         inkscape:connector-curvature="0" />
      <path
         d="m 6.0557856,251.70682 q -0.042719,-0.0248 -0.093707,-0.0358 -0.049609,-0.0124 -0.1102431,-0.0124 -0.2149739,0 -0.3307291,0.14056 -0.1143772,0.13918 -0.1143772,0.40101 v 0.81304 H 5.1517925 v -1.5434 h 0.2549371 v 0.23977 q 0.079926,-0.14056 0.2080838,-0.20808 0.1281575,-0.0689 0.3114366,-0.0689 0.026183,0 0.057878,0.004 0.031695,0.003 0.07028,0.01 z"
         style="font-style:normal;font-variant:normal;font-weight:normal;font-stretch:normal;font-size:2.82222223px;font-family:sans-serif;-inkscape-font-specification:sans-serif;fill:#000000;fill-opacity:1;stroke-width:0.26458332px"
         id="path1036"
         inkscape:connector-curvature="0" />
      <path
         d="m 6.3245031,251.4698 h 0.2535591 v 1.5434 H 6.3245031 Z m 0,-0.60083 h 0.2535591 v 0.32108 H 6.3245031 Z"
         style="font-style:normal;font-variant:normal;font-weight:normal;font-stretch:normal;font-size:2.82222223px;font-family:sans-serif;-inkscape-font-specification:sans-serif;fill:#000000;fill-opacity:1;stroke-width:0.26458332px"
         id="path1038"
         inkscape:connector-curvature="0" />
      <path
         d="m 8.1228429,252.22358 q 0,-0.2756 -0.1143772,-0.42719 -0.1129991,-0.15158 -0.3183268,-0.15158 -0.2039497,0 -0.3183268,0.15158 -0.1129992,0.15159 -0.1129992,0.42719 0,0.27423 0.1129992,0.42582 0.1143771,0.15158 0.3183268,0.15158 0.2053277,0 0.3183268,-0.15158 0.1143772,-0.15159 0.1143772,-0.42582 z m 0.253559,0.59807 q 0,0.39412 -0.1750108,0.58567 -0.1750109,0.19292 -0.5360569,0.19292 -0.1336697,0 -0.252181,-0.0207 -0.1185113,-0.0193 -0.2301324,-0.0606 v -0.24667 q 0.1116211,0.0606 0.2204861,0.0896 0.1088651,0.0289 0.2218642,0.0289 0.2494249,0 0.3734483,-0.13091 0.1240235,-0.12954 0.1240235,-0.39274 v -0.1254 q -0.078548,0.13642 -0.2011936,0.20394 -0.1226454,0.0675 -0.2935221,0.0675 -0.2838759,0 -0.4575087,-0.21635 -0.1736328,-0.21636 -0.1736328,-0.57327 0,-0.35829 0.1736328,-0.57464 0.1736328,-0.21635 0.4575087,-0.21635 0.1708767,0 0.2935221,0.0675 0.1226454,0.0675 0.2011936,0.20395 v -0.23426 h 0.253559 z"
         style="font-style:normal;font-variant:normal;font-weight:normal;font-stretch:normal;font-size:2.82222223px;font-family:sans-serif;-inkscape-font-specification:sans-serif;fill:#000000;fill-opacity:1;stroke-width:0.26458332px"
         id="path1040"
         inkscape:connector-curvature="0" />
      <path
         d="m 10.676348,251.90388 q 0.199815,0.0427 0.311436,0.17777 0.113,0.13504 0.113,0.33348 0,0.30455 -0.209462,0.47129 -0.209462,0.16674 -0.595313,0.16674 -0.129535,0 -0.267339,-0.0262 -0.136426,-0.0248 -0.282498,-0.0758 v -0.26872 q 0.1157552,0.0675 0.253559,0.10197 0.137804,0.0345 0.28801,0.0345 0.261827,0 0.398253,-0.10336 0.137804,-0.10335 0.137804,-0.30041 0,-0.1819 -0.128158,-0.28388 -0.126779,-0.10335 -0.354156,-0.10335 h -0.239778 v -0.22875 h 0.250803 q 0.205327,0 0.314193,-0.0813 0.108865,-0.0827 0.108865,-0.23702 0,-0.15847 -0.113,-0.24253 -0.111621,-0.0854 -0.321083,-0.0854 -0.114377,0 -0.24529,0.0248 -0.1309139,0.0248 -0.2880103,0.0772 v -0.24804 q 0.1584744,-0.0441 0.2962783,-0.0661 0.139182,-0.0221 0.261827,-0.0221 0.316949,0 0.501606,0.14469 0.184657,0.14332 0.184657,0.38861 0,0.17088 -0.09784,0.28939 -0.09784,0.11713 -0.278363,0.16261 z"
         style="font-style:normal;font-variant:normal;font-weight:normal;font-stretch:normal;font-size:2.82222223px;font-family:sans-serif;-inkscape-font-specification:sans-serif;fill:#000000;fill-opacity:1;stroke-width:0.26458332px"
         id="path1042"
         inkscape:connector-curvature="0" />
    </g>
    <g
       aria-label="trig 4"
       style="font-style:normal;font-weight:normal;font-size:3.88055563px;line-height:125%;font-family:Sans;letter-spacing:0px;word-spacing:0px;fill:#000000;fill-opacity:1;stroke:none;stroke-width:0.26458332px;stroke-linecap:butt;stroke-linejoin:miter;stroke-opacity:1"
       id="text936"
       transform="translate(0,0.79375002)">
      <path
         d="m 4.304299,268.49397 v 0.43821 h 0.5222765 v 0.19706 H 4.304299 v 0.83785 q 0,0.18879 0.050987,0.24253 0.052365,0.0538 0.2108398,0.0538 H 4.826575 v 0.21222 H 4.5661263 q -0.2935221,0 -0.4051432,-0.10887 -0.1116211,-0.11024 -0.1116211,-0.39963 v -0.83785 H 3.8633268 v -0.19706 H 4.049362 v -0.43821 z"
         style="font-style:normal;font-variant:normal;font-weight:normal;font-stretch:normal;font-size:2.82222223px;font-family:sans-serif;-inkscape-font-specification:sans-serif;fill:#000000;fill-opacity:1;stroke-width:0.26458332px"
         id="path1023"
         inkscape:connector-curvature="0" />
      <path
         d="m 6.0557856,269.16921 q -0.042719,-0.0248 -0.093707,-0.0358 -0.049609,-0.0124 -0.1102431,-0.0124 -0.2149739,0 -0.3307291,0.14056 -0.1143772,0.13919 -0.1143772,0.40101 v 0.81305 H 5.1517925 v -1.54341 h 0.2549371 v 0.23978 q 0.079926,-0.14056 0.2080838,-0.20808 0.1281575,-0.0689 0.3114366,-0.0689 0.026183,0 0.057878,0.004 0.031695,0.003 0.07028,0.01 z"
         style="font-style:normal;font-variant:normal;font-weight:normal;font-stretch:normal;font-size:2.82222223px;font-family:sans-serif;-inkscape-font-specification:sans-serif;fill:#000000;fill-opacity:1;stroke-width:0.26458332px"
         id="path1025"
         inkscape:connector-curvature="0" />
      <path
         d="m 6.3245031,268.93218 h 0.2535591 v 1.54341 H 6.3245031 Z m 0,-0.60082 h 0.2535591 v 0.32108 H 6.3245031 Z"
         style="font-style:normal;font-variant:normal;font-weight:normal;font-stretch:normal;font-size:2.82222223px;font-family:sans-serif;-inkscape-font-specification:sans-serif;fill:#000000;fill-opacity:1;stroke-width:0.26458332px"
         id="path1027"
         inkscape:connector-curvature="0" />
      <path
         d="m 8.1228429,269.68597 q 0,-0.27561 -0.1143772,-0.42719 -0.1129991,-0.15159 -0.3183268,-0.15159 -0.2039497,0 -0.3183268,0.15159 -0.1129992,0.15158 -0.1129992,0.42719 0,0.27423 0.1129992,0.42581 0.1143771,0.15159 0.3183268,0.15159 0.2053277,0 0.3183268,-0.15159 0.1143772,-0.15158 0.1143772,-0.42581 z m 0.253559,0.59807 q 0,0.39412 -0.1750108,0.58566 -0.1750109,0.19293 -0.5360569,0.19293 -0.1336697,0 -0.252181,-0.0207 -0.1185113,-0.0193 -0.2301324,-0.0606 v -0.24667 q 0.1116211,0.0606 0.2204861,0.0896 0.1088651,0.0289 0.2218642,0.0289 0.2494249,0 0.3734483,-0.13092 0.1240235,-0.12953 0.1240235,-0.39274 v -0.1254 q -0.078548,0.13643 -0.2011936,0.20395 -0.1226454,0.0675 -0.2935221,0.0675 -0.2838759,0 -0.4575087,-0.21636 -0.1736328,-0.21635 -0.1736328,-0.57326 0,-0.35829 0.1736328,-0.57464 0.1736328,-0.21635 0.4575087,-0.21635 0.1708767,0 0.2935221,0.0675 0.1226454,0.0675 0.2011936,0.20395 v -0.23427 h 0.253559 z"
         style="font-style:normal;font-variant:normal;font-weight:normal;font-stretch:normal;font-size:2.82222223px;font-family:sans-serif;-inkscape-font-specification:sans-serif;fill:#000000;fill-opacity:1;stroke-width:0.26458332px"
         id="path1029"
         inkscape:connector-curvature="0" />
      <path
         d="m 10.5978,268.66071 -0.7027999,1.0983 H 10.5978 Z m -0.07304,-0.24254 h 0.350021 v 1.34084 h 0.293522 v 0.23151 h -0.293522 v 0.48507 H 10.5978 v -0.48507 H 9.6690018 v -0.26872 z"
         style="font-style:normal;font-variant:normal;font-weight:normal;font-stretch:normal;font-size:2.82222223px;font-family:sans-serif;-inkscape-font-specification:sans-serif;fill:#000000;fill-opacity:1;stroke-width:0.26458332px"
         id="path1031"
         inkscape:connector-curvature="0" />
    </g>
    <g
       aria-label="trig 5"
       style="font-style:normal;font-weight:normal;font-size:3.88055563px;line-height:125%;font-family:Sans;letter-spacing:0px;word-spacing:0px;fill:#000000;fill-opacity:1;stroke:none;stroke-width:0.26458332px;stroke-linecap:butt;stroke-linejoin:miter;stroke-opacity:1"
       id="text940"
       transform="translate(0,0.66145835)">
      <path
         d="m 4.304299,285.95634 v 0.43821 h 0.5222765 v 0.19706 H 4.304299 v 0.83785 q 0,0.18879 0.050987,0.24254 0.052365,0.0537 0.2108398,0.0537 H 4.826575 v 0.21222 H 4.5661263 q -0.2935221,0 -0.4051432,-0.10887 -0.1116211,-0.11024 -0.1116211,-0.39963 v -0.83785 H 3.8633268 v -0.19706 H 4.049362 v -0.43821 z"
         style="font-style:normal;font-variant:normal;font-weight:normal;font-stretch:normal;font-size:2.82222223px;font-family:sans-serif;-inkscape-font-specification:sans-serif;fill:#000000;fill-opacity:1;stroke-width:0.26458332px"
         id="path1012"
         inkscape:connector-curvature="0" />
      <path
         d="m 6.0557856,286.63158 q -0.042719,-0.0248 -0.093707,-0.0358 -0.049609,-0.0124 -0.1102431,-0.0124 -0.2149739,0 -0.3307291,0.14056 -0.1143772,0.13918 -0.1143772,0.40101 v 0.81304 H 5.1517925 v -1.54341 h 0.2549371 v 0.23978 q 0.079926,-0.14056 0.2080838,-0.20808 0.1281575,-0.0689 0.3114366,-0.0689 0.026183,0 0.057878,0.004 0.031695,0.003 0.07028,0.01 z"
         style="font-style:normal;font-variant:normal;font-weight:normal;font-stretch:normal;font-size:2.82222223px;font-family:sans-serif;-inkscape-font-specification:sans-serif;fill:#000000;fill-opacity:1;stroke-width:0.26458332px"
         id="path1014"
         inkscape:connector-curvature="0" />
      <path
         d="m 6.3245031,286.39455 h 0.2535591 v 1.54341 H 6.3245031 Z m 0,-0.60082 h 0.2535591 v 0.32108 H 6.3245031 Z"
         style="font-style:normal;font-variant:normal;font-weight:normal;font-stretch:normal;font-size:2.82222223px;font-family:sans-serif;-inkscape-font-specification:sans-serif;fill:#000000;fill-opacity:1;stroke-width:0.26458332px"
         id="path1016"
         inkscape:connector-curvature="0" />
      <path
         d="m 8.1228429,287.14834 q 0,-0.27561 -0.1143772,-0.42719 -0.1129991,-0.15158 -0.3183268,-0.15158 -0.2039497,0 -0.3183268,0.15158 -0.1129992,0.15158 -0.1129992,0.42719 0,0.27423 0.1129992,0.42582 0.1143771,0.15158 0.3183268,0.15158 0.2053277,0 0.3183268,-0.15158 0.1143772,-0.15159 0.1143772,-0.42582 z m 0.253559,0.59807 q 0,0.39412 -0.1750108,0.58567 -0.1750109,0.19292 -0.5360569,0.19292 -0.1336697,0 -0.252181,-0.0207 -0.1185113,-0.0193 -0.2301324,-0.0606 v -0.24667 q 0.1116211,0.0606 0.2204861,0.0896 0.1088651,0.0289 0.2218642,0.0289 0.2494249,0 0.3734483,-0.13091 0.1240235,-0.12954 0.1240235,-0.39274 v -0.12541 q -0.078548,0.13643 -0.2011936,0.20395 -0.1226454,0.0675 -0.2935221,0.0675 -0.2838759,0 -0.4575087,-0.21635 -0.1736328,-0.21636 -0.1736328,-0.57327 0,-0.35829 0.1736328,-0.57464 0.1736328,-0.21635 0.4575087,-0.21635 0.1708767,0 0.2935221,0.0675 0.1226454,0.0675 0.2011936,0.20395 v -0.23427 h 0.253559 z"
         style="font-style:normal;font-variant:normal;font-weight:normal;font-stretch:normal;font-size:2.82222223px;font-family:sans-serif;-inkscape-font-specification:sans-serif;fill:#000000;fill-opacity:1;stroke-width:0.26458332px"
         id="path1018"
         inkscape:connector-curvature="0" />
      <path
         d="m 9.8357445,285.88055 h 1.0927845 v 0.23426 h -0.837847 v 0.50437 q 0.06063,-0.0207 0.121267,-0.0303 0.06063,-0.011 0.121267,-0.011 0.34451,0 0.545703,0.1888 0.201194,0.18879 0.201194,0.51125 0,0.3321 -0.206706,0.51676 -0.206705,0.18328 -0.58291,0.18328 -0.129536,0 -0.264583,-0.022 -0.13367,-0.022 -0.2769859,-0.0661 v -0.27975 q 0.1240234,0.0675 0.2563149,0.1006 0.132292,0.0331 0.279742,0.0331 0.238401,0 0.377582,-0.1254 0.139182,-0.1254 0.139182,-0.34037 0,-0.21498 -0.139182,-0.34038 -0.139181,-0.1254 -0.377582,-0.1254 -0.111621,0 -0.223242,0.0248 -0.1102433,0.0248 -0.2259985,0.0772 z"
         style="font-style:normal;font-variant:normal;font-weight:normal;font-stretch:normal;font-size:2.82222223px;font-family:sans-serif;-inkscape-font-specification:sans-serif;fill:#000000;fill-opacity:1;stroke-width:0.26458332px"
         id="path1020"
         inkscape:connector-curvature="0" />
    </g>
    <g
       aria-label="trig mix"
       style="font-style:normal;font-weight:normal;font-size:3.88055563px;line-height:125%;font-family:Sans;letter-spacing:0px;word-spacing:0px;fill:#000000;fill-opacity:1;stroke:none;stroke-width:0.26458332px;stroke-linecap:butt;stroke-linejoin:miter;stroke-opacity:1"
       id="text944"
       transform="translate(0,0.66145835)">
      <path
         d="m 20.708462,285.95634 v 0.43821 h 0.522277 v 0.19706 h -0.522277 v 0.83785 q 0,0.18879 0.05099,0.24254 0.05236,0.0537 0.21084,0.0537 h 0.260449 v 0.21222 H 20.97029 q -0.293522,0 -0.405144,-0.10887 -0.111621,-0.11024 -0.111621,-0.39963 v -0.83785 H 20.26749 v -0.19706 h 0.186035 v -0.43821 z"
         style="font-style:normal;font-variant:normal;font-weight:normal;font-stretch:normal;font-size:2.82222223px;font-family:sans-serif;-inkscape-font-specification:sans-serif;fill:#000000;fill-opacity:1;stroke-width:0.26458332px"
         id="path997"
         inkscape:connector-curvature="0" />
      <path
         d="m 22.459949,286.63158 q -0.04272,-0.0248 -0.09371,-0.0358 -0.04961,-0.0124 -0.110243,-0.0124 -0.214974,0 -0.330729,0.14056 -0.114377,0.13918 -0.114377,0.40101 v 0.81304 h -0.254937 v -1.54341 h 0.254937 v 0.23978 q 0.07993,-0.14056 0.208084,-0.20808 0.128157,-0.0689 0.311436,-0.0689 0.02618,0 0.05788,0.004 0.0317,0.003 0.07028,0.01 z"
         style="font-style:normal;font-variant:normal;font-weight:normal;font-stretch:normal;font-size:2.82222223px;font-family:sans-serif;-inkscape-font-specification:sans-serif;fill:#000000;fill-opacity:1;stroke-width:0.26458332px"
         id="path999"
         inkscape:connector-curvature="0" />
      <path
         d="m 22.728667,286.39455 h 0.253559 v 1.54341 h -0.253559 z m 0,-0.60082 h 0.253559 v 0.32108 h -0.253559 z"
         style="font-style:normal;font-variant:normal;font-weight:normal;font-stretch:normal;font-size:2.82222223px;font-family:sans-serif;-inkscape-font-specification:sans-serif;fill:#000000;fill-opacity:1;stroke-width:0.26458332px"
         id="path1001"
         inkscape:connector-curvature="0" />
      <path
         d="m 24.527006,287.14834 q 0,-0.27561 -0.114377,-0.42719 -0.112999,-0.15158 -0.318327,-0.15158 -0.203949,0 -0.318327,0.15158 -0.112999,0.15158 -0.112999,0.42719 0,0.27423 0.112999,0.42582 0.114378,0.15158 0.318327,0.15158 0.205328,0 0.318327,-0.15158 0.114377,-0.15159 0.114377,-0.42582 z m 0.253559,0.59807 q 0,0.39412 -0.175011,0.58567 -0.17501,0.19292 -0.536056,0.19292 -0.13367,0 -0.252181,-0.0207 -0.118512,-0.0193 -0.230133,-0.0606 v -0.24667 q 0.111621,0.0606 0.220486,0.0896 0.108865,0.0289 0.221864,0.0289 0.249425,0 0.373449,-0.13091 0.124023,-0.12954 0.124023,-0.39274 v -0.12541 q -0.07855,0.13643 -0.201193,0.20395 -0.122646,0.0675 -0.293522,0.0675 -0.283876,0 -0.457509,-0.21635 -0.173633,-0.21636 -0.173633,-0.57327 0,-0.35829 0.173633,-0.57464 0.173633,-0.21635 0.457509,-0.21635 0.170876,0 0.293522,0.0675 0.122645,0.0675 0.201193,0.20395 v -0.23427 h 0.253559 z"
         style="font-style:normal;font-variant:normal;font-weight:normal;font-stretch:normal;font-size:2.82222223px;font-family:sans-serif;-inkscape-font-specification:sans-serif;fill:#000000;fill-opacity:1;stroke-width:0.26458332px"
         id="path1003"
         inkscape:connector-curvature="0" />
      <path
         d="m 27.402972,286.69083 q 0.09509,-0.17087 0.227376,-0.25218 0.132292,-0.0813 0.311437,-0.0813 0.241157,0 0.37207,0.1695 0.130914,0.16812 0.130914,0.47955 v 0.93156 h -0.254937 v -0.92329 q 0,-0.22186 -0.07855,-0.32935 -0.07855,-0.10749 -0.239779,-0.10749 -0.197059,0 -0.311437,0.13092 -0.114377,0.13091 -0.114377,0.35691 v 0.8723 h -0.254937 v -0.92329 q 0,-0.22324 -0.07855,-0.32935 -0.07855,-0.10749 -0.242535,-0.10749 -0.194303,0 -0.30868,0.1323 -0.114377,0.13091 -0.114377,0.35553 v 0.8723 h -0.254938 v -1.54341 h 0.254938 v 0.23978 q 0.08682,-0.14193 0.208083,-0.20946 0.121268,-0.0675 0.28801,-0.0675 0.168121,0 0.285254,0.0854 0.118512,0.0854 0.175011,0.24804 z"
         style="font-style:normal;font-variant:normal;font-weight:normal;font-stretch:normal;font-size:2.82222223px;font-family:sans-serif;-inkscape-font-specification:sans-serif;fill:#000000;fill-opacity:1;stroke-width:0.26458332px"
         id="path1005"
         inkscape:connector-curvature="0" />
      <path
         d="m 28.951887,286.39455 h 0.253559 v 1.54341 h -0.253559 z m 0,-0.60082 h 0.253559 v 0.32108 h -0.253559 z"
         style="font-style:normal;font-variant:normal;font-weight:normal;font-stretch:normal;font-size:2.82222223px;font-family:sans-serif;-inkscape-font-specification:sans-serif;fill:#000000;fill-opacity:1;stroke-width:0.26458332px"
         id="path1007"
         inkscape:connector-curvature="0" />
      <path
         d="m 31.017566,286.39455 -0.558106,0.75104 0.587045,0.79237 H 30.74747 l -0.44924,-0.60634 -0.449241,0.60634 h -0.299034 l 0.599447,-0.80753 -0.54846,-0.73588 h 0.299035 l 0.409277,0.54984 0.409277,-0.54984 z"
         style="font-style:normal;font-variant:normal;font-weight:normal;font-stretch:normal;font-size:2.82222223px;font-family:sans-serif;-inkscape-font-specification:sans-serif;fill:#000000;fill-opacity:1;stroke-width:0.26458332px"
         id="path1009"
         inkscape:connector-curvature="0" />
    </g>
    <g
       aria-label="time 4"
       style="font-style:normal;font-weight:normal;font-size:3.88055563px;line-height:125%;font-family:Sans;letter-spacing:0px;word-spacing:0px;fill:#000000;fill-opacity:1;stroke:none;stroke-width:0.26458332px;stroke-linecap:butt;stroke-linejoin:miter;stroke-opacity:1"
       id="text948"
       transform="translate(0,0.26458334)">
      <path
         d="m 39.890738,241.51042 v 0.43821 h 0.522277 v 0.19706 h -0.522277 v 0.83785 q 0,0.18879 0.05099,0.24253 0.05236,0.0538 0.210839,0.0538 h 0.26045 v 0.21221 h -0.26045 q -0.293522,0 -0.405143,-0.10886 -0.111621,-0.11024 -0.111621,-0.39963 v -0.83785 h -0.186035 v -0.19706 h 0.186035 v -0.43821 z"
         style="font-style:normal;font-variant:normal;font-weight:normal;font-stretch:normal;font-size:2.82222223px;font-family:sans-serif;-inkscape-font-specification:sans-serif;fill:#000000;fill-opacity:1;stroke-width:0.26458332px"
         id="path986"
         inkscape:connector-curvature="0" />
      <path
         d="m 40.747878,241.94863 h 0.253559 v 1.5434 h -0.253559 z m 0,-0.60082 h 0.253559 v 0.32108 h -0.253559 z"
         style="font-style:normal;font-variant:normal;font-weight:normal;font-stretch:normal;font-size:2.82222223px;font-family:sans-serif;-inkscape-font-specification:sans-serif;fill:#000000;fill-opacity:1;stroke-width:0.26458332px"
         id="path988"
         inkscape:connector-curvature="0" />
      <path
         d="m 42.732253,242.24491 q 0.09508,-0.17088 0.227376,-0.25218 0.132292,-0.0813 0.311437,-0.0813 0.241157,0 0.37207,0.16949 0.130914,0.16812 0.130914,0.47956 v 0.93155 h -0.254937 v -0.92328 q 0,-0.22186 -0.07855,-0.32935 -0.07855,-0.10749 -0.239779,-0.10749 -0.19706,0 -0.311437,0.13091 -0.114377,0.13092 -0.114377,0.35692 v 0.87229 h -0.254937 v -0.92328 q 0,-0.22324 -0.07855,-0.32935 -0.07855,-0.10749 -0.242535,-0.10749 -0.194303,0 -0.30868,0.13229 -0.114378,0.13092 -0.114378,0.35554 v 0.87229 h -0.254937 v -1.5434 h 0.254937 v 0.23978 q 0.08682,-0.14194 0.208084,-0.20946 0.121268,-0.0675 0.28801,-0.0675 0.168121,0 0.285254,0.0854 0.118511,0.0854 0.175011,0.24805 z"
         style="font-style:normal;font-variant:normal;font-weight:normal;font-stretch:normal;font-size:2.82222223px;font-family:sans-serif;-inkscape-font-specification:sans-serif;fill:#000000;fill-opacity:1;stroke-width:0.26458332px"
         id="path990"
         inkscape:connector-curvature="0" />
      <path
         d="m 45.601328,242.65694 v 0.12403 h -1.16582 q 0.01654,0.26182 0.157096,0.39963 0.141938,0.13642 0.394119,0.13642 0.146072,0 0.282498,-0.0358 0.137804,-0.0358 0.272852,-0.10749 v 0.23978 q -0.136426,0.0579 -0.279742,0.0882 -0.143316,0.0303 -0.290766,0.0303 -0.369314,0 -0.585666,-0.21498 -0.214974,-0.21497 -0.214974,-0.58153 0,-0.37896 0.203949,-0.60082 0.205328,-0.22324 0.552594,-0.22324 0.311436,0 0.491959,0.20119 0.181901,0.19981 0.181901,0.54432 z m -0.253559,-0.0744 q -0.0028,-0.20808 -0.117133,-0.33211 -0.112999,-0.12402 -0.300412,-0.12402 -0.212218,0 -0.340376,0.11989 -0.126779,0.11989 -0.146072,0.33762 z"
         style="font-style:normal;font-variant:normal;font-weight:normal;font-stretch:normal;font-size:2.82222223px;font-family:sans-serif;-inkscape-font-specification:sans-serif;fill:#000000;fill-opacity:1;stroke-width:0.26458332px"
         id="path992"
         inkscape:connector-curvature="0" />
      <path
         d="m 47.716617,241.67716 -0.702799,1.0983 h 0.702799 z m -0.07304,-0.24254 h 0.350022 v 1.34084 h 0.293522 v 0.23151 h -0.293522 v 0.48506 h -0.276986 v -0.48506 H 46.78782 v -0.26872 z"
         style="font-style:normal;font-variant:normal;font-weight:normal;font-stretch:normal;font-size:2.82222223px;font-family:sans-serif;-inkscape-font-specification:sans-serif;fill:#000000;fill-opacity:1;stroke-width:0.26458332px"
         id="path994"
         inkscape:connector-curvature="0" />
    </g>
    <g
       aria-label="time 3"
       style="font-style:normal;font-weight:normal;font-size:3.88055563px;line-height:125%;font-family:Sans;letter-spacing:0px;word-spacing:0px;fill:#000000;fill-opacity:1;stroke:none;stroke-width:0.26458332px;stroke-linecap:butt;stroke-linejoin:miter;stroke-opacity:1"
       id="text952"
       transform="translate(0,0.39687501)">
      <path
         d="m 39.890738,220.60826 v 0.43821 h 0.522277 v 0.19706 h -0.522277 v 0.83785 q 0,0.18879 0.05099,0.24253 0.05236,0.0537 0.210839,0.0537 h 0.26045 v 0.21221 h -0.26045 q -0.293522,0 -0.405143,-0.10886 -0.111621,-0.11024 -0.111621,-0.39963 v -0.83785 h -0.186035 v -0.19706 h 0.186035 v -0.43821 z"
         style="font-style:normal;font-variant:normal;font-weight:normal;font-stretch:normal;font-size:2.82222223px;font-family:sans-serif;-inkscape-font-specification:sans-serif;fill:#000000;fill-opacity:1;stroke-width:0.26458332px"
         id="path975"
         inkscape:connector-curvature="0" />
      <path
         d="m 40.747878,221.04647 h 0.253559 v 1.5434 h -0.253559 z m 0,-0.60082 h 0.253559 v 0.32108 h -0.253559 z"
         style="font-style:normal;font-variant:normal;font-weight:normal;font-stretch:normal;font-size:2.82222223px;font-family:sans-serif;-inkscape-font-specification:sans-serif;fill:#000000;fill-opacity:1;stroke-width:0.26458332px"
         id="path977"
         inkscape:connector-curvature="0" />
      <path
         d="m 42.732253,221.34275 q 0.09508,-0.17088 0.227376,-0.25218 0.132292,-0.0813 0.311437,-0.0813 0.241157,0 0.37207,0.1695 0.130914,0.16812 0.130914,0.47956 v 0.93155 h -0.254937 v -0.92328 q 0,-0.22187 -0.07855,-0.32935 -0.07855,-0.10749 -0.239779,-0.10749 -0.19706,0 -0.311437,0.13091 -0.114377,0.13092 -0.114377,0.35692 v 0.87229 h -0.254937 v -0.92328 q 0,-0.22324 -0.07855,-0.32935 -0.07855,-0.10749 -0.242535,-0.10749 -0.194303,0 -0.30868,0.13229 -0.114378,0.13092 -0.114378,0.35554 v 0.87229 h -0.254937 v -1.5434 h 0.254937 v 0.23978 q 0.08682,-0.14194 0.208084,-0.20946 0.121268,-0.0675 0.28801,-0.0675 0.168121,0 0.285254,0.0854 0.118511,0.0854 0.175011,0.24805 z"
         style="font-style:normal;font-variant:normal;font-weight:normal;font-stretch:normal;font-size:2.82222223px;font-family:sans-serif;-inkscape-font-specification:sans-serif;fill:#000000;fill-opacity:1;stroke-width:0.26458332px"
         id="path979"
         inkscape:connector-curvature="0" />
      <path
         d="m 45.601328,221.75478 v 0.12403 h -1.16582 q 0.01654,0.26182 0.157096,0.39963 0.141938,0.13642 0.394119,0.13642 0.146072,0 0.282498,-0.0358 0.137804,-0.0358 0.272852,-0.10748 v 0.23978 q -0.136426,0.0579 -0.279742,0.0882 -0.143316,0.0303 -0.290766,0.0303 -0.369314,0 -0.585666,-0.21498 -0.214974,-0.21497 -0.214974,-0.58153 0,-0.37896 0.203949,-0.60082 0.205328,-0.22325 0.552594,-0.22325 0.311436,0 0.491959,0.2012 0.181901,0.19981 0.181901,0.54432 z m -0.253559,-0.0744 q -0.0028,-0.20808 -0.117133,-0.33211 -0.112999,-0.12402 -0.300412,-0.12402 -0.212218,0 -0.340376,0.11989 -0.126779,0.11989 -0.146072,0.33762 z"
         style="font-style:normal;font-variant:normal;font-weight:normal;font-stretch:normal;font-size:2.82222223px;font-family:sans-serif;-inkscape-font-specification:sans-serif;fill:#000000;fill-opacity:1;stroke-width:0.26458332px"
         id="path981"
         inkscape:connector-curvature="0" />
      <path
         d="m 47.795166,221.48055 q 0.199815,0.0427 0.311436,0.17777 0.112999,0.13505 0.112999,0.33349 0,0.30454 -0.209461,0.47128 -0.209462,0.16675 -0.595313,0.16675 -0.129536,0 -0.267339,-0.0262 -0.136426,-0.0248 -0.282498,-0.0758 v -0.26871 q 0.115755,0.0675 0.253559,0.10197 0.137804,0.0344 0.28801,0.0344 0.261827,0 0.398253,-0.10335 0.137804,-0.10335 0.137804,-0.30041 0,-0.18191 -0.128158,-0.28388 -0.126779,-0.10335 -0.354156,-0.10335 h -0.239778 v -0.22876 h 0.250803 q 0.205327,0 0.314192,-0.0813 0.108865,-0.0827 0.108865,-0.23702 0,-0.15848 -0.112999,-0.24254 -0.111621,-0.0854 -0.321083,-0.0854 -0.114377,0 -0.245291,0.0248 -0.130913,0.0248 -0.288009,0.0772 v -0.24805 q 0.158474,-0.0441 0.296278,-0.0661 0.139182,-0.022 0.261827,-0.022 0.316949,0 0.501606,0.14469 0.184657,0.14332 0.184657,0.38861 0,0.17087 -0.09784,0.28939 -0.09784,0.11713 -0.278363,0.1626 z"
         style="font-style:normal;font-variant:normal;font-weight:normal;font-stretch:normal;font-size:2.82222223px;font-family:sans-serif;-inkscape-font-specification:sans-serif;fill:#000000;fill-opacity:1;stroke-width:0.26458332px"
         id="path983"
         inkscape:connector-curvature="0" />
    </g>
    <g
       aria-label="time 2  "
       style="font-style:normal;font-weight:normal;font-size:3.88055563px;line-height:125%;font-family:Sans;letter-spacing:0px;word-spacing:0px;fill:#000000;fill-opacity:1;stroke:none;stroke-width:0.26458332px;stroke-linecap:butt;stroke-linejoin:miter;stroke-opacity:1"
       id="text960"
       transform="translate(0,0.39687501)">
      <path
         d="m 39.758448,199.3092 v 0.43821 h 0.522277 v 0.19706 h -0.522277 v 0.83785 q 0,0.18879 0.05099,0.24254 0.05237,0.0537 0.21084,0.0537 h 0.260449 v 0.21222 h -0.260449 q -0.293523,0 -0.405144,-0.10887 -0.111621,-0.11024 -0.111621,-0.39963 v -0.83785 h -0.186035 v -0.19706 h 0.186035 v -0.43821 z"
         style="font-style:normal;font-variant:normal;font-weight:normal;font-stretch:normal;font-size:2.82222223px;font-family:sans-serif;-inkscape-font-specification:sans-serif;fill:#000000;fill-opacity:1;stroke-width:0.26458332px"
         id="path964"
         inkscape:connector-curvature="0" />
      <path
         d="m 40.615588,199.74741 h 0.253559 v 1.54341 h -0.253559 z m 0,-0.60082 h 0.253559 v 0.32108 h -0.253559 z"
         style="font-style:normal;font-variant:normal;font-weight:normal;font-stretch:normal;font-size:2.82222223px;font-family:sans-serif;-inkscape-font-specification:sans-serif;fill:#000000;fill-opacity:1;stroke-width:0.26458332px"
         id="path966"
         inkscape:connector-curvature="0" />
      <path
         d="m 42.599963,200.04369 q 0.09508,-0.17087 0.227376,-0.25218 0.132292,-0.0813 0.311437,-0.0813 0.241157,0 0.37207,0.1695 0.130914,0.16812 0.130914,0.47955 v 0.93156 h -0.254937 v -0.92329 q 0,-0.22186 -0.07855,-0.32935 -0.07855,-0.10749 -0.239779,-0.10749 -0.197059,0 -0.311437,0.13092 -0.114377,0.13091 -0.114377,0.35691 v 0.8723 h -0.254937 v -0.92329 q 0,-0.22324 -0.07855,-0.32935 -0.07855,-0.10749 -0.242535,-0.10749 -0.194303,0 -0.30868,0.1323 -0.114377,0.13091 -0.114377,0.35553 v 0.8723 h -0.254938 v -1.54341 h 0.254938 v 0.23978 q 0.08682,-0.14193 0.208083,-0.20946 0.121268,-0.0675 0.28801,-0.0675 0.168121,0 0.285254,0.0854 0.118511,0.0854 0.175011,0.24804 z"
         style="font-style:normal;font-variant:normal;font-weight:normal;font-stretch:normal;font-size:2.82222223px;font-family:sans-serif;-inkscape-font-specification:sans-serif;fill:#000000;fill-opacity:1;stroke-width:0.26458332px"
         id="path968"
         inkscape:connector-curvature="0" />
      <path
         d="m 45.469038,200.45573 v 0.12402 h -1.16582 q 0.01654,0.26183 0.157096,0.39963 0.141938,0.13643 0.394119,0.13643 0.146072,0 0.282498,-0.0358 0.137804,-0.0358 0.272852,-0.10749 v 0.23978 q -0.136426,0.0579 -0.279742,0.0882 -0.143316,0.0303 -0.290766,0.0303 -0.369314,0 -0.585666,-0.21497 -0.214974,-0.21498 -0.214974,-0.58154 0,-0.37896 0.203949,-0.60082 0.205328,-0.22324 0.552594,-0.22324 0.311436,0 0.491959,0.20119 0.181901,0.19982 0.181901,0.54433 z m -0.253559,-0.0744 q -0.0028,-0.20808 -0.117133,-0.33211 -0.112999,-0.12402 -0.300412,-0.12402 -0.212218,0 -0.340376,0.11989 -0.126779,0.11989 -0.146072,0.33762 z"
         style="font-style:normal;font-variant:normal;font-weight:normal;font-stretch:normal;font-size:2.82222223px;font-family:sans-serif;-inkscape-font-specification:sans-serif;fill:#000000;fill-opacity:1;stroke-width:0.26458332px"
         id="path970"
         inkscape:connector-curvature="0" />
      <path
         d="m 47.059295,201.05655 h 0.971517 v 0.23427 h -1.30638 v -0.23427 q 0.158474,-0.16399 0.431326,-0.43959 0.274229,-0.27699 0.344509,-0.35692 0.13367,-0.1502 0.186035,-0.25355 0.05374,-0.10474 0.05374,-0.20533 0,-0.16399 -0.115755,-0.26734 -0.114378,-0.10335 -0.299035,-0.10335 -0.130913,0 -0.276985,0.0455 -0.144694,0.0455 -0.310059,0.1378 v -0.28112 q 0.168121,-0.0675 0.314193,-0.10197 0.146072,-0.0344 0.267339,-0.0344 0.319705,0 0.509874,0.15985 0.19017,0.15985 0.19017,0.42719 0,0.12678 -0.04823,0.24116 -0.04685,0.113 -0.172255,0.26734 -0.03445,0.04 -0.219108,0.23151 -0.184657,0.19017 -0.520898,0.5333 z"
         style="font-style:normal;font-variant:normal;font-weight:normal;font-stretch:normal;font-size:2.82222223px;font-family:sans-serif;-inkscape-font-specification:sans-serif;fill:#000000;fill-opacity:1;stroke-width:0.26458332px"
         id="path972"
         inkscape:connector-curvature="0" />
    </g>
  </g>
</svg>
