<?xml version="1.0" encoding="UTF-8" standalone="no"?>
<!-- Created with Inkscape (http://www.inkscape.org/) -->

<svg
   xmlns:dc="http://purl.org/dc/elements/1.1/"
   xmlns:cc="http://creativecommons.org/ns#"
   xmlns:rdf="http://www.w3.org/1999/02/22-rdf-syntax-ns#"
   xmlns:svg="http://www.w3.org/2000/svg"
   xmlns="http://www.w3.org/2000/svg"
   xmlns:sodipodi="http://sodipodi.sourceforge.net/DTD/sodipodi-0.dtd"
   xmlns:inkscape="http://www.inkscape.org/namespaces/inkscape"
   width="210mm"
   height="297mm"
   viewBox="0 0 210 297"
   version="1.1"
   id="svg8"
   inkscape:version="0.92.2 5c3e80d, 2017-08-06"
   sodipodi:docname="ringmod_back.svg"
   enable-background="new">
  <defs
     id="defs2">
    <filter
       inkscape:collect="always"
       style="color-interpolation-filters:sRGB"
       id="filter4830">
      <feBlend
         inkscape:collect="always"
         mode="luminosity"
         in2="BackgroundImage"
         id="feBlend4832" />
    </filter>
  </defs>
  <sodipodi:namedview
     id="base"
     pagecolor="#ffffff"
     bordercolor="#666666"
     borderopacity="1.0"
     inkscape:pageopacity="0.0"
     inkscape:pageshadow="2"
     inkscape:zoom="2.56"
     inkscape:cx="489.16337"
     inkscape:cy="221.09458"
     inkscape:document-units="mm"
     inkscape:current-layer="text4696"
     showgrid="false"
     inkscape:window-width="1840"
     inkscape:window-height="1035"
     inkscape:window-x="0"
     inkscape:window-y="1"
     inkscape:window-maximized="1"
     inkscape:snap-text-baseline="false" />
  <metadata
     id="metadata5">
    <rdf:RDF>
      <cc:Work
         rdf:about="">
        <dc:format>image/svg+xml</dc:format>
        <dc:type
           rdf:resource="http://purl.org/dc/dcmitype/StillImage" />
        <dc:title></dc:title>
      </cc:Work>
    </rdf:RDF>
  </metadata>
  <g
     inkscape:groupmode="layer"
     id="layer2"
     inkscape:label="cuts">
    <rect
       id="rect3765"
       width="71.099998"
       height="42.038212"
       x="80.712242"
       y="196.86909"
       style="stroke-width:0.01;fill:none;stroke:#ff0000;stroke-opacity:1;stroke-miterlimit:4;stroke-dasharray:none" />
    <circle
       style="display:inline;fill:none;stroke:#ff0000;stroke-width:0.00667703;stroke-miterlimit:4;stroke-dasharray:none;stroke-opacity:1"
       id="circle4597"
       cx="121.26051"
       cy="234.99344"
       r="1.0707396" />
    <circle
       r="1.1373494"
       cy="234.99344"
       cx="98.529579"
       id="circle4599"
       style="display:inline;fill:none;stroke:#ff0000;stroke-width:0.0070924;stroke-miterlimit:4;stroke-dasharray:none;stroke-opacity:1" />
    <circle
       r="0.93752021"
       cy="200.71614"
       cx="147.86687"
       id="circle4595"
       style="display:inline;fill:none;stroke:#ff0000;stroke-width:0.00584628;stroke-miterlimit:4;stroke-dasharray:none;stroke-opacity:1" />
    <circle
       style="display:inline;fill:none;stroke:#ff0000;stroke-width:0.00626166;stroke-miterlimit:4;stroke-dasharray:none;stroke-opacity:1"
       id="path4593"
       cx="84.457169"
       cy="200.71614"
       r="1.0041299" />
  </g>
  <g
     inkscape:groupmode="layer"
     id="layer3"
     inkscape:label="logo">
    <path
       style="fill:#000000;stroke-width:0.01046686"
       d="m 108.7777,227.39212 c -0.0507,-0.0234 -0.0826,-0.0565 -0.10417,-0.10824 -0.0144,-0.0345 -0.0162,-0.22453 -0.0162,-1.70273 0,-0.91516 -0.004,-1.66635 -0.009,-1.6693 -0.005,-0.003 -0.0743,0.0133 -0.15438,0.0361 -0.27679,0.0789 -0.6295,0.15006 -0.92551,0.18676 -0.28959,0.0359 -0.47305,0.0466 -0.79548,0.0466 -0.32243,0 -0.50589,-0.0108 -0.79548,-0.0466 -1.21002,-0.15003 -2.35567,-0.65355 -3.30752,-1.4537 -0.18184,-0.15286 -0.60095,-0.57198 -0.75381,-0.75382 -0.89072,-1.05959 -1.41153,-2.35121 -1.49824,-3.71573 -0.007,-0.1065 -0.0168,-0.19952 -0.0223,-0.20672 -0.008,-0.0104 -0.33051,-0.0131 -1.549951,-0.0133 -1.474808,-2.2e-4 -1.541734,-7.6e-4 -1.58183,-0.0196 -0.16383,-0.0756 -0.159079,-0.31303 0.0077,-0.38269 0.0344,-0.0144 0.21223,-0.0162 1.576455,-0.0162 1.217836,0 1.539766,-0.003 1.547676,-0.0131 0.005,-0.007 0.0155,-0.10021 0.0223,-0.20671 0.0867,-1.36452 0.60751,-2.65614 1.49824,-3.71573 0.15285,-0.18185 0.57196,-0.60096 0.75381,-0.75382 0.96336,-0.80983 2.11662,-1.31223 3.34939,-1.45912 0.35978,-0.0429 0.88995,-0.0552 1.21939,-0.0285 0.43762,0.0355 0.87574,0.11258 1.25521,0.22068 0.0801,0.0228 0.14962,0.0391 0.15438,0.0361 0.005,-0.003 0.009,-0.75516 0.009,-1.67159 2.2e-4,-1.59756 7.7e-4,-1.66795 0.0196,-1.70809 0.0716,-0.15515 0.29312,-0.16131 0.37633,-0.0105 0.0158,0.0287 0.0177,0.17928 0.0225,1.78977 l 0.005,1.75838 0.13085,0.0555 c 0.62349,0.26478 1.15545,0.58988 1.66423,1.01706 0.1809,0.15188 0.61126,0.58296 0.7579,0.75919 0.57235,0.68773 0.98405,1.44422 1.23157,2.26294 0.36113,1.19447 0.37147,2.44861 0.0301,3.65083 -0.24205,0.85249 -0.66281,1.64413 -1.24894,2.34981 -0.15711,0.18916 -0.5827,0.61708 -0.77065,0.77489 -0.3374,0.28328 -0.70331,0.5327 -1.09379,0.74559 -0.17077,0.0931 -0.26718,0.13936 -0.5181,0.24861 l -0.18317,0.0797 -0.005,1.75772 c -0.005,1.60988 -0.007,1.76035 -0.0225,1.78912 -0.0533,0.0967 -0.17525,0.1365 -0.27574,0.0901 z m -1.52294,-3.67998 c 0.31577,-0.0261 0.53849,-0.0597 0.83792,-0.12618 0.16746,-0.0372 0.46557,-0.11947 0.52893,-0.14594 l 0.0358,-0.015 v -0.15224 -0.15223 l -0.78763,-0.6307 -0.78762,-0.6307 -1.07753,-0.3611 c -0.59265,-0.19862 -1.07915,-0.36635 -1.08111,-0.37275 -0.002,-0.007 0.0394,-0.0266 0.0936,-0.0455 0.12607,-0.0439 0.30221,-0.1342 0.40389,-0.20704 0.0964,-0.0691 0.20097,-0.15815 0.20097,-0.17121 0,-0.013 -1.75003,-1.41203 -1.76627,-1.41203 -0.0104,0 -0.0131,0.16983 -0.0131,0.81641 v 0.81642 h -0.20937 -0.20934 v -1.45361 c 0,-1.21137 -0.002,-1.45558 -0.0142,-1.46541 -0.0104,-0.009 -0.35999,-0.0111 -1.30574,-0.009 l -1.29153,0.003 10e-4,0.12162 c 0.005,0.51061 0.17025,1.26589 0.40642,1.86186 0.0793,0.20004 0.2724,0.59393 0.38745,0.79025 0.46987,0.80172 1.11335,1.47813 1.88959,1.98629 0.84559,0.55355 1.80649,0.87918 2.83128,0.95947 0.18438,0.0144 0.73024,0.0119 0.92632,-0.005 z m 1.93352,-0.48572 c 0.14492,-0.0638 0.41612,-0.2018 0.56938,-0.28978 0.89274,-0.51248 1.65125,-1.26411 2.17524,-2.15549 0.11567,-0.19677 0.30951,-0.59081 0.38864,-0.79002 0.43066,-1.08417 0.53616,-2.24919 0.30711,-3.39149 -0.0646,-0.32222 -0.1779,-0.70071 -0.30711,-1.02598 -0.0791,-0.19922 -0.27297,-0.59326 -0.38864,-0.79002 -0.52399,-0.89139 -1.2825,-1.64302 -2.17524,-2.1555 -0.24744,-0.14205 -0.65154,-0.3373 -0.67197,-0.32467 -0.005,0.003 -0.01,0.0707 -0.01,0.14969 0,0.1282 -0.003,0.14873 -0.0236,0.1904 -0.0206,0.0409 -0.34613,0.30484 -2.61672,2.12179 l -2.59315,2.07509 v 0.94194 0.94192 l 1.02044,0.81647 c 0.56125,0.44906 1.02496,0.81647 1.03047,0.81647 0.0157,0 0.0833,-0.12797 0.13209,-0.25 0.0515,-0.12899 0.0935,-0.28947 0.11221,-0.42955 0.008,-0.0542 0.0178,-0.1002 0.0236,-0.1021 0.005,-0.002 0.27643,0.4375 0.60161,0.97645 l 0.59124,0.97991 0.83729,0.67128 c 0.64051,0.51352 0.84281,0.68113 0.86073,0.71316 0.0211,0.0377 0.0235,0.0562 0.0236,0.18928 1.6e-4,0.12816 0.004,0.16136 0.0171,0.16136 0.002,0 0.0445,-0.0183 0.0953,-0.0406 z m -5.77694,-5.66593 c 0.01,-0.01 0.0126,-0.34936 0.0126,-1.46535 v -1.4528 h 0.20934 0.20934 v 0.81641 c 0,0.64631 0.003,0.81642 0.0131,0.81642 0.007,0 1.09064,-0.86206 2.40764,-1.91568 l 2.39457,-1.91567 -0.003,-0.15415 -0.003,-0.15415 -0.0879,-0.0294 c -0.32136,-0.10774 -0.75609,-0.19682 -1.19432,-0.24473 -0.24799,-0.0271 -0.94523,-0.0271 -1.19323,0 -0.74106,0.081 -1.37411,0.25999 -2.00545,0.56692 -0.8809,0.42826 -1.60012,1.02026 -2.18983,1.80249 -0.22139,0.29366 -0.40552,0.59696 -0.58347,0.96109 -0.22878,0.46818 -0.38616,0.93357 -0.4849,1.43396 -0.0648,0.32814 -0.12468,0.87256 -0.10244,0.93053 0.006,0.0152 0.12439,0.0167 1.29731,0.0167 0.99008,0 1.29382,-0.003 1.30346,-0.0126 z m 12.50695,4.9417 c -0.21384,-0.0293 -0.26548,-0.12476 -0.55105,-1.01976 -0.0961,-0.30113 -0.13839,-0.3764 -0.23924,-0.42558 -0.0429,-0.0209 -0.0655,-0.0241 -0.17486,-0.0242 -0.0691,-1.4e-4 -0.14337,0.004 -0.16507,0.008 -0.0455,0.01 -0.1058,0.0586 -0.13017,0.1057 -0.0471,0.091 -0.0484,0.10839 -0.0527,0.72829 -0.003,0.39321 -0.008,0.59562 -0.0152,0.60447 -0.0146,0.0176 -0.16688,0.0182 -0.18432,5.3e-4 -0.009,-0.01 -0.0125,-0.16578 -0.0122,-0.64109 4.9e-4,-0.82518 0.011,-0.96919 0.0821,-1.12108 0.0785,-0.16776 0.24984,-0.24656 0.50367,-0.23165 0.14671,0.009 0.20096,0.0285 0.27186,0.0997 0.1035,0.10396 0.17449,0.2772 0.32532,0.79389 0.12638,0.43291 0.16651,0.51955 0.25979,0.56085 0.0418,0.0186 0.0693,0.0214 0.20127,0.0209 0.21347,-5.4e-4 0.25553,-0.0209 0.32159,-0.1546 0.0304,-0.0615 0.0934,-0.2525 0.13803,-0.41868 0.0433,-0.16122 0.116,-0.3911 0.15642,-0.49482 0.108,-0.27713 0.18924,-0.36968 0.35036,-0.39918 0.0777,-0.0142 0.19009,-0.0144 0.27584,-5e-4 0.25258,0.041 0.35886,0.18458 0.38965,0.52646 0.008,0.0813 0.0103,0.36943 0.008,0.79723 l -0.003,0.66987 -0.088,0.003 c -0.0537,0.002 -0.0924,-0.002 -0.0994,-0.008 -0.008,-0.008 -0.0132,-0.19959 -0.0171,-0.61538 -0.005,-0.52997 -0.008,-0.61047 -0.0235,-0.65721 -0.0261,-0.0784 -0.0587,-0.12016 -0.11711,-0.15022 -0.048,-0.0247 -0.0627,-0.0268 -0.1884,-0.0268 -0.12785,0 -0.14003,0.002 -0.19549,0.029 -0.0992,0.0487 -0.14179,0.12427 -0.23444,0.41558 -0.2606,0.8195 -0.33113,0.96805 -0.47939,1.00977 -0.0711,0.02 -0.22466,0.0276 -0.31338,0.0154 z m 11.75435,0 c -0.14784,-0.0221 -0.22768,-0.093 -0.32146,-0.28562 -0.0602,-0.12361 -0.11321,-0.2734 -0.27652,-0.78124 -0.1116,-0.34703 -0.15405,-0.41186 -0.28851,-0.44059 -0.0783,-0.0167 -0.25767,-0.007 -0.30762,0.0167 -0.0787,0.0374 -0.1221,0.12404 -0.14154,0.28261 -0.007,0.0575 -0.0115,0.30442 -0.0115,0.63372 0,0.40567 -0.003,0.54268 -0.0126,0.55213 -0.008,0.008 -0.0442,0.0125 -0.0921,0.0125 -0.0479,0 -0.0845,-0.005 -0.0921,-0.0125 -0.009,-0.01 -0.0125,-0.16577 -0.0122,-0.6411 4.9e-4,-0.82518 0.011,-0.96919 0.0821,-1.12108 0.0729,-0.15577 0.22505,-0.23456 0.45344,-0.23482 0.20827,-2.3e-4 0.32015,0.0734 0.41957,0.27596 0.062,0.12633 0.11057,0.26118 0.23243,0.64504 0.12614,0.39736 0.15177,0.46022 0.21377,0.52422 0.0601,0.062 0.10554,0.0754 0.25247,0.0746 0.17028,-7.6e-4 0.23388,-0.0377 0.28034,-0.16184 0.0383,-0.10232 0.0438,-0.19801 0.0438,-0.76707 0,-0.6283 -0.0107,-0.57006 0.10467,-0.57006 0.11595,0 0.10467,-0.0714 0.10467,0.66349 0,0.35301 -0.005,0.70101 -0.0107,0.77334 -0.0325,0.39971 -0.15642,0.54386 -0.48649,0.56576 -0.0404,0.003 -0.10052,5.4e-4 -0.13381,-0.005 z m 1.85482,7.6e-4 c -0.48266,-0.0316 -0.72149,-0.18189 -0.78899,-0.49624 -0.0489,-0.22762 -0.049,-0.79099 -1.1e-4,-1.02682 0.0438,-0.21116 0.18963,-0.35984 0.42415,-0.4322 0.16562,-0.0511 0.26919,-0.0597 0.7216,-0.0597 0.37339,0 0.43265,0.002 0.49718,0.0187 0.2087,0.0535 0.27655,0.12753 0.28556,0.31179 0.003,0.0652 5.4e-4,0.10824 -0.007,0.12299 l -0.0122,0.0227 -0.47327,2.4e-4 c -0.5633,5.1e-4 -0.87473,0.012 -0.97062,0.0361 -0.0934,0.0235 -0.16514,0.0649 -0.20603,0.11862 -0.0388,0.0511 -0.0689,0.14165 -0.064,0.19272 l 0.003,0.0342 0.81418,0.005 c 0.70847,0.005 0.81547,0.008 0.8241,0.0209 0.005,0.009 0.01,0.0661 0.0101,0.12762 1.4e-4,0.1039 -0.002,0.1131 -0.0231,0.12822 -0.0206,0.0144 -0.11648,0.0163 -0.82688,0.0163 h -0.80362 v 0.0347 c 0,0.0497 0.0287,0.13966 0.0596,0.18625 0.0326,0.0493 0.10482,0.0964 0.18135,0.11838 0.10504,0.0302 0.26053,0.0369 0.85837,0.0372 0.51828,2.4e-4 0.59455,0.002 0.61493,0.0166 0.0209,0.0146 0.0233,0.0253 0.0233,0.10277 0,0.21669 -0.0831,0.30552 -0.32971,0.35233 -0.0783,0.0149 -0.63448,0.0219 -0.81198,0.0102 z m -8.20523,-0.0114 c -0.44897,-0.0389 -0.67343,-0.18665 -0.73758,-0.48546 -0.051,-0.23758 -0.0482,-0.82899 0.005,-1.03661 0.0662,-0.25885 0.23533,-0.39053 0.58033,-0.45185 0.12375,-0.022 0.83788,-0.0327 0.97388,-0.0146 0.18954,0.0252 0.28171,0.0717 0.3345,0.16882 0.0277,0.0509 0.0312,0.0686 0.0353,0.17343 0.005,0.11364 0.004,0.11718 -0.0204,0.13287 -0.0216,0.014 -0.11502,0.0167 -0.70517,0.0203 -0.5753,0.004 -0.69111,0.007 -0.7501,0.0209 -0.0847,0.0202 -0.12854,0.0415 -0.17452,0.0847 -0.0785,0.0738 -0.10127,0.16277 -0.10076,0.39395 5.4e-4,0.30658 0.0503,0.40415 0.23424,0.46121 0.10112,0.0314 0.31123,0.0405 0.93954,0.0409 0.48226,2.5e-4 0.54807,0.002 0.56259,0.0167 0.0124,0.0124 0.0164,0.0387 0.0164,0.10801 0,0.21359 -0.0785,0.30708 -0.29666,0.35341 -0.0901,0.0191 -0.72112,0.0285 -0.89657,0.0133 z m 10.07632,1.6e-4 c -0.19966,-0.0177 -0.31285,-0.081 -0.34039,-0.19038 -0.018,-0.0714 -0.0161,-0.22235 0.003,-0.24149 0.0131,-0.0131 0.12094,-0.0162 0.72483,-0.0208 0.55338,-0.005 0.72946,-0.009 0.80025,-0.0208 0.14674,-0.0248 0.20312,-0.0642 0.21465,-0.15007 0.005,-0.0345 5.4e-4,-0.0471 -0.023,-0.0754 -0.0731,-0.0868 -0.22325,-0.11557 -0.83056,-0.15886 -0.33466,-0.0238 -0.41119,-0.033 -0.52821,-0.063 -0.16558,-0.0426 -0.27645,-0.12086 -0.33096,-0.23376 -0.0559,-0.11588 -0.0662,-0.30284 -0.026,-0.47652 0.0509,-0.21992 0.20963,-0.32136 0.55783,-0.35642 0.17178,-0.0173 0.85435,-0.014 0.97865,0.005 0.24286,0.0366 0.33698,0.1358 0.32905,0.3468 -0.003,0.0753 -0.005,0.0829 -0.0293,0.095 -0.0202,0.0102 -0.16374,0.0132 -0.62306,0.0134 -0.61134,1.5e-4 -0.72051,0.005 -0.84256,0.0419 -0.14019,0.0416 -0.18601,0.15268 -0.092,0.22288 0.0844,0.063 0.28821,0.0952 0.77782,0.12291 0.33816,0.0191 0.47443,0.0361 0.60016,0.0749 0.0981,0.0303 0.14383,0.0556 0.20633,0.11477 0.0974,0.0922 0.13841,0.23183 0.12699,0.43293 -0.0198,0.34797 -0.19914,0.47998 -0.70321,0.51757 -0.16601,0.0124 -0.81067,0.0123 -0.95051,-1.1e-4 z m -13.24734,-0.0146 c -0.0167,-0.0202 -0.009,-1.26065 0.009,-1.37675 0.0306,-0.20191 0.0769,-0.30782 0.17849,-0.40877 0.16259,-0.16155 0.38316,-0.22225 0.80678,-0.22201 0.42336,2.4e-4 0.64447,0.0611 0.80678,0.22212 0.10158,0.10078 0.14782,0.20666 0.17848,0.40866 0.0176,0.1161 0.0254,1.35656 0.009,1.37675 -0.017,0.0204 -0.16972,0.0215 -0.18646,7.6e-4 -0.008,-0.009 -0.0126,-0.0942 -0.0144,-0.23812 l -0.003,-0.22422 h -0.79025 -0.79025 l -0.003,0.22422 c -0.002,0.14387 -0.007,0.22921 -0.0144,0.23812 -0.0167,0.0202 -0.16953,0.0191 -0.18647,-7.6e-4 z m 1.76914,-0.85394 c 0.018,-0.01 0.0202,-0.0227 0.02,-0.11776 -5e-4,-0.20601 -0.0285,-0.32306 -0.0958,-0.3996 -0.0825,-0.0938 -0.16568,-0.11668 -0.47702,-0.13145 -0.1495,-0.007 -0.29534,-0.007 -0.44484,0 -0.31134,0.0147 -0.39448,0.0377 -0.47703,0.13145 -0.0675,0.0766 -0.0954,0.19356 -0.0958,0.4003 -2e-4,0.10193 7.6e-4,0.10813 0.0233,0.1171 0.0341,0.0137 1.52151,0.0137 1.54717,0 z m 3.0054,0.85655 c -0.0182,-0.0183 -0.0182,-1.93491 0,-1.95312 0.008,-0.008 0.0465,-0.0125 0.10257,-0.0125 0.0561,0 0.0948,0.005 0.10258,0.0125 0.009,0.009 0.0126,0.11049 0.0126,0.39041 0,0.27993 0.003,0.38112 0.0126,0.39042 0.01,0.01 0.19576,0.0125 0.77417,0.0125 0.74229,0 0.7619,-4.9e-4 0.77246,-0.0202 0.007,-0.0129 0.0109,-0.15719 0.0109,-0.39663 0,-0.33354 0.002,-0.37709 0.0166,-0.38273 0.009,-0.003 0.0561,-0.006 0.1043,-0.006 0.076,0 0.0892,0.003 0.0986,0.0203 0.0172,0.0321 0.0148,1.91711 -0.003,1.94072 -0.0112,0.0154 -0.0282,0.0176 -0.11251,0.0151 l -0.0993,-0.003 -0.005,-0.36111 c -0.003,-0.19861 -0.009,-0.36699 -0.0137,-0.37419 -0.0121,-0.0186 -1.52512,-0.0192 -1.54377,-5e-4 -0.009,0.009 -0.0126,0.10468 -0.0126,0.36426 0,0.25957 -0.003,0.35497 -0.0126,0.36424 -0.008,0.008 -0.0465,0.0126 -0.10257,0.0126 -0.0561,0 -0.0948,-0.005 -0.10258,-0.0126 z m 2.49111,0 c -0.0182,-0.0183 -0.0182,-1.93491 0,-1.95312 0.008,-0.008 0.0488,-0.0125 0.11304,-0.0125 0.0642,0 0.10502,0.005 0.11304,0.0125 0.0182,0.0182 0.0182,1.93491 0,1.95312 -0.0171,0.0171 -0.20897,0.0171 -0.22608,0 z m -7.96214,-3.75592 c -0.27042,-0.0303 -0.47224,-0.11197 -0.57619,-0.23323 -0.052,-0.0607 -0.10682,-0.17642 -0.12478,-0.26354 -0.0485,-0.23525 -0.0485,-0.80245 0,-1.03585 0.0315,-0.15167 0.12033,-0.2878 0.23628,-0.3622 0.0741,-0.0475 0.1965,-0.0923 0.31513,-0.11535 0.16024,-0.031 0.42729,-0.0441 0.63587,-0.031 0.44953,0.0281 0.67204,0.13059 0.78084,0.35969 0.0199,0.0418 0.0429,0.10884 0.0513,0.14894 0.0485,0.2334 0.0486,0.8006 0,1.03585 -0.0549,0.26619 -0.2467,0.42245 -0.59195,0.48218 -0.11554,0.02 -0.59274,0.0296 -0.72657,0.0146 z m 0.83136,-0.51759 c 0.20385,-0.0458 0.27578,-0.12756 0.30518,-0.34712 0.0144,-0.10734 0.007,-0.31705 -0.0149,-0.39614 -0.0393,-0.14523 -0.11312,-0.21371 -0.27084,-0.25123 -0.10491,-0.025 -0.50315,-0.0387 -0.77906,-0.0268 -0.32946,0.0142 -0.42148,0.0387 -0.50899,0.13553 -0.06,0.0664 -0.091,0.19739 -0.0908,0.38324 4.9e-4,0.31638 0.0688,0.4408 0.27069,0.49253 0.1119,0.0286 0.23113,0.0345 0.62892,0.0309 0.30899,-0.003 0.39691,-0.007 0.45978,-0.0209 z m 1.58649,0.51629 c -0.36002,-0.0406 -0.56095,-0.18437 -0.62647,-0.44836 -0.029,-0.11658 -0.038,-0.34074 -0.0381,-0.94255 -1.1e-4,-0.43837 0.003,-0.58452 0.0125,-0.59399 0.008,-0.008 0.0465,-0.0126 0.10258,-0.0126 0.0561,0 0.0948,0.005 0.10257,0.0126 0.009,0.009 0.0126,0.14419 0.0126,0.54166 0,0.29194 0.005,0.57097 0.0108,0.62252 0.0216,0.18932 0.0833,0.26248 0.25842,0.30672 0.0606,0.0154 0.12792,0.018 0.46339,0.018 0.33756,1.3e-4 0.40243,-0.003 0.46338,-0.0179 0.17453,-0.0444 0.23301,-0.11489 0.25847,-0.31132 0.005,-0.0432 0.0103,-0.31895 0.0106,-0.61284 2.3e-4,-0.40127 0.003,-0.53746 0.0129,-0.54689 0.008,-0.008 0.0465,-0.0126 0.10258,-0.0126 0.0561,0 0.0948,0.005 0.10257,0.0126 0.009,0.009 0.0125,0.15562 0.0125,0.59399 -1.1e-4,0.60181 -0.009,0.82597 -0.0381,0.94254 -0.0669,0.26939 -0.26631,0.40853 -0.64438,0.44952 -0.11973,0.013 -0.45924,0.0123 -0.57871,-7.7e-4 z m 3.27838,-0.009 c -0.14784,-0.0221 -0.22767,-0.093 -0.32145,-0.28562 -0.0602,-0.12361 -0.11321,-0.27339 -0.27653,-0.78124 -0.11159,-0.34703 -0.15405,-0.41185 -0.28851,-0.44058 -0.0783,-0.0168 -0.25767,-0.007 -0.30761,0.0167 -0.0787,0.0374 -0.1221,0.12405 -0.14154,0.2826 -0.007,0.0575 -0.0115,0.30442 -0.0115,0.63373 0,0.40567 -0.003,0.54269 -0.0126,0.55212 -0.008,0.008 -0.0442,0.0126 -0.0921,0.0126 -0.0479,0 -0.0846,-0.005 -0.0921,-0.0126 -0.01,-0.009 -0.0125,-0.16577 -0.0122,-0.64109 4.9e-4,-0.82517 0.011,-0.96919 0.0821,-1.12107 0.0729,-0.15578 0.22504,-0.23458 0.45343,-0.23483 0.20827,-2.3e-4 0.32016,0.0734 0.41957,0.27597 0.062,0.12632 0.11058,0.26117 0.23243,0.64503 0.12614,0.39737 0.15177,0.46022 0.21377,0.52422 0.0601,0.062 0.10554,0.0754 0.25248,0.0746 0.17026,-7.6e-4 0.23387,-0.0377 0.28033,-0.16185 0.0384,-0.10233 0.0437,-0.198 0.0437,-0.76707 0,-0.62829 -0.0107,-0.57006 0.10467,-0.57006 0.11594,0 0.10467,-0.0714 0.10467,0.6635 0,0.353 -0.005,0.701 -0.0107,0.77334 -0.0325,0.3997 -0.15641,0.54386 -0.48649,0.56575 -0.0403,0.003 -0.10052,5.4e-4 -0.13381,-0.005 z m -8.42611,-0.0103 c -0.19966,-0.0177 -0.31285,-0.081 -0.34039,-0.19037 -0.018,-0.0714 -0.0161,-0.22236 0.003,-0.2415 0.0131,-0.0131 0.12094,-0.0162 0.72483,-0.0208 0.55338,-0.005 0.72946,-0.009 0.80025,-0.0208 0.14674,-0.0248 0.20312,-0.0642 0.21465,-0.15007 0.005,-0.0345 5.4e-4,-0.0472 -0.023,-0.0754 -0.0731,-0.0868 -0.22324,-0.11557 -0.83055,-0.15885 -0.33466,-0.0238 -0.41121,-0.033 -0.52822,-0.063 -0.16558,-0.0426 -0.27645,-0.12086 -0.33096,-0.23375 -0.0559,-0.11588 -0.0662,-0.30284 -0.026,-0.47651 0.0509,-0.21993 0.20963,-0.32139 0.55783,-0.35644 0.17177,-0.0173 0.85434,-0.014 0.97864,0.005 0.24286,0.0366 0.33699,0.13581 0.32906,0.3468 -0.003,0.0753 -0.005,0.0829 -0.0293,0.095 -0.0202,0.0102 -0.16374,0.0132 -0.62305,0.0133 -0.61135,1.6e-4 -0.72052,0.005 -0.84257,0.0419 -0.1402,0.0416 -0.18601,0.15267 -0.092,0.22288 0.0844,0.063 0.2882,0.0952 0.77781,0.12291 0.33816,0.0191 0.47443,0.0361 0.60017,0.0749 0.0981,0.0303 0.14382,0.0557 0.20633,0.11478 0.0974,0.0921 0.13841,0.23183 0.12698,0.43292 -0.0198,0.34797 -0.19914,0.47998 -0.70321,0.51757 -0.166,0.0124 -0.81067,0.0123 -0.95051,-10e-5 z m 9.5409,-0.005 -0.0233,-0.0163 v -0.97208 c 0,-0.8885 0.002,-0.97356 0.0173,-0.98931 0.0157,-0.0157 0.0682,-0.0168 0.58353,-0.013 0.46553,0.004 0.58317,0.008 0.6611,0.0215 0.34645,0.0627 0.51414,0.19339 0.58033,0.45217 0.0531,0.20762 0.0558,0.79902 0.005,1.0366 -0.0537,0.25022 -0.23356,0.40305 -0.54067,0.45946 -0.15443,0.0283 -0.34765,0.0373 -0.80841,0.0373 -0.39166,0 -0.45454,-0.002 -0.47473,-0.0163 z m 1.15069,-0.49637 c 0.31032,-0.0182 0.41804,-0.0734 0.47022,-0.24095 0.0276,-0.0887 0.0374,-0.27783 0.0209,-0.40297 -0.0264,-0.19885 -0.10013,-0.28189 -0.28986,-0.32605 -0.10078,-0.0235 -1.1425,-0.0348 -1.15657,-0.0125 -0.0148,0.0234 -0.0117,0.96525 0.003,0.9802 0.0154,0.0154 0.69972,0.0171 0.95205,0.002 z m 2.91335,-3.26629 c -0.27041,-0.0302 -0.47223,-0.11196 -0.57618,-0.23322 -0.052,-0.0607 -0.10683,-0.17642 -0.12478,-0.26353 -0.0485,-0.23527 -0.0485,-0.80246 0,-1.03586 0.0315,-0.15167 0.12033,-0.2878 0.23628,-0.36221 0.0741,-0.0475 0.1965,-0.0923 0.31513,-0.11534 0.16024,-0.031 0.42729,-0.0441 0.63586,-0.031 0.44954,0.0281 0.67205,0.13059 0.78085,0.35969 0.0199,0.0418 0.0429,0.10885 0.0513,0.14894 0.0485,0.2334 0.0486,0.8006 0,1.03586 -0.0549,0.26619 -0.2467,0.42244 -0.59195,0.48217 -0.11554,0.02 -0.59274,0.0296 -0.72657,0.0146 z m 0.83136,-0.51758 c 0.20385,-0.0457 0.27579,-0.12756 0.30518,-0.34713 0.0144,-0.10734 0.007,-0.31704 -0.015,-0.39612 -0.0393,-0.14524 -0.11312,-0.21372 -0.27085,-0.25124 -0.1049,-0.0249 -0.50314,-0.0387 -0.77905,-0.0268 -0.32946,0.0142 -0.42149,0.0387 -0.50899,0.13554 -0.06,0.0664 -0.091,0.19738 -0.0908,0.38323 4.9e-4,0.31638 0.0688,0.4408 0.2707,0.49253 0.11189,0.0286 0.23112,0.0345 0.62891,0.0309 0.309,-0.003 0.39691,-0.007 0.45978,-0.0209 z m -14.00468,0.50765 c -0.48265,-0.0317 -0.72148,-0.18188 -0.78899,-0.49623 -0.0489,-0.22762 -0.049,-0.791 -1e-4,-1.02682 0.0437,-0.21117 0.18963,-0.35983 0.42414,-0.43221 0.16563,-0.0511 0.2692,-0.0597 0.7216,-0.0597 0.37339,-2e-5 0.43265,0.002 0.49719,0.0187 0.20868,0.0535 0.27654,0.12753 0.28556,0.3118 0.003,0.0652 5.3e-4,0.10823 -0.007,0.12298 l -0.0121,0.0227 -0.47325,2.5e-4 c -0.56332,4.9e-4 -0.87474,0.012 -0.97062,0.0361 -0.0934,0.0235 -0.16516,0.0648 -0.20603,0.11861 -0.0388,0.0511 -0.0689,0.14165 -0.064,0.19272 l 0.003,0.0342 0.81418,0.005 c 0.70848,0.005 0.81547,0.007 0.8241,0.0209 0.005,0.009 0.01,0.0661 0.0101,0.12763 1.5e-4,0.10388 -0.002,0.11309 -0.0231,0.12821 -0.0206,0.0144 -0.11649,0.0163 -0.82689,0.0163 h -0.80362 v 0.0348 c 0,0.0497 0.0287,0.13965 0.0596,0.18624 0.0326,0.0493 0.10481,0.0964 0.18135,0.11839 0.10503,0.0302 0.26053,0.0369 0.85836,0.0372 0.51828,2.4e-4 0.59456,0.002 0.61493,0.0166 0.0209,0.0146 0.0232,0.0253 0.0232,0.10277 0,0.2167 -0.0831,0.30553 -0.3297,0.35234 -0.0783,0.0149 -0.63448,0.0219 -0.81197,0.0102 z m 3.9146,0 c -0.48265,-0.0317 -0.72147,-0.18188 -0.78898,-0.49623 -0.0489,-0.22762 -0.049,-0.791 -1.1e-4,-1.02682 0.0437,-0.21117 0.18963,-0.35983 0.42414,-0.43221 0.16563,-0.0511 0.2692,-0.0597 0.72161,-0.0597 0.37338,-2e-5 0.43264,0.002 0.49718,0.0187 0.20869,0.0535 0.27655,0.12753 0.28556,0.3118 0.003,0.0652 5.3e-4,0.10823 -0.007,0.12298 l -0.0122,0.0227 -0.47325,2.5e-4 c -0.56332,4.9e-4 -0.87475,0.012 -0.97062,0.0361 -0.0934,0.0235 -0.16516,0.0648 -0.20603,0.11861 -0.0388,0.0511 -0.0689,0.14165 -0.0639,0.19272 l 0.003,0.0342 0.81418,0.005 c 0.70847,0.005 0.81547,0.007 0.82411,0.0209 0.005,0.009 0.01,0.0661 0.0101,0.12763 1.4e-4,0.10388 -0.002,0.11309 -0.0231,0.12821 -0.0206,0.0144 -0.11649,0.0163 -0.82688,0.0163 h -0.80363 v 0.0348 c 0,0.0497 0.0287,0.13965 0.0596,0.18624 0.0326,0.0493 0.10482,0.0964 0.18136,0.11839 0.10503,0.0302 0.26052,0.0369 0.85836,0.0372 0.51827,2.4e-4 0.59455,0.002 0.61493,0.0166 0.0209,0.0146 0.0233,0.0253 0.0233,0.10277 0,0.2167 -0.0831,0.30553 -0.3297,0.35234 -0.0783,0.0149 -0.63449,0.0219 -0.81197,0.0102 z m 12.56851,-7.6e-4 c -0.14783,-0.0221 -0.22766,-0.093 -0.32145,-0.28562 -0.0602,-0.1236 -0.11321,-0.2734 -0.27653,-0.78124 -0.11159,-0.34703 -0.15404,-0.41185 -0.28851,-0.44059 -0.0783,-0.0167 -0.25766,-0.007 -0.3076,0.0167 -0.0787,0.0374 -0.12211,0.12405 -0.14154,0.28261 -0.007,0.0575 -0.0115,0.30442 -0.0115,0.63372 0,0.40567 -0.003,0.54269 -0.0126,0.55213 -0.008,0.008 -0.0442,0.0126 -0.0921,0.0126 -0.0479,0 -0.0845,-0.005 -0.0921,-0.0126 -0.01,-0.01 -0.0125,-0.16577 -0.0122,-0.6411 5e-4,-0.82517 0.011,-0.96919 0.0821,-1.12107 0.0729,-0.15577 0.22504,-0.23458 0.45344,-0.23483 0.20827,-2.3e-4 0.32016,0.0734 0.41957,0.27597 0.062,0.12632 0.11058,0.26118 0.23243,0.64504 0.12614,0.39736 0.15176,0.46022 0.21378,0.52421 0.0601,0.062 0.10552,0.0754 0.25247,0.0746 0.17026,-7.6e-4 0.23386,-0.0377 0.28033,-0.16185 0.0383,-0.10232 0.0438,-0.198 0.0438,-0.76707 0,-0.62829 -0.0107,-0.57005 0.10467,-0.57005 0.11594,0 0.10467,-0.0714 0.10467,0.66349 0,0.35301 -0.005,0.701 -0.0107,0.77334 -0.0325,0.39971 -0.15642,0.54386 -0.48649,0.56575 -0.0403,0.003 -0.10051,5.5e-4 -0.1338,-0.005 z m -14.55453,-0.015 c -0.10091,-0.0183 -0.17694,-0.0568 -0.23511,-0.11894 -0.14168,-0.15147 -0.15656,-0.28639 -0.15193,-1.37775 l 0.003,-0.73269 h 0.10989 0.10991 l 0.005,0.73269 c 0.005,0.6598 0.008,0.74018 0.0243,0.8081 0.0316,0.12641 0.077,0.17474 0.17969,0.19155 0.0345,0.005 0.22609,0.0103 0.42572,0.0103 0.31597,5e-5 0.3651,0.002 0.37943,0.0165 0.0139,0.0139 0.0164,0.0503 0.0164,0.23491 0,0.21389 -5e-4,0.2188 -0.0233,0.23475 -0.02,0.0141 -0.0744,0.0162 -0.39512,0.0154 -0.25957,-5.4e-4 -0.395,-0.005 -0.44847,-0.0148 z m 4.23719,0.005 c -0.44897,-0.0389 -0.67343,-0.18664 -0.73758,-0.48546 -0.051,-0.23758 -0.0482,-0.82899 0.005,-1.0366 0.0662,-0.25886 0.23533,-0.39054 0.58033,-0.45185 0.12375,-0.022 0.83788,-0.0327 0.97388,-0.0146 0.18954,0.0252 0.28171,0.0717 0.3345,0.16882 0.0277,0.051 0.0312,0.0686 0.0353,0.17344 0.005,0.11363 0.004,0.11718 -0.0204,0.13287 -0.0216,0.014 -0.11502,0.0167 -0.70517,0.0203 -0.5753,0.004 -0.69111,0.007 -0.7501,0.0209 -0.0847,0.0202 -0.12854,0.0415 -0.17452,0.0847 -0.0785,0.0738 -0.10127,0.16277 -0.10076,0.39395 5.4e-4,0.30658 0.0503,0.40414 0.23424,0.4612 0.10112,0.0313 0.31123,0.0405 0.93954,0.0409 0.48226,2.5e-4 0.54807,0.002 0.56259,0.0167 0.0124,0.0124 0.0164,0.0387 0.0164,0.108 0,0.2136 -0.0785,0.30709 -0.29666,0.35341 -0.0901,0.0191 -0.72112,0.0285 -0.89657,0.0133 z m 12.83236,0 c -0.44895,-0.0389 -0.67342,-0.18664 -0.73757,-0.48546 -0.051,-0.23758 -0.0482,-0.82899 0.005,-1.0366 0.0662,-0.25886 0.23533,-0.39054 0.58033,-0.45185 0.12375,-0.022 0.83788,-0.0327 0.97389,-0.0146 0.18954,0.0252 0.28171,0.0717 0.33449,0.16882 0.0277,0.051 0.0312,0.0686 0.0353,0.17344 0.005,0.11363 0.004,0.11718 -0.0203,0.13287 -0.0215,0.014 -0.11502,0.0167 -0.70518,0.0203 -0.57529,0.004 -0.69111,0.007 -0.75009,0.0209 -0.0848,0.0202 -0.12855,0.0415 -0.17452,0.0847 -0.0785,0.0738 -0.10126,0.16277 -0.10075,0.39395 5.3e-4,0.30658 0.0503,0.40414 0.23423,0.4612 0.10112,0.0313 0.31123,0.0405 0.93955,0.0409 0.48224,2.5e-4 0.54806,0.002 0.56259,0.0167 0.0125,0.0124 0.0164,0.0387 0.0164,0.108 0,0.2136 -0.0785,0.30709 -0.29665,0.35341 -0.0901,0.0191 -0.72113,0.0285 -0.89657,0.0133 z m -10.47523,-0.0118 c -0.009,-0.01 -0.0125,-0.18635 -0.0125,-0.73182 0,-0.3956 -0.003,-0.72671 -0.006,-0.73582 -0.005,-0.0147 -0.0531,-0.0166 -0.42681,-0.0166 -0.37317,0 -0.42322,-0.002 -0.44503,-0.0172 -0.0238,-0.0166 -0.0244,-0.0208 -0.0189,-0.12298 0.003,-0.0582 0.0116,-0.12357 0.0189,-0.1453 0.0191,-0.0572 0.0752,-0.11748 0.13818,-0.1483 0.11186,-0.0547 0.16277,-0.0581 0.85875,-0.0581 0.39287,6e-5 0.6661,0.005 0.70727,0.011 0.23157,0.0376 0.32494,0.14314 0.32529,0.36778 1.8e-4,0.12112 0.0332,0.11311 -0.46686,0.11311 -0.37375,0 -0.42117,0.002 -0.42682,0.0166 -0.003,0.009 -0.006,0.34023 -0.006,0.73583 0,0.54547 -0.003,0.7223 -0.0126,0.73183 -0.008,0.008 -0.0488,0.0125 -0.11304,0.0125 -0.0642,0 -0.10501,-0.005 -0.11304,-0.0125 z m 1.46537,0 c -0.0164,-0.0163 -0.0179,-1.25806 -0.002,-1.39027 0.0452,-0.36962 0.20734,-0.54409 0.5596,-0.6021 0.13331,-0.022 0.52899,-0.0308 0.74432,-0.0166 0.28063,0.0185 0.43792,0.0674 0.5548,0.17247 0.10118,0.091 0.14605,0.21805 0.15778,0.44675 0.01,0.19042 -0.0192,0.31361 -0.0905,0.3849 -0.0798,0.0797 -0.16623,0.10123 -0.63898,0.15883 -0.19285,0.0235 -0.37505,0.0497 -0.40489,0.0582 -0.10344,0.0296 -0.14565,0.0911 -0.11417,0.1664 0.0267,0.064 0.075,0.0786 0.70733,0.21502 0.34174,0.0737 0.5959,0.13369 0.62369,0.14714 0.0539,0.0261 0.0804,0.0681 0.0796,0.12611 -5.5e-4,0.0518 -0.0192,0.0792 -0.0699,0.10356 -0.0696,0.0335 -0.19978,0.0421 -0.63604,0.0421 -0.47245,0 -0.52084,-0.005 -0.66258,-0.0724 -0.19606,-0.0928 -0.28302,-0.25235 -0.29466,-0.54063 -0.005,-0.10767 -0.002,-0.14916 0.0114,-0.19502 0.0209,-0.072 0.0732,-0.1496 0.13016,-0.19329 0.0807,-0.0619 0.13781,-0.075 0.54088,-0.12488 0.47541,-0.0588 0.53225,-0.0726 0.58379,-0.14171 0.026,-0.0348 0.0348,-0.11044 0.0187,-0.1594 -0.0343,-0.10404 -0.18886,-0.13185 -0.73316,-0.132 -0.51367,-1.3e-4 -0.67495,0.0264 -0.77139,0.12705 -0.0737,0.0769 -0.0708,0.0478 -0.0742,0.76177 -0.002,0.44302 -0.007,0.64737 -0.0144,0.6568 -0.015,0.0181 -0.18767,0.019 -0.20558,7.7e-4 z m 7.59893,0 c -0.0182,-0.0182 -0.0182,-1.9349 0,-1.95311 0.008,-0.008 0.0488,-0.0126 0.11305,-0.0126 0.0642,0 0.10501,0.005 0.11304,0.0126 0.0182,0.0182 0.0182,1.9349 0,1.95311 -0.008,0.008 -0.0488,0.0126 -0.11304,0.0126 -0.0642,0 -0.10502,-0.005 -0.11305,-0.0126 z"
       id="path4687"
       inkscape:connector-curvature="0" />
  </g>
  <g
     inkscape:groupmode="layer"
     id="layer4"
     inkscape:label="text"
     style="filter:url(#filter4830)">
    <g
       aria-label="ringmod"
       transform="rotate(-90)"
       style="font-style:normal;font-variant:normal;font-weight:normal;font-stretch:normal;font-size:3.52777767px;line-height:1.25;font-family:'Courier New';-inkscape-font-specification:'Courier New, Normal';font-variant-ligatures:normal;font-variant-caps:normal;font-variant-numeric:normal;font-feature-settings:normal;text-align:start;letter-spacing:0px;word-spacing:0px;writing-mode:lr-tb;text-anchor:start;fill:#000000;fill-opacity:1;stroke:none;stroke-width:0.26458332"
       id="text4696">
      <path
         d="m -224.80966,146.96218 v 0.36518 q 0.28249,-0.25494 0.42202,-0.32729 0.14125,-0.0741 0.26011,-0.0741 0.12919,0 0.23943,0.0879 0.11197,0.0861 0.11197,0.13092 0,0.0327 -0.0224,0.0551 -0.0207,0.0207 -0.0534,0.0207 -0.0172,0 -0.0293,-0.005 -0.0121,-0.007 -0.0448,-0.0396 -0.0603,-0.0603 -0.10507,-0.0827 -0.0448,-0.0224 -0.0879,-0.0224 -0.0947,0 -0.2291,0.0758 -0.13264,0.0758 -0.46164,0.37035 v 0.79237 h 0.64078 q 0.0534,0 0.0758,0.0207 0.0224,0.0189 0.0224,0.0517 0,0.031 -0.0224,0.0517 -0.0224,0.0207 -0.0758,0.0207 h -1.13515 q -0.0517,0 -0.0741,-0.0189 -0.0224,-0.0207 -0.0224,-0.0517 0,-0.0293 0.0207,-0.0482 0.0224,-0.0207 0.0758,-0.0207 h 0.34967 v -1.20579 h -0.26699 q -0.0517,0 -0.0741,-0.0207 -0.0224,-0.0207 -0.0224,-0.0534 0,-0.031 0.0207,-0.0517 0.0224,-0.0207 0.0758,-0.0207 z"
         style="font-style:normal;font-variant:normal;font-weight:normal;font-stretch:normal;font-size:3.52777767px;font-family:'Courier New';-inkscape-font-specification:'Courier New, Normal';font-variant-ligatures:normal;font-variant-caps:normal;font-variant-numeric:normal;font-feature-settings:normal;text-align:start;writing-mode:lr-tb;text-anchor:start;stroke-width:0.26458332"
         id="path4853" />
      <path
         d="m -222.44977,146.21976 v 0.37379 h -0.2136 v -0.37379 z m 0.005,0.74242 v 1.34703 h 0.56845 q 0.0534,0 0.0758,0.0207 0.0224,0.0189 0.0224,0.0517 0,0.031 -0.0224,0.0517 -0.0224,0.0207 -0.0758,0.0207 h -1.28158 q -0.0517,0 -0.0741,-0.0207 -0.0224,-0.0207 -0.0224,-0.0517 0,-0.0327 0.0224,-0.0517 0.0224,-0.0207 0.0741,-0.0207 h 0.56844 v -1.20062 h -0.42202 q -0.0517,0 -0.0758,-0.0207 -0.0224,-0.0207 -0.0224,-0.0517 0,-0.0327 0.0224,-0.0534 0.0224,-0.0207 0.0758,-0.0207 z"
         style="font-style:normal;font-variant:normal;font-weight:normal;font-stretch:normal;font-size:3.52777767px;font-family:'Courier New';-inkscape-font-specification:'Courier New, Normal';font-variant-ligatures:normal;font-variant-caps:normal;font-variant-numeric:normal;font-feature-settings:normal;text-align:start;writing-mode:lr-tb;text-anchor:start;stroke-width:0.26458332"
         id="path4855" />
      <path
         d="m -220.87364,146.96218 v 0.21876 q 0.15158,-0.15331 0.27388,-0.21187 0.1223,-0.0586 0.27561,-0.0586 0.16537,0 0.30145,0.0706 0.0965,0.0517 0.17397,0.17226 0.0792,0.11886 0.0792,0.2446 v 0.91123 h 0.1223 q 0.0517,0 0.0741,0.0207 0.0224,0.0189 0.0224,0.0517 0,0.031 -0.0224,0.0517 -0.0224,0.0207 -0.0741,0.0207 h -0.38757 q -0.0534,0 -0.0758,-0.0207 -0.0224,-0.0207 -0.0224,-0.0517 0,-0.0327 0.0224,-0.0517 0.0224,-0.0207 0.0758,-0.0207 h 0.12058 v -0.88711 q 0,-0.15331 -0.11197,-0.25839 -0.11196,-0.10679 -0.29972,-0.10679 -0.14297,0 -0.24805,0.0586 -0.10507,0.0568 -0.29972,0.28595 v 0.90778 h 0.16364 q 0.0517,0 0.0741,0.0207 0.0224,0.0189 0.0224,0.0517 0,0.031 -0.0224,0.0517 -0.0224,0.0207 -0.0741,0.0207 h -0.47198 q -0.0517,0 -0.0741,-0.0207 -0.0224,-0.0207 -0.0224,-0.0517 0,-0.0327 0.0224,-0.0517 0.0224,-0.0207 0.0741,-0.0207 h 0.16364 v -1.20062 h -0.1223 q -0.0517,0 -0.0741,-0.0207 -0.0224,-0.0207 -0.0224,-0.0534 0,-0.031 0.0224,-0.0517 0.0224,-0.0207 0.0741,-0.0207 z"
         style="font-style:normal;font-variant:normal;font-weight:normal;font-stretch:normal;font-size:3.52777767px;font-family:'Courier New';-inkscape-font-specification:'Courier New, Normal';font-variant-ligatures:normal;font-variant-caps:normal;font-variant-numeric:normal;font-feature-settings:normal;text-align:start;writing-mode:lr-tb;text-anchor:start;stroke-width:0.26458332"
         id="path4857" />
      <path
         d="m -217.80406,147.22745 v -0.26527 h 0.33934 q 0.0517,0 0.0741,0.0207 0.0224,0.0207 0.0224,0.0534 0,0.031 -0.0224,0.0517 -0.0224,0.0207 -0.0741,0.0207 h -0.19465 v 1.44522 q 0,0.14469 -0.062,0.25838 -0.0413,0.0758 -0.1378,0.15675 -0.0965,0.081 -0.1757,0.11542 -0.0792,0.0344 -0.21188,0.0344 h -0.40996 q -0.0517,0 -0.0741,-0.0207 -0.0224,-0.0189 -0.0224,-0.0517 0,-0.0327 0.0224,-0.0534 0.0224,-0.0207 0.0741,-0.0207 l 0.41513,0.002 q 0.12747,0 0.2291,-0.0654 0.10335,-0.0655 0.17053,-0.19121 0.0379,-0.0723 0.0379,-0.18431 v -0.43408 q -0.23255,0.31867 -0.59945,0.31867 -0.298,0 -0.51504,-0.22049 -0.21532,-0.22221 -0.21532,-0.53399 0,-0.31178 0.21532,-0.53226 0.21704,-0.22049 0.51504,-0.22049 0.3669,0 0.59945,0.31695 z m 0,0.4358 q 0,-0.25493 -0.1757,-0.43063 -0.17398,-0.1757 -0.41686,-0.1757 -0.24288,0 -0.41686,0.17742 -0.17397,0.1757 -0.17397,0.42891 0,0.25494 0.17397,0.43236 0.17398,0.1757 0.41686,0.1757 0.24288,0 0.41686,-0.1757 0.1757,-0.17742 0.1757,-0.43236 z"
         style="font-style:normal;font-variant:normal;font-weight:normal;font-stretch:normal;font-size:3.52777767px;font-family:'Courier New';-inkscape-font-specification:'Courier New, Normal';font-variant-ligatures:normal;font-variant-caps:normal;font-variant-numeric:normal;font-feature-settings:normal;text-align:start;writing-mode:lr-tb;text-anchor:start;stroke-width:0.26458332"
         id="path4859" />
      <path
         d="m -216.83427,146.96218 v 0.14641 q 0.18431,-0.19809 0.37035,-0.19809 0.11197,0 0.19637,0.0603 0.0844,0.0586 0.14125,0.17914 0.0965,-0.12057 0.19465,-0.17914 0.0999,-0.0603 0.19981,-0.0603 0.15675,0 0.24977,0.10163 0.1223,0.13091 0.1223,0.28594 v 1.01114 h 0.1223 q 0.0517,0 0.0741,0.0207 0.0224,0.0189 0.0224,0.0517 0,0.031 -0.0224,0.0517 -0.0224,0.0207 -0.0741,0.0207 h -0.26699 v -1.14205 q 0,-0.11024 -0.0672,-0.18259 -0.0672,-0.0723 -0.15503,-0.0723 -0.0792,0 -0.16709,0.0603 -0.0879,0.0586 -0.19981,0.23254 v 0.95946 h 0.12058 q 0.0517,0 0.0741,0.0207 0.0224,0.0189 0.0224,0.0517 0,0.031 -0.0224,0.0517 -0.0224,0.0207 -0.0741,0.0207 h -0.267 v -1.13171 q 0,-0.11541 -0.0689,-0.18948 -0.0672,-0.0758 -0.15159,-0.0758 -0.0775,0 -0.1533,0.0499 -0.10508,0.0706 -0.22049,0.24288 v 0.95946 h 0.1223 q 0.0517,0 0.0741,0.0207 0.0224,0.0189 0.0224,0.0517 0,0.031 -0.0224,0.0517 -0.0224,0.0207 -0.0741,0.0207 h -0.38929 q -0.0517,0 -0.0741,-0.0207 -0.0224,-0.0207 -0.0224,-0.0517 0,-0.0327 0.0224,-0.0517 0.0224,-0.0207 0.0741,-0.0207 h 0.1223 v -1.20062 h -0.1223 q -0.0517,0 -0.0741,-0.0207 -0.0224,-0.0207 -0.0224,-0.0534 0,-0.031 0.0224,-0.0517 0.0224,-0.0207 0.0741,-0.0207 z"
         style="font-style:normal;font-variant:normal;font-weight:normal;font-stretch:normal;font-size:3.52777767px;font-family:'Courier New';-inkscape-font-specification:'Courier New, Normal';font-variant-ligatures:normal;font-variant-caps:normal;font-variant-numeric:normal;font-feature-settings:normal;text-align:start;writing-mode:lr-tb;text-anchor:start;stroke-width:0.26458332"
         id="path4861" />
      <path
         d="m -213.25137,147.71149 q 0,0.33072 -0.23771,0.56499 -0.23599,0.23427 -0.57016,0.23427 -0.33762,0 -0.57361,-0.23427 -0.23599,-0.23599 -0.23599,-0.56499 0,-0.33073 0.23599,-0.565 0.23599,-0.23599 0.57361,-0.23599 0.33417,0 0.57016,0.23427 0.23771,0.23426 0.23771,0.56672 z m -0.14642,0 q 0,-0.27217 -0.19464,-0.46337 -0.19293,-0.1912 -0.46854,-0.1912 -0.2756,0 -0.47025,0.19292 -0.19293,0.19121 -0.19293,0.46165 0,0.26871 0.19293,0.46164 0.19465,0.19292 0.47025,0.19292 0.27561,0 0.46854,-0.1912 0.19464,-0.19292 0.19464,-0.46336 z"
         style="font-style:normal;font-variant:normal;font-weight:normal;font-stretch:normal;font-size:3.52777767px;font-family:'Courier New';-inkscape-font-specification:'Courier New, Normal';font-variant-ligatures:normal;font-variant-caps:normal;font-variant-numeric:normal;font-feature-settings:normal;text-align:start;writing-mode:lr-tb;text-anchor:start;stroke-width:0.26458332"
         id="path4863" />
      <path
         d="m -211.23599,146.29211 v 2.0171 h 0.19293 q 0.0534,0 0.0758,0.0207 0.0224,0.0189 0.0224,0.0517 0,0.031 -0.0224,0.0517 -0.0224,0.0207 -0.0758,0.0207 h -0.33935 v -0.28766 q -0.25149,0.34451 -0.63906,0.34451 -0.19637,0 -0.37724,-0.10336 -0.17914,-0.10507 -0.28422,-0.298 -0.10335,-0.19292 -0.10335,-0.3979 0,-0.20671 0.10335,-0.39791 0.10508,-0.19293 0.28422,-0.298 0.18087,-0.10508 0.37896,-0.10508 0.37896,0 0.63734,0.34451 v -0.81649 h -0.19292 q -0.0534,0 -0.0758,-0.0207 -0.0224,-0.0207 -0.0224,-0.0534 0,-0.031 0.0224,-0.0517 0.0224,-0.0207 0.0758,-0.0207 z m -0.14642,1.41938 q 0,-0.27561 -0.18603,-0.46509 -0.18604,-0.18948 -0.4427,-0.18948 -0.25838,0 -0.44441,0.18948 -0.18604,0.18948 -0.18604,0.46509 0,0.27388 0.18604,0.46508 0.18603,0.18948 0.44441,0.18948 0.25666,0 0.4427,-0.18948 0.18603,-0.1912 0.18603,-0.46508 z"
         style="font-style:normal;font-variant:normal;font-weight:normal;font-stretch:normal;font-size:3.52777767px;font-family:'Courier New';-inkscape-font-specification:'Courier New, Normal';font-variant-ligatures:normal;font-variant-caps:normal;font-variant-numeric:normal;font-feature-settings:normal;text-align:start;writing-mode:lr-tb;text-anchor:start;stroke-width:0.26458332"
         id="path4865" />
    </g>
    <g
       aria-label="ringmod"
       transform="rotate(90)"
       style="font-style:normal;font-variant:normal;font-weight:normal;font-stretch:normal;font-size:3.52777767px;line-height:1.25;font-family:'Courier New';-inkscape-font-specification:'Courier New, Normal';font-variant-ligatures:normal;font-variant-caps:normal;font-variant-numeric:normal;font-feature-settings:normal;text-align:start;letter-spacing:0px;word-spacing:0px;writing-mode:lr-tb;text-anchor:start;fill:#000000;fill-opacity:1;stroke:none;stroke-width:0.26458332"
       id="text4836">
      <path
         d="m 211.53572,-85.934872 v 0.36518 q 0.2825,-0.254937 0.42202,-0.327284 0.14125,-0.07407 0.26011,-0.07407 0.12919,0 0.23943,0.08785 0.11197,0.08613 0.11197,0.130914 0,0.03273 -0.0224,0.05512 -0.0207,0.02067 -0.0534,0.02067 -0.0172,0 -0.0293,-0.0052 -0.0121,-0.0069 -0.0448,-0.03962 -0.0603,-0.06029 -0.10508,-0.08268 -0.0448,-0.02239 -0.0879,-0.02239 -0.0947,0 -0.2291,0.07579 -0.13263,0.07579 -0.46164,0.370347 v 0.792372 h 0.64079 q 0.0534,0 0.0758,0.02067 0.0224,0.01895 0.0224,0.05168 0,0.03101 -0.0224,0.05168 -0.0224,0.02067 -0.0758,0.02067 h -1.13516 q -0.0517,0 -0.0741,-0.01895 -0.0224,-0.02067 -0.0224,-0.05168 0,-0.02928 0.0207,-0.04823 0.0224,-0.02067 0.0758,-0.02067 h 0.34968 v -1.205783 h -0.267 q -0.0517,0 -0.0741,-0.02067 -0.0224,-0.02067 -0.0224,-0.0534 0,-0.03101 0.0207,-0.05168 0.0224,-0.02067 0.0758,-0.02067 z"
         style="font-style:normal;font-variant:normal;font-weight:normal;font-stretch:normal;font-size:3.52777767px;font-family:'Courier New';-inkscape-font-specification:'Courier New, Normal';font-variant-ligatures:normal;font-variant-caps:normal;font-variant-numeric:normal;font-feature-settings:normal;text-align:start;writing-mode:lr-tb;text-anchor:start;stroke-width:0.26458332"
         id="path4838" />
      <path
         d="m 213.89561,-86.67729 v 0.373793 h -0.2136 v -0.373793 z m 0.005,0.742418 v 1.347032 h 0.56844 q 0.0534,0 0.0758,0.02067 0.0224,0.01895 0.0224,0.05168 0,0.03101 -0.0224,0.05168 -0.0224,0.02067 -0.0758,0.02067 h -1.28158 q -0.0517,0 -0.0741,-0.02067 -0.0224,-0.02067 -0.0224,-0.05168 0,-0.03273 0.0224,-0.05168 0.0224,-0.02067 0.0741,-0.02067 h 0.56844 v -1.200615 h -0.42202 q -0.0517,0 -0.0758,-0.02067 -0.0224,-0.02067 -0.0224,-0.05168 0,-0.03273 0.0224,-0.0534 0.0224,-0.02067 0.0758,-0.02067 z"
         style="font-style:normal;font-variant:normal;font-weight:normal;font-stretch:normal;font-size:3.52777767px;font-family:'Courier New';-inkscape-font-specification:'Courier New, Normal';font-variant-ligatures:normal;font-variant-caps:normal;font-variant-numeric:normal;font-feature-settings:normal;text-align:start;writing-mode:lr-tb;text-anchor:start;stroke-width:0.26458332"
         id="path4840" />
      <path
         d="m 215.47174,-85.934872 v 0.218764 q 0.15158,-0.153307 0.27389,-0.211874 0.1223,-0.05857 0.2756,-0.05857 0.16537,0 0.30145,0.07062 0.0965,0.05168 0.17398,0.172255 0.0792,0.118856 0.0792,0.244602 v 0.911227 h 0.1223 q 0.0517,0 0.0741,0.02067 0.0224,0.01895 0.0224,0.05168 0,0.03101 -0.0224,0.05168 -0.0224,0.02067 -0.0741,0.02067 h -0.38757 q -0.0534,0 -0.0758,-0.02067 -0.0224,-0.02067 -0.0224,-0.05168 0,-0.03273 0.0224,-0.05168 0.0224,-0.02067 0.0758,-0.02067 h 0.12058 v -0.887112 q 0,-0.153307 -0.11197,-0.258382 -0.11196,-0.106798 -0.29972,-0.106798 -0.14297,0 -0.24805,0.05857 -0.10507,0.05684 -0.29972,0.285943 v 0.907782 h 0.16364 q 0.0517,0 0.0741,0.02067 0.0224,0.01895 0.0224,0.05168 0,0.03101 -0.0224,0.05168 -0.0224,0.02067 -0.0741,0.02067 h -0.47198 q -0.0517,0 -0.0741,-0.02067 -0.0224,-0.02067 -0.0224,-0.05168 0,-0.03273 0.0224,-0.05168 0.0224,-0.02067 0.0741,-0.02067 h 0.16365 v -1.200615 h -0.1223 q -0.0517,0 -0.0741,-0.02067 -0.0224,-0.02067 -0.0224,-0.0534 0,-0.03101 0.0224,-0.05168 0.0224,-0.02067 0.0741,-0.02067 z"
         style="font-style:normal;font-variant:normal;font-weight:normal;font-stretch:normal;font-size:3.52777767px;font-family:'Courier New';-inkscape-font-specification:'Courier New, Normal';font-variant-ligatures:normal;font-variant-caps:normal;font-variant-numeric:normal;font-feature-settings:normal;text-align:start;writing-mode:lr-tb;text-anchor:start;stroke-width:0.26458332"
         id="path4842" />
      <path
         d="m 218.54132,-85.6696 v -0.265272 h 0.33934 q 0.0517,0 0.0741,0.02067 0.0224,0.02067 0.0224,0.0534 0,0.03101 -0.0224,0.05168 -0.0224,0.02067 -0.0741,0.02067 h -0.19465 v 1.445217 q 0,0.144694 -0.062,0.258382 -0.0413,0.07579 -0.1378,0.156752 -0.0965,0.08096 -0.1757,0.115411 -0.0792,0.03445 -0.21187,0.03445 h -0.40997 q -0.0517,0 -0.0741,-0.02067 -0.0224,-0.01895 -0.0224,-0.05168 0,-0.03273 0.0224,-0.0534 0.0224,-0.02067 0.0741,-0.02067 l 0.41513,0.0017 q 0.12747,0 0.2291,-0.06546 0.10335,-0.06546 0.17053,-0.191203 0.0379,-0.07235 0.0379,-0.184313 v -0.434082 q -0.23254,0.318672 -0.59945,0.318672 -0.298,0 -0.51504,-0.220486 -0.21532,-0.222209 -0.21532,-0.53399 0,-0.311781 0.21532,-0.532267 0.21704,-0.220486 0.51504,-0.220486 0.36691,0 0.59945,0.316948 z m 0,0.435805 q 0,-0.254937 -0.1757,-0.430637 -0.17398,-0.1757 -0.41686,-0.1757 -0.24288,0 -0.41685,0.177422 -0.17398,0.1757 -0.17398,0.428915 0,0.254937 0.17398,0.432359 0.17397,0.1757 0.41685,0.1757 0.24288,0 0.41686,-0.1757 0.1757,-0.177422 0.1757,-0.432359 z"
         style="font-style:normal;font-variant:normal;font-weight:normal;font-stretch:normal;font-size:3.52777767px;font-family:'Courier New';-inkscape-font-specification:'Courier New, Normal';font-variant-ligatures:normal;font-variant-caps:normal;font-variant-numeric:normal;font-feature-settings:normal;text-align:start;writing-mode:lr-tb;text-anchor:start;stroke-width:0.26458332"
         id="path4844" />
      <path
         d="m 219.51111,-85.934872 v 0.146417 q 0.18432,-0.198093 0.37035,-0.198093 0.11197,0 0.19637,0.06029 0.0844,0.05857 0.14125,0.179145 0.0965,-0.120579 0.19465,-0.179145 0.0999,-0.06029 0.19982,-0.06029 0.15675,0 0.24976,0.10163 0.12231,0.130913 0.12231,0.285943 v 1.011135 h 0.1223 q 0.0517,0 0.0741,0.02067 0.0224,0.01895 0.0224,0.05168 0,0.03101 -0.0224,0.05168 -0.0224,0.02067 -0.0741,0.02067 h -0.267 v -1.142049 q 0,-0.110243 -0.0672,-0.18259 -0.0672,-0.07235 -0.15503,-0.07235 -0.0792,0 -0.16708,0.06029 -0.0879,0.05857 -0.19982,0.232544 v 0.959459 h 0.12058 q 0.0517,0 0.0741,0.02067 0.0224,0.01895 0.0224,0.05168 0,0.03101 -0.0224,0.05168 -0.0224,0.02067 -0.0741,0.02067 h -0.267 v -1.131714 q 0,-0.11541 -0.0689,-0.18948 -0.0672,-0.07579 -0.15158,-0.07579 -0.0775,0 -0.15331,0.04995 -0.10507,0.07062 -0.22049,0.242879 v 0.959459 h 0.12231 q 0.0517,0 0.0741,0.02067 0.0224,0.01895 0.0224,0.05168 0,0.03101 -0.0224,0.05168 -0.0224,0.02067 -0.0741,0.02067 h -0.3893 q -0.0517,0 -0.0741,-0.02067 -0.0224,-0.02067 -0.0224,-0.05168 0,-0.03273 0.0224,-0.05168 0.0224,-0.02067 0.0741,-0.02067 h 0.1223 v -1.200615 h -0.1223 q -0.0517,0 -0.0741,-0.02067 -0.0224,-0.02067 -0.0224,-0.0534 0,-0.03101 0.0224,-0.05168 0.0224,-0.02067 0.0741,-0.02067 z"
         style="font-style:normal;font-variant:normal;font-weight:normal;font-stretch:normal;font-size:3.52777767px;font-family:'Courier New';-inkscape-font-specification:'Courier New, Normal';font-variant-ligatures:normal;font-variant-caps:normal;font-variant-numeric:normal;font-feature-settings:normal;text-align:start;writing-mode:lr-tb;text-anchor:start;stroke-width:0.26458332"
         id="path4846" />
      <path
         d="m 223.09401,-85.185564 q 0,0.330729 -0.23771,0.564996 -0.23599,0.234266 -0.57016,0.234266 -0.33762,0 -0.57361,-0.234266 -0.23599,-0.235989 -0.23599,-0.564996 0,-0.330729 0.23599,-0.564995 0.23599,-0.235989 0.57361,-0.235989 0.33417,0 0.57016,0.234266 0.23771,0.234266 0.23771,0.566718 z m -0.14641,0 q 0,-0.272162 -0.19465,-0.463365 -0.19293,-0.191203 -0.46853,-0.191203 -0.27561,0 -0.47026,0.192925 -0.19292,0.191203 -0.19292,0.461643 0,0.268718 0.19292,0.461643 0.19465,0.192925 0.47026,0.192925 0.2756,0 0.46853,-0.191202 0.19465,-0.192926 0.19465,-0.463366 z"
         style="font-style:normal;font-variant:normal;font-weight:normal;font-stretch:normal;font-size:3.52777767px;font-family:'Courier New';-inkscape-font-specification:'Courier New, Normal';font-variant-ligatures:normal;font-variant-caps:normal;font-variant-numeric:normal;font-feature-settings:normal;text-align:start;writing-mode:lr-tb;text-anchor:start;stroke-width:0.26458332"
         id="path4848" />
      <path
         d="m 225.10939,-86.604943 v 2.017103 h 0.19293 q 0.0534,0 0.0758,0.02067 0.0224,0.01895 0.0224,0.05168 0,0.03101 -0.0224,0.05168 -0.0224,0.02067 -0.0758,0.02067 h -0.33934 v -0.287665 q -0.25149,0.344509 -0.63907,0.344509 -0.19637,0 -0.37724,-0.103353 -0.17914,-0.105075 -0.28422,-0.298 -0.10335,-0.192926 -0.10335,-0.397909 0,-0.206706 0.10335,-0.397908 0.10508,-0.192926 0.28422,-0.298001 0.18087,-0.105075 0.37896,-0.105075 0.37897,0 0.63735,0.344509 v -0.816488 h -0.19293 q -0.0534,0 -0.0758,-0.02067 -0.0224,-0.02067 -0.0224,-0.0534 0,-0.03101 0.0224,-0.05168 0.0224,-0.02067 0.0758,-0.02067 z m -0.14641,1.419379 q 0,-0.275607 -0.18604,-0.465088 -0.18603,-0.18948 -0.44269,-0.18948 -0.25838,0 -0.44442,0.18948 -0.18603,0.189481 -0.18603,0.465088 0,0.273885 0.18603,0.465088 0.18604,0.18948 0.44442,0.18948 0.25666,0 0.44269,-0.18948 0.18604,-0.191203 0.18604,-0.465088 z"
         style="font-style:normal;font-variant:normal;font-weight:normal;font-stretch:normal;font-size:3.52777767px;font-family:'Courier New';-inkscape-font-specification:'Courier New, Normal';font-variant-ligatures:normal;font-variant-caps:normal;font-variant-numeric:normal;font-feature-settings:normal;text-align:start;writing-mode:lr-tb;text-anchor:start;stroke-width:0.26458332"
         id="path4850" />
    </g>
  </g>
</svg>
