G04 #@! TF.FileFunction,Copper,L2,Bot,Signal*
%FSLAX46Y46*%
G04 Gerber Fmt 4.6, Leading zero omitted, Abs format (unit mm)*
G04 Created by KiCad (PCBNEW 4.0.7) date Saturday 21 July 2018 16:49:46*
%MOMM*%
%LPD*%
G01*
G04 APERTURE LIST*
%ADD10C,0.100000*%
%ADD11C,4.064000*%
%ADD12C,1.600000*%
%ADD13R,1.600000X1.600000*%
%ADD14O,1.600000X1.600000*%
%ADD15R,1.700000X1.700000*%
%ADD16O,1.700000X1.700000*%
%ADD17C,1.520000*%
%ADD18R,1.520000X1.520000*%
%ADD19C,1.800000*%
%ADD20C,1.440000*%
%ADD21R,2.400000X1.600000*%
%ADD22O,2.400000X1.600000*%
%ADD23C,0.600000*%
%ADD24C,0.250000*%
G04 APERTURE END LIST*
D10*
D11*
X99060000Y-148590000D03*
X156210000Y-148590000D03*
X99060000Y-46990000D03*
D12*
X149860000Y-55880000D03*
X144860000Y-55880000D03*
X118110000Y-58420000D03*
X118110000Y-53420000D03*
X105410000Y-58420000D03*
X105410000Y-53420000D03*
X99060000Y-78740000D03*
X99060000Y-73740000D03*
X152400000Y-85090000D03*
X147400000Y-85090000D03*
X149860000Y-100330000D03*
X149860000Y-105330000D03*
X104140000Y-73660000D03*
X104140000Y-78660000D03*
X113030000Y-76200000D03*
X118030000Y-76200000D03*
D13*
X101600000Y-124460000D03*
D12*
X99100000Y-124460000D03*
X137160000Y-74930000D03*
X137160000Y-69930000D03*
X153670000Y-137160000D03*
X153670000Y-132160000D03*
X106680000Y-133350000D03*
X106680000Y-128350000D03*
D13*
X129540000Y-53340000D03*
D14*
X121920000Y-53340000D03*
D15*
X115570000Y-46990000D03*
D16*
X113030000Y-46990000D03*
D15*
X107950000Y-46990000D03*
D16*
X105410000Y-46990000D03*
D15*
X135890000Y-46990000D03*
D16*
X133350000Y-46990000D03*
D15*
X143510000Y-46990000D03*
D16*
X140970000Y-46990000D03*
D15*
X149860000Y-46990000D03*
D16*
X147320000Y-46990000D03*
D15*
X143510000Y-148590000D03*
D16*
X140970000Y-148590000D03*
D15*
X113030000Y-148590000D03*
D16*
X110490000Y-148590000D03*
D15*
X120650000Y-148590000D03*
D16*
X118110000Y-148590000D03*
D15*
X135890000Y-148590000D03*
D16*
X133350000Y-148590000D03*
D15*
X128270000Y-148590000D03*
D16*
X125730000Y-148590000D03*
D17*
X115570000Y-87630000D03*
X115570000Y-85090000D03*
D18*
X115570000Y-90170000D03*
D12*
X144780000Y-73660000D03*
D14*
X152400000Y-73660000D03*
D12*
X144780000Y-62230000D03*
D14*
X152400000Y-62230000D03*
D12*
X144780000Y-77470000D03*
D14*
X152400000Y-77470000D03*
D12*
X144780000Y-66040000D03*
D14*
X152400000Y-66040000D03*
D12*
X144780000Y-69850000D03*
D14*
X152400000Y-69850000D03*
D12*
X144780000Y-81280000D03*
D14*
X152400000Y-81280000D03*
D12*
X110490000Y-59690000D03*
D14*
X110490000Y-52070000D03*
D12*
X99060000Y-88900000D03*
D14*
X99060000Y-81280000D03*
D12*
X153670000Y-99060000D03*
D14*
X153670000Y-106680000D03*
D12*
X144780000Y-91440000D03*
D14*
X152400000Y-91440000D03*
D12*
X152400000Y-95250000D03*
D14*
X144780000Y-95250000D03*
D12*
X102870000Y-88900000D03*
D14*
X102870000Y-81280000D03*
D12*
X110490000Y-62230000D03*
D14*
X118110000Y-62230000D03*
D12*
X129540000Y-57150000D03*
D14*
X121920000Y-57150000D03*
D12*
X139700000Y-57150000D03*
D14*
X132080000Y-57150000D03*
D12*
X147320000Y-114300000D03*
D14*
X154940000Y-114300000D03*
D12*
X147320000Y-110490000D03*
D14*
X154940000Y-110490000D03*
D12*
X147320000Y-118110000D03*
D14*
X154940000Y-118110000D03*
D12*
X118110000Y-67310000D03*
D14*
X110490000Y-67310000D03*
D12*
X118110000Y-72390000D03*
D14*
X110490000Y-72390000D03*
D12*
X143510000Y-116840000D03*
D14*
X143510000Y-109220000D03*
D12*
X138430000Y-66040000D03*
D14*
X130810000Y-66040000D03*
D12*
X132080000Y-115570000D03*
D14*
X139700000Y-115570000D03*
D12*
X125730000Y-110490000D03*
D14*
X125730000Y-102870000D03*
D12*
X137160000Y-85090000D03*
D14*
X137160000Y-77470000D03*
D12*
X110490000Y-81280000D03*
D14*
X118110000Y-81280000D03*
D12*
X107950000Y-82550000D03*
D14*
X107950000Y-74930000D03*
D12*
X110490000Y-130810000D03*
D14*
X118110000Y-130810000D03*
D12*
X110490000Y-127000000D03*
D14*
X118110000Y-127000000D03*
D12*
X110490000Y-135890000D03*
D14*
X118110000Y-135890000D03*
D12*
X144780000Y-139700000D03*
D14*
X137160000Y-139700000D03*
D12*
X144780000Y-130810000D03*
D14*
X137160000Y-130810000D03*
D12*
X110490000Y-123190000D03*
D14*
X118110000Y-123190000D03*
D12*
X110490000Y-139700000D03*
D14*
X118110000Y-139700000D03*
D12*
X144780000Y-135890000D03*
D14*
X137160000Y-135890000D03*
D12*
X144780000Y-127000000D03*
D14*
X137160000Y-127000000D03*
D12*
X110490000Y-119380000D03*
D14*
X118110000Y-119380000D03*
D12*
X110490000Y-143510000D03*
D14*
X118110000Y-143510000D03*
D12*
X144780000Y-143510000D03*
D14*
X137160000Y-143510000D03*
D12*
X144780000Y-123190000D03*
D14*
X137160000Y-123190000D03*
D12*
X106680000Y-125730000D03*
D14*
X106680000Y-118110000D03*
D12*
X106680000Y-135890000D03*
D14*
X106680000Y-143510000D03*
D19*
X160020000Y-50880000D03*
X160020000Y-53380000D03*
X160020000Y-55880000D03*
X160020000Y-68660000D03*
X160020000Y-71160000D03*
X160020000Y-73660000D03*
X160020000Y-86440000D03*
X160020000Y-88940000D03*
X160020000Y-91440000D03*
X160020000Y-104220000D03*
X160020000Y-106720000D03*
X160020000Y-109220000D03*
X160020000Y-122000000D03*
X160020000Y-124500000D03*
X160020000Y-127000000D03*
D20*
X105410000Y-63500000D03*
X105410000Y-66040000D03*
X105410000Y-68580000D03*
D19*
X160020000Y-139780000D03*
X160020000Y-142280000D03*
X160020000Y-144780000D03*
D20*
X121920000Y-62230000D03*
X121920000Y-64770000D03*
X121920000Y-67310000D03*
D21*
X106680000Y-96520000D03*
D22*
X116840000Y-111760000D03*
X106680000Y-99060000D03*
X116840000Y-109220000D03*
X106680000Y-101600000D03*
X116840000Y-106680000D03*
X106680000Y-104140000D03*
X116840000Y-104140000D03*
X106680000Y-106680000D03*
X116840000Y-101600000D03*
X106680000Y-109220000D03*
X116840000Y-99060000D03*
X106680000Y-111760000D03*
X116840000Y-96520000D03*
D21*
X139700000Y-110490000D03*
D22*
X129540000Y-102870000D03*
X139700000Y-107950000D03*
X129540000Y-105410000D03*
X139700000Y-105410000D03*
X129540000Y-107950000D03*
X139700000Y-102870000D03*
X129540000Y-110490000D03*
D21*
X123190000Y-71120000D03*
D22*
X133350000Y-88900000D03*
X123190000Y-73660000D03*
X133350000Y-86360000D03*
X123190000Y-76200000D03*
X133350000Y-83820000D03*
X123190000Y-78740000D03*
X133350000Y-81280000D03*
X123190000Y-81280000D03*
X133350000Y-78740000D03*
X123190000Y-83820000D03*
X133350000Y-76200000D03*
X123190000Y-86360000D03*
X133350000Y-73660000D03*
X123190000Y-88900000D03*
X133350000Y-71120000D03*
D21*
X122465001Y-127765000D03*
D22*
X132625001Y-143005000D03*
X122465001Y-130305000D03*
X132625001Y-140465000D03*
X122465001Y-132845000D03*
X132625001Y-137925000D03*
X122465001Y-135385000D03*
X132625001Y-135385000D03*
X122465001Y-137925000D03*
X132625001Y-132845000D03*
X122465001Y-140465000D03*
X132625001Y-130305000D03*
X122465001Y-143005000D03*
X132625001Y-127765000D03*
D12*
X139700000Y-96520000D03*
D14*
X124700000Y-96520000D03*
D12*
X123190000Y-115570000D03*
X128190000Y-115570000D03*
X146050000Y-100330000D03*
X146050000Y-105330000D03*
D13*
X99060000Y-116840000D03*
D12*
X101560000Y-116840000D03*
D13*
X139700000Y-53340000D03*
D14*
X132080000Y-53340000D03*
D12*
X148590000Y-137160000D03*
D14*
X148590000Y-144780000D03*
D12*
X148590000Y-130810000D03*
D14*
X148590000Y-123190000D03*
D15*
X128270000Y-46990000D03*
D16*
X125730000Y-46990000D03*
X123190000Y-46990000D03*
X120650000Y-46990000D03*
D11*
X156210000Y-46990000D03*
D15*
X113030000Y-115570000D03*
D16*
X115570000Y-115570000D03*
X118110000Y-115570000D03*
D15*
X99060000Y-53340000D03*
D16*
X99060000Y-55880000D03*
X99060000Y-58420000D03*
X99060000Y-60960000D03*
X99060000Y-63500000D03*
X99060000Y-66040000D03*
D15*
X101600000Y-143510000D03*
D16*
X99060000Y-143510000D03*
X101600000Y-140970000D03*
X99060000Y-140970000D03*
X101600000Y-138430000D03*
X99060000Y-138430000D03*
X101600000Y-135890000D03*
X99060000Y-135890000D03*
X101600000Y-133350000D03*
X99060000Y-133350000D03*
D23*
X130810000Y-93980000D03*
X102870000Y-85090000D03*
X125730000Y-133350000D03*
X125730000Y-130810000D03*
X127000000Y-82550000D03*
X104140000Y-110490000D03*
X129540000Y-132080000D03*
D24*
X105410000Y-58420000D02*
X105410000Y-57150000D01*
X105410000Y-57150000D02*
X110490000Y-52070000D01*
X99060000Y-53340000D02*
X105330000Y-53340000D01*
X105330000Y-53340000D02*
X105410000Y-53420000D01*
X116840000Y-106680000D02*
X110490000Y-106680000D01*
X107950000Y-104140000D02*
X106680000Y-104140000D01*
X110490000Y-106680000D02*
X107950000Y-104140000D01*
X106680000Y-109220000D02*
X113030000Y-109220000D01*
X115570000Y-106680000D02*
X116840000Y-106680000D01*
X113030000Y-109220000D02*
X115570000Y-106680000D01*
X106680000Y-111760000D02*
X116840000Y-111760000D01*
X139700000Y-96520000D02*
X139700000Y-87630000D01*
X139700000Y-87630000D02*
X137160000Y-85090000D01*
X133350000Y-81280000D02*
X137160000Y-85090000D01*
X121920000Y-62230000D02*
X124460000Y-62230000D01*
X128270000Y-60960000D02*
X132080000Y-57150000D01*
X125730000Y-60960000D02*
X128270000Y-60960000D01*
X124460000Y-62230000D02*
X125730000Y-60960000D01*
X104140000Y-73660000D02*
X106680000Y-73660000D01*
X106680000Y-73660000D02*
X107950000Y-74930000D01*
X96520000Y-78740000D02*
X96520000Y-45720000D01*
X105410000Y-45720000D02*
X105410000Y-46990000D01*
X104140000Y-44450000D02*
X105410000Y-45720000D01*
X97790000Y-44450000D02*
X104140000Y-44450000D01*
X96520000Y-45720000D02*
X97790000Y-44450000D01*
X99060000Y-116840000D02*
X97790000Y-116840000D01*
X97790000Y-116840000D02*
X96520000Y-115570000D01*
X109220000Y-76200000D02*
X113030000Y-76200000D01*
X106680000Y-73660000D02*
X109220000Y-76200000D01*
X96520000Y-115570000D02*
X96520000Y-78740000D01*
X113030000Y-46990000D02*
X113030000Y-45720000D01*
X133350000Y-46990000D02*
X133350000Y-45720000D01*
X105410000Y-46990000D02*
X107950000Y-44450000D01*
X111760000Y-44450000D02*
X113030000Y-45720000D01*
X107950000Y-44450000D02*
X111760000Y-44450000D01*
X113030000Y-45720000D02*
X114300000Y-44450000D01*
X114300000Y-44450000D02*
X130810000Y-44450000D01*
X130810000Y-44450000D02*
X132080000Y-44450000D01*
X132080000Y-44450000D02*
X133350000Y-45720000D01*
X133350000Y-46990000D02*
X133350000Y-45720000D01*
X133350000Y-45720000D02*
X134620000Y-44450000D01*
X134620000Y-44450000D02*
X139700000Y-44450000D01*
X139700000Y-44450000D02*
X140970000Y-45720000D01*
X140970000Y-45720000D02*
X140970000Y-46990000D01*
X140970000Y-46990000D02*
X140970000Y-45720000D01*
X140970000Y-45720000D02*
X142240000Y-44450000D01*
X142240000Y-44450000D02*
X146050000Y-44450000D01*
X146050000Y-44450000D02*
X147320000Y-45720000D01*
X147320000Y-45720000D02*
X147320000Y-46990000D01*
X147400000Y-85090000D02*
X149860000Y-85090000D01*
X149860000Y-85090000D02*
X152400000Y-87630000D01*
X152400000Y-87630000D02*
X158830000Y-87630000D01*
X158830000Y-87630000D02*
X160020000Y-86440000D01*
X160020000Y-122000000D02*
X154860000Y-122000000D01*
X148590000Y-128270000D02*
X148590000Y-130810000D01*
X154860000Y-122000000D02*
X148590000Y-128270000D01*
X148590000Y-130810000D02*
X149860000Y-132080000D01*
X149860000Y-132080000D02*
X149940000Y-132160000D01*
X149940000Y-132160000D02*
X153670000Y-132160000D01*
X160020000Y-104220000D02*
X151210000Y-104220000D01*
X151210000Y-104220000D02*
X150100000Y-105330000D01*
X150100000Y-105330000D02*
X150100000Y-104380000D01*
X150100000Y-104380000D02*
X146050000Y-100330000D01*
X160020000Y-122000000D02*
X161210000Y-122000000D01*
X161290000Y-104140000D02*
X160100000Y-104140000D01*
X162560000Y-105410000D02*
X161290000Y-104140000D01*
X162560000Y-120650000D02*
X162560000Y-105410000D01*
X161210000Y-122000000D02*
X162560000Y-120650000D01*
X160100000Y-104140000D02*
X160020000Y-104220000D01*
X160020000Y-139780000D02*
X161370000Y-139780000D01*
X161370000Y-139780000D02*
X162560000Y-138590000D01*
X161290000Y-121920000D02*
X160100000Y-121920000D01*
X162560000Y-123190000D02*
X161290000Y-121920000D01*
X162560000Y-138590000D02*
X162560000Y-123190000D01*
X160100000Y-121920000D02*
X160020000Y-122000000D01*
X140970000Y-148590000D02*
X140970000Y-149860000D01*
X140970000Y-149860000D02*
X142240000Y-151130000D01*
X162560000Y-140970000D02*
X161370000Y-139780000D01*
X162560000Y-148590000D02*
X162560000Y-140970000D01*
X160020000Y-151130000D02*
X162560000Y-148590000D01*
X142240000Y-151130000D02*
X160020000Y-151130000D01*
X134620000Y-151130000D02*
X133350000Y-149860000D01*
X139700000Y-151130000D02*
X134620000Y-151130000D01*
X140970000Y-149860000D02*
X139700000Y-151130000D01*
X133350000Y-149860000D02*
X133350000Y-148590000D01*
X133350000Y-148590000D02*
X133350000Y-149860000D01*
X133350000Y-149860000D02*
X132080000Y-151130000D01*
X132080000Y-151130000D02*
X127000000Y-151130000D01*
X127000000Y-151130000D02*
X125730000Y-149860000D01*
X125730000Y-149860000D02*
X125730000Y-148590000D01*
X125730000Y-148590000D02*
X125730000Y-149860000D01*
X125730000Y-149860000D02*
X124460000Y-151130000D01*
X124460000Y-151130000D02*
X119380000Y-151130000D01*
X119380000Y-151130000D02*
X118110000Y-149860000D01*
X118110000Y-149860000D02*
X118110000Y-148590000D01*
X118110000Y-148590000D02*
X118110000Y-149860000D01*
X118110000Y-149860000D02*
X116840000Y-151130000D01*
X116840000Y-151130000D02*
X111760000Y-151130000D01*
X111760000Y-151130000D02*
X110490000Y-149860000D01*
X110490000Y-149860000D02*
X110490000Y-148590000D01*
X110490000Y-148590000D02*
X110490000Y-149860000D01*
X110490000Y-149860000D02*
X109220000Y-151130000D01*
X109220000Y-151130000D02*
X99060000Y-151130000D01*
X99060000Y-151130000D02*
X97790000Y-151130000D01*
X97790000Y-151130000D02*
X96520000Y-149860000D01*
X96520000Y-149860000D02*
X96520000Y-142240000D01*
X96520000Y-142240000D02*
X97790000Y-140970000D01*
X97790000Y-140970000D02*
X99060000Y-140970000D01*
X134620000Y-102870000D02*
X137160000Y-100330000D01*
X137160000Y-99060000D02*
X139700000Y-96520000D01*
X137160000Y-100330000D02*
X137160000Y-99060000D01*
X129540000Y-102870000D02*
X134620000Y-102870000D01*
X137160000Y-105410000D02*
X139700000Y-105410000D01*
X134620000Y-102870000D02*
X137160000Y-105410000D01*
X116840000Y-106680000D02*
X121920000Y-109220000D01*
X121920000Y-109220000D02*
X128270000Y-102870000D01*
X128270000Y-102870000D02*
X129540000Y-102870000D01*
X96520000Y-129540000D02*
X101600000Y-129540000D01*
X105410000Y-127000000D02*
X106680000Y-125730000D01*
X104140000Y-127000000D02*
X105410000Y-127000000D01*
X101600000Y-129540000D02*
X104140000Y-127000000D01*
X116840000Y-111760000D02*
X121920000Y-114300000D01*
X121920000Y-114300000D02*
X123190000Y-115570000D01*
X106680000Y-111760000D02*
X106680000Y-109220000D01*
X96520000Y-125730000D02*
X96520000Y-118110000D01*
X96520000Y-118110000D02*
X97790000Y-116840000D01*
X99060000Y-135890000D02*
X96520000Y-133350000D01*
X97790000Y-124460000D02*
X99100000Y-124460000D01*
X96520000Y-125730000D02*
X97790000Y-124460000D01*
X96520000Y-133350000D02*
X96520000Y-129540000D01*
X96520000Y-129540000D02*
X96520000Y-125730000D01*
X101600000Y-135890000D02*
X106680000Y-135890000D01*
X106680000Y-135890000D02*
X106680000Y-133350000D01*
X99060000Y-138430000D02*
X99060000Y-135890000D01*
X99060000Y-135890000D02*
X101600000Y-135890000D01*
X99060000Y-140970000D02*
X99060000Y-138430000D01*
X99060000Y-138430000D02*
X101600000Y-138430000D01*
X99060000Y-140970000D02*
X101600000Y-140970000D01*
X101600000Y-140970000D02*
X101600000Y-138430000D01*
X101600000Y-138430000D02*
X101600000Y-135890000D01*
X123190000Y-76200000D02*
X118030000Y-76200000D01*
X118030000Y-76200000D02*
X114220000Y-72390000D01*
X114220000Y-72390000D02*
X110490000Y-72390000D01*
X105410000Y-63500000D02*
X109220000Y-63500000D01*
X109220000Y-63500000D02*
X110490000Y-62230000D01*
X110490000Y-62230000D02*
X114300000Y-62230000D01*
X127000000Y-59690000D02*
X129540000Y-57150000D01*
X116840000Y-59690000D02*
X127000000Y-59690000D01*
X114300000Y-62230000D02*
X116840000Y-59690000D01*
X116840000Y-96520000D02*
X119380000Y-96520000D01*
X121920000Y-93980000D02*
X130810000Y-93980000D01*
X119380000Y-96520000D02*
X121920000Y-93980000D01*
X144780000Y-91440000D02*
X142240000Y-93980000D01*
X133350000Y-110490000D02*
X129540000Y-110490000D01*
X135890000Y-113030000D02*
X133350000Y-110490000D01*
X140970000Y-113030000D02*
X135890000Y-113030000D01*
X142240000Y-111760000D02*
X140970000Y-113030000D01*
X142240000Y-93980000D02*
X142240000Y-111760000D01*
X110490000Y-135890000D02*
X113030000Y-135890000D01*
X120430001Y-133350000D02*
X122465001Y-135385000D01*
X115570000Y-133350000D02*
X120430001Y-133350000D01*
X113030000Y-135890000D02*
X115570000Y-133350000D01*
X137160000Y-69930000D02*
X141050000Y-69930000D01*
X151130000Y-72390000D02*
X152400000Y-73660000D01*
X143510000Y-72390000D02*
X151130000Y-72390000D01*
X141050000Y-69930000D02*
X143510000Y-72390000D01*
X144780000Y-139700000D02*
X154940000Y-139700000D01*
X157480000Y-129540000D02*
X160020000Y-127000000D01*
X157480000Y-137160000D02*
X157480000Y-129540000D01*
X154940000Y-139700000D02*
X157480000Y-137160000D01*
X122465001Y-135385000D02*
X126495000Y-135385000D01*
X126495000Y-135385000D02*
X129540000Y-138430000D01*
X129540000Y-138430000D02*
X129540000Y-144780000D01*
X129540000Y-144780000D02*
X130810000Y-146050000D01*
X130810000Y-146050000D02*
X138430000Y-146050000D01*
X138430000Y-146050000D02*
X144780000Y-139700000D01*
X152400000Y-73660000D02*
X160020000Y-73660000D01*
X115570000Y-85090000D02*
X102870000Y-85090000D01*
X132625001Y-135385000D02*
X133855000Y-135385000D01*
X151130000Y-134620000D02*
X153670000Y-137160000D01*
X134620000Y-134620000D02*
X151130000Y-134620000D01*
X133855000Y-135385000D02*
X134620000Y-134620000D01*
X128270000Y-46990000D02*
X127000000Y-45720000D01*
X119380000Y-50800000D02*
X121920000Y-53340000D01*
X119380000Y-49530000D02*
X119380000Y-50800000D01*
X118110000Y-48260000D02*
X119380000Y-49530000D01*
X118110000Y-46990000D02*
X118110000Y-48260000D01*
X119380000Y-45720000D02*
X118110000Y-46990000D01*
X127000000Y-45720000D02*
X119380000Y-45720000D01*
X121920000Y-53340000D02*
X121920000Y-57150000D01*
X143510000Y-148590000D02*
X152400000Y-148590000D01*
X156210000Y-144780000D02*
X160020000Y-144780000D01*
X152400000Y-148590000D02*
X156210000Y-144780000D01*
X110490000Y-119380000D02*
X109220000Y-120650000D01*
X113030000Y-147320000D02*
X113030000Y-148590000D01*
X111760000Y-146050000D02*
X113030000Y-147320000D01*
X109220000Y-146050000D02*
X111760000Y-146050000D01*
X107950000Y-144780000D02*
X109220000Y-146050000D01*
X107950000Y-121920000D02*
X107950000Y-144780000D01*
X109220000Y-120650000D02*
X107950000Y-121920000D01*
X120650000Y-148590000D02*
X120650000Y-147320000D01*
X113030000Y-146050000D02*
X110490000Y-143510000D01*
X119380000Y-146050000D02*
X113030000Y-146050000D01*
X120650000Y-147320000D02*
X119380000Y-146050000D01*
X148590000Y-144780000D02*
X147320000Y-143510000D01*
X147320000Y-143510000D02*
X144780000Y-143510000D01*
X135890000Y-148590000D02*
X137160000Y-148590000D01*
X142240000Y-143510000D02*
X147320000Y-143510000D01*
X137160000Y-148590000D02*
X142240000Y-143510000D01*
X102870000Y-88900000D02*
X114300000Y-88900000D01*
X114300000Y-88900000D02*
X115570000Y-87630000D01*
X115570000Y-90170000D02*
X116840000Y-90170000D01*
X130810000Y-86360000D02*
X133350000Y-86360000D01*
X125730000Y-91440000D02*
X130810000Y-86360000D01*
X118110000Y-91440000D02*
X125730000Y-91440000D01*
X116840000Y-90170000D02*
X118110000Y-91440000D01*
X152400000Y-66040000D02*
X156210000Y-62230000D01*
X158710000Y-53380000D02*
X160020000Y-53380000D01*
X156210000Y-55880000D02*
X158710000Y-53380000D01*
X156210000Y-62230000D02*
X156210000Y-55880000D01*
X160020000Y-71160000D02*
X153710000Y-71160000D01*
X153710000Y-71160000D02*
X152400000Y-69850000D01*
X99060000Y-60960000D02*
X107950000Y-60960000D01*
X109220000Y-59690000D02*
X110490000Y-59690000D01*
X107950000Y-60960000D02*
X109220000Y-59690000D01*
X133350000Y-78740000D02*
X134620000Y-78740000D01*
X148590000Y-87630000D02*
X152400000Y-91440000D01*
X143510000Y-87630000D02*
X148590000Y-87630000D01*
X134620000Y-78740000D02*
X143510000Y-87630000D01*
X118110000Y-67310000D02*
X118110000Y-68580000D01*
X120650000Y-71120000D02*
X123190000Y-71120000D01*
X118110000Y-68580000D02*
X120650000Y-71120000D01*
X122465001Y-130305000D02*
X118615000Y-130305000D01*
X118615000Y-130305000D02*
X118110000Y-130810000D01*
X118110000Y-130810000D02*
X118110000Y-127000000D01*
X118110000Y-127000000D02*
X118110000Y-123190000D01*
X122465001Y-140465000D02*
X118875000Y-140465000D01*
X118875000Y-140465000D02*
X118110000Y-139700000D01*
X118110000Y-119380000D02*
X118110000Y-120650000D01*
X122465001Y-125005001D02*
X122465001Y-127765000D01*
X118110000Y-120650000D02*
X122465001Y-125005001D01*
X110490000Y-123190000D02*
X114300000Y-123190000D01*
X114300000Y-123190000D02*
X118110000Y-119380000D01*
X122465001Y-143005000D02*
X118615000Y-143005000D01*
X118615000Y-143005000D02*
X118110000Y-143510000D01*
X118110000Y-143510000D02*
X114300000Y-143510000D01*
X114300000Y-143510000D02*
X110490000Y-139700000D01*
X99060000Y-63500000D02*
X101600000Y-66040000D01*
X129540000Y-88900000D02*
X133350000Y-88900000D01*
X125730000Y-92710000D02*
X129540000Y-88900000D01*
X104140000Y-92710000D02*
X125730000Y-92710000D01*
X101600000Y-90170000D02*
X104140000Y-92710000D01*
X101600000Y-66040000D02*
X101600000Y-90170000D01*
X116840000Y-104140000D02*
X111760000Y-104140000D01*
X111760000Y-104140000D02*
X106680000Y-99060000D01*
X106680000Y-99060000D02*
X104140000Y-99060000D01*
X104140000Y-106680000D02*
X106680000Y-106680000D01*
X102870000Y-105410000D02*
X104140000Y-106680000D01*
X102870000Y-100330000D02*
X102870000Y-105410000D01*
X104140000Y-99060000D02*
X102870000Y-100330000D01*
X125730000Y-130810000D02*
X125730000Y-133350000D01*
X124700000Y-96520000D02*
X130810000Y-96520000D01*
X135890000Y-86360000D02*
X133350000Y-83820000D01*
X135890000Y-91440000D02*
X135890000Y-86360000D01*
X130810000Y-96520000D02*
X135890000Y-91440000D01*
X120650000Y-46990000D02*
X120650000Y-48260000D01*
X135890000Y-49530000D02*
X139700000Y-53340000D01*
X121920000Y-49530000D02*
X135890000Y-49530000D01*
X120650000Y-48260000D02*
X121920000Y-49530000D01*
X138430000Y-66040000D02*
X144780000Y-66040000D01*
X144780000Y-73660000D02*
X133350000Y-73660000D01*
X160020000Y-88940000D02*
X160020000Y-88900000D01*
X160020000Y-88900000D02*
X161290000Y-87630000D01*
X161290000Y-87630000D02*
X161290000Y-85090000D01*
X161290000Y-85090000D02*
X153670000Y-77470000D01*
X153670000Y-77470000D02*
X152400000Y-77470000D01*
X153670000Y-106680000D02*
X159980000Y-106680000D01*
X159980000Y-106680000D02*
X160020000Y-106720000D01*
X110490000Y-67310000D02*
X106680000Y-67310000D01*
X106680000Y-67310000D02*
X105410000Y-66040000D01*
X105410000Y-66040000D02*
X106680000Y-67310000D01*
X106680000Y-67310000D02*
X105410000Y-68580000D01*
X123190000Y-73660000D02*
X119380000Y-73660000D01*
X119380000Y-73660000D02*
X118110000Y-72390000D01*
X121920000Y-64770000D02*
X129540000Y-64770000D01*
X129540000Y-64770000D02*
X130810000Y-66040000D01*
X125730000Y-81280000D02*
X123190000Y-81280000D01*
X127000000Y-82550000D02*
X125730000Y-81280000D01*
X129540000Y-107950000D02*
X127000000Y-107950000D01*
X127000000Y-107950000D02*
X125730000Y-110490000D01*
X118110000Y-81280000D02*
X123190000Y-81280000D01*
X133350000Y-76200000D02*
X135890000Y-76200000D01*
X135890000Y-76200000D02*
X137160000Y-77470000D01*
X130810000Y-136109999D02*
X132625001Y-137925000D01*
X130810000Y-127000000D02*
X130810000Y-136109999D01*
X120650000Y-116840000D02*
X130810000Y-127000000D01*
X120650000Y-115570000D02*
X120650000Y-116840000D01*
X119380000Y-114300000D02*
X120650000Y-115570000D01*
X105410000Y-114300000D02*
X119380000Y-114300000D01*
X104140000Y-113030000D02*
X105410000Y-114300000D01*
X104140000Y-110490000D02*
X104140000Y-113030000D01*
X107950000Y-82550000D02*
X110490000Y-82550000D01*
X110490000Y-82550000D02*
X110490000Y-81280000D01*
X121920000Y-80010000D02*
X123190000Y-78740000D01*
X113030000Y-80010000D02*
X121920000Y-80010000D01*
X110490000Y-82550000D02*
X113030000Y-80010000D01*
X137160000Y-139700000D02*
X137160000Y-135890000D01*
X132625001Y-140465000D02*
X136395000Y-140465000D01*
X136395000Y-140465000D02*
X137160000Y-139700000D01*
X137160000Y-130810000D02*
X137160000Y-127000000D01*
X132625001Y-130305000D02*
X136655000Y-130305000D01*
X136655000Y-130305000D02*
X137160000Y-130810000D01*
X137160000Y-143510000D02*
X144780000Y-135890000D01*
X132625001Y-143005000D02*
X136655000Y-143005000D01*
X136655000Y-143005000D02*
X137160000Y-143510000D01*
X132625001Y-127765000D02*
X132625001Y-127724999D01*
X132625001Y-127724999D02*
X137160000Y-123190000D01*
X144780000Y-127000000D02*
X140970000Y-127000000D01*
X140970000Y-127000000D02*
X137160000Y-123190000D01*
X118110000Y-118110000D02*
X115570000Y-115570000D01*
X120650000Y-118110000D02*
X118110000Y-118110000D01*
X125730000Y-123190000D02*
X120650000Y-118110000D01*
X125730000Y-128270000D02*
X125730000Y-123190000D01*
X129540000Y-132080000D02*
X125730000Y-128270000D01*
X106680000Y-96520000D02*
X102870000Y-96520000D01*
X104140000Y-115570000D02*
X113030000Y-115570000D01*
X100330000Y-111760000D02*
X104140000Y-115570000D01*
X100330000Y-99060000D02*
X100330000Y-111760000D01*
X102870000Y-96520000D02*
X100330000Y-99060000D01*
M02*
