G04 #@! TF.FileFunction,Copper,L1,Top,Signal*
%FSLAX46Y46*%
G04 Gerber Fmt 4.6, Leading zero omitted, Abs format (unit mm)*
G04 Created by KiCad (PCBNEW 4.0.7) date Saturday 21 July 2018 16:49:46*
%MOMM*%
%LPD*%
G01*
G04 APERTURE LIST*
%ADD10C,0.100000*%
%ADD11C,0.300000*%
%ADD12C,4.064000*%
%ADD13C,1.600000*%
%ADD14R,1.600000X1.600000*%
%ADD15O,1.600000X1.600000*%
%ADD16R,1.700000X1.700000*%
%ADD17O,1.700000X1.700000*%
%ADD18C,1.520000*%
%ADD19R,1.520000X1.520000*%
%ADD20C,1.800000*%
%ADD21C,1.440000*%
%ADD22R,2.400000X1.600000*%
%ADD23O,2.400000X1.600000*%
%ADD24C,0.600000*%
%ADD25C,0.250000*%
G04 APERTURE END LIST*
D10*
D11*
X270152857Y-193290000D02*
X270867143Y-193290000D01*
X270010000Y-193718571D02*
X270510000Y-192218571D01*
X271010000Y-193718571D01*
X209955716Y-192218571D02*
X209955716Y-193290000D01*
X209884288Y-193504286D01*
X209741431Y-193647143D01*
X209527145Y-193718571D01*
X209384288Y-193718571D01*
X211312859Y-192718571D02*
X211312859Y-193718571D01*
X210670002Y-192718571D02*
X210670002Y-193504286D01*
X210741430Y-193647143D01*
X210884288Y-193718571D01*
X211098573Y-193718571D01*
X211241430Y-193647143D01*
X211312859Y-193575714D01*
X212241431Y-193718571D02*
X212098573Y-193647143D01*
X212027145Y-193504286D01*
X212027145Y-192218571D01*
X212670002Y-192718571D02*
X213027145Y-193718571D01*
X213384287Y-192718571D02*
X213027145Y-193718571D01*
X212884287Y-194075714D01*
X212812859Y-194147143D01*
X212670002Y-194218571D01*
X215027144Y-192361429D02*
X215098573Y-192290000D01*
X215241430Y-192218571D01*
X215598573Y-192218571D01*
X215741430Y-192290000D01*
X215812859Y-192361429D01*
X215884287Y-192504286D01*
X215884287Y-192647143D01*
X215812859Y-192861429D01*
X214955716Y-193718571D01*
X215884287Y-193718571D01*
X216812858Y-192218571D02*
X216955715Y-192218571D01*
X217098572Y-192290000D01*
X217170001Y-192361429D01*
X217241430Y-192504286D01*
X217312858Y-192790000D01*
X217312858Y-193147143D01*
X217241430Y-193432857D01*
X217170001Y-193575714D01*
X217098572Y-193647143D01*
X216955715Y-193718571D01*
X216812858Y-193718571D01*
X216670001Y-193647143D01*
X216598572Y-193575714D01*
X216527144Y-193432857D01*
X216455715Y-193147143D01*
X216455715Y-192790000D01*
X216527144Y-192504286D01*
X216598572Y-192361429D01*
X216670001Y-192290000D01*
X216812858Y-192218571D01*
X218027143Y-193647143D02*
X218027143Y-193718571D01*
X217955715Y-193861429D01*
X217884286Y-193932857D01*
X219741429Y-192361429D02*
X219812858Y-192290000D01*
X219955715Y-192218571D01*
X220312858Y-192218571D01*
X220455715Y-192290000D01*
X220527144Y-192361429D01*
X220598572Y-192504286D01*
X220598572Y-192647143D01*
X220527144Y-192861429D01*
X219670001Y-193718571D01*
X220598572Y-193718571D01*
X221527143Y-192218571D02*
X221670000Y-192218571D01*
X221812857Y-192290000D01*
X221884286Y-192361429D01*
X221955715Y-192504286D01*
X222027143Y-192790000D01*
X222027143Y-193147143D01*
X221955715Y-193432857D01*
X221884286Y-193575714D01*
X221812857Y-193647143D01*
X221670000Y-193718571D01*
X221527143Y-193718571D01*
X221384286Y-193647143D01*
X221312857Y-193575714D01*
X221241429Y-193432857D01*
X221170000Y-193147143D01*
X221170000Y-192790000D01*
X221241429Y-192504286D01*
X221312857Y-192361429D01*
X221384286Y-192290000D01*
X221527143Y-192218571D01*
X223455714Y-193718571D02*
X222598571Y-193718571D01*
X223027143Y-193718571D02*
X223027143Y-192218571D01*
X222884286Y-192432857D01*
X222741428Y-192575714D01*
X222598571Y-192647143D01*
X224312857Y-192861429D02*
X224169999Y-192790000D01*
X224098571Y-192718571D01*
X224027142Y-192575714D01*
X224027142Y-192504286D01*
X224098571Y-192361429D01*
X224169999Y-192290000D01*
X224312857Y-192218571D01*
X224598571Y-192218571D01*
X224741428Y-192290000D01*
X224812857Y-192361429D01*
X224884285Y-192504286D01*
X224884285Y-192575714D01*
X224812857Y-192718571D01*
X224741428Y-192790000D01*
X224598571Y-192861429D01*
X224312857Y-192861429D01*
X224169999Y-192932857D01*
X224098571Y-193004286D01*
X224027142Y-193147143D01*
X224027142Y-193432857D01*
X224098571Y-193575714D01*
X224169999Y-193647143D01*
X224312857Y-193718571D01*
X224598571Y-193718571D01*
X224741428Y-193647143D01*
X224812857Y-193575714D01*
X224884285Y-193432857D01*
X224884285Y-193147143D01*
X224812857Y-193004286D01*
X224741428Y-192932857D01*
X224598571Y-192861429D01*
X188778573Y-189908571D02*
X188778573Y-188408571D01*
X189350001Y-188408571D01*
X189492859Y-188480000D01*
X189564287Y-188551429D01*
X189635716Y-188694286D01*
X189635716Y-188908571D01*
X189564287Y-189051429D01*
X189492859Y-189122857D01*
X189350001Y-189194286D01*
X188778573Y-189194286D01*
X190278573Y-189908571D02*
X190278573Y-188908571D01*
X190278573Y-189194286D02*
X190350001Y-189051429D01*
X190421430Y-188980000D01*
X190564287Y-188908571D01*
X190707144Y-188908571D01*
X191421430Y-189908571D02*
X191278572Y-189837143D01*
X191207144Y-189765714D01*
X191135715Y-189622857D01*
X191135715Y-189194286D01*
X191207144Y-189051429D01*
X191278572Y-188980000D01*
X191421430Y-188908571D01*
X191635715Y-188908571D01*
X191778572Y-188980000D01*
X191850001Y-189051429D01*
X191921430Y-189194286D01*
X191921430Y-189622857D01*
X191850001Y-189765714D01*
X191778572Y-189837143D01*
X191635715Y-189908571D01*
X191421430Y-189908571D01*
X192564287Y-189337143D02*
X193707144Y-189337143D01*
X194278573Y-188408571D02*
X195207144Y-188408571D01*
X194707144Y-188980000D01*
X194921430Y-188980000D01*
X195064287Y-189051429D01*
X195135716Y-189122857D01*
X195207144Y-189265714D01*
X195207144Y-189622857D01*
X195135716Y-189765714D01*
X195064287Y-189837143D01*
X194921430Y-189908571D01*
X194492858Y-189908571D01*
X194350001Y-189837143D01*
X194278573Y-189765714D01*
X195707144Y-188408571D02*
X196635715Y-188408571D01*
X196135715Y-188980000D01*
X196350001Y-188980000D01*
X196492858Y-189051429D01*
X196564287Y-189122857D01*
X196635715Y-189265714D01*
X196635715Y-189622857D01*
X196564287Y-189765714D01*
X196492858Y-189837143D01*
X196350001Y-189908571D01*
X195921429Y-189908571D01*
X195778572Y-189837143D01*
X195707144Y-189765714D01*
X197921429Y-188908571D02*
X197921429Y-189908571D01*
X197564286Y-188337143D02*
X197207143Y-189408571D01*
X198135715Y-189408571D01*
X198992857Y-188408571D02*
X199135714Y-188408571D01*
X199278571Y-188480000D01*
X199350000Y-188551429D01*
X199421429Y-188694286D01*
X199492857Y-188980000D01*
X199492857Y-189337143D01*
X199421429Y-189622857D01*
X199350000Y-189765714D01*
X199278571Y-189837143D01*
X199135714Y-189908571D01*
X198992857Y-189908571D01*
X198850000Y-189837143D01*
X198778571Y-189765714D01*
X198707143Y-189622857D01*
X198635714Y-189337143D01*
X198635714Y-188980000D01*
X198707143Y-188694286D01*
X198778571Y-188551429D01*
X198850000Y-188480000D01*
X198992857Y-188408571D01*
X201064285Y-188408571D02*
X201564285Y-189908571D01*
X202064285Y-188408571D01*
X203421428Y-189765714D02*
X203349999Y-189837143D01*
X203135713Y-189908571D01*
X202992856Y-189908571D01*
X202778571Y-189837143D01*
X202635713Y-189694286D01*
X202564285Y-189551429D01*
X202492856Y-189265714D01*
X202492856Y-189051429D01*
X202564285Y-188765714D01*
X202635713Y-188622857D01*
X202778571Y-188480000D01*
X202992856Y-188408571D01*
X203135713Y-188408571D01*
X203349999Y-188480000D01*
X203421428Y-188551429D01*
X204349999Y-188408571D02*
X204635713Y-188408571D01*
X204778571Y-188480000D01*
X204921428Y-188622857D01*
X204992856Y-188908571D01*
X204992856Y-189408571D01*
X204921428Y-189694286D01*
X204778571Y-189837143D01*
X204635713Y-189908571D01*
X204349999Y-189908571D01*
X204207142Y-189837143D01*
X204064285Y-189694286D01*
X203992856Y-189408571D01*
X203992856Y-188908571D01*
X204064285Y-188622857D01*
X204207142Y-188480000D01*
X204349999Y-188408571D01*
D12*
X99060000Y-148590000D03*
X156210000Y-148590000D03*
X99060000Y-46990000D03*
D13*
X149860000Y-55880000D03*
X144860000Y-55880000D03*
X118110000Y-58420000D03*
X118110000Y-53420000D03*
X105410000Y-58420000D03*
X105410000Y-53420000D03*
X99060000Y-78740000D03*
X99060000Y-73740000D03*
X152400000Y-85090000D03*
X147400000Y-85090000D03*
X149860000Y-100330000D03*
X149860000Y-105330000D03*
X104140000Y-73660000D03*
X104140000Y-78660000D03*
X113030000Y-76200000D03*
X118030000Y-76200000D03*
D14*
X101600000Y-124460000D03*
D13*
X99100000Y-124460000D03*
X137160000Y-74930000D03*
X137160000Y-69930000D03*
X153670000Y-137160000D03*
X153670000Y-132160000D03*
X106680000Y-133350000D03*
X106680000Y-128350000D03*
D14*
X129540000Y-53340000D03*
D15*
X121920000Y-53340000D03*
D16*
X115570000Y-46990000D03*
D17*
X113030000Y-46990000D03*
D16*
X107950000Y-46990000D03*
D17*
X105410000Y-46990000D03*
D16*
X135890000Y-46990000D03*
D17*
X133350000Y-46990000D03*
D16*
X143510000Y-46990000D03*
D17*
X140970000Y-46990000D03*
D16*
X149860000Y-46990000D03*
D17*
X147320000Y-46990000D03*
D16*
X143510000Y-148590000D03*
D17*
X140970000Y-148590000D03*
D16*
X113030000Y-148590000D03*
D17*
X110490000Y-148590000D03*
D16*
X120650000Y-148590000D03*
D17*
X118110000Y-148590000D03*
D16*
X135890000Y-148590000D03*
D17*
X133350000Y-148590000D03*
D16*
X128270000Y-148590000D03*
D17*
X125730000Y-148590000D03*
D18*
X115570000Y-87630000D03*
X115570000Y-85090000D03*
D19*
X115570000Y-90170000D03*
D13*
X144780000Y-73660000D03*
D15*
X152400000Y-73660000D03*
D13*
X144780000Y-62230000D03*
D15*
X152400000Y-62230000D03*
D13*
X144780000Y-77470000D03*
D15*
X152400000Y-77470000D03*
D13*
X144780000Y-66040000D03*
D15*
X152400000Y-66040000D03*
D13*
X144780000Y-69850000D03*
D15*
X152400000Y-69850000D03*
D13*
X144780000Y-81280000D03*
D15*
X152400000Y-81280000D03*
D13*
X110490000Y-59690000D03*
D15*
X110490000Y-52070000D03*
D13*
X99060000Y-88900000D03*
D15*
X99060000Y-81280000D03*
D13*
X153670000Y-99060000D03*
D15*
X153670000Y-106680000D03*
D13*
X144780000Y-91440000D03*
D15*
X152400000Y-91440000D03*
D13*
X152400000Y-95250000D03*
D15*
X144780000Y-95250000D03*
D13*
X102870000Y-88900000D03*
D15*
X102870000Y-81280000D03*
D13*
X110490000Y-62230000D03*
D15*
X118110000Y-62230000D03*
D13*
X129540000Y-57150000D03*
D15*
X121920000Y-57150000D03*
D13*
X139700000Y-57150000D03*
D15*
X132080000Y-57150000D03*
D13*
X147320000Y-114300000D03*
D15*
X154940000Y-114300000D03*
D13*
X147320000Y-110490000D03*
D15*
X154940000Y-110490000D03*
D13*
X147320000Y-118110000D03*
D15*
X154940000Y-118110000D03*
D13*
X118110000Y-67310000D03*
D15*
X110490000Y-67310000D03*
D13*
X118110000Y-72390000D03*
D15*
X110490000Y-72390000D03*
D13*
X143510000Y-116840000D03*
D15*
X143510000Y-109220000D03*
D13*
X138430000Y-66040000D03*
D15*
X130810000Y-66040000D03*
D13*
X132080000Y-115570000D03*
D15*
X139700000Y-115570000D03*
D13*
X125730000Y-110490000D03*
D15*
X125730000Y-102870000D03*
D13*
X137160000Y-85090000D03*
D15*
X137160000Y-77470000D03*
D13*
X110490000Y-81280000D03*
D15*
X118110000Y-81280000D03*
D13*
X107950000Y-82550000D03*
D15*
X107950000Y-74930000D03*
D13*
X110490000Y-130810000D03*
D15*
X118110000Y-130810000D03*
D13*
X110490000Y-127000000D03*
D15*
X118110000Y-127000000D03*
D13*
X110490000Y-135890000D03*
D15*
X118110000Y-135890000D03*
D13*
X144780000Y-139700000D03*
D15*
X137160000Y-139700000D03*
D13*
X144780000Y-130810000D03*
D15*
X137160000Y-130810000D03*
D13*
X110490000Y-123190000D03*
D15*
X118110000Y-123190000D03*
D13*
X110490000Y-139700000D03*
D15*
X118110000Y-139700000D03*
D13*
X144780000Y-135890000D03*
D15*
X137160000Y-135890000D03*
D13*
X144780000Y-127000000D03*
D15*
X137160000Y-127000000D03*
D13*
X110490000Y-119380000D03*
D15*
X118110000Y-119380000D03*
D13*
X110490000Y-143510000D03*
D15*
X118110000Y-143510000D03*
D13*
X144780000Y-143510000D03*
D15*
X137160000Y-143510000D03*
D13*
X144780000Y-123190000D03*
D15*
X137160000Y-123190000D03*
D13*
X106680000Y-125730000D03*
D15*
X106680000Y-118110000D03*
D13*
X106680000Y-135890000D03*
D15*
X106680000Y-143510000D03*
D20*
X160020000Y-50880000D03*
X160020000Y-53380000D03*
X160020000Y-55880000D03*
X160020000Y-68660000D03*
X160020000Y-71160000D03*
X160020000Y-73660000D03*
X160020000Y-86440000D03*
X160020000Y-88940000D03*
X160020000Y-91440000D03*
X160020000Y-104220000D03*
X160020000Y-106720000D03*
X160020000Y-109220000D03*
X160020000Y-122000000D03*
X160020000Y-124500000D03*
X160020000Y-127000000D03*
D21*
X105410000Y-63500000D03*
X105410000Y-66040000D03*
X105410000Y-68580000D03*
D20*
X160020000Y-139780000D03*
X160020000Y-142280000D03*
X160020000Y-144780000D03*
D21*
X121920000Y-62230000D03*
X121920000Y-64770000D03*
X121920000Y-67310000D03*
D22*
X106680000Y-96520000D03*
D23*
X116840000Y-111760000D03*
X106680000Y-99060000D03*
X116840000Y-109220000D03*
X106680000Y-101600000D03*
X116840000Y-106680000D03*
X106680000Y-104140000D03*
X116840000Y-104140000D03*
X106680000Y-106680000D03*
X116840000Y-101600000D03*
X106680000Y-109220000D03*
X116840000Y-99060000D03*
X106680000Y-111760000D03*
X116840000Y-96520000D03*
D22*
X139700000Y-110490000D03*
D23*
X129540000Y-102870000D03*
X139700000Y-107950000D03*
X129540000Y-105410000D03*
X139700000Y-105410000D03*
X129540000Y-107950000D03*
X139700000Y-102870000D03*
X129540000Y-110490000D03*
D22*
X123190000Y-71120000D03*
D23*
X133350000Y-88900000D03*
X123190000Y-73660000D03*
X133350000Y-86360000D03*
X123190000Y-76200000D03*
X133350000Y-83820000D03*
X123190000Y-78740000D03*
X133350000Y-81280000D03*
X123190000Y-81280000D03*
X133350000Y-78740000D03*
X123190000Y-83820000D03*
X133350000Y-76200000D03*
X123190000Y-86360000D03*
X133350000Y-73660000D03*
X123190000Y-88900000D03*
X133350000Y-71120000D03*
D22*
X122465001Y-127765000D03*
D23*
X132625001Y-143005000D03*
X122465001Y-130305000D03*
X132625001Y-140465000D03*
X122465001Y-132845000D03*
X132625001Y-137925000D03*
X122465001Y-135385000D03*
X132625001Y-135385000D03*
X122465001Y-137925000D03*
X132625001Y-132845000D03*
X122465001Y-140465000D03*
X132625001Y-130305000D03*
X122465001Y-143005000D03*
X132625001Y-127765000D03*
D13*
X139700000Y-96520000D03*
D15*
X124700000Y-96520000D03*
D13*
X123190000Y-115570000D03*
X128190000Y-115570000D03*
X146050000Y-100330000D03*
X146050000Y-105330000D03*
D14*
X99060000Y-116840000D03*
D13*
X101560000Y-116840000D03*
D14*
X139700000Y-53340000D03*
D15*
X132080000Y-53340000D03*
D13*
X148590000Y-137160000D03*
D15*
X148590000Y-144780000D03*
D13*
X148590000Y-130810000D03*
D15*
X148590000Y-123190000D03*
D16*
X128270000Y-46990000D03*
D17*
X125730000Y-46990000D03*
X123190000Y-46990000D03*
X120650000Y-46990000D03*
D12*
X156210000Y-46990000D03*
D16*
X113030000Y-115570000D03*
D17*
X115570000Y-115570000D03*
X118110000Y-115570000D03*
D16*
X99060000Y-53340000D03*
D17*
X99060000Y-55880000D03*
X99060000Y-58420000D03*
X99060000Y-60960000D03*
X99060000Y-63500000D03*
X99060000Y-66040000D03*
D16*
X101600000Y-143510000D03*
D17*
X99060000Y-143510000D03*
X101600000Y-140970000D03*
X99060000Y-140970000D03*
X101600000Y-138430000D03*
X99060000Y-138430000D03*
X101600000Y-135890000D03*
X99060000Y-135890000D03*
X101600000Y-133350000D03*
X99060000Y-133350000D03*
D24*
X130810000Y-93980000D03*
X102870000Y-85090000D03*
X125730000Y-133350000D03*
X125730000Y-130810000D03*
X127000000Y-82550000D03*
X104140000Y-110490000D03*
X129540000Y-132080000D03*
D25*
X120650000Y-116840000D02*
X120650000Y-116840000D01*
X149860000Y-55880000D02*
X153670000Y-55880000D01*
X158750000Y-109220000D02*
X160020000Y-109220000D01*
X157480000Y-107950000D02*
X158750000Y-109220000D01*
X157480000Y-90170000D02*
X157480000Y-107950000D01*
X156210000Y-88900000D02*
X157480000Y-90170000D01*
X156210000Y-74930000D02*
X156210000Y-88900000D01*
X154940000Y-73660000D02*
X156210000Y-74930000D01*
X154940000Y-57150000D02*
X154940000Y-73660000D01*
X153670000Y-55880000D02*
X154940000Y-57150000D01*
X135890000Y-46990000D02*
X137160000Y-46990000D01*
X144860000Y-54690000D02*
X144860000Y-55880000D01*
X137160000Y-46990000D02*
X144860000Y-54690000D01*
X118110000Y-58420000D02*
X118110000Y-55880000D01*
X120650000Y-49530000D02*
X123190000Y-46990000D01*
X120650000Y-53340000D02*
X120650000Y-49530000D01*
X118110000Y-55880000D02*
X120650000Y-53340000D01*
X115570000Y-46990000D02*
X115570000Y-50880000D01*
X115570000Y-50880000D02*
X118110000Y-53420000D01*
X99060000Y-78740000D02*
X99060000Y-81280000D01*
X99060000Y-58420000D02*
X97790000Y-58420000D01*
X97870000Y-73740000D02*
X99060000Y-73740000D01*
X96520000Y-72390000D02*
X97870000Y-73740000D01*
X96520000Y-59690000D02*
X96520000Y-72390000D01*
X97790000Y-58420000D02*
X96520000Y-59690000D01*
X152400000Y-85090000D02*
X152400000Y-81280000D01*
X99060000Y-116840000D02*
X99060000Y-115570000D01*
X102870000Y-111760000D02*
X106680000Y-111760000D01*
X99060000Y-115570000D02*
X102870000Y-111760000D01*
X106680000Y-125730000D02*
X109220000Y-125730000D01*
X109220000Y-125730000D02*
X110490000Y-127000000D01*
X137160000Y-85090000D02*
X147400000Y-85090000D01*
X132080000Y-57150000D02*
X133350000Y-57150000D01*
X133350000Y-48260000D02*
X133350000Y-46990000D01*
X134620000Y-49530000D02*
X133350000Y-48260000D01*
X134620000Y-55880000D02*
X134620000Y-49530000D01*
X133350000Y-57150000D02*
X134620000Y-55880000D01*
X137160000Y-85090000D02*
X139700000Y-82550000D01*
X139700000Y-82550000D02*
X139700000Y-76200000D01*
X139700000Y-76200000D02*
X138430000Y-74930000D01*
X138430000Y-74930000D02*
X137160000Y-74930000D01*
X113030000Y-76200000D02*
X113030000Y-64770000D01*
X120650000Y-60960000D02*
X121920000Y-62230000D01*
X116840000Y-60960000D02*
X120650000Y-60960000D01*
X113030000Y-64770000D02*
X116840000Y-60960000D01*
X148590000Y-130810000D02*
X148590000Y-137160000D01*
X149860000Y-100330000D02*
X144780000Y-95250000D01*
X99060000Y-66040000D02*
X99060000Y-71120000D01*
X102870000Y-77390000D02*
X104140000Y-78660000D01*
X102870000Y-74930000D02*
X102870000Y-77390000D01*
X99060000Y-71120000D02*
X102870000Y-74930000D01*
X104140000Y-78660000D02*
X104140000Y-80010000D01*
X104140000Y-80010000D02*
X102870000Y-81280000D01*
X110490000Y-72390000D02*
X110490000Y-71120000D01*
X111760000Y-63500000D02*
X110490000Y-62230000D01*
X111760000Y-69850000D02*
X111760000Y-63500000D01*
X110490000Y-71120000D02*
X111760000Y-69850000D01*
X133350000Y-91440000D02*
X144780000Y-91440000D01*
X130810000Y-93980000D02*
X133350000Y-91440000D01*
X144780000Y-91440000D02*
X147320000Y-91440000D01*
X144780000Y-130810000D02*
X144780000Y-132080000D01*
X144780000Y-132080000D02*
X146050000Y-133350000D01*
X146050000Y-133350000D02*
X146050000Y-138430000D01*
X146050000Y-138430000D02*
X144780000Y-139700000D01*
X160020000Y-73660000D02*
X158750000Y-73660000D01*
X158750000Y-73660000D02*
X157480000Y-72390000D01*
X157480000Y-72390000D02*
X157480000Y-58420000D01*
X157480000Y-58420000D02*
X160020000Y-55880000D01*
X137160000Y-69930000D02*
X134540000Y-69930000D01*
X134540000Y-69930000D02*
X133350000Y-71120000D01*
X149860000Y-76200000D02*
X152400000Y-73660000D01*
X147320000Y-91440000D02*
X149860000Y-88900000D01*
X149860000Y-88900000D02*
X149860000Y-76200000D01*
X128190000Y-115570000D02*
X128190000Y-115490000D01*
X128190000Y-115570000D02*
X128190000Y-111840000D01*
X128190000Y-111840000D02*
X129540000Y-110490000D01*
X122465001Y-135385000D02*
X122425000Y-135385000D01*
X122425000Y-135385000D02*
X126920000Y-130890000D01*
X126920000Y-130890000D02*
X128190000Y-115570000D01*
X101600000Y-133350000D02*
X101680000Y-133350000D01*
X101680000Y-133350000D02*
X106680000Y-128350000D01*
X106680000Y-128350000D02*
X108030000Y-128350000D01*
X108030000Y-128350000D02*
X110490000Y-130810000D01*
X110490000Y-130810000D02*
X110490000Y-135890000D01*
X99060000Y-133350000D02*
X101600000Y-133350000D01*
X101600000Y-133350000D02*
X101600000Y-124460000D01*
X102870000Y-85090000D02*
X99060000Y-85090000D01*
X96520000Y-119380000D02*
X97790000Y-120650000D01*
X96520000Y-87630000D02*
X96520000Y-119380000D01*
X99060000Y-85090000D02*
X96520000Y-87630000D01*
X161290000Y-68660000D02*
X161290000Y-68580000D01*
X161370000Y-50880000D02*
X160020000Y-50880000D01*
X162560000Y-52070000D02*
X161370000Y-50880000D01*
X162560000Y-67310000D02*
X162560000Y-52070000D01*
X161290000Y-68580000D02*
X162560000Y-67310000D01*
X154940000Y-110490000D02*
X161290000Y-110490000D01*
X161370000Y-68660000D02*
X161290000Y-68660000D01*
X161290000Y-68660000D02*
X160020000Y-68660000D01*
X162560000Y-69850000D02*
X161370000Y-68660000D01*
X162560000Y-109220000D02*
X162560000Y-69850000D01*
X161290000Y-110490000D02*
X162560000Y-109220000D01*
X115570000Y-85090000D02*
X115570000Y-64770000D01*
X115570000Y-64770000D02*
X118110000Y-62230000D01*
X99060000Y-143510000D02*
X97790000Y-142240000D01*
X97790000Y-142240000D02*
X97790000Y-120650000D01*
X101560000Y-118150000D02*
X101560000Y-116840000D01*
X97790000Y-120650000D02*
X99060000Y-119380000D01*
X99060000Y-119380000D02*
X100330000Y-119380000D01*
X100330000Y-119380000D02*
X101560000Y-118150000D01*
X146050000Y-105330000D02*
X147240000Y-105330000D01*
X152400000Y-110490000D02*
X154940000Y-110490000D01*
X147240000Y-105330000D02*
X152400000Y-110490000D01*
X139700000Y-102870000D02*
X143590000Y-102870000D01*
X143590000Y-102870000D02*
X146050000Y-105330000D01*
X132625001Y-135385000D02*
X130305000Y-135385000D01*
X137160000Y-102870000D02*
X139700000Y-102870000D01*
X135890000Y-104140000D02*
X137160000Y-102870000D01*
X135890000Y-115570000D02*
X135890000Y-104140000D01*
X128270000Y-121920000D02*
X135890000Y-115570000D01*
X128270000Y-134620000D02*
X128270000Y-121920000D01*
X130305000Y-135385000D02*
X128270000Y-134620000D01*
X101600000Y-143510000D02*
X104140000Y-146050000D01*
X131315000Y-135385000D02*
X132625001Y-135385000D01*
X129540000Y-137160000D02*
X131315000Y-135385000D01*
X129540000Y-143510000D02*
X129540000Y-137160000D01*
X127000000Y-146050000D02*
X129540000Y-143510000D01*
X104140000Y-146050000D02*
X127000000Y-146050000D01*
X99060000Y-143510000D02*
X101600000Y-143510000D01*
X99060000Y-55880000D02*
X100330000Y-55880000D01*
X105410000Y-49530000D02*
X107950000Y-46990000D01*
X102870000Y-52070000D02*
X105410000Y-49530000D01*
X102870000Y-53340000D02*
X102870000Y-52070000D01*
X100330000Y-55880000D02*
X102870000Y-53340000D01*
X143510000Y-46990000D02*
X143510000Y-50800000D01*
X149860000Y-62230000D02*
X152400000Y-62230000D01*
X147320000Y-59690000D02*
X149860000Y-62230000D01*
X147320000Y-54610000D02*
X147320000Y-59690000D01*
X143510000Y-50800000D02*
X147320000Y-54610000D01*
X149860000Y-46990000D02*
X156210000Y-53340000D01*
X157480000Y-88900000D02*
X160020000Y-91440000D01*
X157480000Y-74930000D02*
X157480000Y-88900000D01*
X156210000Y-73660000D02*
X157480000Y-74930000D01*
X156210000Y-53340000D02*
X156210000Y-73660000D01*
X106680000Y-118110000D02*
X109220000Y-118110000D01*
X109220000Y-118110000D02*
X110490000Y-119380000D01*
X106680000Y-143510000D02*
X110490000Y-143510000D01*
X144780000Y-123190000D02*
X148590000Y-123190000D01*
X148590000Y-123190000D02*
X151130000Y-125730000D01*
X151130000Y-125730000D02*
X151130000Y-146050000D01*
X151130000Y-146050000D02*
X149860000Y-147320000D01*
X149860000Y-147320000D02*
X129540000Y-147320000D01*
X129540000Y-147320000D02*
X128270000Y-148590000D01*
X99060000Y-88900000D02*
X102870000Y-88900000D01*
X115570000Y-90170000D02*
X115570000Y-92710000D01*
X113795000Y-132845000D02*
X122465001Y-132845000D01*
X113030000Y-132080000D02*
X113795000Y-132845000D01*
X113030000Y-119380000D02*
X113030000Y-132080000D01*
X110490000Y-116840000D02*
X113030000Y-119380000D01*
X110490000Y-97790000D02*
X110490000Y-116840000D01*
X115570000Y-92710000D02*
X110490000Y-97790000D01*
X153670000Y-99060000D02*
X153670000Y-96520000D01*
X153670000Y-96520000D02*
X152400000Y-95250000D01*
X152400000Y-95250000D02*
X152400000Y-91440000D01*
X160020000Y-124500000D02*
X161250000Y-124500000D01*
X162560000Y-121920000D02*
X154940000Y-114300000D01*
X162560000Y-123190000D02*
X162560000Y-121920000D01*
X161250000Y-124500000D02*
X162560000Y-123190000D01*
X139700000Y-110490000D02*
X139700000Y-115570000D01*
X139700000Y-115570000D02*
X140970000Y-116840000D01*
X140970000Y-116840000D02*
X143510000Y-116840000D01*
X118110000Y-135890000D02*
X118110000Y-139700000D01*
X123190000Y-86360000D02*
X121920000Y-86360000D01*
X120650000Y-68580000D02*
X121920000Y-67310000D01*
X120650000Y-85090000D02*
X120650000Y-68580000D01*
X121920000Y-86360000D02*
X120650000Y-85090000D01*
X116840000Y-109220000D02*
X114300000Y-109220000D01*
X114300000Y-101600000D02*
X116840000Y-101600000D01*
X113030000Y-102870000D02*
X114300000Y-101600000D01*
X113030000Y-107950000D02*
X113030000Y-102870000D01*
X114300000Y-109220000D02*
X113030000Y-107950000D01*
X123190000Y-88900000D02*
X123190000Y-93980000D01*
X124965000Y-137925000D02*
X122465001Y-137925000D01*
X125730000Y-137160000D02*
X124965000Y-137925000D01*
X125730000Y-133350000D02*
X125730000Y-137160000D01*
X125730000Y-115570000D02*
X125730000Y-130810000D01*
X123190000Y-113030000D02*
X125730000Y-115570000D01*
X123190000Y-93980000D02*
X123190000Y-113030000D01*
X129540000Y-53340000D02*
X127000000Y-55880000D01*
X127000000Y-80010000D02*
X123190000Y-83820000D01*
X127000000Y-55880000D02*
X127000000Y-80010000D01*
X125730000Y-46990000D02*
X125730000Y-49530000D01*
X125730000Y-49530000D02*
X129540000Y-53340000D01*
X129540000Y-53340000D02*
X132080000Y-53340000D01*
X139700000Y-53340000D02*
X139700000Y-57150000D01*
X144780000Y-81280000D02*
X144780000Y-77470000D01*
X144780000Y-66040000D02*
X144780000Y-69850000D01*
X144780000Y-69850000D02*
X144780000Y-73660000D01*
X144780000Y-73660000D02*
X144780000Y-77470000D01*
X144780000Y-62230000D02*
X144780000Y-66040000D01*
X143510000Y-109220000D02*
X142240000Y-107950000D01*
X142240000Y-107950000D02*
X139700000Y-107950000D01*
X139700000Y-107950000D02*
X142240000Y-107950000D01*
X144780000Y-110490000D02*
X147320000Y-110490000D01*
X142240000Y-107950000D02*
X144780000Y-110490000D01*
X147320000Y-110490000D02*
X147320000Y-114300000D01*
X147320000Y-114300000D02*
X147320000Y-118110000D01*
X160020000Y-142280000D02*
X160020000Y-142240000D01*
X160020000Y-142240000D02*
X158750000Y-140970000D01*
X158750000Y-140970000D02*
X158750000Y-121920000D01*
X158750000Y-121920000D02*
X154940000Y-118110000D01*
X125730000Y-102870000D02*
X127000000Y-102870000D01*
X127000000Y-102870000D02*
X129540000Y-105410000D01*
X132080000Y-115570000D02*
X132080000Y-107950000D01*
X132080000Y-107950000D02*
X129540000Y-105410000D01*
X125730000Y-110490000D02*
X125730000Y-105410000D01*
X127000000Y-99060000D02*
X127000000Y-82550000D01*
X124460000Y-101600000D02*
X127000000Y-99060000D01*
X124460000Y-104140000D02*
X124460000Y-101600000D01*
X125730000Y-105410000D02*
X124460000Y-104140000D01*
X106680000Y-101600000D02*
X104140000Y-104140000D01*
X104140000Y-104140000D02*
X104140000Y-110490000D01*
X107950000Y-82550000D02*
X107950000Y-88900000D01*
X104140000Y-99060000D02*
X106680000Y-101600000D01*
X104140000Y-92710000D02*
X104140000Y-99060000D01*
X107950000Y-88900000D02*
X104140000Y-92710000D01*
X116840000Y-99060000D02*
X118110000Y-99060000D01*
X119380000Y-114300000D02*
X118110000Y-115570000D01*
X119380000Y-100330000D02*
X119380000Y-114300000D01*
X118110000Y-99060000D02*
X119380000Y-100330000D01*
X132625001Y-132845000D02*
X130305000Y-132845000D01*
X130305000Y-132845000D02*
X129540000Y-132080000D01*
M02*
