M48
;DRILL file {KiCad 4.0.7} date Saturday 21 July 2018 16:50:37
;FORMAT={-:-/ absolute / metric / decimal}
FMAT,2
METRIC,TZ
T1C0.400
T2C0.800
T3C1.000
T4C3.048
%
G90
G05
M71
T1
X102.87Y-85.09
X104.14Y-110.49
X125.73Y-130.81
X125.73Y-133.35
X127.Y-82.55
X129.54Y-132.08
X130.81Y-93.98
T2
X99.06Y-73.74
X99.06Y-78.74
X99.06Y-81.28
X99.06Y-88.9
X99.06Y-116.84
X99.1Y-124.46
X101.56Y-116.84
X101.6Y-124.46
X102.87Y-81.28
X102.87Y-88.9
X104.14Y-73.66
X104.14Y-78.66
X105.41Y-53.42
X105.41Y-58.42
X105.41Y-63.5
X105.41Y-66.04
X105.41Y-68.58
X106.68Y-96.52
X106.68Y-99.06
X106.68Y-101.6
X106.68Y-104.14
X106.68Y-106.68
X106.68Y-109.22
X106.68Y-111.76
X106.68Y-118.11
X106.68Y-125.73
X106.68Y-128.35
X106.68Y-133.35
X106.68Y-135.89
X106.68Y-143.51
X107.95Y-74.93
X107.95Y-82.55
X110.49Y-52.07
X110.49Y-59.69
X110.49Y-62.23
X110.49Y-67.31
X110.49Y-72.39
X110.49Y-81.28
X110.49Y-119.38
X110.49Y-123.19
X110.49Y-127.
X110.49Y-130.81
X110.49Y-135.89
X110.49Y-139.7
X110.49Y-143.51
X113.03Y-76.2
X115.57Y-85.09
X115.57Y-87.63
X115.57Y-90.17
X116.84Y-96.52
X116.84Y-99.06
X116.84Y-101.6
X116.84Y-104.14
X116.84Y-106.68
X116.84Y-109.22
X116.84Y-111.76
X118.03Y-76.2
X118.11Y-53.42
X118.11Y-58.42
X118.11Y-62.23
X118.11Y-67.31
X118.11Y-72.39
X118.11Y-81.28
X118.11Y-119.38
X118.11Y-123.19
X118.11Y-127.
X118.11Y-130.81
X118.11Y-135.89
X118.11Y-139.7
X118.11Y-143.51
X121.92Y-53.34
X121.92Y-57.15
X121.92Y-62.23
X121.92Y-64.77
X121.92Y-67.31
X122.465Y-127.765
X122.465Y-130.305
X122.465Y-132.845
X122.465Y-135.385
X122.465Y-137.925
X122.465Y-140.465
X122.465Y-143.005
X123.19Y-71.12
X123.19Y-73.66
X123.19Y-76.2
X123.19Y-78.74
X123.19Y-81.28
X123.19Y-83.82
X123.19Y-86.36
X123.19Y-88.9
X123.19Y-115.57
X124.7Y-96.52
X125.73Y-102.87
X125.73Y-110.49
X128.19Y-115.57
X129.54Y-53.34
X129.54Y-57.15
X129.54Y-102.87
X129.54Y-105.41
X129.54Y-107.95
X129.54Y-110.49
X130.81Y-66.04
X132.08Y-53.34
X132.08Y-57.15
X132.08Y-115.57
X132.625Y-127.765
X132.625Y-130.305
X132.625Y-132.845
X132.625Y-135.385
X132.625Y-137.925
X132.625Y-140.465
X132.625Y-143.005
X133.35Y-71.12
X133.35Y-73.66
X133.35Y-76.2
X133.35Y-78.74
X133.35Y-81.28
X133.35Y-83.82
X133.35Y-86.36
X133.35Y-88.9
X137.16Y-69.93
X137.16Y-74.93
X137.16Y-77.47
X137.16Y-85.09
X137.16Y-123.19
X137.16Y-127.
X137.16Y-130.81
X137.16Y-135.89
X137.16Y-139.7
X137.16Y-143.51
X138.43Y-66.04
X139.7Y-53.34
X139.7Y-57.15
X139.7Y-96.52
X139.7Y-102.87
X139.7Y-105.41
X139.7Y-107.95
X139.7Y-110.49
X139.7Y-115.57
X143.51Y-109.22
X143.51Y-116.84
X144.78Y-62.23
X144.78Y-66.04
X144.78Y-69.85
X144.78Y-73.66
X144.78Y-77.47
X144.78Y-81.28
X144.78Y-91.44
X144.78Y-95.25
X144.78Y-123.19
X144.78Y-127.
X144.78Y-130.81
X144.78Y-135.89
X144.78Y-139.7
X144.78Y-143.51
X144.86Y-55.88
X146.05Y-100.33
X146.05Y-105.33
X147.32Y-110.49
X147.32Y-114.3
X147.32Y-118.11
X147.4Y-85.09
X148.59Y-123.19
X148.59Y-130.81
X148.59Y-137.16
X148.59Y-144.78
X149.86Y-55.88
X149.86Y-100.33
X149.86Y-105.33
X152.4Y-62.23
X152.4Y-66.04
X152.4Y-69.85
X152.4Y-73.66
X152.4Y-77.47
X152.4Y-81.28
X152.4Y-85.09
X152.4Y-91.44
X152.4Y-95.25
X153.67Y-99.06
X153.67Y-106.68
X153.67Y-132.16
X153.67Y-137.16
X154.94Y-110.49
X154.94Y-114.3
X154.94Y-118.11
T3
X99.06Y-53.34
X99.06Y-55.88
X99.06Y-58.42
X99.06Y-60.96
X99.06Y-63.5
X99.06Y-66.04
X99.06Y-133.35
X99.06Y-135.89
X99.06Y-138.43
X99.06Y-140.97
X99.06Y-143.51
X101.6Y-133.35
X101.6Y-135.89
X101.6Y-138.43
X101.6Y-140.97
X101.6Y-143.51
X105.41Y-46.99
X107.95Y-46.99
X110.49Y-148.59
X113.03Y-46.99
X113.03Y-115.57
X113.03Y-148.59
X115.57Y-46.99
X115.57Y-115.57
X118.11Y-115.57
X118.11Y-148.59
X120.65Y-46.99
X120.65Y-148.59
X123.19Y-46.99
X125.73Y-46.99
X125.73Y-148.59
X128.27Y-46.99
X128.27Y-148.59
X133.35Y-46.99
X133.35Y-148.59
X135.89Y-46.99
X135.89Y-148.59
X140.97Y-46.99
X140.97Y-148.59
X143.51Y-46.99
X143.51Y-148.59
X147.32Y-46.99
X149.86Y-46.99
X160.02Y-50.88
X160.02Y-53.38
X160.02Y-55.88
X160.02Y-68.66
X160.02Y-71.16
X160.02Y-73.66
X160.02Y-86.44
X160.02Y-88.94
X160.02Y-91.44
X160.02Y-104.22
X160.02Y-106.72
X160.02Y-109.22
X160.02Y-122.
X160.02Y-124.5
X160.02Y-127.
X160.02Y-139.78
X160.02Y-142.28
X160.02Y-144.78
T4
X99.06Y-46.99
X99.06Y-148.59
X156.21Y-46.99
X156.21Y-148.59
T0
M30
