G04 #@! TF.FileFunction,Legend,Top*
%FSLAX46Y46*%
G04 Gerber Fmt 4.6, Leading zero omitted, Abs format (unit mm)*
G04 Created by KiCad (PCBNEW 4.0.7) date Monday 30 April 2018 23:43:25*
%MOMM*%
%LPD*%
G01*
G04 APERTURE LIST*
%ADD10C,0.100000*%
%ADD11C,0.200000*%
%ADD12C,0.120000*%
%ADD13C,0.150000*%
G04 APERTURE END LIST*
D10*
D11*
X196096666Y-36272381D02*
X196668095Y-36272381D01*
X196382380Y-37272381D02*
X196382380Y-36272381D01*
X197001428Y-37272381D02*
X197001428Y-36272381D01*
X197430000Y-37272381D02*
X197430000Y-36748571D01*
X197382381Y-36653333D01*
X197287143Y-36605714D01*
X197144285Y-36605714D01*
X197049047Y-36653333D01*
X197001428Y-36700952D01*
X198049047Y-37272381D02*
X197953809Y-37224762D01*
X197906190Y-37177143D01*
X197858571Y-37081905D01*
X197858571Y-36796190D01*
X197906190Y-36700952D01*
X197953809Y-36653333D01*
X198049047Y-36605714D01*
X198191905Y-36605714D01*
X198287143Y-36653333D01*
X198334762Y-36700952D01*
X198382381Y-36796190D01*
X198382381Y-37081905D01*
X198334762Y-37177143D01*
X198287143Y-37224762D01*
X198191905Y-37272381D01*
X198049047Y-37272381D01*
X198810952Y-37272381D02*
X198810952Y-36605714D01*
X198810952Y-36700952D02*
X198858571Y-36653333D01*
X198953809Y-36605714D01*
X199096667Y-36605714D01*
X199191905Y-36653333D01*
X199239524Y-36748571D01*
X199239524Y-37272381D01*
X199239524Y-36748571D02*
X199287143Y-36653333D01*
X199382381Y-36605714D01*
X199525238Y-36605714D01*
X199620476Y-36653333D01*
X199668095Y-36748571D01*
X199668095Y-37272381D01*
X200572857Y-37272381D02*
X200572857Y-36748571D01*
X200525238Y-36653333D01*
X200430000Y-36605714D01*
X200239523Y-36605714D01*
X200144285Y-36653333D01*
X200572857Y-37224762D02*
X200477619Y-37272381D01*
X200239523Y-37272381D01*
X200144285Y-37224762D01*
X200096666Y-37129524D01*
X200096666Y-37034286D01*
X200144285Y-36939048D01*
X200239523Y-36891429D01*
X200477619Y-36891429D01*
X200572857Y-36843810D01*
X201001428Y-37224762D02*
X201096666Y-37272381D01*
X201287142Y-37272381D01*
X201382381Y-37224762D01*
X201430000Y-37129524D01*
X201430000Y-37081905D01*
X201382381Y-36986667D01*
X201287142Y-36939048D01*
X201144285Y-36939048D01*
X201049047Y-36891429D01*
X201001428Y-36796190D01*
X201001428Y-36748571D01*
X201049047Y-36653333D01*
X201144285Y-36605714D01*
X201287142Y-36605714D01*
X201382381Y-36653333D01*
X202620476Y-37272381D02*
X202620476Y-36272381D01*
X202620476Y-36748571D02*
X203191905Y-36748571D01*
X203191905Y-37272381D02*
X203191905Y-36272381D01*
X204049048Y-37224762D02*
X203953810Y-37272381D01*
X203763333Y-37272381D01*
X203668095Y-37224762D01*
X203620476Y-37129524D01*
X203620476Y-36748571D01*
X203668095Y-36653333D01*
X203763333Y-36605714D01*
X203953810Y-36605714D01*
X204049048Y-36653333D01*
X204096667Y-36748571D01*
X204096667Y-36843810D01*
X203620476Y-36939048D01*
X204525238Y-36605714D02*
X204525238Y-37272381D01*
X204525238Y-36700952D02*
X204572857Y-36653333D01*
X204668095Y-36605714D01*
X204810953Y-36605714D01*
X204906191Y-36653333D01*
X204953810Y-36748571D01*
X204953810Y-37272381D01*
X205430000Y-37272381D02*
X205430000Y-36605714D01*
X205430000Y-36796190D02*
X205477619Y-36700952D01*
X205525238Y-36653333D01*
X205620476Y-36605714D01*
X205715715Y-36605714D01*
X205953810Y-36605714D02*
X206191905Y-37272381D01*
X206430001Y-36605714D02*
X206191905Y-37272381D01*
X206096667Y-37510476D01*
X206049048Y-37558095D01*
X205953810Y-37605714D01*
X206858572Y-36272381D02*
X206763334Y-36462857D01*
X207239524Y-37224762D02*
X207334762Y-37272381D01*
X207525238Y-37272381D01*
X207620477Y-37224762D01*
X207668096Y-37129524D01*
X207668096Y-37081905D01*
X207620477Y-36986667D01*
X207525238Y-36939048D01*
X207382381Y-36939048D01*
X207287143Y-36891429D01*
X207239524Y-36796190D01*
X207239524Y-36748571D01*
X207287143Y-36653333D01*
X207382381Y-36605714D01*
X207525238Y-36605714D01*
X207620477Y-36653333D01*
X199477619Y-37972381D02*
X199810952Y-38972381D01*
X200144286Y-37972381D01*
X201049048Y-38877143D02*
X201001429Y-38924762D01*
X200858572Y-38972381D01*
X200763334Y-38972381D01*
X200620476Y-38924762D01*
X200525238Y-38829524D01*
X200477619Y-38734286D01*
X200430000Y-38543810D01*
X200430000Y-38400952D01*
X200477619Y-38210476D01*
X200525238Y-38115238D01*
X200620476Y-38020000D01*
X200763334Y-37972381D01*
X200858572Y-37972381D01*
X201001429Y-38020000D01*
X201049048Y-38067619D01*
X201668095Y-37972381D02*
X201858572Y-37972381D01*
X201953810Y-38020000D01*
X202049048Y-38115238D01*
X202096667Y-38305714D01*
X202096667Y-38639048D01*
X202049048Y-38829524D01*
X201953810Y-38924762D01*
X201858572Y-38972381D01*
X201668095Y-38972381D01*
X201572857Y-38924762D01*
X201477619Y-38829524D01*
X201430000Y-38639048D01*
X201430000Y-38305714D01*
X201477619Y-38115238D01*
X201572857Y-38020000D01*
X201668095Y-37972381D01*
X202525238Y-38591429D02*
X203287143Y-38591429D01*
X204287143Y-38972381D02*
X203715714Y-38972381D01*
X204001428Y-38972381D02*
X204001428Y-37972381D01*
X203906190Y-38115238D01*
X203810952Y-38210476D01*
X203715714Y-38258095D01*
X196382380Y-40672381D02*
X196382380Y-39672381D01*
X196382380Y-40148571D02*
X196953809Y-40148571D01*
X196953809Y-40672381D02*
X196953809Y-39672381D01*
X197858571Y-40672381D02*
X197858571Y-40148571D01*
X197810952Y-40053333D01*
X197715714Y-40005714D01*
X197525237Y-40005714D01*
X197429999Y-40053333D01*
X197858571Y-40624762D02*
X197763333Y-40672381D01*
X197525237Y-40672381D01*
X197429999Y-40624762D01*
X197382380Y-40529524D01*
X197382380Y-40434286D01*
X197429999Y-40339048D01*
X197525237Y-40291429D01*
X197763333Y-40291429D01*
X197858571Y-40243810D01*
X197620475Y-39767619D02*
X197525237Y-39720000D01*
X197477618Y-39624762D01*
X197525237Y-39529524D01*
X197620475Y-39481905D01*
X197715714Y-39529524D01*
X197763333Y-39624762D01*
X197715714Y-39720000D01*
X197620475Y-39767619D01*
X198334761Y-40672381D02*
X198334761Y-39672381D01*
X198429999Y-40291429D02*
X198715714Y-40672381D01*
X198715714Y-40005714D02*
X198334761Y-40386667D01*
X199572857Y-40672381D02*
X199572857Y-40148571D01*
X199525238Y-40053333D01*
X199430000Y-40005714D01*
X199239523Y-40005714D01*
X199144285Y-40053333D01*
X199572857Y-40624762D02*
X199477619Y-40672381D01*
X199239523Y-40672381D01*
X199144285Y-40624762D01*
X199096666Y-40529524D01*
X199096666Y-40434286D01*
X199144285Y-40339048D01*
X199239523Y-40291429D01*
X199477619Y-40291429D01*
X199572857Y-40243810D01*
X200049047Y-40005714D02*
X200049047Y-40672381D01*
X200049047Y-40100952D02*
X200096666Y-40053333D01*
X200191904Y-40005714D01*
X200334762Y-40005714D01*
X200430000Y-40053333D01*
X200477619Y-40148571D01*
X200477619Y-40672381D01*
X201715714Y-40148571D02*
X202049048Y-40148571D01*
X202191905Y-40672381D02*
X201715714Y-40672381D01*
X201715714Y-39672381D01*
X202191905Y-39672381D01*
X202620476Y-40672381D02*
X202620476Y-40005714D01*
X202620476Y-40196190D02*
X202668095Y-40100952D01*
X202715714Y-40053333D01*
X202810952Y-40005714D01*
X202906191Y-40005714D01*
X203239524Y-40672381D02*
X203239524Y-40005714D01*
X203239524Y-39672381D02*
X203191905Y-39720000D01*
X203239524Y-39767619D01*
X203287143Y-39720000D01*
X203239524Y-39672381D01*
X203239524Y-39767619D01*
X203715714Y-40672381D02*
X203715714Y-39672381D01*
X203810952Y-40291429D02*
X204096667Y-40672381D01*
X204096667Y-40005714D02*
X203715714Y-40386667D01*
X204477619Y-40624762D02*
X204572857Y-40672381D01*
X204763333Y-40672381D01*
X204858572Y-40624762D01*
X204906191Y-40529524D01*
X204906191Y-40481905D01*
X204858572Y-40386667D01*
X204763333Y-40339048D01*
X204620476Y-40339048D01*
X204525238Y-40291429D01*
X204477619Y-40196190D01*
X204477619Y-40148571D01*
X204525238Y-40053333D01*
X204620476Y-40005714D01*
X204763333Y-40005714D01*
X204858572Y-40053333D01*
X205287143Y-40624762D02*
X205382381Y-40672381D01*
X205572857Y-40672381D01*
X205668096Y-40624762D01*
X205715715Y-40529524D01*
X205715715Y-40481905D01*
X205668096Y-40386667D01*
X205572857Y-40339048D01*
X205430000Y-40339048D01*
X205334762Y-40291429D01*
X205287143Y-40196190D01*
X205287143Y-40148571D01*
X205334762Y-40053333D01*
X205430000Y-40005714D01*
X205572857Y-40005714D01*
X205668096Y-40053333D01*
X206287143Y-40672381D02*
X206191905Y-40624762D01*
X206144286Y-40577143D01*
X206096667Y-40481905D01*
X206096667Y-40196190D01*
X206144286Y-40100952D01*
X206191905Y-40053333D01*
X206287143Y-40005714D01*
X206430001Y-40005714D01*
X206525239Y-40053333D01*
X206572858Y-40100952D01*
X206620477Y-40196190D01*
X206620477Y-40481905D01*
X206572858Y-40577143D01*
X206525239Y-40624762D01*
X206430001Y-40672381D01*
X206287143Y-40672381D01*
X207049048Y-40005714D02*
X207049048Y-40672381D01*
X207049048Y-40100952D02*
X207096667Y-40053333D01*
X207191905Y-40005714D01*
X207334763Y-40005714D01*
X207430001Y-40053333D01*
X207477620Y-40148571D01*
X207477620Y-40672381D01*
X200620476Y-42372381D02*
X200287142Y-41896190D01*
X200049047Y-42372381D02*
X200049047Y-41372381D01*
X200430000Y-41372381D01*
X200525238Y-41420000D01*
X200572857Y-41467619D01*
X200620476Y-41562857D01*
X200620476Y-41705714D01*
X200572857Y-41800952D01*
X200525238Y-41848571D01*
X200430000Y-41896190D01*
X200049047Y-41896190D01*
X201430000Y-42324762D02*
X201334762Y-42372381D01*
X201144285Y-42372381D01*
X201049047Y-42324762D01*
X201001428Y-42229524D01*
X201001428Y-41848571D01*
X201049047Y-41753333D01*
X201144285Y-41705714D01*
X201334762Y-41705714D01*
X201430000Y-41753333D01*
X201477619Y-41848571D01*
X201477619Y-41943810D01*
X201001428Y-42039048D01*
X201810952Y-41705714D02*
X202049047Y-42372381D01*
X202287143Y-41705714D01*
X203382381Y-42086667D02*
X203858572Y-42086667D01*
X203287143Y-42372381D02*
X203620476Y-41372381D01*
X203953810Y-42372381D01*
D12*
X140441000Y-73350000D02*
X134920000Y-73350000D01*
X140441000Y-63730000D02*
X134920000Y-63730000D01*
X140441000Y-73350000D02*
X140441000Y-63730000D01*
X134920000Y-73350000D02*
X134920000Y-63730000D01*
X134920000Y-72100000D02*
X129920000Y-72100000D01*
X134920000Y-64980000D02*
X129920000Y-64980000D01*
X134920000Y-72100000D02*
X134920000Y-64980000D01*
X129920000Y-72100000D02*
X129920000Y-64980000D01*
X129920000Y-71100000D02*
X122920000Y-71100000D01*
X129920000Y-65980000D02*
X122920000Y-65980000D01*
X129920000Y-71100000D02*
X129920000Y-65980000D01*
X122920000Y-71100000D02*
X122920000Y-65980000D01*
X155210000Y-90230000D02*
G75*
G02X157210000Y-90230000I1000000J0D01*
G01*
X157210000Y-90230000D02*
X158460000Y-90230000D01*
X158460000Y-90230000D02*
X158460000Y-79950000D01*
X158460000Y-79950000D02*
X153960000Y-79950000D01*
X153960000Y-79950000D02*
X153960000Y-90230000D01*
X153960000Y-90230000D02*
X155210000Y-90230000D01*
X161460000Y-90290000D02*
X161460000Y-79890000D01*
X161460000Y-79890000D02*
X150960000Y-79890000D01*
X150960000Y-79890000D02*
X150960000Y-90290000D01*
X150960000Y-90290000D02*
X161460000Y-90290000D01*
X143420000Y-75680000D02*
X146140000Y-75680000D01*
X146140000Y-75680000D02*
X146140000Y-71760000D01*
X146140000Y-71760000D02*
X143420000Y-71760000D01*
X143420000Y-71760000D02*
X143420000Y-75680000D01*
X144780000Y-76490000D02*
X144780000Y-75680000D01*
X144780000Y-70950000D02*
X144780000Y-71760000D01*
X187440000Y-47080000D02*
X187440000Y-44360000D01*
X187440000Y-44360000D02*
X183520000Y-44360000D01*
X183520000Y-44360000D02*
X183520000Y-47080000D01*
X183520000Y-47080000D02*
X187440000Y-47080000D01*
X188250000Y-45720000D02*
X187440000Y-45720000D01*
X182710000Y-45720000D02*
X183520000Y-45720000D01*
X203950000Y-83910000D02*
X203950000Y-81190000D01*
X203950000Y-81190000D02*
X200030000Y-81190000D01*
X200030000Y-81190000D02*
X200030000Y-83910000D01*
X200030000Y-83910000D02*
X203950000Y-83910000D01*
X204760000Y-82550000D02*
X203950000Y-82550000D01*
X199220000Y-82550000D02*
X200030000Y-82550000D01*
X170090000Y-60440000D02*
X172810000Y-60440000D01*
X172810000Y-60440000D02*
X172810000Y-56520000D01*
X172810000Y-56520000D02*
X170090000Y-56520000D01*
X170090000Y-56520000D02*
X170090000Y-60440000D01*
X171450000Y-61250000D02*
X171450000Y-60440000D01*
X171450000Y-55710000D02*
X171450000Y-56520000D01*
X165890000Y-55670000D02*
X165890000Y-53550000D01*
X165890000Y-53550000D02*
X161770000Y-53550000D01*
X161770000Y-53550000D02*
X161770000Y-55670000D01*
X161770000Y-55670000D02*
X165890000Y-55670000D01*
X166660000Y-54610000D02*
X165890000Y-54610000D01*
X161000000Y-54610000D02*
X161770000Y-54610000D01*
X165230000Y-55670000D02*
X165230000Y-53550000D01*
X137100000Y-90110000D02*
X137100000Y-92770000D01*
X139700000Y-90110000D02*
X137100000Y-90110000D01*
X139700000Y-92770000D02*
X137100000Y-92770000D01*
X139700000Y-90110000D02*
X139700000Y-92770000D01*
X140970000Y-90110000D02*
X142300000Y-90110000D01*
X142300000Y-90110000D02*
X142300000Y-91440000D01*
X149920000Y-30540000D02*
X149920000Y-27880000D01*
X147320000Y-30540000D02*
X149920000Y-30540000D01*
X147320000Y-27880000D02*
X149920000Y-27880000D01*
X147320000Y-30540000D02*
X147320000Y-27880000D01*
X146050000Y-30540000D02*
X144720000Y-30540000D01*
X144720000Y-30540000D02*
X144720000Y-29210000D01*
X137100000Y-59630000D02*
X137100000Y-62290000D01*
X139700000Y-59630000D02*
X137100000Y-59630000D01*
X139700000Y-62290000D02*
X137100000Y-62290000D01*
X139700000Y-59630000D02*
X139700000Y-62290000D01*
X140970000Y-59630000D02*
X142300000Y-59630000D01*
X142300000Y-59630000D02*
X142300000Y-60960000D01*
X137100000Y-74870000D02*
X137100000Y-77530000D01*
X139700000Y-74870000D02*
X137100000Y-74870000D01*
X139700000Y-77530000D02*
X137100000Y-77530000D01*
X139700000Y-74870000D02*
X139700000Y-77530000D01*
X140970000Y-74870000D02*
X142300000Y-74870000D01*
X142300000Y-74870000D02*
X142300000Y-76200000D01*
X203140000Y-118170000D02*
X208340000Y-118170000D01*
X203140000Y-107950000D02*
X203140000Y-118170000D01*
X208340000Y-105350000D02*
X208340000Y-118170000D01*
X203140000Y-107950000D02*
X205740000Y-107950000D01*
X205740000Y-107950000D02*
X205740000Y-105350000D01*
X205740000Y-105350000D02*
X208340000Y-105350000D01*
X203140000Y-106680000D02*
X203140000Y-105350000D01*
X203140000Y-105350000D02*
X204470000Y-105350000D01*
X177860000Y-124520000D02*
X177860000Y-121860000D01*
X175260000Y-124520000D02*
X177860000Y-124520000D01*
X175260000Y-121860000D02*
X177860000Y-121860000D01*
X175260000Y-124520000D02*
X175260000Y-121860000D01*
X173990000Y-124520000D02*
X172660000Y-124520000D01*
X172660000Y-124520000D02*
X172660000Y-123190000D01*
X182820000Y-121860000D02*
X182820000Y-124520000D01*
X185420000Y-121860000D02*
X182820000Y-121860000D01*
X185420000Y-124520000D02*
X182820000Y-124520000D01*
X185420000Y-121860000D02*
X185420000Y-124520000D01*
X186690000Y-121860000D02*
X188020000Y-121860000D01*
X188020000Y-121860000D02*
X188020000Y-123190000D01*
X199330000Y-74870000D02*
X199330000Y-77530000D01*
X201930000Y-74870000D02*
X199330000Y-74870000D01*
X201930000Y-77530000D02*
X199330000Y-77530000D01*
X201930000Y-74870000D02*
X201930000Y-77530000D01*
X203200000Y-74870000D02*
X204530000Y-74870000D01*
X204530000Y-74870000D02*
X204530000Y-76200000D01*
X184680000Y-38790000D02*
X181080000Y-38790000D01*
X185204184Y-39517205D02*
G75*
G03X184680000Y-38790000I-2324184J-1122795D01*
G01*
X185236400Y-41738807D02*
G75*
G02X182880000Y-43240000I-2356400J1098807D01*
G01*
X180523600Y-41738807D02*
G75*
G03X182880000Y-43240000I2356400J1098807D01*
G01*
X180555816Y-39517205D02*
G75*
G02X181080000Y-38790000I2324184J-1122795D01*
G01*
X181080000Y-37410000D02*
X184680000Y-37410000D01*
X180555816Y-36682795D02*
G75*
G03X181080000Y-37410000I2324184J1122795D01*
G01*
X180523600Y-34461193D02*
G75*
G02X182880000Y-32960000I2356400J-1098807D01*
G01*
X185236400Y-34461193D02*
G75*
G03X182880000Y-32960000I-2356400J-1098807D01*
G01*
X185204184Y-36682795D02*
G75*
G02X184680000Y-37410000I-2324184J1122795D01*
G01*
X177220000Y-68050000D02*
X177220000Y-71650000D01*
X177947205Y-67525816D02*
G75*
G03X177220000Y-68050000I1122795J-2324184D01*
G01*
X180168807Y-67493600D02*
G75*
G02X181670000Y-69850000I-1098807J-2356400D01*
G01*
X180168807Y-72206400D02*
G75*
G03X181670000Y-69850000I-1098807J2356400D01*
G01*
X177947205Y-72174184D02*
G75*
G02X177220000Y-71650000I1122795J2324184D01*
G01*
X179810000Y-98370000D02*
X183410000Y-98370000D01*
X179285816Y-97642795D02*
G75*
G03X179810000Y-98370000I2324184J1122795D01*
G01*
X179253600Y-95421193D02*
G75*
G02X181610000Y-93920000I2356400J-1098807D01*
G01*
X183966400Y-95421193D02*
G75*
G03X181610000Y-93920000I-2356400J-1098807D01*
G01*
X183934184Y-97642795D02*
G75*
G02X183410000Y-98370000I-2324184J1122795D01*
G01*
X180920000Y-64030000D02*
X180920000Y-60430000D01*
X180192795Y-64554184D02*
G75*
G03X180920000Y-64030000I-1122795J2324184D01*
G01*
X177971193Y-64586400D02*
G75*
G02X176470000Y-62230000I1098807J2356400D01*
G01*
X177971193Y-59873600D02*
G75*
G03X176470000Y-62230000I1098807J-2356400D01*
G01*
X180192795Y-59905816D02*
G75*
G02X180920000Y-60430000I-1122795J-2324184D01*
G01*
X183410000Y-101020000D02*
X179810000Y-101020000D01*
X183934184Y-101747205D02*
G75*
G03X183410000Y-101020000I-2324184J-1122795D01*
G01*
X183966400Y-103968807D02*
G75*
G02X181610000Y-105470000I-2356400J1098807D01*
G01*
X179253600Y-103968807D02*
G75*
G03X181610000Y-105470000I2356400J1098807D01*
G01*
X179285816Y-101747205D02*
G75*
G02X179810000Y-101020000I2324184J-1122795D01*
G01*
X154420000Y-34680000D02*
X154420000Y-31360000D01*
X154420000Y-31360000D02*
X145300000Y-31360000D01*
X145300000Y-31360000D02*
X145300000Y-34680000D01*
X145300000Y-34680000D02*
X154420000Y-34680000D01*
X155230000Y-33020000D02*
X154420000Y-33020000D01*
X144490000Y-33020000D02*
X145300000Y-33020000D01*
X154420000Y-48650000D02*
X154420000Y-45330000D01*
X154420000Y-45330000D02*
X145300000Y-45330000D01*
X145300000Y-45330000D02*
X145300000Y-48650000D01*
X145300000Y-48650000D02*
X154420000Y-48650000D01*
X155230000Y-46990000D02*
X154420000Y-46990000D01*
X144490000Y-46990000D02*
X145300000Y-46990000D01*
X154420000Y-39760000D02*
X154420000Y-36440000D01*
X154420000Y-36440000D02*
X145300000Y-36440000D01*
X145300000Y-36440000D02*
X145300000Y-39760000D01*
X145300000Y-39760000D02*
X154420000Y-39760000D01*
X155230000Y-38100000D02*
X154420000Y-38100000D01*
X144490000Y-38100000D02*
X145300000Y-38100000D01*
X154420000Y-44840000D02*
X154420000Y-41520000D01*
X154420000Y-41520000D02*
X145300000Y-41520000D01*
X145300000Y-41520000D02*
X145300000Y-44840000D01*
X145300000Y-44840000D02*
X154420000Y-44840000D01*
X155230000Y-43180000D02*
X154420000Y-43180000D01*
X144490000Y-43180000D02*
X145300000Y-43180000D01*
X163440000Y-42660000D02*
X166760000Y-42660000D01*
X166760000Y-42660000D02*
X166760000Y-33540000D01*
X166760000Y-33540000D02*
X163440000Y-33540000D01*
X163440000Y-33540000D02*
X163440000Y-42660000D01*
X165100000Y-43470000D02*
X165100000Y-42660000D01*
X165100000Y-32730000D02*
X165100000Y-33540000D01*
X182130000Y-49140000D02*
X182130000Y-52460000D01*
X182130000Y-52460000D02*
X191250000Y-52460000D01*
X191250000Y-52460000D02*
X191250000Y-49140000D01*
X191250000Y-49140000D02*
X182130000Y-49140000D01*
X181320000Y-50800000D02*
X182130000Y-50800000D01*
X192060000Y-50800000D02*
X191250000Y-50800000D01*
X163310000Y-67700000D02*
X163310000Y-64380000D01*
X163310000Y-64380000D02*
X154190000Y-64380000D01*
X154190000Y-64380000D02*
X154190000Y-67700000D01*
X154190000Y-67700000D02*
X163310000Y-67700000D01*
X164120000Y-66040000D02*
X163310000Y-66040000D01*
X153380000Y-66040000D02*
X154190000Y-66040000D01*
X176140000Y-43930000D02*
X179460000Y-43930000D01*
X179460000Y-43930000D02*
X179460000Y-34810000D01*
X179460000Y-34810000D02*
X176140000Y-34810000D01*
X176140000Y-34810000D02*
X176140000Y-43930000D01*
X177800000Y-44740000D02*
X177800000Y-43930000D01*
X177800000Y-34000000D02*
X177800000Y-34810000D01*
X161810000Y-49140000D02*
X161810000Y-52460000D01*
X161810000Y-52460000D02*
X170930000Y-52460000D01*
X170930000Y-52460000D02*
X170930000Y-49140000D01*
X170930000Y-49140000D02*
X161810000Y-49140000D01*
X161000000Y-50800000D02*
X161810000Y-50800000D01*
X171740000Y-50800000D02*
X170930000Y-50800000D01*
X158360000Y-40120000D02*
X161680000Y-40120000D01*
X161680000Y-40120000D02*
X161680000Y-31000000D01*
X161680000Y-31000000D02*
X158360000Y-31000000D01*
X158360000Y-31000000D02*
X158360000Y-40120000D01*
X160020000Y-40930000D02*
X160020000Y-40120000D01*
X160020000Y-30190000D02*
X160020000Y-31000000D01*
X194700000Y-32270000D02*
X191380000Y-32270000D01*
X191380000Y-32270000D02*
X191380000Y-41390000D01*
X191380000Y-41390000D02*
X194700000Y-41390000D01*
X194700000Y-41390000D02*
X194700000Y-32270000D01*
X193040000Y-31460000D02*
X193040000Y-32270000D01*
X193040000Y-42200000D02*
X193040000Y-41390000D01*
X198640000Y-63110000D02*
X198640000Y-66430000D01*
X198640000Y-66430000D02*
X207760000Y-66430000D01*
X207760000Y-66430000D02*
X207760000Y-63110000D01*
X207760000Y-63110000D02*
X198640000Y-63110000D01*
X197830000Y-64770000D02*
X198640000Y-64770000D01*
X208570000Y-64770000D02*
X207760000Y-64770000D01*
X207890000Y-60440000D02*
X211210000Y-60440000D01*
X211210000Y-60440000D02*
X211210000Y-51320000D01*
X211210000Y-51320000D02*
X207890000Y-51320000D01*
X207890000Y-51320000D02*
X207890000Y-60440000D01*
X209550000Y-61250000D02*
X209550000Y-60440000D01*
X209550000Y-50510000D02*
X209550000Y-51320000D01*
X145660000Y-102350000D02*
X148980000Y-102350000D01*
X148980000Y-102350000D02*
X148980000Y-93230000D01*
X148980000Y-93230000D02*
X145660000Y-93230000D01*
X145660000Y-93230000D02*
X145660000Y-102350000D01*
X147320000Y-103160000D02*
X147320000Y-102350000D01*
X147320000Y-92420000D02*
X147320000Y-93230000D01*
X150250000Y-111010000D02*
X146930000Y-111010000D01*
X146930000Y-111010000D02*
X146930000Y-120130000D01*
X146930000Y-120130000D02*
X150250000Y-120130000D01*
X150250000Y-120130000D02*
X150250000Y-111010000D01*
X148590000Y-110200000D02*
X148590000Y-111010000D01*
X148590000Y-120940000D02*
X148590000Y-120130000D01*
X211210000Y-76720000D02*
X207890000Y-76720000D01*
X207890000Y-76720000D02*
X207890000Y-85840000D01*
X207890000Y-85840000D02*
X211210000Y-85840000D01*
X211210000Y-85840000D02*
X211210000Y-76720000D01*
X209550000Y-75910000D02*
X209550000Y-76720000D01*
X209550000Y-86650000D02*
X209550000Y-85840000D01*
X178190000Y-77990000D02*
X174870000Y-77990000D01*
X174870000Y-77990000D02*
X174870000Y-87110000D01*
X174870000Y-87110000D02*
X178190000Y-87110000D01*
X178190000Y-87110000D02*
X178190000Y-77990000D01*
X176530000Y-77180000D02*
X176530000Y-77990000D01*
X176530000Y-87920000D02*
X176530000Y-87110000D01*
X152920000Y-72000000D02*
X152920000Y-75320000D01*
X152920000Y-75320000D02*
X162040000Y-75320000D01*
X162040000Y-75320000D02*
X162040000Y-72000000D01*
X162040000Y-72000000D02*
X152920000Y-72000000D01*
X152110000Y-73660000D02*
X152920000Y-73660000D01*
X162850000Y-73660000D02*
X162040000Y-73660000D01*
X198640000Y-89780000D02*
X198640000Y-93100000D01*
X198640000Y-93100000D02*
X207760000Y-93100000D01*
X207760000Y-93100000D02*
X207760000Y-89780000D01*
X207760000Y-89780000D02*
X198640000Y-89780000D01*
X197830000Y-91440000D02*
X198640000Y-91440000D01*
X208570000Y-91440000D02*
X207760000Y-91440000D01*
X207760000Y-72780000D02*
X207760000Y-69460000D01*
X207760000Y-69460000D02*
X198640000Y-69460000D01*
X198640000Y-69460000D02*
X198640000Y-72780000D01*
X198640000Y-72780000D02*
X207760000Y-72780000D01*
X208570000Y-71120000D02*
X207760000Y-71120000D01*
X197830000Y-71120000D02*
X198640000Y-71120000D01*
X173110000Y-66560000D02*
X169790000Y-66560000D01*
X169790000Y-66560000D02*
X169790000Y-75680000D01*
X169790000Y-75680000D02*
X173110000Y-75680000D01*
X173110000Y-75680000D02*
X173110000Y-66560000D01*
X171450000Y-65750000D02*
X171450000Y-66560000D01*
X171450000Y-76490000D02*
X171450000Y-75680000D01*
X191380000Y-104890000D02*
X194700000Y-104890000D01*
X194700000Y-104890000D02*
X194700000Y-95770000D01*
X194700000Y-95770000D02*
X191380000Y-95770000D01*
X191380000Y-95770000D02*
X191380000Y-104890000D01*
X193040000Y-105700000D02*
X193040000Y-104890000D01*
X193040000Y-94960000D02*
X193040000Y-95770000D01*
X190890000Y-61480000D02*
X187570000Y-61480000D01*
X187570000Y-61480000D02*
X187570000Y-70600000D01*
X187570000Y-70600000D02*
X190890000Y-70600000D01*
X190890000Y-70600000D02*
X190890000Y-61480000D01*
X189230000Y-60670000D02*
X189230000Y-61480000D01*
X189230000Y-71410000D02*
X189230000Y-70600000D01*
X197600000Y-112150000D02*
X197600000Y-108830000D01*
X197600000Y-108830000D02*
X188480000Y-108830000D01*
X188480000Y-108830000D02*
X188480000Y-112150000D01*
X188480000Y-112150000D02*
X197600000Y-112150000D01*
X198410000Y-110490000D02*
X197600000Y-110490000D01*
X187670000Y-110490000D02*
X188480000Y-110490000D01*
X198640000Y-94860000D02*
X198640000Y-98180000D01*
X198640000Y-98180000D02*
X207760000Y-98180000D01*
X207760000Y-98180000D02*
X207760000Y-94860000D01*
X207760000Y-94860000D02*
X198640000Y-94860000D01*
X197830000Y-96520000D02*
X198640000Y-96520000D01*
X208570000Y-96520000D02*
X207760000Y-96520000D01*
X187080000Y-61480000D02*
X183760000Y-61480000D01*
X183760000Y-61480000D02*
X183760000Y-70600000D01*
X183760000Y-70600000D02*
X187080000Y-70600000D01*
X187080000Y-70600000D02*
X187080000Y-61480000D01*
X185420000Y-60670000D02*
X185420000Y-61480000D01*
X185420000Y-71410000D02*
X185420000Y-70600000D01*
X182360000Y-114690000D02*
X182360000Y-111370000D01*
X182360000Y-111370000D02*
X173240000Y-111370000D01*
X173240000Y-111370000D02*
X173240000Y-114690000D01*
X173240000Y-114690000D02*
X182360000Y-114690000D01*
X183170000Y-113030000D02*
X182360000Y-113030000D01*
X172430000Y-113030000D02*
X173240000Y-113030000D01*
X192520000Y-57540000D02*
X192520000Y-54220000D01*
X192520000Y-54220000D02*
X183400000Y-54220000D01*
X183400000Y-54220000D02*
X183400000Y-57540000D01*
X183400000Y-57540000D02*
X192520000Y-57540000D01*
X193330000Y-55880000D02*
X192520000Y-55880000D01*
X182590000Y-55880000D02*
X183400000Y-55880000D01*
X188480000Y-116450000D02*
X188480000Y-119770000D01*
X188480000Y-119770000D02*
X197600000Y-119770000D01*
X197600000Y-119770000D02*
X197600000Y-116450000D01*
X197600000Y-116450000D02*
X188480000Y-116450000D01*
X187670000Y-118110000D02*
X188480000Y-118110000D01*
X198410000Y-118110000D02*
X197600000Y-118110000D01*
X176920000Y-97040000D02*
X173600000Y-97040000D01*
X173600000Y-97040000D02*
X173600000Y-106160000D01*
X173600000Y-106160000D02*
X176920000Y-106160000D01*
X176920000Y-106160000D02*
X176920000Y-97040000D01*
X175260000Y-96230000D02*
X175260000Y-97040000D01*
X175260000Y-106970000D02*
X175260000Y-106160000D01*
X159630000Y-106160000D02*
X162950000Y-106160000D01*
X162950000Y-106160000D02*
X162950000Y-97040000D01*
X162950000Y-97040000D02*
X159630000Y-97040000D01*
X159630000Y-97040000D02*
X159630000Y-106160000D01*
X161290000Y-106970000D02*
X161290000Y-106160000D01*
X161290000Y-96230000D02*
X161290000Y-97040000D01*
X168030000Y-84340000D02*
X164710000Y-84340000D01*
X164710000Y-84340000D02*
X164710000Y-93460000D01*
X164710000Y-93460000D02*
X168030000Y-93460000D01*
X168030000Y-93460000D02*
X168030000Y-84340000D01*
X166370000Y-83530000D02*
X166370000Y-84340000D01*
X166370000Y-94270000D02*
X166370000Y-93460000D01*
X171840000Y-84340000D02*
X168520000Y-84340000D01*
X168520000Y-84340000D02*
X168520000Y-93460000D01*
X168520000Y-93460000D02*
X171840000Y-93460000D01*
X171840000Y-93460000D02*
X171840000Y-84340000D01*
X170180000Y-83530000D02*
X170180000Y-84340000D01*
X170180000Y-94270000D02*
X170180000Y-93460000D01*
X187570000Y-104890000D02*
X190890000Y-104890000D01*
X190890000Y-104890000D02*
X190890000Y-95770000D01*
X190890000Y-95770000D02*
X187570000Y-95770000D01*
X187570000Y-95770000D02*
X187570000Y-104890000D01*
X189230000Y-105700000D02*
X189230000Y-104890000D01*
X189230000Y-94960000D02*
X189230000Y-95770000D01*
X167120000Y-114690000D02*
X167120000Y-111370000D01*
X167120000Y-111370000D02*
X158000000Y-111370000D01*
X158000000Y-111370000D02*
X158000000Y-114690000D01*
X158000000Y-114690000D02*
X167120000Y-114690000D01*
X167930000Y-113030000D02*
X167120000Y-113030000D01*
X157190000Y-113030000D02*
X158000000Y-113030000D01*
X181090000Y-119770000D02*
X181090000Y-116450000D01*
X181090000Y-116450000D02*
X171970000Y-116450000D01*
X171970000Y-116450000D02*
X171970000Y-119770000D01*
X171970000Y-119770000D02*
X181090000Y-119770000D01*
X181900000Y-118110000D02*
X181090000Y-118110000D01*
X171160000Y-118110000D02*
X171970000Y-118110000D01*
X140441000Y-42870000D02*
X134920000Y-42870000D01*
X140441000Y-33250000D02*
X134920000Y-33250000D01*
X140441000Y-42870000D02*
X140441000Y-33250000D01*
X134920000Y-42870000D02*
X134920000Y-33250000D01*
X134920000Y-41620000D02*
X129920000Y-41620000D01*
X134920000Y-34500000D02*
X129920000Y-34500000D01*
X134920000Y-41620000D02*
X134920000Y-34500000D01*
X129920000Y-41620000D02*
X129920000Y-34500000D01*
X129920000Y-40620000D02*
X122920000Y-40620000D01*
X129920000Y-35500000D02*
X122920000Y-35500000D01*
X129920000Y-40620000D02*
X129920000Y-35500000D01*
X122920000Y-40620000D02*
X122920000Y-35500000D01*
X140441000Y-58110000D02*
X134920000Y-58110000D01*
X140441000Y-48490000D02*
X134920000Y-48490000D01*
X140441000Y-58110000D02*
X140441000Y-48490000D01*
X134920000Y-58110000D02*
X134920000Y-48490000D01*
X134920000Y-56860000D02*
X129920000Y-56860000D01*
X134920000Y-49740000D02*
X129920000Y-49740000D01*
X134920000Y-56860000D02*
X134920000Y-49740000D01*
X129920000Y-56860000D02*
X129920000Y-49740000D01*
X129920000Y-55860000D02*
X122920000Y-55860000D01*
X129920000Y-50740000D02*
X122920000Y-50740000D01*
X129920000Y-55860000D02*
X129920000Y-50740000D01*
X122920000Y-55860000D02*
X122920000Y-50740000D01*
X140441000Y-88590000D02*
X134920000Y-88590000D01*
X140441000Y-78970000D02*
X134920000Y-78970000D01*
X140441000Y-88590000D02*
X140441000Y-78970000D01*
X134920000Y-88590000D02*
X134920000Y-78970000D01*
X134920000Y-87340000D02*
X129920000Y-87340000D01*
X134920000Y-80220000D02*
X129920000Y-80220000D01*
X134920000Y-87340000D02*
X134920000Y-80220000D01*
X129920000Y-87340000D02*
X129920000Y-80220000D01*
X129920000Y-86340000D02*
X122920000Y-86340000D01*
X129920000Y-81220000D02*
X122920000Y-81220000D01*
X129920000Y-86340000D02*
X129920000Y-81220000D01*
X122920000Y-86340000D02*
X122920000Y-81220000D01*
X174520567Y-41545034D02*
G75*
G02X173585000Y-42660000I-935567J-164966D01*
G01*
X173601056Y-42658737D02*
G75*
G02X173111000Y-40888000I-16056J948737D01*
G01*
X168035000Y-38420000D02*
X174865000Y-38420000D01*
X168035000Y-43040000D02*
X174865000Y-43040000D01*
X168035000Y-38420000D02*
X168035000Y-40175000D01*
X168035000Y-41106000D02*
X168035000Y-43040000D01*
X174865000Y-38420000D02*
X174865000Y-40175000D01*
X174865000Y-41106000D02*
X174865000Y-43040000D01*
X173855000Y-41556000D02*
X172981000Y-42431000D01*
X173620000Y-41560000D02*
X172865000Y-42315000D01*
X166900567Y-60595034D02*
G75*
G02X165965000Y-61710000I-935567J-164966D01*
G01*
X165981056Y-61708737D02*
G75*
G02X165491000Y-59938000I-16056J948737D01*
G01*
X160415000Y-57470000D02*
X167245000Y-57470000D01*
X160415000Y-62090000D02*
X167245000Y-62090000D01*
X160415000Y-57470000D02*
X160415000Y-59225000D01*
X160415000Y-60156000D02*
X160415000Y-62090000D01*
X167245000Y-57470000D02*
X167245000Y-59225000D01*
X167245000Y-60156000D02*
X167245000Y-62090000D01*
X166235000Y-60606000D02*
X165361000Y-61481000D01*
X166000000Y-60610000D02*
X165245000Y-61365000D01*
X140441000Y-103830000D02*
X134920000Y-103830000D01*
X140441000Y-94210000D02*
X134920000Y-94210000D01*
X140441000Y-103830000D02*
X140441000Y-94210000D01*
X134920000Y-103830000D02*
X134920000Y-94210000D01*
X134920000Y-102580000D02*
X129920000Y-102580000D01*
X134920000Y-95460000D02*
X129920000Y-95460000D01*
X134920000Y-102580000D02*
X134920000Y-95460000D01*
X129920000Y-102580000D02*
X129920000Y-95460000D01*
X129920000Y-101580000D02*
X122920000Y-101580000D01*
X129920000Y-96460000D02*
X122920000Y-96460000D01*
X129920000Y-101580000D02*
X129920000Y-96460000D01*
X122920000Y-101580000D02*
X122920000Y-96460000D01*
X140441000Y-119070000D02*
X134920000Y-119070000D01*
X140441000Y-109450000D02*
X134920000Y-109450000D01*
X140441000Y-119070000D02*
X140441000Y-109450000D01*
X134920000Y-119070000D02*
X134920000Y-109450000D01*
X134920000Y-117820000D02*
X129920000Y-117820000D01*
X134920000Y-110700000D02*
X129920000Y-110700000D01*
X134920000Y-117820000D02*
X134920000Y-110700000D01*
X129920000Y-117820000D02*
X129920000Y-110700000D01*
X129920000Y-116820000D02*
X122920000Y-116820000D01*
X129920000Y-111700000D02*
X122920000Y-111700000D01*
X129920000Y-116820000D02*
X129920000Y-111700000D01*
X122920000Y-116820000D02*
X122920000Y-111700000D01*
X183619433Y-89264966D02*
G75*
G02X184555000Y-88150000I935567J164966D01*
G01*
X184538944Y-88151263D02*
G75*
G02X185029000Y-89922000I16056J-948737D01*
G01*
X190105000Y-92390000D02*
X183275000Y-92390000D01*
X190105000Y-87770000D02*
X183275000Y-87770000D01*
X190105000Y-92390000D02*
X190105000Y-90635000D01*
X190105000Y-89704000D02*
X190105000Y-87770000D01*
X183275000Y-92390000D02*
X183275000Y-90635000D01*
X183275000Y-89704000D02*
X183275000Y-87770000D01*
X184285000Y-89254000D02*
X185159000Y-88379000D01*
X184520000Y-89250000D02*
X185275000Y-88495000D01*
X199025034Y-101069433D02*
G75*
G02X200140000Y-102005000I164966J-935567D01*
G01*
X200138737Y-101988944D02*
G75*
G02X198368000Y-102479000I-948737J-16056D01*
G01*
X195900000Y-107555000D02*
X195900000Y-100725000D01*
X200520000Y-107555000D02*
X200520000Y-100725000D01*
X195900000Y-107555000D02*
X197655000Y-107555000D01*
X198586000Y-107555000D02*
X200520000Y-107555000D01*
X195900000Y-100725000D02*
X197655000Y-100725000D01*
X198586000Y-100725000D02*
X200520000Y-100725000D01*
X199036000Y-101735000D02*
X199911000Y-102609000D01*
X199040000Y-101970000D02*
X199795000Y-102725000D01*
X152130000Y-50740000D02*
G75*
G02X150130000Y-50740000I-1000000J0D01*
G01*
X150130000Y-50740000D02*
X148880000Y-50740000D01*
X148880000Y-50740000D02*
X148880000Y-61020000D01*
X148880000Y-61020000D02*
X153380000Y-61020000D01*
X153380000Y-61020000D02*
X153380000Y-50740000D01*
X153380000Y-50740000D02*
X152130000Y-50740000D01*
X145880000Y-50680000D02*
X145880000Y-61080000D01*
X145880000Y-61080000D02*
X156380000Y-61080000D01*
X156380000Y-61080000D02*
X156380000Y-50680000D01*
X156380000Y-50680000D02*
X145880000Y-50680000D01*
X200930000Y-59750000D02*
G75*
G02X202930000Y-59750000I1000000J0D01*
G01*
X202930000Y-59750000D02*
X204180000Y-59750000D01*
X204180000Y-59750000D02*
X204180000Y-49470000D01*
X204180000Y-49470000D02*
X199680000Y-49470000D01*
X199680000Y-49470000D02*
X199680000Y-59750000D01*
X199680000Y-59750000D02*
X200930000Y-59750000D01*
X207180000Y-59810000D02*
X207180000Y-49410000D01*
X207180000Y-49410000D02*
X196680000Y-49410000D01*
X196680000Y-49410000D02*
X196680000Y-59810000D01*
X196680000Y-59810000D02*
X207180000Y-59810000D01*
X186960000Y-85150000D02*
G75*
G02X188960000Y-85150000I1000000J0D01*
G01*
X188960000Y-85150000D02*
X190210000Y-85150000D01*
X190210000Y-85150000D02*
X190210000Y-74870000D01*
X190210000Y-74870000D02*
X185710000Y-74870000D01*
X185710000Y-74870000D02*
X185710000Y-85150000D01*
X185710000Y-85150000D02*
X186960000Y-85150000D01*
X193210000Y-85210000D02*
X193210000Y-74810000D01*
X193210000Y-74810000D02*
X182710000Y-74810000D01*
X182710000Y-74810000D02*
X182710000Y-85210000D01*
X182710000Y-85210000D02*
X193210000Y-85210000D01*
X141986000Y-123190000D02*
G75*
G03X141986000Y-123190000I-2286000J0D01*
G01*
X141986000Y-30480000D02*
G75*
G03X141986000Y-30480000I-2286000J0D01*
G01*
X210566000Y-30480000D02*
G75*
G03X210566000Y-30480000I-2286000J0D01*
G01*
X210566000Y-123190000D02*
G75*
G03X210566000Y-123190000I-2286000J0D01*
G01*
D13*
X137834762Y-74992381D02*
X137501428Y-74516190D01*
X137263333Y-74992381D02*
X137263333Y-73992381D01*
X137644286Y-73992381D01*
X137739524Y-74040000D01*
X137787143Y-74087619D01*
X137834762Y-74182857D01*
X137834762Y-74325714D01*
X137787143Y-74420952D01*
X137739524Y-74468571D01*
X137644286Y-74516190D01*
X137263333Y-74516190D01*
X138120476Y-73992381D02*
X138453809Y-74992381D01*
X138787143Y-73992381D01*
X139025238Y-73992381D02*
X139644286Y-73992381D01*
X139310952Y-74373333D01*
X139453810Y-74373333D01*
X139549048Y-74420952D01*
X139596667Y-74468571D01*
X139644286Y-74563810D01*
X139644286Y-74801905D01*
X139596667Y-74897143D01*
X139549048Y-74944762D01*
X139453810Y-74992381D01*
X139168095Y-74992381D01*
X139072857Y-74944762D01*
X139025238Y-74897143D01*
X155448095Y-90682381D02*
X155448095Y-91491905D01*
X155495714Y-91587143D01*
X155543333Y-91634762D01*
X155638571Y-91682381D01*
X155829048Y-91682381D01*
X155924286Y-91634762D01*
X155971905Y-91587143D01*
X156019524Y-91491905D01*
X156019524Y-90682381D01*
X156924286Y-91015714D02*
X156924286Y-91682381D01*
X156686190Y-90634762D02*
X156448095Y-91349048D01*
X157067143Y-91349048D01*
X147677143Y-73826666D02*
X147724762Y-73874285D01*
X147772381Y-74017142D01*
X147772381Y-74112380D01*
X147724762Y-74255238D01*
X147629524Y-74350476D01*
X147534286Y-74398095D01*
X147343810Y-74445714D01*
X147200952Y-74445714D01*
X147010476Y-74398095D01*
X146915238Y-74350476D01*
X146820000Y-74255238D01*
X146772381Y-74112380D01*
X146772381Y-74017142D01*
X146820000Y-73874285D01*
X146867619Y-73826666D01*
X147772381Y-72874285D02*
X147772381Y-73445714D01*
X147772381Y-73160000D02*
X146772381Y-73160000D01*
X146915238Y-73255238D01*
X147010476Y-73350476D01*
X147058095Y-73445714D01*
X185313334Y-48437143D02*
X185265715Y-48484762D01*
X185122858Y-48532381D01*
X185027620Y-48532381D01*
X184884762Y-48484762D01*
X184789524Y-48389524D01*
X184741905Y-48294286D01*
X184694286Y-48103810D01*
X184694286Y-47960952D01*
X184741905Y-47770476D01*
X184789524Y-47675238D01*
X184884762Y-47580000D01*
X185027620Y-47532381D01*
X185122858Y-47532381D01*
X185265715Y-47580000D01*
X185313334Y-47627619D01*
X185694286Y-47627619D02*
X185741905Y-47580000D01*
X185837143Y-47532381D01*
X186075239Y-47532381D01*
X186170477Y-47580000D01*
X186218096Y-47627619D01*
X186265715Y-47722857D01*
X186265715Y-47818095D01*
X186218096Y-47960952D01*
X185646667Y-48532381D01*
X186265715Y-48532381D01*
X201823334Y-85267143D02*
X201775715Y-85314762D01*
X201632858Y-85362381D01*
X201537620Y-85362381D01*
X201394762Y-85314762D01*
X201299524Y-85219524D01*
X201251905Y-85124286D01*
X201204286Y-84933810D01*
X201204286Y-84790952D01*
X201251905Y-84600476D01*
X201299524Y-84505238D01*
X201394762Y-84410000D01*
X201537620Y-84362381D01*
X201632858Y-84362381D01*
X201775715Y-84410000D01*
X201823334Y-84457619D01*
X202156667Y-84362381D02*
X202775715Y-84362381D01*
X202442381Y-84743333D01*
X202585239Y-84743333D01*
X202680477Y-84790952D01*
X202728096Y-84838571D01*
X202775715Y-84933810D01*
X202775715Y-85171905D01*
X202728096Y-85267143D01*
X202680477Y-85314762D01*
X202585239Y-85362381D01*
X202299524Y-85362381D01*
X202204286Y-85314762D01*
X202156667Y-85267143D01*
X169447143Y-58646666D02*
X169494762Y-58694285D01*
X169542381Y-58837142D01*
X169542381Y-58932380D01*
X169494762Y-59075238D01*
X169399524Y-59170476D01*
X169304286Y-59218095D01*
X169113810Y-59265714D01*
X168970952Y-59265714D01*
X168780476Y-59218095D01*
X168685238Y-59170476D01*
X168590000Y-59075238D01*
X168542381Y-58932380D01*
X168542381Y-58837142D01*
X168590000Y-58694285D01*
X168637619Y-58646666D01*
X168875714Y-57789523D02*
X169542381Y-57789523D01*
X168494762Y-58027619D02*
X169209048Y-58265714D01*
X169209048Y-57646666D01*
X163091905Y-55062381D02*
X163091905Y-54062381D01*
X163330000Y-54062381D01*
X163472858Y-54110000D01*
X163568096Y-54205238D01*
X163615715Y-54300476D01*
X163663334Y-54490952D01*
X163663334Y-54633810D01*
X163615715Y-54824286D01*
X163568096Y-54919524D01*
X163472858Y-55014762D01*
X163330000Y-55062381D01*
X163091905Y-55062381D01*
X164615715Y-55062381D02*
X164044286Y-55062381D01*
X164330000Y-55062381D02*
X164330000Y-54062381D01*
X164234762Y-54205238D01*
X164139524Y-54300476D01*
X164044286Y-54348095D01*
X142752381Y-91773333D02*
X143466667Y-91773333D01*
X143609524Y-91820953D01*
X143704762Y-91916191D01*
X143752381Y-92059048D01*
X143752381Y-92154286D01*
X143752381Y-90773333D02*
X143752381Y-91344762D01*
X143752381Y-91059048D02*
X142752381Y-91059048D01*
X142895238Y-91154286D01*
X142990476Y-91249524D01*
X143038095Y-91344762D01*
X143172381Y-29543333D02*
X143886667Y-29543333D01*
X144029524Y-29590953D01*
X144124762Y-29686191D01*
X144172381Y-29829048D01*
X144172381Y-29924286D01*
X143267619Y-29114762D02*
X143220000Y-29067143D01*
X143172381Y-28971905D01*
X143172381Y-28733809D01*
X143220000Y-28638571D01*
X143267619Y-28590952D01*
X143362857Y-28543333D01*
X143458095Y-28543333D01*
X143600952Y-28590952D01*
X144172381Y-29162381D01*
X144172381Y-28543333D01*
X142752381Y-61293333D02*
X143466667Y-61293333D01*
X143609524Y-61340953D01*
X143704762Y-61436191D01*
X143752381Y-61579048D01*
X143752381Y-61674286D01*
X142752381Y-60912381D02*
X142752381Y-60293333D01*
X143133333Y-60626667D01*
X143133333Y-60483809D01*
X143180952Y-60388571D01*
X143228571Y-60340952D01*
X143323810Y-60293333D01*
X143561905Y-60293333D01*
X143657143Y-60340952D01*
X143704762Y-60388571D01*
X143752381Y-60483809D01*
X143752381Y-60769524D01*
X143704762Y-60864762D01*
X143657143Y-60912381D01*
X142752381Y-76533333D02*
X143466667Y-76533333D01*
X143609524Y-76580953D01*
X143704762Y-76676191D01*
X143752381Y-76819048D01*
X143752381Y-76914286D01*
X143085714Y-75628571D02*
X143752381Y-75628571D01*
X142704762Y-75866667D02*
X143419048Y-76104762D01*
X143419048Y-75485714D01*
X205406667Y-103802381D02*
X205406667Y-104516667D01*
X205359047Y-104659524D01*
X205263809Y-104754762D01*
X205120952Y-104802381D01*
X205025714Y-104802381D01*
X206359048Y-103802381D02*
X205882857Y-103802381D01*
X205835238Y-104278571D01*
X205882857Y-104230952D01*
X205978095Y-104183333D01*
X206216191Y-104183333D01*
X206311429Y-104230952D01*
X206359048Y-104278571D01*
X206406667Y-104373810D01*
X206406667Y-104611905D01*
X206359048Y-104707143D01*
X206311429Y-104754762D01*
X206216191Y-104802381D01*
X205978095Y-104802381D01*
X205882857Y-104754762D01*
X205835238Y-104707143D01*
X171112381Y-123523333D02*
X171826667Y-123523333D01*
X171969524Y-123570953D01*
X172064762Y-123666191D01*
X172112381Y-123809048D01*
X172112381Y-123904286D01*
X171112381Y-122618571D02*
X171112381Y-122809048D01*
X171160000Y-122904286D01*
X171207619Y-122951905D01*
X171350476Y-123047143D01*
X171540952Y-123094762D01*
X171921905Y-123094762D01*
X172017143Y-123047143D01*
X172064762Y-122999524D01*
X172112381Y-122904286D01*
X172112381Y-122713809D01*
X172064762Y-122618571D01*
X172017143Y-122570952D01*
X171921905Y-122523333D01*
X171683810Y-122523333D01*
X171588571Y-122570952D01*
X171540952Y-122618571D01*
X171493333Y-122713809D01*
X171493333Y-122904286D01*
X171540952Y-122999524D01*
X171588571Y-123047143D01*
X171683810Y-123094762D01*
X188472381Y-123523333D02*
X189186667Y-123523333D01*
X189329524Y-123570953D01*
X189424762Y-123666191D01*
X189472381Y-123809048D01*
X189472381Y-123904286D01*
X188472381Y-123142381D02*
X188472381Y-122475714D01*
X189472381Y-122904286D01*
X204982381Y-76533333D02*
X205696667Y-76533333D01*
X205839524Y-76580953D01*
X205934762Y-76676191D01*
X205982381Y-76819048D01*
X205982381Y-76914286D01*
X205410952Y-75914286D02*
X205363333Y-76009524D01*
X205315714Y-76057143D01*
X205220476Y-76104762D01*
X205172857Y-76104762D01*
X205077619Y-76057143D01*
X205030000Y-76009524D01*
X204982381Y-75914286D01*
X204982381Y-75723809D01*
X205030000Y-75628571D01*
X205077619Y-75580952D01*
X205172857Y-75533333D01*
X205220476Y-75533333D01*
X205315714Y-75580952D01*
X205363333Y-75628571D01*
X205410952Y-75723809D01*
X205410952Y-75914286D01*
X205458571Y-76009524D01*
X205506190Y-76057143D01*
X205601429Y-76104762D01*
X205791905Y-76104762D01*
X205887143Y-76057143D01*
X205934762Y-76009524D01*
X205982381Y-75914286D01*
X205982381Y-75723809D01*
X205934762Y-75628571D01*
X205887143Y-75580952D01*
X205791905Y-75533333D01*
X205601429Y-75533333D01*
X205506190Y-75580952D01*
X205458571Y-75628571D01*
X205410952Y-75723809D01*
X182784762Y-44747619D02*
X182689524Y-44700000D01*
X182594286Y-44604762D01*
X182451429Y-44461905D01*
X182356190Y-44414286D01*
X182260952Y-44414286D01*
X182308571Y-44652381D02*
X182213333Y-44604762D01*
X182118095Y-44509524D01*
X182070476Y-44319048D01*
X182070476Y-43985714D01*
X182118095Y-43795238D01*
X182213333Y-43700000D01*
X182308571Y-43652381D01*
X182499048Y-43652381D01*
X182594286Y-43700000D01*
X182689524Y-43795238D01*
X182737143Y-43985714D01*
X182737143Y-44319048D01*
X182689524Y-44509524D01*
X182594286Y-44604762D01*
X182499048Y-44652381D01*
X182308571Y-44652381D01*
X183689524Y-44652381D02*
X183118095Y-44652381D01*
X183403809Y-44652381D02*
X183403809Y-43652381D01*
X183308571Y-43795238D01*
X183213333Y-43890476D01*
X183118095Y-43938095D01*
X182784762Y-32547619D02*
X182689524Y-32500000D01*
X182594286Y-32404762D01*
X182451429Y-32261905D01*
X182356190Y-32214286D01*
X182260952Y-32214286D01*
X182308571Y-32452381D02*
X182213333Y-32404762D01*
X182118095Y-32309524D01*
X182070476Y-32119048D01*
X182070476Y-31785714D01*
X182118095Y-31595238D01*
X182213333Y-31500000D01*
X182308571Y-31452381D01*
X182499048Y-31452381D01*
X182594286Y-31500000D01*
X182689524Y-31595238D01*
X182737143Y-31785714D01*
X182737143Y-32119048D01*
X182689524Y-32309524D01*
X182594286Y-32404762D01*
X182499048Y-32452381D01*
X182308571Y-32452381D01*
X183118095Y-31547619D02*
X183165714Y-31500000D01*
X183260952Y-31452381D01*
X183499048Y-31452381D01*
X183594286Y-31500000D01*
X183641905Y-31547619D01*
X183689524Y-31642857D01*
X183689524Y-31738095D01*
X183641905Y-31880952D01*
X183070476Y-32452381D01*
X183689524Y-32452381D01*
X183177619Y-69945238D02*
X183130000Y-70040476D01*
X183034762Y-70135714D01*
X182891905Y-70278571D01*
X182844286Y-70373810D01*
X182844286Y-70469048D01*
X183082381Y-70421429D02*
X183034762Y-70516667D01*
X182939524Y-70611905D01*
X182749048Y-70659524D01*
X182415714Y-70659524D01*
X182225238Y-70611905D01*
X182130000Y-70516667D01*
X182082381Y-70421429D01*
X182082381Y-70230952D01*
X182130000Y-70135714D01*
X182225238Y-70040476D01*
X182415714Y-69992857D01*
X182749048Y-69992857D01*
X182939524Y-70040476D01*
X183034762Y-70135714D01*
X183082381Y-70230952D01*
X183082381Y-70421429D01*
X182082381Y-69659524D02*
X182082381Y-69040476D01*
X182463333Y-69373810D01*
X182463333Y-69230952D01*
X182510952Y-69135714D01*
X182558571Y-69088095D01*
X182653810Y-69040476D01*
X182891905Y-69040476D01*
X182987143Y-69088095D01*
X183034762Y-69135714D01*
X183082381Y-69230952D01*
X183082381Y-69516667D01*
X183034762Y-69611905D01*
X182987143Y-69659524D01*
X181514762Y-93507619D02*
X181419524Y-93460000D01*
X181324286Y-93364762D01*
X181181429Y-93221905D01*
X181086190Y-93174286D01*
X180990952Y-93174286D01*
X181038571Y-93412381D02*
X180943333Y-93364762D01*
X180848095Y-93269524D01*
X180800476Y-93079048D01*
X180800476Y-92745714D01*
X180848095Y-92555238D01*
X180943333Y-92460000D01*
X181038571Y-92412381D01*
X181229048Y-92412381D01*
X181324286Y-92460000D01*
X181419524Y-92555238D01*
X181467143Y-92745714D01*
X181467143Y-93079048D01*
X181419524Y-93269524D01*
X181324286Y-93364762D01*
X181229048Y-93412381D01*
X181038571Y-93412381D01*
X182324286Y-92745714D02*
X182324286Y-93412381D01*
X182086190Y-92364762D02*
X181848095Y-93079048D01*
X182467143Y-93079048D01*
X176057619Y-62325238D02*
X176010000Y-62420476D01*
X175914762Y-62515714D01*
X175771905Y-62658571D01*
X175724286Y-62753810D01*
X175724286Y-62849048D01*
X175962381Y-62801429D02*
X175914762Y-62896667D01*
X175819524Y-62991905D01*
X175629048Y-63039524D01*
X175295714Y-63039524D01*
X175105238Y-62991905D01*
X175010000Y-62896667D01*
X174962381Y-62801429D01*
X174962381Y-62610952D01*
X175010000Y-62515714D01*
X175105238Y-62420476D01*
X175295714Y-62372857D01*
X175629048Y-62372857D01*
X175819524Y-62420476D01*
X175914762Y-62515714D01*
X175962381Y-62610952D01*
X175962381Y-62801429D01*
X174962381Y-61468095D02*
X174962381Y-61944286D01*
X175438571Y-61991905D01*
X175390952Y-61944286D01*
X175343333Y-61849048D01*
X175343333Y-61610952D01*
X175390952Y-61515714D01*
X175438571Y-61468095D01*
X175533810Y-61420476D01*
X175771905Y-61420476D01*
X175867143Y-61468095D01*
X175914762Y-61515714D01*
X175962381Y-61610952D01*
X175962381Y-61849048D01*
X175914762Y-61944286D01*
X175867143Y-61991905D01*
X181514762Y-106977619D02*
X181419524Y-106930000D01*
X181324286Y-106834762D01*
X181181429Y-106691905D01*
X181086190Y-106644286D01*
X180990952Y-106644286D01*
X181038571Y-106882381D02*
X180943333Y-106834762D01*
X180848095Y-106739524D01*
X180800476Y-106549048D01*
X180800476Y-106215714D01*
X180848095Y-106025238D01*
X180943333Y-105930000D01*
X181038571Y-105882381D01*
X181229048Y-105882381D01*
X181324286Y-105930000D01*
X181419524Y-106025238D01*
X181467143Y-106215714D01*
X181467143Y-106549048D01*
X181419524Y-106739524D01*
X181324286Y-106834762D01*
X181229048Y-106882381D01*
X181038571Y-106882381D01*
X182324286Y-105882381D02*
X182133809Y-105882381D01*
X182038571Y-105930000D01*
X181990952Y-105977619D01*
X181895714Y-106120476D01*
X181848095Y-106310952D01*
X181848095Y-106691905D01*
X181895714Y-106787143D01*
X181943333Y-106834762D01*
X182038571Y-106882381D01*
X182229048Y-106882381D01*
X182324286Y-106834762D01*
X182371905Y-106787143D01*
X182419524Y-106691905D01*
X182419524Y-106453810D01*
X182371905Y-106358571D01*
X182324286Y-106310952D01*
X182229048Y-106263333D01*
X182038571Y-106263333D01*
X181943333Y-106310952D01*
X181895714Y-106358571D01*
X181848095Y-106453810D01*
X152233334Y-33472381D02*
X151900000Y-32996190D01*
X151661905Y-33472381D02*
X151661905Y-32472381D01*
X152042858Y-32472381D01*
X152138096Y-32520000D01*
X152185715Y-32567619D01*
X152233334Y-32662857D01*
X152233334Y-32805714D01*
X152185715Y-32900952D01*
X152138096Y-32948571D01*
X152042858Y-32996190D01*
X151661905Y-32996190D01*
X153185715Y-33472381D02*
X152614286Y-33472381D01*
X152900000Y-33472381D02*
X152900000Y-32472381D01*
X152804762Y-32615238D01*
X152709524Y-32710476D01*
X152614286Y-32758095D01*
X152233334Y-47442381D02*
X151900000Y-46966190D01*
X151661905Y-47442381D02*
X151661905Y-46442381D01*
X152042858Y-46442381D01*
X152138096Y-46490000D01*
X152185715Y-46537619D01*
X152233334Y-46632857D01*
X152233334Y-46775714D01*
X152185715Y-46870952D01*
X152138096Y-46918571D01*
X152042858Y-46966190D01*
X151661905Y-46966190D01*
X152614286Y-46537619D02*
X152661905Y-46490000D01*
X152757143Y-46442381D01*
X152995239Y-46442381D01*
X153090477Y-46490000D01*
X153138096Y-46537619D01*
X153185715Y-46632857D01*
X153185715Y-46728095D01*
X153138096Y-46870952D01*
X152566667Y-47442381D01*
X153185715Y-47442381D01*
X152233334Y-38552381D02*
X151900000Y-38076190D01*
X151661905Y-38552381D02*
X151661905Y-37552381D01*
X152042858Y-37552381D01*
X152138096Y-37600000D01*
X152185715Y-37647619D01*
X152233334Y-37742857D01*
X152233334Y-37885714D01*
X152185715Y-37980952D01*
X152138096Y-38028571D01*
X152042858Y-38076190D01*
X151661905Y-38076190D01*
X152566667Y-37552381D02*
X153185715Y-37552381D01*
X152852381Y-37933333D01*
X152995239Y-37933333D01*
X153090477Y-37980952D01*
X153138096Y-38028571D01*
X153185715Y-38123810D01*
X153185715Y-38361905D01*
X153138096Y-38457143D01*
X153090477Y-38504762D01*
X152995239Y-38552381D01*
X152709524Y-38552381D01*
X152614286Y-38504762D01*
X152566667Y-38457143D01*
X152233334Y-43632381D02*
X151900000Y-43156190D01*
X151661905Y-43632381D02*
X151661905Y-42632381D01*
X152042858Y-42632381D01*
X152138096Y-42680000D01*
X152185715Y-42727619D01*
X152233334Y-42822857D01*
X152233334Y-42965714D01*
X152185715Y-43060952D01*
X152138096Y-43108571D01*
X152042858Y-43156190D01*
X151661905Y-43156190D01*
X153090477Y-42965714D02*
X153090477Y-43632381D01*
X152852381Y-42584762D02*
X152614286Y-43299048D01*
X153233334Y-43299048D01*
X165552381Y-35726666D02*
X165076190Y-36060000D01*
X165552381Y-36298095D02*
X164552381Y-36298095D01*
X164552381Y-35917142D01*
X164600000Y-35821904D01*
X164647619Y-35774285D01*
X164742857Y-35726666D01*
X164885714Y-35726666D01*
X164980952Y-35774285D01*
X165028571Y-35821904D01*
X165076190Y-35917142D01*
X165076190Y-36298095D01*
X164552381Y-34821904D02*
X164552381Y-35298095D01*
X165028571Y-35345714D01*
X164980952Y-35298095D01*
X164933333Y-35202857D01*
X164933333Y-34964761D01*
X164980952Y-34869523D01*
X165028571Y-34821904D01*
X165123810Y-34774285D01*
X165361905Y-34774285D01*
X165457143Y-34821904D01*
X165504762Y-34869523D01*
X165552381Y-34964761D01*
X165552381Y-35202857D01*
X165504762Y-35298095D01*
X165457143Y-35345714D01*
X189063334Y-51252381D02*
X188730000Y-50776190D01*
X188491905Y-51252381D02*
X188491905Y-50252381D01*
X188872858Y-50252381D01*
X188968096Y-50300000D01*
X189015715Y-50347619D01*
X189063334Y-50442857D01*
X189063334Y-50585714D01*
X189015715Y-50680952D01*
X188968096Y-50728571D01*
X188872858Y-50776190D01*
X188491905Y-50776190D01*
X189920477Y-50252381D02*
X189730000Y-50252381D01*
X189634762Y-50300000D01*
X189587143Y-50347619D01*
X189491905Y-50490476D01*
X189444286Y-50680952D01*
X189444286Y-51061905D01*
X189491905Y-51157143D01*
X189539524Y-51204762D01*
X189634762Y-51252381D01*
X189825239Y-51252381D01*
X189920477Y-51204762D01*
X189968096Y-51157143D01*
X190015715Y-51061905D01*
X190015715Y-50823810D01*
X189968096Y-50728571D01*
X189920477Y-50680952D01*
X189825239Y-50633333D01*
X189634762Y-50633333D01*
X189539524Y-50680952D01*
X189491905Y-50728571D01*
X189444286Y-50823810D01*
X161123334Y-66492381D02*
X160790000Y-66016190D01*
X160551905Y-66492381D02*
X160551905Y-65492381D01*
X160932858Y-65492381D01*
X161028096Y-65540000D01*
X161075715Y-65587619D01*
X161123334Y-65682857D01*
X161123334Y-65825714D01*
X161075715Y-65920952D01*
X161028096Y-65968571D01*
X160932858Y-66016190D01*
X160551905Y-66016190D01*
X161456667Y-65492381D02*
X162123334Y-65492381D01*
X161694762Y-66492381D01*
X178252381Y-36996666D02*
X177776190Y-37330000D01*
X178252381Y-37568095D02*
X177252381Y-37568095D01*
X177252381Y-37187142D01*
X177300000Y-37091904D01*
X177347619Y-37044285D01*
X177442857Y-36996666D01*
X177585714Y-36996666D01*
X177680952Y-37044285D01*
X177728571Y-37091904D01*
X177776190Y-37187142D01*
X177776190Y-37568095D01*
X177680952Y-36425238D02*
X177633333Y-36520476D01*
X177585714Y-36568095D01*
X177490476Y-36615714D01*
X177442857Y-36615714D01*
X177347619Y-36568095D01*
X177300000Y-36520476D01*
X177252381Y-36425238D01*
X177252381Y-36234761D01*
X177300000Y-36139523D01*
X177347619Y-36091904D01*
X177442857Y-36044285D01*
X177490476Y-36044285D01*
X177585714Y-36091904D01*
X177633333Y-36139523D01*
X177680952Y-36234761D01*
X177680952Y-36425238D01*
X177728571Y-36520476D01*
X177776190Y-36568095D01*
X177871429Y-36615714D01*
X178061905Y-36615714D01*
X178157143Y-36568095D01*
X178204762Y-36520476D01*
X178252381Y-36425238D01*
X178252381Y-36234761D01*
X178204762Y-36139523D01*
X178157143Y-36091904D01*
X178061905Y-36044285D01*
X177871429Y-36044285D01*
X177776190Y-36091904D01*
X177728571Y-36139523D01*
X177680952Y-36234761D01*
X168743334Y-51252381D02*
X168410000Y-50776190D01*
X168171905Y-51252381D02*
X168171905Y-50252381D01*
X168552858Y-50252381D01*
X168648096Y-50300000D01*
X168695715Y-50347619D01*
X168743334Y-50442857D01*
X168743334Y-50585714D01*
X168695715Y-50680952D01*
X168648096Y-50728571D01*
X168552858Y-50776190D01*
X168171905Y-50776190D01*
X169219524Y-51252381D02*
X169410000Y-51252381D01*
X169505239Y-51204762D01*
X169552858Y-51157143D01*
X169648096Y-51014286D01*
X169695715Y-50823810D01*
X169695715Y-50442857D01*
X169648096Y-50347619D01*
X169600477Y-50300000D01*
X169505239Y-50252381D01*
X169314762Y-50252381D01*
X169219524Y-50300000D01*
X169171905Y-50347619D01*
X169124286Y-50442857D01*
X169124286Y-50680952D01*
X169171905Y-50776190D01*
X169219524Y-50823810D01*
X169314762Y-50871429D01*
X169505239Y-50871429D01*
X169600477Y-50823810D01*
X169648096Y-50776190D01*
X169695715Y-50680952D01*
X160472381Y-33662857D02*
X159996190Y-33996191D01*
X160472381Y-34234286D02*
X159472381Y-34234286D01*
X159472381Y-33853333D01*
X159520000Y-33758095D01*
X159567619Y-33710476D01*
X159662857Y-33662857D01*
X159805714Y-33662857D01*
X159900952Y-33710476D01*
X159948571Y-33758095D01*
X159996190Y-33853333D01*
X159996190Y-34234286D01*
X160472381Y-32710476D02*
X160472381Y-33281905D01*
X160472381Y-32996191D02*
X159472381Y-32996191D01*
X159615238Y-33091429D01*
X159710476Y-33186667D01*
X159758095Y-33281905D01*
X159472381Y-32091429D02*
X159472381Y-31996190D01*
X159520000Y-31900952D01*
X159567619Y-31853333D01*
X159662857Y-31805714D01*
X159853333Y-31758095D01*
X160091429Y-31758095D01*
X160281905Y-31805714D01*
X160377143Y-31853333D01*
X160424762Y-31900952D01*
X160472381Y-31996190D01*
X160472381Y-32091429D01*
X160424762Y-32186667D01*
X160377143Y-32234286D01*
X160281905Y-32281905D01*
X160091429Y-32329524D01*
X159853333Y-32329524D01*
X159662857Y-32281905D01*
X159567619Y-32234286D01*
X159520000Y-32186667D01*
X159472381Y-32091429D01*
X193492381Y-36202857D02*
X193016190Y-36536191D01*
X193492381Y-36774286D02*
X192492381Y-36774286D01*
X192492381Y-36393333D01*
X192540000Y-36298095D01*
X192587619Y-36250476D01*
X192682857Y-36202857D01*
X192825714Y-36202857D01*
X192920952Y-36250476D01*
X192968571Y-36298095D01*
X193016190Y-36393333D01*
X193016190Y-36774286D01*
X193492381Y-35250476D02*
X193492381Y-35821905D01*
X193492381Y-35536191D02*
X192492381Y-35536191D01*
X192635238Y-35631429D01*
X192730476Y-35726667D01*
X192778095Y-35821905D01*
X193492381Y-34298095D02*
X193492381Y-34869524D01*
X193492381Y-34583810D02*
X192492381Y-34583810D01*
X192635238Y-34679048D01*
X192730476Y-34774286D01*
X192778095Y-34869524D01*
X205097143Y-65222381D02*
X204763809Y-64746190D01*
X204525714Y-65222381D02*
X204525714Y-64222381D01*
X204906667Y-64222381D01*
X205001905Y-64270000D01*
X205049524Y-64317619D01*
X205097143Y-64412857D01*
X205097143Y-64555714D01*
X205049524Y-64650952D01*
X205001905Y-64698571D01*
X204906667Y-64746190D01*
X204525714Y-64746190D01*
X206049524Y-65222381D02*
X205478095Y-65222381D01*
X205763809Y-65222381D02*
X205763809Y-64222381D01*
X205668571Y-64365238D01*
X205573333Y-64460476D01*
X205478095Y-64508095D01*
X206430476Y-64317619D02*
X206478095Y-64270000D01*
X206573333Y-64222381D01*
X206811429Y-64222381D01*
X206906667Y-64270000D01*
X206954286Y-64317619D01*
X207001905Y-64412857D01*
X207001905Y-64508095D01*
X206954286Y-64650952D01*
X206382857Y-65222381D01*
X207001905Y-65222381D01*
X210002381Y-53982857D02*
X209526190Y-54316191D01*
X210002381Y-54554286D02*
X209002381Y-54554286D01*
X209002381Y-54173333D01*
X209050000Y-54078095D01*
X209097619Y-54030476D01*
X209192857Y-53982857D01*
X209335714Y-53982857D01*
X209430952Y-54030476D01*
X209478571Y-54078095D01*
X209526190Y-54173333D01*
X209526190Y-54554286D01*
X210002381Y-53030476D02*
X210002381Y-53601905D01*
X210002381Y-53316191D02*
X209002381Y-53316191D01*
X209145238Y-53411429D01*
X209240476Y-53506667D01*
X209288095Y-53601905D01*
X209002381Y-52697143D02*
X209002381Y-52078095D01*
X209383333Y-52411429D01*
X209383333Y-52268571D01*
X209430952Y-52173333D01*
X209478571Y-52125714D01*
X209573810Y-52078095D01*
X209811905Y-52078095D01*
X209907143Y-52125714D01*
X209954762Y-52173333D01*
X210002381Y-52268571D01*
X210002381Y-52554286D01*
X209954762Y-52649524D01*
X209907143Y-52697143D01*
X147772381Y-95892857D02*
X147296190Y-96226191D01*
X147772381Y-96464286D02*
X146772381Y-96464286D01*
X146772381Y-96083333D01*
X146820000Y-95988095D01*
X146867619Y-95940476D01*
X146962857Y-95892857D01*
X147105714Y-95892857D01*
X147200952Y-95940476D01*
X147248571Y-95988095D01*
X147296190Y-96083333D01*
X147296190Y-96464286D01*
X147772381Y-94940476D02*
X147772381Y-95511905D01*
X147772381Y-95226191D02*
X146772381Y-95226191D01*
X146915238Y-95321429D01*
X147010476Y-95416667D01*
X147058095Y-95511905D01*
X147105714Y-94083333D02*
X147772381Y-94083333D01*
X146724762Y-94321429D02*
X147439048Y-94559524D01*
X147439048Y-93940476D01*
X149042381Y-113672857D02*
X148566190Y-114006191D01*
X149042381Y-114244286D02*
X148042381Y-114244286D01*
X148042381Y-113863333D01*
X148090000Y-113768095D01*
X148137619Y-113720476D01*
X148232857Y-113672857D01*
X148375714Y-113672857D01*
X148470952Y-113720476D01*
X148518571Y-113768095D01*
X148566190Y-113863333D01*
X148566190Y-114244286D01*
X149042381Y-112720476D02*
X149042381Y-113291905D01*
X149042381Y-113006191D02*
X148042381Y-113006191D01*
X148185238Y-113101429D01*
X148280476Y-113196667D01*
X148328095Y-113291905D01*
X148042381Y-111815714D02*
X148042381Y-112291905D01*
X148518571Y-112339524D01*
X148470952Y-112291905D01*
X148423333Y-112196667D01*
X148423333Y-111958571D01*
X148470952Y-111863333D01*
X148518571Y-111815714D01*
X148613810Y-111768095D01*
X148851905Y-111768095D01*
X148947143Y-111815714D01*
X148994762Y-111863333D01*
X149042381Y-111958571D01*
X149042381Y-112196667D01*
X148994762Y-112291905D01*
X148947143Y-112339524D01*
X210002381Y-79382857D02*
X209526190Y-79716191D01*
X210002381Y-79954286D02*
X209002381Y-79954286D01*
X209002381Y-79573333D01*
X209050000Y-79478095D01*
X209097619Y-79430476D01*
X209192857Y-79382857D01*
X209335714Y-79382857D01*
X209430952Y-79430476D01*
X209478571Y-79478095D01*
X209526190Y-79573333D01*
X209526190Y-79954286D01*
X210002381Y-78430476D02*
X210002381Y-79001905D01*
X210002381Y-78716191D02*
X209002381Y-78716191D01*
X209145238Y-78811429D01*
X209240476Y-78906667D01*
X209288095Y-79001905D01*
X209002381Y-77573333D02*
X209002381Y-77763810D01*
X209050000Y-77859048D01*
X209097619Y-77906667D01*
X209240476Y-78001905D01*
X209430952Y-78049524D01*
X209811905Y-78049524D01*
X209907143Y-78001905D01*
X209954762Y-77954286D01*
X210002381Y-77859048D01*
X210002381Y-77668571D01*
X209954762Y-77573333D01*
X209907143Y-77525714D01*
X209811905Y-77478095D01*
X209573810Y-77478095D01*
X209478571Y-77525714D01*
X209430952Y-77573333D01*
X209383333Y-77668571D01*
X209383333Y-77859048D01*
X209430952Y-77954286D01*
X209478571Y-78001905D01*
X209573810Y-78049524D01*
X176982381Y-80652857D02*
X176506190Y-80986191D01*
X176982381Y-81224286D02*
X175982381Y-81224286D01*
X175982381Y-80843333D01*
X176030000Y-80748095D01*
X176077619Y-80700476D01*
X176172857Y-80652857D01*
X176315714Y-80652857D01*
X176410952Y-80700476D01*
X176458571Y-80748095D01*
X176506190Y-80843333D01*
X176506190Y-81224286D01*
X176982381Y-79700476D02*
X176982381Y-80271905D01*
X176982381Y-79986191D02*
X175982381Y-79986191D01*
X176125238Y-80081429D01*
X176220476Y-80176667D01*
X176268095Y-80271905D01*
X175982381Y-79367143D02*
X175982381Y-78700476D01*
X176982381Y-79129048D01*
X159377143Y-74112381D02*
X159043809Y-73636190D01*
X158805714Y-74112381D02*
X158805714Y-73112381D01*
X159186667Y-73112381D01*
X159281905Y-73160000D01*
X159329524Y-73207619D01*
X159377143Y-73302857D01*
X159377143Y-73445714D01*
X159329524Y-73540952D01*
X159281905Y-73588571D01*
X159186667Y-73636190D01*
X158805714Y-73636190D01*
X160329524Y-74112381D02*
X159758095Y-74112381D01*
X160043809Y-74112381D02*
X160043809Y-73112381D01*
X159948571Y-73255238D01*
X159853333Y-73350476D01*
X159758095Y-73398095D01*
X160900952Y-73540952D02*
X160805714Y-73493333D01*
X160758095Y-73445714D01*
X160710476Y-73350476D01*
X160710476Y-73302857D01*
X160758095Y-73207619D01*
X160805714Y-73160000D01*
X160900952Y-73112381D01*
X161091429Y-73112381D01*
X161186667Y-73160000D01*
X161234286Y-73207619D01*
X161281905Y-73302857D01*
X161281905Y-73350476D01*
X161234286Y-73445714D01*
X161186667Y-73493333D01*
X161091429Y-73540952D01*
X160900952Y-73540952D01*
X160805714Y-73588571D01*
X160758095Y-73636190D01*
X160710476Y-73731429D01*
X160710476Y-73921905D01*
X160758095Y-74017143D01*
X160805714Y-74064762D01*
X160900952Y-74112381D01*
X161091429Y-74112381D01*
X161186667Y-74064762D01*
X161234286Y-74017143D01*
X161281905Y-73921905D01*
X161281905Y-73731429D01*
X161234286Y-73636190D01*
X161186667Y-73588571D01*
X161091429Y-73540952D01*
X205097143Y-91892381D02*
X204763809Y-91416190D01*
X204525714Y-91892381D02*
X204525714Y-90892381D01*
X204906667Y-90892381D01*
X205001905Y-90940000D01*
X205049524Y-90987619D01*
X205097143Y-91082857D01*
X205097143Y-91225714D01*
X205049524Y-91320952D01*
X205001905Y-91368571D01*
X204906667Y-91416190D01*
X204525714Y-91416190D01*
X206049524Y-91892381D02*
X205478095Y-91892381D01*
X205763809Y-91892381D02*
X205763809Y-90892381D01*
X205668571Y-91035238D01*
X205573333Y-91130476D01*
X205478095Y-91178095D01*
X206525714Y-91892381D02*
X206716190Y-91892381D01*
X206811429Y-91844762D01*
X206859048Y-91797143D01*
X206954286Y-91654286D01*
X207001905Y-91463810D01*
X207001905Y-91082857D01*
X206954286Y-90987619D01*
X206906667Y-90940000D01*
X206811429Y-90892381D01*
X206620952Y-90892381D01*
X206525714Y-90940000D01*
X206478095Y-90987619D01*
X206430476Y-91082857D01*
X206430476Y-91320952D01*
X206478095Y-91416190D01*
X206525714Y-91463810D01*
X206620952Y-91511429D01*
X206811429Y-91511429D01*
X206906667Y-91463810D01*
X206954286Y-91416190D01*
X207001905Y-91320952D01*
X205097143Y-71572381D02*
X204763809Y-71096190D01*
X204525714Y-71572381D02*
X204525714Y-70572381D01*
X204906667Y-70572381D01*
X205001905Y-70620000D01*
X205049524Y-70667619D01*
X205097143Y-70762857D01*
X205097143Y-70905714D01*
X205049524Y-71000952D01*
X205001905Y-71048571D01*
X204906667Y-71096190D01*
X204525714Y-71096190D01*
X205478095Y-70667619D02*
X205525714Y-70620000D01*
X205620952Y-70572381D01*
X205859048Y-70572381D01*
X205954286Y-70620000D01*
X206001905Y-70667619D01*
X206049524Y-70762857D01*
X206049524Y-70858095D01*
X206001905Y-71000952D01*
X205430476Y-71572381D01*
X206049524Y-71572381D01*
X206668571Y-70572381D02*
X206763810Y-70572381D01*
X206859048Y-70620000D01*
X206906667Y-70667619D01*
X206954286Y-70762857D01*
X207001905Y-70953333D01*
X207001905Y-71191429D01*
X206954286Y-71381905D01*
X206906667Y-71477143D01*
X206859048Y-71524762D01*
X206763810Y-71572381D01*
X206668571Y-71572381D01*
X206573333Y-71524762D01*
X206525714Y-71477143D01*
X206478095Y-71381905D01*
X206430476Y-71191429D01*
X206430476Y-70953333D01*
X206478095Y-70762857D01*
X206525714Y-70667619D01*
X206573333Y-70620000D01*
X206668571Y-70572381D01*
X171902381Y-69222857D02*
X171426190Y-69556191D01*
X171902381Y-69794286D02*
X170902381Y-69794286D01*
X170902381Y-69413333D01*
X170950000Y-69318095D01*
X170997619Y-69270476D01*
X171092857Y-69222857D01*
X171235714Y-69222857D01*
X171330952Y-69270476D01*
X171378571Y-69318095D01*
X171426190Y-69413333D01*
X171426190Y-69794286D01*
X170997619Y-68841905D02*
X170950000Y-68794286D01*
X170902381Y-68699048D01*
X170902381Y-68460952D01*
X170950000Y-68365714D01*
X170997619Y-68318095D01*
X171092857Y-68270476D01*
X171188095Y-68270476D01*
X171330952Y-68318095D01*
X171902381Y-68889524D01*
X171902381Y-68270476D01*
X171902381Y-67318095D02*
X171902381Y-67889524D01*
X171902381Y-67603810D02*
X170902381Y-67603810D01*
X171045238Y-67699048D01*
X171140476Y-67794286D01*
X171188095Y-67889524D01*
X193492381Y-98432857D02*
X193016190Y-98766191D01*
X193492381Y-99004286D02*
X192492381Y-99004286D01*
X192492381Y-98623333D01*
X192540000Y-98528095D01*
X192587619Y-98480476D01*
X192682857Y-98432857D01*
X192825714Y-98432857D01*
X192920952Y-98480476D01*
X192968571Y-98528095D01*
X193016190Y-98623333D01*
X193016190Y-99004286D01*
X192587619Y-98051905D02*
X192540000Y-98004286D01*
X192492381Y-97909048D01*
X192492381Y-97670952D01*
X192540000Y-97575714D01*
X192587619Y-97528095D01*
X192682857Y-97480476D01*
X192778095Y-97480476D01*
X192920952Y-97528095D01*
X193492381Y-98099524D01*
X193492381Y-97480476D01*
X192587619Y-97099524D02*
X192540000Y-97051905D01*
X192492381Y-96956667D01*
X192492381Y-96718571D01*
X192540000Y-96623333D01*
X192587619Y-96575714D01*
X192682857Y-96528095D01*
X192778095Y-96528095D01*
X192920952Y-96575714D01*
X193492381Y-97147143D01*
X193492381Y-96528095D01*
X189682381Y-64142857D02*
X189206190Y-64476191D01*
X189682381Y-64714286D02*
X188682381Y-64714286D01*
X188682381Y-64333333D01*
X188730000Y-64238095D01*
X188777619Y-64190476D01*
X188872857Y-64142857D01*
X189015714Y-64142857D01*
X189110952Y-64190476D01*
X189158571Y-64238095D01*
X189206190Y-64333333D01*
X189206190Y-64714286D01*
X188777619Y-63761905D02*
X188730000Y-63714286D01*
X188682381Y-63619048D01*
X188682381Y-63380952D01*
X188730000Y-63285714D01*
X188777619Y-63238095D01*
X188872857Y-63190476D01*
X188968095Y-63190476D01*
X189110952Y-63238095D01*
X189682381Y-63809524D01*
X189682381Y-63190476D01*
X188682381Y-62857143D02*
X188682381Y-62238095D01*
X189063333Y-62571429D01*
X189063333Y-62428571D01*
X189110952Y-62333333D01*
X189158571Y-62285714D01*
X189253810Y-62238095D01*
X189491905Y-62238095D01*
X189587143Y-62285714D01*
X189634762Y-62333333D01*
X189682381Y-62428571D01*
X189682381Y-62714286D01*
X189634762Y-62809524D01*
X189587143Y-62857143D01*
X194937143Y-110942381D02*
X194603809Y-110466190D01*
X194365714Y-110942381D02*
X194365714Y-109942381D01*
X194746667Y-109942381D01*
X194841905Y-109990000D01*
X194889524Y-110037619D01*
X194937143Y-110132857D01*
X194937143Y-110275714D01*
X194889524Y-110370952D01*
X194841905Y-110418571D01*
X194746667Y-110466190D01*
X194365714Y-110466190D01*
X195318095Y-110037619D02*
X195365714Y-109990000D01*
X195460952Y-109942381D01*
X195699048Y-109942381D01*
X195794286Y-109990000D01*
X195841905Y-110037619D01*
X195889524Y-110132857D01*
X195889524Y-110228095D01*
X195841905Y-110370952D01*
X195270476Y-110942381D01*
X195889524Y-110942381D01*
X196746667Y-110275714D02*
X196746667Y-110942381D01*
X196508571Y-109894762D02*
X196270476Y-110609048D01*
X196889524Y-110609048D01*
X205097143Y-96972381D02*
X204763809Y-96496190D01*
X204525714Y-96972381D02*
X204525714Y-95972381D01*
X204906667Y-95972381D01*
X205001905Y-96020000D01*
X205049524Y-96067619D01*
X205097143Y-96162857D01*
X205097143Y-96305714D01*
X205049524Y-96400952D01*
X205001905Y-96448571D01*
X204906667Y-96496190D01*
X204525714Y-96496190D01*
X205478095Y-96067619D02*
X205525714Y-96020000D01*
X205620952Y-95972381D01*
X205859048Y-95972381D01*
X205954286Y-96020000D01*
X206001905Y-96067619D01*
X206049524Y-96162857D01*
X206049524Y-96258095D01*
X206001905Y-96400952D01*
X205430476Y-96972381D01*
X206049524Y-96972381D01*
X206954286Y-95972381D02*
X206478095Y-95972381D01*
X206430476Y-96448571D01*
X206478095Y-96400952D01*
X206573333Y-96353333D01*
X206811429Y-96353333D01*
X206906667Y-96400952D01*
X206954286Y-96448571D01*
X207001905Y-96543810D01*
X207001905Y-96781905D01*
X206954286Y-96877143D01*
X206906667Y-96924762D01*
X206811429Y-96972381D01*
X206573333Y-96972381D01*
X206478095Y-96924762D01*
X206430476Y-96877143D01*
X185872381Y-64142857D02*
X185396190Y-64476191D01*
X185872381Y-64714286D02*
X184872381Y-64714286D01*
X184872381Y-64333333D01*
X184920000Y-64238095D01*
X184967619Y-64190476D01*
X185062857Y-64142857D01*
X185205714Y-64142857D01*
X185300952Y-64190476D01*
X185348571Y-64238095D01*
X185396190Y-64333333D01*
X185396190Y-64714286D01*
X184967619Y-63761905D02*
X184920000Y-63714286D01*
X184872381Y-63619048D01*
X184872381Y-63380952D01*
X184920000Y-63285714D01*
X184967619Y-63238095D01*
X185062857Y-63190476D01*
X185158095Y-63190476D01*
X185300952Y-63238095D01*
X185872381Y-63809524D01*
X185872381Y-63190476D01*
X184872381Y-62333333D02*
X184872381Y-62523810D01*
X184920000Y-62619048D01*
X184967619Y-62666667D01*
X185110476Y-62761905D01*
X185300952Y-62809524D01*
X185681905Y-62809524D01*
X185777143Y-62761905D01*
X185824762Y-62714286D01*
X185872381Y-62619048D01*
X185872381Y-62428571D01*
X185824762Y-62333333D01*
X185777143Y-62285714D01*
X185681905Y-62238095D01*
X185443810Y-62238095D01*
X185348571Y-62285714D01*
X185300952Y-62333333D01*
X185253333Y-62428571D01*
X185253333Y-62619048D01*
X185300952Y-62714286D01*
X185348571Y-62761905D01*
X185443810Y-62809524D01*
X179697143Y-113482381D02*
X179363809Y-113006190D01*
X179125714Y-113482381D02*
X179125714Y-112482381D01*
X179506667Y-112482381D01*
X179601905Y-112530000D01*
X179649524Y-112577619D01*
X179697143Y-112672857D01*
X179697143Y-112815714D01*
X179649524Y-112910952D01*
X179601905Y-112958571D01*
X179506667Y-113006190D01*
X179125714Y-113006190D01*
X180078095Y-112577619D02*
X180125714Y-112530000D01*
X180220952Y-112482381D01*
X180459048Y-112482381D01*
X180554286Y-112530000D01*
X180601905Y-112577619D01*
X180649524Y-112672857D01*
X180649524Y-112768095D01*
X180601905Y-112910952D01*
X180030476Y-113482381D01*
X180649524Y-113482381D01*
X180982857Y-112482381D02*
X181649524Y-112482381D01*
X181220952Y-113482381D01*
X189857143Y-56332381D02*
X189523809Y-55856190D01*
X189285714Y-56332381D02*
X189285714Y-55332381D01*
X189666667Y-55332381D01*
X189761905Y-55380000D01*
X189809524Y-55427619D01*
X189857143Y-55522857D01*
X189857143Y-55665714D01*
X189809524Y-55760952D01*
X189761905Y-55808571D01*
X189666667Y-55856190D01*
X189285714Y-55856190D01*
X190238095Y-55427619D02*
X190285714Y-55380000D01*
X190380952Y-55332381D01*
X190619048Y-55332381D01*
X190714286Y-55380000D01*
X190761905Y-55427619D01*
X190809524Y-55522857D01*
X190809524Y-55618095D01*
X190761905Y-55760952D01*
X190190476Y-56332381D01*
X190809524Y-56332381D01*
X191380952Y-55760952D02*
X191285714Y-55713333D01*
X191238095Y-55665714D01*
X191190476Y-55570476D01*
X191190476Y-55522857D01*
X191238095Y-55427619D01*
X191285714Y-55380000D01*
X191380952Y-55332381D01*
X191571429Y-55332381D01*
X191666667Y-55380000D01*
X191714286Y-55427619D01*
X191761905Y-55522857D01*
X191761905Y-55570476D01*
X191714286Y-55665714D01*
X191666667Y-55713333D01*
X191571429Y-55760952D01*
X191380952Y-55760952D01*
X191285714Y-55808571D01*
X191238095Y-55856190D01*
X191190476Y-55951429D01*
X191190476Y-56141905D01*
X191238095Y-56237143D01*
X191285714Y-56284762D01*
X191380952Y-56332381D01*
X191571429Y-56332381D01*
X191666667Y-56284762D01*
X191714286Y-56237143D01*
X191761905Y-56141905D01*
X191761905Y-55951429D01*
X191714286Y-55856190D01*
X191666667Y-55808571D01*
X191571429Y-55760952D01*
X194937143Y-118562381D02*
X194603809Y-118086190D01*
X194365714Y-118562381D02*
X194365714Y-117562381D01*
X194746667Y-117562381D01*
X194841905Y-117610000D01*
X194889524Y-117657619D01*
X194937143Y-117752857D01*
X194937143Y-117895714D01*
X194889524Y-117990952D01*
X194841905Y-118038571D01*
X194746667Y-118086190D01*
X194365714Y-118086190D01*
X195318095Y-117657619D02*
X195365714Y-117610000D01*
X195460952Y-117562381D01*
X195699048Y-117562381D01*
X195794286Y-117610000D01*
X195841905Y-117657619D01*
X195889524Y-117752857D01*
X195889524Y-117848095D01*
X195841905Y-117990952D01*
X195270476Y-118562381D01*
X195889524Y-118562381D01*
X196365714Y-118562381D02*
X196556190Y-118562381D01*
X196651429Y-118514762D01*
X196699048Y-118467143D01*
X196794286Y-118324286D01*
X196841905Y-118133810D01*
X196841905Y-117752857D01*
X196794286Y-117657619D01*
X196746667Y-117610000D01*
X196651429Y-117562381D01*
X196460952Y-117562381D01*
X196365714Y-117610000D01*
X196318095Y-117657619D01*
X196270476Y-117752857D01*
X196270476Y-117990952D01*
X196318095Y-118086190D01*
X196365714Y-118133810D01*
X196460952Y-118181429D01*
X196651429Y-118181429D01*
X196746667Y-118133810D01*
X196794286Y-118086190D01*
X196841905Y-117990952D01*
X175712381Y-99702857D02*
X175236190Y-100036191D01*
X175712381Y-100274286D02*
X174712381Y-100274286D01*
X174712381Y-99893333D01*
X174760000Y-99798095D01*
X174807619Y-99750476D01*
X174902857Y-99702857D01*
X175045714Y-99702857D01*
X175140952Y-99750476D01*
X175188571Y-99798095D01*
X175236190Y-99893333D01*
X175236190Y-100274286D01*
X174712381Y-99369524D02*
X174712381Y-98750476D01*
X175093333Y-99083810D01*
X175093333Y-98940952D01*
X175140952Y-98845714D01*
X175188571Y-98798095D01*
X175283810Y-98750476D01*
X175521905Y-98750476D01*
X175617143Y-98798095D01*
X175664762Y-98845714D01*
X175712381Y-98940952D01*
X175712381Y-99226667D01*
X175664762Y-99321905D01*
X175617143Y-99369524D01*
X174712381Y-98131429D02*
X174712381Y-98036190D01*
X174760000Y-97940952D01*
X174807619Y-97893333D01*
X174902857Y-97845714D01*
X175093333Y-97798095D01*
X175331429Y-97798095D01*
X175521905Y-97845714D01*
X175617143Y-97893333D01*
X175664762Y-97940952D01*
X175712381Y-98036190D01*
X175712381Y-98131429D01*
X175664762Y-98226667D01*
X175617143Y-98274286D01*
X175521905Y-98321905D01*
X175331429Y-98369524D01*
X175093333Y-98369524D01*
X174902857Y-98321905D01*
X174807619Y-98274286D01*
X174760000Y-98226667D01*
X174712381Y-98131429D01*
X161742381Y-99702857D02*
X161266190Y-100036191D01*
X161742381Y-100274286D02*
X160742381Y-100274286D01*
X160742381Y-99893333D01*
X160790000Y-99798095D01*
X160837619Y-99750476D01*
X160932857Y-99702857D01*
X161075714Y-99702857D01*
X161170952Y-99750476D01*
X161218571Y-99798095D01*
X161266190Y-99893333D01*
X161266190Y-100274286D01*
X160742381Y-99369524D02*
X160742381Y-98750476D01*
X161123333Y-99083810D01*
X161123333Y-98940952D01*
X161170952Y-98845714D01*
X161218571Y-98798095D01*
X161313810Y-98750476D01*
X161551905Y-98750476D01*
X161647143Y-98798095D01*
X161694762Y-98845714D01*
X161742381Y-98940952D01*
X161742381Y-99226667D01*
X161694762Y-99321905D01*
X161647143Y-99369524D01*
X161742381Y-97798095D02*
X161742381Y-98369524D01*
X161742381Y-98083810D02*
X160742381Y-98083810D01*
X160885238Y-98179048D01*
X160980476Y-98274286D01*
X161028095Y-98369524D01*
X166822381Y-87002857D02*
X166346190Y-87336191D01*
X166822381Y-87574286D02*
X165822381Y-87574286D01*
X165822381Y-87193333D01*
X165870000Y-87098095D01*
X165917619Y-87050476D01*
X166012857Y-87002857D01*
X166155714Y-87002857D01*
X166250952Y-87050476D01*
X166298571Y-87098095D01*
X166346190Y-87193333D01*
X166346190Y-87574286D01*
X165822381Y-86669524D02*
X165822381Y-86050476D01*
X166203333Y-86383810D01*
X166203333Y-86240952D01*
X166250952Y-86145714D01*
X166298571Y-86098095D01*
X166393810Y-86050476D01*
X166631905Y-86050476D01*
X166727143Y-86098095D01*
X166774762Y-86145714D01*
X166822381Y-86240952D01*
X166822381Y-86526667D01*
X166774762Y-86621905D01*
X166727143Y-86669524D01*
X165917619Y-85669524D02*
X165870000Y-85621905D01*
X165822381Y-85526667D01*
X165822381Y-85288571D01*
X165870000Y-85193333D01*
X165917619Y-85145714D01*
X166012857Y-85098095D01*
X166108095Y-85098095D01*
X166250952Y-85145714D01*
X166822381Y-85717143D01*
X166822381Y-85098095D01*
X170632381Y-87002857D02*
X170156190Y-87336191D01*
X170632381Y-87574286D02*
X169632381Y-87574286D01*
X169632381Y-87193333D01*
X169680000Y-87098095D01*
X169727619Y-87050476D01*
X169822857Y-87002857D01*
X169965714Y-87002857D01*
X170060952Y-87050476D01*
X170108571Y-87098095D01*
X170156190Y-87193333D01*
X170156190Y-87574286D01*
X169632381Y-86669524D02*
X169632381Y-86050476D01*
X170013333Y-86383810D01*
X170013333Y-86240952D01*
X170060952Y-86145714D01*
X170108571Y-86098095D01*
X170203810Y-86050476D01*
X170441905Y-86050476D01*
X170537143Y-86098095D01*
X170584762Y-86145714D01*
X170632381Y-86240952D01*
X170632381Y-86526667D01*
X170584762Y-86621905D01*
X170537143Y-86669524D01*
X169632381Y-85717143D02*
X169632381Y-85098095D01*
X170013333Y-85431429D01*
X170013333Y-85288571D01*
X170060952Y-85193333D01*
X170108571Y-85145714D01*
X170203810Y-85098095D01*
X170441905Y-85098095D01*
X170537143Y-85145714D01*
X170584762Y-85193333D01*
X170632381Y-85288571D01*
X170632381Y-85574286D01*
X170584762Y-85669524D01*
X170537143Y-85717143D01*
X189682381Y-98432857D02*
X189206190Y-98766191D01*
X189682381Y-99004286D02*
X188682381Y-99004286D01*
X188682381Y-98623333D01*
X188730000Y-98528095D01*
X188777619Y-98480476D01*
X188872857Y-98432857D01*
X189015714Y-98432857D01*
X189110952Y-98480476D01*
X189158571Y-98528095D01*
X189206190Y-98623333D01*
X189206190Y-99004286D01*
X188682381Y-98099524D02*
X188682381Y-97480476D01*
X189063333Y-97813810D01*
X189063333Y-97670952D01*
X189110952Y-97575714D01*
X189158571Y-97528095D01*
X189253810Y-97480476D01*
X189491905Y-97480476D01*
X189587143Y-97528095D01*
X189634762Y-97575714D01*
X189682381Y-97670952D01*
X189682381Y-97956667D01*
X189634762Y-98051905D01*
X189587143Y-98099524D01*
X189015714Y-96623333D02*
X189682381Y-96623333D01*
X188634762Y-96861429D02*
X189349048Y-97099524D01*
X189349048Y-96480476D01*
X164457143Y-113482381D02*
X164123809Y-113006190D01*
X163885714Y-113482381D02*
X163885714Y-112482381D01*
X164266667Y-112482381D01*
X164361905Y-112530000D01*
X164409524Y-112577619D01*
X164457143Y-112672857D01*
X164457143Y-112815714D01*
X164409524Y-112910952D01*
X164361905Y-112958571D01*
X164266667Y-113006190D01*
X163885714Y-113006190D01*
X164790476Y-112482381D02*
X165409524Y-112482381D01*
X165076190Y-112863333D01*
X165219048Y-112863333D01*
X165314286Y-112910952D01*
X165361905Y-112958571D01*
X165409524Y-113053810D01*
X165409524Y-113291905D01*
X165361905Y-113387143D01*
X165314286Y-113434762D01*
X165219048Y-113482381D01*
X164933333Y-113482381D01*
X164838095Y-113434762D01*
X164790476Y-113387143D01*
X166314286Y-112482381D02*
X165838095Y-112482381D01*
X165790476Y-112958571D01*
X165838095Y-112910952D01*
X165933333Y-112863333D01*
X166171429Y-112863333D01*
X166266667Y-112910952D01*
X166314286Y-112958571D01*
X166361905Y-113053810D01*
X166361905Y-113291905D01*
X166314286Y-113387143D01*
X166266667Y-113434762D01*
X166171429Y-113482381D01*
X165933333Y-113482381D01*
X165838095Y-113434762D01*
X165790476Y-113387143D01*
X178427143Y-118562381D02*
X178093809Y-118086190D01*
X177855714Y-118562381D02*
X177855714Y-117562381D01*
X178236667Y-117562381D01*
X178331905Y-117610000D01*
X178379524Y-117657619D01*
X178427143Y-117752857D01*
X178427143Y-117895714D01*
X178379524Y-117990952D01*
X178331905Y-118038571D01*
X178236667Y-118086190D01*
X177855714Y-118086190D01*
X178760476Y-117562381D02*
X179379524Y-117562381D01*
X179046190Y-117943333D01*
X179189048Y-117943333D01*
X179284286Y-117990952D01*
X179331905Y-118038571D01*
X179379524Y-118133810D01*
X179379524Y-118371905D01*
X179331905Y-118467143D01*
X179284286Y-118514762D01*
X179189048Y-118562381D01*
X178903333Y-118562381D01*
X178808095Y-118514762D01*
X178760476Y-118467143D01*
X180236667Y-117562381D02*
X180046190Y-117562381D01*
X179950952Y-117610000D01*
X179903333Y-117657619D01*
X179808095Y-117800476D01*
X179760476Y-117990952D01*
X179760476Y-118371905D01*
X179808095Y-118467143D01*
X179855714Y-118514762D01*
X179950952Y-118562381D01*
X180141429Y-118562381D01*
X180236667Y-118514762D01*
X180284286Y-118467143D01*
X180331905Y-118371905D01*
X180331905Y-118133810D01*
X180284286Y-118038571D01*
X180236667Y-117990952D01*
X180141429Y-117943333D01*
X179950952Y-117943333D01*
X179855714Y-117990952D01*
X179808095Y-118038571D01*
X179760476Y-118133810D01*
X137834762Y-44512381D02*
X137501428Y-44036190D01*
X137263333Y-44512381D02*
X137263333Y-43512381D01*
X137644286Y-43512381D01*
X137739524Y-43560000D01*
X137787143Y-43607619D01*
X137834762Y-43702857D01*
X137834762Y-43845714D01*
X137787143Y-43940952D01*
X137739524Y-43988571D01*
X137644286Y-44036190D01*
X137263333Y-44036190D01*
X138120476Y-43512381D02*
X138453809Y-44512381D01*
X138787143Y-43512381D01*
X139644286Y-44512381D02*
X139072857Y-44512381D01*
X139358571Y-44512381D02*
X139358571Y-43512381D01*
X139263333Y-43655238D01*
X139168095Y-43750476D01*
X139072857Y-43798095D01*
X137834762Y-59752381D02*
X137501428Y-59276190D01*
X137263333Y-59752381D02*
X137263333Y-58752381D01*
X137644286Y-58752381D01*
X137739524Y-58800000D01*
X137787143Y-58847619D01*
X137834762Y-58942857D01*
X137834762Y-59085714D01*
X137787143Y-59180952D01*
X137739524Y-59228571D01*
X137644286Y-59276190D01*
X137263333Y-59276190D01*
X138120476Y-58752381D02*
X138453809Y-59752381D01*
X138787143Y-58752381D01*
X139072857Y-58847619D02*
X139120476Y-58800000D01*
X139215714Y-58752381D01*
X139453810Y-58752381D01*
X139549048Y-58800000D01*
X139596667Y-58847619D01*
X139644286Y-58942857D01*
X139644286Y-59038095D01*
X139596667Y-59180952D01*
X139025238Y-59752381D01*
X139644286Y-59752381D01*
X137834762Y-90232381D02*
X137501428Y-89756190D01*
X137263333Y-90232381D02*
X137263333Y-89232381D01*
X137644286Y-89232381D01*
X137739524Y-89280000D01*
X137787143Y-89327619D01*
X137834762Y-89422857D01*
X137834762Y-89565714D01*
X137787143Y-89660952D01*
X137739524Y-89708571D01*
X137644286Y-89756190D01*
X137263333Y-89756190D01*
X138120476Y-89232381D02*
X138453809Y-90232381D01*
X138787143Y-89232381D01*
X139549048Y-89565714D02*
X139549048Y-90232381D01*
X139310952Y-89184762D02*
X139072857Y-89899048D01*
X139691905Y-89899048D01*
X170854762Y-37682381D02*
X170521428Y-37206190D01*
X170283333Y-37682381D02*
X170283333Y-36682381D01*
X170664286Y-36682381D01*
X170759524Y-36730000D01*
X170807143Y-36777619D01*
X170854762Y-36872857D01*
X170854762Y-37015714D01*
X170807143Y-37110952D01*
X170759524Y-37158571D01*
X170664286Y-37206190D01*
X170283333Y-37206190D01*
X171140476Y-36682381D02*
X171473809Y-37682381D01*
X171807143Y-36682381D01*
X172616667Y-36682381D02*
X172140476Y-36682381D01*
X172092857Y-37158571D01*
X172140476Y-37110952D01*
X172235714Y-37063333D01*
X172473810Y-37063333D01*
X172569048Y-37110952D01*
X172616667Y-37158571D01*
X172664286Y-37253810D01*
X172664286Y-37491905D01*
X172616667Y-37587143D01*
X172569048Y-37634762D01*
X172473810Y-37682381D01*
X172235714Y-37682381D01*
X172140476Y-37634762D01*
X172092857Y-37587143D01*
X165774762Y-63952381D02*
X165441428Y-63476190D01*
X165203333Y-63952381D02*
X165203333Y-62952381D01*
X165584286Y-62952381D01*
X165679524Y-63000000D01*
X165727143Y-63047619D01*
X165774762Y-63142857D01*
X165774762Y-63285714D01*
X165727143Y-63380952D01*
X165679524Y-63428571D01*
X165584286Y-63476190D01*
X165203333Y-63476190D01*
X166060476Y-62952381D02*
X166393809Y-63952381D01*
X166727143Y-62952381D01*
X167489048Y-62952381D02*
X167298571Y-62952381D01*
X167203333Y-63000000D01*
X167155714Y-63047619D01*
X167060476Y-63190476D01*
X167012857Y-63380952D01*
X167012857Y-63761905D01*
X167060476Y-63857143D01*
X167108095Y-63904762D01*
X167203333Y-63952381D01*
X167393810Y-63952381D01*
X167489048Y-63904762D01*
X167536667Y-63857143D01*
X167584286Y-63761905D01*
X167584286Y-63523810D01*
X167536667Y-63428571D01*
X167489048Y-63380952D01*
X167393810Y-63333333D01*
X167203333Y-63333333D01*
X167108095Y-63380952D01*
X167060476Y-63428571D01*
X167012857Y-63523810D01*
X137834762Y-105472381D02*
X137501428Y-104996190D01*
X137263333Y-105472381D02*
X137263333Y-104472381D01*
X137644286Y-104472381D01*
X137739524Y-104520000D01*
X137787143Y-104567619D01*
X137834762Y-104662857D01*
X137834762Y-104805714D01*
X137787143Y-104900952D01*
X137739524Y-104948571D01*
X137644286Y-104996190D01*
X137263333Y-104996190D01*
X138120476Y-104472381D02*
X138453809Y-105472381D01*
X138787143Y-104472381D01*
X139025238Y-104472381D02*
X139691905Y-104472381D01*
X139263333Y-105472381D01*
X137834762Y-120712381D02*
X137501428Y-120236190D01*
X137263333Y-120712381D02*
X137263333Y-119712381D01*
X137644286Y-119712381D01*
X137739524Y-119760000D01*
X137787143Y-119807619D01*
X137834762Y-119902857D01*
X137834762Y-120045714D01*
X137787143Y-120140952D01*
X137739524Y-120188571D01*
X137644286Y-120236190D01*
X137263333Y-120236190D01*
X138120476Y-119712381D02*
X138453809Y-120712381D01*
X138787143Y-119712381D01*
X139263333Y-120140952D02*
X139168095Y-120093333D01*
X139120476Y-120045714D01*
X139072857Y-119950476D01*
X139072857Y-119902857D01*
X139120476Y-119807619D01*
X139168095Y-119760000D01*
X139263333Y-119712381D01*
X139453810Y-119712381D01*
X139549048Y-119760000D01*
X139596667Y-119807619D01*
X139644286Y-119902857D01*
X139644286Y-119950476D01*
X139596667Y-120045714D01*
X139549048Y-120093333D01*
X139453810Y-120140952D01*
X139263333Y-120140952D01*
X139168095Y-120188571D01*
X139120476Y-120236190D01*
X139072857Y-120331429D01*
X139072857Y-120521905D01*
X139120476Y-120617143D01*
X139168095Y-120664762D01*
X139263333Y-120712381D01*
X139453810Y-120712381D01*
X139549048Y-120664762D01*
X139596667Y-120617143D01*
X139644286Y-120521905D01*
X139644286Y-120331429D01*
X139596667Y-120236190D01*
X139549048Y-120188571D01*
X139453810Y-120140952D01*
X186094762Y-94032381D02*
X185761428Y-93556190D01*
X185523333Y-94032381D02*
X185523333Y-93032381D01*
X185904286Y-93032381D01*
X185999524Y-93080000D01*
X186047143Y-93127619D01*
X186094762Y-93222857D01*
X186094762Y-93365714D01*
X186047143Y-93460952D01*
X185999524Y-93508571D01*
X185904286Y-93556190D01*
X185523333Y-93556190D01*
X186380476Y-93032381D02*
X186713809Y-94032381D01*
X187047143Y-93032381D01*
X187428095Y-94032381D02*
X187618571Y-94032381D01*
X187713810Y-93984762D01*
X187761429Y-93937143D01*
X187856667Y-93794286D01*
X187904286Y-93603810D01*
X187904286Y-93222857D01*
X187856667Y-93127619D01*
X187809048Y-93080000D01*
X187713810Y-93032381D01*
X187523333Y-93032381D01*
X187428095Y-93080000D01*
X187380476Y-93127619D01*
X187332857Y-93222857D01*
X187332857Y-93460952D01*
X187380476Y-93556190D01*
X187428095Y-93603810D01*
X187523333Y-93651429D01*
X187713810Y-93651429D01*
X187809048Y-93603810D01*
X187856667Y-93556190D01*
X187904286Y-93460952D01*
X202382381Y-102671428D02*
X201906190Y-103004762D01*
X202382381Y-103242857D02*
X201382381Y-103242857D01*
X201382381Y-102861904D01*
X201430000Y-102766666D01*
X201477619Y-102719047D01*
X201572857Y-102671428D01*
X201715714Y-102671428D01*
X201810952Y-102719047D01*
X201858571Y-102766666D01*
X201906190Y-102861904D01*
X201906190Y-103242857D01*
X201382381Y-102385714D02*
X202382381Y-102052381D01*
X201382381Y-101719047D01*
X202382381Y-100861904D02*
X202382381Y-101433333D01*
X202382381Y-101147619D02*
X201382381Y-101147619D01*
X201525238Y-101242857D01*
X201620476Y-101338095D01*
X201668095Y-101433333D01*
X201382381Y-100242857D02*
X201382381Y-100147618D01*
X201430000Y-100052380D01*
X201477619Y-100004761D01*
X201572857Y-99957142D01*
X201763333Y-99909523D01*
X202001429Y-99909523D01*
X202191905Y-99957142D01*
X202287143Y-100004761D01*
X202334762Y-100052380D01*
X202382381Y-100147618D01*
X202382381Y-100242857D01*
X202334762Y-100338095D01*
X202287143Y-100385714D01*
X202191905Y-100433333D01*
X202001429Y-100480952D01*
X201763333Y-100480952D01*
X201572857Y-100433333D01*
X201477619Y-100385714D01*
X201430000Y-100338095D01*
X201382381Y-100242857D01*
X150368095Y-49192381D02*
X150368095Y-50001905D01*
X150415714Y-50097143D01*
X150463333Y-50144762D01*
X150558571Y-50192381D01*
X150749048Y-50192381D01*
X150844286Y-50144762D01*
X150891905Y-50097143D01*
X150939524Y-50001905D01*
X150939524Y-49192381D01*
X151939524Y-50192381D02*
X151368095Y-50192381D01*
X151653809Y-50192381D02*
X151653809Y-49192381D01*
X151558571Y-49335238D01*
X151463333Y-49430476D01*
X151368095Y-49478095D01*
X201168095Y-60202381D02*
X201168095Y-61011905D01*
X201215714Y-61107143D01*
X201263333Y-61154762D01*
X201358571Y-61202381D01*
X201549048Y-61202381D01*
X201644286Y-61154762D01*
X201691905Y-61107143D01*
X201739524Y-61011905D01*
X201739524Y-60202381D01*
X202168095Y-60297619D02*
X202215714Y-60250000D01*
X202310952Y-60202381D01*
X202549048Y-60202381D01*
X202644286Y-60250000D01*
X202691905Y-60297619D01*
X202739524Y-60392857D01*
X202739524Y-60488095D01*
X202691905Y-60630952D01*
X202120476Y-61202381D01*
X202739524Y-61202381D01*
X187198095Y-85602381D02*
X187198095Y-86411905D01*
X187245714Y-86507143D01*
X187293333Y-86554762D01*
X187388571Y-86602381D01*
X187579048Y-86602381D01*
X187674286Y-86554762D01*
X187721905Y-86507143D01*
X187769524Y-86411905D01*
X187769524Y-85602381D01*
X188150476Y-85602381D02*
X188769524Y-85602381D01*
X188436190Y-85983333D01*
X188579048Y-85983333D01*
X188674286Y-86030952D01*
X188721905Y-86078571D01*
X188769524Y-86173810D01*
X188769524Y-86411905D01*
X188721905Y-86507143D01*
X188674286Y-86554762D01*
X188579048Y-86602381D01*
X188293333Y-86602381D01*
X188198095Y-86554762D01*
X188150476Y-86507143D01*
M02*
