M48
;DRILL file {KiCad 4.0.7} date Monday 30 April 2018 23:46:31
;FORMAT={-:-/ absolute / metric / decimal}
FMAT,2
METRIC,TZ
T1C0.800
T2C1.000
T3C3.048
%
G90
G05
M71
T1
X143.51Y-33.02
X143.51Y-38.1
X143.51Y-43.18
X143.51Y-46.99
X144.78Y-69.97
X144.78Y-77.47
X147.32Y-52.07
X147.32Y-54.61
X147.32Y-57.15
X147.32Y-59.69
X147.32Y-91.44
X147.32Y-104.14
X148.59Y-109.22
X148.59Y-121.92
X151.13Y-73.66
X152.4Y-66.04
X152.4Y-81.28
X152.4Y-83.82
X152.4Y-86.36
X152.4Y-88.9
X154.94Y-52.07
X154.94Y-54.61
X154.94Y-57.15
X154.94Y-59.69
X156.21Y-33.02
X156.21Y-38.1
X156.21Y-43.18
X156.21Y-46.99
X156.21Y-113.03
X160.02Y-29.21
X160.02Y-41.91
X160.02Y-50.8
X160.02Y-54.61
X160.02Y-81.28
X160.02Y-83.82
X160.02Y-86.36
X160.02Y-88.9
X161.29Y-59.69
X161.29Y-95.25
X161.29Y-107.95
X163.83Y-59.69
X163.83Y-73.66
X165.1Y-31.75
X165.1Y-44.45
X165.1Y-66.04
X166.37Y-59.69
X166.37Y-82.55
X166.37Y-95.25
X167.64Y-54.61
X168.91Y-40.64
X168.91Y-113.03
X170.18Y-82.55
X170.18Y-95.25
X170.18Y-118.11
X171.45Y-40.64
X171.45Y-54.73
X171.45Y-62.23
X171.45Y-64.77
X171.45Y-77.47
X171.45Y-113.03
X172.72Y-50.8
X173.99Y-40.64
X175.26Y-95.25
X175.26Y-107.95
X176.53Y-76.2
X176.53Y-88.9
X177.8Y-33.02
X177.8Y-45.72
X179.07Y-59.69
X179.07Y-62.23
X179.07Y-64.77
X179.07Y-67.31
X179.07Y-69.85
X179.07Y-72.39
X179.07Y-96.52
X179.07Y-102.87
X180.34Y-35.56
X180.34Y-40.64
X180.34Y-50.8
X181.61Y-55.88
X181.61Y-96.52
X181.61Y-102.87
X181.73Y-45.72
X182.88Y-35.56
X182.88Y-40.64
X182.88Y-118.11
X184.15Y-76.2
X184.15Y-78.74
X184.15Y-81.28
X184.15Y-83.82
X184.15Y-90.17
X184.15Y-96.52
X184.15Y-102.87
X184.15Y-113.03
X185.42Y-35.56
X185.42Y-40.64
X185.42Y-59.69
X185.42Y-72.39
X186.69Y-90.17
X186.69Y-110.49
X186.69Y-118.11
X189.23Y-45.72
X189.23Y-59.69
X189.23Y-72.39
X189.23Y-90.17
X189.23Y-93.98
X189.23Y-106.68
X191.77Y-76.2
X191.77Y-78.74
X191.77Y-81.28
X191.77Y-83.82
X193.04Y-30.48
X193.04Y-43.18
X193.04Y-50.8
X193.04Y-93.98
X193.04Y-106.68
X194.31Y-55.88
X196.85Y-64.77
X196.85Y-71.12
X196.85Y-91.44
X196.85Y-96.52
X198.12Y-50.8
X198.12Y-53.34
X198.12Y-55.88
X198.12Y-58.42
X198.12Y-101.6
X198.12Y-104.14
X198.12Y-106.68
X198.24Y-82.55
X199.39Y-110.49
X199.39Y-118.11
X205.74Y-50.8
X205.74Y-53.34
X205.74Y-55.88
X205.74Y-58.42
X205.74Y-82.55
X209.55Y-49.53
X209.55Y-62.23
X209.55Y-64.77
X209.55Y-71.12
X209.55Y-74.93
X209.55Y-87.63
X209.55Y-91.44
X209.55Y-96.52
T2
X138.43Y-35.56
X138.43Y-38.06
X138.43Y-40.56
X138.43Y-50.8
X138.43Y-53.3
X138.43Y-55.8
X138.43Y-60.96
X138.43Y-66.04
X138.43Y-68.54
X138.43Y-71.04
X138.43Y-76.2
X138.43Y-81.28
X138.43Y-83.78
X138.43Y-86.28
X138.43Y-91.44
X138.43Y-96.52
X138.43Y-99.02
X138.43Y-101.52
X138.43Y-111.76
X138.43Y-114.26
X138.43Y-116.76
X140.97Y-60.96
X140.97Y-76.2
X140.97Y-91.44
X146.05Y-29.21
X148.59Y-29.21
X173.99Y-123.19
X176.53Y-123.19
X184.15Y-123.19
X186.69Y-123.19
X200.66Y-76.2
X203.2Y-76.2
X204.47Y-106.68
X204.47Y-109.22
X204.47Y-111.76
X204.47Y-114.3
X204.47Y-116.84
X207.01Y-106.68
X207.01Y-109.22
X207.01Y-111.76
X207.01Y-114.3
X207.01Y-116.84
T3
X139.7Y-30.48
X139.7Y-123.19
X208.28Y-30.48
X208.28Y-123.19
T0
M30
