G04 #@! TF.FileFunction,Soldermask,Top*
%FSLAX46Y46*%
G04 Gerber Fmt 4.6, Leading zero omitted, Abs format (unit mm)*
G04 Created by KiCad (PCBNEW 4.0.7) date Monday 30 April 2018 23:43:25*
%MOMM*%
%LPD*%
G01*
G04 APERTURE LIST*
%ADD10C,0.100000*%
%ADD11C,2.200000*%
%ADD12R,2.800000X2.000000*%
%ADD13O,2.800000X2.000000*%
%ADD14C,2.000000*%
%ADD15O,2.000000X2.000000*%
%ADD16R,2.000000X2.000000*%
%ADD17R,2.100000X2.100000*%
%ADD18O,2.100000X2.100000*%
%ADD19C,1.920000*%
%ADD20R,1.920000X1.920000*%
%ADD21C,1.840000*%
%ADD22C,4.464000*%
G04 APERTURE END LIST*
D10*
D11*
X138430000Y-71040000D03*
X138430000Y-68540000D03*
X138430000Y-66040000D03*
D12*
X160020000Y-88900000D03*
D13*
X152400000Y-81280000D03*
X160020000Y-86360000D03*
X152400000Y-83820000D03*
X160020000Y-83820000D03*
X152400000Y-86360000D03*
X160020000Y-81280000D03*
X152400000Y-88900000D03*
D14*
X144780000Y-77470000D03*
D15*
X144780000Y-69970000D03*
D14*
X189230000Y-45720000D03*
D15*
X181730000Y-45720000D03*
D14*
X205740000Y-82550000D03*
D15*
X198240000Y-82550000D03*
D14*
X171450000Y-62230000D03*
D15*
X171450000Y-54730000D03*
D16*
X167640000Y-54610000D03*
D15*
X160020000Y-54610000D03*
D17*
X140970000Y-91440000D03*
D18*
X138430000Y-91440000D03*
D17*
X146050000Y-29210000D03*
D18*
X148590000Y-29210000D03*
D17*
X140970000Y-60960000D03*
D18*
X138430000Y-60960000D03*
D17*
X140970000Y-76200000D03*
D18*
X138430000Y-76200000D03*
D17*
X204470000Y-106680000D03*
D18*
X207010000Y-106680000D03*
X204470000Y-109220000D03*
X207010000Y-109220000D03*
X204470000Y-111760000D03*
X207010000Y-111760000D03*
X204470000Y-114300000D03*
X207010000Y-114300000D03*
X204470000Y-116840000D03*
X207010000Y-116840000D03*
D17*
X173990000Y-123190000D03*
D18*
X176530000Y-123190000D03*
D17*
X186690000Y-123190000D03*
D18*
X184150000Y-123190000D03*
D17*
X203200000Y-76200000D03*
D18*
X200660000Y-76200000D03*
D19*
X182880000Y-40640000D03*
X180340000Y-40640000D03*
D20*
X185420000Y-40640000D03*
D19*
X182880000Y-35560000D03*
X185420000Y-35560000D03*
D20*
X180340000Y-35560000D03*
D19*
X179070000Y-69850000D03*
X179070000Y-72390000D03*
D20*
X179070000Y-67310000D03*
D19*
X181610000Y-96520000D03*
X184150000Y-96520000D03*
D20*
X179070000Y-96520000D03*
D19*
X179070000Y-62230000D03*
X179070000Y-59690000D03*
D20*
X179070000Y-64770000D03*
D19*
X181610000Y-102870000D03*
X179070000Y-102870000D03*
D20*
X184150000Y-102870000D03*
D14*
X156210000Y-33020000D03*
D15*
X143510000Y-33020000D03*
D14*
X156210000Y-46990000D03*
D15*
X143510000Y-46990000D03*
D14*
X156210000Y-38100000D03*
D15*
X143510000Y-38100000D03*
D14*
X156210000Y-43180000D03*
D15*
X143510000Y-43180000D03*
D14*
X165100000Y-44450000D03*
D15*
X165100000Y-31750000D03*
D14*
X180340000Y-50800000D03*
D15*
X193040000Y-50800000D03*
D14*
X165100000Y-66040000D03*
D15*
X152400000Y-66040000D03*
D14*
X177800000Y-45720000D03*
D15*
X177800000Y-33020000D03*
D14*
X160020000Y-50800000D03*
D15*
X172720000Y-50800000D03*
D14*
X160020000Y-41910000D03*
D15*
X160020000Y-29210000D03*
D14*
X193040000Y-30480000D03*
D15*
X193040000Y-43180000D03*
D14*
X196850000Y-64770000D03*
D15*
X209550000Y-64770000D03*
D14*
X209550000Y-62230000D03*
D15*
X209550000Y-49530000D03*
D14*
X147320000Y-104140000D03*
D15*
X147320000Y-91440000D03*
D14*
X148590000Y-109220000D03*
D15*
X148590000Y-121920000D03*
D14*
X209550000Y-74930000D03*
D15*
X209550000Y-87630000D03*
D14*
X176530000Y-76200000D03*
D15*
X176530000Y-88900000D03*
D14*
X151130000Y-73660000D03*
D15*
X163830000Y-73660000D03*
D14*
X196850000Y-91440000D03*
D15*
X209550000Y-91440000D03*
D14*
X209550000Y-71120000D03*
D15*
X196850000Y-71120000D03*
D14*
X171450000Y-64770000D03*
D15*
X171450000Y-77470000D03*
D14*
X193040000Y-106680000D03*
D15*
X193040000Y-93980000D03*
D14*
X189230000Y-59690000D03*
D15*
X189230000Y-72390000D03*
D14*
X199390000Y-110490000D03*
D15*
X186690000Y-110490000D03*
D14*
X196850000Y-96520000D03*
D15*
X209550000Y-96520000D03*
D14*
X185420000Y-59690000D03*
D15*
X185420000Y-72390000D03*
D14*
X184150000Y-113030000D03*
D15*
X171450000Y-113030000D03*
D14*
X194310000Y-55880000D03*
D15*
X181610000Y-55880000D03*
D14*
X186690000Y-118110000D03*
D15*
X199390000Y-118110000D03*
D14*
X175260000Y-95250000D03*
D15*
X175260000Y-107950000D03*
D14*
X161290000Y-107950000D03*
D15*
X161290000Y-95250000D03*
D14*
X166370000Y-82550000D03*
D15*
X166370000Y-95250000D03*
D14*
X170180000Y-82550000D03*
D15*
X170180000Y-95250000D03*
D14*
X189230000Y-106680000D03*
D15*
X189230000Y-93980000D03*
D14*
X168910000Y-113030000D03*
D15*
X156210000Y-113030000D03*
D14*
X182880000Y-118110000D03*
D15*
X170180000Y-118110000D03*
D11*
X138430000Y-40560000D03*
X138430000Y-38060000D03*
X138430000Y-35560000D03*
X138430000Y-55800000D03*
X138430000Y-53300000D03*
X138430000Y-50800000D03*
X138430000Y-86280000D03*
X138430000Y-83780000D03*
X138430000Y-81280000D03*
D21*
X173990000Y-40640000D03*
X171450000Y-40640000D03*
X168910000Y-40640000D03*
X166370000Y-59690000D03*
X163830000Y-59690000D03*
X161290000Y-59690000D03*
D11*
X138430000Y-101520000D03*
X138430000Y-99020000D03*
X138430000Y-96520000D03*
X138430000Y-116760000D03*
X138430000Y-114260000D03*
X138430000Y-111760000D03*
D21*
X184150000Y-90170000D03*
X186690000Y-90170000D03*
X189230000Y-90170000D03*
X198120000Y-101600000D03*
X198120000Y-104140000D03*
X198120000Y-106680000D03*
D12*
X147320000Y-52070000D03*
D13*
X154940000Y-59690000D03*
X147320000Y-54610000D03*
X154940000Y-57150000D03*
X147320000Y-57150000D03*
X154940000Y-54610000D03*
X147320000Y-59690000D03*
X154940000Y-52070000D03*
D12*
X205740000Y-58420000D03*
D13*
X198120000Y-50800000D03*
X205740000Y-55880000D03*
X198120000Y-53340000D03*
X205740000Y-53340000D03*
X198120000Y-55880000D03*
X205740000Y-50800000D03*
X198120000Y-58420000D03*
D12*
X191770000Y-83820000D03*
D13*
X184150000Y-76200000D03*
X191770000Y-81280000D03*
X184150000Y-78740000D03*
X191770000Y-78740000D03*
X184150000Y-81280000D03*
X191770000Y-76200000D03*
X184150000Y-83820000D03*
D22*
X139700000Y-123190000D03*
X139700000Y-30480000D03*
X208280000Y-30480000D03*
X208280000Y-123190000D03*
M02*
