M48
;DRILL file {KiCad (5.0.0-3-g5ebb6b6)} date Thursday 25 April 2019 20:00:08
;FORMAT={-:-/ absolute / metric / decimal}
FMAT,2
METRIC,TZ
T1C0.750
T2C0.800
T3C0.900
T4C1.000
T5C1.100
T6C1.200
T7C1.300
%
G90
G05
M71
T1
X162.814Y-76.454
X164.074Y-77.724
X165.354Y-76.454
X158.75Y-104.902
X160.03Y-103.632
X161.29Y-104.902
X134.62Y-98.552
X135.9Y-97.282
X137.16Y-98.552
X159.004Y-94.488
X160.264Y-95.758
X161.544Y-94.488
T2
X168.91Y-98.806
X176.53Y-98.806
X166.878Y-92.71
X168.878Y-92.71
X112.014Y-76.962
X114.554Y-74.422
X117.094Y-76.962
X121.92Y-63.5
X129.54Y-63.5
X145.034Y-76.2
X152.654Y-76.2
X153.924Y-110.236
X161.544Y-110.236
X120.396Y-103.886
X120.396Y-108.886
X150.876Y-79.756
X158.496Y-79.756
X154.686Y-89.662
X162.306Y-89.662
X134.112Y-89.662
X139.112Y-89.662
X133.35Y-83.82
X135.89Y-81.28
X138.43Y-83.82
X122.428Y-70.104
X122.428Y-77.724
X124.968Y-70.104
X124.968Y-77.724
X127.508Y-70.104
X127.508Y-77.724
X130.048Y-70.104
X130.048Y-77.724
X132.588Y-70.104
X132.588Y-77.724
X135.128Y-70.104
X135.128Y-77.724
X137.668Y-70.104
X137.668Y-77.724
X170.18Y-65.024
X170.18Y-70.024
X142.828Y-68.072
X147.828Y-68.072
X169.926Y-74.676
X174.926Y-74.676
X169.926Y-77.978
X174.926Y-77.978
X159.258Y-64.008
X166.878Y-64.008
X133.604Y-106.68
X141.224Y-106.68
X130.048Y-102.442
X130.048Y-107.442
X114.808Y-65.786
X114.808Y-70.786
X121.92Y-81.026
X129.54Y-81.026
X143.764Y-106.68
X151.384Y-106.68
X151.21Y-68.072
X156.21Y-68.072
X118.618Y-63.5
X118.618Y-71.12
X151.638Y-83.566
X159.258Y-83.566
X121.92Y-66.802
X129.54Y-66.802
X154.94Y-101.6
X154.94Y-106.6
X163.83Y-110.236
X171.45Y-110.236
X145.034Y-71.628
X152.654Y-71.628
X133.858Y-92.456
X141.478Y-92.456
X143.764Y-109.982
X151.384Y-109.982
X153.162Y-86.614
X160.782Y-86.614
X159.258Y-70.612
X166.878Y-70.612
X117.348Y-101.6
X117.348Y-109.22
X124.206Y-108.458
X126.206Y-108.458
X159.258Y-67.31
X166.878Y-67.31
X124.206Y-102.108
X126.206Y-102.108
X142.828Y-79.756
X147.828Y-79.756
X110.744Y-80.518
X118.364Y-80.518
X133.35Y-66.548
X135.89Y-64.008
X138.43Y-66.548
X173.736Y-63.246
X173.736Y-70.866
X143.764Y-103.378
X151.384Y-103.378
X110.744Y-83.82
X118.364Y-83.82
X133.604Y-103.378
X141.224Y-103.378
X121.92Y-84.328
X129.54Y-84.328
T3
X175.514Y-93.472
X175.514Y-96.012
T4
X142.748Y-64.008
X147.828Y-64.008
X110.998Y-70.866
X156.718Y-73.66
X118.11Y-92.202
X118.11Y-94.742
X118.11Y-97.282
X153.416Y-64.262
X155.956Y-64.262
X147.828Y-84.074
X110.998Y-65.786
X142.748Y-84.074
X110.998Y-92.202
X110.998Y-94.742
X110.998Y-97.282
X110.998Y-99.822
X110.998Y-102.362
X110.998Y-104.902
X110.998Y-107.442
X110.998Y-109.982
X113.538Y-92.202
X113.538Y-94.742
X113.538Y-97.282
X113.538Y-99.822
X113.538Y-102.362
X113.538Y-104.902
X113.538Y-107.442
X113.538Y-109.982
X159.258Y-100.33
X161.798Y-100.33
T5
X123.295Y-92.303
X130.915Y-92.303
X123.295Y-96.266
X130.915Y-96.266
T7
X148.844Y-92.79
X148.844Y-97.79
T6
X164.6Y-105.044G85X164.6Y-103.744
G05
X170.4Y-105.044G85X170.4Y-103.744
G05
X175.7Y-105.044G85X175.7Y-103.744
G05
X164.6Y-85.74G85X164.6Y-84.44
G05
X170.4Y-85.74G85X170.4Y-84.44
G05
X175.7Y-85.74G85X175.7Y-84.44
G05
T0
M30
