G04 #@! TF.GenerationSoftware,KiCad,Pcbnew,(5.0.0-3-g5ebb6b6)*
G04 #@! TF.CreationDate,2019-04-25T20:00:05+02:00*
G04 #@! TF.ProjectId,metallic_beat,6D6574616C6C69635F626561742E6B69,rev?*
G04 #@! TF.SameCoordinates,Original*
G04 #@! TF.FileFunction,Soldermask,Top*
G04 #@! TF.FilePolarity,Negative*
%FSLAX46Y46*%
G04 Gerber Fmt 4.6, Leading zero omitted, Abs format (unit mm)*
G04 Created by KiCad (PCBNEW (5.0.0-3-g5ebb6b6)) date Thursday 25 April 2019 20:00:05*
%MOMM*%
%LPD*%
G01*
G04 APERTURE LIST*
%ADD10C,2.000000*%
%ADD11R,2.000000X2.000000*%
%ADD12O,2.000000X2.000000*%
%ADD13R,2.200000X2.200000*%
%ADD14C,2.200000*%
%ADD15O,2.400000X4.400000*%
%ADD16R,2.100000X2.100000*%
%ADD17O,2.100000X2.100000*%
%ADD18C,3.000000*%
%ADD19C,1.840000*%
%ADD20R,2.400000X2.400000*%
%ADD21R,1.700000X1.700000*%
%ADD22C,1.700000*%
%ADD23R,2.600000X2.600000*%
%ADD24O,2.600000X2.600000*%
G04 APERTURE END LIST*
D10*
G04 #@! TO.C,C1*
X114808000Y-65786000D03*
X114808000Y-70786000D03*
G04 #@! TD*
G04 #@! TO.C,C2*
X142828000Y-79756000D03*
X147828000Y-79756000D03*
G04 #@! TD*
G04 #@! TO.C,C3*
X147828000Y-68072000D03*
X142828000Y-68072000D03*
G04 #@! TD*
G04 #@! TO.C,C4*
X154940000Y-106600000D03*
X154940000Y-101600000D03*
G04 #@! TD*
G04 #@! TO.C,C5*
X139112000Y-89662000D03*
X134112000Y-89662000D03*
G04 #@! TD*
G04 #@! TO.C,C6*
X156210000Y-68072000D03*
X151210000Y-68072000D03*
G04 #@! TD*
G04 #@! TO.C,C7*
X170180000Y-70024000D03*
X170180000Y-65024000D03*
G04 #@! TD*
G04 #@! TO.C,C8*
X169926000Y-74676000D03*
X174926000Y-74676000D03*
G04 #@! TD*
G04 #@! TO.C,C9*
X120396000Y-103886000D03*
X120396000Y-108886000D03*
G04 #@! TD*
D11*
G04 #@! TO.C,C10*
X124206000Y-108458000D03*
D10*
X126206000Y-108458000D03*
G04 #@! TD*
G04 #@! TO.C,C11*
X174926000Y-77978000D03*
X169926000Y-77978000D03*
G04 #@! TD*
D11*
G04 #@! TO.C,C12*
X166878000Y-92710000D03*
D10*
X168878000Y-92710000D03*
G04 #@! TD*
G04 #@! TO.C,C13*
X126206000Y-102108000D03*
D11*
X124206000Y-102108000D03*
G04 #@! TD*
D10*
G04 #@! TO.C,C14*
X130048000Y-107442000D03*
X130048000Y-102442000D03*
G04 #@! TD*
D11*
G04 #@! TO.C,D1*
X161544000Y-110236000D03*
D12*
X153924000Y-110236000D03*
G04 #@! TD*
G04 #@! TO.C,D2*
X133858000Y-92456000D03*
D11*
X141478000Y-92456000D03*
G04 #@! TD*
D13*
G04 #@! TO.C,D3*
X175514000Y-93472000D03*
D14*
X175514000Y-96012000D03*
G04 #@! TD*
D15*
G04 #@! TO.C,J1*
X164600000Y-104394000D03*
X170400000Y-104394000D03*
X175700000Y-104394000D03*
G04 #@! TD*
G04 #@! TO.C,J2*
X175700000Y-85090000D03*
X170400000Y-85090000D03*
X164600000Y-85090000D03*
G04 #@! TD*
D16*
G04 #@! TO.C,J3*
X113538000Y-109982000D03*
D17*
X110998000Y-109982000D03*
X113538000Y-107442000D03*
X110998000Y-107442000D03*
X113538000Y-104902000D03*
X110998000Y-104902000D03*
X113538000Y-102362000D03*
X110998000Y-102362000D03*
X113538000Y-99822000D03*
X110998000Y-99822000D03*
X113538000Y-97282000D03*
X110998000Y-97282000D03*
X113538000Y-94742000D03*
X110998000Y-94742000D03*
X113538000Y-92202000D03*
X110998000Y-92202000D03*
G04 #@! TD*
D16*
G04 #@! TO.C,JP1*
X161798000Y-100330000D03*
D17*
X159258000Y-100330000D03*
G04 #@! TD*
D16*
G04 #@! TO.C,JP2*
X118110000Y-92202000D03*
D17*
X118110000Y-94742000D03*
X118110000Y-97282000D03*
G04 #@! TD*
D18*
G04 #@! TO.C,L1*
X148844000Y-97790000D03*
X148844000Y-92790000D03*
G04 #@! TD*
D12*
G04 #@! TO.C,R1*
X110744000Y-83820000D03*
D10*
X118364000Y-83820000D03*
G04 #@! TD*
D12*
G04 #@! TO.C,R2*
X121920000Y-81026000D03*
D10*
X129540000Y-81026000D03*
G04 #@! TD*
G04 #@! TO.C,R3*
X121920000Y-63500000D03*
D12*
X129540000Y-63500000D03*
G04 #@! TD*
D10*
G04 #@! TO.C,R4*
X163830000Y-110236000D03*
D12*
X171450000Y-110236000D03*
G04 #@! TD*
D10*
G04 #@! TO.C,R8*
X143764000Y-109982000D03*
D12*
X151384000Y-109982000D03*
G04 #@! TD*
D10*
G04 #@! TO.C,R9*
X118364000Y-80518000D03*
D12*
X110744000Y-80518000D03*
G04 #@! TD*
G04 #@! TO.C,R10*
X129540000Y-84328000D03*
D10*
X121920000Y-84328000D03*
G04 #@! TD*
G04 #@! TO.C,R11*
X121920000Y-66802000D03*
D12*
X129540000Y-66802000D03*
G04 #@! TD*
G04 #@! TO.C,R12*
X151384000Y-106680000D03*
D10*
X143764000Y-106680000D03*
G04 #@! TD*
D12*
G04 #@! TO.C,R13*
X151384000Y-103378000D03*
D10*
X143764000Y-103378000D03*
G04 #@! TD*
G04 #@! TO.C,R14*
X133604000Y-106680000D03*
D12*
X141224000Y-106680000D03*
G04 #@! TD*
D10*
G04 #@! TO.C,R15*
X133604000Y-103378000D03*
D12*
X141224000Y-103378000D03*
G04 #@! TD*
G04 #@! TO.C,R16*
X118618000Y-71120000D03*
D10*
X118618000Y-63500000D03*
G04 #@! TD*
G04 #@! TO.C,R17*
X152654000Y-76200000D03*
D12*
X145034000Y-76200000D03*
G04 #@! TD*
D10*
G04 #@! TO.C,R18*
X152654000Y-71628000D03*
D12*
X145034000Y-71628000D03*
G04 #@! TD*
G04 #@! TO.C,R19*
X158496000Y-79756000D03*
D10*
X150876000Y-79756000D03*
G04 #@! TD*
D12*
G04 #@! TO.C,R20*
X166878000Y-70612000D03*
D10*
X159258000Y-70612000D03*
G04 #@! TD*
D12*
G04 #@! TO.C,R21*
X159258000Y-67310000D03*
D10*
X166878000Y-67310000D03*
G04 #@! TD*
D12*
G04 #@! TO.C,R22*
X159258000Y-64008000D03*
D10*
X166878000Y-64008000D03*
G04 #@! TD*
G04 #@! TO.C,R23*
X173736000Y-63246000D03*
D12*
X173736000Y-70866000D03*
G04 #@! TD*
D10*
G04 #@! TO.C,R24*
X154686000Y-89662000D03*
D12*
X162306000Y-89662000D03*
G04 #@! TD*
G04 #@! TO.C,R25*
X153162000Y-86614000D03*
D10*
X160782000Y-86614000D03*
G04 #@! TD*
D12*
G04 #@! TO.C,R26*
X159258000Y-83566000D03*
D10*
X151638000Y-83566000D03*
G04 #@! TD*
G04 #@! TO.C,R27*
X117348000Y-101600000D03*
D12*
X117348000Y-109220000D03*
G04 #@! TD*
D10*
G04 #@! TO.C,R28*
X176530000Y-98806000D03*
D12*
X168910000Y-98806000D03*
G04 #@! TD*
D19*
G04 #@! TO.C,RV1*
X112014000Y-76962000D03*
X114554000Y-74422000D03*
X117094000Y-76962000D03*
G04 #@! TD*
G04 #@! TO.C,RV2*
X138430000Y-83820000D03*
X135890000Y-81280000D03*
X133350000Y-83820000D03*
G04 #@! TD*
G04 #@! TO.C,RV3*
X138430000Y-66548000D03*
X135890000Y-64008000D03*
X133350000Y-66548000D03*
G04 #@! TD*
D20*
G04 #@! TO.C,TP1*
X110998000Y-70866000D03*
G04 #@! TD*
G04 #@! TO.C,TP2*
X142748000Y-84074000D03*
G04 #@! TD*
G04 #@! TO.C,TP3*
X142748000Y-64008000D03*
G04 #@! TD*
G04 #@! TO.C,TP4*
X110998000Y-65786000D03*
G04 #@! TD*
G04 #@! TO.C,TP5*
X147828000Y-84074000D03*
G04 #@! TD*
G04 #@! TO.C,TP6*
X147828000Y-64008000D03*
G04 #@! TD*
G04 #@! TO.C,TP7*
X156718000Y-73660000D03*
G04 #@! TD*
D11*
G04 #@! TO.C,U1*
X122428000Y-77724000D03*
D12*
X137668000Y-70104000D03*
X124968000Y-77724000D03*
X135128000Y-70104000D03*
X127508000Y-77724000D03*
X132588000Y-70104000D03*
X130048000Y-77724000D03*
X130048000Y-70104000D03*
X132588000Y-77724000D03*
X127508000Y-70104000D03*
X135128000Y-77724000D03*
X124968000Y-70104000D03*
X137668000Y-77724000D03*
X122428000Y-70104000D03*
G04 #@! TD*
D21*
G04 #@! TO.C,Q1*
X158750000Y-104902000D03*
D22*
X161290000Y-104902000D03*
X160030000Y-103632000D03*
G04 #@! TD*
D21*
G04 #@! TO.C,Q2*
X134620000Y-98552000D03*
D22*
X137160000Y-98552000D03*
X135900000Y-97282000D03*
G04 #@! TD*
G04 #@! TO.C,Q3*
X164074000Y-77724000D03*
X162814000Y-76454000D03*
D21*
X165354000Y-76454000D03*
G04 #@! TD*
D22*
G04 #@! TO.C,Q4*
X160264000Y-95758000D03*
X159004000Y-94488000D03*
D21*
X161544000Y-94488000D03*
G04 #@! TD*
D23*
G04 #@! TO.C,D4*
X123295001Y-92303001D03*
D24*
X130915001Y-92303001D03*
G04 #@! TD*
G04 #@! TO.C,D5*
X130915001Y-96266000D03*
D23*
X123295001Y-96266000D03*
G04 #@! TD*
D16*
G04 #@! TO.C,JP3*
X153416000Y-64262000D03*
D17*
X155956000Y-64262000D03*
G04 #@! TD*
M02*
