G04 #@! TF.GenerationSoftware,KiCad,Pcbnew,(5.0.0-3-g5ebb6b6)*
G04 #@! TF.CreationDate,2019-04-25T20:00:05+02:00*
G04 #@! TF.ProjectId,metallic_beat,6D6574616C6C69635F626561742E6B69,rev?*
G04 #@! TF.SameCoordinates,Original*
G04 #@! TF.FileFunction,Copper,L1,Top,Signal*
G04 #@! TF.FilePolarity,Positive*
%FSLAX46Y46*%
G04 Gerber Fmt 4.6, Leading zero omitted, Abs format (unit mm)*
G04 Created by KiCad (PCBNEW (5.0.0-3-g5ebb6b6)) date Thursday 25 April 2019 20:00:05*
%MOMM*%
%LPD*%
G01*
G04 APERTURE LIST*
G04 #@! TA.AperFunction,ComponentPad*
%ADD10C,1.600000*%
G04 #@! TD*
G04 #@! TA.AperFunction,ComponentPad*
%ADD11R,1.600000X1.600000*%
G04 #@! TD*
G04 #@! TA.AperFunction,ComponentPad*
%ADD12O,1.600000X1.600000*%
G04 #@! TD*
G04 #@! TA.AperFunction,ComponentPad*
%ADD13R,1.800000X1.800000*%
G04 #@! TD*
G04 #@! TA.AperFunction,ComponentPad*
%ADD14C,1.800000*%
G04 #@! TD*
G04 #@! TA.AperFunction,ComponentPad*
%ADD15O,2.000000X4.000000*%
G04 #@! TD*
G04 #@! TA.AperFunction,ComponentPad*
%ADD16R,1.700000X1.700000*%
G04 #@! TD*
G04 #@! TA.AperFunction,ComponentPad*
%ADD17O,1.700000X1.700000*%
G04 #@! TD*
G04 #@! TA.AperFunction,ComponentPad*
%ADD18C,2.600000*%
G04 #@! TD*
G04 #@! TA.AperFunction,ComponentPad*
%ADD19C,1.440000*%
G04 #@! TD*
G04 #@! TA.AperFunction,ComponentPad*
%ADD20R,2.000000X2.000000*%
G04 #@! TD*
G04 #@! TA.AperFunction,ComponentPad*
%ADD21R,1.300000X1.300000*%
G04 #@! TD*
G04 #@! TA.AperFunction,ComponentPad*
%ADD22C,1.300000*%
G04 #@! TD*
G04 #@! TA.AperFunction,ComponentPad*
%ADD23R,2.200000X2.200000*%
G04 #@! TD*
G04 #@! TA.AperFunction,ComponentPad*
%ADD24O,2.200000X2.200000*%
G04 #@! TD*
G04 #@! TA.AperFunction,Conductor*
%ADD25C,0.250000*%
G04 #@! TD*
G04 #@! TA.AperFunction,Conductor*
%ADD26C,0.254000*%
G04 #@! TD*
G04 APERTURE END LIST*
D10*
G04 #@! TO.P,C1,1*
G04 #@! TO.N,Net-(C1-Pad1)*
X114808000Y-65786000D03*
G04 #@! TO.P,C1,2*
G04 #@! TO.N,Net-(C1-Pad2)*
X114808000Y-70786000D03*
G04 #@! TD*
G04 #@! TO.P,C2,2*
G04 #@! TO.N,Net-(C2-Pad2)*
X142828000Y-79756000D03*
G04 #@! TO.P,C2,1*
G04 #@! TO.N,Net-(C2-Pad1)*
X147828000Y-79756000D03*
G04 #@! TD*
G04 #@! TO.P,C3,1*
G04 #@! TO.N,Net-(C3-Pad1)*
X147828000Y-68072000D03*
G04 #@! TO.P,C3,2*
G04 #@! TO.N,Net-(C3-Pad2)*
X142828000Y-68072000D03*
G04 #@! TD*
G04 #@! TO.P,C4,2*
G04 #@! TO.N,Net-(C4-Pad2)*
X154940000Y-106600000D03*
G04 #@! TO.P,C4,1*
G04 #@! TO.N,Net-(C4-Pad1)*
X154940000Y-101600000D03*
G04 #@! TD*
G04 #@! TO.P,C5,2*
G04 #@! TO.N,Net-(C5-Pad2)*
X139112000Y-89662000D03*
G04 #@! TO.P,C5,1*
G04 #@! TO.N,GND*
X134112000Y-89662000D03*
G04 #@! TD*
G04 #@! TO.P,C6,1*
G04 #@! TO.N,Net-(C6-Pad1)*
X156210000Y-68072000D03*
G04 #@! TO.P,C6,2*
G04 #@! TO.N,Net-(C6-Pad2)*
X151210000Y-68072000D03*
G04 #@! TD*
G04 #@! TO.P,C7,2*
G04 #@! TO.N,Net-(C7-Pad2)*
X170180000Y-70024000D03*
G04 #@! TO.P,C7,1*
G04 #@! TO.N,+12V*
X170180000Y-65024000D03*
G04 #@! TD*
G04 #@! TO.P,C8,1*
G04 #@! TO.N,Net-(C11-Pad2)*
X169926000Y-74676000D03*
G04 #@! TO.P,C8,2*
G04 #@! TO.N,Net-(C7-Pad2)*
X174926000Y-74676000D03*
G04 #@! TD*
G04 #@! TO.P,C9,1*
G04 #@! TO.N,Net-(C10-Pad1)*
X120396000Y-103886000D03*
G04 #@! TO.P,C9,2*
G04 #@! TO.N,GND*
X120396000Y-108886000D03*
G04 #@! TD*
D11*
G04 #@! TO.P,C10,1*
G04 #@! TO.N,Net-(C10-Pad1)*
X124206000Y-108458000D03*
D10*
G04 #@! TO.P,C10,2*
G04 #@! TO.N,GND*
X126206000Y-108458000D03*
G04 #@! TD*
G04 #@! TO.P,C11,2*
G04 #@! TO.N,Net-(C11-Pad2)*
X174926000Y-77978000D03*
G04 #@! TO.P,C11,1*
G04 #@! TO.N,Net-(C11-Pad1)*
X169926000Y-77978000D03*
G04 #@! TD*
D11*
G04 #@! TO.P,C12,1*
G04 #@! TO.N,Net-(C11-Pad1)*
X166878000Y-92710000D03*
D10*
G04 #@! TO.P,C12,2*
G04 #@! TO.N,Net-(C12-Pad2)*
X168878000Y-92710000D03*
G04 #@! TD*
G04 #@! TO.P,C13,2*
G04 #@! TO.N,GND*
X126206000Y-102108000D03*
D11*
G04 #@! TO.P,C13,1*
G04 #@! TO.N,+12V*
X124206000Y-102108000D03*
G04 #@! TD*
D10*
G04 #@! TO.P,C14,1*
G04 #@! TO.N,+12V*
X130048000Y-107442000D03*
G04 #@! TO.P,C14,2*
G04 #@! TO.N,GND*
X130048000Y-102442000D03*
G04 #@! TD*
D11*
G04 #@! TO.P,D1,1*
G04 #@! TO.N,Net-(D1-Pad1)*
X161544000Y-110236000D03*
D12*
G04 #@! TO.P,D1,2*
G04 #@! TO.N,GND*
X153924000Y-110236000D03*
G04 #@! TD*
G04 #@! TO.P,D2,2*
G04 #@! TO.N,Net-(D2-Pad2)*
X133858000Y-92456000D03*
D11*
G04 #@! TO.P,D2,1*
G04 #@! TO.N,Net-(C5-Pad2)*
X141478000Y-92456000D03*
G04 #@! TD*
D13*
G04 #@! TO.P,D3,1*
G04 #@! TO.N,GND*
X175514000Y-93472000D03*
D14*
G04 #@! TO.P,D3,2*
G04 #@! TO.N,Net-(D3-Pad2)*
X175514000Y-96012000D03*
G04 #@! TD*
D15*
G04 #@! TO.P,J1,*
G04 #@! TO.N,*
X164600000Y-104394000D03*
G04 #@! TO.P,J1,1*
G04 #@! TO.N,Net-(J1-Pad1)*
X170400000Y-104394000D03*
G04 #@! TO.P,J1,2*
G04 #@! TO.N,GND*
X175700000Y-104394000D03*
G04 #@! TD*
G04 #@! TO.P,J2,2*
G04 #@! TO.N,GND*
X175700000Y-85090000D03*
G04 #@! TO.P,J2,1*
G04 #@! TO.N,Net-(C12-Pad2)*
X170400000Y-85090000D03*
G04 #@! TO.P,J2,*
G04 #@! TO.N,*
X164600000Y-85090000D03*
G04 #@! TD*
D16*
G04 #@! TO.P,J3,1*
G04 #@! TO.N,N/C*
X113538000Y-109982000D03*
D17*
G04 #@! TO.P,J3,2*
X110998000Y-109982000D03*
G04 #@! TO.P,J3,3*
G04 #@! TO.N,GND*
X113538000Y-107442000D03*
G04 #@! TO.P,J3,4*
X110998000Y-107442000D03*
G04 #@! TO.P,J3,5*
X113538000Y-104902000D03*
G04 #@! TO.P,J3,6*
X110998000Y-104902000D03*
G04 #@! TO.P,J3,7*
X113538000Y-102362000D03*
G04 #@! TO.P,J3,8*
X110998000Y-102362000D03*
G04 #@! TO.P,J3,9*
G04 #@! TO.N,+12V*
X113538000Y-99822000D03*
G04 #@! TO.P,J3,10*
X110998000Y-99822000D03*
G04 #@! TO.P,J3,11*
G04 #@! TO.N,+5V*
X113538000Y-97282000D03*
G04 #@! TO.P,J3,12*
X110998000Y-97282000D03*
G04 #@! TO.P,J3,13*
G04 #@! TO.N,N/C*
X113538000Y-94742000D03*
G04 #@! TO.P,J3,14*
X110998000Y-94742000D03*
G04 #@! TO.P,J3,15*
X113538000Y-92202000D03*
G04 #@! TO.P,J3,16*
X110998000Y-92202000D03*
G04 #@! TD*
D16*
G04 #@! TO.P,JP1,1*
G04 #@! TO.N,Net-(J1-Pad1)*
X161798000Y-100330000D03*
D17*
G04 #@! TO.P,JP1,2*
G04 #@! TO.N,Net-(JP1-Pad2)*
X159258000Y-100330000D03*
G04 #@! TD*
D16*
G04 #@! TO.P,JP2,1*
G04 #@! TO.N,+5V*
X118110000Y-92202000D03*
D17*
G04 #@! TO.P,JP2,2*
G04 #@! TO.N,Net-(JP2-Pad2)*
X118110000Y-94742000D03*
G04 #@! TO.P,JP2,3*
G04 #@! TO.N,+12V*
X118110000Y-97282000D03*
G04 #@! TD*
D18*
G04 #@! TO.P,L1,1*
G04 #@! TO.N,+12V*
X148844000Y-97790000D03*
G04 #@! TO.P,L1,2*
G04 #@! TO.N,Net-(C7-Pad2)*
X148844000Y-92790000D03*
G04 #@! TD*
D12*
G04 #@! TO.P,R1,2*
G04 #@! TO.N,Net-(C1-Pad2)*
X110744000Y-83820000D03*
D10*
G04 #@! TO.P,R1,1*
G04 #@! TO.N,Net-(R1-Pad1)*
X118364000Y-83820000D03*
G04 #@! TD*
D12*
G04 #@! TO.P,R2,2*
G04 #@! TO.N,Net-(C2-Pad2)*
X121920000Y-81026000D03*
D10*
G04 #@! TO.P,R2,1*
G04 #@! TO.N,Net-(R2-Pad1)*
X129540000Y-81026000D03*
G04 #@! TD*
G04 #@! TO.P,R3,1*
G04 #@! TO.N,Net-(R3-Pad1)*
X121920000Y-63500000D03*
D12*
G04 #@! TO.P,R3,2*
G04 #@! TO.N,Net-(C3-Pad2)*
X129540000Y-63500000D03*
G04 #@! TD*
D10*
G04 #@! TO.P,R4,1*
G04 #@! TO.N,Net-(D1-Pad1)*
X163830000Y-110236000D03*
D12*
G04 #@! TO.P,R4,2*
G04 #@! TO.N,Net-(JP1-Pad2)*
X171450000Y-110236000D03*
G04 #@! TD*
D10*
G04 #@! TO.P,R8,1*
G04 #@! TO.N,+12V*
X143764000Y-109982000D03*
D12*
G04 #@! TO.P,R8,2*
G04 #@! TO.N,Net-(C4-Pad2)*
X151384000Y-109982000D03*
G04 #@! TD*
D10*
G04 #@! TO.P,R9,1*
G04 #@! TO.N,Net-(R9-Pad1)*
X118364000Y-80518000D03*
D12*
G04 #@! TO.P,R9,2*
G04 #@! TO.N,Net-(R9-Pad2)*
X110744000Y-80518000D03*
G04 #@! TD*
G04 #@! TO.P,R10,2*
G04 #@! TO.N,Net-(R10-Pad2)*
X129540000Y-84328000D03*
D10*
G04 #@! TO.P,R10,1*
G04 #@! TO.N,Net-(R10-Pad1)*
X121920000Y-84328000D03*
G04 #@! TD*
G04 #@! TO.P,R11,1*
G04 #@! TO.N,Net-(R11-Pad1)*
X121920000Y-66802000D03*
D12*
G04 #@! TO.P,R11,2*
G04 #@! TO.N,Net-(R11-Pad2)*
X129540000Y-66802000D03*
G04 #@! TD*
G04 #@! TO.P,R12,2*
G04 #@! TO.N,Net-(C4-Pad1)*
X151384000Y-106680000D03*
D10*
G04 #@! TO.P,R12,1*
G04 #@! TO.N,+12V*
X143764000Y-106680000D03*
G04 #@! TD*
D12*
G04 #@! TO.P,R13,2*
G04 #@! TO.N,Net-(C4-Pad1)*
X151384000Y-103378000D03*
D10*
G04 #@! TO.P,R13,1*
G04 #@! TO.N,Net-(Q2-Pad2)*
X143764000Y-103378000D03*
G04 #@! TD*
G04 #@! TO.P,R14,1*
G04 #@! TO.N,+12V*
X133604000Y-106680000D03*
D12*
G04 #@! TO.P,R14,2*
G04 #@! TO.N,Net-(Q2-Pad2)*
X141224000Y-106680000D03*
G04 #@! TD*
D10*
G04 #@! TO.P,R15,1*
G04 #@! TO.N,+12V*
X133604000Y-103378000D03*
D12*
G04 #@! TO.P,R15,2*
G04 #@! TO.N,Net-(D2-Pad2)*
X141224000Y-103378000D03*
G04 #@! TD*
G04 #@! TO.P,R16,2*
G04 #@! TO.N,Net-(C1-Pad1)*
X118618000Y-71120000D03*
D10*
G04 #@! TO.P,R16,1*
G04 #@! TO.N,Net-(C6-Pad2)*
X118618000Y-63500000D03*
G04 #@! TD*
G04 #@! TO.P,R17,1*
G04 #@! TO.N,Net-(C6-Pad2)*
X152654000Y-76200000D03*
D12*
G04 #@! TO.P,R17,2*
G04 #@! TO.N,Net-(C2-Pad1)*
X145034000Y-76200000D03*
G04 #@! TD*
D10*
G04 #@! TO.P,R18,1*
G04 #@! TO.N,Net-(C6-Pad2)*
X152654000Y-71628000D03*
D12*
G04 #@! TO.P,R18,2*
G04 #@! TO.N,Net-(C3-Pad1)*
X145034000Y-71628000D03*
G04 #@! TD*
G04 #@! TO.P,R19,2*
G04 #@! TO.N,Net-(C6-Pad2)*
X158496000Y-79756000D03*
D10*
G04 #@! TO.P,R19,1*
G04 #@! TO.N,GND*
X150876000Y-79756000D03*
G04 #@! TD*
D12*
G04 #@! TO.P,R20,2*
G04 #@! TO.N,Net-(C5-Pad2)*
X166878000Y-70612000D03*
D10*
G04 #@! TO.P,R20,1*
G04 #@! TO.N,Net-(JP3-Pad2)*
X159258000Y-70612000D03*
G04 #@! TD*
D12*
G04 #@! TO.P,R21,2*
G04 #@! TO.N,Net-(JP3-Pad2)*
X159258000Y-67310000D03*
D10*
G04 #@! TO.P,R21,1*
G04 #@! TO.N,Net-(Q3-Pad2)*
X166878000Y-67310000D03*
G04 #@! TD*
D12*
G04 #@! TO.P,R22,2*
G04 #@! TO.N,GND*
X159258000Y-64008000D03*
D10*
G04 #@! TO.P,R22,1*
G04 #@! TO.N,Net-(Q3-Pad2)*
X166878000Y-64008000D03*
G04 #@! TD*
G04 #@! TO.P,R23,1*
G04 #@! TO.N,+12V*
X173736000Y-63246000D03*
D12*
G04 #@! TO.P,R23,2*
G04 #@! TO.N,Net-(C7-Pad2)*
X173736000Y-70866000D03*
G04 #@! TD*
D10*
G04 #@! TO.P,R24,1*
G04 #@! TO.N,Net-(C11-Pad2)*
X154686000Y-89662000D03*
D12*
G04 #@! TO.P,R24,2*
G04 #@! TO.N,GND*
X162306000Y-89662000D03*
G04 #@! TD*
G04 #@! TO.P,R25,2*
G04 #@! TO.N,Net-(C11-Pad2)*
X153162000Y-86614000D03*
D10*
G04 #@! TO.P,R25,1*
G04 #@! TO.N,Net-(C11-Pad1)*
X160782000Y-86614000D03*
G04 #@! TD*
D12*
G04 #@! TO.P,R26,2*
G04 #@! TO.N,Net-(C11-Pad1)*
X159258000Y-83566000D03*
D10*
G04 #@! TO.P,R26,1*
G04 #@! TO.N,+12V*
X151638000Y-83566000D03*
G04 #@! TD*
G04 #@! TO.P,R27,1*
G04 #@! TO.N,Net-(JP2-Pad2)*
X117348000Y-101600000D03*
D12*
G04 #@! TO.P,R27,2*
G04 #@! TO.N,Net-(C10-Pad1)*
X117348000Y-109220000D03*
G04 #@! TD*
D10*
G04 #@! TO.P,R28,1*
G04 #@! TO.N,Net-(D3-Pad2)*
X176530000Y-98806000D03*
D12*
G04 #@! TO.P,R28,2*
G04 #@! TO.N,Net-(J1-Pad1)*
X168910000Y-98806000D03*
G04 #@! TD*
D19*
G04 #@! TO.P,RV1,1*
G04 #@! TO.N,Net-(C1-Pad2)*
X112014000Y-76962000D03*
G04 #@! TO.P,RV1,2*
X114554000Y-74422000D03*
G04 #@! TO.P,RV1,3*
G04 #@! TO.N,Net-(R9-Pad2)*
X117094000Y-76962000D03*
G04 #@! TD*
G04 #@! TO.P,RV2,3*
G04 #@! TO.N,Net-(R10-Pad2)*
X138430000Y-83820000D03*
G04 #@! TO.P,RV2,2*
G04 #@! TO.N,Net-(C2-Pad2)*
X135890000Y-81280000D03*
G04 #@! TO.P,RV2,1*
X133350000Y-83820000D03*
G04 #@! TD*
G04 #@! TO.P,RV3,3*
G04 #@! TO.N,Net-(R11-Pad2)*
X138430000Y-66548000D03*
G04 #@! TO.P,RV3,2*
G04 #@! TO.N,Net-(C3-Pad2)*
X135890000Y-64008000D03*
G04 #@! TO.P,RV3,1*
X133350000Y-66548000D03*
G04 #@! TD*
D20*
G04 #@! TO.P,TP1,1*
G04 #@! TO.N,Net-(C1-Pad2)*
X110998000Y-70866000D03*
G04 #@! TD*
G04 #@! TO.P,TP2,1*
G04 #@! TO.N,Net-(C2-Pad2)*
X142748000Y-84074000D03*
G04 #@! TD*
G04 #@! TO.P,TP3,1*
G04 #@! TO.N,Net-(C3-Pad2)*
X142748000Y-64008000D03*
G04 #@! TD*
G04 #@! TO.P,TP4,1*
G04 #@! TO.N,Net-(C1-Pad1)*
X110998000Y-65786000D03*
G04 #@! TD*
G04 #@! TO.P,TP5,1*
G04 #@! TO.N,Net-(C2-Pad1)*
X147828000Y-84074000D03*
G04 #@! TD*
G04 #@! TO.P,TP6,1*
G04 #@! TO.N,Net-(C3-Pad1)*
X147828000Y-64008000D03*
G04 #@! TD*
G04 #@! TO.P,TP7,1*
G04 #@! TO.N,Net-(C6-Pad2)*
X156718000Y-73660000D03*
G04 #@! TD*
D11*
G04 #@! TO.P,U1,1*
G04 #@! TO.N,Net-(R1-Pad1)*
X122428000Y-77724000D03*
D12*
G04 #@! TO.P,U1,8*
G04 #@! TO.N,Net-(C2-Pad1)*
X137668000Y-70104000D03*
G04 #@! TO.P,U1,2*
G04 #@! TO.N,Net-(R9-Pad1)*
X124968000Y-77724000D03*
G04 #@! TO.P,U1,9*
G04 #@! TO.N,Net-(R10-Pad1)*
X135128000Y-70104000D03*
G04 #@! TO.P,U1,3*
G04 #@! TO.N,Net-(R9-Pad1)*
X127508000Y-77724000D03*
G04 #@! TO.P,U1,10*
G04 #@! TO.N,Net-(R11-Pad1)*
X132588000Y-70104000D03*
G04 #@! TO.P,U1,4*
G04 #@! TO.N,Net-(C1-Pad1)*
X130048000Y-77724000D03*
G04 #@! TO.P,U1,11*
G04 #@! TO.N,Net-(R3-Pad1)*
X130048000Y-70104000D03*
G04 #@! TO.P,U1,5*
G04 #@! TO.N,Net-(R2-Pad1)*
X132588000Y-77724000D03*
G04 #@! TO.P,U1,12*
G04 #@! TO.N,Net-(C3-Pad1)*
X127508000Y-70104000D03*
G04 #@! TO.P,U1,6*
G04 #@! TO.N,Net-(R10-Pad1)*
X135128000Y-77724000D03*
G04 #@! TO.P,U1,13*
G04 #@! TO.N,Net-(R11-Pad1)*
X124968000Y-70104000D03*
G04 #@! TO.P,U1,7*
G04 #@! TO.N,GND*
X137668000Y-77724000D03*
G04 #@! TO.P,U1,14*
G04 #@! TO.N,Net-(C10-Pad1)*
X122428000Y-70104000D03*
G04 #@! TD*
D21*
G04 #@! TO.P,Q1,1*
G04 #@! TO.N,Net-(C4-Pad2)*
X158750000Y-104902000D03*
D22*
G04 #@! TO.P,Q1,3*
G04 #@! TO.N,GND*
X161290000Y-104902000D03*
G04 #@! TO.P,Q1,2*
G04 #@! TO.N,Net-(D1-Pad1)*
X160030000Y-103632000D03*
G04 #@! TD*
D21*
G04 #@! TO.P,Q2,1*
G04 #@! TO.N,Net-(D2-Pad2)*
X134620000Y-98552000D03*
D22*
G04 #@! TO.P,Q2,3*
G04 #@! TO.N,GND*
X137160000Y-98552000D03*
G04 #@! TO.P,Q2,2*
G04 #@! TO.N,Net-(Q2-Pad2)*
X135900000Y-97282000D03*
G04 #@! TD*
G04 #@! TO.P,Q3,2*
G04 #@! TO.N,Net-(Q3-Pad2)*
X164074000Y-77724000D03*
G04 #@! TO.P,Q3,3*
G04 #@! TO.N,GND*
X162814000Y-76454000D03*
D21*
G04 #@! TO.P,Q3,1*
G04 #@! TO.N,Net-(C7-Pad2)*
X165354000Y-76454000D03*
G04 #@! TD*
D22*
G04 #@! TO.P,Q4,2*
G04 #@! TO.N,Net-(C11-Pad2)*
X160264000Y-95758000D03*
G04 #@! TO.P,Q4,3*
G04 #@! TO.N,GND*
X159004000Y-94488000D03*
D21*
G04 #@! TO.P,Q4,1*
G04 #@! TO.N,Net-(C11-Pad1)*
X161544000Y-94488000D03*
G04 #@! TD*
D23*
G04 #@! TO.P,D4,1*
G04 #@! TO.N,+5V*
X123295001Y-92303001D03*
D24*
G04 #@! TO.P,D4,2*
G04 #@! TO.N,GND*
X130915001Y-92303001D03*
G04 #@! TD*
G04 #@! TO.P,D5,2*
G04 #@! TO.N,GND*
X130915001Y-96266000D03*
D23*
G04 #@! TO.P,D5,1*
G04 #@! TO.N,+12V*
X123295001Y-96266000D03*
G04 #@! TD*
D16*
G04 #@! TO.P,JP3,1*
G04 #@! TO.N,Net-(C6-Pad1)*
X153416000Y-64262000D03*
D17*
G04 #@! TO.P,JP3,2*
G04 #@! TO.N,Net-(JP3-Pad2)*
X155956000Y-64262000D03*
G04 #@! TD*
D25*
G04 #@! TO.N,Net-(C1-Pad1)*
X110998000Y-65786000D02*
X114808000Y-65786000D01*
X114808000Y-67310000D02*
X114808000Y-65786000D01*
X118618000Y-71120000D02*
X114808000Y-67310000D01*
X130048000Y-76592630D02*
X128639370Y-75184000D01*
X130048000Y-77724000D02*
X130048000Y-76592630D01*
X122682000Y-75184000D02*
X118618000Y-71120000D01*
X128639370Y-75184000D02*
X122682000Y-75184000D01*
G04 #@! TO.N,Net-(C1-Pad2)*
X114728000Y-70866000D02*
X114808000Y-70786000D01*
X110998000Y-70866000D02*
X114728000Y-70866000D01*
X114808000Y-74168000D02*
X114554000Y-74422000D01*
X114808000Y-70786000D02*
X114808000Y-74168000D01*
X113834001Y-75141999D02*
X112014000Y-76962000D01*
X114554000Y-74422000D02*
X113834001Y-75141999D01*
X112014000Y-76962000D02*
X112776000Y-77724000D01*
X112776000Y-81788000D02*
X110744000Y-83820000D01*
X112776000Y-77724000D02*
X112776000Y-81788000D01*
G04 #@! TO.N,Net-(C2-Pad2)*
X129032000Y-82804000D02*
X132334000Y-82804000D01*
X125730000Y-86106000D02*
X129032000Y-82804000D01*
X121412000Y-86106000D02*
X125730000Y-86106000D01*
X120396000Y-85090000D02*
X121412000Y-86106000D01*
X132334000Y-82804000D02*
X133350000Y-83820000D01*
X120396000Y-82550000D02*
X120396000Y-85090000D01*
X121920000Y-81026000D02*
X120396000Y-82550000D01*
X133350000Y-83820000D02*
X135890000Y-81280000D01*
X137414000Y-79756000D02*
X142828000Y-79756000D01*
X135890000Y-81280000D02*
X137414000Y-79756000D01*
X142828000Y-83994000D02*
X142748000Y-84074000D01*
X142828000Y-79756000D02*
X142828000Y-83994000D01*
G04 #@! TO.N,Net-(C2-Pad1)*
X138938000Y-70104000D02*
X145034000Y-76200000D01*
X137668000Y-70104000D02*
X138938000Y-70104000D01*
X147828000Y-78994000D02*
X147828000Y-79756000D01*
X145034000Y-76200000D02*
X147828000Y-78994000D01*
X147828000Y-79756000D02*
X147828000Y-84074000D01*
G04 #@! TO.N,Net-(C3-Pad1)*
X147828000Y-64008000D02*
X147828000Y-68072000D01*
X145034000Y-70866000D02*
X145034000Y-71628000D01*
X147828000Y-68072000D02*
X145034000Y-70866000D01*
G04 #@! TO.N,Net-(C3-Pad2)*
X132588000Y-66548000D02*
X133350000Y-66548000D01*
X129540000Y-63500000D02*
X132588000Y-66548000D01*
X134069999Y-65828001D02*
X135890000Y-64008000D01*
X133350000Y-66548000D02*
X134069999Y-65828001D01*
X135890000Y-64008000D02*
X142748000Y-64008000D01*
X142748000Y-67992000D02*
X142828000Y-68072000D01*
X142748000Y-64008000D02*
X142748000Y-67992000D01*
G04 #@! TO.N,Net-(C4-Pad2)*
X154766000Y-106600000D02*
X154940000Y-106600000D01*
X151384000Y-109982000D02*
X154766000Y-106600000D01*
X156638000Y-104902000D02*
X158750000Y-104902000D01*
X154940000Y-106600000D02*
X156638000Y-104902000D01*
G04 #@! TO.N,Net-(C4-Pad1)*
X151384000Y-106680000D02*
X151384000Y-103378000D01*
X153162000Y-101600000D02*
X154940000Y-101600000D01*
X151384000Y-103378000D02*
X153162000Y-101600000D01*
G04 #@! TO.N,Net-(C5-Pad2)*
X141478000Y-92028000D02*
X141478000Y-92456000D01*
X139112000Y-89662000D02*
X141478000Y-92028000D01*
X155194000Y-82296000D02*
X157605590Y-82296000D01*
X141478000Y-92456000D02*
X145034000Y-92456000D01*
X160274000Y-79627590D02*
X160274000Y-77216000D01*
X145034000Y-92456000D02*
X155194000Y-82296000D01*
X157605590Y-82296000D02*
X160274000Y-79627590D01*
X160274000Y-77216000D02*
X166078001Y-71411999D01*
X166078001Y-71411999D02*
X166878000Y-70612000D01*
G04 #@! TO.N,Net-(C6-Pad1)*
X153416000Y-65278000D02*
X153416000Y-64262000D01*
X156210000Y-68072000D02*
X153416000Y-65278000D01*
G04 #@! TO.N,Net-(C6-Pad2)*
X119995990Y-62122010D02*
X148736010Y-62122010D01*
X118618000Y-63500000D02*
X119995990Y-62122010D01*
X151210000Y-64596000D02*
X151210000Y-68072000D01*
X148736010Y-62122010D02*
X151210000Y-64596000D01*
X151210000Y-70184000D02*
X152654000Y-71628000D01*
X151210000Y-68072000D02*
X151210000Y-70184000D01*
X151854001Y-75400001D02*
X152654000Y-76200000D01*
X151854001Y-72427999D02*
X151854001Y-75400001D01*
X152654000Y-71628000D02*
X151854001Y-72427999D01*
X154686000Y-73660000D02*
X156718000Y-73660000D01*
X152654000Y-71628000D02*
X154686000Y-73660000D01*
X157968000Y-73660000D02*
X156718000Y-73660000D01*
X158496000Y-74188000D02*
X157968000Y-73660000D01*
X158496000Y-79756000D02*
X158496000Y-74188000D01*
G04 #@! TO.N,Net-(C7-Pad2)*
X174926000Y-72056000D02*
X173736000Y-70866000D01*
X174926000Y-74676000D02*
X174926000Y-72056000D01*
X171022000Y-70866000D02*
X170180000Y-70024000D01*
X173736000Y-70866000D02*
X171022000Y-70866000D01*
X166254000Y-76454000D02*
X168148000Y-74560000D01*
X165354000Y-76454000D02*
X166254000Y-76454000D01*
X168148000Y-74560000D02*
X168148000Y-73660000D01*
X170180000Y-71628000D02*
X170180000Y-70024000D01*
X168148000Y-73660000D02*
X170180000Y-71628000D01*
X165354000Y-78232000D02*
X165354000Y-76454000D01*
X164592000Y-78994000D02*
X165354000Y-78232000D01*
X148844000Y-92790000D02*
X148844000Y-89282410D01*
X157734000Y-82804000D02*
X161544000Y-78994000D01*
X148844000Y-89282410D02*
X155322410Y-82804000D01*
X155322410Y-82804000D02*
X157734000Y-82804000D01*
X161544000Y-78994000D02*
X164592000Y-78994000D01*
G04 #@! TO.N,Net-(C11-Pad2)*
X171624000Y-74676000D02*
X169926000Y-74676000D01*
X174926000Y-77978000D02*
X171624000Y-74676000D01*
X165354000Y-79248000D02*
X169926000Y-74676000D01*
X165157990Y-79444010D02*
X165354000Y-79248000D01*
X161730400Y-79444010D02*
X165157990Y-79444010D01*
X155360409Y-85814001D02*
X161730400Y-79444010D01*
X153961999Y-85814001D02*
X155360409Y-85814001D01*
X153162000Y-86614000D02*
X153961999Y-85814001D01*
X153162000Y-88138000D02*
X154686000Y-89662000D01*
X153162000Y-86614000D02*
X153162000Y-88138000D01*
X154686000Y-92710000D02*
X157734000Y-95758000D01*
X157734000Y-95758000D02*
X160264000Y-95758000D01*
X154686000Y-89662000D02*
X154686000Y-92710000D01*
G04 #@! TO.N,Net-(C10-Pad1)*
X120684000Y-103886000D02*
X120396000Y-103886000D01*
X124206000Y-107408000D02*
X120684000Y-103886000D01*
X124206000Y-108458000D02*
X124206000Y-107408000D01*
X120396000Y-106172000D02*
X120396000Y-103886000D01*
X117348000Y-109220000D02*
X120396000Y-106172000D01*
G04 #@! TO.N,Net-(C11-Pad1)*
X169926000Y-77978000D02*
X167132000Y-80772000D01*
X167132000Y-80772000D02*
X167132000Y-87122000D01*
X167132000Y-87122000D02*
X166370000Y-87884000D01*
X162052000Y-87884000D02*
X160782000Y-86614000D01*
X166370000Y-87884000D02*
X162052000Y-87884000D01*
X160782000Y-85090000D02*
X159258000Y-83566000D01*
X160782000Y-86614000D02*
X160782000Y-85090000D01*
X166878000Y-88392000D02*
X166878000Y-92710000D01*
X166370000Y-87884000D02*
X166878000Y-88392000D01*
X166878000Y-92710000D02*
X165354000Y-92710000D01*
X163576000Y-94488000D02*
X161544000Y-94488000D01*
X165354000Y-92710000D02*
X163576000Y-94488000D01*
G04 #@! TO.N,Net-(C12-Pad2)*
X170400000Y-91188000D02*
X168878000Y-92710000D01*
X170400000Y-85090000D02*
X170400000Y-91188000D01*
G04 #@! TO.N,Net-(D1-Pad1)*
X160494000Y-110236000D02*
X161544000Y-110236000D01*
X160030000Y-109772000D02*
X160494000Y-110236000D01*
X160030000Y-103632000D02*
X160030000Y-109772000D01*
X161544000Y-110236000D02*
X163830000Y-110236000D01*
G04 #@! TO.N,Net-(D2-Pad2)*
X133858000Y-97790000D02*
X134620000Y-98552000D01*
X133858000Y-92456000D02*
X133858000Y-97790000D01*
X136652000Y-103378000D02*
X134620000Y-101346000D01*
X134620000Y-101346000D02*
X134620000Y-98552000D01*
X141224000Y-103378000D02*
X136652000Y-103378000D01*
G04 #@! TO.N,Net-(D3-Pad2)*
X176530000Y-97028000D02*
X175514000Y-96012000D01*
X176530000Y-98806000D02*
X176530000Y-97028000D01*
G04 #@! TO.N,Net-(J1-Pad1)*
X167386000Y-100330000D02*
X168910000Y-98806000D01*
X161798000Y-100330000D02*
X167386000Y-100330000D01*
X168910000Y-101904000D02*
X170400000Y-103394000D01*
X170400000Y-103394000D02*
X170400000Y-104394000D01*
X168910000Y-98806000D02*
X168910000Y-101904000D01*
G04 #@! TO.N,+5V*
X110998000Y-97282000D02*
X113538000Y-97282000D01*
X114387999Y-95924001D02*
X118110000Y-92202000D01*
X114387999Y-96432001D02*
X114387999Y-95924001D01*
X113538000Y-97282000D02*
X114387999Y-96432001D01*
X123194000Y-92202000D02*
X123295001Y-92303001D01*
X118110000Y-92202000D02*
X123194000Y-92202000D01*
G04 #@! TO.N,Net-(JP1-Pad2)*
X162560000Y-103632000D02*
X159258000Y-100330000D01*
X162560000Y-105918000D02*
X162560000Y-103632000D01*
X164592000Y-107950000D02*
X162560000Y-105918000D01*
X169164000Y-107950000D02*
X164592000Y-107950000D01*
X171450000Y-110236000D02*
X169164000Y-107950000D01*
G04 #@! TO.N,Net-(JP2-Pad2)*
X117348000Y-100468630D02*
X117348000Y-101600000D01*
X116934999Y-95917001D02*
X116934999Y-100055629D01*
X116934999Y-100055629D02*
X117348000Y-100468630D01*
X118110000Y-94742000D02*
X116934999Y-95917001D01*
G04 #@! TO.N,Net-(R1-Pad1)*
X118872000Y-77724000D02*
X122428000Y-77724000D01*
X116332000Y-81788000D02*
X116332000Y-80264000D01*
X116332000Y-80264000D02*
X118872000Y-77724000D01*
X118364000Y-83820000D02*
X116332000Y-81788000D01*
G04 #@! TO.N,Net-(R3-Pad1)*
X129248001Y-69304001D02*
X130048000Y-70104000D01*
X124243999Y-64299999D02*
X129248001Y-69304001D01*
X122719999Y-64299999D02*
X124243999Y-64299999D01*
X121920000Y-63500000D02*
X122719999Y-64299999D01*
G04 #@! TO.N,Net-(R9-Pad1)*
X124168001Y-78523999D02*
X124968000Y-77724000D01*
X122973999Y-79718001D02*
X124168001Y-78523999D01*
X119163999Y-79718001D02*
X122973999Y-79718001D01*
X118364000Y-80518000D02*
X119163999Y-79718001D01*
X126099370Y-77724000D02*
X127508000Y-77724000D01*
X124968000Y-77724000D02*
X126099370Y-77724000D01*
G04 #@! TO.N,Net-(R10-Pad2)*
X130556000Y-85344000D02*
X129540000Y-84328000D01*
X136906000Y-85344000D02*
X130556000Y-85344000D01*
X138430000Y-83820000D02*
X136906000Y-85344000D01*
G04 #@! TO.N,Net-(R10-Pad1)*
X121920000Y-84328000D02*
X123952000Y-84328000D01*
X123952000Y-84328000D02*
X128778000Y-79502000D01*
X133350000Y-79502000D02*
X135128000Y-77724000D01*
X128778000Y-79502000D02*
X133350000Y-79502000D01*
X135128000Y-71235370D02*
X135128000Y-77724000D01*
X135128000Y-70104000D02*
X135128000Y-71235370D01*
G04 #@! TO.N,Net-(R11-Pad1)*
X124968000Y-69850000D02*
X124968000Y-70104000D01*
X121920000Y-66802000D02*
X124968000Y-69850000D01*
X130556000Y-72136000D02*
X132588000Y-70104000D01*
X127000000Y-72136000D02*
X130556000Y-72136000D01*
X124968000Y-70104000D02*
X127000000Y-72136000D01*
G04 #@! TO.N,Net-(R11-Pad2)*
X130671370Y-66802000D02*
X131941370Y-68072000D01*
X129540000Y-66802000D02*
X130671370Y-66802000D01*
X131941370Y-68072000D02*
X135636000Y-68072000D01*
X137160000Y-66548000D02*
X138430000Y-66548000D01*
X135636000Y-68072000D02*
X137160000Y-66548000D01*
G04 #@! TO.N,Net-(Q2-Pad2)*
X143764000Y-99060000D02*
X143764000Y-103378000D01*
X141986000Y-97282000D02*
X143764000Y-99060000D01*
X135900000Y-97282000D02*
X141986000Y-97282000D01*
X143764000Y-104140000D02*
X143764000Y-103378000D01*
X141224000Y-106680000D02*
X143764000Y-104140000D01*
G04 #@! TO.N,Net-(Q3-Pad2)*
X166878000Y-64008000D02*
X166878000Y-67310000D01*
X164074000Y-77724000D02*
X164074000Y-75194000D01*
X164074000Y-75194000D02*
X164846000Y-74422000D01*
X164846000Y-74422000D02*
X166370000Y-74422000D01*
X166370000Y-74422000D02*
X168656000Y-72136000D01*
X168656000Y-69088000D02*
X166878000Y-67310000D01*
X168656000Y-72136000D02*
X168656000Y-69088000D01*
G04 #@! TO.N,Net-(JP3-Pad2)*
X158458001Y-69812001D02*
X159258000Y-70612000D01*
X158458001Y-68109999D02*
X158458001Y-69812001D01*
X159258000Y-67310000D02*
X158458001Y-68109999D01*
X159004000Y-67310000D02*
X159258000Y-67310000D01*
X155956000Y-64262000D02*
X159004000Y-67310000D01*
G04 #@! TD*
D26*
G04 #@! TO.N,+12V*
G36*
X172482136Y-62491995D02*
X172289035Y-63029223D01*
X172316222Y-63599454D01*
X172482136Y-64000005D01*
X172728255Y-64074139D01*
X173556395Y-63246000D01*
X173542252Y-63231858D01*
X173721858Y-63052252D01*
X173736000Y-63066395D01*
X173750142Y-63052252D01*
X173929748Y-63231858D01*
X173915605Y-63246000D01*
X174743745Y-64074139D01*
X174989864Y-64000005D01*
X175182965Y-63462777D01*
X175155778Y-62892546D01*
X174989864Y-62491995D01*
X174790685Y-62432000D01*
X177090000Y-62432000D01*
X177090000Y-83227361D01*
X176878769Y-82911231D01*
X176337944Y-82549864D01*
X175700000Y-82422969D01*
X175062055Y-82549864D01*
X174521231Y-82911231D01*
X174159864Y-83452056D01*
X174065000Y-83928970D01*
X174065001Y-86251031D01*
X174159865Y-86727945D01*
X174521232Y-87268769D01*
X175062056Y-87630136D01*
X175700000Y-87757031D01*
X176337945Y-87630136D01*
X176878769Y-87268769D01*
X177090001Y-86952639D01*
X177090001Y-96498138D01*
X177077929Y-96480071D01*
X177014473Y-96437671D01*
X177003640Y-96426838D01*
X177049000Y-96317330D01*
X177049000Y-95706670D01*
X176815310Y-95142493D01*
X176646092Y-94973275D01*
X176661765Y-94970157D01*
X176871809Y-94829809D01*
X177012157Y-94619765D01*
X177061440Y-94372000D01*
X177061440Y-92572000D01*
X177012157Y-92324235D01*
X176871809Y-92114191D01*
X176661765Y-91973843D01*
X176414000Y-91924560D01*
X174614000Y-91924560D01*
X174366235Y-91973843D01*
X174156191Y-92114191D01*
X174015843Y-92324235D01*
X173966560Y-92572000D01*
X173966560Y-94372000D01*
X174015843Y-94619765D01*
X174156191Y-94829809D01*
X174366235Y-94970157D01*
X174381908Y-94973275D01*
X174212690Y-95142493D01*
X173979000Y-95706670D01*
X173979000Y-96317330D01*
X174212690Y-96881507D01*
X174644493Y-97313310D01*
X175208670Y-97547000D01*
X175770001Y-97547000D01*
X175770001Y-97567570D01*
X175717138Y-97589466D01*
X175313466Y-97993138D01*
X175095000Y-98520561D01*
X175095000Y-99091439D01*
X175313466Y-99618862D01*
X175717138Y-100022534D01*
X176244561Y-100241000D01*
X176815439Y-100241000D01*
X177090001Y-100127273D01*
X177090001Y-102531362D01*
X176878769Y-102215231D01*
X176337944Y-101853864D01*
X175700000Y-101726969D01*
X175062055Y-101853864D01*
X174521231Y-102215231D01*
X174159864Y-102756056D01*
X174065000Y-103232970D01*
X174065001Y-105555031D01*
X174159865Y-106031945D01*
X174521232Y-106572769D01*
X175062056Y-106934136D01*
X175700000Y-107061031D01*
X176337945Y-106934136D01*
X176878769Y-106572769D01*
X177090001Y-106256638D01*
X177090001Y-111050000D01*
X172631962Y-111050000D01*
X172801740Y-110795909D01*
X172913113Y-110236000D01*
X172801740Y-109676091D01*
X172484577Y-109201423D01*
X172009909Y-108884260D01*
X171591333Y-108801000D01*
X171308667Y-108801000D01*
X171126114Y-108837312D01*
X169754331Y-107465530D01*
X169711929Y-107402071D01*
X169460537Y-107234096D01*
X169238852Y-107190000D01*
X169238847Y-107190000D01*
X169164000Y-107175112D01*
X169089153Y-107190000D01*
X164906802Y-107190000D01*
X164748328Y-107031527D01*
X165237945Y-106934136D01*
X165778769Y-106572769D01*
X166140136Y-106031945D01*
X166235000Y-105555031D01*
X166235000Y-103232969D01*
X166140136Y-102756055D01*
X165778769Y-102215231D01*
X165237944Y-101853864D01*
X164600000Y-101726969D01*
X163962055Y-101853864D01*
X163421231Y-102215231D01*
X163059864Y-102756056D01*
X163009924Y-103007122D01*
X161830242Y-101827440D01*
X162648000Y-101827440D01*
X162895765Y-101778157D01*
X163105809Y-101637809D01*
X163246157Y-101427765D01*
X163295440Y-101180000D01*
X163295440Y-101090000D01*
X167311153Y-101090000D01*
X167386000Y-101104888D01*
X167460847Y-101090000D01*
X167460852Y-101090000D01*
X167682537Y-101045904D01*
X167933929Y-100877929D01*
X167976331Y-100814470D01*
X168150001Y-100640801D01*
X168150001Y-101829148D01*
X168135112Y-101904000D01*
X168194097Y-102200537D01*
X168291961Y-102347000D01*
X168362072Y-102451929D01*
X168425528Y-102494329D01*
X168831226Y-102900028D01*
X168765000Y-103232970D01*
X168765001Y-105555031D01*
X168859865Y-106031945D01*
X169221232Y-106572769D01*
X169762056Y-106934136D01*
X170400000Y-107061031D01*
X171037945Y-106934136D01*
X171578769Y-106572769D01*
X171940136Y-106031945D01*
X172035000Y-105555031D01*
X172035000Y-103232969D01*
X171940136Y-102756055D01*
X171578769Y-102215231D01*
X171037944Y-101853864D01*
X170400000Y-101726969D01*
X169906027Y-101825226D01*
X169670000Y-101589199D01*
X169670000Y-100024043D01*
X169944577Y-99840577D01*
X170261740Y-99365909D01*
X170373113Y-98806000D01*
X170261740Y-98246091D01*
X169944577Y-97771423D01*
X169469909Y-97454260D01*
X169051333Y-97371000D01*
X168768667Y-97371000D01*
X168350091Y-97454260D01*
X167875423Y-97771423D01*
X167558260Y-98246091D01*
X167446887Y-98806000D01*
X167511312Y-99129886D01*
X167071199Y-99570000D01*
X163295440Y-99570000D01*
X163295440Y-99480000D01*
X163246157Y-99232235D01*
X163105809Y-99022191D01*
X162895765Y-98881843D01*
X162648000Y-98832560D01*
X160948000Y-98832560D01*
X160700235Y-98881843D01*
X160490191Y-99022191D01*
X160349843Y-99232235D01*
X160340816Y-99277619D01*
X160328625Y-99259375D01*
X159837418Y-98931161D01*
X159404256Y-98845000D01*
X159111744Y-98845000D01*
X158678582Y-98931161D01*
X158187375Y-99259375D01*
X157859161Y-99750582D01*
X157743908Y-100330000D01*
X157859161Y-100909418D01*
X158187375Y-101400625D01*
X158678582Y-101728839D01*
X159111744Y-101815000D01*
X159404256Y-101815000D01*
X159624408Y-101771209D01*
X160200199Y-102347000D01*
X159774398Y-102347000D01*
X159302106Y-102542629D01*
X158940629Y-102904106D01*
X158745000Y-103376398D01*
X158745000Y-103604560D01*
X158100000Y-103604560D01*
X157852235Y-103653843D01*
X157642191Y-103794191D01*
X157501843Y-104004235D01*
X157474440Y-104142000D01*
X156712848Y-104142000D01*
X156638000Y-104127112D01*
X156563152Y-104142000D01*
X156563148Y-104142000D01*
X156341463Y-104186096D01*
X156090071Y-104354071D01*
X156047671Y-104417527D01*
X155278302Y-105186897D01*
X155225439Y-105165000D01*
X154654561Y-105165000D01*
X154127138Y-105383466D01*
X153723466Y-105787138D01*
X153505000Y-106314561D01*
X153505000Y-106786198D01*
X151707887Y-108583312D01*
X151525333Y-108547000D01*
X151242667Y-108547000D01*
X150824091Y-108630260D01*
X150349423Y-108947423D01*
X150032260Y-109422091D01*
X149920887Y-109982000D01*
X150032260Y-110541909D01*
X150349423Y-111016577D01*
X150399444Y-111050000D01*
X144573989Y-111050000D01*
X144592139Y-110989745D01*
X143764000Y-110161605D01*
X142935861Y-110989745D01*
X142954011Y-111050000D01*
X114992078Y-111050000D01*
X115035440Y-110832000D01*
X115035440Y-109220000D01*
X115884887Y-109220000D01*
X115996260Y-109779909D01*
X116313423Y-110254577D01*
X116788091Y-110571740D01*
X117206667Y-110655000D01*
X117489333Y-110655000D01*
X117907909Y-110571740D01*
X118382577Y-110254577D01*
X118699740Y-109779909D01*
X118811113Y-109220000D01*
X118746688Y-108896113D01*
X118961000Y-108681801D01*
X118961000Y-109171439D01*
X119179466Y-109698862D01*
X119583138Y-110102534D01*
X120110561Y-110321000D01*
X120681439Y-110321000D01*
X121208862Y-110102534D01*
X121612534Y-109698862D01*
X121831000Y-109171439D01*
X121831000Y-108600561D01*
X121612534Y-108073138D01*
X121208862Y-107669466D01*
X120681439Y-107451000D01*
X120191802Y-107451000D01*
X120880473Y-106762329D01*
X120943929Y-106719929D01*
X121111904Y-106468537D01*
X121156000Y-106246852D01*
X121156000Y-106246847D01*
X121170888Y-106172000D01*
X121156000Y-106097153D01*
X121156000Y-105432801D01*
X122938257Y-107215059D01*
X122807843Y-107410235D01*
X122758560Y-107658000D01*
X122758560Y-109258000D01*
X122807843Y-109505765D01*
X122948191Y-109715809D01*
X123158235Y-109856157D01*
X123406000Y-109905440D01*
X125006000Y-109905440D01*
X125253765Y-109856157D01*
X125463809Y-109715809D01*
X125470090Y-109706409D01*
X125920561Y-109893000D01*
X126491439Y-109893000D01*
X126799919Y-109765223D01*
X142317035Y-109765223D01*
X142344222Y-110335454D01*
X142510136Y-110736005D01*
X142756255Y-110810139D01*
X143584395Y-109982000D01*
X143943605Y-109982000D01*
X144771745Y-110810139D01*
X145017864Y-110736005D01*
X145210965Y-110198777D01*
X145183778Y-109628546D01*
X145017864Y-109227995D01*
X144771745Y-109153861D01*
X143943605Y-109982000D01*
X143584395Y-109982000D01*
X142756255Y-109153861D01*
X142510136Y-109227995D01*
X142317035Y-109765223D01*
X126799919Y-109765223D01*
X127018862Y-109674534D01*
X127422534Y-109270862D01*
X127545392Y-108974255D01*
X142935861Y-108974255D01*
X143764000Y-109802395D01*
X144592139Y-108974255D01*
X144518005Y-108728136D01*
X143980777Y-108535035D01*
X143410546Y-108562222D01*
X143009995Y-108728136D01*
X142935861Y-108974255D01*
X127545392Y-108974255D01*
X127641000Y-108743439D01*
X127641000Y-108449745D01*
X129219861Y-108449745D01*
X129293995Y-108695864D01*
X129831223Y-108888965D01*
X130401454Y-108861778D01*
X130802005Y-108695864D01*
X130876139Y-108449745D01*
X130048000Y-107621605D01*
X129219861Y-108449745D01*
X127641000Y-108449745D01*
X127641000Y-108172561D01*
X127422534Y-107645138D01*
X127018862Y-107241466D01*
X126979648Y-107225223D01*
X128601035Y-107225223D01*
X128628222Y-107795454D01*
X128794136Y-108196005D01*
X129040255Y-108270139D01*
X129868395Y-107442000D01*
X130227605Y-107442000D01*
X131055745Y-108270139D01*
X131301864Y-108196005D01*
X131484552Y-107687745D01*
X132775861Y-107687745D01*
X132849995Y-107933864D01*
X133387223Y-108126965D01*
X133957454Y-108099778D01*
X134358005Y-107933864D01*
X134432139Y-107687745D01*
X133604000Y-106859605D01*
X132775861Y-107687745D01*
X131484552Y-107687745D01*
X131494965Y-107658777D01*
X131467778Y-107088546D01*
X131301864Y-106687995D01*
X131055745Y-106613861D01*
X130227605Y-107442000D01*
X129868395Y-107442000D01*
X129040255Y-106613861D01*
X128794136Y-106687995D01*
X128601035Y-107225223D01*
X126979648Y-107225223D01*
X126491439Y-107023000D01*
X125920561Y-107023000D01*
X125470090Y-107209591D01*
X125463809Y-107200191D01*
X125253765Y-107059843D01*
X125006000Y-107010560D01*
X124854483Y-107010560D01*
X124753929Y-106860071D01*
X124690473Y-106817671D01*
X124307057Y-106434255D01*
X129219861Y-106434255D01*
X130048000Y-107262395D01*
X130847171Y-106463223D01*
X132157035Y-106463223D01*
X132184222Y-107033454D01*
X132350136Y-107434005D01*
X132596255Y-107508139D01*
X133424395Y-106680000D01*
X133783605Y-106680000D01*
X134611745Y-107508139D01*
X134857864Y-107434005D01*
X135050965Y-106896777D01*
X135023778Y-106326546D01*
X134857864Y-105925995D01*
X134611745Y-105851861D01*
X133783605Y-106680000D01*
X133424395Y-106680000D01*
X132596255Y-105851861D01*
X132350136Y-105925995D01*
X132157035Y-106463223D01*
X130847171Y-106463223D01*
X130876139Y-106434255D01*
X130802005Y-106188136D01*
X130264777Y-105995035D01*
X129694546Y-106022222D01*
X129293995Y-106188136D01*
X129219861Y-106434255D01*
X124307057Y-106434255D01*
X123545057Y-105672255D01*
X132775861Y-105672255D01*
X133604000Y-106500395D01*
X134432139Y-105672255D01*
X134358005Y-105426136D01*
X133820777Y-105233035D01*
X133250546Y-105260222D01*
X132849995Y-105426136D01*
X132775861Y-105672255D01*
X123545057Y-105672255D01*
X122258547Y-104385745D01*
X132775861Y-104385745D01*
X132849995Y-104631864D01*
X133387223Y-104824965D01*
X133957454Y-104797778D01*
X134358005Y-104631864D01*
X134432139Y-104385745D01*
X133604000Y-103557605D01*
X132775861Y-104385745D01*
X122258547Y-104385745D01*
X121831000Y-103958199D01*
X121831000Y-103600561D01*
X121612534Y-103073138D01*
X121208862Y-102669466D01*
X120681439Y-102451000D01*
X120110561Y-102451000D01*
X119583138Y-102669466D01*
X119179466Y-103073138D01*
X118961000Y-103600561D01*
X118961000Y-104171439D01*
X119179466Y-104698862D01*
X119583138Y-105102534D01*
X119636000Y-105124430D01*
X119636000Y-105857198D01*
X117671887Y-107821312D01*
X117489333Y-107785000D01*
X117206667Y-107785000D01*
X116788091Y-107868260D01*
X116313423Y-108185423D01*
X115996260Y-108660091D01*
X115884887Y-109220000D01*
X115035440Y-109220000D01*
X115035440Y-109132000D01*
X114986157Y-108884235D01*
X114845809Y-108674191D01*
X114635765Y-108533843D01*
X114590381Y-108524816D01*
X114608625Y-108512625D01*
X114936839Y-108021418D01*
X115052092Y-107442000D01*
X114936839Y-106862582D01*
X114608625Y-106371375D01*
X114310239Y-106172000D01*
X114608625Y-105972625D01*
X114936839Y-105481418D01*
X115052092Y-104902000D01*
X114936839Y-104322582D01*
X114608625Y-103831375D01*
X114310239Y-103632000D01*
X114608625Y-103432625D01*
X114936839Y-102941418D01*
X115052092Y-102362000D01*
X114936839Y-101782582D01*
X114608625Y-101291375D01*
X114289522Y-101078157D01*
X114419358Y-101017183D01*
X114809645Y-100588924D01*
X114979476Y-100178890D01*
X114858155Y-99949000D01*
X113665000Y-99949000D01*
X113665000Y-99969000D01*
X113411000Y-99969000D01*
X113411000Y-99949000D01*
X111125000Y-99949000D01*
X111125000Y-99969000D01*
X110871000Y-99969000D01*
X110871000Y-99949000D01*
X110851000Y-99949000D01*
X110851000Y-99695000D01*
X110871000Y-99695000D01*
X110871000Y-99675000D01*
X111125000Y-99675000D01*
X111125000Y-99695000D01*
X113411000Y-99695000D01*
X113411000Y-99675000D01*
X113665000Y-99675000D01*
X113665000Y-99695000D01*
X114858155Y-99695000D01*
X114979476Y-99465110D01*
X114809645Y-99055076D01*
X114419358Y-98626817D01*
X114289522Y-98565843D01*
X114608625Y-98352625D01*
X114936839Y-97861418D01*
X115052092Y-97282000D01*
X114979142Y-96915255D01*
X115103903Y-96728538D01*
X115147999Y-96506853D01*
X115147999Y-96506849D01*
X115162887Y-96432002D01*
X115147999Y-96357155D01*
X115147999Y-96238802D01*
X116604020Y-94782782D01*
X116668791Y-95108408D01*
X116450529Y-95326670D01*
X116387070Y-95369072D01*
X116219095Y-95620465D01*
X116174999Y-95842150D01*
X116174999Y-95842154D01*
X116160111Y-95917001D01*
X116174999Y-95991848D01*
X116175000Y-99980777D01*
X116160111Y-100055629D01*
X116175000Y-100130481D01*
X116219096Y-100352166D01*
X116358222Y-100560382D01*
X116131466Y-100787138D01*
X115913000Y-101314561D01*
X115913000Y-101885439D01*
X116131466Y-102412862D01*
X116535138Y-102816534D01*
X117062561Y-103035000D01*
X117633439Y-103035000D01*
X118160862Y-102816534D01*
X118564534Y-102412862D01*
X118572450Y-102393750D01*
X122771000Y-102393750D01*
X122771000Y-103034310D01*
X122867673Y-103267699D01*
X123046302Y-103446327D01*
X123279691Y-103543000D01*
X123920250Y-103543000D01*
X124079000Y-103384250D01*
X124079000Y-102235000D01*
X122929750Y-102235000D01*
X122771000Y-102393750D01*
X118572450Y-102393750D01*
X118783000Y-101885439D01*
X118783000Y-101314561D01*
X118727963Y-101181690D01*
X122771000Y-101181690D01*
X122771000Y-101822250D01*
X122929750Y-101981000D01*
X124079000Y-101981000D01*
X124079000Y-100831750D01*
X124333000Y-100831750D01*
X124333000Y-101981000D01*
X124353000Y-101981000D01*
X124353000Y-102235000D01*
X124333000Y-102235000D01*
X124333000Y-103384250D01*
X124491750Y-103543000D01*
X125132309Y-103543000D01*
X125365698Y-103446327D01*
X125459856Y-103352170D01*
X125920561Y-103543000D01*
X126491439Y-103543000D01*
X127018862Y-103324534D01*
X127422534Y-102920862D01*
X127641000Y-102393439D01*
X127641000Y-102156561D01*
X128613000Y-102156561D01*
X128613000Y-102727439D01*
X128831466Y-103254862D01*
X129235138Y-103658534D01*
X129762561Y-103877000D01*
X130333439Y-103877000D01*
X130860862Y-103658534D01*
X131264534Y-103254862D01*
X131303320Y-103161223D01*
X132157035Y-103161223D01*
X132184222Y-103731454D01*
X132350136Y-104132005D01*
X132596255Y-104206139D01*
X133424395Y-103378000D01*
X132596255Y-102549861D01*
X132350136Y-102623995D01*
X132157035Y-103161223D01*
X131303320Y-103161223D01*
X131483000Y-102727439D01*
X131483000Y-102156561D01*
X131264534Y-101629138D01*
X130860862Y-101225466D01*
X130333439Y-101007000D01*
X129762561Y-101007000D01*
X129235138Y-101225466D01*
X128831466Y-101629138D01*
X128613000Y-102156561D01*
X127641000Y-102156561D01*
X127641000Y-101822561D01*
X127422534Y-101295138D01*
X127018862Y-100891466D01*
X126491439Y-100673000D01*
X125920561Y-100673000D01*
X125459856Y-100863830D01*
X125365698Y-100769673D01*
X125132309Y-100673000D01*
X124491750Y-100673000D01*
X124333000Y-100831750D01*
X124079000Y-100831750D01*
X123920250Y-100673000D01*
X123279691Y-100673000D01*
X123046302Y-100769673D01*
X122867673Y-100948301D01*
X122771000Y-101181690D01*
X118727963Y-101181690D01*
X118564534Y-100787138D01*
X118160862Y-100383466D01*
X118101018Y-100358678D01*
X118063904Y-100172093D01*
X117895929Y-99920701D01*
X117832470Y-99878299D01*
X117694999Y-99740828D01*
X117694999Y-98696196D01*
X117753108Y-98723486D01*
X117983000Y-98602819D01*
X117983000Y-97409000D01*
X118237000Y-97409000D01*
X118237000Y-98602819D01*
X118466892Y-98723486D01*
X118991358Y-98477183D01*
X119381645Y-98048924D01*
X119551476Y-97638890D01*
X119430155Y-97409000D01*
X118237000Y-97409000D01*
X117983000Y-97409000D01*
X117963000Y-97409000D01*
X117963000Y-97155000D01*
X117983000Y-97155000D01*
X117983000Y-97135000D01*
X118237000Y-97135000D01*
X118237000Y-97155000D01*
X119430155Y-97155000D01*
X119551476Y-96925110D01*
X119396835Y-96551750D01*
X121560001Y-96551750D01*
X121560001Y-97492310D01*
X121656674Y-97725699D01*
X121835303Y-97904327D01*
X122068692Y-98001000D01*
X123009251Y-98001000D01*
X123168001Y-97842250D01*
X123168001Y-96393000D01*
X123422001Y-96393000D01*
X123422001Y-97842250D01*
X123580751Y-98001000D01*
X124521310Y-98001000D01*
X124754699Y-97904327D01*
X124933328Y-97725699D01*
X125030001Y-97492310D01*
X125030001Y-96551750D01*
X124871251Y-96393000D01*
X123422001Y-96393000D01*
X123168001Y-96393000D01*
X121718751Y-96393000D01*
X121560001Y-96551750D01*
X119396835Y-96551750D01*
X119381645Y-96515076D01*
X119154654Y-96266000D01*
X129146011Y-96266000D01*
X129280667Y-96942963D01*
X129664136Y-97516865D01*
X130238038Y-97900334D01*
X130744121Y-98001000D01*
X131085881Y-98001000D01*
X131591964Y-97900334D01*
X132165866Y-97516865D01*
X132549335Y-96942963D01*
X132683991Y-96266000D01*
X132549335Y-95589037D01*
X132165866Y-95015135D01*
X131591964Y-94631666D01*
X131085881Y-94531000D01*
X130744121Y-94531000D01*
X130238038Y-94631666D01*
X129664136Y-95015135D01*
X129280667Y-95589037D01*
X129146011Y-96266000D01*
X119154654Y-96266000D01*
X118991358Y-96086817D01*
X118861522Y-96025843D01*
X119180625Y-95812625D01*
X119508839Y-95321418D01*
X119564877Y-95039690D01*
X121560001Y-95039690D01*
X121560001Y-95980250D01*
X121718751Y-96139000D01*
X123168001Y-96139000D01*
X123168001Y-94689750D01*
X123422001Y-94689750D01*
X123422001Y-96139000D01*
X124871251Y-96139000D01*
X125030001Y-95980250D01*
X125030001Y-95039690D01*
X124933328Y-94806301D01*
X124754699Y-94627673D01*
X124521310Y-94531000D01*
X123580751Y-94531000D01*
X123422001Y-94689750D01*
X123168001Y-94689750D01*
X123009251Y-94531000D01*
X122068692Y-94531000D01*
X121835303Y-94627673D01*
X121656674Y-94806301D01*
X121560001Y-95039690D01*
X119564877Y-95039690D01*
X119624092Y-94742000D01*
X119508839Y-94162582D01*
X119180625Y-93671375D01*
X119162381Y-93659184D01*
X119207765Y-93650157D01*
X119417809Y-93509809D01*
X119558157Y-93299765D01*
X119607440Y-93052000D01*
X119607440Y-92962000D01*
X121547561Y-92962000D01*
X121547561Y-93403001D01*
X121596844Y-93650766D01*
X121737192Y-93860810D01*
X121947236Y-94001158D01*
X122195001Y-94050441D01*
X124395001Y-94050441D01*
X124642766Y-94001158D01*
X124852810Y-93860810D01*
X124993158Y-93650766D01*
X125042441Y-93403001D01*
X125042441Y-92303001D01*
X129146011Y-92303001D01*
X129280667Y-92979964D01*
X129664136Y-93553866D01*
X130238038Y-93937335D01*
X130744121Y-94038001D01*
X131085881Y-94038001D01*
X131591964Y-93937335D01*
X132165866Y-93553866D01*
X132515789Y-93030170D01*
X132823423Y-93490577D01*
X133098000Y-93674044D01*
X133098001Y-97715148D01*
X133083112Y-97790000D01*
X133142097Y-98086537D01*
X133256713Y-98258071D01*
X133310072Y-98337929D01*
X133322560Y-98346273D01*
X133322560Y-99202000D01*
X133371843Y-99449765D01*
X133512191Y-99659809D01*
X133722235Y-99800157D01*
X133860001Y-99827560D01*
X133860000Y-101271153D01*
X133845112Y-101346000D01*
X133860000Y-101420847D01*
X133860000Y-101420851D01*
X133904096Y-101642536D01*
X134072071Y-101893929D01*
X134135530Y-101936331D01*
X134303880Y-102104681D01*
X133820777Y-101931035D01*
X133250546Y-101958222D01*
X132849995Y-102124136D01*
X132775861Y-102370255D01*
X133604000Y-103198395D01*
X133618142Y-103184252D01*
X133797748Y-103363858D01*
X133783605Y-103378000D01*
X134611745Y-104206139D01*
X134857864Y-104132005D01*
X135050965Y-103594777D01*
X135023778Y-103024546D01*
X134882380Y-102683181D01*
X136061671Y-103862473D01*
X136104071Y-103925929D01*
X136355463Y-104093904D01*
X136577148Y-104138000D01*
X136577153Y-104138000D01*
X136652000Y-104152888D01*
X136726847Y-104138000D01*
X140005957Y-104138000D01*
X140189423Y-104412577D01*
X140664091Y-104729740D01*
X141082667Y-104813000D01*
X141365333Y-104813000D01*
X141783909Y-104729740D01*
X142258577Y-104412577D01*
X142493606Y-104060832D01*
X142547466Y-104190862D01*
X142592901Y-104236297D01*
X141547886Y-105281312D01*
X141365333Y-105245000D01*
X141082667Y-105245000D01*
X140664091Y-105328260D01*
X140189423Y-105645423D01*
X139872260Y-106120091D01*
X139760887Y-106680000D01*
X139872260Y-107239909D01*
X140189423Y-107714577D01*
X140664091Y-108031740D01*
X141082667Y-108115000D01*
X141365333Y-108115000D01*
X141783909Y-108031740D01*
X142258577Y-107714577D01*
X142276505Y-107687745D01*
X142935861Y-107687745D01*
X143009995Y-107933864D01*
X143547223Y-108126965D01*
X144117454Y-108099778D01*
X144518005Y-107933864D01*
X144592139Y-107687745D01*
X143764000Y-106859605D01*
X142935861Y-107687745D01*
X142276505Y-107687745D01*
X142485611Y-107374797D01*
X142510136Y-107434005D01*
X142756255Y-107508139D01*
X143584395Y-106680000D01*
X143943605Y-106680000D01*
X144771745Y-107508139D01*
X145017864Y-107434005D01*
X145210965Y-106896777D01*
X145183778Y-106326546D01*
X145017864Y-105925995D01*
X144771745Y-105851861D01*
X143943605Y-106680000D01*
X143584395Y-106680000D01*
X143570252Y-106665858D01*
X143749858Y-106486252D01*
X143764000Y-106500395D01*
X144592139Y-105672255D01*
X144518005Y-105426136D01*
X143980777Y-105233035D01*
X143734002Y-105244801D01*
X144248085Y-104730718D01*
X144576862Y-104594534D01*
X144980534Y-104190862D01*
X145199000Y-103663439D01*
X145199000Y-103378000D01*
X149920887Y-103378000D01*
X150032260Y-103937909D01*
X150349423Y-104412577D01*
X150624001Y-104596044D01*
X150624000Y-105461956D01*
X150349423Y-105645423D01*
X150032260Y-106120091D01*
X149920887Y-106680000D01*
X150032260Y-107239909D01*
X150349423Y-107714577D01*
X150824091Y-108031740D01*
X151242667Y-108115000D01*
X151525333Y-108115000D01*
X151943909Y-108031740D01*
X152418577Y-107714577D01*
X152735740Y-107239909D01*
X152847113Y-106680000D01*
X152735740Y-106120091D01*
X152418577Y-105645423D01*
X152144000Y-105461957D01*
X152144000Y-104596043D01*
X152418577Y-104412577D01*
X152735740Y-103937909D01*
X152847113Y-103378000D01*
X152782688Y-103054114D01*
X153476802Y-102360000D01*
X153701570Y-102360000D01*
X153723466Y-102412862D01*
X154127138Y-102816534D01*
X154654561Y-103035000D01*
X155225439Y-103035000D01*
X155752862Y-102816534D01*
X156156534Y-102412862D01*
X156375000Y-101885439D01*
X156375000Y-101314561D01*
X156156534Y-100787138D01*
X155752862Y-100383466D01*
X155225439Y-100165000D01*
X154654561Y-100165000D01*
X154127138Y-100383466D01*
X153723466Y-100787138D01*
X153701570Y-100840000D01*
X153236848Y-100840000D01*
X153162000Y-100825112D01*
X153087152Y-100840000D01*
X153087148Y-100840000D01*
X152913605Y-100874520D01*
X152865462Y-100884096D01*
X152747134Y-100963161D01*
X152614071Y-101052071D01*
X152571671Y-101115527D01*
X151707886Y-101979312D01*
X151525333Y-101943000D01*
X151242667Y-101943000D01*
X150824091Y-102026260D01*
X150349423Y-102343423D01*
X150032260Y-102818091D01*
X149920887Y-103378000D01*
X145199000Y-103378000D01*
X145199000Y-103092561D01*
X144980534Y-102565138D01*
X144576862Y-102161466D01*
X144524000Y-102139570D01*
X144524000Y-99159459D01*
X147654146Y-99159459D01*
X147789504Y-99457455D01*
X148507880Y-99734066D01*
X149277427Y-99714710D01*
X149898496Y-99457455D01*
X150033854Y-99159459D01*
X148844000Y-97969605D01*
X147654146Y-99159459D01*
X144524000Y-99159459D01*
X144524000Y-99134848D01*
X144538888Y-99060000D01*
X144524000Y-98985152D01*
X144524000Y-98985148D01*
X144479904Y-98763463D01*
X144479904Y-98763462D01*
X144354329Y-98575527D01*
X144311929Y-98512071D01*
X144248473Y-98469671D01*
X143232682Y-97453880D01*
X146899934Y-97453880D01*
X146919290Y-98223427D01*
X147176545Y-98844496D01*
X147474541Y-98979854D01*
X148664395Y-97790000D01*
X149023605Y-97790000D01*
X150213459Y-98979854D01*
X150511455Y-98844496D01*
X150788066Y-98126120D01*
X150768710Y-97356573D01*
X150511455Y-96735504D01*
X150213459Y-96600146D01*
X149023605Y-97790000D01*
X148664395Y-97790000D01*
X147474541Y-96600146D01*
X147176545Y-96735504D01*
X146899934Y-97453880D01*
X143232682Y-97453880D01*
X142576331Y-96797530D01*
X142533929Y-96734071D01*
X142282537Y-96566096D01*
X142060852Y-96522000D01*
X142060847Y-96522000D01*
X141986000Y-96507112D01*
X141911153Y-96522000D01*
X136957265Y-96522000D01*
X136855806Y-96420541D01*
X147654146Y-96420541D01*
X148844000Y-97610395D01*
X150033854Y-96420541D01*
X149898496Y-96122545D01*
X149180120Y-95845934D01*
X148410573Y-95865290D01*
X147789504Y-96122545D01*
X147654146Y-96420541D01*
X136855806Y-96420541D01*
X136627894Y-96192629D01*
X136155602Y-95997000D01*
X135644398Y-95997000D01*
X135172106Y-96192629D01*
X134810629Y-96554106D01*
X134618000Y-97019155D01*
X134618000Y-93674043D01*
X134892577Y-93490577D01*
X135209740Y-93015909D01*
X135321113Y-92456000D01*
X135209740Y-91896091D01*
X134892577Y-91421423D01*
X134417909Y-91104260D01*
X134381411Y-91097000D01*
X134397439Y-91097000D01*
X134924862Y-90878534D01*
X135328534Y-90474862D01*
X135547000Y-89947439D01*
X135547000Y-89376561D01*
X135328534Y-88849138D01*
X134924862Y-88445466D01*
X134397439Y-88227000D01*
X133826561Y-88227000D01*
X133299138Y-88445466D01*
X132895466Y-88849138D01*
X132677000Y-89376561D01*
X132677000Y-89947439D01*
X132895466Y-90474862D01*
X133299138Y-90878534D01*
X133666954Y-91030889D01*
X133298091Y-91104260D01*
X132823423Y-91421423D01*
X132580848Y-91784463D01*
X132549335Y-91626038D01*
X132165866Y-91052136D01*
X131591964Y-90668667D01*
X131085881Y-90568001D01*
X130744121Y-90568001D01*
X130238038Y-90668667D01*
X129664136Y-91052136D01*
X129280667Y-91626038D01*
X129146011Y-92303001D01*
X125042441Y-92303001D01*
X125042441Y-91203001D01*
X124993158Y-90955236D01*
X124852810Y-90745192D01*
X124642766Y-90604844D01*
X124395001Y-90555561D01*
X122195001Y-90555561D01*
X121947236Y-90604844D01*
X121737192Y-90745192D01*
X121596844Y-90955236D01*
X121547561Y-91203001D01*
X121547561Y-91442000D01*
X119607440Y-91442000D01*
X119607440Y-91352000D01*
X119558157Y-91104235D01*
X119417809Y-90894191D01*
X119207765Y-90753843D01*
X118960000Y-90704560D01*
X117260000Y-90704560D01*
X117012235Y-90753843D01*
X116802191Y-90894191D01*
X116661843Y-91104235D01*
X116612560Y-91352000D01*
X116612560Y-92624638D01*
X114959698Y-94277501D01*
X114936839Y-94162582D01*
X114608625Y-93671375D01*
X114310239Y-93472000D01*
X114608625Y-93272625D01*
X114936839Y-92781418D01*
X115052092Y-92202000D01*
X114936839Y-91622582D01*
X114608625Y-91131375D01*
X114117418Y-90803161D01*
X113684256Y-90717000D01*
X113391744Y-90717000D01*
X112958582Y-90803161D01*
X112467375Y-91131375D01*
X112268000Y-91429761D01*
X112068625Y-91131375D01*
X111577418Y-90803161D01*
X111144256Y-90717000D01*
X110851744Y-90717000D01*
X110418582Y-90803161D01*
X109930000Y-91129621D01*
X109930000Y-85001962D01*
X110184091Y-85171740D01*
X110602667Y-85255000D01*
X110885333Y-85255000D01*
X111303909Y-85171740D01*
X111778577Y-84854577D01*
X112095740Y-84379909D01*
X112207113Y-83820000D01*
X112142688Y-83496114D01*
X113260473Y-82378329D01*
X113323929Y-82335929D01*
X113491904Y-82084537D01*
X113536000Y-81862852D01*
X113536000Y-81862847D01*
X113550888Y-81788000D01*
X113536000Y-81713153D01*
X113536000Y-77798848D01*
X113550888Y-77724000D01*
X113536000Y-77649152D01*
X113536000Y-77649148D01*
X113501480Y-77475605D01*
X113491904Y-77427462D01*
X113366329Y-77239527D01*
X113365932Y-77238933D01*
X113369000Y-77231526D01*
X113369000Y-76692474D01*
X113365874Y-76684927D01*
X114276928Y-75773874D01*
X114284474Y-75777000D01*
X114823526Y-75777000D01*
X115321546Y-75570714D01*
X115702714Y-75189546D01*
X115909000Y-74691526D01*
X115909000Y-74152474D01*
X115702714Y-73654454D01*
X115568000Y-73519740D01*
X115568000Y-72024430D01*
X115620862Y-72002534D01*
X116024534Y-71598862D01*
X116243000Y-71071439D01*
X116243000Y-70500561D01*
X116024534Y-69973138D01*
X115620862Y-69569466D01*
X115093439Y-69351000D01*
X114522561Y-69351000D01*
X113995138Y-69569466D01*
X113591466Y-69973138D01*
X113536433Y-70106000D01*
X112645440Y-70106000D01*
X112645440Y-69866000D01*
X112596157Y-69618235D01*
X112455809Y-69408191D01*
X112245765Y-69267843D01*
X111998000Y-69218560D01*
X109998000Y-69218560D01*
X109930000Y-69232086D01*
X109930000Y-67419914D01*
X109998000Y-67433440D01*
X111998000Y-67433440D01*
X112245765Y-67384157D01*
X112455809Y-67243809D01*
X112596157Y-67033765D01*
X112645440Y-66786000D01*
X112645440Y-66546000D01*
X113569570Y-66546000D01*
X113591466Y-66598862D01*
X113995138Y-67002534D01*
X114048000Y-67024430D01*
X114048000Y-67235153D01*
X114033112Y-67310000D01*
X114048000Y-67384847D01*
X114048000Y-67384851D01*
X114092096Y-67606536D01*
X114260071Y-67857929D01*
X114323530Y-67900331D01*
X117219312Y-70796114D01*
X117154887Y-71120000D01*
X117266260Y-71679909D01*
X117583423Y-72154577D01*
X118058091Y-72471740D01*
X118476667Y-72555000D01*
X118759333Y-72555000D01*
X118941887Y-72518688D01*
X122091670Y-75668472D01*
X122134071Y-75731929D01*
X122385463Y-75899904D01*
X122607148Y-75944000D01*
X122607153Y-75944000D01*
X122682000Y-75958888D01*
X122756847Y-75944000D01*
X128324569Y-75944000D01*
X129047333Y-76666765D01*
X129013423Y-76689423D01*
X128778000Y-77041758D01*
X128542577Y-76689423D01*
X128067909Y-76372260D01*
X127649333Y-76289000D01*
X127366667Y-76289000D01*
X126948091Y-76372260D01*
X126473423Y-76689423D01*
X126289957Y-76964000D01*
X126186043Y-76964000D01*
X126002577Y-76689423D01*
X125527909Y-76372260D01*
X125109333Y-76289000D01*
X124826667Y-76289000D01*
X124408091Y-76372260D01*
X123933423Y-76689423D01*
X123852785Y-76810106D01*
X123826157Y-76676235D01*
X123685809Y-76466191D01*
X123475765Y-76325843D01*
X123228000Y-76276560D01*
X121628000Y-76276560D01*
X121380235Y-76325843D01*
X121170191Y-76466191D01*
X121029843Y-76676235D01*
X120980560Y-76924000D01*
X120980560Y-76964000D01*
X118946846Y-76964000D01*
X118871999Y-76949112D01*
X118797152Y-76964000D01*
X118797148Y-76964000D01*
X118575463Y-77008096D01*
X118521237Y-77044329D01*
X118449000Y-77092596D01*
X118449000Y-76692474D01*
X118242714Y-76194454D01*
X117861546Y-75813286D01*
X117363526Y-75607000D01*
X116824474Y-75607000D01*
X116326454Y-75813286D01*
X115945286Y-76194454D01*
X115739000Y-76692474D01*
X115739000Y-77231526D01*
X115945286Y-77729546D01*
X116326454Y-78110714D01*
X116824474Y-78317000D01*
X117204198Y-78317000D01*
X115847528Y-79673671D01*
X115784072Y-79716071D01*
X115741672Y-79779527D01*
X115741671Y-79779528D01*
X115645054Y-79924126D01*
X115616097Y-79967463D01*
X115583511Y-80131286D01*
X115557112Y-80264000D01*
X115572001Y-80338851D01*
X115572000Y-81713153D01*
X115557112Y-81788000D01*
X115572000Y-81862847D01*
X115572000Y-81862851D01*
X115616096Y-82084536D01*
X115784071Y-82335929D01*
X115847530Y-82378331D01*
X116950897Y-83481698D01*
X116929000Y-83534561D01*
X116929000Y-84105439D01*
X117147466Y-84632862D01*
X117551138Y-85036534D01*
X118078561Y-85255000D01*
X118649439Y-85255000D01*
X119176862Y-85036534D01*
X119580534Y-84632862D01*
X119636001Y-84498954D01*
X119636001Y-85015148D01*
X119621112Y-85090000D01*
X119680097Y-85386537D01*
X119794713Y-85558071D01*
X119848072Y-85637929D01*
X119911528Y-85680329D01*
X120821671Y-86590473D01*
X120864071Y-86653929D01*
X121115463Y-86821904D01*
X121337148Y-86866000D01*
X121337153Y-86866000D01*
X121412000Y-86880888D01*
X121486847Y-86866000D01*
X125655153Y-86866000D01*
X125730000Y-86880888D01*
X125804847Y-86866000D01*
X125804852Y-86866000D01*
X126026537Y-86821904D01*
X126277929Y-86653929D01*
X126320331Y-86590470D01*
X128160824Y-84749978D01*
X128188260Y-84887909D01*
X128505423Y-85362577D01*
X128980091Y-85679740D01*
X129398667Y-85763000D01*
X129681333Y-85763000D01*
X129863886Y-85726688D01*
X129965671Y-85828473D01*
X130008071Y-85891929D01*
X130259463Y-86059904D01*
X130481148Y-86104000D01*
X130481153Y-86104000D01*
X130556000Y-86118888D01*
X130630847Y-86104000D01*
X136831153Y-86104000D01*
X136906000Y-86118888D01*
X136980847Y-86104000D01*
X136980852Y-86104000D01*
X137202537Y-86059904D01*
X137453929Y-85891929D01*
X137496331Y-85828470D01*
X138152928Y-85171874D01*
X138160474Y-85175000D01*
X138699526Y-85175000D01*
X139197546Y-84968714D01*
X139578714Y-84587546D01*
X139785000Y-84089526D01*
X139785000Y-83550474D01*
X139578714Y-83052454D01*
X139197546Y-82671286D01*
X138699526Y-82465000D01*
X138160474Y-82465000D01*
X137662454Y-82671286D01*
X137281286Y-83052454D01*
X137075000Y-83550474D01*
X137075000Y-84089526D01*
X137078126Y-84097072D01*
X136591199Y-84584000D01*
X134500183Y-84584000D01*
X134705000Y-84089526D01*
X134705000Y-83550474D01*
X134701874Y-83542928D01*
X135612928Y-82631874D01*
X135620474Y-82635000D01*
X136159526Y-82635000D01*
X136657546Y-82428714D01*
X137038714Y-82047546D01*
X137245000Y-81549526D01*
X137245000Y-81010474D01*
X137241874Y-81002928D01*
X137728803Y-80516000D01*
X141589570Y-80516000D01*
X141611466Y-80568862D01*
X142015138Y-80972534D01*
X142068000Y-80994430D01*
X142068001Y-82426560D01*
X141748000Y-82426560D01*
X141500235Y-82475843D01*
X141290191Y-82616191D01*
X141149843Y-82826235D01*
X141100560Y-83074000D01*
X141100560Y-85074000D01*
X141149843Y-85321765D01*
X141290191Y-85531809D01*
X141500235Y-85672157D01*
X141748000Y-85721440D01*
X143748000Y-85721440D01*
X143995765Y-85672157D01*
X144205809Y-85531809D01*
X144346157Y-85321765D01*
X144395440Y-85074000D01*
X144395440Y-83074000D01*
X144346157Y-82826235D01*
X144205809Y-82616191D01*
X143995765Y-82475843D01*
X143748000Y-82426560D01*
X143588000Y-82426560D01*
X143588000Y-80994430D01*
X143640862Y-80972534D01*
X144044534Y-80568862D01*
X144263000Y-80041439D01*
X144263000Y-79470561D01*
X144044534Y-78943138D01*
X143640862Y-78539466D01*
X143113439Y-78321000D01*
X142542561Y-78321000D01*
X142015138Y-78539466D01*
X141611466Y-78943138D01*
X141589570Y-78996000D01*
X138347248Y-78996000D01*
X138702577Y-78758577D01*
X139019740Y-78283909D01*
X139131113Y-77724000D01*
X139019740Y-77164091D01*
X138702577Y-76689423D01*
X138227909Y-76372260D01*
X137809333Y-76289000D01*
X137526667Y-76289000D01*
X137108091Y-76372260D01*
X136633423Y-76689423D01*
X136398000Y-77041758D01*
X136162577Y-76689423D01*
X135888000Y-76505957D01*
X135888000Y-71322043D01*
X136162577Y-71138577D01*
X136398000Y-70786242D01*
X136633423Y-71138577D01*
X137108091Y-71455740D01*
X137526667Y-71539000D01*
X137809333Y-71539000D01*
X138227909Y-71455740D01*
X138702577Y-71138577D01*
X138780763Y-71021564D01*
X143635312Y-75876114D01*
X143570887Y-76200000D01*
X143682260Y-76759909D01*
X143999423Y-77234577D01*
X144474091Y-77551740D01*
X144892667Y-77635000D01*
X145175333Y-77635000D01*
X145357887Y-77598688D01*
X146656901Y-78897703D01*
X146611466Y-78943138D01*
X146393000Y-79470561D01*
X146393000Y-80041439D01*
X146611466Y-80568862D01*
X147015138Y-80972534D01*
X147068000Y-80994430D01*
X147068001Y-82426560D01*
X146828000Y-82426560D01*
X146580235Y-82475843D01*
X146370191Y-82616191D01*
X146229843Y-82826235D01*
X146180560Y-83074000D01*
X146180560Y-85074000D01*
X146229843Y-85321765D01*
X146370191Y-85531809D01*
X146580235Y-85672157D01*
X146828000Y-85721440D01*
X148828000Y-85721440D01*
X149075765Y-85672157D01*
X149285809Y-85531809D01*
X149426157Y-85321765D01*
X149475440Y-85074000D01*
X149475440Y-83349223D01*
X150191035Y-83349223D01*
X150218222Y-83919454D01*
X150384136Y-84320005D01*
X150630255Y-84394139D01*
X151458395Y-83566000D01*
X150630255Y-82737861D01*
X150384136Y-82811995D01*
X150191035Y-83349223D01*
X149475440Y-83349223D01*
X149475440Y-83074000D01*
X149426157Y-82826235D01*
X149285809Y-82616191D01*
X149199103Y-82558255D01*
X150809861Y-82558255D01*
X151638000Y-83386395D01*
X152466139Y-82558255D01*
X152392005Y-82312136D01*
X151854777Y-82119035D01*
X151284546Y-82146222D01*
X150883995Y-82312136D01*
X150809861Y-82558255D01*
X149199103Y-82558255D01*
X149075765Y-82475843D01*
X148828000Y-82426560D01*
X148588000Y-82426560D01*
X148588000Y-80994430D01*
X148640862Y-80972534D01*
X149044534Y-80568862D01*
X149263000Y-80041439D01*
X149263000Y-79470561D01*
X149441000Y-79470561D01*
X149441000Y-80041439D01*
X149659466Y-80568862D01*
X150063138Y-80972534D01*
X150590561Y-81191000D01*
X151161439Y-81191000D01*
X151688862Y-80972534D01*
X152092534Y-80568862D01*
X152311000Y-80041439D01*
X152311000Y-79470561D01*
X152092534Y-78943138D01*
X151688862Y-78539466D01*
X151161439Y-78321000D01*
X150590561Y-78321000D01*
X150063138Y-78539466D01*
X149659466Y-78943138D01*
X149441000Y-79470561D01*
X149263000Y-79470561D01*
X149044534Y-78943138D01*
X148640862Y-78539466D01*
X148312083Y-78403281D01*
X146432688Y-76523887D01*
X146497113Y-76200000D01*
X146385740Y-75640091D01*
X146068577Y-75165423D01*
X145593909Y-74848260D01*
X145175333Y-74765000D01*
X144892667Y-74765000D01*
X144710114Y-74801312D01*
X139528331Y-69619530D01*
X139485929Y-69556071D01*
X139234537Y-69388096D01*
X139012852Y-69344000D01*
X139012847Y-69344000D01*
X138938000Y-69329112D01*
X138883358Y-69339981D01*
X138702577Y-69069423D01*
X138227909Y-68752260D01*
X137809333Y-68669000D01*
X137526667Y-68669000D01*
X137108091Y-68752260D01*
X136633423Y-69069423D01*
X136398000Y-69421758D01*
X136162577Y-69069423D01*
X135785135Y-68817224D01*
X135932537Y-68787904D01*
X136183929Y-68619929D01*
X136226331Y-68556470D01*
X137374271Y-67408531D01*
X137662454Y-67696714D01*
X138160474Y-67903000D01*
X138699526Y-67903000D01*
X139197546Y-67696714D01*
X139578714Y-67315546D01*
X139785000Y-66817526D01*
X139785000Y-66278474D01*
X139578714Y-65780454D01*
X139197546Y-65399286D01*
X138699526Y-65193000D01*
X138160474Y-65193000D01*
X137662454Y-65399286D01*
X137281286Y-65780454D01*
X137278160Y-65788000D01*
X137234846Y-65788000D01*
X137159999Y-65773112D01*
X137085152Y-65788000D01*
X137085148Y-65788000D01*
X136863463Y-65832096D01*
X136863461Y-65832097D01*
X136863462Y-65832097D01*
X136675526Y-65957671D01*
X136675524Y-65957673D01*
X136612071Y-66000071D01*
X136569673Y-66063524D01*
X135321199Y-67312000D01*
X134500183Y-67312000D01*
X134705000Y-66817526D01*
X134705000Y-66278474D01*
X134701874Y-66270927D01*
X135612927Y-65359874D01*
X135620474Y-65363000D01*
X136159526Y-65363000D01*
X136657546Y-65156714D01*
X137038714Y-64775546D01*
X137041840Y-64768000D01*
X141100560Y-64768000D01*
X141100560Y-65008000D01*
X141149843Y-65255765D01*
X141290191Y-65465809D01*
X141500235Y-65606157D01*
X141748000Y-65655440D01*
X141988000Y-65655440D01*
X141988001Y-66882603D01*
X141611466Y-67259138D01*
X141393000Y-67786561D01*
X141393000Y-68357439D01*
X141611466Y-68884862D01*
X142015138Y-69288534D01*
X142542561Y-69507000D01*
X143113439Y-69507000D01*
X143640862Y-69288534D01*
X144044534Y-68884862D01*
X144263000Y-68357439D01*
X144263000Y-67786561D01*
X144044534Y-67259138D01*
X143640862Y-66855466D01*
X143508000Y-66800433D01*
X143508000Y-65655440D01*
X143748000Y-65655440D01*
X143995765Y-65606157D01*
X144205809Y-65465809D01*
X144346157Y-65255765D01*
X144395440Y-65008000D01*
X144395440Y-63008000D01*
X144370379Y-62882010D01*
X146205621Y-62882010D01*
X146180560Y-63008000D01*
X146180560Y-65008000D01*
X146229843Y-65255765D01*
X146370191Y-65465809D01*
X146580235Y-65606157D01*
X146828000Y-65655440D01*
X147068000Y-65655440D01*
X147068001Y-66833570D01*
X147015138Y-66855466D01*
X146611466Y-67259138D01*
X146393000Y-67786561D01*
X146393000Y-68357439D01*
X146414897Y-68410302D01*
X144567524Y-70257675D01*
X144474091Y-70276260D01*
X143999423Y-70593423D01*
X143682260Y-71068091D01*
X143570887Y-71628000D01*
X143682260Y-72187909D01*
X143999423Y-72662577D01*
X144474091Y-72979740D01*
X144892667Y-73063000D01*
X145175333Y-73063000D01*
X145593909Y-72979740D01*
X146068577Y-72662577D01*
X146385740Y-72187909D01*
X146497113Y-71628000D01*
X146385740Y-71068091D01*
X146193868Y-70780934D01*
X147489698Y-69485103D01*
X147542561Y-69507000D01*
X148113439Y-69507000D01*
X148640862Y-69288534D01*
X149044534Y-68884862D01*
X149263000Y-68357439D01*
X149263000Y-67786561D01*
X149044534Y-67259138D01*
X148640862Y-66855466D01*
X148588000Y-66833570D01*
X148588000Y-65655440D01*
X148828000Y-65655440D01*
X149075765Y-65606157D01*
X149285809Y-65465809D01*
X149426157Y-65255765D01*
X149475440Y-65008000D01*
X149475440Y-63936242D01*
X150450000Y-64910802D01*
X150450001Y-66833570D01*
X150397138Y-66855466D01*
X149993466Y-67259138D01*
X149775000Y-67786561D01*
X149775000Y-68357439D01*
X149993466Y-68884862D01*
X150397138Y-69288534D01*
X150450001Y-69310430D01*
X150450001Y-70109148D01*
X150435112Y-70184000D01*
X150494097Y-70480537D01*
X150608618Y-70651929D01*
X150662072Y-70731929D01*
X150725528Y-70774329D01*
X151240896Y-71289698D01*
X151219000Y-71342561D01*
X151219000Y-71913439D01*
X151243789Y-71973284D01*
X151138097Y-72131463D01*
X151094001Y-72353148D01*
X151094001Y-72353152D01*
X151079113Y-72427999D01*
X151094001Y-72502846D01*
X151094002Y-75325149D01*
X151079113Y-75400001D01*
X151138098Y-75696538D01*
X151216107Y-75813286D01*
X151243789Y-75854715D01*
X151219000Y-75914561D01*
X151219000Y-76485439D01*
X151437466Y-77012862D01*
X151841138Y-77416534D01*
X152368561Y-77635000D01*
X152939439Y-77635000D01*
X153466862Y-77416534D01*
X153870534Y-77012862D01*
X154089000Y-76485439D01*
X154089000Y-75914561D01*
X153870534Y-75387138D01*
X153466862Y-74983466D01*
X152939439Y-74765000D01*
X152614001Y-74765000D01*
X152614001Y-73063000D01*
X152939439Y-73063000D01*
X152992302Y-73041103D01*
X154095670Y-74144472D01*
X154138071Y-74207929D01*
X154389463Y-74375904D01*
X154611148Y-74420000D01*
X154611153Y-74420000D01*
X154686000Y-74434888D01*
X154760847Y-74420000D01*
X155070560Y-74420000D01*
X155070560Y-74660000D01*
X155119843Y-74907765D01*
X155260191Y-75117809D01*
X155470235Y-75258157D01*
X155718000Y-75307440D01*
X157718000Y-75307440D01*
X157736001Y-75303859D01*
X157736000Y-78537956D01*
X157461423Y-78721423D01*
X157144260Y-79196091D01*
X157032887Y-79756000D01*
X157144260Y-80315909D01*
X157461423Y-80790577D01*
X157805984Y-81020805D01*
X157290789Y-81536000D01*
X155268848Y-81536000D01*
X155194000Y-81521112D01*
X155119152Y-81536000D01*
X155119148Y-81536000D01*
X154945605Y-81570520D01*
X154897462Y-81580096D01*
X154710418Y-81705076D01*
X154646071Y-81748071D01*
X154603671Y-81811527D01*
X153064371Y-83350827D01*
X153057778Y-83212546D01*
X152891864Y-82811995D01*
X152645745Y-82737861D01*
X151817605Y-83566000D01*
X151831748Y-83580142D01*
X151652142Y-83759748D01*
X151638000Y-83745605D01*
X150809861Y-84573745D01*
X150883995Y-84819864D01*
X151407254Y-85007944D01*
X144719199Y-91696000D01*
X142925440Y-91696000D01*
X142925440Y-91656000D01*
X142876157Y-91408235D01*
X142735809Y-91198191D01*
X142525765Y-91057843D01*
X142278000Y-91008560D01*
X141533363Y-91008560D01*
X140525104Y-90000302D01*
X140547000Y-89947439D01*
X140547000Y-89376561D01*
X140328534Y-88849138D01*
X139924862Y-88445466D01*
X139397439Y-88227000D01*
X138826561Y-88227000D01*
X138299138Y-88445466D01*
X137895466Y-88849138D01*
X137677000Y-89376561D01*
X137677000Y-89947439D01*
X137895466Y-90474862D01*
X138299138Y-90878534D01*
X138826561Y-91097000D01*
X139397439Y-91097000D01*
X139450302Y-91075104D01*
X140030666Y-91655468D01*
X140030560Y-91656000D01*
X140030560Y-93256000D01*
X140079843Y-93503765D01*
X140220191Y-93713809D01*
X140430235Y-93854157D01*
X140678000Y-93903440D01*
X142278000Y-93903440D01*
X142525765Y-93854157D01*
X142735809Y-93713809D01*
X142876157Y-93503765D01*
X142925440Y-93256000D01*
X142925440Y-93216000D01*
X144959153Y-93216000D01*
X145034000Y-93230888D01*
X145108847Y-93216000D01*
X145108852Y-93216000D01*
X145330537Y-93171904D01*
X145581929Y-93003929D01*
X145624331Y-92940470D01*
X148084001Y-90480801D01*
X148084001Y-91010373D01*
X147747910Y-91149586D01*
X147203586Y-91693910D01*
X146909000Y-92405105D01*
X146909000Y-93174895D01*
X147203586Y-93886090D01*
X147747910Y-94430414D01*
X148459105Y-94725000D01*
X149228895Y-94725000D01*
X149940090Y-94430414D01*
X150484414Y-93886090D01*
X150779000Y-93174895D01*
X150779000Y-92405105D01*
X150484414Y-91693910D01*
X149940090Y-91149586D01*
X149604000Y-91010373D01*
X149604000Y-89597211D01*
X151897195Y-87304016D01*
X152127423Y-87648577D01*
X152402001Y-87832044D01*
X152402001Y-88063149D01*
X152387112Y-88138000D01*
X152402001Y-88212852D01*
X152446097Y-88434537D01*
X152614072Y-88685929D01*
X152677528Y-88728329D01*
X153272896Y-89323698D01*
X153251000Y-89376561D01*
X153251000Y-89947439D01*
X153469466Y-90474862D01*
X153873138Y-90878534D01*
X153926000Y-90900430D01*
X153926001Y-92635148D01*
X153911112Y-92710000D01*
X153926001Y-92784852D01*
X153970097Y-93006537D01*
X154138072Y-93257929D01*
X154201528Y-93300329D01*
X157143671Y-96242473D01*
X157186071Y-96305929D01*
X157437463Y-96473904D01*
X157659148Y-96518000D01*
X157659153Y-96518000D01*
X157734000Y-96532888D01*
X157808847Y-96518000D01*
X159206735Y-96518000D01*
X159536106Y-96847371D01*
X160008398Y-97043000D01*
X160519602Y-97043000D01*
X160991894Y-96847371D01*
X161353371Y-96485894D01*
X161549000Y-96013602D01*
X161549000Y-95785440D01*
X162194000Y-95785440D01*
X162441765Y-95736157D01*
X162651809Y-95595809D01*
X162792157Y-95385765D01*
X162819560Y-95248000D01*
X163501153Y-95248000D01*
X163576000Y-95262888D01*
X163650847Y-95248000D01*
X163650852Y-95248000D01*
X163872537Y-95203904D01*
X164123929Y-95035929D01*
X164166331Y-94972470D01*
X165463450Y-93675352D01*
X165479843Y-93757765D01*
X165620191Y-93967809D01*
X165830235Y-94108157D01*
X166078000Y-94157440D01*
X167678000Y-94157440D01*
X167925765Y-94108157D01*
X168135809Y-93967809D01*
X168142090Y-93958409D01*
X168592561Y-94145000D01*
X169163439Y-94145000D01*
X169690862Y-93926534D01*
X170094534Y-93522862D01*
X170313000Y-92995439D01*
X170313000Y-92424561D01*
X170291103Y-92371698D01*
X170884473Y-91778329D01*
X170947929Y-91735929D01*
X171115904Y-91484537D01*
X171160000Y-91262852D01*
X171160000Y-91262848D01*
X171174888Y-91188001D01*
X171160000Y-91113154D01*
X171160000Y-87548581D01*
X171578769Y-87268769D01*
X171940136Y-86727945D01*
X172035000Y-86251031D01*
X172035000Y-83928969D01*
X171940136Y-83452055D01*
X171578769Y-82911231D01*
X171037944Y-82549864D01*
X170400000Y-82422969D01*
X169762055Y-82549864D01*
X169221231Y-82911231D01*
X168859864Y-83452056D01*
X168765000Y-83928970D01*
X168765001Y-86251031D01*
X168859865Y-86727945D01*
X169221232Y-87268769D01*
X169640000Y-87548581D01*
X169640001Y-90873197D01*
X169216302Y-91296897D01*
X169163439Y-91275000D01*
X168592561Y-91275000D01*
X168142090Y-91461591D01*
X168135809Y-91452191D01*
X167925765Y-91311843D01*
X167678000Y-91262560D01*
X167638000Y-91262560D01*
X167638000Y-88466846D01*
X167652888Y-88391999D01*
X167638000Y-88317152D01*
X167638000Y-88317148D01*
X167593904Y-88095463D01*
X167507226Y-87965740D01*
X167468329Y-87907526D01*
X167468327Y-87907524D01*
X167449482Y-87879320D01*
X167616473Y-87712329D01*
X167679929Y-87669929D01*
X167722924Y-87605582D01*
X167847904Y-87418538D01*
X167858929Y-87363112D01*
X167892000Y-87196852D01*
X167892000Y-87196848D01*
X167906888Y-87122000D01*
X167892000Y-87047152D01*
X167892000Y-81086801D01*
X169587698Y-79391103D01*
X169640561Y-79413000D01*
X170211439Y-79413000D01*
X170738862Y-79194534D01*
X171142534Y-78790862D01*
X171361000Y-78263439D01*
X171361000Y-77692561D01*
X171142534Y-77165138D01*
X170738862Y-76761466D01*
X170211439Y-76543000D01*
X169640561Y-76543000D01*
X169113138Y-76761466D01*
X168709466Y-77165138D01*
X168491000Y-77692561D01*
X168491000Y-78263439D01*
X168512897Y-78316302D01*
X166647530Y-80181669D01*
X166584071Y-80224071D01*
X166416096Y-80475464D01*
X166372000Y-80697149D01*
X166372000Y-80697153D01*
X166357112Y-80772000D01*
X166372000Y-80846847D01*
X166372001Y-86807197D01*
X166055199Y-87124000D01*
X165875501Y-87124000D01*
X166140136Y-86727945D01*
X166235000Y-86251031D01*
X166235000Y-83928969D01*
X166140136Y-83452055D01*
X165778769Y-82911231D01*
X165237944Y-82549864D01*
X164600000Y-82422969D01*
X163962055Y-82549864D01*
X163421231Y-82911231D01*
X163059864Y-83452056D01*
X162965000Y-83928970D01*
X162965001Y-86251031D01*
X163059865Y-86727945D01*
X163324500Y-87124000D01*
X162366802Y-87124000D01*
X162195103Y-86952302D01*
X162217000Y-86899439D01*
X162217000Y-86328561D01*
X161998534Y-85801138D01*
X161594862Y-85397466D01*
X161542000Y-85375570D01*
X161542000Y-85164846D01*
X161556888Y-85089999D01*
X161542000Y-85015152D01*
X161542000Y-85015148D01*
X161497904Y-84793463D01*
X161442072Y-84709904D01*
X161372329Y-84605526D01*
X161372327Y-84605524D01*
X161329929Y-84542071D01*
X161266476Y-84499673D01*
X160656688Y-83889886D01*
X160721113Y-83566000D01*
X160609740Y-83006091D01*
X160292577Y-82531423D01*
X159948017Y-82301195D01*
X162045202Y-80204010D01*
X165083143Y-80204010D01*
X165157990Y-80218898D01*
X165232837Y-80204010D01*
X165232842Y-80204010D01*
X165454527Y-80159914D01*
X165705919Y-79991939D01*
X165748321Y-79928480D01*
X165944329Y-79732472D01*
X169587699Y-76089104D01*
X169640561Y-76111000D01*
X170211439Y-76111000D01*
X170738862Y-75892534D01*
X171142534Y-75488862D01*
X171164430Y-75436000D01*
X171309199Y-75436000D01*
X173512897Y-77639698D01*
X173491000Y-77692561D01*
X173491000Y-78263439D01*
X173709466Y-78790862D01*
X174113138Y-79194534D01*
X174640561Y-79413000D01*
X175211439Y-79413000D01*
X175738862Y-79194534D01*
X176142534Y-78790862D01*
X176361000Y-78263439D01*
X176361000Y-77692561D01*
X176142534Y-77165138D01*
X175738862Y-76761466D01*
X175211439Y-76543000D01*
X174640561Y-76543000D01*
X174587698Y-76564897D01*
X172214331Y-74191530D01*
X172171929Y-74128071D01*
X171920537Y-73960096D01*
X171698852Y-73916000D01*
X171698847Y-73916000D01*
X171624000Y-73901112D01*
X171549153Y-73916000D01*
X171164430Y-73916000D01*
X171142534Y-73863138D01*
X170738862Y-73459466D01*
X170211439Y-73241000D01*
X169641801Y-73241000D01*
X170664473Y-72218329D01*
X170727929Y-72175929D01*
X170895904Y-71924537D01*
X170940000Y-71702852D01*
X170940000Y-71702847D01*
X170954888Y-71628000D01*
X170954792Y-71627520D01*
X171022000Y-71640888D01*
X171096848Y-71626000D01*
X172517957Y-71626000D01*
X172701423Y-71900577D01*
X173176091Y-72217740D01*
X173594667Y-72301000D01*
X173877333Y-72301000D01*
X174059886Y-72264688D01*
X174166001Y-72370803D01*
X174166000Y-73437570D01*
X174113138Y-73459466D01*
X173709466Y-73863138D01*
X173491000Y-74390561D01*
X173491000Y-74961439D01*
X173709466Y-75488862D01*
X174113138Y-75892534D01*
X174640561Y-76111000D01*
X175211439Y-76111000D01*
X175738862Y-75892534D01*
X176142534Y-75488862D01*
X176361000Y-74961439D01*
X176361000Y-74390561D01*
X176142534Y-73863138D01*
X175738862Y-73459466D01*
X175686000Y-73437570D01*
X175686000Y-72130846D01*
X175700888Y-72055999D01*
X175686000Y-71981152D01*
X175686000Y-71981148D01*
X175641904Y-71759463D01*
X175473929Y-71508071D01*
X175410473Y-71465671D01*
X175134688Y-71189886D01*
X175199113Y-70866000D01*
X175087740Y-70306091D01*
X174770577Y-69831423D01*
X174295909Y-69514260D01*
X173877333Y-69431000D01*
X173594667Y-69431000D01*
X173176091Y-69514260D01*
X172701423Y-69831423D01*
X172517957Y-70106000D01*
X171615000Y-70106000D01*
X171615000Y-69738561D01*
X171396534Y-69211138D01*
X170992862Y-68807466D01*
X170465439Y-68589000D01*
X169894561Y-68589000D01*
X169374482Y-68804424D01*
X169371904Y-68791463D01*
X169371904Y-68791462D01*
X169246329Y-68603527D01*
X169203929Y-68540071D01*
X169140473Y-68497671D01*
X168291103Y-67648302D01*
X168313000Y-67595439D01*
X168313000Y-67024561D01*
X168094534Y-66497138D01*
X167690862Y-66093466D01*
X167638000Y-66071570D01*
X167638000Y-66031745D01*
X169351861Y-66031745D01*
X169425995Y-66277864D01*
X169963223Y-66470965D01*
X170533454Y-66443778D01*
X170934005Y-66277864D01*
X171008139Y-66031745D01*
X170180000Y-65203605D01*
X169351861Y-66031745D01*
X167638000Y-66031745D01*
X167638000Y-65246430D01*
X167690862Y-65224534D01*
X168094534Y-64820862D01*
X168100183Y-64807223D01*
X168733035Y-64807223D01*
X168760222Y-65377454D01*
X168926136Y-65778005D01*
X169172255Y-65852139D01*
X170000395Y-65024000D01*
X170359605Y-65024000D01*
X171187745Y-65852139D01*
X171433864Y-65778005D01*
X171626965Y-65240777D01*
X171599778Y-64670546D01*
X171433864Y-64269995D01*
X171379916Y-64253745D01*
X172907861Y-64253745D01*
X172981995Y-64499864D01*
X173519223Y-64692965D01*
X174089454Y-64665778D01*
X174490005Y-64499864D01*
X174564139Y-64253745D01*
X173736000Y-63425605D01*
X172907861Y-64253745D01*
X171379916Y-64253745D01*
X171187745Y-64195861D01*
X170359605Y-65024000D01*
X170000395Y-65024000D01*
X169172255Y-64195861D01*
X168926136Y-64269995D01*
X168733035Y-64807223D01*
X168100183Y-64807223D01*
X168313000Y-64293439D01*
X168313000Y-64016255D01*
X169351861Y-64016255D01*
X170180000Y-64844395D01*
X171008139Y-64016255D01*
X170934005Y-63770136D01*
X170396777Y-63577035D01*
X169826546Y-63604222D01*
X169425995Y-63770136D01*
X169351861Y-64016255D01*
X168313000Y-64016255D01*
X168313000Y-63722561D01*
X168094534Y-63195138D01*
X167690862Y-62791466D01*
X167163439Y-62573000D01*
X166592561Y-62573000D01*
X166065138Y-62791466D01*
X165661466Y-63195138D01*
X165443000Y-63722561D01*
X165443000Y-64293439D01*
X165661466Y-64820862D01*
X166065138Y-65224534D01*
X166118000Y-65246430D01*
X166118001Y-66071570D01*
X166065138Y-66093466D01*
X165661466Y-66497138D01*
X165443000Y-67024561D01*
X165443000Y-67595439D01*
X165661466Y-68122862D01*
X166065138Y-68526534D01*
X166592561Y-68745000D01*
X167163439Y-68745000D01*
X167216302Y-68723103D01*
X167896001Y-69402803D01*
X167896001Y-69566347D01*
X167437909Y-69260260D01*
X167019333Y-69177000D01*
X166736667Y-69177000D01*
X166318091Y-69260260D01*
X165843423Y-69577423D01*
X165526260Y-70052091D01*
X165414887Y-70612000D01*
X165479312Y-70935886D01*
X159789528Y-76625671D01*
X159726072Y-76668071D01*
X159683672Y-76731527D01*
X159683671Y-76731528D01*
X159558097Y-76919463D01*
X159499112Y-77216000D01*
X159514001Y-77290852D01*
X159514000Y-78710347D01*
X159256000Y-78537957D01*
X159256000Y-74262848D01*
X159270888Y-74188000D01*
X159256000Y-74113152D01*
X159256000Y-74113148D01*
X159211904Y-73891463D01*
X159211904Y-73891462D01*
X159086329Y-73703527D01*
X159043929Y-73640071D01*
X158980472Y-73597671D01*
X158558331Y-73175530D01*
X158515929Y-73112071D01*
X158365440Y-73011517D01*
X158365440Y-72660000D01*
X158316157Y-72412235D01*
X158175809Y-72202191D01*
X157965765Y-72061843D01*
X157718000Y-72012560D01*
X155718000Y-72012560D01*
X155470235Y-72061843D01*
X155260191Y-72202191D01*
X155119843Y-72412235D01*
X155070560Y-72660000D01*
X155070560Y-72900000D01*
X155000802Y-72900000D01*
X154067103Y-71966302D01*
X154089000Y-71913439D01*
X154089000Y-71342561D01*
X153870534Y-70815138D01*
X153466862Y-70411466D01*
X152939439Y-70193000D01*
X152368561Y-70193000D01*
X152315698Y-70214896D01*
X151970000Y-69869199D01*
X151970000Y-69310430D01*
X152022862Y-69288534D01*
X152426534Y-68884862D01*
X152645000Y-68357439D01*
X152645000Y-67786561D01*
X152426534Y-67259138D01*
X152022862Y-66855466D01*
X151970000Y-66833570D01*
X151970000Y-65362993D01*
X152108191Y-65569809D01*
X152318235Y-65710157D01*
X152566000Y-65759440D01*
X152823645Y-65759440D01*
X152868071Y-65825929D01*
X152931530Y-65868331D01*
X154796897Y-67733698D01*
X154775000Y-67786561D01*
X154775000Y-68357439D01*
X154993466Y-68884862D01*
X155397138Y-69288534D01*
X155924561Y-69507000D01*
X156495439Y-69507000D01*
X157022862Y-69288534D01*
X157426534Y-68884862D01*
X157645000Y-68357439D01*
X157645000Y-67786561D01*
X157426534Y-67259138D01*
X157022862Y-66855466D01*
X156495439Y-66637000D01*
X155924561Y-66637000D01*
X155871698Y-66658897D01*
X154747362Y-65534560D01*
X154864157Y-65359765D01*
X154873184Y-65314381D01*
X154885375Y-65332625D01*
X155376582Y-65660839D01*
X155809744Y-65747000D01*
X156102256Y-65747000D01*
X156322408Y-65703209D01*
X157817171Y-67197972D01*
X157794887Y-67310000D01*
X157859948Y-67637085D01*
X157742097Y-67813463D01*
X157698001Y-68035148D01*
X157698001Y-68035152D01*
X157683113Y-68109999D01*
X157698001Y-68184846D01*
X157698002Y-69737150D01*
X157683113Y-69812001D01*
X157742098Y-70108538D01*
X157842535Y-70258852D01*
X157847789Y-70266715D01*
X157823000Y-70326561D01*
X157823000Y-70897439D01*
X158041466Y-71424862D01*
X158445138Y-71828534D01*
X158972561Y-72047000D01*
X159543439Y-72047000D01*
X160070862Y-71828534D01*
X160474534Y-71424862D01*
X160693000Y-70897439D01*
X160693000Y-70326561D01*
X160474534Y-69799138D01*
X160070862Y-69395466D01*
X159543439Y-69177000D01*
X159218001Y-69177000D01*
X159218001Y-68745000D01*
X159399333Y-68745000D01*
X159817909Y-68661740D01*
X160292577Y-68344577D01*
X160609740Y-67869909D01*
X160721113Y-67310000D01*
X160609740Y-66750091D01*
X160292577Y-66275423D01*
X159817909Y-65958260D01*
X159399333Y-65875000D01*
X159116667Y-65875000D01*
X158722255Y-65953453D01*
X157397209Y-64628408D01*
X157470092Y-64262000D01*
X157419569Y-64008000D01*
X157794887Y-64008000D01*
X157906260Y-64567909D01*
X158223423Y-65042577D01*
X158698091Y-65359740D01*
X159116667Y-65443000D01*
X159399333Y-65443000D01*
X159817909Y-65359740D01*
X160292577Y-65042577D01*
X160609740Y-64567909D01*
X160721113Y-64008000D01*
X160609740Y-63448091D01*
X160292577Y-62973423D01*
X159817909Y-62656260D01*
X159399333Y-62573000D01*
X159116667Y-62573000D01*
X158698091Y-62656260D01*
X158223423Y-62973423D01*
X157906260Y-63448091D01*
X157794887Y-64008000D01*
X157419569Y-64008000D01*
X157354839Y-63682582D01*
X157026625Y-63191375D01*
X156535418Y-62863161D01*
X156102256Y-62777000D01*
X155809744Y-62777000D01*
X155376582Y-62863161D01*
X154885375Y-63191375D01*
X154873184Y-63209619D01*
X154864157Y-63164235D01*
X154723809Y-62954191D01*
X154513765Y-62813843D01*
X154266000Y-62764560D01*
X152566000Y-62764560D01*
X152318235Y-62813843D01*
X152108191Y-62954191D01*
X151967843Y-63164235D01*
X151918560Y-63412000D01*
X151918560Y-64288472D01*
X151757929Y-64048071D01*
X151694473Y-64005671D01*
X150120801Y-62432000D01*
X172681315Y-62432000D01*
X172482136Y-62491995D01*
X172482136Y-62491995D01*
G37*
X172482136Y-62491995D02*
X172289035Y-63029223D01*
X172316222Y-63599454D01*
X172482136Y-64000005D01*
X172728255Y-64074139D01*
X173556395Y-63246000D01*
X173542252Y-63231858D01*
X173721858Y-63052252D01*
X173736000Y-63066395D01*
X173750142Y-63052252D01*
X173929748Y-63231858D01*
X173915605Y-63246000D01*
X174743745Y-64074139D01*
X174989864Y-64000005D01*
X175182965Y-63462777D01*
X175155778Y-62892546D01*
X174989864Y-62491995D01*
X174790685Y-62432000D01*
X177090000Y-62432000D01*
X177090000Y-83227361D01*
X176878769Y-82911231D01*
X176337944Y-82549864D01*
X175700000Y-82422969D01*
X175062055Y-82549864D01*
X174521231Y-82911231D01*
X174159864Y-83452056D01*
X174065000Y-83928970D01*
X174065001Y-86251031D01*
X174159865Y-86727945D01*
X174521232Y-87268769D01*
X175062056Y-87630136D01*
X175700000Y-87757031D01*
X176337945Y-87630136D01*
X176878769Y-87268769D01*
X177090001Y-86952639D01*
X177090001Y-96498138D01*
X177077929Y-96480071D01*
X177014473Y-96437671D01*
X177003640Y-96426838D01*
X177049000Y-96317330D01*
X177049000Y-95706670D01*
X176815310Y-95142493D01*
X176646092Y-94973275D01*
X176661765Y-94970157D01*
X176871809Y-94829809D01*
X177012157Y-94619765D01*
X177061440Y-94372000D01*
X177061440Y-92572000D01*
X177012157Y-92324235D01*
X176871809Y-92114191D01*
X176661765Y-91973843D01*
X176414000Y-91924560D01*
X174614000Y-91924560D01*
X174366235Y-91973843D01*
X174156191Y-92114191D01*
X174015843Y-92324235D01*
X173966560Y-92572000D01*
X173966560Y-94372000D01*
X174015843Y-94619765D01*
X174156191Y-94829809D01*
X174366235Y-94970157D01*
X174381908Y-94973275D01*
X174212690Y-95142493D01*
X173979000Y-95706670D01*
X173979000Y-96317330D01*
X174212690Y-96881507D01*
X174644493Y-97313310D01*
X175208670Y-97547000D01*
X175770001Y-97547000D01*
X175770001Y-97567570D01*
X175717138Y-97589466D01*
X175313466Y-97993138D01*
X175095000Y-98520561D01*
X175095000Y-99091439D01*
X175313466Y-99618862D01*
X175717138Y-100022534D01*
X176244561Y-100241000D01*
X176815439Y-100241000D01*
X177090001Y-100127273D01*
X177090001Y-102531362D01*
X176878769Y-102215231D01*
X176337944Y-101853864D01*
X175700000Y-101726969D01*
X175062055Y-101853864D01*
X174521231Y-102215231D01*
X174159864Y-102756056D01*
X174065000Y-103232970D01*
X174065001Y-105555031D01*
X174159865Y-106031945D01*
X174521232Y-106572769D01*
X175062056Y-106934136D01*
X175700000Y-107061031D01*
X176337945Y-106934136D01*
X176878769Y-106572769D01*
X177090001Y-106256638D01*
X177090001Y-111050000D01*
X172631962Y-111050000D01*
X172801740Y-110795909D01*
X172913113Y-110236000D01*
X172801740Y-109676091D01*
X172484577Y-109201423D01*
X172009909Y-108884260D01*
X171591333Y-108801000D01*
X171308667Y-108801000D01*
X171126114Y-108837312D01*
X169754331Y-107465530D01*
X169711929Y-107402071D01*
X169460537Y-107234096D01*
X169238852Y-107190000D01*
X169238847Y-107190000D01*
X169164000Y-107175112D01*
X169089153Y-107190000D01*
X164906802Y-107190000D01*
X164748328Y-107031527D01*
X165237945Y-106934136D01*
X165778769Y-106572769D01*
X166140136Y-106031945D01*
X166235000Y-105555031D01*
X166235000Y-103232969D01*
X166140136Y-102756055D01*
X165778769Y-102215231D01*
X165237944Y-101853864D01*
X164600000Y-101726969D01*
X163962055Y-101853864D01*
X163421231Y-102215231D01*
X163059864Y-102756056D01*
X163009924Y-103007122D01*
X161830242Y-101827440D01*
X162648000Y-101827440D01*
X162895765Y-101778157D01*
X163105809Y-101637809D01*
X163246157Y-101427765D01*
X163295440Y-101180000D01*
X163295440Y-101090000D01*
X167311153Y-101090000D01*
X167386000Y-101104888D01*
X167460847Y-101090000D01*
X167460852Y-101090000D01*
X167682537Y-101045904D01*
X167933929Y-100877929D01*
X167976331Y-100814470D01*
X168150001Y-100640801D01*
X168150001Y-101829148D01*
X168135112Y-101904000D01*
X168194097Y-102200537D01*
X168291961Y-102347000D01*
X168362072Y-102451929D01*
X168425528Y-102494329D01*
X168831226Y-102900028D01*
X168765000Y-103232970D01*
X168765001Y-105555031D01*
X168859865Y-106031945D01*
X169221232Y-106572769D01*
X169762056Y-106934136D01*
X170400000Y-107061031D01*
X171037945Y-106934136D01*
X171578769Y-106572769D01*
X171940136Y-106031945D01*
X172035000Y-105555031D01*
X172035000Y-103232969D01*
X171940136Y-102756055D01*
X171578769Y-102215231D01*
X171037944Y-101853864D01*
X170400000Y-101726969D01*
X169906027Y-101825226D01*
X169670000Y-101589199D01*
X169670000Y-100024043D01*
X169944577Y-99840577D01*
X170261740Y-99365909D01*
X170373113Y-98806000D01*
X170261740Y-98246091D01*
X169944577Y-97771423D01*
X169469909Y-97454260D01*
X169051333Y-97371000D01*
X168768667Y-97371000D01*
X168350091Y-97454260D01*
X167875423Y-97771423D01*
X167558260Y-98246091D01*
X167446887Y-98806000D01*
X167511312Y-99129886D01*
X167071199Y-99570000D01*
X163295440Y-99570000D01*
X163295440Y-99480000D01*
X163246157Y-99232235D01*
X163105809Y-99022191D01*
X162895765Y-98881843D01*
X162648000Y-98832560D01*
X160948000Y-98832560D01*
X160700235Y-98881843D01*
X160490191Y-99022191D01*
X160349843Y-99232235D01*
X160340816Y-99277619D01*
X160328625Y-99259375D01*
X159837418Y-98931161D01*
X159404256Y-98845000D01*
X159111744Y-98845000D01*
X158678582Y-98931161D01*
X158187375Y-99259375D01*
X157859161Y-99750582D01*
X157743908Y-100330000D01*
X157859161Y-100909418D01*
X158187375Y-101400625D01*
X158678582Y-101728839D01*
X159111744Y-101815000D01*
X159404256Y-101815000D01*
X159624408Y-101771209D01*
X160200199Y-102347000D01*
X159774398Y-102347000D01*
X159302106Y-102542629D01*
X158940629Y-102904106D01*
X158745000Y-103376398D01*
X158745000Y-103604560D01*
X158100000Y-103604560D01*
X157852235Y-103653843D01*
X157642191Y-103794191D01*
X157501843Y-104004235D01*
X157474440Y-104142000D01*
X156712848Y-104142000D01*
X156638000Y-104127112D01*
X156563152Y-104142000D01*
X156563148Y-104142000D01*
X156341463Y-104186096D01*
X156090071Y-104354071D01*
X156047671Y-104417527D01*
X155278302Y-105186897D01*
X155225439Y-105165000D01*
X154654561Y-105165000D01*
X154127138Y-105383466D01*
X153723466Y-105787138D01*
X153505000Y-106314561D01*
X153505000Y-106786198D01*
X151707887Y-108583312D01*
X151525333Y-108547000D01*
X151242667Y-108547000D01*
X150824091Y-108630260D01*
X150349423Y-108947423D01*
X150032260Y-109422091D01*
X149920887Y-109982000D01*
X150032260Y-110541909D01*
X150349423Y-111016577D01*
X150399444Y-111050000D01*
X144573989Y-111050000D01*
X144592139Y-110989745D01*
X143764000Y-110161605D01*
X142935861Y-110989745D01*
X142954011Y-111050000D01*
X114992078Y-111050000D01*
X115035440Y-110832000D01*
X115035440Y-109220000D01*
X115884887Y-109220000D01*
X115996260Y-109779909D01*
X116313423Y-110254577D01*
X116788091Y-110571740D01*
X117206667Y-110655000D01*
X117489333Y-110655000D01*
X117907909Y-110571740D01*
X118382577Y-110254577D01*
X118699740Y-109779909D01*
X118811113Y-109220000D01*
X118746688Y-108896113D01*
X118961000Y-108681801D01*
X118961000Y-109171439D01*
X119179466Y-109698862D01*
X119583138Y-110102534D01*
X120110561Y-110321000D01*
X120681439Y-110321000D01*
X121208862Y-110102534D01*
X121612534Y-109698862D01*
X121831000Y-109171439D01*
X121831000Y-108600561D01*
X121612534Y-108073138D01*
X121208862Y-107669466D01*
X120681439Y-107451000D01*
X120191802Y-107451000D01*
X120880473Y-106762329D01*
X120943929Y-106719929D01*
X121111904Y-106468537D01*
X121156000Y-106246852D01*
X121156000Y-106246847D01*
X121170888Y-106172000D01*
X121156000Y-106097153D01*
X121156000Y-105432801D01*
X122938257Y-107215059D01*
X122807843Y-107410235D01*
X122758560Y-107658000D01*
X122758560Y-109258000D01*
X122807843Y-109505765D01*
X122948191Y-109715809D01*
X123158235Y-109856157D01*
X123406000Y-109905440D01*
X125006000Y-109905440D01*
X125253765Y-109856157D01*
X125463809Y-109715809D01*
X125470090Y-109706409D01*
X125920561Y-109893000D01*
X126491439Y-109893000D01*
X126799919Y-109765223D01*
X142317035Y-109765223D01*
X142344222Y-110335454D01*
X142510136Y-110736005D01*
X142756255Y-110810139D01*
X143584395Y-109982000D01*
X143943605Y-109982000D01*
X144771745Y-110810139D01*
X145017864Y-110736005D01*
X145210965Y-110198777D01*
X145183778Y-109628546D01*
X145017864Y-109227995D01*
X144771745Y-109153861D01*
X143943605Y-109982000D01*
X143584395Y-109982000D01*
X142756255Y-109153861D01*
X142510136Y-109227995D01*
X142317035Y-109765223D01*
X126799919Y-109765223D01*
X127018862Y-109674534D01*
X127422534Y-109270862D01*
X127545392Y-108974255D01*
X142935861Y-108974255D01*
X143764000Y-109802395D01*
X144592139Y-108974255D01*
X144518005Y-108728136D01*
X143980777Y-108535035D01*
X143410546Y-108562222D01*
X143009995Y-108728136D01*
X142935861Y-108974255D01*
X127545392Y-108974255D01*
X127641000Y-108743439D01*
X127641000Y-108449745D01*
X129219861Y-108449745D01*
X129293995Y-108695864D01*
X129831223Y-108888965D01*
X130401454Y-108861778D01*
X130802005Y-108695864D01*
X130876139Y-108449745D01*
X130048000Y-107621605D01*
X129219861Y-108449745D01*
X127641000Y-108449745D01*
X127641000Y-108172561D01*
X127422534Y-107645138D01*
X127018862Y-107241466D01*
X126979648Y-107225223D01*
X128601035Y-107225223D01*
X128628222Y-107795454D01*
X128794136Y-108196005D01*
X129040255Y-108270139D01*
X129868395Y-107442000D01*
X130227605Y-107442000D01*
X131055745Y-108270139D01*
X131301864Y-108196005D01*
X131484552Y-107687745D01*
X132775861Y-107687745D01*
X132849995Y-107933864D01*
X133387223Y-108126965D01*
X133957454Y-108099778D01*
X134358005Y-107933864D01*
X134432139Y-107687745D01*
X133604000Y-106859605D01*
X132775861Y-107687745D01*
X131484552Y-107687745D01*
X131494965Y-107658777D01*
X131467778Y-107088546D01*
X131301864Y-106687995D01*
X131055745Y-106613861D01*
X130227605Y-107442000D01*
X129868395Y-107442000D01*
X129040255Y-106613861D01*
X128794136Y-106687995D01*
X128601035Y-107225223D01*
X126979648Y-107225223D01*
X126491439Y-107023000D01*
X125920561Y-107023000D01*
X125470090Y-107209591D01*
X125463809Y-107200191D01*
X125253765Y-107059843D01*
X125006000Y-107010560D01*
X124854483Y-107010560D01*
X124753929Y-106860071D01*
X124690473Y-106817671D01*
X124307057Y-106434255D01*
X129219861Y-106434255D01*
X130048000Y-107262395D01*
X130847171Y-106463223D01*
X132157035Y-106463223D01*
X132184222Y-107033454D01*
X132350136Y-107434005D01*
X132596255Y-107508139D01*
X133424395Y-106680000D01*
X133783605Y-106680000D01*
X134611745Y-107508139D01*
X134857864Y-107434005D01*
X135050965Y-106896777D01*
X135023778Y-106326546D01*
X134857864Y-105925995D01*
X134611745Y-105851861D01*
X133783605Y-106680000D01*
X133424395Y-106680000D01*
X132596255Y-105851861D01*
X132350136Y-105925995D01*
X132157035Y-106463223D01*
X130847171Y-106463223D01*
X130876139Y-106434255D01*
X130802005Y-106188136D01*
X130264777Y-105995035D01*
X129694546Y-106022222D01*
X129293995Y-106188136D01*
X129219861Y-106434255D01*
X124307057Y-106434255D01*
X123545057Y-105672255D01*
X132775861Y-105672255D01*
X133604000Y-106500395D01*
X134432139Y-105672255D01*
X134358005Y-105426136D01*
X133820777Y-105233035D01*
X133250546Y-105260222D01*
X132849995Y-105426136D01*
X132775861Y-105672255D01*
X123545057Y-105672255D01*
X122258547Y-104385745D01*
X132775861Y-104385745D01*
X132849995Y-104631864D01*
X133387223Y-104824965D01*
X133957454Y-104797778D01*
X134358005Y-104631864D01*
X134432139Y-104385745D01*
X133604000Y-103557605D01*
X132775861Y-104385745D01*
X122258547Y-104385745D01*
X121831000Y-103958199D01*
X121831000Y-103600561D01*
X121612534Y-103073138D01*
X121208862Y-102669466D01*
X120681439Y-102451000D01*
X120110561Y-102451000D01*
X119583138Y-102669466D01*
X119179466Y-103073138D01*
X118961000Y-103600561D01*
X118961000Y-104171439D01*
X119179466Y-104698862D01*
X119583138Y-105102534D01*
X119636000Y-105124430D01*
X119636000Y-105857198D01*
X117671887Y-107821312D01*
X117489333Y-107785000D01*
X117206667Y-107785000D01*
X116788091Y-107868260D01*
X116313423Y-108185423D01*
X115996260Y-108660091D01*
X115884887Y-109220000D01*
X115035440Y-109220000D01*
X115035440Y-109132000D01*
X114986157Y-108884235D01*
X114845809Y-108674191D01*
X114635765Y-108533843D01*
X114590381Y-108524816D01*
X114608625Y-108512625D01*
X114936839Y-108021418D01*
X115052092Y-107442000D01*
X114936839Y-106862582D01*
X114608625Y-106371375D01*
X114310239Y-106172000D01*
X114608625Y-105972625D01*
X114936839Y-105481418D01*
X115052092Y-104902000D01*
X114936839Y-104322582D01*
X114608625Y-103831375D01*
X114310239Y-103632000D01*
X114608625Y-103432625D01*
X114936839Y-102941418D01*
X115052092Y-102362000D01*
X114936839Y-101782582D01*
X114608625Y-101291375D01*
X114289522Y-101078157D01*
X114419358Y-101017183D01*
X114809645Y-100588924D01*
X114979476Y-100178890D01*
X114858155Y-99949000D01*
X113665000Y-99949000D01*
X113665000Y-99969000D01*
X113411000Y-99969000D01*
X113411000Y-99949000D01*
X111125000Y-99949000D01*
X111125000Y-99969000D01*
X110871000Y-99969000D01*
X110871000Y-99949000D01*
X110851000Y-99949000D01*
X110851000Y-99695000D01*
X110871000Y-99695000D01*
X110871000Y-99675000D01*
X111125000Y-99675000D01*
X111125000Y-99695000D01*
X113411000Y-99695000D01*
X113411000Y-99675000D01*
X113665000Y-99675000D01*
X113665000Y-99695000D01*
X114858155Y-99695000D01*
X114979476Y-99465110D01*
X114809645Y-99055076D01*
X114419358Y-98626817D01*
X114289522Y-98565843D01*
X114608625Y-98352625D01*
X114936839Y-97861418D01*
X115052092Y-97282000D01*
X114979142Y-96915255D01*
X115103903Y-96728538D01*
X115147999Y-96506853D01*
X115147999Y-96506849D01*
X115162887Y-96432002D01*
X115147999Y-96357155D01*
X115147999Y-96238802D01*
X116604020Y-94782782D01*
X116668791Y-95108408D01*
X116450529Y-95326670D01*
X116387070Y-95369072D01*
X116219095Y-95620465D01*
X116174999Y-95842150D01*
X116174999Y-95842154D01*
X116160111Y-95917001D01*
X116174999Y-95991848D01*
X116175000Y-99980777D01*
X116160111Y-100055629D01*
X116175000Y-100130481D01*
X116219096Y-100352166D01*
X116358222Y-100560382D01*
X116131466Y-100787138D01*
X115913000Y-101314561D01*
X115913000Y-101885439D01*
X116131466Y-102412862D01*
X116535138Y-102816534D01*
X117062561Y-103035000D01*
X117633439Y-103035000D01*
X118160862Y-102816534D01*
X118564534Y-102412862D01*
X118572450Y-102393750D01*
X122771000Y-102393750D01*
X122771000Y-103034310D01*
X122867673Y-103267699D01*
X123046302Y-103446327D01*
X123279691Y-103543000D01*
X123920250Y-103543000D01*
X124079000Y-103384250D01*
X124079000Y-102235000D01*
X122929750Y-102235000D01*
X122771000Y-102393750D01*
X118572450Y-102393750D01*
X118783000Y-101885439D01*
X118783000Y-101314561D01*
X118727963Y-101181690D01*
X122771000Y-101181690D01*
X122771000Y-101822250D01*
X122929750Y-101981000D01*
X124079000Y-101981000D01*
X124079000Y-100831750D01*
X124333000Y-100831750D01*
X124333000Y-101981000D01*
X124353000Y-101981000D01*
X124353000Y-102235000D01*
X124333000Y-102235000D01*
X124333000Y-103384250D01*
X124491750Y-103543000D01*
X125132309Y-103543000D01*
X125365698Y-103446327D01*
X125459856Y-103352170D01*
X125920561Y-103543000D01*
X126491439Y-103543000D01*
X127018862Y-103324534D01*
X127422534Y-102920862D01*
X127641000Y-102393439D01*
X127641000Y-102156561D01*
X128613000Y-102156561D01*
X128613000Y-102727439D01*
X128831466Y-103254862D01*
X129235138Y-103658534D01*
X129762561Y-103877000D01*
X130333439Y-103877000D01*
X130860862Y-103658534D01*
X131264534Y-103254862D01*
X131303320Y-103161223D01*
X132157035Y-103161223D01*
X132184222Y-103731454D01*
X132350136Y-104132005D01*
X132596255Y-104206139D01*
X133424395Y-103378000D01*
X132596255Y-102549861D01*
X132350136Y-102623995D01*
X132157035Y-103161223D01*
X131303320Y-103161223D01*
X131483000Y-102727439D01*
X131483000Y-102156561D01*
X131264534Y-101629138D01*
X130860862Y-101225466D01*
X130333439Y-101007000D01*
X129762561Y-101007000D01*
X129235138Y-101225466D01*
X128831466Y-101629138D01*
X128613000Y-102156561D01*
X127641000Y-102156561D01*
X127641000Y-101822561D01*
X127422534Y-101295138D01*
X127018862Y-100891466D01*
X126491439Y-100673000D01*
X125920561Y-100673000D01*
X125459856Y-100863830D01*
X125365698Y-100769673D01*
X125132309Y-100673000D01*
X124491750Y-100673000D01*
X124333000Y-100831750D01*
X124079000Y-100831750D01*
X123920250Y-100673000D01*
X123279691Y-100673000D01*
X123046302Y-100769673D01*
X122867673Y-100948301D01*
X122771000Y-101181690D01*
X118727963Y-101181690D01*
X118564534Y-100787138D01*
X118160862Y-100383466D01*
X118101018Y-100358678D01*
X118063904Y-100172093D01*
X117895929Y-99920701D01*
X117832470Y-99878299D01*
X117694999Y-99740828D01*
X117694999Y-98696196D01*
X117753108Y-98723486D01*
X117983000Y-98602819D01*
X117983000Y-97409000D01*
X118237000Y-97409000D01*
X118237000Y-98602819D01*
X118466892Y-98723486D01*
X118991358Y-98477183D01*
X119381645Y-98048924D01*
X119551476Y-97638890D01*
X119430155Y-97409000D01*
X118237000Y-97409000D01*
X117983000Y-97409000D01*
X117963000Y-97409000D01*
X117963000Y-97155000D01*
X117983000Y-97155000D01*
X117983000Y-97135000D01*
X118237000Y-97135000D01*
X118237000Y-97155000D01*
X119430155Y-97155000D01*
X119551476Y-96925110D01*
X119396835Y-96551750D01*
X121560001Y-96551750D01*
X121560001Y-97492310D01*
X121656674Y-97725699D01*
X121835303Y-97904327D01*
X122068692Y-98001000D01*
X123009251Y-98001000D01*
X123168001Y-97842250D01*
X123168001Y-96393000D01*
X123422001Y-96393000D01*
X123422001Y-97842250D01*
X123580751Y-98001000D01*
X124521310Y-98001000D01*
X124754699Y-97904327D01*
X124933328Y-97725699D01*
X125030001Y-97492310D01*
X125030001Y-96551750D01*
X124871251Y-96393000D01*
X123422001Y-96393000D01*
X123168001Y-96393000D01*
X121718751Y-96393000D01*
X121560001Y-96551750D01*
X119396835Y-96551750D01*
X119381645Y-96515076D01*
X119154654Y-96266000D01*
X129146011Y-96266000D01*
X129280667Y-96942963D01*
X129664136Y-97516865D01*
X130238038Y-97900334D01*
X130744121Y-98001000D01*
X131085881Y-98001000D01*
X131591964Y-97900334D01*
X132165866Y-97516865D01*
X132549335Y-96942963D01*
X132683991Y-96266000D01*
X132549335Y-95589037D01*
X132165866Y-95015135D01*
X131591964Y-94631666D01*
X131085881Y-94531000D01*
X130744121Y-94531000D01*
X130238038Y-94631666D01*
X129664136Y-95015135D01*
X129280667Y-95589037D01*
X129146011Y-96266000D01*
X119154654Y-96266000D01*
X118991358Y-96086817D01*
X118861522Y-96025843D01*
X119180625Y-95812625D01*
X119508839Y-95321418D01*
X119564877Y-95039690D01*
X121560001Y-95039690D01*
X121560001Y-95980250D01*
X121718751Y-96139000D01*
X123168001Y-96139000D01*
X123168001Y-94689750D01*
X123422001Y-94689750D01*
X123422001Y-96139000D01*
X124871251Y-96139000D01*
X125030001Y-95980250D01*
X125030001Y-95039690D01*
X124933328Y-94806301D01*
X124754699Y-94627673D01*
X124521310Y-94531000D01*
X123580751Y-94531000D01*
X123422001Y-94689750D01*
X123168001Y-94689750D01*
X123009251Y-94531000D01*
X122068692Y-94531000D01*
X121835303Y-94627673D01*
X121656674Y-94806301D01*
X121560001Y-95039690D01*
X119564877Y-95039690D01*
X119624092Y-94742000D01*
X119508839Y-94162582D01*
X119180625Y-93671375D01*
X119162381Y-93659184D01*
X119207765Y-93650157D01*
X119417809Y-93509809D01*
X119558157Y-93299765D01*
X119607440Y-93052000D01*
X119607440Y-92962000D01*
X121547561Y-92962000D01*
X121547561Y-93403001D01*
X121596844Y-93650766D01*
X121737192Y-93860810D01*
X121947236Y-94001158D01*
X122195001Y-94050441D01*
X124395001Y-94050441D01*
X124642766Y-94001158D01*
X124852810Y-93860810D01*
X124993158Y-93650766D01*
X125042441Y-93403001D01*
X125042441Y-92303001D01*
X129146011Y-92303001D01*
X129280667Y-92979964D01*
X129664136Y-93553866D01*
X130238038Y-93937335D01*
X130744121Y-94038001D01*
X131085881Y-94038001D01*
X131591964Y-93937335D01*
X132165866Y-93553866D01*
X132515789Y-93030170D01*
X132823423Y-93490577D01*
X133098000Y-93674044D01*
X133098001Y-97715148D01*
X133083112Y-97790000D01*
X133142097Y-98086537D01*
X133256713Y-98258071D01*
X133310072Y-98337929D01*
X133322560Y-98346273D01*
X133322560Y-99202000D01*
X133371843Y-99449765D01*
X133512191Y-99659809D01*
X133722235Y-99800157D01*
X133860001Y-99827560D01*
X133860000Y-101271153D01*
X133845112Y-101346000D01*
X133860000Y-101420847D01*
X133860000Y-101420851D01*
X133904096Y-101642536D01*
X134072071Y-101893929D01*
X134135530Y-101936331D01*
X134303880Y-102104681D01*
X133820777Y-101931035D01*
X133250546Y-101958222D01*
X132849995Y-102124136D01*
X132775861Y-102370255D01*
X133604000Y-103198395D01*
X133618142Y-103184252D01*
X133797748Y-103363858D01*
X133783605Y-103378000D01*
X134611745Y-104206139D01*
X134857864Y-104132005D01*
X135050965Y-103594777D01*
X135023778Y-103024546D01*
X134882380Y-102683181D01*
X136061671Y-103862473D01*
X136104071Y-103925929D01*
X136355463Y-104093904D01*
X136577148Y-104138000D01*
X136577153Y-104138000D01*
X136652000Y-104152888D01*
X136726847Y-104138000D01*
X140005957Y-104138000D01*
X140189423Y-104412577D01*
X140664091Y-104729740D01*
X141082667Y-104813000D01*
X141365333Y-104813000D01*
X141783909Y-104729740D01*
X142258577Y-104412577D01*
X142493606Y-104060832D01*
X142547466Y-104190862D01*
X142592901Y-104236297D01*
X141547886Y-105281312D01*
X141365333Y-105245000D01*
X141082667Y-105245000D01*
X140664091Y-105328260D01*
X140189423Y-105645423D01*
X139872260Y-106120091D01*
X139760887Y-106680000D01*
X139872260Y-107239909D01*
X140189423Y-107714577D01*
X140664091Y-108031740D01*
X141082667Y-108115000D01*
X141365333Y-108115000D01*
X141783909Y-108031740D01*
X142258577Y-107714577D01*
X142276505Y-107687745D01*
X142935861Y-107687745D01*
X143009995Y-107933864D01*
X143547223Y-108126965D01*
X144117454Y-108099778D01*
X144518005Y-107933864D01*
X144592139Y-107687745D01*
X143764000Y-106859605D01*
X142935861Y-107687745D01*
X142276505Y-107687745D01*
X142485611Y-107374797D01*
X142510136Y-107434005D01*
X142756255Y-107508139D01*
X143584395Y-106680000D01*
X143943605Y-106680000D01*
X144771745Y-107508139D01*
X145017864Y-107434005D01*
X145210965Y-106896777D01*
X145183778Y-106326546D01*
X145017864Y-105925995D01*
X144771745Y-105851861D01*
X143943605Y-106680000D01*
X143584395Y-106680000D01*
X143570252Y-106665858D01*
X143749858Y-106486252D01*
X143764000Y-106500395D01*
X144592139Y-105672255D01*
X144518005Y-105426136D01*
X143980777Y-105233035D01*
X143734002Y-105244801D01*
X144248085Y-104730718D01*
X144576862Y-104594534D01*
X144980534Y-104190862D01*
X145199000Y-103663439D01*
X145199000Y-103378000D01*
X149920887Y-103378000D01*
X150032260Y-103937909D01*
X150349423Y-104412577D01*
X150624001Y-104596044D01*
X150624000Y-105461956D01*
X150349423Y-105645423D01*
X150032260Y-106120091D01*
X149920887Y-106680000D01*
X150032260Y-107239909D01*
X150349423Y-107714577D01*
X150824091Y-108031740D01*
X151242667Y-108115000D01*
X151525333Y-108115000D01*
X151943909Y-108031740D01*
X152418577Y-107714577D01*
X152735740Y-107239909D01*
X152847113Y-106680000D01*
X152735740Y-106120091D01*
X152418577Y-105645423D01*
X152144000Y-105461957D01*
X152144000Y-104596043D01*
X152418577Y-104412577D01*
X152735740Y-103937909D01*
X152847113Y-103378000D01*
X152782688Y-103054114D01*
X153476802Y-102360000D01*
X153701570Y-102360000D01*
X153723466Y-102412862D01*
X154127138Y-102816534D01*
X154654561Y-103035000D01*
X155225439Y-103035000D01*
X155752862Y-102816534D01*
X156156534Y-102412862D01*
X156375000Y-101885439D01*
X156375000Y-101314561D01*
X156156534Y-100787138D01*
X155752862Y-100383466D01*
X155225439Y-100165000D01*
X154654561Y-100165000D01*
X154127138Y-100383466D01*
X153723466Y-100787138D01*
X153701570Y-100840000D01*
X153236848Y-100840000D01*
X153162000Y-100825112D01*
X153087152Y-100840000D01*
X153087148Y-100840000D01*
X152913605Y-100874520D01*
X152865462Y-100884096D01*
X152747134Y-100963161D01*
X152614071Y-101052071D01*
X152571671Y-101115527D01*
X151707886Y-101979312D01*
X151525333Y-101943000D01*
X151242667Y-101943000D01*
X150824091Y-102026260D01*
X150349423Y-102343423D01*
X150032260Y-102818091D01*
X149920887Y-103378000D01*
X145199000Y-103378000D01*
X145199000Y-103092561D01*
X144980534Y-102565138D01*
X144576862Y-102161466D01*
X144524000Y-102139570D01*
X144524000Y-99159459D01*
X147654146Y-99159459D01*
X147789504Y-99457455D01*
X148507880Y-99734066D01*
X149277427Y-99714710D01*
X149898496Y-99457455D01*
X150033854Y-99159459D01*
X148844000Y-97969605D01*
X147654146Y-99159459D01*
X144524000Y-99159459D01*
X144524000Y-99134848D01*
X144538888Y-99060000D01*
X144524000Y-98985152D01*
X144524000Y-98985148D01*
X144479904Y-98763463D01*
X144479904Y-98763462D01*
X144354329Y-98575527D01*
X144311929Y-98512071D01*
X144248473Y-98469671D01*
X143232682Y-97453880D01*
X146899934Y-97453880D01*
X146919290Y-98223427D01*
X147176545Y-98844496D01*
X147474541Y-98979854D01*
X148664395Y-97790000D01*
X149023605Y-97790000D01*
X150213459Y-98979854D01*
X150511455Y-98844496D01*
X150788066Y-98126120D01*
X150768710Y-97356573D01*
X150511455Y-96735504D01*
X150213459Y-96600146D01*
X149023605Y-97790000D01*
X148664395Y-97790000D01*
X147474541Y-96600146D01*
X147176545Y-96735504D01*
X146899934Y-97453880D01*
X143232682Y-97453880D01*
X142576331Y-96797530D01*
X142533929Y-96734071D01*
X142282537Y-96566096D01*
X142060852Y-96522000D01*
X142060847Y-96522000D01*
X141986000Y-96507112D01*
X141911153Y-96522000D01*
X136957265Y-96522000D01*
X136855806Y-96420541D01*
X147654146Y-96420541D01*
X148844000Y-97610395D01*
X150033854Y-96420541D01*
X149898496Y-96122545D01*
X149180120Y-95845934D01*
X148410573Y-95865290D01*
X147789504Y-96122545D01*
X147654146Y-96420541D01*
X136855806Y-96420541D01*
X136627894Y-96192629D01*
X136155602Y-95997000D01*
X135644398Y-95997000D01*
X135172106Y-96192629D01*
X134810629Y-96554106D01*
X134618000Y-97019155D01*
X134618000Y-93674043D01*
X134892577Y-93490577D01*
X135209740Y-93015909D01*
X135321113Y-92456000D01*
X135209740Y-91896091D01*
X134892577Y-91421423D01*
X134417909Y-91104260D01*
X134381411Y-91097000D01*
X134397439Y-91097000D01*
X134924862Y-90878534D01*
X135328534Y-90474862D01*
X135547000Y-89947439D01*
X135547000Y-89376561D01*
X135328534Y-88849138D01*
X134924862Y-88445466D01*
X134397439Y-88227000D01*
X133826561Y-88227000D01*
X133299138Y-88445466D01*
X132895466Y-88849138D01*
X132677000Y-89376561D01*
X132677000Y-89947439D01*
X132895466Y-90474862D01*
X133299138Y-90878534D01*
X133666954Y-91030889D01*
X133298091Y-91104260D01*
X132823423Y-91421423D01*
X132580848Y-91784463D01*
X132549335Y-91626038D01*
X132165866Y-91052136D01*
X131591964Y-90668667D01*
X131085881Y-90568001D01*
X130744121Y-90568001D01*
X130238038Y-90668667D01*
X129664136Y-91052136D01*
X129280667Y-91626038D01*
X129146011Y-92303001D01*
X125042441Y-92303001D01*
X125042441Y-91203001D01*
X124993158Y-90955236D01*
X124852810Y-90745192D01*
X124642766Y-90604844D01*
X124395001Y-90555561D01*
X122195001Y-90555561D01*
X121947236Y-90604844D01*
X121737192Y-90745192D01*
X121596844Y-90955236D01*
X121547561Y-91203001D01*
X121547561Y-91442000D01*
X119607440Y-91442000D01*
X119607440Y-91352000D01*
X119558157Y-91104235D01*
X119417809Y-90894191D01*
X119207765Y-90753843D01*
X118960000Y-90704560D01*
X117260000Y-90704560D01*
X117012235Y-90753843D01*
X116802191Y-90894191D01*
X116661843Y-91104235D01*
X116612560Y-91352000D01*
X116612560Y-92624638D01*
X114959698Y-94277501D01*
X114936839Y-94162582D01*
X114608625Y-93671375D01*
X114310239Y-93472000D01*
X114608625Y-93272625D01*
X114936839Y-92781418D01*
X115052092Y-92202000D01*
X114936839Y-91622582D01*
X114608625Y-91131375D01*
X114117418Y-90803161D01*
X113684256Y-90717000D01*
X113391744Y-90717000D01*
X112958582Y-90803161D01*
X112467375Y-91131375D01*
X112268000Y-91429761D01*
X112068625Y-91131375D01*
X111577418Y-90803161D01*
X111144256Y-90717000D01*
X110851744Y-90717000D01*
X110418582Y-90803161D01*
X109930000Y-91129621D01*
X109930000Y-85001962D01*
X110184091Y-85171740D01*
X110602667Y-85255000D01*
X110885333Y-85255000D01*
X111303909Y-85171740D01*
X111778577Y-84854577D01*
X112095740Y-84379909D01*
X112207113Y-83820000D01*
X112142688Y-83496114D01*
X113260473Y-82378329D01*
X113323929Y-82335929D01*
X113491904Y-82084537D01*
X113536000Y-81862852D01*
X113536000Y-81862847D01*
X113550888Y-81788000D01*
X113536000Y-81713153D01*
X113536000Y-77798848D01*
X113550888Y-77724000D01*
X113536000Y-77649152D01*
X113536000Y-77649148D01*
X113501480Y-77475605D01*
X113491904Y-77427462D01*
X113366329Y-77239527D01*
X113365932Y-77238933D01*
X113369000Y-77231526D01*
X113369000Y-76692474D01*
X113365874Y-76684927D01*
X114276928Y-75773874D01*
X114284474Y-75777000D01*
X114823526Y-75777000D01*
X115321546Y-75570714D01*
X115702714Y-75189546D01*
X115909000Y-74691526D01*
X115909000Y-74152474D01*
X115702714Y-73654454D01*
X115568000Y-73519740D01*
X115568000Y-72024430D01*
X115620862Y-72002534D01*
X116024534Y-71598862D01*
X116243000Y-71071439D01*
X116243000Y-70500561D01*
X116024534Y-69973138D01*
X115620862Y-69569466D01*
X115093439Y-69351000D01*
X114522561Y-69351000D01*
X113995138Y-69569466D01*
X113591466Y-69973138D01*
X113536433Y-70106000D01*
X112645440Y-70106000D01*
X112645440Y-69866000D01*
X112596157Y-69618235D01*
X112455809Y-69408191D01*
X112245765Y-69267843D01*
X111998000Y-69218560D01*
X109998000Y-69218560D01*
X109930000Y-69232086D01*
X109930000Y-67419914D01*
X109998000Y-67433440D01*
X111998000Y-67433440D01*
X112245765Y-67384157D01*
X112455809Y-67243809D01*
X112596157Y-67033765D01*
X112645440Y-66786000D01*
X112645440Y-66546000D01*
X113569570Y-66546000D01*
X113591466Y-66598862D01*
X113995138Y-67002534D01*
X114048000Y-67024430D01*
X114048000Y-67235153D01*
X114033112Y-67310000D01*
X114048000Y-67384847D01*
X114048000Y-67384851D01*
X114092096Y-67606536D01*
X114260071Y-67857929D01*
X114323530Y-67900331D01*
X117219312Y-70796114D01*
X117154887Y-71120000D01*
X117266260Y-71679909D01*
X117583423Y-72154577D01*
X118058091Y-72471740D01*
X118476667Y-72555000D01*
X118759333Y-72555000D01*
X118941887Y-72518688D01*
X122091670Y-75668472D01*
X122134071Y-75731929D01*
X122385463Y-75899904D01*
X122607148Y-75944000D01*
X122607153Y-75944000D01*
X122682000Y-75958888D01*
X122756847Y-75944000D01*
X128324569Y-75944000D01*
X129047333Y-76666765D01*
X129013423Y-76689423D01*
X128778000Y-77041758D01*
X128542577Y-76689423D01*
X128067909Y-76372260D01*
X127649333Y-76289000D01*
X127366667Y-76289000D01*
X126948091Y-76372260D01*
X126473423Y-76689423D01*
X126289957Y-76964000D01*
X126186043Y-76964000D01*
X126002577Y-76689423D01*
X125527909Y-76372260D01*
X125109333Y-76289000D01*
X124826667Y-76289000D01*
X124408091Y-76372260D01*
X123933423Y-76689423D01*
X123852785Y-76810106D01*
X123826157Y-76676235D01*
X123685809Y-76466191D01*
X123475765Y-76325843D01*
X123228000Y-76276560D01*
X121628000Y-76276560D01*
X121380235Y-76325843D01*
X121170191Y-76466191D01*
X121029843Y-76676235D01*
X120980560Y-76924000D01*
X120980560Y-76964000D01*
X118946846Y-76964000D01*
X118871999Y-76949112D01*
X118797152Y-76964000D01*
X118797148Y-76964000D01*
X118575463Y-77008096D01*
X118521237Y-77044329D01*
X118449000Y-77092596D01*
X118449000Y-76692474D01*
X118242714Y-76194454D01*
X117861546Y-75813286D01*
X117363526Y-75607000D01*
X116824474Y-75607000D01*
X116326454Y-75813286D01*
X115945286Y-76194454D01*
X115739000Y-76692474D01*
X115739000Y-77231526D01*
X115945286Y-77729546D01*
X116326454Y-78110714D01*
X116824474Y-78317000D01*
X117204198Y-78317000D01*
X115847528Y-79673671D01*
X115784072Y-79716071D01*
X115741672Y-79779527D01*
X115741671Y-79779528D01*
X115645054Y-79924126D01*
X115616097Y-79967463D01*
X115583511Y-80131286D01*
X115557112Y-80264000D01*
X115572001Y-80338851D01*
X115572000Y-81713153D01*
X115557112Y-81788000D01*
X115572000Y-81862847D01*
X115572000Y-81862851D01*
X115616096Y-82084536D01*
X115784071Y-82335929D01*
X115847530Y-82378331D01*
X116950897Y-83481698D01*
X116929000Y-83534561D01*
X116929000Y-84105439D01*
X117147466Y-84632862D01*
X117551138Y-85036534D01*
X118078561Y-85255000D01*
X118649439Y-85255000D01*
X119176862Y-85036534D01*
X119580534Y-84632862D01*
X119636001Y-84498954D01*
X119636001Y-85015148D01*
X119621112Y-85090000D01*
X119680097Y-85386537D01*
X119794713Y-85558071D01*
X119848072Y-85637929D01*
X119911528Y-85680329D01*
X120821671Y-86590473D01*
X120864071Y-86653929D01*
X121115463Y-86821904D01*
X121337148Y-86866000D01*
X121337153Y-86866000D01*
X121412000Y-86880888D01*
X121486847Y-86866000D01*
X125655153Y-86866000D01*
X125730000Y-86880888D01*
X125804847Y-86866000D01*
X125804852Y-86866000D01*
X126026537Y-86821904D01*
X126277929Y-86653929D01*
X126320331Y-86590470D01*
X128160824Y-84749978D01*
X128188260Y-84887909D01*
X128505423Y-85362577D01*
X128980091Y-85679740D01*
X129398667Y-85763000D01*
X129681333Y-85763000D01*
X129863886Y-85726688D01*
X129965671Y-85828473D01*
X130008071Y-85891929D01*
X130259463Y-86059904D01*
X130481148Y-86104000D01*
X130481153Y-86104000D01*
X130556000Y-86118888D01*
X130630847Y-86104000D01*
X136831153Y-86104000D01*
X136906000Y-86118888D01*
X136980847Y-86104000D01*
X136980852Y-86104000D01*
X137202537Y-86059904D01*
X137453929Y-85891929D01*
X137496331Y-85828470D01*
X138152928Y-85171874D01*
X138160474Y-85175000D01*
X138699526Y-85175000D01*
X139197546Y-84968714D01*
X139578714Y-84587546D01*
X139785000Y-84089526D01*
X139785000Y-83550474D01*
X139578714Y-83052454D01*
X139197546Y-82671286D01*
X138699526Y-82465000D01*
X138160474Y-82465000D01*
X137662454Y-82671286D01*
X137281286Y-83052454D01*
X137075000Y-83550474D01*
X137075000Y-84089526D01*
X137078126Y-84097072D01*
X136591199Y-84584000D01*
X134500183Y-84584000D01*
X134705000Y-84089526D01*
X134705000Y-83550474D01*
X134701874Y-83542928D01*
X135612928Y-82631874D01*
X135620474Y-82635000D01*
X136159526Y-82635000D01*
X136657546Y-82428714D01*
X137038714Y-82047546D01*
X137245000Y-81549526D01*
X137245000Y-81010474D01*
X137241874Y-81002928D01*
X137728803Y-80516000D01*
X141589570Y-80516000D01*
X141611466Y-80568862D01*
X142015138Y-80972534D01*
X142068000Y-80994430D01*
X142068001Y-82426560D01*
X141748000Y-82426560D01*
X141500235Y-82475843D01*
X141290191Y-82616191D01*
X141149843Y-82826235D01*
X141100560Y-83074000D01*
X141100560Y-85074000D01*
X141149843Y-85321765D01*
X141290191Y-85531809D01*
X141500235Y-85672157D01*
X141748000Y-85721440D01*
X143748000Y-85721440D01*
X143995765Y-85672157D01*
X144205809Y-85531809D01*
X144346157Y-85321765D01*
X144395440Y-85074000D01*
X144395440Y-83074000D01*
X144346157Y-82826235D01*
X144205809Y-82616191D01*
X143995765Y-82475843D01*
X143748000Y-82426560D01*
X143588000Y-82426560D01*
X143588000Y-80994430D01*
X143640862Y-80972534D01*
X144044534Y-80568862D01*
X144263000Y-80041439D01*
X144263000Y-79470561D01*
X144044534Y-78943138D01*
X143640862Y-78539466D01*
X143113439Y-78321000D01*
X142542561Y-78321000D01*
X142015138Y-78539466D01*
X141611466Y-78943138D01*
X141589570Y-78996000D01*
X138347248Y-78996000D01*
X138702577Y-78758577D01*
X139019740Y-78283909D01*
X139131113Y-77724000D01*
X139019740Y-77164091D01*
X138702577Y-76689423D01*
X138227909Y-76372260D01*
X137809333Y-76289000D01*
X137526667Y-76289000D01*
X137108091Y-76372260D01*
X136633423Y-76689423D01*
X136398000Y-77041758D01*
X136162577Y-76689423D01*
X135888000Y-76505957D01*
X135888000Y-71322043D01*
X136162577Y-71138577D01*
X136398000Y-70786242D01*
X136633423Y-71138577D01*
X137108091Y-71455740D01*
X137526667Y-71539000D01*
X137809333Y-71539000D01*
X138227909Y-71455740D01*
X138702577Y-71138577D01*
X138780763Y-71021564D01*
X143635312Y-75876114D01*
X143570887Y-76200000D01*
X143682260Y-76759909D01*
X143999423Y-77234577D01*
X144474091Y-77551740D01*
X144892667Y-77635000D01*
X145175333Y-77635000D01*
X145357887Y-77598688D01*
X146656901Y-78897703D01*
X146611466Y-78943138D01*
X146393000Y-79470561D01*
X146393000Y-80041439D01*
X146611466Y-80568862D01*
X147015138Y-80972534D01*
X147068000Y-80994430D01*
X147068001Y-82426560D01*
X146828000Y-82426560D01*
X146580235Y-82475843D01*
X146370191Y-82616191D01*
X146229843Y-82826235D01*
X146180560Y-83074000D01*
X146180560Y-85074000D01*
X146229843Y-85321765D01*
X146370191Y-85531809D01*
X146580235Y-85672157D01*
X146828000Y-85721440D01*
X148828000Y-85721440D01*
X149075765Y-85672157D01*
X149285809Y-85531809D01*
X149426157Y-85321765D01*
X149475440Y-85074000D01*
X149475440Y-83349223D01*
X150191035Y-83349223D01*
X150218222Y-83919454D01*
X150384136Y-84320005D01*
X150630255Y-84394139D01*
X151458395Y-83566000D01*
X150630255Y-82737861D01*
X150384136Y-82811995D01*
X150191035Y-83349223D01*
X149475440Y-83349223D01*
X149475440Y-83074000D01*
X149426157Y-82826235D01*
X149285809Y-82616191D01*
X149199103Y-82558255D01*
X150809861Y-82558255D01*
X151638000Y-83386395D01*
X152466139Y-82558255D01*
X152392005Y-82312136D01*
X151854777Y-82119035D01*
X151284546Y-82146222D01*
X150883995Y-82312136D01*
X150809861Y-82558255D01*
X149199103Y-82558255D01*
X149075765Y-82475843D01*
X148828000Y-82426560D01*
X148588000Y-82426560D01*
X148588000Y-80994430D01*
X148640862Y-80972534D01*
X149044534Y-80568862D01*
X149263000Y-80041439D01*
X149263000Y-79470561D01*
X149441000Y-79470561D01*
X149441000Y-80041439D01*
X149659466Y-80568862D01*
X150063138Y-80972534D01*
X150590561Y-81191000D01*
X151161439Y-81191000D01*
X151688862Y-80972534D01*
X152092534Y-80568862D01*
X152311000Y-80041439D01*
X152311000Y-79470561D01*
X152092534Y-78943138D01*
X151688862Y-78539466D01*
X151161439Y-78321000D01*
X150590561Y-78321000D01*
X150063138Y-78539466D01*
X149659466Y-78943138D01*
X149441000Y-79470561D01*
X149263000Y-79470561D01*
X149044534Y-78943138D01*
X148640862Y-78539466D01*
X148312083Y-78403281D01*
X146432688Y-76523887D01*
X146497113Y-76200000D01*
X146385740Y-75640091D01*
X146068577Y-75165423D01*
X145593909Y-74848260D01*
X145175333Y-74765000D01*
X144892667Y-74765000D01*
X144710114Y-74801312D01*
X139528331Y-69619530D01*
X139485929Y-69556071D01*
X139234537Y-69388096D01*
X139012852Y-69344000D01*
X139012847Y-69344000D01*
X138938000Y-69329112D01*
X138883358Y-69339981D01*
X138702577Y-69069423D01*
X138227909Y-68752260D01*
X137809333Y-68669000D01*
X137526667Y-68669000D01*
X137108091Y-68752260D01*
X136633423Y-69069423D01*
X136398000Y-69421758D01*
X136162577Y-69069423D01*
X135785135Y-68817224D01*
X135932537Y-68787904D01*
X136183929Y-68619929D01*
X136226331Y-68556470D01*
X137374271Y-67408531D01*
X137662454Y-67696714D01*
X138160474Y-67903000D01*
X138699526Y-67903000D01*
X139197546Y-67696714D01*
X139578714Y-67315546D01*
X139785000Y-66817526D01*
X139785000Y-66278474D01*
X139578714Y-65780454D01*
X139197546Y-65399286D01*
X138699526Y-65193000D01*
X138160474Y-65193000D01*
X137662454Y-65399286D01*
X137281286Y-65780454D01*
X137278160Y-65788000D01*
X137234846Y-65788000D01*
X137159999Y-65773112D01*
X137085152Y-65788000D01*
X137085148Y-65788000D01*
X136863463Y-65832096D01*
X136863461Y-65832097D01*
X136863462Y-65832097D01*
X136675526Y-65957671D01*
X136675524Y-65957673D01*
X136612071Y-66000071D01*
X136569673Y-66063524D01*
X135321199Y-67312000D01*
X134500183Y-67312000D01*
X134705000Y-66817526D01*
X134705000Y-66278474D01*
X134701874Y-66270927D01*
X135612927Y-65359874D01*
X135620474Y-65363000D01*
X136159526Y-65363000D01*
X136657546Y-65156714D01*
X137038714Y-64775546D01*
X137041840Y-64768000D01*
X141100560Y-64768000D01*
X141100560Y-65008000D01*
X141149843Y-65255765D01*
X141290191Y-65465809D01*
X141500235Y-65606157D01*
X141748000Y-65655440D01*
X141988000Y-65655440D01*
X141988001Y-66882603D01*
X141611466Y-67259138D01*
X141393000Y-67786561D01*
X141393000Y-68357439D01*
X141611466Y-68884862D01*
X142015138Y-69288534D01*
X142542561Y-69507000D01*
X143113439Y-69507000D01*
X143640862Y-69288534D01*
X144044534Y-68884862D01*
X144263000Y-68357439D01*
X144263000Y-67786561D01*
X144044534Y-67259138D01*
X143640862Y-66855466D01*
X143508000Y-66800433D01*
X143508000Y-65655440D01*
X143748000Y-65655440D01*
X143995765Y-65606157D01*
X144205809Y-65465809D01*
X144346157Y-65255765D01*
X144395440Y-65008000D01*
X144395440Y-63008000D01*
X144370379Y-62882010D01*
X146205621Y-62882010D01*
X146180560Y-63008000D01*
X146180560Y-65008000D01*
X146229843Y-65255765D01*
X146370191Y-65465809D01*
X146580235Y-65606157D01*
X146828000Y-65655440D01*
X147068000Y-65655440D01*
X147068001Y-66833570D01*
X147015138Y-66855466D01*
X146611466Y-67259138D01*
X146393000Y-67786561D01*
X146393000Y-68357439D01*
X146414897Y-68410302D01*
X144567524Y-70257675D01*
X144474091Y-70276260D01*
X143999423Y-70593423D01*
X143682260Y-71068091D01*
X143570887Y-71628000D01*
X143682260Y-72187909D01*
X143999423Y-72662577D01*
X144474091Y-72979740D01*
X144892667Y-73063000D01*
X145175333Y-73063000D01*
X145593909Y-72979740D01*
X146068577Y-72662577D01*
X146385740Y-72187909D01*
X146497113Y-71628000D01*
X146385740Y-71068091D01*
X146193868Y-70780934D01*
X147489698Y-69485103D01*
X147542561Y-69507000D01*
X148113439Y-69507000D01*
X148640862Y-69288534D01*
X149044534Y-68884862D01*
X149263000Y-68357439D01*
X149263000Y-67786561D01*
X149044534Y-67259138D01*
X148640862Y-66855466D01*
X148588000Y-66833570D01*
X148588000Y-65655440D01*
X148828000Y-65655440D01*
X149075765Y-65606157D01*
X149285809Y-65465809D01*
X149426157Y-65255765D01*
X149475440Y-65008000D01*
X149475440Y-63936242D01*
X150450000Y-64910802D01*
X150450001Y-66833570D01*
X150397138Y-66855466D01*
X149993466Y-67259138D01*
X149775000Y-67786561D01*
X149775000Y-68357439D01*
X149993466Y-68884862D01*
X150397138Y-69288534D01*
X150450001Y-69310430D01*
X150450001Y-70109148D01*
X150435112Y-70184000D01*
X150494097Y-70480537D01*
X150608618Y-70651929D01*
X150662072Y-70731929D01*
X150725528Y-70774329D01*
X151240896Y-71289698D01*
X151219000Y-71342561D01*
X151219000Y-71913439D01*
X151243789Y-71973284D01*
X151138097Y-72131463D01*
X151094001Y-72353148D01*
X151094001Y-72353152D01*
X151079113Y-72427999D01*
X151094001Y-72502846D01*
X151094002Y-75325149D01*
X151079113Y-75400001D01*
X151138098Y-75696538D01*
X151216107Y-75813286D01*
X151243789Y-75854715D01*
X151219000Y-75914561D01*
X151219000Y-76485439D01*
X151437466Y-77012862D01*
X151841138Y-77416534D01*
X152368561Y-77635000D01*
X152939439Y-77635000D01*
X153466862Y-77416534D01*
X153870534Y-77012862D01*
X154089000Y-76485439D01*
X154089000Y-75914561D01*
X153870534Y-75387138D01*
X153466862Y-74983466D01*
X152939439Y-74765000D01*
X152614001Y-74765000D01*
X152614001Y-73063000D01*
X152939439Y-73063000D01*
X152992302Y-73041103D01*
X154095670Y-74144472D01*
X154138071Y-74207929D01*
X154389463Y-74375904D01*
X154611148Y-74420000D01*
X154611153Y-74420000D01*
X154686000Y-74434888D01*
X154760847Y-74420000D01*
X155070560Y-74420000D01*
X155070560Y-74660000D01*
X155119843Y-74907765D01*
X155260191Y-75117809D01*
X155470235Y-75258157D01*
X155718000Y-75307440D01*
X157718000Y-75307440D01*
X157736001Y-75303859D01*
X157736000Y-78537956D01*
X157461423Y-78721423D01*
X157144260Y-79196091D01*
X157032887Y-79756000D01*
X157144260Y-80315909D01*
X157461423Y-80790577D01*
X157805984Y-81020805D01*
X157290789Y-81536000D01*
X155268848Y-81536000D01*
X155194000Y-81521112D01*
X155119152Y-81536000D01*
X155119148Y-81536000D01*
X154945605Y-81570520D01*
X154897462Y-81580096D01*
X154710418Y-81705076D01*
X154646071Y-81748071D01*
X154603671Y-81811527D01*
X153064371Y-83350827D01*
X153057778Y-83212546D01*
X152891864Y-82811995D01*
X152645745Y-82737861D01*
X151817605Y-83566000D01*
X151831748Y-83580142D01*
X151652142Y-83759748D01*
X151638000Y-83745605D01*
X150809861Y-84573745D01*
X150883995Y-84819864D01*
X151407254Y-85007944D01*
X144719199Y-91696000D01*
X142925440Y-91696000D01*
X142925440Y-91656000D01*
X142876157Y-91408235D01*
X142735809Y-91198191D01*
X142525765Y-91057843D01*
X142278000Y-91008560D01*
X141533363Y-91008560D01*
X140525104Y-90000302D01*
X140547000Y-89947439D01*
X140547000Y-89376561D01*
X140328534Y-88849138D01*
X139924862Y-88445466D01*
X139397439Y-88227000D01*
X138826561Y-88227000D01*
X138299138Y-88445466D01*
X137895466Y-88849138D01*
X137677000Y-89376561D01*
X137677000Y-89947439D01*
X137895466Y-90474862D01*
X138299138Y-90878534D01*
X138826561Y-91097000D01*
X139397439Y-91097000D01*
X139450302Y-91075104D01*
X140030666Y-91655468D01*
X140030560Y-91656000D01*
X140030560Y-93256000D01*
X140079843Y-93503765D01*
X140220191Y-93713809D01*
X140430235Y-93854157D01*
X140678000Y-93903440D01*
X142278000Y-93903440D01*
X142525765Y-93854157D01*
X142735809Y-93713809D01*
X142876157Y-93503765D01*
X142925440Y-93256000D01*
X142925440Y-93216000D01*
X144959153Y-93216000D01*
X145034000Y-93230888D01*
X145108847Y-93216000D01*
X145108852Y-93216000D01*
X145330537Y-93171904D01*
X145581929Y-93003929D01*
X145624331Y-92940470D01*
X148084001Y-90480801D01*
X148084001Y-91010373D01*
X147747910Y-91149586D01*
X147203586Y-91693910D01*
X146909000Y-92405105D01*
X146909000Y-93174895D01*
X147203586Y-93886090D01*
X147747910Y-94430414D01*
X148459105Y-94725000D01*
X149228895Y-94725000D01*
X149940090Y-94430414D01*
X150484414Y-93886090D01*
X150779000Y-93174895D01*
X150779000Y-92405105D01*
X150484414Y-91693910D01*
X149940090Y-91149586D01*
X149604000Y-91010373D01*
X149604000Y-89597211D01*
X151897195Y-87304016D01*
X152127423Y-87648577D01*
X152402001Y-87832044D01*
X152402001Y-88063149D01*
X152387112Y-88138000D01*
X152402001Y-88212852D01*
X152446097Y-88434537D01*
X152614072Y-88685929D01*
X152677528Y-88728329D01*
X153272896Y-89323698D01*
X153251000Y-89376561D01*
X153251000Y-89947439D01*
X153469466Y-90474862D01*
X153873138Y-90878534D01*
X153926000Y-90900430D01*
X153926001Y-92635148D01*
X153911112Y-92710000D01*
X153926001Y-92784852D01*
X153970097Y-93006537D01*
X154138072Y-93257929D01*
X154201528Y-93300329D01*
X157143671Y-96242473D01*
X157186071Y-96305929D01*
X157437463Y-96473904D01*
X157659148Y-96518000D01*
X157659153Y-96518000D01*
X157734000Y-96532888D01*
X157808847Y-96518000D01*
X159206735Y-96518000D01*
X159536106Y-96847371D01*
X160008398Y-97043000D01*
X160519602Y-97043000D01*
X160991894Y-96847371D01*
X161353371Y-96485894D01*
X161549000Y-96013602D01*
X161549000Y-95785440D01*
X162194000Y-95785440D01*
X162441765Y-95736157D01*
X162651809Y-95595809D01*
X162792157Y-95385765D01*
X162819560Y-95248000D01*
X163501153Y-95248000D01*
X163576000Y-95262888D01*
X163650847Y-95248000D01*
X163650852Y-95248000D01*
X163872537Y-95203904D01*
X164123929Y-95035929D01*
X164166331Y-94972470D01*
X165463450Y-93675352D01*
X165479843Y-93757765D01*
X165620191Y-93967809D01*
X165830235Y-94108157D01*
X166078000Y-94157440D01*
X167678000Y-94157440D01*
X167925765Y-94108157D01*
X168135809Y-93967809D01*
X168142090Y-93958409D01*
X168592561Y-94145000D01*
X169163439Y-94145000D01*
X169690862Y-93926534D01*
X170094534Y-93522862D01*
X170313000Y-92995439D01*
X170313000Y-92424561D01*
X170291103Y-92371698D01*
X170884473Y-91778329D01*
X170947929Y-91735929D01*
X171115904Y-91484537D01*
X171160000Y-91262852D01*
X171160000Y-91262848D01*
X171174888Y-91188001D01*
X171160000Y-91113154D01*
X171160000Y-87548581D01*
X171578769Y-87268769D01*
X171940136Y-86727945D01*
X172035000Y-86251031D01*
X172035000Y-83928969D01*
X171940136Y-83452055D01*
X171578769Y-82911231D01*
X171037944Y-82549864D01*
X170400000Y-82422969D01*
X169762055Y-82549864D01*
X169221231Y-82911231D01*
X168859864Y-83452056D01*
X168765000Y-83928970D01*
X168765001Y-86251031D01*
X168859865Y-86727945D01*
X169221232Y-87268769D01*
X169640000Y-87548581D01*
X169640001Y-90873197D01*
X169216302Y-91296897D01*
X169163439Y-91275000D01*
X168592561Y-91275000D01*
X168142090Y-91461591D01*
X168135809Y-91452191D01*
X167925765Y-91311843D01*
X167678000Y-91262560D01*
X167638000Y-91262560D01*
X167638000Y-88466846D01*
X167652888Y-88391999D01*
X167638000Y-88317152D01*
X167638000Y-88317148D01*
X167593904Y-88095463D01*
X167507226Y-87965740D01*
X167468329Y-87907526D01*
X167468327Y-87907524D01*
X167449482Y-87879320D01*
X167616473Y-87712329D01*
X167679929Y-87669929D01*
X167722924Y-87605582D01*
X167847904Y-87418538D01*
X167858929Y-87363112D01*
X167892000Y-87196852D01*
X167892000Y-87196848D01*
X167906888Y-87122000D01*
X167892000Y-87047152D01*
X167892000Y-81086801D01*
X169587698Y-79391103D01*
X169640561Y-79413000D01*
X170211439Y-79413000D01*
X170738862Y-79194534D01*
X171142534Y-78790862D01*
X171361000Y-78263439D01*
X171361000Y-77692561D01*
X171142534Y-77165138D01*
X170738862Y-76761466D01*
X170211439Y-76543000D01*
X169640561Y-76543000D01*
X169113138Y-76761466D01*
X168709466Y-77165138D01*
X168491000Y-77692561D01*
X168491000Y-78263439D01*
X168512897Y-78316302D01*
X166647530Y-80181669D01*
X166584071Y-80224071D01*
X166416096Y-80475464D01*
X166372000Y-80697149D01*
X166372000Y-80697153D01*
X166357112Y-80772000D01*
X166372000Y-80846847D01*
X166372001Y-86807197D01*
X166055199Y-87124000D01*
X165875501Y-87124000D01*
X166140136Y-86727945D01*
X166235000Y-86251031D01*
X166235000Y-83928969D01*
X166140136Y-83452055D01*
X165778769Y-82911231D01*
X165237944Y-82549864D01*
X164600000Y-82422969D01*
X163962055Y-82549864D01*
X163421231Y-82911231D01*
X163059864Y-83452056D01*
X162965000Y-83928970D01*
X162965001Y-86251031D01*
X163059865Y-86727945D01*
X163324500Y-87124000D01*
X162366802Y-87124000D01*
X162195103Y-86952302D01*
X162217000Y-86899439D01*
X162217000Y-86328561D01*
X161998534Y-85801138D01*
X161594862Y-85397466D01*
X161542000Y-85375570D01*
X161542000Y-85164846D01*
X161556888Y-85089999D01*
X161542000Y-85015152D01*
X161542000Y-85015148D01*
X161497904Y-84793463D01*
X161442072Y-84709904D01*
X161372329Y-84605526D01*
X161372327Y-84605524D01*
X161329929Y-84542071D01*
X161266476Y-84499673D01*
X160656688Y-83889886D01*
X160721113Y-83566000D01*
X160609740Y-83006091D01*
X160292577Y-82531423D01*
X159948017Y-82301195D01*
X162045202Y-80204010D01*
X165083143Y-80204010D01*
X165157990Y-80218898D01*
X165232837Y-80204010D01*
X165232842Y-80204010D01*
X165454527Y-80159914D01*
X165705919Y-79991939D01*
X165748321Y-79928480D01*
X165944329Y-79732472D01*
X169587699Y-76089104D01*
X169640561Y-76111000D01*
X170211439Y-76111000D01*
X170738862Y-75892534D01*
X171142534Y-75488862D01*
X171164430Y-75436000D01*
X171309199Y-75436000D01*
X173512897Y-77639698D01*
X173491000Y-77692561D01*
X173491000Y-78263439D01*
X173709466Y-78790862D01*
X174113138Y-79194534D01*
X174640561Y-79413000D01*
X175211439Y-79413000D01*
X175738862Y-79194534D01*
X176142534Y-78790862D01*
X176361000Y-78263439D01*
X176361000Y-77692561D01*
X176142534Y-77165138D01*
X175738862Y-76761466D01*
X175211439Y-76543000D01*
X174640561Y-76543000D01*
X174587698Y-76564897D01*
X172214331Y-74191530D01*
X172171929Y-74128071D01*
X171920537Y-73960096D01*
X171698852Y-73916000D01*
X171698847Y-73916000D01*
X171624000Y-73901112D01*
X171549153Y-73916000D01*
X171164430Y-73916000D01*
X171142534Y-73863138D01*
X170738862Y-73459466D01*
X170211439Y-73241000D01*
X169641801Y-73241000D01*
X170664473Y-72218329D01*
X170727929Y-72175929D01*
X170895904Y-71924537D01*
X170940000Y-71702852D01*
X170940000Y-71702847D01*
X170954888Y-71628000D01*
X170954792Y-71627520D01*
X171022000Y-71640888D01*
X171096848Y-71626000D01*
X172517957Y-71626000D01*
X172701423Y-71900577D01*
X173176091Y-72217740D01*
X173594667Y-72301000D01*
X173877333Y-72301000D01*
X174059886Y-72264688D01*
X174166001Y-72370803D01*
X174166000Y-73437570D01*
X174113138Y-73459466D01*
X173709466Y-73863138D01*
X173491000Y-74390561D01*
X173491000Y-74961439D01*
X173709466Y-75488862D01*
X174113138Y-75892534D01*
X174640561Y-76111000D01*
X175211439Y-76111000D01*
X175738862Y-75892534D01*
X176142534Y-75488862D01*
X176361000Y-74961439D01*
X176361000Y-74390561D01*
X176142534Y-73863138D01*
X175738862Y-73459466D01*
X175686000Y-73437570D01*
X175686000Y-72130846D01*
X175700888Y-72055999D01*
X175686000Y-71981152D01*
X175686000Y-71981148D01*
X175641904Y-71759463D01*
X175473929Y-71508071D01*
X175410473Y-71465671D01*
X175134688Y-71189886D01*
X175199113Y-70866000D01*
X175087740Y-70306091D01*
X174770577Y-69831423D01*
X174295909Y-69514260D01*
X173877333Y-69431000D01*
X173594667Y-69431000D01*
X173176091Y-69514260D01*
X172701423Y-69831423D01*
X172517957Y-70106000D01*
X171615000Y-70106000D01*
X171615000Y-69738561D01*
X171396534Y-69211138D01*
X170992862Y-68807466D01*
X170465439Y-68589000D01*
X169894561Y-68589000D01*
X169374482Y-68804424D01*
X169371904Y-68791463D01*
X169371904Y-68791462D01*
X169246329Y-68603527D01*
X169203929Y-68540071D01*
X169140473Y-68497671D01*
X168291103Y-67648302D01*
X168313000Y-67595439D01*
X168313000Y-67024561D01*
X168094534Y-66497138D01*
X167690862Y-66093466D01*
X167638000Y-66071570D01*
X167638000Y-66031745D01*
X169351861Y-66031745D01*
X169425995Y-66277864D01*
X169963223Y-66470965D01*
X170533454Y-66443778D01*
X170934005Y-66277864D01*
X171008139Y-66031745D01*
X170180000Y-65203605D01*
X169351861Y-66031745D01*
X167638000Y-66031745D01*
X167638000Y-65246430D01*
X167690862Y-65224534D01*
X168094534Y-64820862D01*
X168100183Y-64807223D01*
X168733035Y-64807223D01*
X168760222Y-65377454D01*
X168926136Y-65778005D01*
X169172255Y-65852139D01*
X170000395Y-65024000D01*
X170359605Y-65024000D01*
X171187745Y-65852139D01*
X171433864Y-65778005D01*
X171626965Y-65240777D01*
X171599778Y-64670546D01*
X171433864Y-64269995D01*
X171379916Y-64253745D01*
X172907861Y-64253745D01*
X172981995Y-64499864D01*
X173519223Y-64692965D01*
X174089454Y-64665778D01*
X174490005Y-64499864D01*
X174564139Y-64253745D01*
X173736000Y-63425605D01*
X172907861Y-64253745D01*
X171379916Y-64253745D01*
X171187745Y-64195861D01*
X170359605Y-65024000D01*
X170000395Y-65024000D01*
X169172255Y-64195861D01*
X168926136Y-64269995D01*
X168733035Y-64807223D01*
X168100183Y-64807223D01*
X168313000Y-64293439D01*
X168313000Y-64016255D01*
X169351861Y-64016255D01*
X170180000Y-64844395D01*
X171008139Y-64016255D01*
X170934005Y-63770136D01*
X170396777Y-63577035D01*
X169826546Y-63604222D01*
X169425995Y-63770136D01*
X169351861Y-64016255D01*
X168313000Y-64016255D01*
X168313000Y-63722561D01*
X168094534Y-63195138D01*
X167690862Y-62791466D01*
X167163439Y-62573000D01*
X166592561Y-62573000D01*
X166065138Y-62791466D01*
X165661466Y-63195138D01*
X165443000Y-63722561D01*
X165443000Y-64293439D01*
X165661466Y-64820862D01*
X166065138Y-65224534D01*
X166118000Y-65246430D01*
X166118001Y-66071570D01*
X166065138Y-66093466D01*
X165661466Y-66497138D01*
X165443000Y-67024561D01*
X165443000Y-67595439D01*
X165661466Y-68122862D01*
X166065138Y-68526534D01*
X166592561Y-68745000D01*
X167163439Y-68745000D01*
X167216302Y-68723103D01*
X167896001Y-69402803D01*
X167896001Y-69566347D01*
X167437909Y-69260260D01*
X167019333Y-69177000D01*
X166736667Y-69177000D01*
X166318091Y-69260260D01*
X165843423Y-69577423D01*
X165526260Y-70052091D01*
X165414887Y-70612000D01*
X165479312Y-70935886D01*
X159789528Y-76625671D01*
X159726072Y-76668071D01*
X159683672Y-76731527D01*
X159683671Y-76731528D01*
X159558097Y-76919463D01*
X159499112Y-77216000D01*
X159514001Y-77290852D01*
X159514000Y-78710347D01*
X159256000Y-78537957D01*
X159256000Y-74262848D01*
X159270888Y-74188000D01*
X159256000Y-74113152D01*
X159256000Y-74113148D01*
X159211904Y-73891463D01*
X159211904Y-73891462D01*
X159086329Y-73703527D01*
X159043929Y-73640071D01*
X158980472Y-73597671D01*
X158558331Y-73175530D01*
X158515929Y-73112071D01*
X158365440Y-73011517D01*
X158365440Y-72660000D01*
X158316157Y-72412235D01*
X158175809Y-72202191D01*
X157965765Y-72061843D01*
X157718000Y-72012560D01*
X155718000Y-72012560D01*
X155470235Y-72061843D01*
X155260191Y-72202191D01*
X155119843Y-72412235D01*
X155070560Y-72660000D01*
X155070560Y-72900000D01*
X155000802Y-72900000D01*
X154067103Y-71966302D01*
X154089000Y-71913439D01*
X154089000Y-71342561D01*
X153870534Y-70815138D01*
X153466862Y-70411466D01*
X152939439Y-70193000D01*
X152368561Y-70193000D01*
X152315698Y-70214896D01*
X151970000Y-69869199D01*
X151970000Y-69310430D01*
X152022862Y-69288534D01*
X152426534Y-68884862D01*
X152645000Y-68357439D01*
X152645000Y-67786561D01*
X152426534Y-67259138D01*
X152022862Y-66855466D01*
X151970000Y-66833570D01*
X151970000Y-65362993D01*
X152108191Y-65569809D01*
X152318235Y-65710157D01*
X152566000Y-65759440D01*
X152823645Y-65759440D01*
X152868071Y-65825929D01*
X152931530Y-65868331D01*
X154796897Y-67733698D01*
X154775000Y-67786561D01*
X154775000Y-68357439D01*
X154993466Y-68884862D01*
X155397138Y-69288534D01*
X155924561Y-69507000D01*
X156495439Y-69507000D01*
X157022862Y-69288534D01*
X157426534Y-68884862D01*
X157645000Y-68357439D01*
X157645000Y-67786561D01*
X157426534Y-67259138D01*
X157022862Y-66855466D01*
X156495439Y-66637000D01*
X155924561Y-66637000D01*
X155871698Y-66658897D01*
X154747362Y-65534560D01*
X154864157Y-65359765D01*
X154873184Y-65314381D01*
X154885375Y-65332625D01*
X155376582Y-65660839D01*
X155809744Y-65747000D01*
X156102256Y-65747000D01*
X156322408Y-65703209D01*
X157817171Y-67197972D01*
X157794887Y-67310000D01*
X157859948Y-67637085D01*
X157742097Y-67813463D01*
X157698001Y-68035148D01*
X157698001Y-68035152D01*
X157683113Y-68109999D01*
X157698001Y-68184846D01*
X157698002Y-69737150D01*
X157683113Y-69812001D01*
X157742098Y-70108538D01*
X157842535Y-70258852D01*
X157847789Y-70266715D01*
X157823000Y-70326561D01*
X157823000Y-70897439D01*
X158041466Y-71424862D01*
X158445138Y-71828534D01*
X158972561Y-72047000D01*
X159543439Y-72047000D01*
X160070862Y-71828534D01*
X160474534Y-71424862D01*
X160693000Y-70897439D01*
X160693000Y-70326561D01*
X160474534Y-69799138D01*
X160070862Y-69395466D01*
X159543439Y-69177000D01*
X159218001Y-69177000D01*
X159218001Y-68745000D01*
X159399333Y-68745000D01*
X159817909Y-68661740D01*
X160292577Y-68344577D01*
X160609740Y-67869909D01*
X160721113Y-67310000D01*
X160609740Y-66750091D01*
X160292577Y-66275423D01*
X159817909Y-65958260D01*
X159399333Y-65875000D01*
X159116667Y-65875000D01*
X158722255Y-65953453D01*
X157397209Y-64628408D01*
X157470092Y-64262000D01*
X157419569Y-64008000D01*
X157794887Y-64008000D01*
X157906260Y-64567909D01*
X158223423Y-65042577D01*
X158698091Y-65359740D01*
X159116667Y-65443000D01*
X159399333Y-65443000D01*
X159817909Y-65359740D01*
X160292577Y-65042577D01*
X160609740Y-64567909D01*
X160721113Y-64008000D01*
X160609740Y-63448091D01*
X160292577Y-62973423D01*
X159817909Y-62656260D01*
X159399333Y-62573000D01*
X159116667Y-62573000D01*
X158698091Y-62656260D01*
X158223423Y-62973423D01*
X157906260Y-63448091D01*
X157794887Y-64008000D01*
X157419569Y-64008000D01*
X157354839Y-63682582D01*
X157026625Y-63191375D01*
X156535418Y-62863161D01*
X156102256Y-62777000D01*
X155809744Y-62777000D01*
X155376582Y-62863161D01*
X154885375Y-63191375D01*
X154873184Y-63209619D01*
X154864157Y-63164235D01*
X154723809Y-62954191D01*
X154513765Y-62813843D01*
X154266000Y-62764560D01*
X152566000Y-62764560D01*
X152318235Y-62813843D01*
X152108191Y-62954191D01*
X151967843Y-63164235D01*
X151918560Y-63412000D01*
X151918560Y-64288472D01*
X151757929Y-64048071D01*
X151694473Y-64005671D01*
X150120801Y-62432000D01*
X172681315Y-62432000D01*
X172482136Y-62491995D01*
G04 #@! TD*
M02*
