M48
;DRILL file {KiCad 4.0.7} date Monday 10 September 2018 20:52:20
;FORMAT={-:-/ absolute / metric / decimal}
FMAT,2
METRIC,TZ
T1C1.100
T2C1.200
T3C1.270
T4C3.200
%
G90
G05
M71
T1
X130.81Y-102.87
X130.81Y-106.68
X130.81Y-110.49
X143.51Y-102.87
X143.51Y-106.68
X143.51Y-110.49
X149.86Y-102.87
X149.86Y-110.49
X152.4Y-99.06
X152.4Y-114.935
X160.02Y-99.06
X160.02Y-114.935
X163.83Y-102.87
X163.83Y-110.49
X170.18Y-102.87
X170.18Y-106.68
X170.18Y-110.49
X182.88Y-102.87
X182.88Y-106.68
X182.88Y-110.49
T4
X125.095Y-97.155
X151.765Y-131.445
X174.625Y-131.445
X188.595Y-97.155
T2
X139.685Y-122.055G85X140.985Y-122.055
G05
X139.685Y-127.855G85X140.985Y-127.855
G05
X139.685Y-133.155G85X140.985Y-133.155
G05
X162.545Y-122.055G85X163.845Y-122.055
G05
X162.545Y-127.855G85X163.845Y-127.855
G05
X162.545Y-133.155G85X163.845Y-133.155
G05
X185.405Y-122.055G85X186.705Y-122.055
G05
X185.405Y-127.855G85X186.705Y-127.855
G05
X185.405Y-133.155G85X186.705Y-133.155
G05
T3
X137.922Y-96.698G85X136.398Y-96.698
G05
X137.922Y-116.662G85X136.398Y-116.662
G05
X177.292Y-96.698G85X175.768Y-96.698
G05
X177.292Y-116.662G85X175.768Y-116.662
G05
T0
M30
