G04 #@! TF.FileFunction,Legend,Top*
%FSLAX46Y46*%
G04 Gerber Fmt 4.6, Leading zero omitted, Abs format (unit mm)*
G04 Created by KiCad (PCBNEW 4.0.7) date Monday 10 September 2018 20:52:00*
%MOMM*%
%LPD*%
G01*
G04 APERTURE LIST*
%ADD10C,0.100000*%
%ADD11C,0.200000*%
%ADD12C,0.300000*%
%ADD13C,0.150000*%
%ADD14C,0.120000*%
G04 APERTURE END LIST*
D10*
D11*
X186664762Y-116855952D02*
X186712381Y-116951190D01*
X186712381Y-117141667D01*
X186664762Y-117236905D01*
X186569524Y-117284524D01*
X186188571Y-117284524D01*
X186093333Y-117236905D01*
X186045714Y-117141667D01*
X186045714Y-116951190D01*
X186093333Y-116855952D01*
X186188571Y-116808333D01*
X186283810Y-116808333D01*
X186379048Y-117284524D01*
X186712381Y-116236905D02*
X186664762Y-116332143D01*
X186569524Y-116379762D01*
X185712381Y-116379762D01*
X186664762Y-115474999D02*
X186712381Y-115570237D01*
X186712381Y-115760714D01*
X186664762Y-115855952D01*
X186569524Y-115903571D01*
X186188571Y-115903571D01*
X186093333Y-115855952D01*
X186045714Y-115760714D01*
X186045714Y-115570237D01*
X186093333Y-115474999D01*
X186188571Y-115427380D01*
X186283810Y-115427380D01*
X186379048Y-115903571D01*
X186664762Y-114570237D02*
X186712381Y-114665475D01*
X186712381Y-114855952D01*
X186664762Y-114951190D01*
X186617143Y-114998809D01*
X186521905Y-115046428D01*
X186236190Y-115046428D01*
X186140952Y-114998809D01*
X186093333Y-114951190D01*
X186045714Y-114855952D01*
X186045714Y-114665475D01*
X186093333Y-114570237D01*
X186045714Y-114284523D02*
X186045714Y-113903571D01*
X185712381Y-114141666D02*
X186569524Y-114141666D01*
X186664762Y-114094047D01*
X186712381Y-113998809D01*
X186712381Y-113903571D01*
X186712381Y-113570237D02*
X186045714Y-113570237D01*
X186236190Y-113570237D02*
X186140952Y-113522618D01*
X186093333Y-113474999D01*
X186045714Y-113379761D01*
X186045714Y-113284522D01*
X186712381Y-112808332D02*
X186664762Y-112903570D01*
X186617143Y-112951189D01*
X186521905Y-112998808D01*
X186236190Y-112998808D01*
X186140952Y-112951189D01*
X186093333Y-112903570D01*
X186045714Y-112808332D01*
X186045714Y-112665474D01*
X186093333Y-112570236D01*
X186140952Y-112522617D01*
X186236190Y-112474998D01*
X186521905Y-112474998D01*
X186617143Y-112522617D01*
X186664762Y-112570236D01*
X186712381Y-112665474D01*
X186712381Y-112808332D01*
X186045714Y-112046427D02*
X186712381Y-112046427D01*
X186140952Y-112046427D02*
X186093333Y-111998808D01*
X186045714Y-111903570D01*
X186045714Y-111760712D01*
X186093333Y-111665474D01*
X186188571Y-111617855D01*
X186712381Y-111617855D01*
X186712381Y-111141665D02*
X186045714Y-111141665D01*
X185712381Y-111141665D02*
X185760000Y-111189284D01*
X185807619Y-111141665D01*
X185760000Y-111094046D01*
X185712381Y-111141665D01*
X185807619Y-111141665D01*
X186664762Y-110236903D02*
X186712381Y-110332141D01*
X186712381Y-110522618D01*
X186664762Y-110617856D01*
X186617143Y-110665475D01*
X186521905Y-110713094D01*
X186236190Y-110713094D01*
X186140952Y-110665475D01*
X186093333Y-110617856D01*
X186045714Y-110522618D01*
X186045714Y-110332141D01*
X186093333Y-110236903D01*
X188364762Y-117284524D02*
X188412381Y-117189286D01*
X188412381Y-116998810D01*
X188364762Y-116903571D01*
X188269524Y-116855952D01*
X188221905Y-116855952D01*
X188126667Y-116903571D01*
X188079048Y-116998810D01*
X188079048Y-117141667D01*
X188031429Y-117236905D01*
X187936190Y-117284524D01*
X187888571Y-117284524D01*
X187793333Y-117236905D01*
X187745714Y-117141667D01*
X187745714Y-116998810D01*
X187793333Y-116903571D01*
X188412381Y-116284524D02*
X188364762Y-116379762D01*
X188317143Y-116427381D01*
X188221905Y-116475000D01*
X187936190Y-116475000D01*
X187840952Y-116427381D01*
X187793333Y-116379762D01*
X187745714Y-116284524D01*
X187745714Y-116141666D01*
X187793333Y-116046428D01*
X187840952Y-115998809D01*
X187936190Y-115951190D01*
X188221905Y-115951190D01*
X188317143Y-115998809D01*
X188364762Y-116046428D01*
X188412381Y-116141666D01*
X188412381Y-116284524D01*
X187745714Y-115094047D02*
X188412381Y-115094047D01*
X187745714Y-115522619D02*
X188269524Y-115522619D01*
X188364762Y-115475000D01*
X188412381Y-115379762D01*
X188412381Y-115236904D01*
X188364762Y-115141666D01*
X188317143Y-115094047D01*
X187745714Y-114617857D02*
X188412381Y-114617857D01*
X187840952Y-114617857D02*
X187793333Y-114570238D01*
X187745714Y-114475000D01*
X187745714Y-114332142D01*
X187793333Y-114236904D01*
X187888571Y-114189285D01*
X188412381Y-114189285D01*
X188412381Y-113284523D02*
X187412381Y-113284523D01*
X188364762Y-113284523D02*
X188412381Y-113379761D01*
X188412381Y-113570238D01*
X188364762Y-113665476D01*
X188317143Y-113713095D01*
X188221905Y-113760714D01*
X187936190Y-113760714D01*
X187840952Y-113713095D01*
X187793333Y-113665476D01*
X187745714Y-113570238D01*
X187745714Y-113379761D01*
X187793333Y-113284523D01*
X190112381Y-117236905D02*
X189445714Y-117236905D01*
X189540952Y-117236905D02*
X189493333Y-117189286D01*
X189445714Y-117094048D01*
X189445714Y-116951190D01*
X189493333Y-116855952D01*
X189588571Y-116808333D01*
X190112381Y-116808333D01*
X189588571Y-116808333D02*
X189493333Y-116760714D01*
X189445714Y-116665476D01*
X189445714Y-116522619D01*
X189493333Y-116427381D01*
X189588571Y-116379762D01*
X190112381Y-116379762D01*
X190112381Y-115475000D02*
X189588571Y-115475000D01*
X189493333Y-115522619D01*
X189445714Y-115617857D01*
X189445714Y-115808334D01*
X189493333Y-115903572D01*
X190064762Y-115475000D02*
X190112381Y-115570238D01*
X190112381Y-115808334D01*
X190064762Y-115903572D01*
X189969524Y-115951191D01*
X189874286Y-115951191D01*
X189779048Y-115903572D01*
X189731429Y-115808334D01*
X189731429Y-115570238D01*
X189683810Y-115475000D01*
X190064762Y-114570238D02*
X190112381Y-114665476D01*
X190112381Y-114855953D01*
X190064762Y-114951191D01*
X190017143Y-114998810D01*
X189921905Y-115046429D01*
X189636190Y-115046429D01*
X189540952Y-114998810D01*
X189493333Y-114951191D01*
X189445714Y-114855953D01*
X189445714Y-114665476D01*
X189493333Y-114570238D01*
X190112381Y-114141667D02*
X189112381Y-114141667D01*
X190112381Y-113713095D02*
X189588571Y-113713095D01*
X189493333Y-113760714D01*
X189445714Y-113855952D01*
X189445714Y-113998810D01*
X189493333Y-114094048D01*
X189540952Y-114141667D01*
X190112381Y-113236905D02*
X189445714Y-113236905D01*
X189112381Y-113236905D02*
X189160000Y-113284524D01*
X189207619Y-113236905D01*
X189160000Y-113189286D01*
X189112381Y-113236905D01*
X189207619Y-113236905D01*
X189445714Y-112760715D02*
X190112381Y-112760715D01*
X189540952Y-112760715D02*
X189493333Y-112713096D01*
X189445714Y-112617858D01*
X189445714Y-112475000D01*
X189493333Y-112379762D01*
X189588571Y-112332143D01*
X190112381Y-112332143D01*
X190064762Y-111475000D02*
X190112381Y-111570238D01*
X190112381Y-111760715D01*
X190064762Y-111855953D01*
X189969524Y-111903572D01*
X189588571Y-111903572D01*
X189493333Y-111855953D01*
X189445714Y-111760715D01*
X189445714Y-111570238D01*
X189493333Y-111475000D01*
X189588571Y-111427381D01*
X189683810Y-111427381D01*
X189779048Y-111903572D01*
X190064762Y-111046429D02*
X190112381Y-110951191D01*
X190112381Y-110760715D01*
X190064762Y-110665476D01*
X189969524Y-110617857D01*
X189921905Y-110617857D01*
X189826667Y-110665476D01*
X189779048Y-110760715D01*
X189779048Y-110903572D01*
X189731429Y-110998810D01*
X189636190Y-111046429D01*
X189588571Y-111046429D01*
X189493333Y-110998810D01*
X189445714Y-110903572D01*
X189445714Y-110760715D01*
X189493333Y-110665476D01*
D12*
X125773571Y-122435000D02*
X124773571Y-122435000D01*
X124916429Y-122435000D02*
X124845000Y-122363572D01*
X124773571Y-122220714D01*
X124773571Y-122006429D01*
X124845000Y-121863572D01*
X124987857Y-121792143D01*
X125773571Y-121792143D01*
X124987857Y-121792143D02*
X124845000Y-121720714D01*
X124773571Y-121577857D01*
X124773571Y-121363572D01*
X124845000Y-121220714D01*
X124987857Y-121149286D01*
X125773571Y-121149286D01*
X125773571Y-120435000D02*
X124773571Y-120435000D01*
X124273571Y-120435000D02*
X124345000Y-120506429D01*
X124416429Y-120435000D01*
X124345000Y-120363572D01*
X124273571Y-120435000D01*
X124416429Y-120435000D01*
X124773571Y-119720714D02*
X125773571Y-119720714D01*
X124916429Y-119720714D02*
X124845000Y-119649286D01*
X124773571Y-119506428D01*
X124773571Y-119292143D01*
X124845000Y-119149286D01*
X124987857Y-119077857D01*
X125773571Y-119077857D01*
X125773571Y-118363571D02*
X124773571Y-118363571D01*
X124273571Y-118363571D02*
X124345000Y-118435000D01*
X124416429Y-118363571D01*
X124345000Y-118292143D01*
X124273571Y-118363571D01*
X124416429Y-118363571D01*
X125202143Y-117649285D02*
X125202143Y-116506428D01*
X125773571Y-115792142D02*
X124773571Y-115792142D01*
X125059286Y-115792142D02*
X124916429Y-115720714D01*
X124845000Y-115649285D01*
X124773571Y-115506428D01*
X124773571Y-115363571D01*
X125773571Y-114863571D02*
X124773571Y-114863571D01*
X124273571Y-114863571D02*
X124345000Y-114935000D01*
X124416429Y-114863571D01*
X124345000Y-114792143D01*
X124273571Y-114863571D01*
X124416429Y-114863571D01*
X124773571Y-114149285D02*
X125773571Y-114149285D01*
X124916429Y-114149285D02*
X124845000Y-114077857D01*
X124773571Y-113934999D01*
X124773571Y-113720714D01*
X124845000Y-113577857D01*
X124987857Y-113506428D01*
X125773571Y-113506428D01*
X124773571Y-112149285D02*
X125987857Y-112149285D01*
X126130714Y-112220714D01*
X126202143Y-112292142D01*
X126273571Y-112434999D01*
X126273571Y-112649285D01*
X126202143Y-112792142D01*
X125702143Y-112149285D02*
X125773571Y-112292142D01*
X125773571Y-112577856D01*
X125702143Y-112720714D01*
X125630714Y-112792142D01*
X125487857Y-112863571D01*
X125059286Y-112863571D01*
X124916429Y-112792142D01*
X124845000Y-112720714D01*
X124773571Y-112577856D01*
X124773571Y-112292142D01*
X124845000Y-112149285D01*
X125773571Y-111434999D02*
X124773571Y-111434999D01*
X124916429Y-111434999D02*
X124845000Y-111363571D01*
X124773571Y-111220713D01*
X124773571Y-111006428D01*
X124845000Y-110863571D01*
X124987857Y-110792142D01*
X125773571Y-110792142D01*
X124987857Y-110792142D02*
X124845000Y-110720713D01*
X124773571Y-110577856D01*
X124773571Y-110363571D01*
X124845000Y-110220713D01*
X124987857Y-110149285D01*
X125773571Y-110149285D01*
X125773571Y-109220713D02*
X125702143Y-109363571D01*
X125630714Y-109434999D01*
X125487857Y-109506428D01*
X125059286Y-109506428D01*
X124916429Y-109434999D01*
X124845000Y-109363571D01*
X124773571Y-109220713D01*
X124773571Y-109006428D01*
X124845000Y-108863571D01*
X124916429Y-108792142D01*
X125059286Y-108720713D01*
X125487857Y-108720713D01*
X125630714Y-108792142D01*
X125702143Y-108863571D01*
X125773571Y-109006428D01*
X125773571Y-109220713D01*
X125773571Y-107434999D02*
X124273571Y-107434999D01*
X125702143Y-107434999D02*
X125773571Y-107577856D01*
X125773571Y-107863570D01*
X125702143Y-108006428D01*
X125630714Y-108077856D01*
X125487857Y-108149285D01*
X125059286Y-108149285D01*
X124916429Y-108077856D01*
X124845000Y-108006428D01*
X124773571Y-107863570D01*
X124773571Y-107577856D01*
X124845000Y-107434999D01*
D11*
X181427381Y-134080001D02*
X181379762Y-134175239D01*
X181332143Y-134222858D01*
X181236905Y-134270477D01*
X180951190Y-134270477D01*
X180855952Y-134222858D01*
X180808333Y-134175239D01*
X180760714Y-134080001D01*
X180760714Y-133937143D01*
X180808333Y-133841905D01*
X180855952Y-133794286D01*
X180951190Y-133746667D01*
X181236905Y-133746667D01*
X181332143Y-133794286D01*
X181379762Y-133841905D01*
X181427381Y-133937143D01*
X181427381Y-134080001D01*
X180760714Y-132889524D02*
X181427381Y-132889524D01*
X180760714Y-133318096D02*
X181284524Y-133318096D01*
X181379762Y-133270477D01*
X181427381Y-133175239D01*
X181427381Y-133032381D01*
X181379762Y-132937143D01*
X181332143Y-132889524D01*
X180760714Y-132556191D02*
X180760714Y-132175239D01*
X180427381Y-132413334D02*
X181284524Y-132413334D01*
X181379762Y-132365715D01*
X181427381Y-132270477D01*
X181427381Y-132175239D01*
X180760714Y-131841905D02*
X181760714Y-131841905D01*
X180808333Y-131841905D02*
X180760714Y-131746667D01*
X180760714Y-131556190D01*
X180808333Y-131460952D01*
X180855952Y-131413333D01*
X180951190Y-131365714D01*
X181236905Y-131365714D01*
X181332143Y-131413333D01*
X181379762Y-131460952D01*
X181427381Y-131556190D01*
X181427381Y-131746667D01*
X181379762Y-131841905D01*
X180760714Y-130508571D02*
X181427381Y-130508571D01*
X180760714Y-130937143D02*
X181284524Y-130937143D01*
X181379762Y-130889524D01*
X181427381Y-130794286D01*
X181427381Y-130651428D01*
X181379762Y-130556190D01*
X181332143Y-130508571D01*
X180760714Y-130175238D02*
X180760714Y-129794286D01*
X180427381Y-130032381D02*
X181284524Y-130032381D01*
X181379762Y-129984762D01*
X181427381Y-129889524D01*
X181427381Y-129794286D01*
X158567381Y-134357857D02*
X157900714Y-134357857D01*
X157567381Y-134357857D02*
X157615000Y-134405476D01*
X157662619Y-134357857D01*
X157615000Y-134310238D01*
X157567381Y-134357857D01*
X157662619Y-134357857D01*
X157900714Y-133881667D02*
X158567381Y-133881667D01*
X157995952Y-133881667D02*
X157948333Y-133834048D01*
X157900714Y-133738810D01*
X157900714Y-133595952D01*
X157948333Y-133500714D01*
X158043571Y-133453095D01*
X158567381Y-133453095D01*
X157900714Y-132976905D02*
X158900714Y-132976905D01*
X157948333Y-132976905D02*
X157900714Y-132881667D01*
X157900714Y-132691190D01*
X157948333Y-132595952D01*
X157995952Y-132548333D01*
X158091190Y-132500714D01*
X158376905Y-132500714D01*
X158472143Y-132548333D01*
X158519762Y-132595952D01*
X158567381Y-132691190D01*
X158567381Y-132881667D01*
X158519762Y-132976905D01*
X157900714Y-131643571D02*
X158567381Y-131643571D01*
X157900714Y-132072143D02*
X158424524Y-132072143D01*
X158519762Y-132024524D01*
X158567381Y-131929286D01*
X158567381Y-131786428D01*
X158519762Y-131691190D01*
X158472143Y-131643571D01*
X157900714Y-131310238D02*
X157900714Y-130929286D01*
X157567381Y-131167381D02*
X158424524Y-131167381D01*
X158519762Y-131119762D01*
X158567381Y-131024524D01*
X158567381Y-130929286D01*
X135659762Y-133889524D02*
X135707381Y-133984762D01*
X135707381Y-134175239D01*
X135659762Y-134270477D01*
X135612143Y-134318096D01*
X135516905Y-134365715D01*
X135231190Y-134365715D01*
X135135952Y-134318096D01*
X135088333Y-134270477D01*
X135040714Y-134175239D01*
X135040714Y-133984762D01*
X135088333Y-133889524D01*
X135707381Y-133032381D02*
X135183571Y-133032381D01*
X135088333Y-133080000D01*
X135040714Y-133175238D01*
X135040714Y-133365715D01*
X135088333Y-133460953D01*
X135659762Y-133032381D02*
X135707381Y-133127619D01*
X135707381Y-133365715D01*
X135659762Y-133460953D01*
X135564524Y-133508572D01*
X135469286Y-133508572D01*
X135374048Y-133460953D01*
X135326429Y-133365715D01*
X135326429Y-133127619D01*
X135278810Y-133032381D01*
X135707381Y-132556191D02*
X135040714Y-132556191D01*
X135231190Y-132556191D02*
X135135952Y-132508572D01*
X135088333Y-132460953D01*
X135040714Y-132365715D01*
X135040714Y-132270476D01*
X135707381Y-131937143D02*
X135040714Y-131937143D01*
X135231190Y-131937143D02*
X135135952Y-131889524D01*
X135088333Y-131841905D01*
X135040714Y-131746667D01*
X135040714Y-131651428D01*
X135707381Y-131318095D02*
X135040714Y-131318095D01*
X134707381Y-131318095D02*
X134755000Y-131365714D01*
X134802619Y-131318095D01*
X134755000Y-131270476D01*
X134707381Y-131318095D01*
X134802619Y-131318095D01*
X135659762Y-130460952D02*
X135707381Y-130556190D01*
X135707381Y-130746667D01*
X135659762Y-130841905D01*
X135564524Y-130889524D01*
X135183571Y-130889524D01*
X135088333Y-130841905D01*
X135040714Y-130746667D01*
X135040714Y-130556190D01*
X135088333Y-130460952D01*
X135183571Y-130413333D01*
X135278810Y-130413333D01*
X135374048Y-130889524D01*
X135707381Y-129984762D02*
X135040714Y-129984762D01*
X135231190Y-129984762D02*
X135135952Y-129937143D01*
X135088333Y-129889524D01*
X135040714Y-129794286D01*
X135040714Y-129699047D01*
D13*
X168910000Y-116840000D02*
X168910000Y-109220000D01*
X175260000Y-116840000D02*
X168910000Y-116840000D01*
X184150000Y-109220000D02*
X184150000Y-116840000D01*
X175260000Y-96520000D02*
X168910000Y-96520000D01*
X184150000Y-96520000D02*
X184150000Y-109220000D01*
X184150000Y-116840000D02*
X175260000Y-116840000D01*
X168910000Y-109220000D02*
X168910000Y-96520000D01*
X175260000Y-96520000D02*
X184150000Y-96520000D01*
X129540000Y-116840000D02*
X129540000Y-109220000D01*
X135890000Y-116840000D02*
X129540000Y-116840000D01*
X144780000Y-109220000D02*
X144780000Y-116840000D01*
X135890000Y-96520000D02*
X129540000Y-96520000D01*
X144780000Y-96520000D02*
X144780000Y-109220000D01*
X144780000Y-116840000D02*
X135890000Y-116840000D01*
X129540000Y-109220000D02*
X129540000Y-96520000D01*
X135890000Y-96520000D02*
X144780000Y-96520000D01*
X183515000Y-135255000D02*
X183515000Y-139065000D01*
X183515000Y-139065000D02*
X188595000Y-139065000D01*
X188595000Y-139065000D02*
X188595000Y-135255000D01*
X189865000Y-135255000D02*
X182245000Y-135255000D01*
X182245000Y-135255000D02*
X182245000Y-121285000D01*
X182245000Y-121285000D02*
X189865000Y-121285000D01*
X189865000Y-121285000D02*
X189865000Y-135255000D01*
D14*
X151140000Y-104020000D02*
X151270000Y-104020000D01*
X151270000Y-104020000D02*
X151270000Y-109340000D01*
X151270000Y-109340000D02*
X151140000Y-109340000D01*
X148580000Y-104020000D02*
X148450000Y-104020000D01*
X148450000Y-104020000D02*
X148450000Y-109340000D01*
X148450000Y-109340000D02*
X148580000Y-109340000D01*
X151270000Y-104860000D02*
X148450000Y-104860000D01*
X158870000Y-100340000D02*
X158870000Y-100470000D01*
X158870000Y-100470000D02*
X153550000Y-100470000D01*
X153550000Y-100470000D02*
X153550000Y-100340000D01*
X158870000Y-97780000D02*
X158870000Y-97650000D01*
X158870000Y-97650000D02*
X153550000Y-97650000D01*
X153550000Y-97650000D02*
X153550000Y-97780000D01*
X158030000Y-100470000D02*
X158030000Y-97650000D01*
X153550000Y-113655000D02*
X153550000Y-113525000D01*
X153550000Y-113525000D02*
X158870000Y-113525000D01*
X158870000Y-113525000D02*
X158870000Y-113655000D01*
X153550000Y-116215000D02*
X153550000Y-116345000D01*
X153550000Y-116345000D02*
X158870000Y-116345000D01*
X158870000Y-116345000D02*
X158870000Y-116215000D01*
X154390000Y-113525000D02*
X154390000Y-116345000D01*
X162550000Y-109340000D02*
X162420000Y-109340000D01*
X162420000Y-109340000D02*
X162420000Y-104020000D01*
X162420000Y-104020000D02*
X162550000Y-104020000D01*
X165110000Y-109340000D02*
X165240000Y-109340000D01*
X165240000Y-109340000D02*
X165240000Y-104020000D01*
X165240000Y-104020000D02*
X165110000Y-104020000D01*
X162420000Y-108500000D02*
X165240000Y-108500000D01*
D13*
X137795000Y-135255000D02*
X137795000Y-139065000D01*
X137795000Y-139065000D02*
X142875000Y-139065000D01*
X142875000Y-139065000D02*
X142875000Y-135255000D01*
X144145000Y-135255000D02*
X136525000Y-135255000D01*
X136525000Y-135255000D02*
X136525000Y-121285000D01*
X136525000Y-121285000D02*
X144145000Y-121285000D01*
X144145000Y-121285000D02*
X144145000Y-135255000D01*
X160655000Y-135255000D02*
X160655000Y-139065000D01*
X160655000Y-139065000D02*
X165735000Y-139065000D01*
X165735000Y-139065000D02*
X165735000Y-135255000D01*
X167005000Y-135255000D02*
X159385000Y-135255000D01*
X159385000Y-135255000D02*
X159385000Y-121285000D01*
X159385000Y-121285000D02*
X167005000Y-121285000D01*
X167005000Y-121285000D02*
X167005000Y-135255000D01*
X169553095Y-117562381D02*
X170124524Y-117562381D01*
X169838809Y-118562381D02*
X169838809Y-117562381D01*
X171029286Y-118562381D02*
X170695952Y-118086190D01*
X170457857Y-118562381D02*
X170457857Y-117562381D01*
X170838810Y-117562381D01*
X170934048Y-117610000D01*
X170981667Y-117657619D01*
X171029286Y-117752857D01*
X171029286Y-117895714D01*
X170981667Y-117990952D01*
X170934048Y-118038571D01*
X170838810Y-118086190D01*
X170457857Y-118086190D01*
X171410238Y-117657619D02*
X171457857Y-117610000D01*
X171553095Y-117562381D01*
X171791191Y-117562381D01*
X171886429Y-117610000D01*
X171934048Y-117657619D01*
X171981667Y-117752857D01*
X171981667Y-117848095D01*
X171934048Y-117990952D01*
X171362619Y-118562381D01*
X171981667Y-118562381D01*
X130183095Y-117562381D02*
X130754524Y-117562381D01*
X130468809Y-118562381D02*
X130468809Y-117562381D01*
X131659286Y-118562381D02*
X131325952Y-118086190D01*
X131087857Y-118562381D02*
X131087857Y-117562381D01*
X131468810Y-117562381D01*
X131564048Y-117610000D01*
X131611667Y-117657619D01*
X131659286Y-117752857D01*
X131659286Y-117895714D01*
X131611667Y-117990952D01*
X131564048Y-118038571D01*
X131468810Y-118086190D01*
X131087857Y-118086190D01*
X132611667Y-118562381D02*
X132040238Y-118562381D01*
X132325952Y-118562381D02*
X132325952Y-117562381D01*
X132230714Y-117705238D01*
X132135476Y-117800476D01*
X132040238Y-117848095D01*
X181276667Y-120102381D02*
X181276667Y-120816667D01*
X181229047Y-120959524D01*
X181133809Y-121054762D01*
X180990952Y-121102381D01*
X180895714Y-121102381D01*
X181657619Y-120102381D02*
X182276667Y-120102381D01*
X181943333Y-120483333D01*
X182086191Y-120483333D01*
X182181429Y-120530952D01*
X182229048Y-120578571D01*
X182276667Y-120673810D01*
X182276667Y-120911905D01*
X182229048Y-121007143D01*
X182181429Y-121054762D01*
X182086191Y-121102381D01*
X181800476Y-121102381D01*
X181705238Y-121054762D01*
X181657619Y-121007143D01*
X152722381Y-107418095D02*
X151722381Y-107418095D01*
X151722381Y-107180000D01*
X151770000Y-107037142D01*
X151865238Y-106941904D01*
X151960476Y-106894285D01*
X152150952Y-106846666D01*
X152293810Y-106846666D01*
X152484286Y-106894285D01*
X152579524Y-106941904D01*
X152674762Y-107037142D01*
X152722381Y-107180000D01*
X152722381Y-107418095D01*
X152722381Y-105894285D02*
X152722381Y-106465714D01*
X152722381Y-106180000D02*
X151722381Y-106180000D01*
X151865238Y-106275238D01*
X151960476Y-106370476D01*
X152008095Y-106465714D01*
X155471905Y-101922381D02*
X155471905Y-100922381D01*
X155710000Y-100922381D01*
X155852858Y-100970000D01*
X155948096Y-101065238D01*
X155995715Y-101160476D01*
X156043334Y-101350952D01*
X156043334Y-101493810D01*
X155995715Y-101684286D01*
X155948096Y-101779524D01*
X155852858Y-101874762D01*
X155710000Y-101922381D01*
X155471905Y-101922381D01*
X156424286Y-101017619D02*
X156471905Y-100970000D01*
X156567143Y-100922381D01*
X156805239Y-100922381D01*
X156900477Y-100970000D01*
X156948096Y-101017619D01*
X156995715Y-101112857D01*
X156995715Y-101208095D01*
X156948096Y-101350952D01*
X156376667Y-101922381D01*
X156995715Y-101922381D01*
X155471905Y-112977381D02*
X155471905Y-111977381D01*
X155710000Y-111977381D01*
X155852858Y-112025000D01*
X155948096Y-112120238D01*
X155995715Y-112215476D01*
X156043334Y-112405952D01*
X156043334Y-112548810D01*
X155995715Y-112739286D01*
X155948096Y-112834524D01*
X155852858Y-112929762D01*
X155710000Y-112977381D01*
X155471905Y-112977381D01*
X156376667Y-111977381D02*
X156995715Y-111977381D01*
X156662381Y-112358333D01*
X156805239Y-112358333D01*
X156900477Y-112405952D01*
X156948096Y-112453571D01*
X156995715Y-112548810D01*
X156995715Y-112786905D01*
X156948096Y-112882143D01*
X156900477Y-112929762D01*
X156805239Y-112977381D01*
X156519524Y-112977381D01*
X156424286Y-112929762D01*
X156376667Y-112882143D01*
X161872381Y-107418095D02*
X160872381Y-107418095D01*
X160872381Y-107180000D01*
X160920000Y-107037142D01*
X161015238Y-106941904D01*
X161110476Y-106894285D01*
X161300952Y-106846666D01*
X161443810Y-106846666D01*
X161634286Y-106894285D01*
X161729524Y-106941904D01*
X161824762Y-107037142D01*
X161872381Y-107180000D01*
X161872381Y-107418095D01*
X161205714Y-105989523D02*
X161872381Y-105989523D01*
X160824762Y-106227619D02*
X161539048Y-106465714D01*
X161539048Y-105846666D01*
X135556667Y-120102381D02*
X135556667Y-120816667D01*
X135509047Y-120959524D01*
X135413809Y-121054762D01*
X135270952Y-121102381D01*
X135175714Y-121102381D01*
X136556667Y-121102381D02*
X135985238Y-121102381D01*
X136270952Y-121102381D02*
X136270952Y-120102381D01*
X136175714Y-120245238D01*
X136080476Y-120340476D01*
X135985238Y-120388095D01*
X158416667Y-120102381D02*
X158416667Y-120816667D01*
X158369047Y-120959524D01*
X158273809Y-121054762D01*
X158130952Y-121102381D01*
X158035714Y-121102381D01*
X158845238Y-120197619D02*
X158892857Y-120150000D01*
X158988095Y-120102381D01*
X159226191Y-120102381D01*
X159321429Y-120150000D01*
X159369048Y-120197619D01*
X159416667Y-120292857D01*
X159416667Y-120388095D01*
X159369048Y-120530952D01*
X158797619Y-121102381D01*
X159416667Y-121102381D01*
M02*
