G04 #@! TF.FileFunction,Copper,L2,Bot,Signal*
%FSLAX46Y46*%
G04 Gerber Fmt 4.6, Leading zero omitted, Abs format (unit mm)*
G04 Created by KiCad (PCBNEW 4.0.7) date Monday 10 September 2018 20:52:00*
%MOMM*%
%LPD*%
G01*
G04 APERTURE LIST*
%ADD10C,0.100000*%
%ADD11O,3.302000X2.286000*%
%ADD12C,2.200000*%
%ADD13O,4.000000X2.000000*%
%ADD14C,6.400000*%
%ADD15R,2.200000X2.200000*%
%ADD16O,2.200000X2.200000*%
%ADD17C,0.250000*%
%ADD18C,0.254000*%
G04 APERTURE END LIST*
D10*
D11*
X176530000Y-116662200D03*
X176530000Y-96697800D03*
D12*
X182880000Y-106680000D03*
X182880000Y-110490000D03*
X182880000Y-102870000D03*
X170180000Y-102870000D03*
X170180000Y-106680000D03*
X170180000Y-110490000D03*
D11*
X137160000Y-116662200D03*
X137160000Y-96697800D03*
D12*
X143510000Y-106680000D03*
X143510000Y-110490000D03*
X143510000Y-102870000D03*
X130810000Y-102870000D03*
X130810000Y-106680000D03*
X130810000Y-110490000D03*
D13*
X186055000Y-122055000D03*
X186055000Y-127855000D03*
X186055000Y-133155000D03*
D14*
X151765000Y-131445000D03*
X174625000Y-131445000D03*
X188595000Y-97155000D03*
D15*
X149860000Y-102870000D03*
D16*
X149860000Y-110490000D03*
D15*
X160020000Y-99060000D03*
D16*
X152400000Y-99060000D03*
D15*
X152400000Y-114935000D03*
D16*
X160020000Y-114935000D03*
D15*
X163830000Y-110490000D03*
D16*
X163830000Y-102870000D03*
D13*
X140335000Y-122055000D03*
X140335000Y-127855000D03*
X140335000Y-133155000D03*
X163195000Y-122055000D03*
X163195000Y-127855000D03*
X163195000Y-133155000D03*
D14*
X125095000Y-97155000D03*
D17*
X152400000Y-114935000D02*
X152400000Y-116840000D01*
X162560000Y-118110000D02*
X170180000Y-110490000D01*
X153670000Y-118110000D02*
X162560000Y-118110000D01*
X152400000Y-116840000D02*
X153670000Y-118110000D01*
X152400000Y-114935000D02*
X152400000Y-113030000D01*
X152400000Y-113030000D02*
X149860000Y-110490000D01*
X140335000Y-133155000D02*
X143070000Y-131885000D01*
X145415000Y-108585000D02*
X143510000Y-106680000D01*
X145415000Y-129540000D02*
X145415000Y-108585000D01*
X143070000Y-131885000D02*
X145415000Y-129540000D01*
X186055000Y-133155000D02*
X185860000Y-133155000D01*
X185860000Y-133155000D02*
X179705000Y-125730000D01*
X179705000Y-114935000D02*
X182880000Y-111760000D01*
X179705000Y-125730000D02*
X179705000Y-114935000D01*
D18*
G36*
X185345741Y-94979811D02*
X184760667Y-96388825D01*
X184759336Y-97914482D01*
X185341950Y-99324515D01*
X186419811Y-100404259D01*
X187828825Y-100989333D01*
X189354482Y-100990664D01*
X190764515Y-100408050D01*
X191695000Y-99479188D01*
X191695000Y-134545000D01*
X187889470Y-134545000D01*
X188300922Y-134221317D01*
X188614144Y-133663355D01*
X188645124Y-133535434D01*
X188525777Y-133282000D01*
X186182000Y-133282000D01*
X186182000Y-133302000D01*
X185928000Y-133302000D01*
X185928000Y-133282000D01*
X183584223Y-133282000D01*
X183464876Y-133535434D01*
X183495856Y-133663355D01*
X183809078Y-134221317D01*
X184220530Y-134545000D01*
X176947832Y-134545000D01*
X177874259Y-133620189D01*
X178225392Y-132774566D01*
X183464876Y-132774566D01*
X183584223Y-133028000D01*
X185928000Y-133028000D01*
X185928000Y-131520000D01*
X186182000Y-131520000D01*
X186182000Y-133028000D01*
X188525777Y-133028000D01*
X188645124Y-132774566D01*
X188614144Y-132646645D01*
X188300922Y-132088683D01*
X187798020Y-131693058D01*
X187182000Y-131520000D01*
X186182000Y-131520000D01*
X185928000Y-131520000D01*
X184928000Y-131520000D01*
X184311980Y-131693058D01*
X183809078Y-132088683D01*
X183495856Y-132646645D01*
X183464876Y-132774566D01*
X178225392Y-132774566D01*
X178459333Y-132211175D01*
X178460664Y-130685518D01*
X177878050Y-129275485D01*
X176800189Y-128195741D01*
X175979594Y-127855000D01*
X183368377Y-127855000D01*
X183492834Y-128480687D01*
X183847257Y-129011120D01*
X184377690Y-129365543D01*
X185003377Y-129490000D01*
X187106623Y-129490000D01*
X187732310Y-129365543D01*
X188262743Y-129011120D01*
X188617166Y-128480687D01*
X188741623Y-127855000D01*
X188617166Y-127229313D01*
X188262743Y-126698880D01*
X187732310Y-126344457D01*
X187106623Y-126220000D01*
X185003377Y-126220000D01*
X184377690Y-126344457D01*
X183847257Y-126698880D01*
X183492834Y-127229313D01*
X183368377Y-127855000D01*
X175979594Y-127855000D01*
X175391175Y-127610667D01*
X173865518Y-127609336D01*
X172455485Y-128191950D01*
X171375741Y-129269811D01*
X170790667Y-130678825D01*
X170789336Y-132204482D01*
X171371950Y-133614515D01*
X172300812Y-134545000D01*
X165052716Y-134545000D01*
X165402743Y-134311120D01*
X165757166Y-133780687D01*
X165881623Y-133155000D01*
X165757166Y-132529313D01*
X165402743Y-131998880D01*
X164872310Y-131644457D01*
X164246623Y-131520000D01*
X162143377Y-131520000D01*
X161517690Y-131644457D01*
X160987257Y-131998880D01*
X160632834Y-132529313D01*
X160508377Y-133155000D01*
X160632834Y-133780687D01*
X160987257Y-134311120D01*
X161337284Y-134545000D01*
X154087832Y-134545000D01*
X155014259Y-133620189D01*
X155599333Y-132211175D01*
X155600664Y-130685518D01*
X155018050Y-129275485D01*
X153940189Y-128195741D01*
X153119594Y-127855000D01*
X160508377Y-127855000D01*
X160632834Y-128480687D01*
X160987257Y-129011120D01*
X161517690Y-129365543D01*
X162143377Y-129490000D01*
X164246623Y-129490000D01*
X164872310Y-129365543D01*
X165402743Y-129011120D01*
X165757166Y-128480687D01*
X165881623Y-127855000D01*
X165757166Y-127229313D01*
X165402743Y-126698880D01*
X164872310Y-126344457D01*
X164246623Y-126220000D01*
X162143377Y-126220000D01*
X161517690Y-126344457D01*
X160987257Y-126698880D01*
X160632834Y-127229313D01*
X160508377Y-127855000D01*
X153119594Y-127855000D01*
X152531175Y-127610667D01*
X151005518Y-127609336D01*
X149595485Y-128191950D01*
X148515741Y-129269811D01*
X147930667Y-130678825D01*
X147929336Y-132204482D01*
X148511950Y-133614515D01*
X149440812Y-134545000D01*
X142192716Y-134545000D01*
X142542743Y-134311120D01*
X142897166Y-133780687D01*
X143021623Y-133155000D01*
X142947038Y-132780038D01*
X143390082Y-132574310D01*
X143497156Y-132496064D01*
X143607401Y-132422401D01*
X145952401Y-130077401D01*
X146117148Y-129830839D01*
X146175000Y-129540000D01*
X146175000Y-122055000D01*
X160508377Y-122055000D01*
X160632834Y-122680687D01*
X160987257Y-123211120D01*
X161517690Y-123565543D01*
X162143377Y-123690000D01*
X164246623Y-123690000D01*
X164872310Y-123565543D01*
X165402743Y-123211120D01*
X165757166Y-122680687D01*
X165881623Y-122055000D01*
X183368377Y-122055000D01*
X183492834Y-122680687D01*
X183847257Y-123211120D01*
X184377690Y-123565543D01*
X185003377Y-123690000D01*
X187106623Y-123690000D01*
X187732310Y-123565543D01*
X188262743Y-123211120D01*
X188617166Y-122680687D01*
X188741623Y-122055000D01*
X188617166Y-121429313D01*
X188262743Y-120898880D01*
X187732310Y-120544457D01*
X187106623Y-120420000D01*
X185003377Y-120420000D01*
X184377690Y-120544457D01*
X183847257Y-120898880D01*
X183492834Y-121429313D01*
X183368377Y-122055000D01*
X165881623Y-122055000D01*
X165757166Y-121429313D01*
X165402743Y-120898880D01*
X164872310Y-120544457D01*
X164246623Y-120420000D01*
X162143377Y-120420000D01*
X161517690Y-120544457D01*
X160987257Y-120898880D01*
X160632834Y-121429313D01*
X160508377Y-122055000D01*
X146175000Y-122055000D01*
X146175000Y-110456009D01*
X148125000Y-110456009D01*
X148125000Y-110523991D01*
X148257069Y-111187947D01*
X148633170Y-111750821D01*
X149196044Y-112126922D01*
X149860000Y-112258991D01*
X150439016Y-112143818D01*
X151482758Y-113187560D01*
X151300000Y-113187560D01*
X151064683Y-113231838D01*
X150848559Y-113370910D01*
X150703569Y-113583110D01*
X150652560Y-113835000D01*
X150652560Y-116035000D01*
X150696838Y-116270317D01*
X150835910Y-116486441D01*
X151048110Y-116631431D01*
X151300000Y-116682440D01*
X151640000Y-116682440D01*
X151640000Y-116840000D01*
X151697852Y-117130839D01*
X151862599Y-117377401D01*
X153132599Y-118647401D01*
X153379160Y-118812148D01*
X153670000Y-118870000D01*
X162560000Y-118870000D01*
X162850839Y-118812148D01*
X163097401Y-118647401D01*
X165082602Y-116662200D01*
X174199215Y-116662200D01*
X174334557Y-117342611D01*
X174719979Y-117919436D01*
X175296804Y-118304858D01*
X175977215Y-118440200D01*
X177082785Y-118440200D01*
X177763196Y-118304858D01*
X178340021Y-117919436D01*
X178725443Y-117342611D01*
X178860785Y-116662200D01*
X178725443Y-115981789D01*
X178340021Y-115404964D01*
X177763196Y-115019542D01*
X177082785Y-114884200D01*
X175977215Y-114884200D01*
X175296804Y-115019542D01*
X174719979Y-115404964D01*
X174334557Y-115981789D01*
X174199215Y-116662200D01*
X165082602Y-116662200D01*
X169612018Y-112132784D01*
X169833373Y-112224699D01*
X170523599Y-112225301D01*
X171161515Y-111961719D01*
X171408797Y-111714868D01*
X181834737Y-111714868D01*
X181945641Y-111992099D01*
X182591593Y-112235323D01*
X183281453Y-112212836D01*
X183814359Y-111992099D01*
X183925263Y-111714868D01*
X182880000Y-110669605D01*
X181834737Y-111714868D01*
X171408797Y-111714868D01*
X171650004Y-111474082D01*
X171914699Y-110836627D01*
X171915252Y-110201593D01*
X181134677Y-110201593D01*
X181157164Y-110891453D01*
X181377901Y-111424359D01*
X181655132Y-111535263D01*
X182700395Y-110490000D01*
X183059605Y-110490000D01*
X184104868Y-111535263D01*
X184382099Y-111424359D01*
X184625323Y-110778407D01*
X184602836Y-110088547D01*
X184382099Y-109555641D01*
X184104868Y-109444737D01*
X183059605Y-110490000D01*
X182700395Y-110490000D01*
X181655132Y-109444737D01*
X181377901Y-109555641D01*
X181134677Y-110201593D01*
X171915252Y-110201593D01*
X171915301Y-110146401D01*
X171651719Y-109508485D01*
X171408791Y-109265132D01*
X181834737Y-109265132D01*
X182880000Y-110310395D01*
X183925263Y-109265132D01*
X183814359Y-108987901D01*
X183168407Y-108744677D01*
X182478547Y-108767164D01*
X181945641Y-108987901D01*
X181834737Y-109265132D01*
X171408791Y-109265132D01*
X171164082Y-109019996D01*
X170526627Y-108755301D01*
X169836401Y-108754699D01*
X169198485Y-109018281D01*
X168709996Y-109505918D01*
X168445301Y-110143373D01*
X168444699Y-110833599D01*
X168537355Y-111057843D01*
X162245198Y-117350000D01*
X153984802Y-117350000D01*
X153317242Y-116682440D01*
X153500000Y-116682440D01*
X153735317Y-116638162D01*
X153951441Y-116499090D01*
X154096431Y-116286890D01*
X154147440Y-116035000D01*
X154147440Y-114935000D01*
X158251009Y-114935000D01*
X158383078Y-115598956D01*
X158759179Y-116161830D01*
X159322053Y-116537931D01*
X159986009Y-116670000D01*
X160053991Y-116670000D01*
X160717947Y-116537931D01*
X161280821Y-116161830D01*
X161656922Y-115598956D01*
X161788991Y-114935000D01*
X161656922Y-114271044D01*
X161280821Y-113708170D01*
X160717947Y-113332069D01*
X160053991Y-113200000D01*
X159986009Y-113200000D01*
X159322053Y-113332069D01*
X158759179Y-113708170D01*
X158383078Y-114271044D01*
X158251009Y-114935000D01*
X154147440Y-114935000D01*
X154147440Y-113835000D01*
X154103162Y-113599683D01*
X153964090Y-113383559D01*
X153751890Y-113238569D01*
X153500000Y-113187560D01*
X153160000Y-113187560D01*
X153160000Y-113030000D01*
X153102148Y-112739161D01*
X153102148Y-112739160D01*
X152937401Y-112492599D01*
X151491106Y-111046304D01*
X151595000Y-110523991D01*
X151595000Y-110456009D01*
X151462931Y-109792053D01*
X151194288Y-109390000D01*
X162082560Y-109390000D01*
X162082560Y-111590000D01*
X162126838Y-111825317D01*
X162265910Y-112041441D01*
X162478110Y-112186431D01*
X162730000Y-112237440D01*
X164930000Y-112237440D01*
X165165317Y-112193162D01*
X165381441Y-112054090D01*
X165526431Y-111841890D01*
X165577440Y-111590000D01*
X165577440Y-109390000D01*
X165533162Y-109154683D01*
X165394090Y-108938559D01*
X165181890Y-108793569D01*
X164930000Y-108742560D01*
X162730000Y-108742560D01*
X162494683Y-108786838D01*
X162278559Y-108925910D01*
X162133569Y-109138110D01*
X162082560Y-109390000D01*
X151194288Y-109390000D01*
X151086830Y-109229179D01*
X150523956Y-108853078D01*
X149860000Y-108721009D01*
X149196044Y-108853078D01*
X148633170Y-109229179D01*
X148257069Y-109792053D01*
X148125000Y-110456009D01*
X146175000Y-110456009D01*
X146175000Y-108585000D01*
X146117148Y-108294161D01*
X145952401Y-108047599D01*
X145152784Y-107247982D01*
X145244699Y-107026627D01*
X145244701Y-107023599D01*
X168444699Y-107023599D01*
X168708281Y-107661515D01*
X169195918Y-108150004D01*
X169833373Y-108414699D01*
X170523599Y-108415301D01*
X171161515Y-108151719D01*
X171650004Y-107664082D01*
X171914699Y-107026627D01*
X171914701Y-107023599D01*
X181144699Y-107023599D01*
X181408281Y-107661515D01*
X181895918Y-108150004D01*
X182533373Y-108414699D01*
X183223599Y-108415301D01*
X183861515Y-108151719D01*
X184350004Y-107664082D01*
X184614699Y-107026627D01*
X184615301Y-106336401D01*
X184351719Y-105698485D01*
X183864082Y-105209996D01*
X183226627Y-104945301D01*
X182536401Y-104944699D01*
X181898485Y-105208281D01*
X181409996Y-105695918D01*
X181145301Y-106333373D01*
X181144699Y-107023599D01*
X171914701Y-107023599D01*
X171915301Y-106336401D01*
X171651719Y-105698485D01*
X171164082Y-105209996D01*
X170526627Y-104945301D01*
X169836401Y-104944699D01*
X169198485Y-105208281D01*
X168709996Y-105695918D01*
X168445301Y-106333373D01*
X168444699Y-107023599D01*
X145244701Y-107023599D01*
X145245301Y-106336401D01*
X144981719Y-105698485D01*
X144494082Y-105209996D01*
X143856627Y-104945301D01*
X143166401Y-104944699D01*
X142528485Y-105208281D01*
X142039996Y-105695918D01*
X141775301Y-106333373D01*
X141774699Y-107023599D01*
X142038281Y-107661515D01*
X142525918Y-108150004D01*
X143163373Y-108414699D01*
X143853599Y-108415301D01*
X144077843Y-108322645D01*
X144655000Y-108899802D01*
X144655000Y-109181195D01*
X144494082Y-109019996D01*
X143856627Y-108755301D01*
X143166401Y-108754699D01*
X142528485Y-109018281D01*
X142039996Y-109505918D01*
X141775301Y-110143373D01*
X141774699Y-110833599D01*
X142038281Y-111471515D01*
X142525918Y-111960004D01*
X143163373Y-112224699D01*
X143853599Y-112225301D01*
X144491515Y-111961719D01*
X144655000Y-111798519D01*
X144655000Y-129225198D01*
X142627804Y-131252394D01*
X141852105Y-131612590D01*
X141386623Y-131520000D01*
X139283377Y-131520000D01*
X138657690Y-131644457D01*
X138127257Y-131998880D01*
X137772834Y-132529313D01*
X137648377Y-133155000D01*
X137772834Y-133780687D01*
X138127257Y-134311120D01*
X138477284Y-134545000D01*
X121995000Y-134545000D01*
X121995000Y-127855000D01*
X137648377Y-127855000D01*
X137772834Y-128480687D01*
X138127257Y-129011120D01*
X138657690Y-129365543D01*
X139283377Y-129490000D01*
X141386623Y-129490000D01*
X142012310Y-129365543D01*
X142542743Y-129011120D01*
X142897166Y-128480687D01*
X143021623Y-127855000D01*
X142897166Y-127229313D01*
X142542743Y-126698880D01*
X142012310Y-126344457D01*
X141386623Y-126220000D01*
X139283377Y-126220000D01*
X138657690Y-126344457D01*
X138127257Y-126698880D01*
X137772834Y-127229313D01*
X137648377Y-127855000D01*
X121995000Y-127855000D01*
X121995000Y-122055000D01*
X137648377Y-122055000D01*
X137772834Y-122680687D01*
X138127257Y-123211120D01*
X138657690Y-123565543D01*
X139283377Y-123690000D01*
X141386623Y-123690000D01*
X142012310Y-123565543D01*
X142542743Y-123211120D01*
X142897166Y-122680687D01*
X143021623Y-122055000D01*
X142897166Y-121429313D01*
X142542743Y-120898880D01*
X142012310Y-120544457D01*
X141386623Y-120420000D01*
X139283377Y-120420000D01*
X138657690Y-120544457D01*
X138127257Y-120898880D01*
X137772834Y-121429313D01*
X137648377Y-122055000D01*
X121995000Y-122055000D01*
X121995000Y-116662200D01*
X134829215Y-116662200D01*
X134964557Y-117342611D01*
X135349979Y-117919436D01*
X135926804Y-118304858D01*
X136607215Y-118440200D01*
X137712785Y-118440200D01*
X138393196Y-118304858D01*
X138970021Y-117919436D01*
X139355443Y-117342611D01*
X139490785Y-116662200D01*
X139355443Y-115981789D01*
X138970021Y-115404964D01*
X138393196Y-115019542D01*
X137712785Y-114884200D01*
X136607215Y-114884200D01*
X135926804Y-115019542D01*
X135349979Y-115404964D01*
X134964557Y-115981789D01*
X134829215Y-116662200D01*
X121995000Y-116662200D01*
X121995000Y-110833599D01*
X129074699Y-110833599D01*
X129338281Y-111471515D01*
X129825918Y-111960004D01*
X130463373Y-112224699D01*
X131153599Y-112225301D01*
X131791515Y-111961719D01*
X132280004Y-111474082D01*
X132544699Y-110836627D01*
X132545301Y-110146401D01*
X132281719Y-109508485D01*
X131794082Y-109019996D01*
X131156627Y-108755301D01*
X130466401Y-108754699D01*
X129828485Y-109018281D01*
X129339996Y-109505918D01*
X129075301Y-110143373D01*
X129074699Y-110833599D01*
X121995000Y-110833599D01*
X121995000Y-107023599D01*
X129074699Y-107023599D01*
X129338281Y-107661515D01*
X129825918Y-108150004D01*
X130463373Y-108414699D01*
X131153599Y-108415301D01*
X131791515Y-108151719D01*
X132280004Y-107664082D01*
X132544699Y-107026627D01*
X132545301Y-106336401D01*
X132281719Y-105698485D01*
X131794082Y-105209996D01*
X131156627Y-104945301D01*
X130466401Y-104944699D01*
X129828485Y-105208281D01*
X129339996Y-105695918D01*
X129075301Y-106333373D01*
X129074699Y-107023599D01*
X121995000Y-107023599D01*
X121995000Y-103213599D01*
X129074699Y-103213599D01*
X129338281Y-103851515D01*
X129825918Y-104340004D01*
X130463373Y-104604699D01*
X131153599Y-104605301D01*
X131791515Y-104341719D01*
X132280004Y-103854082D01*
X132544699Y-103216627D01*
X132544701Y-103213599D01*
X141774699Y-103213599D01*
X142038281Y-103851515D01*
X142525918Y-104340004D01*
X143163373Y-104604699D01*
X143853599Y-104605301D01*
X144491515Y-104341719D01*
X144980004Y-103854082D01*
X145244699Y-103216627D01*
X145245301Y-102526401D01*
X144981719Y-101888485D01*
X144863441Y-101770000D01*
X148112560Y-101770000D01*
X148112560Y-103970000D01*
X148156838Y-104205317D01*
X148295910Y-104421441D01*
X148508110Y-104566431D01*
X148760000Y-104617440D01*
X150960000Y-104617440D01*
X151195317Y-104573162D01*
X151411441Y-104434090D01*
X151556431Y-104221890D01*
X151607440Y-103970000D01*
X151607440Y-102836009D01*
X162095000Y-102836009D01*
X162095000Y-102903991D01*
X162227069Y-103567947D01*
X162603170Y-104130821D01*
X163166044Y-104506922D01*
X163830000Y-104638991D01*
X164493956Y-104506922D01*
X165056830Y-104130821D01*
X165432931Y-103567947D01*
X165503415Y-103213599D01*
X168444699Y-103213599D01*
X168708281Y-103851515D01*
X169195918Y-104340004D01*
X169833373Y-104604699D01*
X170523599Y-104605301D01*
X171161515Y-104341719D01*
X171650004Y-103854082D01*
X171914699Y-103216627D01*
X171914701Y-103213599D01*
X181144699Y-103213599D01*
X181408281Y-103851515D01*
X181895918Y-104340004D01*
X182533373Y-104604699D01*
X183223599Y-104605301D01*
X183861515Y-104341719D01*
X184350004Y-103854082D01*
X184614699Y-103216627D01*
X184615301Y-102526401D01*
X184351719Y-101888485D01*
X183864082Y-101399996D01*
X183226627Y-101135301D01*
X182536401Y-101134699D01*
X181898485Y-101398281D01*
X181409996Y-101885918D01*
X181145301Y-102523373D01*
X181144699Y-103213599D01*
X171914701Y-103213599D01*
X171915301Y-102526401D01*
X171651719Y-101888485D01*
X171164082Y-101399996D01*
X170526627Y-101135301D01*
X169836401Y-101134699D01*
X169198485Y-101398281D01*
X168709996Y-101885918D01*
X168445301Y-102523373D01*
X168444699Y-103213599D01*
X165503415Y-103213599D01*
X165565000Y-102903991D01*
X165565000Y-102836009D01*
X165432931Y-102172053D01*
X165056830Y-101609179D01*
X164493956Y-101233078D01*
X163830000Y-101101009D01*
X163166044Y-101233078D01*
X162603170Y-101609179D01*
X162227069Y-102172053D01*
X162095000Y-102836009D01*
X151607440Y-102836009D01*
X151607440Y-101770000D01*
X151563162Y-101534683D01*
X151424090Y-101318559D01*
X151211890Y-101173569D01*
X150960000Y-101122560D01*
X148760000Y-101122560D01*
X148524683Y-101166838D01*
X148308559Y-101305910D01*
X148163569Y-101518110D01*
X148112560Y-101770000D01*
X144863441Y-101770000D01*
X144494082Y-101399996D01*
X143856627Y-101135301D01*
X143166401Y-101134699D01*
X142528485Y-101398281D01*
X142039996Y-101885918D01*
X141775301Y-102523373D01*
X141774699Y-103213599D01*
X132544701Y-103213599D01*
X132545301Y-102526401D01*
X132281719Y-101888485D01*
X131794082Y-101399996D01*
X131156627Y-101135301D01*
X130466401Y-101134699D01*
X129828485Y-101398281D01*
X129339996Y-101885918D01*
X129075301Y-102523373D01*
X129074699Y-103213599D01*
X121995000Y-103213599D01*
X121995000Y-99477832D01*
X122919811Y-100404259D01*
X124328825Y-100989333D01*
X125854482Y-100990664D01*
X127264515Y-100408050D01*
X128344259Y-99330189D01*
X128456451Y-99060000D01*
X150631009Y-99060000D01*
X150763078Y-99723956D01*
X151139179Y-100286830D01*
X151702053Y-100662931D01*
X152366009Y-100795000D01*
X152433991Y-100795000D01*
X153097947Y-100662931D01*
X153660821Y-100286830D01*
X154036922Y-99723956D01*
X154168991Y-99060000D01*
X154036922Y-98396044D01*
X153745567Y-97960000D01*
X158272560Y-97960000D01*
X158272560Y-100160000D01*
X158316838Y-100395317D01*
X158455910Y-100611441D01*
X158668110Y-100756431D01*
X158920000Y-100807440D01*
X161120000Y-100807440D01*
X161355317Y-100763162D01*
X161571441Y-100624090D01*
X161716431Y-100411890D01*
X161767440Y-100160000D01*
X161767440Y-97960000D01*
X161723162Y-97724683D01*
X161584090Y-97508559D01*
X161371890Y-97363569D01*
X161120000Y-97312560D01*
X158920000Y-97312560D01*
X158684683Y-97356838D01*
X158468559Y-97495910D01*
X158323569Y-97708110D01*
X158272560Y-97960000D01*
X153745567Y-97960000D01*
X153660821Y-97833170D01*
X153097947Y-97457069D01*
X152433991Y-97325000D01*
X152366009Y-97325000D01*
X151702053Y-97457069D01*
X151139179Y-97833170D01*
X150763078Y-98396044D01*
X150631009Y-99060000D01*
X128456451Y-99060000D01*
X128929333Y-97921175D01*
X128930400Y-96697800D01*
X134829215Y-96697800D01*
X134964557Y-97378211D01*
X135349979Y-97955036D01*
X135926804Y-98340458D01*
X136607215Y-98475800D01*
X137712785Y-98475800D01*
X138393196Y-98340458D01*
X138970021Y-97955036D01*
X139355443Y-97378211D01*
X139490785Y-96697800D01*
X174199215Y-96697800D01*
X174334557Y-97378211D01*
X174719979Y-97955036D01*
X175296804Y-98340458D01*
X175977215Y-98475800D01*
X177082785Y-98475800D01*
X177763196Y-98340458D01*
X178340021Y-97955036D01*
X178725443Y-97378211D01*
X178860785Y-96697800D01*
X178725443Y-96017389D01*
X178340021Y-95440564D01*
X177763196Y-95055142D01*
X177082785Y-94919800D01*
X175977215Y-94919800D01*
X175296804Y-95055142D01*
X174719979Y-95440564D01*
X174334557Y-96017389D01*
X174199215Y-96697800D01*
X139490785Y-96697800D01*
X139355443Y-96017389D01*
X138970021Y-95440564D01*
X138393196Y-95055142D01*
X137712785Y-94919800D01*
X136607215Y-94919800D01*
X135926804Y-95055142D01*
X135349979Y-95440564D01*
X134964557Y-96017389D01*
X134829215Y-96697800D01*
X128930400Y-96697800D01*
X128930664Y-96395518D01*
X128348050Y-94985485D01*
X127419188Y-94055000D01*
X186272168Y-94055000D01*
X185345741Y-94979811D01*
X185345741Y-94979811D01*
G37*
X185345741Y-94979811D02*
X184760667Y-96388825D01*
X184759336Y-97914482D01*
X185341950Y-99324515D01*
X186419811Y-100404259D01*
X187828825Y-100989333D01*
X189354482Y-100990664D01*
X190764515Y-100408050D01*
X191695000Y-99479188D01*
X191695000Y-134545000D01*
X187889470Y-134545000D01*
X188300922Y-134221317D01*
X188614144Y-133663355D01*
X188645124Y-133535434D01*
X188525777Y-133282000D01*
X186182000Y-133282000D01*
X186182000Y-133302000D01*
X185928000Y-133302000D01*
X185928000Y-133282000D01*
X183584223Y-133282000D01*
X183464876Y-133535434D01*
X183495856Y-133663355D01*
X183809078Y-134221317D01*
X184220530Y-134545000D01*
X176947832Y-134545000D01*
X177874259Y-133620189D01*
X178225392Y-132774566D01*
X183464876Y-132774566D01*
X183584223Y-133028000D01*
X185928000Y-133028000D01*
X185928000Y-131520000D01*
X186182000Y-131520000D01*
X186182000Y-133028000D01*
X188525777Y-133028000D01*
X188645124Y-132774566D01*
X188614144Y-132646645D01*
X188300922Y-132088683D01*
X187798020Y-131693058D01*
X187182000Y-131520000D01*
X186182000Y-131520000D01*
X185928000Y-131520000D01*
X184928000Y-131520000D01*
X184311980Y-131693058D01*
X183809078Y-132088683D01*
X183495856Y-132646645D01*
X183464876Y-132774566D01*
X178225392Y-132774566D01*
X178459333Y-132211175D01*
X178460664Y-130685518D01*
X177878050Y-129275485D01*
X176800189Y-128195741D01*
X175979594Y-127855000D01*
X183368377Y-127855000D01*
X183492834Y-128480687D01*
X183847257Y-129011120D01*
X184377690Y-129365543D01*
X185003377Y-129490000D01*
X187106623Y-129490000D01*
X187732310Y-129365543D01*
X188262743Y-129011120D01*
X188617166Y-128480687D01*
X188741623Y-127855000D01*
X188617166Y-127229313D01*
X188262743Y-126698880D01*
X187732310Y-126344457D01*
X187106623Y-126220000D01*
X185003377Y-126220000D01*
X184377690Y-126344457D01*
X183847257Y-126698880D01*
X183492834Y-127229313D01*
X183368377Y-127855000D01*
X175979594Y-127855000D01*
X175391175Y-127610667D01*
X173865518Y-127609336D01*
X172455485Y-128191950D01*
X171375741Y-129269811D01*
X170790667Y-130678825D01*
X170789336Y-132204482D01*
X171371950Y-133614515D01*
X172300812Y-134545000D01*
X165052716Y-134545000D01*
X165402743Y-134311120D01*
X165757166Y-133780687D01*
X165881623Y-133155000D01*
X165757166Y-132529313D01*
X165402743Y-131998880D01*
X164872310Y-131644457D01*
X164246623Y-131520000D01*
X162143377Y-131520000D01*
X161517690Y-131644457D01*
X160987257Y-131998880D01*
X160632834Y-132529313D01*
X160508377Y-133155000D01*
X160632834Y-133780687D01*
X160987257Y-134311120D01*
X161337284Y-134545000D01*
X154087832Y-134545000D01*
X155014259Y-133620189D01*
X155599333Y-132211175D01*
X155600664Y-130685518D01*
X155018050Y-129275485D01*
X153940189Y-128195741D01*
X153119594Y-127855000D01*
X160508377Y-127855000D01*
X160632834Y-128480687D01*
X160987257Y-129011120D01*
X161517690Y-129365543D01*
X162143377Y-129490000D01*
X164246623Y-129490000D01*
X164872310Y-129365543D01*
X165402743Y-129011120D01*
X165757166Y-128480687D01*
X165881623Y-127855000D01*
X165757166Y-127229313D01*
X165402743Y-126698880D01*
X164872310Y-126344457D01*
X164246623Y-126220000D01*
X162143377Y-126220000D01*
X161517690Y-126344457D01*
X160987257Y-126698880D01*
X160632834Y-127229313D01*
X160508377Y-127855000D01*
X153119594Y-127855000D01*
X152531175Y-127610667D01*
X151005518Y-127609336D01*
X149595485Y-128191950D01*
X148515741Y-129269811D01*
X147930667Y-130678825D01*
X147929336Y-132204482D01*
X148511950Y-133614515D01*
X149440812Y-134545000D01*
X142192716Y-134545000D01*
X142542743Y-134311120D01*
X142897166Y-133780687D01*
X143021623Y-133155000D01*
X142947038Y-132780038D01*
X143390082Y-132574310D01*
X143497156Y-132496064D01*
X143607401Y-132422401D01*
X145952401Y-130077401D01*
X146117148Y-129830839D01*
X146175000Y-129540000D01*
X146175000Y-122055000D01*
X160508377Y-122055000D01*
X160632834Y-122680687D01*
X160987257Y-123211120D01*
X161517690Y-123565543D01*
X162143377Y-123690000D01*
X164246623Y-123690000D01*
X164872310Y-123565543D01*
X165402743Y-123211120D01*
X165757166Y-122680687D01*
X165881623Y-122055000D01*
X183368377Y-122055000D01*
X183492834Y-122680687D01*
X183847257Y-123211120D01*
X184377690Y-123565543D01*
X185003377Y-123690000D01*
X187106623Y-123690000D01*
X187732310Y-123565543D01*
X188262743Y-123211120D01*
X188617166Y-122680687D01*
X188741623Y-122055000D01*
X188617166Y-121429313D01*
X188262743Y-120898880D01*
X187732310Y-120544457D01*
X187106623Y-120420000D01*
X185003377Y-120420000D01*
X184377690Y-120544457D01*
X183847257Y-120898880D01*
X183492834Y-121429313D01*
X183368377Y-122055000D01*
X165881623Y-122055000D01*
X165757166Y-121429313D01*
X165402743Y-120898880D01*
X164872310Y-120544457D01*
X164246623Y-120420000D01*
X162143377Y-120420000D01*
X161517690Y-120544457D01*
X160987257Y-120898880D01*
X160632834Y-121429313D01*
X160508377Y-122055000D01*
X146175000Y-122055000D01*
X146175000Y-110456009D01*
X148125000Y-110456009D01*
X148125000Y-110523991D01*
X148257069Y-111187947D01*
X148633170Y-111750821D01*
X149196044Y-112126922D01*
X149860000Y-112258991D01*
X150439016Y-112143818D01*
X151482758Y-113187560D01*
X151300000Y-113187560D01*
X151064683Y-113231838D01*
X150848559Y-113370910D01*
X150703569Y-113583110D01*
X150652560Y-113835000D01*
X150652560Y-116035000D01*
X150696838Y-116270317D01*
X150835910Y-116486441D01*
X151048110Y-116631431D01*
X151300000Y-116682440D01*
X151640000Y-116682440D01*
X151640000Y-116840000D01*
X151697852Y-117130839D01*
X151862599Y-117377401D01*
X153132599Y-118647401D01*
X153379160Y-118812148D01*
X153670000Y-118870000D01*
X162560000Y-118870000D01*
X162850839Y-118812148D01*
X163097401Y-118647401D01*
X165082602Y-116662200D01*
X174199215Y-116662200D01*
X174334557Y-117342611D01*
X174719979Y-117919436D01*
X175296804Y-118304858D01*
X175977215Y-118440200D01*
X177082785Y-118440200D01*
X177763196Y-118304858D01*
X178340021Y-117919436D01*
X178725443Y-117342611D01*
X178860785Y-116662200D01*
X178725443Y-115981789D01*
X178340021Y-115404964D01*
X177763196Y-115019542D01*
X177082785Y-114884200D01*
X175977215Y-114884200D01*
X175296804Y-115019542D01*
X174719979Y-115404964D01*
X174334557Y-115981789D01*
X174199215Y-116662200D01*
X165082602Y-116662200D01*
X169612018Y-112132784D01*
X169833373Y-112224699D01*
X170523599Y-112225301D01*
X171161515Y-111961719D01*
X171408797Y-111714868D01*
X181834737Y-111714868D01*
X181945641Y-111992099D01*
X182591593Y-112235323D01*
X183281453Y-112212836D01*
X183814359Y-111992099D01*
X183925263Y-111714868D01*
X182880000Y-110669605D01*
X181834737Y-111714868D01*
X171408797Y-111714868D01*
X171650004Y-111474082D01*
X171914699Y-110836627D01*
X171915252Y-110201593D01*
X181134677Y-110201593D01*
X181157164Y-110891453D01*
X181377901Y-111424359D01*
X181655132Y-111535263D01*
X182700395Y-110490000D01*
X183059605Y-110490000D01*
X184104868Y-111535263D01*
X184382099Y-111424359D01*
X184625323Y-110778407D01*
X184602836Y-110088547D01*
X184382099Y-109555641D01*
X184104868Y-109444737D01*
X183059605Y-110490000D01*
X182700395Y-110490000D01*
X181655132Y-109444737D01*
X181377901Y-109555641D01*
X181134677Y-110201593D01*
X171915252Y-110201593D01*
X171915301Y-110146401D01*
X171651719Y-109508485D01*
X171408791Y-109265132D01*
X181834737Y-109265132D01*
X182880000Y-110310395D01*
X183925263Y-109265132D01*
X183814359Y-108987901D01*
X183168407Y-108744677D01*
X182478547Y-108767164D01*
X181945641Y-108987901D01*
X181834737Y-109265132D01*
X171408791Y-109265132D01*
X171164082Y-109019996D01*
X170526627Y-108755301D01*
X169836401Y-108754699D01*
X169198485Y-109018281D01*
X168709996Y-109505918D01*
X168445301Y-110143373D01*
X168444699Y-110833599D01*
X168537355Y-111057843D01*
X162245198Y-117350000D01*
X153984802Y-117350000D01*
X153317242Y-116682440D01*
X153500000Y-116682440D01*
X153735317Y-116638162D01*
X153951441Y-116499090D01*
X154096431Y-116286890D01*
X154147440Y-116035000D01*
X154147440Y-114935000D01*
X158251009Y-114935000D01*
X158383078Y-115598956D01*
X158759179Y-116161830D01*
X159322053Y-116537931D01*
X159986009Y-116670000D01*
X160053991Y-116670000D01*
X160717947Y-116537931D01*
X161280821Y-116161830D01*
X161656922Y-115598956D01*
X161788991Y-114935000D01*
X161656922Y-114271044D01*
X161280821Y-113708170D01*
X160717947Y-113332069D01*
X160053991Y-113200000D01*
X159986009Y-113200000D01*
X159322053Y-113332069D01*
X158759179Y-113708170D01*
X158383078Y-114271044D01*
X158251009Y-114935000D01*
X154147440Y-114935000D01*
X154147440Y-113835000D01*
X154103162Y-113599683D01*
X153964090Y-113383559D01*
X153751890Y-113238569D01*
X153500000Y-113187560D01*
X153160000Y-113187560D01*
X153160000Y-113030000D01*
X153102148Y-112739161D01*
X153102148Y-112739160D01*
X152937401Y-112492599D01*
X151491106Y-111046304D01*
X151595000Y-110523991D01*
X151595000Y-110456009D01*
X151462931Y-109792053D01*
X151194288Y-109390000D01*
X162082560Y-109390000D01*
X162082560Y-111590000D01*
X162126838Y-111825317D01*
X162265910Y-112041441D01*
X162478110Y-112186431D01*
X162730000Y-112237440D01*
X164930000Y-112237440D01*
X165165317Y-112193162D01*
X165381441Y-112054090D01*
X165526431Y-111841890D01*
X165577440Y-111590000D01*
X165577440Y-109390000D01*
X165533162Y-109154683D01*
X165394090Y-108938559D01*
X165181890Y-108793569D01*
X164930000Y-108742560D01*
X162730000Y-108742560D01*
X162494683Y-108786838D01*
X162278559Y-108925910D01*
X162133569Y-109138110D01*
X162082560Y-109390000D01*
X151194288Y-109390000D01*
X151086830Y-109229179D01*
X150523956Y-108853078D01*
X149860000Y-108721009D01*
X149196044Y-108853078D01*
X148633170Y-109229179D01*
X148257069Y-109792053D01*
X148125000Y-110456009D01*
X146175000Y-110456009D01*
X146175000Y-108585000D01*
X146117148Y-108294161D01*
X145952401Y-108047599D01*
X145152784Y-107247982D01*
X145244699Y-107026627D01*
X145244701Y-107023599D01*
X168444699Y-107023599D01*
X168708281Y-107661515D01*
X169195918Y-108150004D01*
X169833373Y-108414699D01*
X170523599Y-108415301D01*
X171161515Y-108151719D01*
X171650004Y-107664082D01*
X171914699Y-107026627D01*
X171914701Y-107023599D01*
X181144699Y-107023599D01*
X181408281Y-107661515D01*
X181895918Y-108150004D01*
X182533373Y-108414699D01*
X183223599Y-108415301D01*
X183861515Y-108151719D01*
X184350004Y-107664082D01*
X184614699Y-107026627D01*
X184615301Y-106336401D01*
X184351719Y-105698485D01*
X183864082Y-105209996D01*
X183226627Y-104945301D01*
X182536401Y-104944699D01*
X181898485Y-105208281D01*
X181409996Y-105695918D01*
X181145301Y-106333373D01*
X181144699Y-107023599D01*
X171914701Y-107023599D01*
X171915301Y-106336401D01*
X171651719Y-105698485D01*
X171164082Y-105209996D01*
X170526627Y-104945301D01*
X169836401Y-104944699D01*
X169198485Y-105208281D01*
X168709996Y-105695918D01*
X168445301Y-106333373D01*
X168444699Y-107023599D01*
X145244701Y-107023599D01*
X145245301Y-106336401D01*
X144981719Y-105698485D01*
X144494082Y-105209996D01*
X143856627Y-104945301D01*
X143166401Y-104944699D01*
X142528485Y-105208281D01*
X142039996Y-105695918D01*
X141775301Y-106333373D01*
X141774699Y-107023599D01*
X142038281Y-107661515D01*
X142525918Y-108150004D01*
X143163373Y-108414699D01*
X143853599Y-108415301D01*
X144077843Y-108322645D01*
X144655000Y-108899802D01*
X144655000Y-109181195D01*
X144494082Y-109019996D01*
X143856627Y-108755301D01*
X143166401Y-108754699D01*
X142528485Y-109018281D01*
X142039996Y-109505918D01*
X141775301Y-110143373D01*
X141774699Y-110833599D01*
X142038281Y-111471515D01*
X142525918Y-111960004D01*
X143163373Y-112224699D01*
X143853599Y-112225301D01*
X144491515Y-111961719D01*
X144655000Y-111798519D01*
X144655000Y-129225198D01*
X142627804Y-131252394D01*
X141852105Y-131612590D01*
X141386623Y-131520000D01*
X139283377Y-131520000D01*
X138657690Y-131644457D01*
X138127257Y-131998880D01*
X137772834Y-132529313D01*
X137648377Y-133155000D01*
X137772834Y-133780687D01*
X138127257Y-134311120D01*
X138477284Y-134545000D01*
X121995000Y-134545000D01*
X121995000Y-127855000D01*
X137648377Y-127855000D01*
X137772834Y-128480687D01*
X138127257Y-129011120D01*
X138657690Y-129365543D01*
X139283377Y-129490000D01*
X141386623Y-129490000D01*
X142012310Y-129365543D01*
X142542743Y-129011120D01*
X142897166Y-128480687D01*
X143021623Y-127855000D01*
X142897166Y-127229313D01*
X142542743Y-126698880D01*
X142012310Y-126344457D01*
X141386623Y-126220000D01*
X139283377Y-126220000D01*
X138657690Y-126344457D01*
X138127257Y-126698880D01*
X137772834Y-127229313D01*
X137648377Y-127855000D01*
X121995000Y-127855000D01*
X121995000Y-122055000D01*
X137648377Y-122055000D01*
X137772834Y-122680687D01*
X138127257Y-123211120D01*
X138657690Y-123565543D01*
X139283377Y-123690000D01*
X141386623Y-123690000D01*
X142012310Y-123565543D01*
X142542743Y-123211120D01*
X142897166Y-122680687D01*
X143021623Y-122055000D01*
X142897166Y-121429313D01*
X142542743Y-120898880D01*
X142012310Y-120544457D01*
X141386623Y-120420000D01*
X139283377Y-120420000D01*
X138657690Y-120544457D01*
X138127257Y-120898880D01*
X137772834Y-121429313D01*
X137648377Y-122055000D01*
X121995000Y-122055000D01*
X121995000Y-116662200D01*
X134829215Y-116662200D01*
X134964557Y-117342611D01*
X135349979Y-117919436D01*
X135926804Y-118304858D01*
X136607215Y-118440200D01*
X137712785Y-118440200D01*
X138393196Y-118304858D01*
X138970021Y-117919436D01*
X139355443Y-117342611D01*
X139490785Y-116662200D01*
X139355443Y-115981789D01*
X138970021Y-115404964D01*
X138393196Y-115019542D01*
X137712785Y-114884200D01*
X136607215Y-114884200D01*
X135926804Y-115019542D01*
X135349979Y-115404964D01*
X134964557Y-115981789D01*
X134829215Y-116662200D01*
X121995000Y-116662200D01*
X121995000Y-110833599D01*
X129074699Y-110833599D01*
X129338281Y-111471515D01*
X129825918Y-111960004D01*
X130463373Y-112224699D01*
X131153599Y-112225301D01*
X131791515Y-111961719D01*
X132280004Y-111474082D01*
X132544699Y-110836627D01*
X132545301Y-110146401D01*
X132281719Y-109508485D01*
X131794082Y-109019996D01*
X131156627Y-108755301D01*
X130466401Y-108754699D01*
X129828485Y-109018281D01*
X129339996Y-109505918D01*
X129075301Y-110143373D01*
X129074699Y-110833599D01*
X121995000Y-110833599D01*
X121995000Y-107023599D01*
X129074699Y-107023599D01*
X129338281Y-107661515D01*
X129825918Y-108150004D01*
X130463373Y-108414699D01*
X131153599Y-108415301D01*
X131791515Y-108151719D01*
X132280004Y-107664082D01*
X132544699Y-107026627D01*
X132545301Y-106336401D01*
X132281719Y-105698485D01*
X131794082Y-105209996D01*
X131156627Y-104945301D01*
X130466401Y-104944699D01*
X129828485Y-105208281D01*
X129339996Y-105695918D01*
X129075301Y-106333373D01*
X129074699Y-107023599D01*
X121995000Y-107023599D01*
X121995000Y-103213599D01*
X129074699Y-103213599D01*
X129338281Y-103851515D01*
X129825918Y-104340004D01*
X130463373Y-104604699D01*
X131153599Y-104605301D01*
X131791515Y-104341719D01*
X132280004Y-103854082D01*
X132544699Y-103216627D01*
X132544701Y-103213599D01*
X141774699Y-103213599D01*
X142038281Y-103851515D01*
X142525918Y-104340004D01*
X143163373Y-104604699D01*
X143853599Y-104605301D01*
X144491515Y-104341719D01*
X144980004Y-103854082D01*
X145244699Y-103216627D01*
X145245301Y-102526401D01*
X144981719Y-101888485D01*
X144863441Y-101770000D01*
X148112560Y-101770000D01*
X148112560Y-103970000D01*
X148156838Y-104205317D01*
X148295910Y-104421441D01*
X148508110Y-104566431D01*
X148760000Y-104617440D01*
X150960000Y-104617440D01*
X151195317Y-104573162D01*
X151411441Y-104434090D01*
X151556431Y-104221890D01*
X151607440Y-103970000D01*
X151607440Y-102836009D01*
X162095000Y-102836009D01*
X162095000Y-102903991D01*
X162227069Y-103567947D01*
X162603170Y-104130821D01*
X163166044Y-104506922D01*
X163830000Y-104638991D01*
X164493956Y-104506922D01*
X165056830Y-104130821D01*
X165432931Y-103567947D01*
X165503415Y-103213599D01*
X168444699Y-103213599D01*
X168708281Y-103851515D01*
X169195918Y-104340004D01*
X169833373Y-104604699D01*
X170523599Y-104605301D01*
X171161515Y-104341719D01*
X171650004Y-103854082D01*
X171914699Y-103216627D01*
X171914701Y-103213599D01*
X181144699Y-103213599D01*
X181408281Y-103851515D01*
X181895918Y-104340004D01*
X182533373Y-104604699D01*
X183223599Y-104605301D01*
X183861515Y-104341719D01*
X184350004Y-103854082D01*
X184614699Y-103216627D01*
X184615301Y-102526401D01*
X184351719Y-101888485D01*
X183864082Y-101399996D01*
X183226627Y-101135301D01*
X182536401Y-101134699D01*
X181898485Y-101398281D01*
X181409996Y-101885918D01*
X181145301Y-102523373D01*
X181144699Y-103213599D01*
X171914701Y-103213599D01*
X171915301Y-102526401D01*
X171651719Y-101888485D01*
X171164082Y-101399996D01*
X170526627Y-101135301D01*
X169836401Y-101134699D01*
X169198485Y-101398281D01*
X168709996Y-101885918D01*
X168445301Y-102523373D01*
X168444699Y-103213599D01*
X165503415Y-103213599D01*
X165565000Y-102903991D01*
X165565000Y-102836009D01*
X165432931Y-102172053D01*
X165056830Y-101609179D01*
X164493956Y-101233078D01*
X163830000Y-101101009D01*
X163166044Y-101233078D01*
X162603170Y-101609179D01*
X162227069Y-102172053D01*
X162095000Y-102836009D01*
X151607440Y-102836009D01*
X151607440Y-101770000D01*
X151563162Y-101534683D01*
X151424090Y-101318559D01*
X151211890Y-101173569D01*
X150960000Y-101122560D01*
X148760000Y-101122560D01*
X148524683Y-101166838D01*
X148308559Y-101305910D01*
X148163569Y-101518110D01*
X148112560Y-101770000D01*
X144863441Y-101770000D01*
X144494082Y-101399996D01*
X143856627Y-101135301D01*
X143166401Y-101134699D01*
X142528485Y-101398281D01*
X142039996Y-101885918D01*
X141775301Y-102523373D01*
X141774699Y-103213599D01*
X132544701Y-103213599D01*
X132545301Y-102526401D01*
X132281719Y-101888485D01*
X131794082Y-101399996D01*
X131156627Y-101135301D01*
X130466401Y-101134699D01*
X129828485Y-101398281D01*
X129339996Y-101885918D01*
X129075301Y-102523373D01*
X129074699Y-103213599D01*
X121995000Y-103213599D01*
X121995000Y-99477832D01*
X122919811Y-100404259D01*
X124328825Y-100989333D01*
X125854482Y-100990664D01*
X127264515Y-100408050D01*
X128344259Y-99330189D01*
X128456451Y-99060000D01*
X150631009Y-99060000D01*
X150763078Y-99723956D01*
X151139179Y-100286830D01*
X151702053Y-100662931D01*
X152366009Y-100795000D01*
X152433991Y-100795000D01*
X153097947Y-100662931D01*
X153660821Y-100286830D01*
X154036922Y-99723956D01*
X154168991Y-99060000D01*
X154036922Y-98396044D01*
X153745567Y-97960000D01*
X158272560Y-97960000D01*
X158272560Y-100160000D01*
X158316838Y-100395317D01*
X158455910Y-100611441D01*
X158668110Y-100756431D01*
X158920000Y-100807440D01*
X161120000Y-100807440D01*
X161355317Y-100763162D01*
X161571441Y-100624090D01*
X161716431Y-100411890D01*
X161767440Y-100160000D01*
X161767440Y-97960000D01*
X161723162Y-97724683D01*
X161584090Y-97508559D01*
X161371890Y-97363569D01*
X161120000Y-97312560D01*
X158920000Y-97312560D01*
X158684683Y-97356838D01*
X158468559Y-97495910D01*
X158323569Y-97708110D01*
X158272560Y-97960000D01*
X153745567Y-97960000D01*
X153660821Y-97833170D01*
X153097947Y-97457069D01*
X152433991Y-97325000D01*
X152366009Y-97325000D01*
X151702053Y-97457069D01*
X151139179Y-97833170D01*
X150763078Y-98396044D01*
X150631009Y-99060000D01*
X128456451Y-99060000D01*
X128929333Y-97921175D01*
X128930400Y-96697800D01*
X134829215Y-96697800D01*
X134964557Y-97378211D01*
X135349979Y-97955036D01*
X135926804Y-98340458D01*
X136607215Y-98475800D01*
X137712785Y-98475800D01*
X138393196Y-98340458D01*
X138970021Y-97955036D01*
X139355443Y-97378211D01*
X139490785Y-96697800D01*
X174199215Y-96697800D01*
X174334557Y-97378211D01*
X174719979Y-97955036D01*
X175296804Y-98340458D01*
X175977215Y-98475800D01*
X177082785Y-98475800D01*
X177763196Y-98340458D01*
X178340021Y-97955036D01*
X178725443Y-97378211D01*
X178860785Y-96697800D01*
X178725443Y-96017389D01*
X178340021Y-95440564D01*
X177763196Y-95055142D01*
X177082785Y-94919800D01*
X175977215Y-94919800D01*
X175296804Y-95055142D01*
X174719979Y-95440564D01*
X174334557Y-96017389D01*
X174199215Y-96697800D01*
X139490785Y-96697800D01*
X139355443Y-96017389D01*
X138970021Y-95440564D01*
X138393196Y-95055142D01*
X137712785Y-94919800D01*
X136607215Y-94919800D01*
X135926804Y-95055142D01*
X135349979Y-95440564D01*
X134964557Y-96017389D01*
X134829215Y-96697800D01*
X128930400Y-96697800D01*
X128930664Y-96395518D01*
X128348050Y-94985485D01*
X127419188Y-94055000D01*
X186272168Y-94055000D01*
X185345741Y-94979811D01*
M02*
